# Blender v2.78 (sub 0) OBJ File: 'Low_Poly_Vegetation_Pack.blend'
# www.blender.org
g Grass_h_OneS_04
v -0.184489 0.273467 -0.060292
v 0.021711 -0.026132 0.021485
v 0.035745 -0.026132 0.021485
v -0.056841 0.217853 0.002290
v -0.045248 0.218709 0.002396
v -0.276585 0.134248 -0.021592
v -0.044345 -0.026463 0.000000
v -0.030449 -0.026449 0.000000
v -0.086018 0.113424 -0.011738
v -0.074297 0.123688 -0.012865
v 0.286072 0.187398 -0.195674
v 0.029484 -0.026463 0.000000
v 0.043415 -0.026449 0.000000
v 0.096481 0.129467 -0.055608
v 0.105302 0.123578 -0.052934
v -0.129703 0.376746 -0.044005
v -0.023605 -0.026132 0.037772
v -0.009571 -0.026132 0.037772
v -0.128721 0.261898 0.018577
v -0.114788 0.260235 0.018683
v 0.210018 0.325663 -0.195674
v -0.020440 -0.026463 0.000000
v -0.006510 -0.026449 0.000000
v 0.046675 0.255365 -0.084459
v 0.057201 0.250409 -0.084976
vt 0.4257 0.5554
vt 0.4236 0.5142
vt 0.4261 0.5139
vt 0.4282 0.5542
vt 0.3015 0.6131
vt 0.3030 0.5835
vt 0.3055 0.5834
vt 0.1837 0.5407
vt 0.1814 0.5142
vt 0.1840 0.5139
vt 0.1871 0.5421
vt 0.2996 0.5142
vt 0.3021 0.5139
vt 0.4255 0.6131
vt 0.1833 0.6131
vt 0.1842 0.5699
vt 0.1867 0.5697
vt 0.1840 0.5139
vt 0.1814 0.5142
vt 0.0515 0.6131
vt 0.0530 0.5835
vt 0.0555 0.5834
vt 0.1841 0.5863
vt 0.0521 0.5139
vt 0.0496 0.5142
vn 0.1217 0.5343 0.8365
vn -0.0219 0.3424 0.9393
vn 0.1318 0.5468 0.8268
vn -0.0573 0.6854 0.7259
vn -0.0419 0.5004 0.8648
vn -0.0198 0.2339 0.9720
vn -0.0145 0.1200 0.9926
vn 0.0089 0.0871 0.9962
vn -0.0089 0.1122 0.9936
vn -0.0067 0.0759 0.9971
vn 0.2705 0.7035 0.6571
vn 0.2965 0.5482 0.7820
vn 0.1683 0.3922 0.9043
vn 0.2008 0.4327 0.8789
vn 0.0755 0.2731 0.9590
vn 0.0504 0.4782 0.8768
vn 0.0313 0.3227 0.9460
vn 0.0206 0.2358 0.9716
vn -0.0349 0.1484 0.9883
vn 0.0002 0.0666 0.9978
s 1
f 14/1/1 12/2/2 13/3/2 15/4/3
f 1/5/4 4/6/5 5/7/6
f 9/8/7 7/9/8 8/10/8 10/11/9
f 4/6/5 2/12/10 3/13/10 5/7/6
f 11/14/11 14/1/1 15/4/3
f 21/15/12 24/16/13 25/17/14
f 23/18/15 25/17/14 24/16/13 22/19/15
f 16/20/16 19/21/17 20/22/18
f 9/8/7 10/11/9 6/23/19
f 18/24/20 20/22/18 19/21/17 17/25/20
