# Blender v2.78 (sub 0) OBJ File: 'Low_Poly_Vegetation_Pack.blend'
# www.blender.org
g Grass_b_OneS_04
v -0.003881 0.232330 0.154259
v -0.082296 -0.017496 0.085208
v -0.079064 -0.029178 0.123803
v 0.022342 0.221805 0.012877
v -0.004957 -0.015666 0.032007
v 0.047826 0.221805 0.049243
v 0.020527 -0.015666 0.068374
v 0.089461 0.448979 -0.034158
v -0.081482 0.253141 0.054574
v -0.046546 -0.013808 0.025459
v -0.041612 -0.017523 0.065438
v -0.042243 0.161328 -0.121685
v -0.061123 -0.015666 -0.105535
v -0.020728 0.161328 -0.096535
v -0.039608 -0.015666 -0.080384
v 0.004176 0.330647 -0.161394
v 0.066097 0.200660 -0.112605
v 0.041359 -0.015666 -0.130216
v 0.042635 0.200660 -0.079650
v 0.017898 -0.015666 -0.097262
v 0.118673 0.407605 -0.087295
v 0.159899 0.232330 -0.024454
v 0.079645 -0.017496 0.042450
v 0.118278 -0.029178 0.045172
v 0.016151 0.221805 -0.020102
v 0.030871 -0.015666 0.009807
v 0.055994 0.221805 -0.039711
v 0.070714 -0.015666 -0.009802
v -0.020040 0.448979 -0.093638
v 0.030003 0.253141 0.127162
v 0.006587 -0.013808 0.088177
v 0.046849 -0.017523 0.089429
v -0.126721 0.161328 0.023093
v -0.113655 -0.015666 0.044225
v -0.098569 0.161328 0.005688
v -0.085504 -0.015666 0.026820
v -0.158845 0.330647 -0.028864
v -0.062860 0.200660 -0.035863
v -0.084056 -0.015666 -0.014118
v -0.033892 0.200660 -0.007628
v -0.055087 -0.015666 0.014118
v -0.029790 0.407605 -0.083939
vt 0.5797 0.5993
vt 0.5690 0.5279
vt 0.5797 0.5263
vt 0.5637 0.5621
vt 0.5637 0.5117
vt 0.5730 0.5117
vt 0.5730 0.5621
vt 0.5637 0.6139
vt 0.6939 0.5993
vt 0.6832 0.5279
vt 0.6939 0.5263
vt 0.5637 0.5621
vt 0.5637 0.5117
vt 0.5730 0.5117
vt 0.5730 0.5621
vt 0.5637 0.6139
vt 0.5637 0.5621
vt 0.5637 0.5117
vt 0.5730 0.5117
vt 0.5730 0.5621
vt 0.5637 0.6139
vt 0.6939 0.5993
vt 0.6832 0.5279
vt 0.6939 0.5263
vt 0.6779 0.5621
vt 0.6779 0.5117
vt 0.6872 0.5117
vt 0.6872 0.5621
vt 0.6779 0.6139
vt 0.6939 0.5993
vt 0.6832 0.5279
vt 0.6939 0.5263
vt 0.6779 0.5621
vt 0.6779 0.5117
vt 0.6872 0.5117
vt 0.6872 0.5621
vt 0.6779 0.6139
vt 0.6779 0.5621
vt 0.6779 0.5117
vt 0.6872 0.5117
vt 0.6872 0.5621
vt 0.6779 0.6139
vn -0.9538 0.2559 0.1573
vn -0.7949 0.2405 0.5570
vn -0.8110 0.1390 0.5683
vn -0.7961 0.2343 0.5579
vn -0.7703 0.3393 0.5398
vn -0.9841 -0.1406 0.1084
vn -0.7376 0.2405 0.6309
vn -0.7525 0.1390 0.6437
vn -0.7387 0.2343 0.6319
vn -0.7148 0.3393 0.6114
vn -0.7974 0.2047 -0.5677
vn -0.8067 0.1390 -0.5743
vn -0.7984 0.1987 -0.5684
vn -0.7849 0.2677 -0.5588
vn 0.0093 0.2559 0.9667
vn 0.4286 0.2405 0.8709
vn 0.4373 0.1390 0.8885
vn 0.4293 0.2343 0.8722
vn 0.4154 0.3393 0.8440
vn -0.0437 -0.1406 0.9891
vn 0.5104 0.2405 0.8256
vn 0.5208 0.1390 0.8423
vn 0.5112 0.2343 0.8269
vn 0.4946 0.3394 0.8001
vn -0.6832 0.2047 0.7009
vn -0.6912 0.1390 0.7091
vn -0.6840 0.1987 0.7018
vn -0.6725 0.2677 0.6899
s off
f 1/1/1 2/2/1 3/3/1
s 1
f 4/4/2 5/5/3 7/6/3 6/7/4
f 4/4/2 6/7/4 8/8/5
s off
f 9/9/6 10/10/6 11/11/6
s 1
f 12/12/7 13/13/8 15/14/8 14/15/9
f 12/12/7 14/15/9 16/16/10
f 17/17/11 18/18/12 20/19/12 19/20/13
f 17/17/11 19/20/13 21/21/14
s off
f 22/22/15 23/23/15 24/24/15
s 1
f 25/25/16 26/26/17 28/27/17 27/28/18
f 25/25/16 27/28/18 29/29/19
s off
f 30/30/20 31/31/20 32/32/20
s 1
f 33/33/21 34/34/22 36/35/22 35/36/23
f 33/33/21 35/36/23 37/37/24
f 38/38/25 39/39/26 41/40/26 40/41/27
f 38/38/25 40/41/27 42/42/28
