# Blender v2.78 (sub 0) OBJ File: 'Low_Poly_Vegetation_Pack.blend'
# www.blender.org
g Grass_h_OneS_06
v 0.074922 0.294554 -0.021117
v 0.010117 0.199835 -0.193144
v 0.026156 0.195045 -0.191952
v -0.086610 0.348181 -0.364200
v -0.012699 0.208317 -0.289183
v -0.002493 0.208648 -0.284194
v 0.156112 0.280304 -0.410390
v -0.001830 0.121908 -0.257720
v 0.016340 0.120586 -0.257962
v -0.175030 0.352206 -0.541510
v -0.061693 0.156895 -0.342350
v -0.047440 0.157010 -0.335986
v -0.080635 0.373129 -0.248647
v -0.072681 0.119519 -0.239580
v -0.054893 0.122509 -0.239062
v 0.022539 -0.048291 -0.254396
v 0.032008 -0.049407 -0.248069
v 0.007149 -0.048291 -0.272956
v 0.016618 -0.049407 -0.266629
v -0.007006 -0.049114 -0.269843
v 0.004352 -0.049102 -0.269841
v -0.019295 -0.048592 -0.286546
v -0.008257 -0.049113 -0.283529
v -0.026946 -0.049278 -0.251312
v -0.015507 -0.049220 -0.251301
v -0.491688 0.142335 0.227879
v -0.358579 0.197747 0.139698
v -0.367474 0.189677 0.138715
v -0.395049 0.274105 -0.026901
v -0.264468 0.144984 0.034729
v -0.247149 0.142543 0.036904
v -0.341507 0.220773 0.244813
v -0.233408 0.124554 0.076426
v -0.251378 0.123086 0.074417
v -0.412573 0.380712 -0.046550
v -0.266034 0.233798 -0.005623
v -0.249748 0.238052 0.002979
v -0.219523 -0.033494 0.060810
v -0.239436 -0.033681 0.058635
v -0.234644 -0.034143 0.047954
v -0.216900 -0.033816 0.059868
v -0.234800 -0.033057 0.058865
v -0.254656 -0.033372 0.056689
v -0.238049 -0.033245 0.045668
v -0.221568 -0.033225 0.056734
v 0.022489 0.119081 0.159267
v -0.102289 0.167303 0.098127
v -0.099113 0.160280 0.105238
v -0.030877 0.208029 0.039057
v -0.162467 0.154999 0.038141
v -0.157540 0.153403 0.049370
v -0.222705 -0.033936 0.028431
v -0.215577 -0.034098 0.044339
v -0.217444 -0.033555 0.040757
v -0.210341 -0.033829 0.056623
v 0.265589 0.299179 -0.005925
v 0.317866 0.161025 0.155100
v 0.332421 0.159434 0.146501
v 0.132466 0.186086 0.418156
v 0.191600 0.173021 0.277917
v 0.201382 0.180798 0.274754
v 0.063611 0.328390 0.104003
v 0.187381 0.210715 0.167534
v 0.202780 0.207579 0.164300
v 0.420013 0.339639 0.376863
v 0.285887 0.216475 0.278856
v 0.295248 0.211965 0.270776
v 0.219177 0.263248 0.055242
v 0.264099 0.161939 0.178861
v 0.278448 0.160354 0.170385
v 0.021284 0.280655 0.299001
v 0.249555 0.144400 0.259584
v 0.266943 0.143126 0.249460
v 0.344497 0.159839 -0.050973
v 0.276524 0.152132 0.136689
v 0.292183 0.149125 0.127334
v 0.292624 -0.028648 0.206780
v 0.306510 -0.028903 0.198481
v 0.226187 -0.028415 0.240961
v 0.242369 -0.028415 0.241887
v 0.245396 -0.028415 0.229472
v 0.261579 -0.028415 0.230399
v 0.291271 -0.028415 0.254062
v 0.307454 -0.028415 0.254988
v 0.276809 -0.028645 0.207842
v 0.290671 -0.028900 0.199558
v 0.276449 -0.029523 0.241679
v 0.291279 -0.029259 0.232810
v 0.251003 -0.028999 0.188947
v 0.264901 -0.029150 0.180634
v -0.320566 0.273467 0.407249
v -0.114367 -0.026132 0.489026
v -0.100333 -0.026132 0.489026
v -0.192919 0.217853 0.469831
v -0.181326 0.218709 0.469937
v -0.412663 0.134248 0.445949
v -0.180423 -0.026463 0.467541
v -0.166527 -0.026449 0.467541
v -0.222095 0.113424 0.455803
v -0.210375 0.123688 0.454675
v 0.149994 0.187398 0.271866
v -0.106593 -0.026463 0.467541
v -0.092663 -0.026449 0.467541
v -0.039597 0.129467 0.411933
v -0.030776 0.123578 0.414607
v -0.265781 0.376746 0.423535
v -0.159683 -0.026132 0.505312
v -0.145649 -0.026132 0.505312
v -0.264799 0.261898 0.486117
v -0.250866 0.260235 0.486223
v 0.073940 0.325663 0.271866
v -0.156518 -0.026463 0.467541
v -0.142587 -0.026449 0.467541
v -0.089402 0.255365 0.383082
v -0.078876 0.250409 0.382565
vt 0.1858 0.5650
vt 0.1829 0.5653
vt 0.1797 0.5110
vt 0.1821 0.5107
vt 0.1815 0.6089
vt 0.1815 0.6089
vt 0.1826 0.5706
vt 0.1851 0.5704
vt 0.1797 0.5110
vt 0.1821 0.5107
vt 0.3119 0.5390
vt 0.3095 0.5110
vt 0.3120 0.5107
vt 0.3151 0.5386
vt 0.4462 0.6089
vt 0.4466 0.5390
vt 0.4499 0.5386
vt 0.3118 0.5539
vt 0.3095 0.5110
vt 0.3120 0.5107
vt 0.3143 0.5536
vt 0.4443 0.5110
vt 0.4468 0.5107
vt 0.3114 0.6089
vt 0.3114 0.6089
vt 0.4346 0.5815
vt 0.4314 0.5168
vt 0.4337 0.5165
vt 0.4369 0.5814
vt 0.1747 0.5680
vt 0.1717 0.5168
vt 0.1741 0.5165
vt 0.1775 0.5676
vt 0.0561 0.5432
vt 0.0539 0.5168
vt 0.0562 0.5165
vt 0.0592 0.5428
vt 0.1735 0.6091
vt 0.3108 0.5676
vt 0.3081 0.5680
vt 0.3050 0.5168
vt 0.3074 0.5165
vt 0.3072 0.5432
vt 0.3050 0.5168
vt 0.3074 0.5165
vt 0.3103 0.5428
vt 0.4331 0.6091
vt 0.3068 0.6091
vt 0.4369 0.5814
vt 0.4346 0.5815
vt 0.4314 0.5168
vt 0.4337 0.5165
vt 0.4331 0.6091
vt 0.3068 0.6091
vt 0.0557 0.6091
vt 0.3199 0.6161
vt 0.3213 0.5686
vt 0.3245 0.5682
vt 0.4229 0.5686
vt 0.4194 0.5094
vt 0.4221 0.5091
vt 0.4261 0.5682
vt 0.0618 0.6161
vt 0.0623 0.5400
vt 0.0658 0.5396
vt 0.1963 0.5542
vt 0.1931 0.5094
vt 0.1958 0.5091
vt 0.1997 0.5538
vt 0.4214 0.6161
vt 0.3211 0.5542
vt 0.3245 0.5538
vt 0.3199 0.6161
vt 0.0618 0.6161
vt 0.0630 0.5542
vt 0.0664 0.5538
vt 0.3178 0.5094
vt 0.3205 0.5091
vt 0.1951 0.6161
vt 0.1965 0.5686
vt 0.1997 0.5682
vt 0.0597 0.5094
vt 0.0624 0.5091
vt 0.3178 0.5094
vt 0.3205 0.5091
vt 0.0597 0.5094
vt 0.0624 0.5091
vt 0.1931 0.5094
vt 0.1958 0.5091
vt 0.1967 0.6043
vt 0.4257 0.5554
vt 0.4236 0.5142
vt 0.4261 0.5139
vt 0.4282 0.5542
vt 0.3015 0.6131
vt 0.3030 0.5835
vt 0.3055 0.5834
vt 0.1837 0.5407
vt 0.1814 0.5142
vt 0.1840 0.5139
vt 0.1871 0.5421
vt 0.2996 0.5142
vt 0.3021 0.5139
vt 0.4255 0.6131
vt 0.1833 0.6131
vt 0.1842 0.5699
vt 0.1867 0.5697
vt 0.1840 0.5139
vt 0.1814 0.5142
vt 0.0515 0.6131
vt 0.0530 0.5835
vt 0.0555 0.5834
vt 0.1841 0.5863
vt 0.0521 0.5139
vt 0.0496 0.5142
vn -0.3205 -0.5328 0.7832
vn -0.3188 -0.5538 0.7692
vn -0.3239 -0.2306 0.9175
vn -0.2773 -0.7937 0.5415
vn -0.4328 0.2377 0.8696
vn -0.4625 0.1486 0.8741
vn -0.4770 0.0997 0.8732
vn -0.4979 0.0192 0.8670
vn 0.0280 0.2356 0.9714
vn 0.0050 -0.0705 0.9975
vn 0.0382 0.3763 0.9257
vn -0.0349 0.0346 0.9988
vn -0.0226 -0.0198 0.9995
vn -0.0227 -0.0190 0.9995
vn -0.3471 0.4331 0.8318
vn -0.3399 0.1756 0.9239
vn -0.3468 0.3088 0.8856
vn -0.0104 -0.0728 0.9973
vn -0.3395 0.5677 0.7499
vn 0.0581 0.6621 0.7471
vn -0.2108 0.4982 -0.8410
vn 0.0076 0.3340 -0.9425
vn -0.3587 0.5913 -0.7223
vn -0.4715 -0.0523 0.8803
vn -0.5220 0.1105 0.8457
vn -0.4899 0.0016 0.8718
vn -0.1705 0.2677 0.9483
vn -0.3710 0.0318 0.9281
vn -0.3026 0.1175 0.9458
vn -0.4237 -0.1750 0.8887
vn -0.6607 0.6503 0.3748
vn -0.7077 0.5918 0.3858
vn -0.8753 0.2617 0.4067
vn 0.0570 0.5024 -0.8627
vn 0.1042 0.1095 -0.9885
vn 0.0469 0.5672 -0.8222
vn -0.5771 0.6893 -0.4379
vn -0.0144 0.8641 -0.5030
vn -0.4418 0.5913 0.6746
vn -0.6190 0.4982 0.6071
vn -0.8170 0.3340 0.4700
vn -0.0860 0.6894 0.7193
vn -0.3601 0.8885 0.2843
vn -0.0628 0.3775 0.9239
vn 0.6502 -0.6806 0.3376
vn 0.4516 -0.4783 0.7532
vn 0.4272 -0.4532 0.7823
vn 0.2252 0.5526 0.8025
vn 0.0977 0.2813 0.9546
vn 0.1515 0.3968 0.9053
vn 0.4498 0.5501 0.7035
vn 0.4887 0.3738 0.7883
vn 0.5100 0.1218 0.8515
vn 0.5100 0.4660 0.7230
vn 0.5189 0.1698 0.8378
vn 0.4249 0.7712 0.4740
vn 0.2808 0.6676 0.6895
vn 0.4859 0.4633 0.7411
vn 0.4768 0.5092 0.7165
vn 0.3916 0.7573 0.5226
vn 0.3809 0.7782 0.4993
vn 0.4785 0.5025 0.7201
vn 0.4800 0.4952 0.7241
vn 0.1275 -0.1434 0.9814
vn 0.2033 -0.7356 0.6461
vn 0.2423 -0.4936 0.8352
vn 0.2517 -0.3791 0.8904
vn 0.5075 -0.0109 0.8615
vn 0.5118 0.1621 0.8437
vn 0.5118 0.1627 0.8436
vn 0.2573 -0.0713 0.9637
vn 0.2639 0.9550 0.1348
vn 0.1217 0.5343 0.8365
vn -0.0219 0.3424 0.9393
vn 0.1318 0.5468 0.8268
vn -0.0573 0.6854 0.7259
vn -0.0419 0.5004 0.8648
vn -0.0198 0.2339 0.9720
vn -0.0145 0.1200 0.9926
vn 0.0089 0.0871 0.9962
vn -0.0089 0.1122 0.9936
vn -0.0067 0.0759 0.9971
vn 0.2705 0.7035 0.6571
vn 0.2965 0.5482 0.7820
vn 0.1683 0.3922 0.9043
vn 0.2008 0.4327 0.8789
vn 0.0755 0.2731 0.9590
vn 0.0504 0.4782 0.8768
vn 0.0313 0.3227 0.9460
vn 0.0206 0.2358 0.9716
vn -0.0349 0.1484 0.9883
vn 0.0002 0.0666 0.9978
s 1
f 3/1/1 2/2/2 16/3/3 17/4/3
f 1/5/4 2/2/2 3/1/1
f 4/6/5 5/7/6 6/8/7
f 6/8/7 5/7/6 18/9/8 19/10/8
f 8/11/9 20/12/10 21/13/10 9/14/11
f 13/15/12 14/16/13 15/17/14
f 11/18/15 22/19/16 23/20/16 12/21/17
f 14/16/13 24/22/18 25/23/18 15/17/14
f 10/24/19 11/18/15 12/21/17
f 7/25/20 8/11/9 9/14/11
f 27/26/21 38/27/22 39/28/22 28/29/23
f 36/30/24 44/31/25 45/32/25 37/33/26
f 30/34/27 40/35/28 41/36/28 31/37/29
f 35/38/30 36/30/24 37/33/26
f 51/39/31 50/40/32 54/41/33 55/42/33
f 33/43/34 42/44/35 43/45/35 34/46/36
f 26/47/37 27/26/21 28/29/23
f 32/48/38 33/43/34 34/46/36
f 48/49/39 47/50/40 52/51/41 53/52/41
f 46/53/42 47/50/40 48/49/39
f 49/54/43 50/40/32 51/39/31
f 29/55/44 30/34/27 31/37/29
f 59/56/45 60/57/46 61/58/47
f 63/59/48 81/60/49 82/61/49 64/62/50
f 71/63/51 72/64/52 73/65/53
f 75/66/54 89/67/55 90/68/55 76/69/56
f 62/70/57 63/59/48 64/62/50
f 57/71/58 58/72/59 56/73/60
f 68/74/61 69/75/62 70/76/63
f 60/57/46 79/77/64 80/78/64 61/58/47
f 65/79/65 66/80/66 67/81/67
f 72/64/52 87/82/68 88/83/68 73/65/53
f 57/71/58 77/84/69 78/85/69 58/72/59
f 69/75/62 85/86/70 86/87/70 70/76/63
f 66/80/66 83/88/71 84/89/71 67/81/67
f 74/90/72 75/66/54 76/69/56
f 104/91/73 102/92/74 103/93/74 105/94/75
f 91/95/76 94/96/77 95/97/78
f 99/98/79 97/99/80 98/100/80 100/101/81
f 94/96/77 92/102/82 93/103/82 95/97/78
f 101/104/83 104/91/73 105/94/75
f 111/105/84 114/106/85 115/107/86
f 113/108/87 115/107/86 114/106/85 112/109/87
f 106/110/88 109/111/89 110/112/90
f 99/98/79 100/101/81 96/113/91
f 108/114/92 110/112/90 109/111/89 107/115/92
