# Blender v2.78 (sub 0) OBJ File: 'Low_Poly_Vegetation_Pack.blend'
# www.blender.org
g Grass_d_OneS_07
v 0.393402 -0.009057 0.062941
v 0.424781 -0.007430 0.073146
v 0.423365 0.315364 -0.080928
v 0.375413 -0.014629 0.096501
v 0.364634 -0.012926 0.068843
v 0.281987 0.287020 0.151492
v 0.355858 -0.007318 0.070035
v 0.385122 -0.009709 0.048622
v 0.330716 0.375954 -0.007122
v 0.055285 -0.036192 -0.128719
v 0.034130 -0.031234 -0.158388
v -0.037543 0.327721 -0.001710
v 0.047472 -0.033713 -0.211304
v 0.084247 -0.033713 -0.211304
v 0.047472 0.351079 -0.306784
v 0.160898 0.339427 -0.108932
v 0.072950 -0.033713 -0.164033
v 0.122494 -0.033713 -0.190282
v -0.112604 0.331087 -0.170504
v -0.039632 -0.033713 -0.193394
v 0.003502 -0.033713 -0.229214
v -0.282585 0.189882 0.097538
v -0.367656 -0.016378 0.083242
v -0.348585 -0.026022 0.108908
v -0.373436 -0.014866 0.035133
v -0.339725 -0.014866 0.049548
v -0.336012 0.368751 -0.052389
v -0.436366 0.207064 0.053549
v -0.424536 -0.013333 0.017914
v -0.403668 -0.016400 0.043810
v -0.472720 -0.014866 -0.036895
v -0.446677 -0.014866 -0.028620
v -0.451235 0.271055 -0.104510
v -0.420253 -0.014866 -0.049728
v -0.422363 -0.014866 -0.016397
v -0.347331 0.334593 -0.053282
v -0.033965 0.226184 0.376503
v -0.112381 -0.023642 0.307452
v -0.109149 -0.035323 0.346047
v -0.035042 -0.021811 0.254251
v -0.009557 -0.021811 0.290617
v 0.059376 0.442834 0.188086
v -0.106866 0.246995 0.301610
v -0.071931 -0.019954 0.272495
v -0.066997 -0.023668 0.312473
v -0.091207 -0.021811 0.116709
v -0.069692 -0.021811 0.141860
v -0.025908 0.324502 0.060850
v 0.011275 -0.021811 0.092027
v -0.012187 -0.021811 0.124982
v 0.088589 0.401460 0.134949
v 0.129815 0.226184 0.197790
v 0.049560 -0.023642 0.264694
v 0.088194 -0.035323 0.267416
v 0.000786 -0.021811 0.232051
v 0.040629 -0.021811 0.212442
v -0.050124 0.442834 0.128606
v 0.003550 0.246995 0.351420
v -0.019866 -0.019954 0.312435
v 0.020396 -0.023668 0.313687
v -0.143740 -0.021811 0.266469
v -0.115588 -0.021811 0.249064
v -0.188930 0.324502 0.193379
v -0.114140 -0.021811 0.208126
v -0.085172 -0.021811 0.236362
v -0.059875 0.401460 0.138305
vt 0.6941 0.5062
vt 0.6845 0.6113
vt 0.6845 0.5062
vt 0.5684 0.5062
vt 0.5588 0.6113
vt 0.5588 0.5062
vt 0.6941 0.5062
vt 0.6845 0.6113
vt 0.6845 0.5062
vt 0.6860 0.5119
vt 0.6767 0.6130
vt 0.6767 0.5119
vt 0.5748 0.5986
vt 0.5643 0.5279
vt 0.5748 0.5263
vt 0.6926 0.5986
vt 0.6820 0.5279
vt 0.6926 0.5263
vt 0.5682 0.5119
vt 0.5590 0.6130
vt 0.5590 0.5119
vt 0.6869 0.6023
vt 0.6756 0.5267
vt 0.6869 0.5250
vt 0.5609 0.5096
vt 0.5509 0.6178
vt 0.5509 0.5096
vt 0.5679 0.6023
vt 0.5566 0.5267
vt 0.5679 0.5250
vt 0.6799 0.5096
vt 0.6700 0.6178
vt 0.6700 0.5096
vt 0.5609 0.5096
vt 0.5509 0.6178
vt 0.5509 0.5096
vt 0.5797 0.5993
vt 0.5690 0.5279
vt 0.5797 0.5263
vt 0.5730 0.5117
vt 0.5637 0.6139
vt 0.5637 0.5117
vt 0.6939 0.5993
vt 0.6832 0.5279
vt 0.6939 0.5263
vt 0.5730 0.5117
vt 0.5637 0.6139
vt 0.5637 0.5117
vt 0.6872 0.5117
vt 0.6779 0.6139
vt 0.6779 0.5117
vt 0.6939 0.5993
vt 0.6832 0.5279
vt 0.6939 0.5263
vt 0.6872 0.5117
vt 0.6779 0.6139
vt 0.6779 0.5117
vt 0.6939 0.5993
vt 0.6832 0.5279
vt 0.6939 0.5263
vt 0.6872 0.5117
vt 0.6779 0.6139
vt 0.6779 0.5117
vt 0.5730 0.5117
vt 0.5637 0.6139
vt 0.5637 0.5117
vn 0.8852 0.3333 -0.3245
vn 0.5894 0.1964 0.7836
vn -0.3013 0.4096 0.8610
vn 0.0000 0.2408 0.9705
vn 0.4552 -0.2341 0.8591
vn 0.6369 0.0793 0.7669
vn 0.7837 0.3732 -0.4964
vn -0.7274 0.2559 0.6367
vn -0.2939 0.2408 0.9250
vn -0.7790 -0.1406 0.6111
vn -0.9771 0.2033 -0.0618
vn -0.3816 0.2408 0.8924
vn -0.9538 0.2559 0.1573
vn -0.7375 0.2408 0.6309
vn -0.9841 -0.1406 0.1084
vn -0.7976 0.2033 -0.5679
vn 0.4286 0.2408 0.8708
vn 0.0093 0.2559 0.9667
vn 0.5104 0.2408 0.8255
vn -0.0437 -0.1406 0.9891
vn -0.6834 0.2033 0.7011
vn -0.7948 0.2408 0.5570
s 1
f 5/1/1 6/2/1 4/3/1
f 8/4/2 9/5/2 7/6/2
f 2/7/3 3/8/3 1/9/3
f 14/10/4 15/11/4 13/12/4
s off
f 16/13/5 17/14/5 18/15/5
f 19/16/6 20/17/6 21/18/6
s 1
f 11/19/7 12/20/7 10/21/7
s off
f 22/22/8 23/23/8 24/24/8
s 1
f 32/25/9 33/26/9 31/27/9
s off
f 28/28/10 29/29/10 30/30/10
s 1
f 35/31/11 36/32/11 34/33/11
f 26/34/12 27/35/12 25/36/12
s off
f 37/37/13 38/38/13 39/39/13
s 1
f 47/40/14 48/41/14 46/42/14
s off
f 43/43/15 44/44/15 45/45/15
s 1
f 50/46/16 51/47/16 49/48/16
f 56/49/17 57/50/17 55/51/17
s off
f 52/52/18 53/53/18 54/54/18
s 1
f 62/55/19 63/56/19 61/57/19
s off
f 58/58/20 59/59/20 60/60/20
s 1
f 65/61/21 66/62/21 64/63/21
f 41/64/22 42/65/22 40/66/22
