# Blender v2.78 (sub 0) OBJ File: 'Low_Poly_Vegetation_Pack.blend'
# www.blender.org
g Grass_c_OneS_03
v 0.016309 -0.049414 0.086607
v -0.025611 -0.039589 0.027818
v -0.113222 0.432591 0.244446
v -0.013166 -0.044501 -0.032219
v 0.059704 -0.044501 -0.032219
v -0.001003 0.463424 -0.158252
v 0.148720 0.448043 0.102914
v 0.016243 -0.044501 0.038862
v 0.114413 -0.044501 -0.013151
v -0.212303 0.437035 0.021638
v -0.130245 -0.044501 0.003270
v -0.044777 -0.044501 -0.067707
vt 0.6860 0.5119
vt 0.6767 0.6130
vt 0.6767 0.5119
vt 0.5748 0.5986
vt 0.5643 0.5279
vt 0.5748 0.5263
vt 0.6926 0.5986
vt 0.6820 0.5279
vt 0.6926 0.5263
vt 0.5682 0.5119
vt 0.5590 0.6130
vt 0.5590 0.5119
vn 0.0000 0.2408 0.9705
vn 0.4552 -0.2341 0.8591
vn 0.6369 0.0793 0.7669
vn 0.7837 0.3732 -0.4964
s 1
f 5/1/1 6/2/1 4/3/1
s off
f 7/4/2 8/5/2 9/6/2
f 10/7/3 11/8/3 12/9/3
s 1
f 2/10/4 3/11/4 1/12/4
