# Blender v2.78 (sub 0) OBJ File: 'Low_Poly_Vegetation_Pack.blend'
# www.blender.org
g Grass_a_OneS_04
v -0.005122 0.306675 0.203622
v -0.110705 -0.015596 0.087700
v -0.102290 -0.046014 0.188195
v 0.025337 0.292783 0.011070
v -0.022903 -0.020679 0.018904
v 0.067285 0.292783 0.070929
v 0.043456 -0.020679 0.113599
v 0.118089 0.592652 -0.045089
v -0.104249 0.334146 0.101223
v -0.079831 -0.015842 0.028034
v -0.039844 -0.025515 0.125003
v -0.059268 0.212953 -0.164724
v -0.094493 -0.020679 -0.155451
v -0.023854 0.212953 -0.123326
v -0.038471 -0.020679 -0.089961
v 0.005513 0.436454 -0.213040
v 0.091072 0.264871 -0.154010
v 0.069655 -0.020679 -0.193041
v 0.052454 0.264871 -0.099767
v 0.008564 -0.020679 -0.107231
v 0.156649 0.538039 -0.115229
v 0.211067 0.306675 -0.032280
v 0.080330 -0.015596 0.054287
v 0.180928 -0.046014 0.061375
v 0.014825 0.292783 -0.023338
v 0.015172 -0.020679 0.025533
v 0.080407 0.292783 -0.055614
v 0.118919 -0.020679 -0.025527
v -0.026453 0.592652 -0.123602
v 0.039604 0.334146 0.167854
v -0.017152 -0.015842 0.115590
v 0.087687 -0.025515 0.118850
v -0.171860 0.212953 0.033320
v -0.168097 -0.020679 0.069551
v -0.125523 0.212953 0.004671
v -0.094793 -0.020679 0.024229
v -0.209676 0.436454 -0.038101
v -0.087698 0.264871 -0.051942
v -0.129550 -0.020679 -0.036761
v -0.040015 0.264871 -0.005466
v -0.054119 -0.020679 0.036761
v -0.039323 0.538039 -0.110800
vt 0.5797 0.5993
vt 0.5690 0.5279
vt 0.5797 0.5263
vt 0.5637 0.5621
vt 0.5637 0.5117
vt 0.5730 0.5117
vt 0.5730 0.5621
vt 0.5637 0.6139
vt 0.6939 0.5993
vt 0.6832 0.5279
vt 0.6939 0.5263
vt 0.5637 0.5621
vt 0.5637 0.5117
vt 0.5730 0.5117
vt 0.5730 0.5621
vt 0.5637 0.6139
vt 0.5637 0.5621
vt 0.5637 0.5117
vt 0.5730 0.5117
vt 0.5730 0.5621
vt 0.5637 0.6139
vt 0.6939 0.5993
vt 0.6832 0.5279
vt 0.6939 0.5263
vt 0.6779 0.5621
vt 0.6779 0.5117
vt 0.6872 0.5117
vt 0.6872 0.5621
vt 0.6779 0.6139
vt 0.6939 0.5993
vt 0.6832 0.5279
vt 0.6939 0.5263
vt 0.6779 0.5621
vt 0.6779 0.5117
vt 0.6872 0.5117
vt 0.6872 0.5621
vt 0.6779 0.6139
vt 0.6779 0.5621
vt 0.6779 0.5117
vt 0.6872 0.5117
vt 0.6872 0.5621
vt 0.6779 0.6139
vn -0.9538 0.2559 0.1573
vn -0.7955 0.2376 0.5574
vn -0.8110 0.1390 0.5683
vn -0.7967 0.2314 0.5583
vn -0.7703 0.3393 0.5398
vn -0.9202 -0.1406 0.3654
vn -0.7381 0.2376 0.6314
vn -0.7525 0.1390 0.6437
vn -0.7392 0.2314 0.6324
vn -0.7148 0.3393 0.6114
vn -0.7977 0.2029 -0.5679
vn -0.8067 0.1390 -0.5743
vn -0.7987 0.1968 -0.5686
vn -0.7849 0.2677 -0.5588
vn 0.0093 0.2559 0.9667
vn 0.4289 0.2376 0.8715
vn 0.4373 0.1390 0.8885
vn 0.4296 0.2314 0.8729
vn 0.4154 0.3393 0.8440
vn -0.0437 -0.1406 0.9891
vn 0.5108 0.2376 0.8262
vn 0.5208 0.1390 0.8423
vn 0.5116 0.2314 0.8274
vn 0.4946 0.3393 0.8001
vn -0.6835 0.2029 0.7012
vn -0.6912 0.1390 0.7091
vn -0.6843 0.1968 0.7021
vn -0.6725 0.2677 0.6899
s off
f 1/1/1 2/2/1 3/3/1
s 1
f 4/4/2 5/5/3 7/6/3 6/7/4
f 4/4/2 6/7/4 8/8/5
s off
f 9/9/6 10/10/6 11/11/6
s 1
f 12/12/7 13/13/8 15/14/8 14/15/9
f 12/12/7 14/15/9 16/16/10
f 17/17/11 18/18/12 20/19/12 19/20/13
f 17/17/11 19/20/13 21/21/14
s off
f 22/22/15 23/23/15 24/24/15
s 1
f 25/25/16 26/26/17 28/27/17 27/28/18
f 25/25/16 27/28/18 29/29/19
s off
f 30/30/20 31/31/20 32/32/20
s 1
f 33/33/21 34/34/22 36/35/22 35/36/23
f 33/33/21 35/36/23 37/37/24
f 38/38/25 39/39/26 41/40/26 40/41/27
f 38/38/25 40/41/27 42/42/28
