# Blender v2.78 (sub 0) OBJ File: 'Low_Poly_Vegetation_Pack.blend'
# www.blender.org
g Grass_b_OneS_07
v 0.041633 0.166697 0.353069
v 0.054699 -0.010296 0.374201
v 0.069785 0.166697 0.335663
v 0.082850 -0.010296 0.356796
v 0.009509 0.336017 0.301111
v 0.105494 0.206029 0.329633
v 0.084298 -0.010296 0.351378
v 0.134462 0.206029 0.357868
v 0.113267 -0.010296 0.379614
v 0.157606 0.412975 0.276167
v 0.332198 0.230596 -0.175183
v 0.329535 -0.019230 -0.070733
v 0.357067 -0.030912 -0.097971
v 0.240638 0.220071 -0.064281
v 0.272826 -0.017399 -0.055613
v 0.252186 0.220071 -0.107160
v 0.284374 -0.017399 -0.098492
v 0.161499 0.447245 -0.085594
v 0.305622 0.251407 0.016719
v 0.260875 -0.015542 0.008598
v 0.288377 -0.019257 -0.020834
v 0.178848 0.159594 0.071587
v 0.203349 -0.017399 0.075709
v 0.184339 0.159594 0.038948
v 0.208840 -0.017399 0.043070
v 0.118608 0.328913 0.061453
v 0.176669 0.198926 -0.015299
v 0.179029 -0.017399 0.014975
v 0.217000 0.198926 -0.018443
v 0.219360 -0.017399 0.011832
v 0.162355 0.405872 -0.071868
v -0.141263 0.176713 -0.279718
v -0.186493 -0.011635 -0.235940
v -0.119893 0.178525 -0.249844
v -0.165124 -0.009823 -0.206066
v -0.064598 0.349503 -0.345038
v -0.267830 0.155625 -0.219075
v -0.224782 -0.017837 -0.217759
v -0.259215 0.157521 -0.250975
v -0.216167 -0.015941 -0.249660
v -0.344815 0.317951 -0.230218
v -0.210432 0.207304 -0.274921
v -0.224817 -0.009699 -0.254390
v -0.170067 0.204643 -0.274771
v -0.184452 -0.012360 -0.254239
v -0.196365 0.416950 -0.340126
v -0.224226 0.232330 0.288627
v -0.302642 -0.017496 0.219577
v -0.299410 -0.029178 0.258171
v -0.198004 0.221805 0.147245
v -0.225303 -0.015666 0.166375
v -0.172520 0.221805 0.183612
v -0.199818 -0.015666 0.202742
v -0.130885 0.448979 0.100210
v -0.301827 0.253141 0.188943
v -0.266892 -0.013808 0.159827
v -0.261958 -0.017523 0.199806
v -0.262589 0.161328 0.012683
v -0.281468 -0.015666 0.028833
v -0.241074 0.161328 0.037834
v -0.259953 -0.015666 0.053984
v -0.216169 0.330647 -0.027026
v -0.154249 0.200660 0.021763
v -0.178987 -0.015666 0.004152
v -0.177711 0.200660 0.054718
v -0.202448 -0.015666 0.037106
v -0.101672 0.407605 0.047074
v -0.060447 0.232330 0.109914
v -0.140701 -0.017496 0.176818
v -0.102068 -0.029178 0.179540
v -0.204195 0.221805 0.114266
v -0.189475 -0.015666 0.144175
v -0.164352 0.221805 0.094657
v -0.149632 -0.015666 0.124566
v -0.240386 0.448979 0.040731
v -0.190343 0.253141 0.261531
v -0.213759 -0.013808 0.222545
v -0.173496 -0.017523 0.223797
v -0.347067 0.161328 0.157461
v -0.334001 -0.015666 0.178594
v -0.318915 0.161328 0.140056
v -0.305850 -0.015666 0.161188
v -0.379191 0.330647 0.105504
v -0.283206 0.200660 0.098505
v -0.304402 -0.015666 0.120250
v -0.254238 0.200660 0.126740
v -0.275433 -0.015666 0.148486
v -0.250136 0.407605 0.050429
vt 0.5603 0.5586
vt 0.5603 0.5077
vt 0.5697 0.5077
vt 0.5697 0.5586
vt 0.5603 0.6109
vt 0.5603 0.5586
vt 0.5603 0.5077
vt 0.5697 0.5077
vt 0.5697 0.5586
vt 0.5603 0.6109
vt 0.6869 0.6023
vt 0.6756 0.5267
vt 0.6869 0.5250
vt 0.5509 0.5630
vt 0.5509 0.5096
vt 0.5609 0.5096
vt 0.5609 0.5630
vt 0.5509 0.6178
vt 0.5679 0.6023
vt 0.5566 0.5267
vt 0.5679 0.5250
vt 0.5509 0.5630
vt 0.5509 0.5096
vt 0.5609 0.5096
vt 0.5609 0.5630
vt 0.5509 0.6178
vt 0.6700 0.5630
vt 0.6700 0.5096
vt 0.6799 0.5096
vt 0.6799 0.5630
vt 0.6700 0.6178
vt 0.6845 0.5581
vt 0.6845 0.5062
vt 0.6941 0.5062
vt 0.6941 0.5581
vt 0.6845 0.6113
vt 0.6845 0.5581
vt 0.6845 0.5062
vt 0.6941 0.5062
vt 0.6941 0.5581
vt 0.6845 0.6113
vt 0.5588 0.5581
vt 0.5588 0.5062
vt 0.5684 0.5062
vt 0.5684 0.5581
vt 0.5588 0.6113
vt 0.5797 0.5993
vt 0.5690 0.5279
vt 0.5797 0.5263
vt 0.5637 0.5621
vt 0.5637 0.5117
vt 0.5730 0.5117
vt 0.5730 0.5621
vt 0.5637 0.6139
vt 0.6939 0.5993
vt 0.6832 0.5279
vt 0.6939 0.5263
vt 0.5637 0.5621
vt 0.5637 0.5117
vt 0.5730 0.5117
vt 0.5730 0.5621
vt 0.5637 0.6139
vt 0.5637 0.5621
vt 0.5637 0.5117
vt 0.5730 0.5117
vt 0.5730 0.5621
vt 0.5637 0.6139
vt 0.6939 0.5993
vt 0.6832 0.5279
vt 0.6939 0.5263
vt 0.6779 0.5621
vt 0.6779 0.5117
vt 0.6872 0.5117
vt 0.6872 0.5621
vt 0.6779 0.6139
vt 0.6939 0.5993
vt 0.6832 0.5279
vt 0.6939 0.5263
vt 0.6779 0.5621
vt 0.6779 0.5117
vt 0.6872 0.5117
vt 0.6872 0.5621
vt 0.6779 0.6139
vt 0.6779 0.5621
vt 0.6779 0.5117
vt 0.6872 0.5117
vt 0.6872 0.5621
vt 0.6779 0.6139
vn 0.5104 0.2405 0.8256
vn 0.5208 0.1390 0.8423
vn 0.5112 0.2343 0.8269
vn 0.4946 0.3393 0.8001
vn -0.6775 0.2405 0.6951
vn -0.6912 0.1390 0.7091
vn -0.6785 0.2343 0.6962
vn -0.6565 0.3393 0.6736
vn 0.7326 0.2559 0.6307
vn 0.9373 0.2405 0.2524
vn 0.9562 0.1390 0.2575
vn 0.9387 0.2343 0.2528
vn 0.9083 0.3394 0.2446
vn 0.7145 -0.1406 0.6854
vn 0.9572 0.2405 0.1610
vn 0.9766 0.1390 0.1643
vn 0.9587 0.2343 0.1613
vn 0.9276 0.3394 0.1560
vn 0.0761 0.2047 0.9758
vn 0.0769 0.1390 0.9873
vn 0.0761 0.1987 0.9771
vn 0.0749 0.2677 0.9606
vn -0.7536 0.4093 0.5142
vn -0.7813 0.3131 0.5399
vn -0.7556 0.4035 0.5160
vn -0.7179 0.5011 0.4831
vn 0.9051 0.3330 0.2642
vn 0.9350 0.2340 0.2664
vn 0.9073 0.3269 0.2644
vn 0.8656 0.4283 0.2592
vn 0.0092 0.1960 0.9805
vn 0.0025 0.0940 0.9955
vn 0.0089 0.1898 0.9818
vn 0.0159 0.2960 0.9550
vn -0.9538 0.2559 0.1573
vn -0.7949 0.2405 0.5570
vn -0.8110 0.1390 0.5683
vn -0.7961 0.2343 0.5579
vn -0.7703 0.3393 0.5398
vn -0.9841 -0.1406 0.1084
vn -0.7376 0.2405 0.6310
vn -0.7525 0.1390 0.6437
vn -0.7387 0.2343 0.6319
vn -0.7148 0.3394 0.6114
vn -0.7974 0.2047 -0.5677
vn -0.8067 0.1390 -0.5743
vn -0.7984 0.1987 -0.5684
vn -0.7849 0.2677 -0.5588
vn 0.0093 0.2559 0.9667
vn 0.4286 0.2405 0.8709
vn 0.4373 0.1390 0.8885
vn 0.4293 0.2343 0.8722
vn 0.4154 0.3393 0.8440
vn -0.0437 -0.1406 0.9891
vn -0.6832 0.2047 0.7009
vn -0.6840 0.1987 0.7018
vn -0.6725 0.2677 0.6899
s 1
f 1/1/1 2/2/2 4/3/2 3/4/3
f 1/1/1 3/4/3 5/5/4
f 6/6/5 7/7/6 9/8/6 8/9/7
f 6/6/5 8/9/7 10/10/8
s off
f 11/11/9 12/12/9 13/13/9
s 1
f 14/14/10 15/15/11 17/16/11 16/17/12
f 14/14/10 16/17/12 18/18/13
s off
f 19/19/14 20/20/14 21/21/14
s 1
f 22/22/15 23/23/16 25/24/16 24/25/17
f 22/22/15 24/25/17 26/26/18
f 27/27/19 28/28/20 30/29/20 29/30/21
f 27/27/19 29/30/21 31/31/22
f 32/32/23 33/33/24 35/34/24 34/35/25
f 32/32/23 34/35/25 36/36/26
f 37/37/27 38/38/28 40/39/28 39/40/29
f 37/37/27 39/40/29 41/41/30
f 42/42/31 43/43/32 45/44/32 44/45/33
f 42/42/31 44/45/33 46/46/34
s off
f 47/47/35 48/48/35 49/49/35
s 1
f 50/50/36 51/51/37 53/52/37 52/53/38
f 50/50/36 52/53/38 54/54/39
s off
f 55/55/40 56/56/40 57/57/40
s 1
f 58/58/41 59/59/42 61/60/42 60/61/43
f 58/58/41 60/61/43 62/62/44
f 63/63/45 64/64/46 66/65/46 65/66/47
f 63/63/45 65/66/47 67/67/48
s off
f 68/68/49 69/69/49 70/70/49
s 1
f 71/71/50 72/72/51 74/73/51 73/74/52
f 71/71/50 73/74/52 75/75/53
s off
f 76/76/54 77/77/54 78/78/54
s 1
f 79/79/1 80/80/2 82/81/2 81/82/3
f 79/79/1 81/82/3 83/83/4
f 84/84/55 85/85/6 87/86/6 86/87/56
f 84/84/55 86/87/56 88/88/57
