# Blender v2.78 (sub 0) OBJ File: 'Low_Poly_Vegetation_Pack.blend'
# www.blender.org
g Grass_a_OneS_03
v 0.211067 0.304386 -0.032280
v 0.074294 -0.016060 0.053861
v 0.186964 -0.050128 0.061800
v 0.008720 0.290494 -0.020334
v 0.008947 -0.022967 0.028597
v 0.086511 0.290494 -0.058619
v 0.125145 -0.022967 -0.028590
v -0.026453 0.590364 -0.123602
v -0.002446 0.331857 0.108465
v -0.065493 -0.017551 0.056005
v 0.051928 -0.028384 0.059656
v -0.176174 0.210664 0.035987
v -0.172495 -0.022967 0.072271
v -0.121210 0.210664 0.002004
v -0.090395 -0.022967 0.021509
v -0.209676 0.434166 -0.038101
v -0.092136 0.262582 -0.056268
v -0.134076 -0.022967 -0.041173
v -0.035577 0.262582 -0.001140
v -0.049593 -0.022967 0.041173
v -0.039323 0.535751 -0.110800
vt 0.6869 0.6023
vt 0.6756 0.5267
vt 0.6869 0.5250
vt 0.5509 0.5630
vt 0.5509 0.5096
vt 0.5609 0.5096
vt 0.5609 0.5630
vt 0.5509 0.6178
vt 0.5679 0.6023
vt 0.5566 0.5267
vt 0.5679 0.5250
vt 0.5509 0.5630
vt 0.5509 0.5096
vt 0.5609 0.5096
vt 0.5609 0.5630
vt 0.5509 0.6178
vt 0.6700 0.5630
vt 0.6700 0.5096
vt 0.6799 0.5096
vt 0.6799 0.5630
vt 0.6700 0.6178
vn 0.0093 0.2559 0.9667
vn 0.4290 0.2369 0.8717
vn 0.4373 0.1390 0.8885
vn 0.4296 0.2306 0.8730
vn 0.4154 0.3393 0.8440
vn -0.0437 -0.1406 0.9891
vn 0.5109 0.2369 0.8263
vn 0.5208 0.1390 0.8423
vn 0.5117 0.2306 0.8276
vn 0.4946 0.3394 0.8001
vn -0.6835 0.2025 0.7013
vn -0.6912 0.1390 0.7091
vn -0.6844 0.1963 0.7021
vn -0.6725 0.2677 0.6899
s off
f 1/1/1 2/2/1 3/3/1
s 1
f 4/4/2 5/5/3 7/6/3 6/7/4
f 4/4/2 6/7/4 8/8/5
s off
f 9/9/6 10/10/6 11/11/6
s 1
f 12/12/7 13/13/8 15/14/8 14/15/9
f 12/12/7 14/15/9 16/16/10
f 17/17/11 18/18/12 20/19/12 19/20/13
f 17/17/11 19/20/13 21/21/14
