# Blender v2.78 (sub 0) OBJ File: 'Low_Poly_Vegetation_Pack.blend'
# www.blender.org
g Grass_a_OneS_07
v -0.321435 0.306675 0.364198
v -0.427018 -0.015596 0.248275
v -0.418602 -0.046014 0.348770
v -0.290975 0.292783 0.171645
v -0.339215 -0.020679 0.179480
v -0.249028 0.292783 0.231505
v -0.272857 -0.020679 0.274174
v -0.198224 0.592652 0.115487
v -0.420561 0.334146 0.261799
v -0.396143 -0.015842 0.188610
v -0.356157 -0.025515 0.285578
v -0.375580 0.212953 -0.004149
v -0.410806 -0.020679 0.005124
v -0.340166 0.212953 0.037250
v -0.354783 -0.020679 0.070614
v -0.310800 0.436454 -0.052465
v -0.225240 0.264871 0.006566
v -0.246657 -0.020679 -0.032465
v -0.263858 0.264871 0.060808
v -0.307748 -0.020679 0.053344
v -0.159663 0.538039 0.045347
v -0.105245 0.306675 0.128296
v -0.235982 -0.015596 0.214862
v -0.135385 -0.046014 0.221950
v -0.301488 0.292783 0.137237
v -0.301140 -0.020679 0.186108
v -0.235906 0.292783 0.104961
v -0.197393 -0.020679 0.135049
v -0.342765 0.592652 0.036974
v -0.276708 0.334146 0.328430
v -0.333464 -0.015842 0.276165
v -0.228625 -0.025515 0.279426
v -0.488173 0.212953 0.193896
v -0.484409 -0.020679 0.230126
v -0.441835 0.212953 0.165246
v -0.411106 -0.020679 0.184804
v -0.525988 0.436454 0.122475
v -0.404010 0.264871 0.108633
v -0.445862 -0.020679 0.123814
v -0.356328 0.264871 0.155109
v -0.370432 -0.020679 0.197337
v -0.355635 0.538039 0.049776
v 0.401178 0.304386 -0.274072
v 0.415742 -0.016060 -0.113090
v 0.474024 -0.050128 -0.209842
v 0.319850 0.290494 -0.088404
v 0.363537 -0.022967 -0.066366
v 0.321105 0.290494 -0.175096
v 0.365411 -0.022967 -0.195860
v 0.211878 0.590364 -0.104011
v 0.429500 0.331857 -0.019917
v 0.354116 -0.017551 0.012398
v 0.410738 -0.028384 -0.090534
v 0.285980 0.210664 0.101887
v 0.319971 -0.022967 0.115102
v 0.280692 0.210664 0.037483
v 0.312072 -0.022967 0.018900
v 0.204760 0.434166 0.098055
v 0.242001 0.262582 -0.014900
v 0.236384 -0.022967 0.029319
v 0.316812 0.262582 -0.040223
v 0.348132 -0.022967 -0.008506
v 0.217432 0.535751 -0.086728
v -0.081907 0.232963 -0.330379
v -0.162686 -0.016518 -0.346358
v -0.089879 0.235951 -0.270336
v -0.175257 -0.011806 -0.251670
v 0.050097 0.461344 -0.318109
v -0.263971 0.205113 -0.412494
v -0.237062 -0.024759 -0.364101
v -0.217634 0.208240 -0.441165
v -0.163989 -0.019828 -0.409316
v -0.323443 0.419696 -0.495572
v -0.132636 0.274080 -0.450869
v -0.178987 -0.011098 -0.457260
v -0.084235 0.269691 -0.405174
v -0.102658 -0.018019 -0.385199
v -0.055406 0.550374 -0.496420
v 0.069190 0.220040 0.532122
v 0.069328 -0.013591 0.568182
v 0.121780 0.220040 0.507838
v 0.149140 -0.013591 0.531327
v 0.041848 0.443542 0.455932
v 0.188976 0.271958 0.484035
v 0.146255 -0.013591 0.494866
v 0.233331 0.271958 0.539216
v 0.213569 -0.013591 0.578611
v 0.271241 0.545127 0.429073
vt 0.5797 0.5993
vt 0.5690 0.5279
vt 0.5797 0.5263
vt 0.5637 0.5621
vt 0.5637 0.5117
vt 0.5730 0.5117
vt 0.5730 0.5621
vt 0.5637 0.6139
vt 0.6939 0.5993
vt 0.6832 0.5279
vt 0.6939 0.5263
vt 0.5637 0.5621
vt 0.5637 0.5117
vt 0.5730 0.5117
vt 0.5730 0.5621
vt 0.5637 0.6139
vt 0.5637 0.5621
vt 0.5637 0.5117
vt 0.5730 0.5117
vt 0.5730 0.5621
vt 0.5637 0.6139
vt 0.6939 0.5993
vt 0.6832 0.5279
vt 0.6939 0.5263
vt 0.6779 0.5621
vt 0.6779 0.5117
vt 0.6872 0.5117
vt 0.6872 0.5621
vt 0.6779 0.6139
vt 0.6939 0.5993
vt 0.6832 0.5279
vt 0.6939 0.5263
vt 0.6779 0.5621
vt 0.6779 0.5117
vt 0.6872 0.5117
vt 0.6872 0.5621
vt 0.6779 0.6139
vt 0.6779 0.5621
vt 0.6779 0.5117
vt 0.6872 0.5117
vt 0.6872 0.5621
vt 0.6779 0.6139
vt 0.6869 0.6023
vt 0.6756 0.5267
vt 0.6869 0.5250
vt 0.5509 0.5630
vt 0.5509 0.5096
vt 0.5609 0.5096
vt 0.5609 0.5630
vt 0.5509 0.6178
vt 0.5679 0.6023
vt 0.5566 0.5267
vt 0.5679 0.5250
vt 0.5509 0.5630
vt 0.5509 0.5096
vt 0.5609 0.5096
vt 0.5609 0.5630
vt 0.5509 0.6178
vt 0.6700 0.5630
vt 0.6700 0.5096
vt 0.6799 0.5096
vt 0.6799 0.5630
vt 0.6700 0.6178
vt 0.6845 0.5581
vt 0.6845 0.5062
vt 0.6941 0.5062
vt 0.6941 0.5581
vt 0.6845 0.6113
vt 0.6845 0.5581
vt 0.6845 0.5062
vt 0.6941 0.5062
vt 0.6941 0.5581
vt 0.6845 0.6113
vt 0.5588 0.5581
vt 0.5588 0.5062
vt 0.5684 0.5062
vt 0.5684 0.5581
vt 0.5588 0.6113
vt 0.5603 0.5586
vt 0.5603 0.5077
vt 0.5697 0.5077
vt 0.5697 0.5586
vt 0.5603 0.6109
vt 0.5603 0.5586
vt 0.5603 0.5077
vt 0.5697 0.5077
vt 0.5697 0.5586
vt 0.5603 0.6109
vn -0.9538 0.2559 0.1573
vn -0.7955 0.2376 0.5574
vn -0.8110 0.1390 0.5683
vn -0.7967 0.2314 0.5583
vn -0.7703 0.3393 0.5398
vn -0.9202 -0.1406 0.3654
vn -0.7381 0.2376 0.6314
vn -0.7525 0.1390 0.6437
vn -0.7392 0.2314 0.6324
vn -0.7148 0.3393 0.6114
vn -0.7977 0.2029 -0.5679
vn -0.8067 0.1390 -0.5743
vn -0.7987 0.1968 -0.5686
vn -0.7849 0.2677 -0.5588
vn 0.0093 0.2559 0.9667
vn 0.4289 0.2376 0.8715
vn 0.4373 0.1390 0.8885
vn 0.4296 0.2314 0.8729
vn 0.4154 0.3394 0.8440
vn -0.0437 -0.1406 0.9891
vn 0.5108 0.2376 0.8262
vn 0.5208 0.1390 0.8423
vn 0.5116 0.2314 0.8274
vn 0.4946 0.3393 0.8001
vn -0.6835 0.2029 0.7012
vn -0.6912 0.1390 0.7091
vn -0.6843 0.1968 0.7021
vn -0.6725 0.2677 0.6899
vn 0.8653 0.2559 0.4311
vn 0.9714 0.2369 0.0140
vn 0.9902 0.1390 0.0143
vn 0.9729 0.2306 0.0141
vn 0.9405 0.3393 0.0136
vn 0.8612 -0.1406 0.4885
vn 0.9683 0.2369 -0.0795
vn 0.9870 0.1390 -0.0810
vn 0.9698 0.2306 -0.0796
vn 0.9375 0.3393 -0.0770
vn 0.3140 0.2025 0.9276
vn 0.3175 0.1390 0.9380
vn 0.3144 0.1963 0.9288
vn 0.3089 0.2677 0.9126
vn -0.9028 0.4067 -0.1401
vn -0.9393 0.3131 -0.1403
vn -0.9054 0.4008 -0.1401
vn -0.8542 0.5011 -0.1383
vn 0.4804 0.3302 0.8125
vn 0.5001 0.2340 0.8337
vn 0.4818 0.3241 0.8141
vn 0.4544 0.4283 0.7811
vn -0.6642 0.1932 0.7221
vn -0.6789 0.0940 0.7281
vn -0.6654 0.1869 0.7227
vn -0.6414 0.2960 0.7078
vn 0.4072 0.2375 0.8819
vn 0.4151 0.1390 0.8990
vn 0.4078 0.2312 0.8833
vn 0.3943 0.3394 0.8540
vn -0.7571 0.2375 0.6086
vn -0.7718 0.1390 0.6204
vn -0.7583 0.2312 0.6095
vn -0.7331 0.3393 0.5893
s off
f 1/1/1 2/2/1 3/3/1
s 1
f 4/4/2 5/5/3 7/6/3 6/7/4
f 4/4/2 6/7/4 8/8/5
s off
f 9/9/6 10/10/6 11/11/6
s 1
f 12/12/7 13/13/8 15/14/8 14/15/9
f 12/12/7 14/15/9 16/16/10
f 17/17/11 18/18/12 20/19/12 19/20/13
f 17/17/11 19/20/13 21/21/14
s off
f 22/22/15 23/23/15 24/24/15
s 1
f 25/25/16 26/26/17 28/27/17 27/28/18
f 25/25/16 27/28/18 29/29/19
s off
f 30/30/20 31/31/20 32/32/20
s 1
f 33/33/21 34/34/22 36/35/22 35/36/23
f 33/33/21 35/36/23 37/37/24
f 38/38/25 39/39/26 41/40/26 40/41/27
f 38/38/25 40/41/27 42/42/28
s off
f 43/43/29 44/44/29 45/45/29
s 1
f 46/46/30 47/47/31 49/48/31 48/49/32
f 46/46/30 48/49/32 50/50/33
s off
f 51/51/34 52/52/34 53/53/34
s 1
f 54/54/35 55/55/36 57/56/36 56/57/37
f 54/54/35 56/57/37 58/58/38
f 59/59/39 60/60/40 62/61/40 61/62/41
f 59/59/39 61/62/41 63/63/42
f 64/64/43 65/65/44 67/66/44 66/67/45
f 64/64/43 66/67/45 68/68/46
f 69/69/47 70/70/48 72/71/48 71/72/49
f 69/69/47 71/72/49 73/73/50
f 74/74/51 75/75/52 77/76/52 76/77/53
f 74/74/51 76/77/53 78/78/54
f 79/79/55 80/80/56 82/81/56 81/82/57
f 79/79/55 81/82/57 83/83/58
f 84/84/59 85/85/60 87/86/60 86/87/61
f 84/84/59 86/87/61 88/88/62
