# Blender v2.78 (sub 0) OBJ File: 'Low_Poly_Vegetation_Pack.blend'
# www.blender.org
g Grass_b_OneS_01
v -0.038019 0.166697 -0.012427
v -0.024954 -0.010296 0.008705
v -0.009868 0.166697 -0.029833
v 0.003198 -0.010296 -0.008700
v -0.070144 0.336017 -0.064385
v 0.025841 0.206029 -0.035863
v 0.004646 -0.010296 -0.014118
v 0.054810 0.206029 -0.007628
v 0.033614 -0.010296 0.014118
v 0.077954 0.412975 -0.089329
vt 0.5603 0.5586
vt 0.5603 0.5077
vt 0.5697 0.5077
vt 0.5697 0.5586
vt 0.5603 0.6109
vt 0.5603 0.5586
vt 0.5603 0.5077
vt 0.5697 0.5077
vt 0.5697 0.5586
vt 0.5603 0.6109
vn 0.5104 0.2405 0.8256
vn 0.5208 0.1390 0.8423
vn 0.5112 0.2343 0.8269
vn 0.4946 0.3393 0.8001
vn -0.6775 0.2405 0.6951
vn -0.6912 0.1390 0.7091
vn -0.6785 0.2343 0.6962
vn -0.6565 0.3393 0.6736
s 1
f 1/1/1 2/2/2 4/3/2 3/4/3
f 1/1/1 3/4/3 5/5/4
f 6/6/5 7/7/6 9/8/6 8/9/7
f 6/6/5 8/9/7 10/10/8
