# Blender v2.78 (sub 0) OBJ File: 'Low_Poly_Vegetation_Pack.blend'
# www.blender.org
g Grass_b_OneS_03
v 0.159899 0.230596 -0.024454
v 0.079645 -0.019230 0.042450
v 0.118278 -0.030912 0.045172
v 0.016151 0.220071 -0.020102
v 0.030871 -0.017399 0.009807
v 0.055994 0.220071 -0.039711
v 0.070714 -0.017399 -0.009802
v -0.020040 0.447245 -0.093638
v -0.001853 0.251407 0.082170
v -0.025270 -0.015542 0.043185
v 0.014993 -0.019257 0.044437
v -0.126721 0.159594 0.023093
v -0.113655 -0.017399 0.044225
v -0.098569 0.159594 0.005688
v -0.085504 -0.017399 0.026820
v -0.158845 0.328913 -0.028864
v -0.062860 0.198926 -0.035863
v -0.084056 -0.017399 -0.014118
v -0.033892 0.198926 -0.007628
v -0.055087 -0.017399 0.014118
v -0.029790 0.405872 -0.083939
vt 0.6869 0.6023
vt 0.6756 0.5267
vt 0.6869 0.5250
vt 0.5509 0.5630
vt 0.5509 0.5096
vt 0.5609 0.5096
vt 0.5609 0.5630
vt 0.5509 0.6178
vt 0.5679 0.6023
vt 0.5566 0.5267
vt 0.5679 0.5250
vt 0.5509 0.5630
vt 0.5509 0.5096
vt 0.5609 0.5096
vt 0.5609 0.5630
vt 0.5509 0.6178
vt 0.6700 0.5630
vt 0.6700 0.5096
vt 0.6799 0.5096
vt 0.6799 0.5630
vt 0.6700 0.6178
vn 0.0093 0.2559 0.9667
vn 0.4286 0.2405 0.8709
vn 0.4373 0.1390 0.8885
vn 0.4293 0.2343 0.8722
vn 0.4154 0.3393 0.8440
vn -0.0437 -0.1406 0.9891
vn 0.5104 0.2405 0.8256
vn 0.5208 0.1390 0.8423
vn 0.5112 0.2343 0.8269
vn 0.4946 0.3394 0.8001
vn -0.6832 0.2047 0.7009
vn -0.6912 0.1390 0.7091
vn -0.6840 0.1987 0.7018
vn -0.6725 0.2677 0.6899
s off
f 1/1/1 2/2/1 3/3/1
s 1
f 4/4/2 5/5/3 7/6/3 6/7/4
f 4/4/2 6/7/4 8/8/5
s off
f 9/9/6 10/10/6 11/11/6
s 1
f 12/12/7 13/13/8 15/14/8 14/15/9
f 12/12/7 14/15/9 16/16/10
f 17/17/11 18/18/12 20/19/12 19/20/13
f 17/17/11 19/20/13 21/21/14
