# Blender v2.78 (sub 0) OBJ File: 'Low_Poly_Vegetation_Pack.blend'
# www.blender.org
g Grass_g_OneS_02
v -0.130385 0.170802 0.351148
v -0.052592 0.241542 0.172076
v -0.070457 0.223367 0.181405
v -0.204543 0.328926 0.032677
v -0.040050 0.170842 0.012590
v -0.007692 0.174189 -0.008559
v 0.030560 0.264928 0.267556
v 0.031490 0.150003 0.024427
v 0.000486 0.147165 0.040568
v -0.235146 0.456854 0.024825
v -0.068961 0.278889 -0.031668
v -0.032617 0.287330 -0.035514
v 0.045031 -0.040025 -0.005757
v -0.008329 -0.040586 0.022195
v -0.012093 -0.041238 -0.000051
v 0.048407 -0.040313 -0.000051
v 0.025923 -0.039430 0.003886
v -0.022205 -0.040285 0.029076
v -0.016651 -0.039912 -0.000051
v 0.041297 -0.039852 -0.000051
v 0.335965 0.142897 -0.061163
v 0.166395 0.205403 -0.041334
v 0.183036 0.187697 -0.030915
v 0.202384 0.249634 -0.145224
v 0.016209 0.125105 -0.040964
v 0.048408 0.122018 -0.020746
v -0.011409 -0.040552 -0.037212
v 0.037487 -0.041089 -0.006681
v 0.005079 -0.040033 -0.026585
v 0.047921 -0.040829 0.000187
vt 0.4346 0.5815
vt 0.4314 0.5168
vt 0.4337 0.5165
vt 0.4369 0.5814
vt 0.1747 0.5680
vt 0.1717 0.5168
vt 0.1741 0.5165
vt 0.1775 0.5676
vt 0.0561 0.5432
vt 0.0539 0.5168
vt 0.0562 0.5165
vt 0.0592 0.5428
vt 0.1735 0.6091
vt 0.3068 0.6091
vt 0.3072 0.5432
vt 0.3103 0.5428
vt 0.3072 0.5432
vt 0.3050 0.5168
vt 0.3074 0.5165
vt 0.3103 0.5428
vt 0.4331 0.6091
vt 0.3050 0.5168
vt 0.3074 0.5165
vt 0.4369 0.5814
vt 0.4346 0.5815
vt 0.4314 0.5168
vt 0.4337 0.5165
vt 0.4331 0.6091
vt 0.0557 0.6091
vt 0.3068 0.6091
vn -0.6308 0.4996 -0.5936
vn -0.5048 0.3419 -0.7926
vn -0.6933 0.5936 -0.4086
vn 0.0952 -0.0508 0.9941
vn 0.0307 0.1092 0.9935
vn 0.0735 0.0036 0.9973
vn 0.3813 0.2538 0.8889
vn 0.2204 0.0340 0.9748
vn 0.3116 0.1558 0.9373
vn 0.1437 -0.1750 0.9740
vn -0.2510 0.8139 0.5240
vn -0.4413 0.4610 0.7699
vn -0.4210 0.5155 0.7463
vn -0.4354 0.4917 -0.7540
vn -0.4642 0.1095 -0.8789
vn -0.4212 0.5589 -0.7143
vn -0.7232 0.6894 -0.0418
vn -0.5235 0.1095 0.8450
vn -0.0026 0.5929 0.8052
vn -0.1943 0.4983 0.8449
vn -0.4279 0.3414 0.8368
vn 0.3295 0.6894 0.6451
vn 0.4742 0.3933 0.7877
vn -0.2923 0.8641 -0.4096
s 1
f 2/1/1 13/2/2 14/3/2 3/4/3
f 11/5/4 19/6/5 20/7/5 12/8/6
f 5/9/7 15/10/8 16/11/8 6/12/9
f 10/13/10 11/5/4 12/8/6
f 24/14/11 25/15/12 26/16/13
f 8/17/14 17/18/15 18/19/15 9/20/16
f 1/21/17 2/1/1 3/4/3
f 25/15/12 29/22/18 30/23/18 26/16/13
f 23/24/19 22/25/20 27/26/21 28/27/21
f 21/28/22 22/25/20 23/24/19
f 4/29/23 5/9/7 6/12/9
f 7/30/24 8/17/14 9/20/16
