# Blender v2.78 (sub 0) OBJ File: 'Low_Poly_Vegetation_Pack.blend'
# www.blender.org
g Grass_h_OneS_01
v 0.074922 0.294554 0.243815
v 0.010117 0.199835 0.071788
v 0.026156 0.195045 0.072981
v -0.086610 0.348181 -0.099267
v -0.012699 0.208317 -0.024250
v -0.002493 0.208648 -0.019262
v 0.156112 0.280304 -0.145457
v -0.001830 0.121908 0.007213
v 0.016340 0.120586 0.006971
v -0.175030 0.352206 -0.276577
v -0.061693 0.156895 -0.077417
v -0.047440 0.157010 -0.071053
v -0.080635 0.373129 0.016286
v -0.072681 0.119519 0.025352
v -0.054893 0.122509 0.025871
v 0.022539 -0.048291 0.010536
v 0.032008 -0.049407 0.016864
v 0.007149 -0.048291 -0.008023
v 0.016618 -0.049407 -0.001696
v -0.007006 -0.049114 -0.004910
v 0.004352 -0.049102 -0.004908
v -0.019295 -0.048592 -0.021614
v -0.008257 -0.049113 -0.018597
v -0.026946 -0.049278 0.013621
v -0.015507 -0.049220 0.013631
vt 0.1858 0.5650
vt 0.1829 0.5653
vt 0.1797 0.5110
vt 0.1821 0.5107
vt 0.1815 0.6089
vt 0.1815 0.6089
vt 0.1826 0.5706
vt 0.1851 0.5704
vt 0.1797 0.5110
vt 0.1821 0.5107
vt 0.3119 0.5390
vt 0.3095 0.5110
vt 0.3120 0.5107
vt 0.3151 0.5386
vt 0.4462 0.6089
vt 0.4466 0.5390
vt 0.4499 0.5386
vt 0.3118 0.5539
vt 0.3095 0.5110
vt 0.3120 0.5107
vt 0.3143 0.5536
vt 0.4443 0.5110
vt 0.4468 0.5107
vt 0.3114 0.6089
vt 0.3114 0.6089
vn -0.3205 -0.5328 0.7832
vn -0.3188 -0.5538 0.7692
vn -0.3239 -0.2306 0.9175
vn -0.2773 -0.7937 0.5415
vn -0.4328 0.2377 0.8696
vn -0.4625 0.1486 0.8741
vn -0.4770 0.0997 0.8732
vn -0.4979 0.0192 0.8670
vn 0.0280 0.2356 0.9714
vn 0.0050 -0.0705 0.9975
vn 0.0382 0.3763 0.9257
vn -0.0349 0.0346 0.9988
vn -0.0226 -0.0198 0.9995
vn -0.0227 -0.0190 0.9995
vn -0.3471 0.4331 0.8318
vn -0.3399 0.1756 0.9239
vn -0.3468 0.3088 0.8856
vn -0.0104 -0.0728 0.9973
vn -0.3395 0.5677 0.7499
vn 0.0581 0.6621 0.7471
s 1
f 3/1/1 2/2/2 16/3/3 17/4/3
f 1/5/4 2/2/2 3/1/1
f 4/6/5 5/7/6 6/8/7
f 6/8/7 5/7/6 18/9/8 19/10/8
f 8/11/9 20/12/10 21/13/10 9/14/11
f 13/15/12 14/16/13 15/17/14
f 11/18/15 22/19/16 23/20/16 12/21/17
f 14/16/13 24/22/18 25/23/18 15/17/14
f 10/24/19 11/18/15 12/21/17
f 7/25/20 8/11/9 9/14/11
