# Blender v2.78 (sub 0) OBJ File: 'Low_Poly_Vegetation_Pack.blend'
# www.blender.org
g Grass_d_OneS_04
v 0.159899 0.229989 -0.024454
v 0.079645 -0.019837 0.042450
v 0.118278 -0.031519 0.045172
v 0.030871 -0.018006 0.009807
v 0.070714 -0.018006 -0.009802
v -0.020040 0.446638 -0.093638
v -0.001853 0.250800 0.082170
v -0.025270 -0.016149 0.043185
v 0.014993 -0.019863 0.044437
v -0.113655 -0.018006 0.044225
v -0.085504 -0.018006 0.026820
v -0.158845 0.328307 -0.028864
v -0.084056 -0.018006 -0.014118
v -0.055087 -0.018006 0.014118
v -0.029790 0.405265 -0.083939
vt 0.6869 0.6023
vt 0.6756 0.5267
vt 0.6869 0.5250
vt 0.5609 0.5096
vt 0.5509 0.6178
vt 0.5509 0.5096
vt 0.5679 0.6023
vt 0.5566 0.5267
vt 0.5679 0.5250
vt 0.6799 0.5096
vt 0.6700 0.6178
vt 0.6700 0.5096
vt 0.5609 0.5096
vt 0.5509 0.6178
vt 0.5509 0.5096
vn 0.0093 0.2559 0.9667
vn 0.5104 0.2408 0.8255
vn -0.0437 -0.1406 0.9891
vn -0.6834 0.2033 0.7011
vn 0.4286 0.2408 0.8708
s off
f 1/1/1 2/2/1 3/3/1
s 1
f 11/4/2 12/5/2 10/6/2
s off
f 7/7/3 8/8/3 9/9/3
s 1
f 14/10/4 15/11/4 13/12/4
f 5/13/5 6/14/5 4/15/5
