# Blender v2.78 (sub 0) OBJ File: 'Low_Poly_Vegetation_Pack.blend'
# www.blender.org
g Flower_c_OneS_08
v 0.004055 0.000000 -0.005706
v 0.001697 0.235779 0.029796
v 0.002914 0.000000 0.006365
v 0.003267 0.220257 0.037974
v -0.006969 0.000000 -0.000658
v -0.004543 0.227277 0.036943
v 0.000691 0.132227 -0.001378
v -0.000461 0.131324 0.010491
v -0.010324 0.131651 0.003483
v 0.009024 0.256336 0.012494
v -0.022482 0.253210 0.030541
v -0.020716 0.223220 0.051170
v 0.011881 0.207812 0.045874
v 0.030261 0.228278 0.021970
v -0.016597 0.360271 -0.046986
v 0.085259 0.312124 -0.063537
v -0.039872 0.314741 0.000850
v 0.077069 0.259161 -0.018495
v 0.040570 0.353511 -0.067231
v 0.019822 0.288701 -0.006383
v -0.000702 0.230486 0.027831
v 0.140269 0.218399 -0.023890
v 0.112976 0.135513 0.049265
v 0.081181 0.255387 -0.017291
v 0.049645 0.159868 0.066497
v 0.147128 0.169198 0.011548
v 0.066636 0.209378 0.027042
v -0.000703 0.230486 0.027832
v 0.021053 0.109086 0.114335
v -0.080803 0.157233 0.130886
v 0.046314 0.157456 0.070457
v -0.070945 0.212582 0.089169
v -0.034080 0.118755 0.138635
v -0.011092 0.186769 0.082253
v -0.000704 0.230487 0.027831
v -0.135813 0.250958 0.091239
v -0.108520 0.333844 0.018084
v -0.074739 0.216810 0.088598
v -0.043521 0.311874 0.004178
v -0.140638 0.303068 0.059856
v -0.057906 0.266092 0.048827
v -0.000703 0.230487 0.027831
vt 0.6915 0.6869
vt 0.6915 0.7342
vt 0.6860 0.7342
vt 0.6860 0.6869
vt 0.6805 0.7342
vt 0.6805 0.6869
vt 0.6969 0.6869
vt 0.6969 0.7342
vt 0.6969 0.6395
vt 0.6915 0.6395
vt 0.6860 0.6395
vt 0.6805 0.6395
vt 0.2752 0.3238
vt 0.2906 0.2739
vt 0.3405 0.2739
vt 0.3559 0.3238
vt 0.3156 0.3547
vt 0.9399 0.4320
vt 0.9812 0.4315
vt 0.9761 0.4756
vt 0.9402 0.4896
vt 0.8986 0.4320
vt 0.9405 0.3875
vt 0.9041 0.4760
vt 0.9399 0.4320
vt 0.9812 0.4315
vt 0.9761 0.4756
vt 0.9402 0.4896
vt 0.8986 0.4320
vt 0.9405 0.3875
vt 0.9041 0.4760
vt 0.9399 0.4320
vt 0.9812 0.4315
vt 0.9761 0.4756
vt 0.9402 0.4896
vt 0.8986 0.4320
vt 0.9405 0.3875
vt 0.9041 0.4760
vt 0.9399 0.4320
vt 0.9812 0.4315
vt 0.9761 0.4756
vt 0.9402 0.4896
vt 0.8986 0.4320
vt 0.9405 0.3875
vt 0.9041 0.4760
vn 0.9994 -0.0146 -0.0328
vn -0.4854 -0.2515 0.8373
vn -0.6394 0.2569 -0.7247
vn -0.4104 0.0188 -0.9117
vn -0.5792 -0.0404 0.8142
vn 0.9951 0.0224 0.0961
vn 0.3774 0.5398 0.7524
vn 0.4354 0.5404 0.7200
vn 0.2837 0.4096 0.8670
vn 0.3379 0.5886 0.7344
vn 0.3710 0.3698 0.8518
vn 0.3945 0.4827 0.7819
vn 0.2102 0.6431 0.7364
vn 0.4231 0.5616 0.7111
vn 0.1885 0.5717 0.7985
vn 0.3178 0.5369 0.7815
vn 0.4565 0.6491 0.6085
vn 0.4154 0.4887 0.7672
vn 0.3692 0.6889 0.6238
vn 0.3587 0.5945 0.7197
vn 0.5300 0.4155 0.7392
vn 0.3302 0.5157 0.7906
vn 0.5517 0.4870 0.6771
s off
f 7/1/1 2/2/1 4/3/1 8/4/1
f 8/4/2 4/3/2 6/5/2 9/6/2
f 9/7/3 6/8/3 2/2/3 7/1/3
f 5/9/4 9/7/4 7/1/4 1/10/4
f 3/11/5 8/4/5 9/6/5 5/12/5
f 1/10/6 7/1/6 8/4/6 3/11/6
f 11/13/7 12/14/7 13/15/7 14/16/7
f 10/17/7 11/13/7 14/16/7
f 20/18/8 18/19/8 16/20/8 19/21/8
f 17/22/9 21/23/9 20/18/9
f 17/22/10 20/18/10 19/21/10 15/24/10
f 20/18/11 21/23/11 18/19/11
f 27/25/12 25/26/12 23/27/12 26/28/12
f 24/29/13 28/30/13 27/25/13
f 24/29/14 27/25/14 26/28/14 22/31/14
f 27/25/15 28/30/15 25/26/15
f 34/32/16 32/33/16 30/34/16 33/35/16
f 31/36/17 35/37/17 34/32/17
f 31/36/18 34/32/18 33/35/18 29/38/18
f 34/32/19 35/37/19 32/33/19
f 41/39/20 39/40/20 37/41/20 40/42/20
f 38/43/21 42/44/21 41/39/21
f 38/43/22 41/39/22 40/42/22 36/45/22
f 41/39/23 42/44/23 39/40/23
