# Blender v2.78 (sub 0) OBJ File: 'Low_Poly_Vegetation_Pack.blend'
# www.blender.org
g Flower_e_OneS_10
v -0.004795 -0.000416 -0.003835
v 0.004795 0.000417 0.003833
v 0.136975 0.160487 -0.188748
v 0.063532 0.128593 -0.121807
v 0.013848 0.068965 -0.061471
v 0.049444 0.072057 -0.033010
v 0.091087 0.130987 -0.099775
v -0.000642 -0.000449 0.005411
v 0.000641 0.000449 -0.005412
v -0.141013 0.123806 -0.029999
v -0.083213 0.099283 0.005660
v -0.034809 0.056463 0.021067
v -0.030046 0.059794 -0.019104
v -0.078941 0.100721 -0.025436
v -0.006151 0.000178 0.000081
v 0.006150 -0.000178 -0.000082
v 0.003519 0.209342 -0.190546
v -0.014485 0.157681 -0.101668
v -0.020991 0.082292 -0.038909
v 0.024665 0.080974 -0.039514
v 0.020859 0.156660 -0.102136
v 0.000317 0.000660 -0.004991
v -0.000317 -0.000660 0.004989
v 0.181154 0.109591 0.058536
v 0.104215 0.104717 0.012979
v 0.043783 0.069490 -0.007694
v 0.038093 0.061362 0.028406
v 0.097840 0.096499 0.040030
v -0.002589 0.000000 -0.005589
v 0.015675 0.188519 0.051727
v 0.006135 0.000000 0.000552
v 0.021672 0.184344 0.056232
v -0.003546 0.000000 0.005037
v 0.016807 0.182859 0.055740
v -0.000751 0.107146 -0.002446
v 0.007814 0.106351 0.003617
v -0.001847 0.106639 0.008092
v 0.009484 0.202713 0.044290
v -0.003168 0.181444 0.051272
v 0.013109 0.166457 0.064375
v 0.035820 0.178465 0.065491
v 0.033579 0.200872 0.053077
v 0.018619 0.184619 0.053072
v -0.021966 0.239924 0.012219
v -0.001137 0.250937 0.013242
v -0.025311 0.204444 0.030278
v 0.028618 0.232958 0.032926
v 0.018619 0.184619 0.053072
v 0.053566 0.254082 0.034255
v 0.071713 0.243973 0.045421
v 0.018688 0.234603 0.033726
v 0.065673 0.208431 0.062637
v 0.018619 0.184619 0.053072
v 0.094301 0.198536 0.074646
v 0.091619 0.177415 0.084790
v 0.062617 0.214780 0.056524
v 0.055672 0.160095 0.082788
v 0.018619 0.184619 0.053072
v 0.058394 0.130615 0.096419
v 0.036884 0.120696 0.097493
v 0.061436 0.166580 0.079292
v 0.007506 0.138067 0.076644
v 0.018619 0.184619 0.053072
v -0.019164 0.119710 0.080620
v -0.037311 0.129818 0.069454
v 0.015410 0.139675 0.082082
v -0.031575 0.165847 0.053170
v 0.018619 0.184619 0.053072
v -0.058930 0.173700 0.037245
v -0.056248 0.194820 0.027102
v -0.027549 0.157942 0.056299
v -0.020605 0.212627 0.030036
vt 0.0652 0.7022
vt 0.0772 0.7022
vt 0.0712 0.7370
vt 0.0691 0.6382
vt 0.0733 0.6382
vt 0.0790 0.6689
vt 0.0635 0.6689
vt 0.0652 0.7022
vt 0.0772 0.7022
vt 0.0712 0.7370
vt 0.0691 0.6382
vt 0.0733 0.6382
vt 0.0790 0.6689
vt 0.0635 0.6689
vt 0.1931 0.7022
vt 0.2051 0.7022
vt 0.1991 0.7370
vt 0.1970 0.6382
vt 0.2012 0.6382
vt 0.2068 0.6689
vt 0.1914 0.6689
vt 0.1931 0.7022
vt 0.2051 0.7022
vt 0.1991 0.7370
vt 0.1970 0.6382
vt 0.2012 0.6382
vt 0.2068 0.6689
vt 0.1914 0.6689
vt 0.1822 0.6876
vt 0.1822 0.7370
vt 0.1765 0.7370
vt 0.1765 0.6876
vt 0.1708 0.7370
vt 0.1708 0.6876
vt 0.1879 0.6876
vt 0.1879 0.7370
vt 0.1879 0.6382
vt 0.1822 0.6382
vt 0.1765 0.6382
vt 0.1708 0.6382
vt 0.3134 0.3552
vt 0.3397 0.2742
vt 0.3560 0.3243
vt 0.2708 0.3243
vt 0.2871 0.2742
vt 0.6537 0.3158
vt 0.7268 0.3158
vt 0.7043 0.3580
vt 0.6761 0.3580
vt 0.6902 0.2635
vt 0.6537 0.3158
vt 0.7268 0.3158
vt 0.7043 0.3580
vt 0.6761 0.3580
vt 0.6902 0.2631
vt 0.6537 0.3158
vt 0.7268 0.3158
vt 0.7043 0.3580
vt 0.6761 0.3580
vt 0.6902 0.2633
vt 0.6537 0.3158
vt 0.7268 0.3154
vt 0.7047 0.3579
vt 0.6763 0.3579
vt 0.6900 0.2633
vt 0.6537 0.3158
vt 0.7268 0.3158
vt 0.7043 0.3580
vt 0.6761 0.3580
vt 0.6902 0.2631
vt 0.6537 0.3158
vt 0.7268 0.3158
vt 0.7043 0.3580
vt 0.6761 0.3580
vt 0.6902 0.2633
vn -0.2372 0.9520 0.1933
vn -0.5203 0.6241 0.5829
vn -0.4200 0.7942 0.4390
vn 0.3413 0.9356 0.0902
vn 0.8654 0.4804 0.1424
vn 0.6297 0.7657 0.1311
vn 0.0316 0.8613 0.5071
vn 0.0244 0.4324 0.9014
vn 0.0286 0.6381 0.7694
vn -0.2026 0.9492 0.2406
vn -0.8472 0.5313 -0.0073
vn -0.5251 0.8428 0.1178
vn 0.6255 0.3488 -0.6979
vn 0.2613 -0.5643 0.7832
vn -0.9825 0.1705 0.0747
vn -0.9952 0.0193 -0.0961
vn 0.4197 -0.0327 0.9071
vn 0.5771 0.0142 -0.8166
vn -0.2768 0.4443 0.8520
vn -0.2826 0.4561 0.8438
vn -0.2632 0.4170 0.8700
vn -0.2678 0.4565 0.8485
vn -0.3490 0.3387 0.8738
vn -0.2619 0.4446 0.8566
vn -0.3661 0.4402 0.8198
vn -0.2583 0.4724 0.8427
vn -0.2977 0.4869 0.8212
vn -0.2857 0.4321 0.8554
vn -0.2009 0.5413 0.8165
vn -0.2915 0.4440 0.8473
vn -0.1958 0.4446 0.8740
s off
f 4/1/1 7/2/1 3/3/1
f 1/4/2 2/5/2 6/6/2 5/7/2
f 5/7/3 6/6/3 7/2/3 4/1/3
f 11/8/4 14/9/4 10/10/4
f 8/11/5 9/12/5 13/13/5 12/14/5
f 12/14/6 13/13/6 14/9/6 11/8/6
f 18/15/7 21/16/7 17/17/7
f 15/18/8 16/19/8 20/20/8 19/21/8
f 19/21/9 20/20/9 21/16/9 18/15/9
f 25/22/10 28/23/10 24/24/10
f 22/25/11 23/26/11 27/27/11 26/28/11
f 26/28/12 27/27/12 28/23/12 25/22/12
f 35/29/13 30/30/13 32/31/13 36/32/13
f 36/32/14 32/31/14 34/33/14 37/34/14
f 37/35/15 34/36/15 30/30/15 35/29/15
f 33/37/16 37/35/16 35/29/16 29/38/16
f 31/39/17 36/32/17 37/34/17 33/40/17
f 29/38/18 35/29/18 36/32/18 31/39/18
f 38/41/19 41/42/19 42/43/19
f 39/44/19 40/45/19 41/42/19 38/41/19
f 46/46/20 47/47/20 45/48/20 44/49/20
f 43/50/21 47/47/21 46/46/21
f 51/51/22 52/52/22 50/53/22 49/54/22
f 48/55/23 52/52/23 51/51/23
f 56/56/24 57/57/24 55/58/24 54/59/24
f 53/60/25 57/57/25 56/56/25
f 61/61/26 62/62/26 60/63/26 59/64/26
f 58/65/27 62/62/27 61/61/27
f 66/66/28 67/67/28 65/68/28 64/69/28
f 63/70/29 67/67/29 66/66/29
f 71/71/30 72/72/30 70/73/30 69/74/30
f 68/75/31 72/72/31 71/71/31
