# Blender v2.78 (sub 0) OBJ File: 'Low_Poly_Vegetation_Pack.blend'
# www.blender.org
g Flower_b_OneS_04
v 0.000000 0.000000 -0.009000
v -0.064614 0.332248 -0.004319
v 0.007794 0.000000 0.004500
v -0.059073 0.332420 0.003466
v -0.007794 0.000000 0.004500
v -0.068650 0.330798 0.001983
v -0.015765 0.152014 -0.012295
v -0.009544 0.152014 -0.001521
v -0.021986 0.152014 -0.001521
v -0.064095 0.339827 -0.041705
v -0.101256 0.323590 -0.012826
v -0.085467 0.324252 0.034385
v -0.038548 0.340898 0.034683
v -0.025339 0.350524 -0.012343
v -0.061431 0.331564 -0.000007
v -0.215813 0.258324 -0.101718
v -0.159024 0.306311 -0.016705
v -0.127123 0.324067 -0.077911
v -0.210445 0.239677 0.094306
v -0.122838 0.309185 0.078538
v -0.158103 0.303114 0.016905
v -0.046990 0.287392 0.193340
v -0.027648 0.341195 0.095945
v -0.094812 0.317367 0.095518
v 0.111096 0.353752 0.096351
v 0.031358 0.370330 0.018109
v -0.000543 0.352573 0.079315
v 0.105728 0.372399 -0.099673
v -0.004827 0.367455 -0.077135
v 0.030437 0.373527 -0.015502
v -0.057727 0.324685 -0.198707
v -0.100018 0.335445 -0.094541
v -0.032854 0.359274 -0.094114
vt 0.6925 0.6860
vt 0.6925 0.7343
vt 0.6869 0.7343
vt 0.6869 0.6860
vt 0.6814 0.7343
vt 0.6814 0.6860
vt 0.6981 0.6860
vt 0.6981 0.7343
vt 0.6981 0.6378
vt 0.6925 0.6378
vt 0.6869 0.6378
vt 0.6814 0.6378
vt 0.6458 0.4275
vt 0.6903 0.3951
vt 0.7348 0.4275
vt 0.7178 0.4798
vt 0.6628 0.4798
vt 0.5860 0.4156
vt 0.5472 0.4156
vt 0.5666 0.3866
vt 0.5666 0.4850
vt 0.5860 0.4156
vt 0.5472 0.4156
vt 0.5666 0.4850
vt 0.5860 0.4156
vt 0.5472 0.4156
vt 0.5666 0.4850
vt 0.5860 0.4156
vt 0.5472 0.4156
vt 0.5666 0.4850
vt 0.5860 0.4156
vt 0.5472 0.4156
vt 0.5666 0.4850
vt 0.5860 0.4156
vt 0.5472 0.4156
vt 0.5666 0.4850
vn 0.8185 0.2420 -0.5210
vn -0.0642 -0.0408 0.9971
vn -0.8313 -0.2047 -0.5167
vn -0.8617 -0.1001 -0.4975
vn -0.0000 0.0396 0.9992
vn 0.8633 0.0787 -0.4984
vn -0.3333 0.9377 0.0983
vn -0.2699 0.9532 0.1359
vn -0.5822 0.8102 -0.0684
vn -0.2720 0.9604 0.0610
vn -0.5734 0.7798 0.2513
vn -0.3344 0.9421 0.0232
vn -0.3069 0.8576 0.4128
vn -0.3948 0.9168 0.0602
vn -0.0491 0.9658 0.2546
vn -0.3927 0.9097 0.1351
vn -0.0578 0.9962 -0.0651
vn -0.3303 0.9279 0.1729
vn -0.3244 0.9184 -0.2266
s off
f 7/1/1 2/2/1 4/3/1 8/4/1
f 8/4/2 4/3/2 6/5/2 9/6/2
f 9/7/3 6/8/3 2/2/3 7/1/3
f 5/9/4 9/7/4 7/1/4 1/10/4
f 3/11/5 8/4/5 9/6/5 5/12/5
f 1/10/6 7/1/6 8/4/6 3/11/6
f 11/13/7 12/14/7 13/15/7 14/16/7
f 10/17/7 11/13/7 14/16/7
f 18/18/8 17/19/8 15/20/8
f 16/21/9 17/19/9 18/18/9
f 21/22/10 20/23/10 15/20/10
f 19/24/11 20/23/11 21/22/11
f 24/25/12 23/26/12 15/20/12
f 22/27/13 23/26/13 24/25/13
f 27/28/14 26/29/14 15/20/14
f 25/30/15 26/29/15 27/28/15
f 30/31/16 29/32/16 15/20/16
f 28/33/17 29/32/17 30/31/17
f 33/34/18 32/35/18 15/20/18
f 31/36/19 32/35/19 33/34/19
