# Blender v2.78 (sub 0) OBJ File: 'Low_Poly_Vegetation_Pack.blend'
# www.blender.org
g Flower_c_OneS_05
v 0.006903 0.000000 -0.001159
v -0.010870 0.248290 0.011056
v -0.002448 0.000000 0.006558
v -0.019460 0.242900 0.017919
v -0.004455 0.000000 -0.005399
v -0.020672 0.244680 0.010699
v 0.001463 0.132227 -0.000484
v -0.007753 0.131324 0.007083
v -0.009757 0.131651 -0.004850
v 0.004188 0.260007 0.002603
v -0.029920 0.255740 -0.009501
v -0.049503 0.240456 0.017163
v -0.027498 0.235277 0.045747
v 0.005685 0.247360 0.036749
v 0.065463 0.369093 -0.017618
v 0.083356 0.333679 0.086915
v 0.032916 0.299174 -0.045924
v 0.053999 0.257198 0.076275
v 0.089168 0.359150 0.034747
v 0.041629 0.285204 0.017855
v -0.016246 0.233739 0.011749
v 0.035243 0.297077 0.150276
v -0.072381 0.267933 0.158822
v 0.052249 0.255404 0.081419
v -0.075500 0.227945 0.093969
v -0.016610 0.279833 0.170723
v -0.012440 0.244802 0.088889
v -0.016247 0.233739 0.011748
v -0.142065 0.267646 0.105738
v -0.159877 0.302752 0.001087
v -0.078270 0.217658 0.088262
v -0.098958 0.258118 -0.034515
v -0.167628 0.284720 0.056095
v -0.091423 0.248668 0.030990
v -0.016246 0.233740 0.011747
v -0.109058 0.342919 -0.062190
v -0.006589 0.372494 -0.069710
v -0.097579 0.261337 -0.039116
v 0.027887 0.297556 -0.048321
v -0.061689 0.366457 -0.084209
v -0.037069 0.287978 -0.040461
v -0.016245 0.233740 0.011748
vt 0.6880 0.6868
vt 0.6880 0.7330
vt 0.6827 0.7330
vt 0.6827 0.6868
vt 0.6774 0.7330
vt 0.6774 0.6868
vt 0.6934 0.6868
vt 0.6934 0.7330
vt 0.6934 0.6405
vt 0.6880 0.6405
vt 0.6827 0.6405
vt 0.6774 0.6405
vt 0.2672 0.3219
vt 0.2837 0.2684
vt 0.3372 0.2684
vt 0.3538 0.3219
vt 0.3105 0.3550
vt 0.8121 0.4295
vt 0.8547 0.4289
vt 0.8495 0.4743
vt 0.8125 0.4888
vt 0.7695 0.4295
vt 0.8126 0.3836
vt 0.7753 0.4748
vt 0.8121 0.4295
vt 0.8547 0.4289
vt 0.8495 0.4743
vt 0.8125 0.4888
vt 0.7695 0.4295
vt 0.8126 0.3836
vt 0.7753 0.4748
vt 0.8121 0.4295
vt 0.8547 0.4289
vt 0.8495 0.4743
vt 0.8125 0.4888
vt 0.7695 0.4295
vt 0.8126 0.3836
vt 0.7753 0.4748
vt 0.8121 0.4295
vt 0.8547 0.4289
vt 0.8495 0.4743
vt 0.8125 0.4888
vt 0.7695 0.4295
vt 0.8126 0.3836
vt 0.7753 0.4748
vn 0.6316 -0.0095 0.7753
vn -0.9815 -0.1167 0.1520
vn 0.1917 0.1344 -0.9722
vn 0.3557 0.0188 -0.9344
vn -0.9855 -0.0404 0.1649
vn 0.6347 0.0224 0.7724
vn -0.2366 0.9077 0.3466
vn -0.8803 0.4046 0.2479
vn -0.6585 0.7113 0.2458
vn -0.8669 0.3818 0.3206
vn -0.6217 0.6468 0.4417
vn -0.1858 0.8743 -0.4485
vn -0.1751 0.9758 -0.1313
vn -0.3096 0.8291 -0.4655
vn -0.2656 0.9561 -0.1240
vn 0.5580 0.8088 0.1854
vn 0.2771 0.8701 0.4075
vn 0.5526 0.8165 0.1671
vn 0.2215 0.9684 0.1142
vn -0.0978 0.3568 0.9291
vn -0.2555 0.6178 0.7437
vn 0.0187 0.3888 0.9211
vn -0.0143 0.6906 0.7231
s off
f 7/1/1 2/2/1 4/3/1 8/4/1
f 8/4/2 4/3/2 6/5/2 9/6/2
f 9/7/3 6/8/3 2/2/3 7/1/3
f 5/9/4 9/7/4 7/1/4 1/10/4
f 3/11/5 8/4/5 9/6/5 5/12/5
f 1/10/6 7/1/6 8/4/6 3/11/6
f 11/13/7 12/14/7 13/15/7 14/16/7
f 10/17/7 11/13/7 14/16/7
f 20/18/8 18/19/8 16/20/8 19/21/8
f 17/22/9 21/23/9 20/18/9
f 17/22/10 20/18/10 19/21/10 15/24/10
f 20/18/11 21/23/11 18/19/11
f 27/25/12 25/26/12 23/27/12 26/28/12
f 24/29/13 28/30/13 27/25/13
f 24/29/14 27/25/14 26/28/14 22/31/14
f 27/25/15 28/30/15 25/26/15
f 34/32/16 32/33/16 30/34/16 33/35/16
f 31/36/17 35/37/17 34/32/17
f 31/36/18 34/32/18 33/35/18 29/38/18
f 34/32/19 35/37/19 32/33/19
f 41/39/20 39/40/20 37/41/20 40/42/20
f 38/43/21 42/44/21 41/39/21
f 38/43/22 41/39/22 40/42/22 36/45/22
f 41/39/23 42/44/23 39/40/23
