# Blender v2.78 (sub 0) OBJ File: 'Low_Poly_Vegetation_Pack.blend'
# www.blender.org
g Flower_d_OneS_04
v -0.002845 0.000000 -0.005621
v 0.001912 0.224970 0.033053
v 0.006290 0.000000 0.000347
v 0.009378 0.220473 0.036996
v -0.003446 0.000000 0.005274
v 0.004292 0.218125 0.038689
v -0.000807 0.119005 -0.001128
v 0.008162 0.118192 0.004765
v -0.001554 0.118486 0.009682
v -0.034682 0.299731 -0.018683
v 0.056230 0.297621 -0.013274
v -0.032272 0.266391 0.008399
v 0.049088 0.264503 0.013240
v 0.012841 0.322445 -0.041450
v 0.006045 0.216502 0.031450
v 0.101767 0.258956 0.019874
v 0.096726 0.188153 0.076973
v 0.058835 0.256226 0.020335
v 0.054324 0.192863 0.071434
v 0.133885 0.219667 0.046662
v 0.006045 0.216501 0.031450
v 0.045842 0.151725 0.104384
v -0.045070 0.153835 0.098975
v 0.043432 0.185066 0.077301
v -0.037928 0.186954 0.072461
v -0.001370 0.122839 0.119523
v 0.006044 0.216501 0.031450
v -0.090607 0.192501 0.065826
v -0.085566 0.263304 0.008727
v -0.047675 0.195231 0.065365
v -0.043164 0.258594 0.014266
v -0.122414 0.225617 0.031412
v 0.006044 0.216502 0.031449
v 0.007478 0.246313 0.018985
v -0.023192 0.230315 0.030684
v -0.013852 0.203062 0.053122
v 0.022589 0.202216 0.055290
v 0.035772 0.228947 0.034192
vt 0.6913 0.6892
vt 0.6913 0.7342
vt 0.6861 0.7342
vt 0.6861 0.6892
vt 0.6809 0.7342
vt 0.6809 0.6892
vt 0.6965 0.6892
vt 0.6965 0.7342
vt 0.6965 0.6441
vt 0.6913 0.6441
vt 0.6861 0.6441
vt 0.6809 0.6441
vt 0.4358 0.2633
vt 0.4646 0.2994
vt 0.4071 0.2994
vt 0.4679 0.3295
vt 0.4037 0.3295
vt 0.4358 0.3539
vt 0.4358 0.2633
vt 0.4646 0.2994
vt 0.4071 0.2994
vt 0.4679 0.3295
vt 0.4037 0.3295
vt 0.4358 0.3539
vt 0.4358 0.2633
vt 0.4646 0.2994
vt 0.4071 0.2994
vt 0.4679 0.3295
vt 0.4037 0.3295
vt 0.4358 0.3539
vt 0.4358 0.2633
vt 0.4646 0.2994
vt 0.4071 0.2994
vt 0.4679 0.3295
vt 0.4037 0.3295
vt 0.4358 0.3539
vt 0.5176 0.3248
vt 0.5355 0.2696
vt 0.5936 0.2696
vt 0.6115 0.3248
vt 0.5645 0.3589
vn 0.5548 0.2433 -0.7957
vn 0.4236 -0.2764 0.8626
vn -0.9946 0.0097 0.1032
vn -0.9979 0.0188 -0.0615
vn 0.4507 -0.0404 0.8918
vn 0.5486 0.0224 -0.8358
vn -0.0457 0.3899 0.9197
vn -0.0316 0.6288 0.7769
vn -0.0235 0.7319 0.6810
vn -0.3058 0.6108 0.7304
vn 0.1090 0.6193 0.7776
vn -0.0151 0.8189 0.5738
vn -0.0391 0.5132 0.8574
vn 0.2450 0.5980 0.7631
vn -0.1717 0.6258 0.7608
s off
f 7/1/1 2/2/1 4/3/1 8/4/1
f 8/4/2 4/3/2 6/5/2 9/6/2
f 9/7/3 6/8/3 2/2/3 7/1/3
f 5/9/4 9/7/4 7/1/4 1/10/4
f 3/11/5 8/4/5 9/6/5 5/12/5
f 1/10/6 7/1/6 8/4/6 3/11/6
f 15/13/7 13/14/7 12/15/7
f 13/14/8 11/16/8 10/17/8 12/15/8
f 14/18/9 10/17/9 11/16/9
f 21/19/10 19/20/10 18/21/10
f 19/20/8 17/22/8 16/23/8 18/21/8
f 20/24/11 16/23/11 17/22/11
f 27/25/12 25/26/12 24/27/12
f 25/26/8 23/28/8 22/29/8 24/27/8
f 26/30/13 22/29/13 23/28/13
f 33/31/14 31/32/14 30/33/14
f 31/32/8 29/34/8 28/35/8 30/33/8
f 32/36/15 28/35/15 29/34/15
f 35/37/8 36/38/8 37/39/8 38/40/8
f 34/41/8 35/37/8 38/40/8
