# Blender v2.78 (sub 0) OBJ File: 'Low_Poly_Vegetation_Pack.blend'
# www.blender.org
g Flower_b_OneS_08
v 0.020905 0.372253 -0.036247
v -0.014938 0.359081 -0.004305
v 0.006654 0.346816 0.038845
v 0.055842 0.352408 0.033571
v 0.064650 0.368129 -0.012839
v 0.026961 0.355433 0.002413
v -0.160842 0.432847 -0.051093
v -0.075315 0.357793 -0.000105
v -0.048441 0.380035 -0.062251
v -0.134156 0.374429 0.135853
v -0.027216 0.333574 0.086433
v -0.070754 0.347811 0.031837
v 0.048322 0.364449 0.211191
v 0.074376 0.339874 0.091755
v 0.003963 0.331869 0.099305
v 0.204114 0.412886 0.099582
v 0.127869 0.370392 0.010539
v 0.100995 0.348150 0.072684
v 0.177428 0.471303 -0.087364
v 0.079770 0.394611 -0.076000
v 0.123309 0.380374 -0.021404
v -0.005051 0.481283 -0.162701
v -0.021822 0.388311 -0.081321
v 0.048591 0.396316 -0.088871
v -0.065468 0.155891 0.026535
v -0.039028 0.163525 -0.056442
v -0.113712 0.194088 -0.019654
v -0.106982 0.196031 -0.040774
v -0.135215 0.215158 -0.040603
v -0.016738 0.123869 0.033942
v 0.006731 0.130645 -0.039711
v -0.055294 0.153538 -0.016492
v -0.098067 0.182918 -0.027418
v 0.003997 0.112812 -0.001345
v 0.002236 0.000000 -0.006082
v 0.018433 0.233770 0.001691
v 0.004149 0.000000 0.004978
v 0.019799 0.234916 0.009077
v -0.006385 0.000000 0.001104
v 0.010794 0.228307 0.006748
v 0.005118 0.121187 -0.004170
v 0.006716 0.121695 0.005069
v -0.002085 0.117409 0.001833
v 0.080582 0.297058 -0.067930
v 0.101468 0.297257 0.052519
v 0.156988 0.362899 -0.035861
v 0.162158 0.362569 -0.001903
v 0.189435 0.403545 -0.031714
v 0.017706 0.248855 -0.049977
v 0.036245 0.249032 0.056938
v 0.097400 0.289716 -0.008799
v 0.147921 0.343272 -0.017648
v 0.012759 0.229899 0.005977
v 0.089198 0.169077 -0.001435
v 0.031180 0.177584 0.076369
v 0.123232 0.211646 0.064763
v 0.108464 0.213811 0.084566
v 0.138270 0.235128 0.094649
v 0.040554 0.133389 -0.026953
v -0.010945 0.140941 0.042108
v 0.062839 0.166455 0.040195
v 0.103928 0.199197 0.067255
v 0.005882 0.121068 0.002684
v 0.024645 0.360925 -0.004121
v 0.027415 0.358410 0.002653
v 0.017224 0.357783 0.001012
vt 0.6411 0.4225
vt 0.6822 0.3926
vt 0.7234 0.4225
vt 0.7077 0.4708
vt 0.6568 0.4708
vt 0.4617 0.4169
vt 0.4232 0.4169
vt 0.4424 0.3881
vt 0.4424 0.4858
vt 0.4617 0.4169
vt 0.4232 0.4169
vt 0.4424 0.4858
vt 0.4617 0.4169
vt 0.4232 0.4169
vt 0.4424 0.4858
vt 0.4617 0.4169
vt 0.4232 0.4169
vt 0.4424 0.4858
vt 0.4617 0.4169
vt 0.4232 0.4169
vt 0.4424 0.4858
vt 0.4617 0.4169
vt 0.4232 0.4169
vt 0.4424 0.4858
vt 0.0611 0.8017
vt 0.0831 0.8036
vt 0.0642 0.8368
vt 0.0593 0.8278
vt 0.0595 0.8531
vt 0.0392 0.8005
vt 0.0437 0.7715
vt 0.0638 0.7652
vt 0.0828 0.7744
vt 0.0530 0.8360
vt 0.6919 0.6694
vt 0.6919 0.6992
vt 0.6900 0.6995
vt 0.6894 0.6696
vt 0.6878 0.6977
vt 0.6871 0.6684
vt 0.6943 0.6684
vt 0.6942 0.6976
vt 0.6950 0.6384
vt 0.6921 0.6384
vt 0.6892 0.6385
vt 0.6864 0.6384
vt 0.1838 0.8017
vt 0.2057 0.8036
vt 0.1869 0.8368
vt 0.1819 0.8278
vt 0.1821 0.8531
vt 0.1618 0.8005
vt 0.1663 0.7715
vt 0.1865 0.7652
vt 0.2055 0.7744
vt 0.1757 0.8360
vt 0.0611 0.8017
vt 0.0831 0.8036
vt 0.0642 0.8368
vt 0.0593 0.8278
vt 0.0595 0.8531
vt 0.0392 0.8005
vt 0.0437 0.7715
vt 0.0638 0.7652
vt 0.0828 0.7744
vt 0.0530 0.8360
vt 0.6940 0.7305
vt 0.6918 0.7314
vt 0.6900 0.7307
vt 0.6873 0.7304
vn -0.0749 0.9487 0.3071
vn 0.0133 0.9396 0.3420
vn 0.4145 0.7851 0.4602
vn 0.0004 0.9677 0.2520
vn 0.3446 0.9383 -0.0301
vn -0.0874 0.9725 0.2158
vn -0.1341 0.9645 -0.2277
vn -0.1624 0.9492 0.2695
vn -0.5427 0.8374 0.0650
vn -0.1496 0.9211 0.3595
vn -0.4727 0.6842 0.5554
vn -0.0617 0.9163 0.3957
vn 0.0059 0.6580 0.7530
vn 0.4591 0.7903 0.4058
vn 0.5158 0.7578 0.3997
vn 0.5466 0.8342 0.0729
vn 0.4444 0.8047 0.3937
vn 0.5663 0.8213 0.0692
vn 0.6203 0.7718 0.1396
vn 0.9806 -0.1075 -0.1641
vn -0.2962 -0.0037 0.9551
vn -0.6375 0.1115 -0.7623
vn -0.6440 0.0278 -0.7646
vn -0.3464 0.0067 0.9381
vn 0.9852 -0.0207 -0.1699
vn -0.7437 0.6663 -0.0554
vn -0.8188 0.5729 0.0382
vn -0.5383 0.8078 0.2401
vn -0.5881 0.8074 -0.0475
vn -0.6821 0.6666 0.3008
vn -0.7688 0.5881 0.2510
vn -0.3016 0.7903 -0.5333
vn -0.3572 0.7578 -0.5461
vn -0.4929 0.8342 -0.2472
vn -0.2917 0.8047 -0.5171
vn -0.5128 0.8213 -0.2502
vn -0.5409 0.7718 -0.3343
vn -0.5565 -0.0100 -0.8308
vn -0.2235 0.0592 0.9729
vn 0.9560 -0.0667 -0.2856
s off
f 2/1/1 3/2/1 4/3/1 5/4/1
f 1/5/1 2/1/1 5/4/1
f 9/6/2 8/7/2 6/8/2
f 7/9/3 8/7/3 9/6/3
f 12/10/4 11/11/4 6/8/4
f 10/12/5 11/11/5 12/10/5
f 15/13/6 14/14/6 6/8/6
f 13/15/7 14/14/7 15/13/7
f 18/16/8 17/17/8 6/8/8
f 16/18/9 17/17/9 18/16/9
f 21/19/10 20/20/10 6/8/10
f 19/21/11 20/20/11 21/19/11
f 24/22/12 23/23/12 6/8/12
f 22/24/13 23/23/13 24/22/13
f 32/25/14 26/26/14 28/27/14 33/28/14
f 33/28/15 28/27/15 29/29/15
f 32/25/16 25/30/16 30/31/16 34/32/16
f 26/26/17 32/25/17 34/32/17 31/33/17
f 25/30/18 32/25/18 33/28/18 27/34/18
f 27/34/19 33/28/19 29/29/19
f 41/35/20 36/36/20 38/37/20 42/38/20
f 42/38/21 38/37/21 40/39/21 43/40/21
f 43/41/22 40/42/22 36/36/22 41/35/22
f 39/43/23 43/41/23 41/35/23 35/44/23
f 37/45/24 42/38/24 43/40/24 39/46/24
f 35/44/25 41/35/25 42/38/25 37/45/25
f 51/47/26 45/48/26 47/49/26 52/50/26
f 52/50/27 47/49/27 48/51/27
f 51/47/28 44/52/28 49/53/28 53/54/28
f 45/48/29 51/47/29 53/54/29 50/55/29
f 44/52/30 51/47/30 52/50/30 46/56/30
f 46/56/31 52/50/31 48/51/31
f 61/57/32 55/58/32 57/59/32 62/60/32
f 62/60/33 57/59/33 58/61/33
f 61/57/34 54/62/34 59/63/34 63/64/34
f 55/58/35 61/57/35 63/64/35 60/65/35
f 54/62/36 61/57/36 62/60/36 56/66/36
f 56/66/37 62/60/37 58/61/37
f 36/36/38 40/42/38 66/67/38 64/68/38
f 40/39/39 38/37/39 65/69/39 66/70/39
f 38/37/40 36/36/40 64/68/40 65/69/40
