# Blender v2.78 (sub 0) OBJ File: 'Low_Poly_Vegetation_Pack.blend'
# www.blender.org
g Flower_c_OneS_15
v 0.004055 0.000000 -0.005706
v -0.002365 0.244159 0.021746
v 0.002914 0.000000 0.006365
v -0.002533 0.234076 0.030486
v -0.006969 0.000000 -0.000658
v -0.009540 0.234865 0.028433
v 0.000691 0.132227 -0.001378
v -0.000461 0.131324 0.010491
v -0.010324 0.131651 0.003483
v -0.030143 0.253524 0.010780
v -0.030855 0.222372 0.029677
v -0.000706 0.220895 0.050096
v 0.018639 0.251135 0.043819
v 0.000446 0.271301 0.019520
v -0.118404 0.315598 -0.048132
v -0.027062 0.381055 -0.029721
v -0.093288 0.256689 -0.015994
v 0.012079 0.331600 0.004621
v -0.081724 0.364279 -0.051036
v -0.044328 0.297721 0.000069
v -0.001915 0.235445 0.018995
v 0.068002 0.374466 0.035865
v 0.108214 0.297604 0.109635
v 0.016790 0.333083 0.007511
v 0.058377 0.249179 0.099500
v 0.104288 0.349805 0.078278
v 0.035924 0.292725 0.056071
v -0.001915 0.235444 0.018995
v 0.072971 0.195254 0.150435
v -0.018370 0.129797 0.132025
v 0.063277 0.239350 0.094458
v -0.041286 0.163665 0.072600
v 0.033698 0.149065 0.157351
v 0.005276 0.207001 0.092370
v -0.001916 0.235444 0.018995
v -0.113434 0.136386 0.066439
v -0.153646 0.213248 -0.007331
v -0.046753 0.162909 0.070878
v -0.092987 0.251277 -0.013927
v -0.152314 0.163539 0.028037
v -0.074396 0.211441 0.035473
v -0.001916 0.235445 0.018994
v -0.000823 -0.003535 0.002931
v 0.059604 0.091541 0.150777
v -0.045001 0.109787 0.143486
v 0.008022 0.123352 0.193566
v 0.071614 0.034111 0.069559
v -0.064609 0.057872 0.060065
v 0.004994 0.052724 0.060264
v 0.008365 0.105762 0.144632
v -0.001735 -0.004334 -0.003301
v -0.180014 0.112228 -0.084288
v -0.080606 0.134597 -0.165802
v -0.170023 0.151228 -0.165842
v -0.122387 0.041820 -0.001763
v 0.007068 0.070950 -0.107915
v -0.055162 0.064638 -0.049529
v -0.129155 0.129662 -0.121921
v 0.001064 0.001389 0.000144
v 0.101264 0.109252 -0.093075
v 0.143370 0.097070 0.014770
v 0.164242 0.117151 -0.053942
v 0.022553 0.061179 -0.085223
v 0.079177 0.045069 0.054480
v 0.046517 0.062305 -0.012961
v 0.121044 0.109067 -0.038144
v -0.001247 -0.003642 0.000794
v -0.122692 0.052056 0.108020
v -0.165982 0.043374 0.000305
v -0.187220 0.055246 0.070790
v -0.035878 0.028038 0.094079
v -0.092253 0.016732 -0.046194
v -0.062497 0.029069 0.022773
v -0.143885 0.052547 0.053591
vt 0.6914 0.6845
vt 0.6914 0.7314
vt 0.6860 0.7314
vt 0.6860 0.6845
vt 0.6806 0.7314
vt 0.6806 0.6845
vt 0.6968 0.6845
vt 0.6968 0.7314
vt 0.6968 0.6377
vt 0.6914 0.6377
vt 0.6860 0.6377
vt 0.6806 0.6377
vt 0.2708 0.3220
vt 0.2870 0.2696
vt 0.3395 0.2696
vt 0.3557 0.3220
vt 0.3132 0.3544
vt 0.8058 0.4287
vt 0.8409 0.4281
vt 0.8368 0.4656
vt 0.8063 0.4776
vt 0.7707 0.4289
vt 0.8061 0.3909
vt 0.7756 0.4662
vt 0.8058 0.4287
vt 0.8409 0.4281
vt 0.8368 0.4656
vt 0.8063 0.4776
vt 0.7707 0.4289
vt 0.8061 0.3909
vt 0.7756 0.4662
vt 0.8058 0.4287
vt 0.8409 0.4281
vt 0.8368 0.4656
vt 0.8063 0.4776
vt 0.7707 0.4289
vt 0.8061 0.3909
vt 0.7756 0.4662
vt 0.8058 0.4287
vt 0.8409 0.4281
vt 0.8368 0.4656
vt 0.8063 0.4776
vt 0.7707 0.4289
vt 0.8061 0.3909
vt 0.7756 0.4662
vt 0.1886 0.7069
vt 0.2129 0.7064
vt 0.1886 0.7254
vt 0.1642 0.7064
vt 0.1886 0.6391
vt 0.2203 0.6691
vt 0.1886 0.6694
vt 0.1569 0.6691
vt 0.1886 0.7069
vt 0.2129 0.7064
vt 0.1886 0.7254
vt 0.1642 0.7064
vt 0.1886 0.6391
vt 0.2203 0.6691
vt 0.1886 0.6694
vt 0.1569 0.6691
vt 0.0594 0.7069
vt 0.0837 0.7064
vt 0.0594 0.7254
vt 0.0350 0.7064
vt 0.0594 0.6391
vt 0.0911 0.6691
vt 0.0594 0.6694
vt 0.0277 0.6691
vt 0.0594 0.7069
vt 0.0837 0.7064
vt 0.0594 0.7254
vt 0.0350 0.7064
vt 0.0594 0.6391
vt 0.0911 0.6691
vt 0.0594 0.6694
vt 0.0277 0.6691
vn 0.9976 0.0099 0.0692
vn -0.4743 -0.1905 0.8595
vn -0.5922 0.1698 -0.7877
vn -0.4104 0.0188 -0.9117
vn -0.5792 -0.0404 0.8142
vn 0.9951 0.0224 0.0961
vn -0.4815 0.4626 0.7444
vn -0.3706 0.3798 0.8476
vn -0.3474 0.0480 0.9365
vn -0.4615 0.3192 0.8277
vn -0.1809 0.1711 0.9685
vn -0.5612 0.4079 0.7202
vn -0.8317 0.2193 0.5100
vn -0.6199 0.4088 0.6698
vn -0.8031 0.1587 0.5744
vn -0.6025 0.5029 0.6197
vn -0.4644 0.8095 0.3593
vn -0.4556 0.6045 0.6535
vn -0.7149 0.6255 0.3125
vn -0.3721 0.5931 0.7140
vn -0.0097 0.5857 0.8105
vn -0.3232 0.4997 0.8037
vn -0.1028 0.7550 0.6476
vn 0.0780 0.9384 -0.3368
vn 0.2888 0.9016 -0.3221
vn 0.0545 0.7099 -0.7022
vn 0.0686 0.8416 -0.5358
vn 0.2917 0.8026 -0.5202
vn 0.2830 0.6701 -0.6862
vn 0.1744 0.9384 0.2985
vn 0.0110 0.9016 0.4325
vn 0.4422 0.7099 0.5481
vn 0.3178 0.8416 0.4368
vn 0.1449 0.8026 0.5786
vn 0.2652 0.6701 0.6933
vn -0.0870 0.9630 0.2550
vn -0.1618 0.9849 0.0616
vn -0.6566 0.5908 0.4689
vn -0.4077 0.8270 0.3871
vn -0.4935 0.8543 0.1634
vn -0.7526 0.6132 0.2400
vn -0.0051 0.9858 -0.1676
vn 0.0569 0.9983 -0.0132
vn 0.3581 0.8800 -0.3119
vn 0.1849 0.9515 -0.2458
vn 0.2502 0.9646 -0.0835
vn 0.4249 0.8934 -0.1457
s off
f 7/1/1 2/2/1 4/3/1 8/4/1
f 8/4/2 4/3/2 6/5/2 9/6/2
f 9/7/3 6/8/3 2/2/3 7/1/3
f 5/9/4 9/7/4 7/1/4 1/10/4
f 3/11/5 8/4/5 9/6/5 5/12/5
f 1/10/6 7/1/6 8/4/6 3/11/6
f 11/13/7 12/14/7 13/15/7 14/16/7
f 10/17/7 11/13/7 14/16/7
f 20/18/8 18/19/8 16/20/8 19/21/8
f 17/22/9 21/23/9 20/18/9
f 17/22/10 20/18/10 19/21/10 15/24/10
f 20/18/11 21/23/11 18/19/11
f 27/25/12 25/26/12 23/27/12 26/28/12
f 24/29/13 28/30/13 27/25/13
f 24/29/14 27/25/14 26/28/14 22/31/14
f 27/25/15 28/30/15 25/26/15
f 34/32/16 32/33/16 30/34/16 33/35/16
f 31/36/17 35/37/17 34/32/17
f 31/36/18 34/32/18 33/35/18 29/38/18
f 34/32/19 35/37/19 32/33/19
f 41/39/20 39/40/20 37/41/20 40/42/20
f 38/43/21 42/44/21 41/39/21
f 38/43/22 41/39/22 40/42/22 36/45/22
f 41/39/23 42/44/23 39/40/23
f 50/46/24 45/47/24 46/48/24
f 44/49/25 50/46/25 46/48/25
f 43/50/26 48/51/26 49/52/26
f 49/52/27 48/51/27 45/47/27 50/46/27
f 47/53/28 49/52/28 50/46/28 44/49/28
f 47/53/29 43/50/29 49/52/29
f 58/54/30 53/55/30 54/56/30
f 52/57/31 58/54/31 54/56/31
f 51/58/32 56/59/32 57/60/32
f 57/60/33 56/59/33 53/55/33 58/54/33
f 55/61/34 57/60/34 58/54/34 52/57/34
f 55/61/35 51/58/35 57/60/35
f 66/62/36 61/63/36 62/64/36
f 60/65/37 66/62/37 62/64/37
f 59/66/38 64/67/38 65/68/38
f 65/68/39 64/67/39 61/63/39 66/62/39
f 63/69/40 65/68/40 66/62/40 60/65/40
f 63/69/41 59/66/41 65/68/41
f 74/70/42 69/71/42 70/72/42
f 68/73/43 74/70/43 70/72/43
f 67/74/44 72/75/44 73/76/44
f 73/76/45 72/75/45 69/71/45 74/70/45
f 71/77/46 73/76/46 74/70/46 68/73/46
f 71/77/47 67/74/47 73/76/47
