# Blender v2.78 (sub 0) OBJ File: 'Low_Poly_Vegetation_Pack.blend'
# www.blender.org
g Flower_c_OneS_06
v -0.000877 0.000000 -0.006945
v 0.027000 0.263128 0.022686
v 0.006453 0.000000 0.002713
v 0.032066 0.252448 0.028879
v -0.005576 0.000000 0.004232
v 0.025645 0.253661 0.032232
v 0.000443 0.137705 0.002942
v 0.007627 0.136802 0.012459
v -0.004377 0.137128 0.013975
v 0.002117 0.281829 0.024570
v 0.004399 0.252808 0.046494
v 0.036379 0.236480 0.040270
v 0.053862 0.255410 0.014500
v 0.032686 0.283437 0.004797
v -0.088322 0.346961 -0.008917
v -0.001993 0.362747 -0.073784
v -0.063058 0.301671 0.032097
v 0.040187 0.320188 -0.046239
v -0.053216 0.373258 -0.047596
v -0.008139 0.315308 -0.001618
v 0.024752 0.261265 0.026847
v 0.095501 0.312553 -0.090185
v 0.143370 0.224007 -0.048024
v 0.045575 0.319191 -0.047889
v 0.107112 0.218432 0.009489
v 0.137054 0.272763 -0.079695
v 0.077813 0.270763 -0.016769
v 0.024752 0.261264 0.026848
v 0.114058 0.144003 0.023301
v 0.027730 0.128217 0.088167
v 0.102797 0.207891 0.005447
v -0.001160 0.188427 0.082605
v 0.081154 0.120630 0.065622
v 0.055883 0.204885 0.052403
v 0.024751 0.261265 0.026848
v -0.067150 0.181883 0.108893
v -0.115019 0.270429 0.066732
v -0.005879 0.190314 0.085362
v -0.063300 0.296539 0.034792
v -0.106501 0.224598 0.102045
v -0.030582 0.248750 0.066706
v 0.024751 0.261266 0.026847
vt 0.6860 0.6886
vt 0.6860 0.7306
vt 0.6811 0.7306
vt 0.6811 0.6886
vt 0.6762 0.7306
vt 0.6762 0.6886
vt 0.6908 0.6886
vt 0.6908 0.7306
vt 0.6908 0.6466
vt 0.6860 0.6466
vt 0.6811 0.6466
vt 0.6762 0.6466
vt 0.2655 0.3256
vt 0.2838 0.2666
vt 0.3427 0.2666
vt 0.3610 0.3256
vt 0.3132 0.3620
vt 0.8155 0.4282
vt 0.8544 0.4280
vt 0.8493 0.4694
vt 0.8154 0.4823
vt 0.7767 0.4278
vt 0.8164 0.3864
vt 0.7816 0.4692
vt 0.8155 0.4282
vt 0.8544 0.4280
vt 0.8493 0.4694
vt 0.8154 0.4823
vt 0.7767 0.4278
vt 0.8164 0.3864
vt 0.7816 0.4692
vt 0.8155 0.4282
vt 0.8544 0.4280
vt 0.8493 0.4694
vt 0.8154 0.4823
vt 0.7767 0.4278
vt 0.8164 0.3864
vt 0.7816 0.4692
vt 0.8155 0.4282
vt 0.8544 0.4280
vt 0.8493 0.4694
vt 0.8154 0.4823
vt 0.7767 0.4278
vt 0.8164 0.3864
vt 0.7816 0.4692
vn 0.7631 -0.0650 -0.6430
vn 0.2350 -0.1973 0.9518
vn -0.9544 0.2491 -0.1648
vn -0.9189 0.0365 -0.3929
vn 0.1240 -0.0715 0.9897
vn 0.7976 0.0358 -0.6021
vn 0.4264 0.5663 0.7053
vn 0.4149 0.7437 0.5242
vn 0.3139 0.5849 0.7479
vn 0.2204 0.7120 0.6668
vn 0.4967 0.6214 0.6059
vn 0.6434 0.5385 0.5441
vn 0.3972 0.6685 0.6288
vn 0.5236 0.6800 0.5132
vn 0.4479 0.5885 0.6731
vn 0.3983 0.2636 0.8786
vn 0.5585 0.5780 0.5950
vn 0.6627 0.3067 0.6832
vn 0.2779 0.5196 0.8079
vn 0.1597 0.6212 0.7672
vn 0.4572 0.4400 0.7729
vn 0.2804 0.3978 0.8736
vn 0.3284 0.6697 0.6661
s off
f 7/1/1 2/2/1 4/3/1 8/4/1
f 8/4/2 4/3/2 6/5/2 9/6/2
f 9/7/3 6/8/3 2/2/3 7/1/3
f 5/9/4 9/7/4 7/1/4 1/10/4
f 3/11/5 8/4/5 9/6/5 5/12/5
f 1/10/6 7/1/6 8/4/6 3/11/6
f 11/13/7 12/14/7 13/15/7 14/16/7
f 10/17/7 11/13/7 14/16/7
f 20/18/8 18/19/8 16/20/8 19/21/8
f 17/22/9 21/23/9 20/18/9
f 17/22/10 20/18/10 19/21/10 15/24/10
f 20/18/11 21/23/11 18/19/11
f 27/25/12 25/26/12 23/27/12 26/28/12
f 24/29/13 28/30/13 27/25/13
f 24/29/14 27/25/14 26/28/14 22/31/14
f 27/25/15 28/30/15 25/26/15
f 34/32/16 32/33/16 30/34/16 33/35/16
f 31/36/17 35/37/17 34/32/17
f 31/36/18 34/32/18 33/35/18 29/38/18
f 34/32/19 35/37/19 32/33/19
f 41/39/20 39/40/20 37/41/20 40/42/20
f 38/43/21 42/44/21 41/39/21
f 38/43/22 41/39/22 40/42/22 36/45/22
f 41/39/23 42/44/23 39/40/23
