# Blender v2.78 (sub 0) OBJ File: 'Low_Poly_Vegetation_Pack.blend'
# www.blender.org
g Flower_c_OneS_14
v -0.000877 0.000000 -0.006945
v 0.027000 0.263128 0.022686
v 0.006453 0.000000 0.002713
v 0.032066 0.252448 0.028879
v -0.005576 0.000000 0.004232
v 0.025645 0.253661 0.032232
v 0.000443 0.137705 0.002942
v 0.007627 0.136802 0.012459
v -0.004377 0.137128 0.013975
v 0.002117 0.281829 0.024570
v 0.004399 0.252808 0.046494
v 0.036379 0.236480 0.040270
v 0.053862 0.255410 0.014500
v 0.032686 0.283437 0.004797
v -0.088322 0.346961 -0.008917
v -0.001993 0.362747 -0.073784
v -0.063058 0.301671 0.032097
v 0.040187 0.320188 -0.046239
v -0.053216 0.373258 -0.047596
v -0.008139 0.315308 -0.001618
v 0.024752 0.261265 0.026847
v 0.095501 0.312553 -0.090185
v 0.143370 0.224007 -0.048024
v 0.045575 0.319191 -0.047889
v 0.107112 0.218432 0.009489
v 0.137054 0.272763 -0.079695
v 0.077813 0.270763 -0.016769
v 0.024752 0.261264 0.026848
v 0.114058 0.144003 0.023301
v 0.027730 0.128217 0.088167
v 0.102797 0.207891 0.005447
v -0.001160 0.188427 0.082605
v 0.081154 0.120630 0.065622
v 0.055883 0.204885 0.052403
v 0.024751 0.261265 0.026848
v -0.067150 0.181883 0.108893
v -0.115019 0.270429 0.066732
v -0.005879 0.190314 0.085362
v -0.063300 0.296539 0.034792
v -0.106501 0.224598 0.102045
v -0.030582 0.248750 0.066706
v 0.024751 0.261266 0.026847
v 0.000982 0.019234 -0.003442
v -0.109467 0.117917 -0.071247
v -0.008196 0.144504 -0.107162
v -0.076642 0.158591 -0.119155
v -0.091269 0.053817 -0.015826
v 0.040613 0.088441 -0.062598
v -0.024779 0.075598 -0.034355
v -0.058716 0.134782 -0.086235
v 0.000791 -0.002901 -0.001582
v 0.063786 0.067641 -0.115533
v 0.132882 0.047998 -0.045063
v 0.127450 0.069422 -0.105611
v -0.001325 0.039466 -0.081262
v 0.088657 0.013886 0.010509
v 0.042705 0.032090 -0.032925
v 0.098101 0.061817 -0.078955
vt 0.6950 0.6904
vt 0.6950 0.7306
vt 0.6904 0.7306
vt 0.6904 0.6904
vt 0.6857 0.7306
vt 0.6857 0.6904
vt 0.6996 0.6904
vt 0.6996 0.7306
vt 0.6996 0.6502
vt 0.6950 0.6502
vt 0.6904 0.6502
vt 0.6857 0.6502
vt 0.2687 0.3235
vt 0.2857 0.2686
vt 0.3407 0.2686
vt 0.3576 0.3235
vt 0.3132 0.3575
vt 0.9390 0.4325
vt 0.9788 0.4325
vt 0.9733 0.4748
vt 0.9386 0.4879
vt 0.8993 0.4320
vt 0.9401 0.3897
vt 0.9041 0.4744
vt 0.9390 0.4325
vt 0.9788 0.4325
vt 0.9733 0.4748
vt 0.9386 0.4879
vt 0.8993 0.4320
vt 0.9401 0.3897
vt 0.9041 0.4744
vt 0.9390 0.4325
vt 0.9788 0.4325
vt 0.9733 0.4748
vt 0.9386 0.4879
vt 0.8993 0.4320
vt 0.9401 0.3897
vt 0.9041 0.4744
vt 0.9390 0.4325
vt 0.9788 0.4325
vt 0.9733 0.4748
vt 0.9386 0.4879
vt 0.8993 0.4320
vt 0.9401 0.3897
vt 0.9041 0.4744
vt 0.0624 0.7187
vt 0.0885 0.7181
vt 0.0624 0.7386
vt 0.0363 0.7181
vt 0.0624 0.6459
vt 0.0964 0.6782
vt 0.0624 0.6785
vt 0.0284 0.6782
vt 0.0624 0.7187
vt 0.0885 0.7181
vt 0.0624 0.7386
vt 0.0363 0.7181
vt 0.0624 0.6459
vt 0.0964 0.6782
vt 0.0624 0.6785
vt 0.0284 0.6782
vn 0.7631 -0.0650 -0.6430
vn 0.2350 -0.1973 0.9518
vn -0.9544 0.2491 -0.1648
vn -0.9189 0.0365 -0.3929
vn 0.1240 -0.0715 0.9897
vn 0.7976 0.0358 -0.6021
vn 0.4264 0.5663 0.7053
vn 0.4149 0.7437 0.5242
vn 0.3139 0.5849 0.7479
vn 0.2204 0.7120 0.6668
vn 0.4967 0.6214 0.6059
vn 0.6434 0.5385 0.5441
vn 0.3972 0.6685 0.6288
vn 0.5236 0.6800 0.5132
vn 0.4479 0.5885 0.6731
vn 0.3983 0.2636 0.8786
vn 0.5585 0.5780 0.5950
vn 0.6627 0.3067 0.6832
vn 0.2779 0.5196 0.8079
vn 0.1597 0.6212 0.7672
vn 0.4572 0.4400 0.7729
vn 0.2804 0.3978 0.8736
vn 0.3284 0.6697 0.6661
vn 0.0723 0.8264 0.5584
vn -0.0804 0.7864 0.6125
vn 0.2384 0.5485 0.8014
vn 0.1599 0.6985 0.6975
vn -0.0007 0.6564 0.7545
vn 0.0740 0.5054 0.8597
vn 0.0543 0.9429 0.3288
vn -0.0603 0.9754 0.2119
vn -0.2292 0.7873 0.5724
vn -0.0933 0.8817 0.4625
vn -0.2138 0.9159 0.3396
vn -0.3525 0.8223 0.4466
s off
f 7/1/1 2/2/1 4/3/1 8/4/1
f 8/4/2 4/3/2 6/5/2 9/6/2
f 9/7/3 6/8/3 2/2/3 7/1/3
f 5/9/4 9/7/4 7/1/4 1/10/4
f 3/11/5 8/4/5 9/6/5 5/12/5
f 1/10/6 7/1/6 8/4/6 3/11/6
f 11/13/7 12/14/7 13/15/7 14/16/7
f 10/17/7 11/13/7 14/16/7
f 20/18/8 18/19/8 16/20/8 19/21/8
f 17/22/9 21/23/9 20/18/9
f 17/22/10 20/18/10 19/21/10 15/24/10
f 20/18/11 21/23/11 18/19/11
f 27/25/12 25/26/12 23/27/12 26/28/12
f 24/29/13 28/30/13 27/25/13
f 24/29/14 27/25/14 26/28/14 22/31/14
f 27/25/15 28/30/15 25/26/15
f 34/32/16 32/33/16 30/34/16 33/35/16
f 31/36/17 35/37/17 34/32/17
f 31/36/18 34/32/18 33/35/18 29/38/18
f 34/32/19 35/37/19 32/33/19
f 41/39/20 39/40/20 37/41/20 40/42/20
f 38/43/21 42/44/21 41/39/21
f 38/43/22 41/39/22 40/42/22 36/45/22
f 41/39/23 42/44/23 39/40/23
f 50/46/24 45/47/24 46/48/24
f 44/49/25 50/46/25 46/48/25
f 43/50/26 48/51/26 49/52/26
f 49/52/27 48/51/27 45/47/27 50/46/27
f 47/53/28 49/52/28 50/46/28 44/49/28
f 47/53/29 43/50/29 49/52/29
f 58/54/30 53/55/30 54/56/30
f 52/57/31 58/54/31 54/56/31
f 51/58/32 56/59/32 57/60/32
f 57/60/33 56/59/33 53/55/33 58/54/33
f 55/61/34 57/60/34 58/54/34 52/57/34
f 55/61/35 51/58/35 57/60/35
