# Blender v2.78 (sub 0) OBJ File: 'Low_Poly_Vegetation_Pack.blend'
# www.blender.org
g Flower_c_OneS_01
v 0.000000 0.000000 -0.007000
v 0.009104 0.248290 0.012551
v 0.006062 0.000000 0.003500
v 0.014449 0.242900 0.022158
v -0.006062 0.000000 0.003500
v 0.007129 0.244680 0.022158
v -0.000235 0.132227 -0.001523
v 0.005701 0.131324 0.008819
v -0.006398 0.131651 0.008819
v -0.031786 0.313405 0.038727
v 0.057959 0.313496 0.001153
v -0.022439 0.410243 0.063025
v 0.068544 0.410335 0.024932
v -0.043183 0.357447 0.046572
v 0.071469 0.357563 -0.001431
v 0.010318 0.309214 0.013318
v 0.019452 0.426722 0.035418
v 0.014238 0.357650 0.022798
v 0.009282 0.249489 0.010700
v 0.059474 0.312331 0.001265
v 0.078647 0.228548 0.046857
v 0.147855 0.349392 0.030771
v 0.167293 0.264452 0.076992
v 0.098727 0.336617 0.000576
v 0.123222 0.229581 0.058821
v 0.066293 0.266203 0.017439
v 0.175101 0.307121 0.046876
v 0.111070 0.283244 0.029926
v 0.009282 0.249489 0.010700
v 0.077665 0.227380 0.048014
v -0.012079 0.227290 0.085588
v 0.115905 0.203377 0.137551
v 0.024921 0.203285 0.175644
v 0.105560 0.208590 0.079635
v -0.009092 0.208474 0.127637
v 0.030025 0.223098 0.060179
v 0.074251 0.187261 0.165725
v 0.048329 0.208677 0.103863
v 0.009282 0.249489 0.010700
v -0.013595 0.228454 0.085476
v -0.032768 0.312238 0.039885
v -0.054389 0.264228 0.169805
v -0.073827 0.349168 0.123584
v -0.036350 0.229419 0.125631
v -0.060845 0.336456 0.067385
v -0.025950 0.266109 0.056059
v -0.081398 0.306862 0.154267
v -0.048503 0.283083 0.096735
v 0.009282 0.249489 0.010700
vt 0.6904 0.6852
vt 0.6904 0.7304
vt 0.6851 0.7304
vt 0.6851 0.6852
vt 0.6799 0.7304
vt 0.6799 0.6852
vt 0.6956 0.6852
vt 0.6956 0.7304
vt 0.6956 0.6400
vt 0.6904 0.6400
vt 0.6851 0.6400
vt 0.6799 0.6400
vt 0.0586 0.3251
vt 0.0981 0.3263
vt 0.0916 0.3534
vt 0.0577 0.3654
vt 0.0592 0.2968
vt 0.0884 0.2998
vt 0.0299 0.2985
vt 0.0191 0.3246
vt 0.0244 0.3519
vt 0.0600 0.2613
vt 0.0586 0.3251
vt 0.0981 0.3263
vt 0.0916 0.3534
vt 0.0577 0.3654
vt 0.0592 0.2968
vt 0.0884 0.2998
vt 0.0299 0.2985
vt 0.0191 0.3246
vt 0.0244 0.3519
vt 0.0600 0.2613
vt 0.0586 0.3251
vt 0.0981 0.3263
vt 0.0916 0.3534
vt 0.0577 0.3654
vt 0.0592 0.2968
vt 0.0884 0.2998
vt 0.0299 0.2985
vt 0.0191 0.3246
vt 0.0244 0.3519
vt 0.0600 0.2613
vt 0.0586 0.3251
vt 0.0981 0.3263
vt 0.0916 0.3534
vt 0.0577 0.3654
vt 0.0592 0.2968
vt 0.0884 0.2998
vt 0.0299 0.2985
vt 0.0191 0.3246
vt 0.0244 0.3519
vt 0.0600 0.2613
vn 0.8691 -0.0095 -0.4945
vn -0.0127 -0.1167 0.9931
vn -0.9270 0.1344 -0.3500
vn -0.8626 0.0188 -0.5055
vn -0.0005 -0.0404 0.9992
vn 0.8669 0.0224 -0.4980
vn 0.2540 -0.2991 0.9198
vn 0.3297 -0.1318 0.9348
vn 0.4349 -0.1317 0.8908
vn 0.4776 -0.2988 0.8262
vn 0.5127 -0.0465 0.8573
vn 0.2511 -0.0467 0.9668
vn -0.4850 0.4408 0.7553
vn -0.3191 0.4477 0.8353
vn -0.2967 0.3495 0.8887
vn -0.4372 0.2320 0.8689
vn -0.1978 0.2982 0.9338
vn -0.2537 0.5424 0.8009
vn 0.1865 0.9733 0.1339
vn 0.1919 0.9302 0.3129
vn 0.0867 0.9301 0.3570
vn -0.0371 0.9731 0.2276
vn 0.0372 0.8881 0.4581
vn 0.2988 0.8884 0.3486
vn 0.9255 0.2334 0.2984
vn 0.8408 0.3506 0.4125
vn 0.8183 0.4489 0.3591
vn 0.8777 0.4422 0.1848
vn 0.7477 0.5435 0.3816
vn 0.8036 0.2992 0.5145
s off
f 7/1/1 2/2/1 4/3/1 8/4/1
f 8/4/2 4/3/2 6/5/2 9/6/2
f 9/7/3 6/8/3 2/2/3 7/1/3
f 5/9/4 9/7/4 7/1/4 1/10/4
f 3/11/5 8/4/5 9/6/5 5/12/5
f 1/10/6 7/1/6 8/4/6 3/11/6
f 18/13/7 15/14/7 13/15/7 17/16/7
f 16/17/8 11/18/8 15/14/8 18/13/8
f 10/19/9 16/17/9 18/13/9 14/20/9
f 14/20/10 18/13/10 17/16/10 12/21/10
f 16/17/11 10/19/11 19/22/11
f 16/17/12 19/22/12 11/18/12
f 28/23/13 25/24/13 23/25/13 27/26/13
f 26/27/14 21/28/14 25/24/14 28/23/14
f 20/29/15 26/27/15 28/23/15 24/30/15
f 24/30/16 28/23/16 27/26/16 22/31/16
f 26/27/17 20/29/17 29/32/17
f 26/27/18 29/32/18 21/28/18
f 38/33/19 35/34/19 33/35/19 37/36/19
f 36/37/20 31/38/20 35/34/20 38/33/20
f 30/39/21 36/37/21 38/33/21 34/40/21
f 34/40/22 38/33/22 37/36/22 32/41/22
f 36/37/23 30/39/23 39/42/23
f 36/37/24 39/42/24 31/38/24
f 48/43/25 45/44/25 43/45/25 47/46/25
f 46/47/26 41/48/26 45/44/26 48/43/26
f 40/49/27 46/47/27 48/43/27 44/50/27
f 44/50/28 48/43/28 47/46/28 42/51/28
f 46/47/29 40/49/29 49/52/29
f 46/47/30 49/52/30 41/48/30
