# Blender v2.78 (sub 0) OBJ File: 'Low_Poly_Vegetation_Pack.blend'
# www.blender.org
g Flower_e_OneS_02
v -0.002589 0.000000 -0.005589
v 0.015675 0.188519 0.051727
v 0.006135 0.000000 0.000552
v 0.021541 0.183376 0.054315
v -0.003546 0.000000 0.005037
v 0.016807 0.182859 0.055740
v -0.000751 0.107146 -0.002446
v 0.007814 0.106351 0.003617
v -0.001847 0.106639 0.008092
v 0.031376 0.177243 0.058609
v 0.030366 0.191347 0.045585
v 0.012130 0.197372 0.044756
v 0.001869 0.186993 0.057267
v 0.013764 0.174552 0.065829
v 0.014877 0.176852 0.045509
v 0.082228 0.204325 0.088116
v 0.077154 0.193247 0.099906
v 0.064938 0.199787 0.049237
v 0.048554 0.164017 0.087308
v 0.014877 0.176852 0.045509
v 0.047138 0.178727 0.125760
v 0.030871 0.178268 0.130520
v 0.056482 0.174110 0.089931
v 0.002731 0.168286 0.100692
v 0.014877 0.176852 0.045509
v -0.008693 0.192081 0.126472
v -0.019886 0.202700 0.119440
v 0.010181 0.164502 0.100343
v -0.025961 0.198790 0.077639
v 0.014877 0.176852 0.045509
v -0.028886 0.232974 0.091598
v -0.023476 0.245244 0.081072
v -0.024530 0.191674 0.081842
v -0.008146 0.227445 0.043771
v 0.014877 0.176852 0.045509
v 0.007204 0.262116 0.057714
v 0.023471 0.262576 0.052955
v -0.013602 0.226112 0.050444
v 0.038924 0.227595 0.035077
v 0.014877 0.176852 0.045509
v 0.062556 0.247067 0.055204
v 0.073750 0.236448 0.062236
v 0.030877 0.229265 0.033183
v 0.067019 0.194977 0.055887
vt 0.8206 0.6886
vt 0.8206 0.7332
vt 0.8154 0.7332
vt 0.8154 0.6886
vt 0.8102 0.7332
vt 0.8102 0.6886
vt 0.8257 0.6886
vt 0.8257 0.7332
vt 0.8257 0.6439
vt 0.8206 0.6439
vt 0.8154 0.6439
vt 0.8102 0.6439
vt 0.4350 0.3487
vt 0.4571 0.2807
vt 0.4708 0.3227
vt 0.3993 0.3227
vt 0.4129 0.2807
vt 0.6532 0.3164
vt 0.7178 0.3164
vt 0.6980 0.3537
vt 0.6730 0.3537
vt 0.6855 0.2702
vt 0.6532 0.3164
vt 0.7178 0.3164
vt 0.6980 0.3537
vt 0.6730 0.3537
vt 0.6855 0.2698
vt 0.6532 0.3164
vt 0.7178 0.3164
vt 0.6980 0.3537
vt 0.6730 0.3537
vt 0.6855 0.2700
vt 0.6532 0.3164
vt 0.7178 0.3161
vt 0.6983 0.3537
vt 0.6732 0.3537
vt 0.6853 0.2700
vt 0.6532 0.3164
vt 0.7178 0.3164
vt 0.6980 0.3537
vt 0.6730 0.3537
vt 0.6855 0.2698
vt 0.6532 0.3164
vt 0.7178 0.3164
vt 0.6980 0.3537
vt 0.6730 0.3537
vt 0.6855 0.2700
vn 0.5848 0.3675 -0.7232
vn 0.3222 -0.5586 0.7643
vn -0.9825 0.1705 0.0747
vn -0.9952 0.0193 -0.0961
vn 0.4197 -0.0327 0.9071
vn 0.5771 0.0142 -0.8166
vn 0.1900 0.6734 0.7145
vn -0.7438 0.6162 0.2589
vn -0.3836 0.7497 0.5393
vn -0.1275 0.9753 -0.1803
vn -0.0798 0.9875 0.1357
vn 0.7320 0.6602 -0.1681
vn 0.5925 0.7735 0.2250
vn 0.9169 -0.0123 0.3990
vn 0.7033 0.3415 0.6235
vn 0.2729 -0.3395 0.9001
vn 0.2785 0.0650 0.9582
vn -0.5564 -0.0368 0.8301
vn -0.2858 0.3012 0.9097
s off
f 7/1/1 2/2/1 4/3/1 8/4/1
f 8/4/2 4/3/2 6/5/2 9/6/2
f 9/7/3 6/8/3 2/2/3 7/1/3
f 5/9/4 9/7/4 7/1/4 1/10/4
f 3/11/5 8/4/5 9/6/5 5/12/5
f 1/10/6 7/1/6 8/4/6 3/11/6
f 10/13/7 13/14/7 14/15/7
f 11/16/7 12/17/7 13/14/7 10/13/7
f 18/18/8 19/19/8 17/20/8 16/21/8
f 15/22/9 19/19/9 18/18/9
f 23/23/10 24/24/10 22/25/10 21/26/10
f 20/27/11 24/24/11 23/23/11
f 28/28/12 29/29/12 27/30/12 26/31/12
f 25/32/13 29/29/13 28/28/13
f 33/33/14 34/34/14 32/35/14 31/36/14
f 30/37/15 34/34/15 33/33/15
f 38/38/16 39/39/16 37/40/16 36/41/16
f 35/42/17 39/39/17 38/38/17
f 43/43/18 44/44/18 42/45/18 41/46/18
f 40/47/19 44/44/19 43/43/19
