# Blender v2.78 (sub 0) OBJ File: 'Low_Poly_Vegetation_Pack.blend'
# www.blender.org
g Flower_a_OneS_09
v -0.052850 0.435578 -0.005784
v -0.000011 0.430774 0.031167
v 0.050702 0.450336 -0.003848
v 0.029204 0.467230 -0.062439
v -0.034795 0.458109 -0.063635
v 0.111326 0.514594 0.148692
v -0.026872 0.480038 0.189435
v 0.079751 0.477518 0.279554
v 0.002477 0.421368 -0.030181
v 0.075752 0.454537 0.044248
v -0.027997 0.428596 0.074835
v 0.121991 0.602682 -0.103503
v 0.171255 0.563967 0.030762
v 0.254840 0.621768 -0.064992
v 0.055291 0.497214 -0.089062
v 0.092275 0.468150 0.011734
v -0.142530 0.570929 -0.125781
v -0.004332 0.605485 -0.166524
v -0.114225 0.629956 -0.249114
v -0.083286 0.472045 -0.075851
v 0.020463 0.497987 -0.106438
v -0.153195 0.482841 0.126415
v -0.202459 0.521556 -0.007850
v -0.289313 0.485706 0.095433
v -0.062825 0.429368 0.057460
v -0.099808 0.458432 -0.043337
v 0.038474 0.192458 0.078266
v -0.066044 0.201882 0.053059
v -0.014128 0.239615 0.141764
v -0.040731 0.242013 0.135348
v -0.038019 0.265628 0.170099
v 0.043278 0.152924 0.017604
v -0.049496 0.161290 -0.004770
v -0.015409 0.189553 0.069549
v -0.025075 0.225825 0.123188
v -0.002011 0.139274 -0.004803
v -0.007687 0.000000 -0.002215
v 0.000449 0.288605 -0.022848
v 0.005762 0.000000 -0.005550
v 0.009423 0.290019 -0.025184
v 0.001926 0.000000 0.007765
v 0.007353 0.281861 -0.013890
v -0.005589 0.149613 -0.005932
v 0.005647 0.150241 -0.008719
v 0.002442 0.144950 0.002405
v -0.090787 0.366739 -0.093209
v 0.055682 0.366984 -0.129599
v -0.058066 0.448023 -0.190135
v -0.016709 0.447616 -0.199510
v -0.055834 0.498203 -0.230458
v -0.063109 0.307229 -0.017375
v 0.066901 0.307447 -0.049676
v -0.019463 0.357674 -0.119157
v -0.034835 0.423793 -0.180584
v 0.006230 0.283826 -0.016241
v -0.009669 0.208737 -0.109710
v 0.091277 0.219240 -0.045159
v 0.068831 0.261291 -0.157483
v 0.094525 0.263964 -0.141053
v 0.104301 0.290281 -0.178648
v -0.036782 0.164678 -0.047550
v 0.052821 0.174001 0.009748
v 0.043928 0.205500 -0.080940
v 0.073610 0.245923 -0.133934
v 0.002784 0.149466 -0.007480
v -0.007423 0.442005 -0.027979
v 0.000939 0.445345 -0.031174
v 0.000428 0.440791 -0.019258
vt 0.2786 0.4257
vt 0.3155 0.3990
vt 0.3523 0.4257
vt 0.3382 0.4691
vt 0.2927 0.4691
vt 0.0322 0.4435
vt 0.0793 0.4435
vt 0.0557 0.4906
vt 0.0355 0.4184
vt 0.0760 0.4184
vt 0.0557 0.3882
vt 0.0322 0.4435
vt 0.0793 0.4435
vt 0.0557 0.4906
vt 0.0355 0.4184
vt 0.0760 0.4184
vt 0.0322 0.4435
vt 0.0793 0.4435
vt 0.0557 0.4906
vt 0.0355 0.4184
vt 0.0760 0.4184
vt 0.0322 0.4435
vt 0.0793 0.4435
vt 0.0557 0.4906
vt 0.0355 0.4184
vt 0.0760 0.4184
vt -0.1978 0.6773
vt -0.1740 0.6779
vt -0.1920 0.7149
vt -0.1980 0.7056
vt -0.1959 0.7329
vt -0.2215 0.6776
vt -0.2187 0.6461
vt -0.1975 0.6379
vt -0.1764 0.6464
vt -0.2041 0.7148
vt 0.5599 0.6717
vt 0.5600 0.7029
vt 0.5580 0.7032
vt 0.5574 0.6719
vt 0.5556 0.7013
vt 0.5549 0.6706
vt 0.5625 0.6706
vt 0.5623 0.7013
vt 0.5632 0.6392
vt 0.5602 0.6392
vt 0.5572 0.6392
vt 0.5542 0.6392
vt -0.1978 0.6773
vt -0.1740 0.6779
vt -0.1920 0.7149
vt -0.1980 0.7056
vt -0.1959 0.7329
vt -0.2215 0.6776
vt -0.2187 0.6461
vt -0.1975 0.6379
vt -0.1764 0.6464
vt -0.2041 0.7148
vt -0.1978 0.6773
vt -0.1740 0.6779
vt -0.1920 0.7149
vt -0.1980 0.7056
vt -0.1959 0.7329
vt -0.2215 0.6776
vt -0.2187 0.6461
vt -0.1975 0.6379
vt -0.1764 0.6464
vt -0.2041 0.7148
vt 0.5622 0.7354
vt 0.5598 0.7358
vt 0.5578 0.7364
vt 0.5552 0.7353
vn -0.1395 0.9367 0.3213
vn -0.1717 0.9579 0.2300
vn -0.3289 0.8627 -0.3840
vn -0.2804 0.9486 -0.1467
vn -0.2312 0.9090 0.3469
vn -0.7388 0.5251 0.4225
vn -0.5649 0.7142 0.4132
vn -0.1059 0.9062 0.4094
vn 0.1251 0.5059 0.8535
vn 0.0348 0.7009 0.7124
vn -0.0465 0.9551 0.2925
vn 0.5350 0.8436 0.0469
vn 0.3193 0.9353 0.1525
vn 0.3718 0.7903 -0.4870
vn 0.3617 0.7578 -0.5431
vn 0.0335 0.8342 -0.5504
vn 0.3608 0.8047 -0.4715
vn 0.0284 0.8213 -0.5698
vn 0.0947 0.7718 -0.6287
vn -0.2340 -0.1075 -0.9663
vn 0.9739 -0.0037 0.2269
vn -0.7146 0.1115 0.6906
vn -0.7164 0.0278 0.6972
vn 0.9605 0.0067 0.2782
vn -0.2402 -0.0207 -0.9705
vn -0.0019 0.6663 0.7457
vn 0.0969 0.5729 0.8139
vn 0.2781 0.8078 0.5197
vn -0.0051 0.8074 0.5900
vn 0.3489 0.6666 0.6587
vn 0.3056 0.5881 0.7488
vn -0.5103 0.7903 0.3391
vn -0.5190 0.7578 0.3955
vn -0.2112 0.8342 0.5094
vn -0.4948 0.8047 0.3280
vn -0.2127 0.8213 0.5294
vn -0.2946 0.7718 0.5635
vn -0.7710 -0.0151 0.6367
vn 0.9888 0.0535 0.1393
vn -0.2911 -0.0498 -0.9554
s off
f 2/1/1 3/2/1 4/3/1 5/4/1
f 1/5/1 2/1/1 5/4/1
f 6/6/2 7/7/2 8/8/2
f 7/7/3 6/6/3 10/9/3 11/10/3
f 11/10/4 10/9/4 9/11/4
f 12/12/5 13/13/5 14/14/5
f 13/13/6 12/12/6 15/15/6 16/16/6
f 16/16/7 15/15/7 9/11/7
f 17/17/8 18/18/8 19/19/8
f 18/18/9 17/17/9 20/20/9 21/21/9
f 21/21/10 20/20/10 9/11/10
f 22/22/11 23/23/11 24/24/11
f 23/23/12 22/22/12 25/25/12 26/26/12
f 26/26/13 25/25/13 9/11/13
f 34/27/14 28/28/14 30/29/14 35/30/14
f 35/30/15 30/29/15 31/31/15
f 34/27/16 27/32/16 32/33/16 36/34/16
f 28/28/17 34/27/17 36/34/17 33/35/17
f 27/32/18 34/27/18 35/30/18 29/36/18
f 29/36/19 35/30/19 31/31/19
f 43/37/20 38/38/20 40/39/20 44/40/20
f 44/40/21 40/39/21 42/41/21 45/42/21
f 45/43/22 42/44/22 38/38/22 43/37/22
f 41/45/23 45/43/23 43/37/23 37/46/23
f 39/47/24 44/40/24 45/42/24 41/48/24
f 37/46/25 43/37/25 44/40/25 39/47/25
f 53/49/26 47/50/26 49/51/26 54/52/26
f 54/52/27 49/51/27 50/53/27
f 53/49/28 46/54/28 51/55/28 55/56/28
f 47/50/29 53/49/29 55/56/29 52/57/29
f 46/54/30 53/49/30 54/52/30 48/58/30
f 48/58/31 54/52/31 50/53/31
f 63/59/32 57/60/32 59/61/32 64/62/32
f 64/62/33 59/61/33 60/63/33
f 63/59/34 56/64/34 61/65/34 65/66/34
f 57/60/35 63/59/35 65/66/35 62/67/35
f 56/64/36 63/59/36 64/62/36 58/68/36
f 58/68/37 64/62/37 60/63/37
f 38/38/38 42/44/38 68/69/38 66/70/38
f 42/41/39 40/39/39 67/71/39 68/72/39
f 40/39/40 38/38/40 66/70/40 67/71/40
