# Blender v2.78 (sub 0) OBJ File: 'Low_Poly_Vegetation_Pack.blend'
# www.blender.org
g Flower_c_OneS_10
v 0.006961 0.000000 0.000734
v -0.014600 0.279237 0.009297
v -0.004116 0.000000 0.005662
v -0.022046 0.276040 0.012593
v -0.002845 0.000000 -0.006396
v -0.021279 0.280502 0.005313
v 0.001539 0.132227 -0.000074
v -0.009368 0.131324 0.004745
v -0.008100 0.131651 -0.007288
v -0.076414 0.295335 -0.028350
v 0.014940 0.328781 -0.029657
v -0.089506 0.303365 -0.120939
v 0.017415 0.342511 -0.122469
v -0.094844 0.291428 -0.074343
v 0.030370 0.337270 -0.076134
v -0.031681 0.314690 -0.027654
v -0.039385 0.331282 -0.141559
v -0.036395 0.325939 -0.069295
v -0.018018 0.278817 0.009335
v 0.016429 0.328700 -0.028456
v 0.032076 0.289385 0.059154
v 0.107365 0.337577 -0.049919
v 0.125678 0.291564 0.052620
v 0.059101 0.335694 -0.052961
v 0.080547 0.281808 0.067120
v 0.023309 0.311674 0.016699
v 0.137144 0.321601 0.000822
v 0.065666 0.320341 0.013023
v -0.018018 0.278817 0.009335
v 0.031023 0.288373 0.060391
v -0.060331 0.254927 0.061698
v 0.062035 0.230398 0.127368
v -0.044886 0.191252 0.128897
v 0.060219 0.262272 0.090995
v -0.064995 0.216429 0.092786
v -0.015599 0.274282 0.062394
v 0.012243 0.201561 0.147516
v -0.006546 0.250940 0.097834
v -0.018018 0.278817 0.009335
v -0.061820 0.255008 0.060497
v -0.077467 0.294323 -0.027113
v -0.134836 0.196186 0.056347
v -0.153150 0.242199 -0.046192
v -0.093725 0.218005 0.069613
v -0.115172 0.271891 -0.050469
v -0.070588 0.277297 0.018042
v -0.164286 0.211243 0.005134
v -0.108607 0.256538 0.015516
v -0.018018 0.278817 0.009335
v 0.000982 0.019234 -0.003442
v -0.109467 0.117917 -0.071247
v -0.008196 0.144504 -0.107162
v -0.076642 0.158591 -0.119155
v -0.091269 0.053817 -0.015826
v 0.040613 0.088441 -0.062598
v -0.024779 0.075598 -0.034355
v -0.058716 0.134782 -0.086235
v 0.000791 -0.002901 -0.001582
v 0.063786 0.067641 -0.115533
v 0.132883 0.047998 -0.045063
v 0.127450 0.069422 -0.105611
v -0.001325 0.039466 -0.081262
v 0.088657 0.013886 0.010509
v 0.042705 0.032090 -0.032926
v 0.098101 0.061817 -0.078955
vt 0.6911 0.6822
vt 0.6911 0.7234
vt 0.6863 0.7234
vt 0.6863 0.6822
vt 0.6816 0.7234
vt 0.6816 0.6822
vt 0.6958 0.6822
vt 0.6958 0.7234
vt 0.6958 0.6411
vt 0.6911 0.6411
vt 0.6863 0.6411
vt 0.6816 0.6411
vt 0.1843 0.3172
vt 0.2273 0.3195
vt 0.2209 0.3498
vt 0.1842 0.3631
vt 0.1844 0.2901
vt 0.2152 0.2901
vt 0.1536 0.2900
vt 0.1413 0.3193
vt 0.1476 0.3496
vt 0.1844 0.2564
vt 0.1843 0.3172
vt 0.2273 0.3195
vt 0.2209 0.3498
vt 0.1842 0.3631
vt 0.1844 0.2901
vt 0.2152 0.2901
vt 0.1536 0.2900
vt 0.1413 0.3193
vt 0.1476 0.3496
vt 0.1844 0.2564
vt 0.1843 0.3172
vt 0.2273 0.3195
vt 0.2209 0.3498
vt 0.1842 0.3631
vt 0.1844 0.2901
vt 0.2152 0.2901
vt 0.1536 0.2900
vt 0.1413 0.3193
vt 0.1476 0.3496
vt 0.1844 0.2564
vt 0.1843 0.3172
vt 0.2273 0.3195
vt 0.2209 0.3498
vt 0.1842 0.3631
vt 0.1844 0.2901
vt 0.2152 0.2901
vt 0.1536 0.2900
vt 0.1413 0.3193
vt 0.1476 0.3496
vt 0.1844 0.2564
vt 0.0594 0.7139
vt 0.0868 0.7133
vt 0.0594 0.7347
vt 0.0320 0.7133
vt 0.0594 0.6375
vt 0.0951 0.6714
vt 0.0594 0.6717
vt 0.0238 0.6714
vt 0.0594 0.7139
vt 0.0868 0.7133
vt 0.0594 0.7347
vt 0.0320 0.7133
vt 0.0594 0.6375
vt 0.0951 0.6714
vt 0.0594 0.6717
vt 0.0238 0.6714
vn 0.4069 -0.0137 0.9134
vn -0.9892 -0.0785 -0.1237
vn 0.5653 0.1167 -0.8166
vn 0.5931 0.0188 -0.8049
vn -0.9936 -0.0404 -0.1053
vn 0.4044 0.0224 0.9143
vn -0.1892 0.9755 0.1125
vn -0.2006 0.9609 0.1908
vn -0.4624 0.8650 0.1946
vn -0.4824 0.8681 0.1167
vn -0.2852 0.6333 0.7195
vn -0.1730 0.6743 0.7179
vn 0.0448 0.8392 0.5420
vn -0.0356 0.8416 0.5389
vn -0.0804 0.9543 0.2878
vn -0.0054 0.9654 0.2608
vn -0.6194 0.6988 0.3578
vn -0.6001 0.6505 0.4655
vn -0.3784 0.6068 0.6989
vn -0.3824 0.6641 0.6425
vn -0.1206 0.7599 0.6387
vn -0.0853 0.7142 0.6947
vn -0.2843 0.9541 0.0945
vn -0.3965 0.9130 0.0961
vn -0.6125 0.7431 0.2695
vn -0.5474 0.7833 0.2944
vn -0.5026 0.6706 0.5456
vn -0.5623 0.6169 0.5506
vn 0.0499 0.8885 0.4562
vn 0.0306 0.9368 0.3485
vn 0.0723 0.8264 0.5584
vn -0.0804 0.7864 0.6125
vn 0.2384 0.5485 0.8014
vn 0.1599 0.6985 0.6975
vn -0.0007 0.6564 0.7545
vn 0.0740 0.5054 0.8597
vn 0.0543 0.9429 0.3288
vn -0.0603 0.9754 0.2119
vn -0.2292 0.7873 0.5724
vn -0.0933 0.8817 0.4625
vn -0.2138 0.9159 0.3396
vn -0.3525 0.8223 0.4466
s off
f 7/1/1 2/2/1 4/3/1 8/4/1
f 8/4/2 4/3/2 6/5/2 9/6/2
f 9/7/3 6/8/3 2/2/3 7/1/3
f 5/9/4 9/7/4 7/1/4 1/10/4
f 3/11/5 8/4/5 9/6/5 5/12/5
f 1/10/6 7/1/6 8/4/6 3/11/6
f 18/13/7 15/14/7 13/15/7 17/16/7
f 16/17/8 11/18/8 15/14/8 18/13/8
f 10/19/9 16/17/9 18/13/9 14/20/9
f 14/20/10 18/13/10 17/16/10 12/21/10
f 16/17/11 10/19/11 19/22/11
f 16/17/12 19/22/12 11/18/12
f 28/23/13 25/24/13 23/25/13 27/26/13
f 26/27/14 21/28/14 25/24/14 28/23/14
f 20/29/15 26/27/15 28/23/15 24/30/15
f 24/30/16 28/23/16 27/26/16 22/31/16
f 26/27/17 20/29/17 29/32/17
f 26/27/18 29/32/18 21/28/18
f 38/33/19 35/34/19 33/35/19 37/36/19
f 36/37/20 31/38/20 35/34/20 38/33/20
f 30/39/21 36/37/21 38/33/21 34/40/21
f 34/40/22 38/33/22 37/36/22 32/41/22
f 36/37/23 30/39/23 39/42/23
f 36/37/24 39/42/24 31/38/24
f 48/43/25 45/44/25 43/45/25 47/46/25
f 46/47/26 41/48/26 45/44/26 48/43/26
f 40/49/27 46/47/27 48/43/27 44/50/27
f 44/50/28 48/43/28 47/46/28 42/51/28
f 46/47/29 40/49/29 49/52/29
f 46/47/30 49/52/30 41/48/30
f 57/53/31 52/54/31 53/55/31
f 51/56/32 57/53/32 53/55/32
f 50/57/33 55/58/33 56/59/33
f 56/59/34 55/58/34 52/54/34 57/53/34
f 54/60/35 56/59/35 57/53/35 51/56/35
f 54/60/36 50/57/36 56/59/36
f 65/61/37 60/62/37 61/63/37
f 59/64/38 65/61/38 61/63/38
f 58/65/39 63/66/39 64/67/39
f 64/67/40 63/66/40 60/62/40 65/61/40
f 62/68/41 64/67/41 65/61/41 59/64/41
f 62/68/42 58/65/42 64/67/42
