# Blender v2.78 (sub 0) OBJ File: 'Low_Poly_Vegetation_Pack.blend'
# www.blender.org
g Flower_b_OneS_03
v 0.000000 0.000000 -0.009000
v -0.007463 0.307564 0.008317
v 0.007794 0.000000 0.004500
v -0.001811 0.304544 0.015409
v -0.007794 0.000000 0.004500
v -0.011401 0.303590 0.013494
v -0.000603 0.152014 -0.014043
v 0.005618 0.152014 -0.003268
v -0.006824 0.152014 -0.003268
v -0.013993 0.327228 -0.024581
v -0.049413 0.305991 0.003222
v -0.027911 0.287822 0.044284
v 0.020798 0.297830 0.041860
v 0.029399 0.322185 -0.000702
v -0.007519 0.304261 0.010701
v -0.199532 0.376110 -0.035066
v -0.109584 0.299583 0.004944
v -0.083129 0.334461 -0.051294
v -0.172605 0.287347 0.139489
v -0.061712 0.263866 0.087536
v -0.104983 0.284417 0.034769
v 0.008344 0.277380 0.218430
v 0.038932 0.276490 0.097553
v -0.030794 0.262163 0.101024
v 0.162366 0.356175 0.122815
v 0.091704 0.324832 0.024977
v 0.065248 0.289954 0.081215
v 0.135439 0.444938 -0.051741
v 0.043832 0.360549 -0.057615
v 0.087103 0.339998 -0.004848
v -0.045511 0.454905 -0.130682
v -0.056813 0.347925 -0.067631
v 0.012914 0.362252 -0.071102
vt 0.6918 0.6895
vt 0.6918 0.7357
vt 0.6864 0.7357
vt 0.6864 0.6895
vt 0.6811 0.7357
vt 0.6811 0.6895
vt 0.6971 0.6895
vt 0.6971 0.7357
vt 0.6971 0.6432
vt 0.6918 0.6432
vt 0.6864 0.6432
vt 0.6811 0.6432
vt 0.6444 0.4247
vt 0.6857 0.3947
vt 0.7270 0.4247
vt 0.7113 0.4733
vt 0.6601 0.4733
vt 0.4567 0.4173
vt 0.4189 0.4173
vt 0.4378 0.3890
vt 0.4378 0.4849
vt 0.4567 0.4173
vt 0.4189 0.4173
vt 0.4378 0.4849
vt 0.4567 0.4173
vt 0.4189 0.4173
vt 0.4378 0.4849
vt 0.4567 0.4173
vt 0.4189 0.4173
vt 0.4378 0.4849
vt 0.4567 0.4173
vt 0.4189 0.4173
vt 0.4378 0.4849
vt 0.4567 0.4173
vt 0.4189 0.4173
vt 0.4378 0.4849
vn 0.8363 0.1103 -0.5371
vn -0.0809 -0.1185 0.9897
vn -0.8469 0.0360 -0.5305
vn -0.8659 -0.0200 -0.4999
vn -0.0000 0.0510 0.9987
vn 0.8660 -0.0132 -0.5000
vn -0.1557 0.8706 0.4667
vn -0.0678 0.8619 0.5026
vn 0.3415 0.7183 0.6061
vn -0.0808 0.9046 0.4186
vn 0.2709 0.9511 0.1483
vn -0.1679 0.9094 0.3806
vn -0.2037 0.9773 -0.0587
vn -0.2420 0.8715 0.4266
vn -0.6077 0.7706 0.1920
vn -0.2291 0.8287 0.5106
vn -0.5371 0.5378 0.6499
vn -0.1420 0.8239 0.5486
vn -0.0625 0.5116 0.8569
s off
f 7/1/1 2/2/1 4/3/1 8/4/1
f 8/4/2 4/3/2 6/5/2 9/6/2
f 9/7/3 6/8/3 2/2/3 7/1/3
f 5/9/4 9/7/4 7/1/4 1/10/4
f 3/11/5 8/4/5 9/6/5 5/12/5
f 1/10/6 7/1/6 8/4/6 3/11/6
f 11/13/7 12/14/7 13/15/7 14/16/7
f 10/17/7 11/13/7 14/16/7
f 18/18/8 17/19/8 15/20/8
f 16/21/9 17/19/9 18/18/9
f 21/22/10 20/23/10 15/20/10
f 19/24/11 20/23/11 21/22/11
f 24/25/12 23/26/12 15/20/12
f 22/27/13 23/26/13 24/25/13
f 27/28/14 26/29/14 15/20/14
f 25/30/15 26/29/15 27/28/15
f 30/31/16 29/32/16 15/20/16
f 28/33/17 29/32/17 30/31/17
f 33/34/18 32/35/18 15/20/18
f 31/36/19 32/35/19 33/34/19
