# Blender v2.78 (sub 0) OBJ File: 'Low_Poly_Vegetation_Pack.blend'
# www.blender.org
g Flower_a_OneS_07
v 0.032285 0.486294 -0.022379
v -0.025070 0.475063 -0.050033
v -0.064059 0.449230 -0.005390
v -0.030801 0.444495 0.049854
v 0.028743 0.467402 0.039354
v -0.148123 0.559646 -0.045344
v -0.067726 0.599415 -0.090337
v -0.147754 0.679897 -0.050300
v -0.002445 0.436554 -0.005735
v -0.103457 0.461564 -0.040087
v -0.014340 0.505646 -0.089960
v -0.115898 0.520548 0.128489
v -0.167516 0.527896 0.042750
v -0.185222 0.618555 0.119902
v -0.054135 0.440493 0.090813
v -0.111352 0.448639 -0.004225
v 0.053457 0.582163 0.110953
v -0.026939 0.542394 0.155946
v -0.013351 0.660763 0.172950
v 0.071196 0.493468 0.052118
v -0.017921 0.449387 0.101991
v 0.021232 0.621261 -0.062881
v 0.072850 0.613913 0.022858
v 0.024117 0.722105 0.002748
v 0.021874 0.514539 -0.078783
v 0.079090 0.506393 0.016255
v -0.002241 0.000000 -0.007307
v 0.018494 0.252529 -0.021832
v 0.007720 0.000000 0.001966
v 0.024496 0.253767 -0.016372
v -0.005291 0.000000 0.005956
v 0.015230 0.246628 -0.012489
v 0.001676 0.130912 -0.006932
v 0.009089 0.131461 -0.000030
v -0.000595 0.126831 0.002940
v 0.020914 0.317323 -0.120361
v 0.117607 0.317537 -0.030420
v 0.107588 0.388446 -0.142721
v 0.134231 0.388090 -0.116895
v 0.138206 0.432354 -0.160363
v -0.021428 0.265251 -0.063822
v 0.064399 0.265442 0.016013
v 0.074028 0.309391 -0.080497
v 0.111695 0.367245 -0.121130
v 0.010891 0.244774 -0.012465
v -0.011367 0.461488 -0.005793
v -0.005364 0.462726 -0.000333
v -0.014631 0.455587 0.003550
vt 0.2680 0.4268
vt 0.3155 0.3923
vt 0.3629 0.4268
vt 0.3448 0.4826
vt 0.2861 0.4826
vt 0.0421 0.4401
vt 0.0889 0.4401
vt 0.0655 0.4869
vt 0.0454 0.4152
vt 0.0856 0.4152
vt 0.0655 0.3852
vt 0.0421 0.4401
vt 0.0889 0.4401
vt 0.0655 0.4869
vt 0.0454 0.4152
vt 0.0856 0.4152
vt 0.0421 0.4401
vt 0.0889 0.4401
vt 0.0655 0.4869
vt 0.0454 0.4152
vt 0.0856 0.4152
vt 0.0421 0.4401
vt 0.0889 0.4401
vt 0.0655 0.4869
vt 0.0454 0.4152
vt 0.0856 0.4152
vt 0.5636 0.6699
vt 0.5634 0.6923
vt 0.5621 0.6925
vt 0.5618 0.6700
vt 0.5604 0.6912
vt 0.5600 0.6690
vt 0.5654 0.6690
vt 0.5650 0.6913
vt 0.5664 0.6465
vt 0.5640 0.6465
vt 0.5616 0.6465
vt 0.5592 0.6465
vt 0.0609 0.6826
vt 0.0854 0.6836
vt 0.0663 0.7214
vt 0.0603 0.7117
vt 0.0619 0.7398
vt 0.0365 0.6825
vt 0.0399 0.6502
vt 0.0619 0.6420
vt 0.0835 0.6512
vt 0.0538 0.7211
vt 0.5646 0.7247
vt 0.5629 0.7254
vt 0.5616 0.7255
vt 0.5597 0.7246
vn -0.3058 0.9152 0.2625
vn 0.4749 0.0348 0.8793
vn 0.3888 0.2249 0.8935
vn -0.0254 0.7711 0.6362
vn 0.7597 0.5011 -0.4144
vn 0.6603 0.6695 -0.3402
vn 0.1105 0.9937 0.0186
vn -0.5467 0.1802 -0.8177
vn -0.5854 0.3636 -0.7246
vn -0.5131 0.8406 -0.1738
vn -0.8316 -0.2861 0.4761
vn -0.8570 -0.0810 0.5090
vn -0.6490 0.6180 0.4437
vn 0.6794 -0.1808 -0.7112
vn 0.2902 0.0876 0.9530
vn -0.9688 0.1026 -0.2257
vn -0.9753 0.0303 -0.2189
vn 0.2910 0.0117 0.9567
vn 0.6816 -0.0182 -0.7315
vn -0.6256 0.6663 0.4059
vn -0.6287 0.5729 0.5259
vn -0.2833 0.8078 0.5169
vn -0.4970 0.8074 0.3181
vn -0.3610 0.6666 0.6522
vn -0.4602 0.5881 0.6651
vn -0.9174 -0.1016 -0.3847
vn 0.3955 -0.0140 0.9183
vn 0.6482 0.1499 -0.7466
s off
f 2/1/1 3/2/1 4/3/1 5/4/1
f 1/5/1 2/1/1 5/4/1
f 6/6/2 7/7/2 8/8/2
f 7/7/3 6/6/3 10/9/3 11/10/3
f 11/10/4 10/9/4 9/11/4
f 12/12/5 13/13/5 14/14/5
f 13/13/6 12/12/6 15/15/6 16/16/6
f 16/16/7 15/15/7 9/11/7
f 17/17/8 18/18/8 19/19/8
f 18/18/9 17/17/9 20/20/9 21/21/9
f 21/21/10 20/20/10 9/11/10
f 22/22/11 23/23/11 24/24/11
f 23/23/12 22/22/12 25/25/12 26/26/12
f 26/26/13 25/25/13 9/11/13
f 33/27/14 28/28/14 30/29/14 34/30/14
f 34/30/15 30/29/15 32/31/15 35/32/15
f 35/33/16 32/34/16 28/28/16 33/27/16
f 31/35/17 35/33/17 33/27/17 27/36/17
f 29/37/18 34/30/18 35/32/18 31/38/18
f 27/36/19 33/27/19 34/30/19 29/37/19
f 43/39/20 37/40/20 39/41/20 44/42/20
f 44/42/21 39/41/21 40/43/21
f 43/39/22 36/44/22 41/45/22 45/46/22
f 37/40/23 43/39/23 45/46/23 42/47/23
f 36/44/24 43/39/24 44/42/24 38/48/24
f 38/48/25 44/42/25 40/43/25
f 28/28/26 32/34/26 48/49/26 46/50/26
f 32/31/27 30/29/27 47/51/27 48/52/27
f 30/29/28 28/28/28 46/50/28 47/51/28
