# Blender v2.78 (sub 0) OBJ File: 'Low_Poly_Vegetation_Pack.blend'
# www.blender.org
g Flower_e_OneS_06
v -0.002592 0.000000 -0.005589
v 0.007547 0.192756 0.005047
v 0.006132 0.000000 0.000553
v 0.013559 0.190723 0.010269
v -0.003549 0.000000 0.005038
v 0.008804 0.190891 0.011708
v -0.000754 0.107146 -0.002445
v 0.007811 0.106351 0.003618
v -0.001851 0.106639 0.008093
v 0.023513 0.189234 0.017443
v 0.022311 0.192129 -0.001523
v 0.003837 0.195128 -0.005915
v -0.006377 0.194087 0.010337
v 0.005783 0.190444 0.024773
v 0.007605 0.179726 0.007418
v 0.071654 0.232043 0.023756
v 0.066681 0.230350 0.039877
v 0.056223 0.203267 -0.003901
v 0.040164 0.197801 0.048152
v 0.007605 0.179726 0.007418
v 0.036423 0.233039 0.069158
v 0.020020 0.234559 0.073174
v 0.047447 0.207842 0.043940
v -0.006327 0.206419 0.055992
v 0.007605 0.179726 0.007418
v -0.020005 0.240252 0.061424
v -0.031434 0.243465 0.049318
v 0.001317 0.203733 0.058068
v -0.035587 0.214106 0.018980
v 0.007605 0.179726 0.007418
v -0.040839 0.249301 0.008695
v -0.035643 0.252731 -0.007175
v -0.033964 0.211239 0.026693
v -0.017905 0.216706 -0.025360
v 0.007605 0.179726 0.007418
v -0.004945 0.253473 -0.035960
v 0.011458 0.251953 -0.039976
v -0.023553 0.219439 -0.019302
v 0.029411 0.214532 -0.032268
v 0.007605 0.179726 0.007418
v 0.051166 0.243788 -0.028583
v 0.062595 0.240575 -0.016477
v 0.021372 0.214135 -0.034790
v 0.058276 0.203762 0.004297
v -0.004533 0.000000 0.000000
v 0.004533 0.000000 0.000000
v -0.000000 0.160153 -0.133574
v -0.013025 0.118940 -0.069993
v -0.016825 0.061344 -0.026258
v 0.016825 0.061344 -0.026258
v 0.013025 0.118940 -0.069993
vt 0.2005 0.6860
vt 0.2005 0.7303
vt 0.1954 0.7303
vt 0.1954 0.6860
vt 0.1902 0.7303
vt 0.1902 0.6860
vt 0.2056 0.6860
vt 0.2056 0.7303
vt 0.2056 0.6417
vt 0.2005 0.6417
vt 0.1954 0.6417
vt 0.1902 0.6417
vt 0.3197 0.3541
vt 0.3429 0.2826
vt 0.3573 0.3268
vt 0.2821 0.3268
vt 0.2964 0.2826
vt 0.6559 0.3168
vt 0.7261 0.3168
vt 0.7045 0.3574
vt 0.6774 0.3574
vt 0.6910 0.2666
vt 0.6559 0.3168
vt 0.7261 0.3168
vt 0.7045 0.3574
vt 0.6774 0.3574
vt 0.6910 0.2662
vt 0.6559 0.3168
vt 0.7261 0.3168
vt 0.7045 0.3574
vt 0.6774 0.3574
vt 0.6910 0.2664
vt 0.6559 0.3168
vt 0.7261 0.3165
vt 0.7049 0.3573
vt 0.6776 0.3573
vt 0.6907 0.2664
vt 0.6559 0.3168
vt 0.7261 0.3168
vt 0.7045 0.3574
vt 0.6774 0.3574
vt 0.6910 0.2662
vt 0.6559 0.3168
vt 0.7261 0.3168
vt 0.7045 0.3574
vt 0.6774 0.3574
vt 0.6910 0.2664
vt 0.1627 0.6951
vt 0.1726 0.6951
vt 0.1676 0.7239
vt 0.1659 0.6423
vt 0.1694 0.6423
vt 0.1740 0.6676
vt 0.1612 0.6676
vn 0.6139 0.0149 -0.7893
vn 0.3754 -0.0927 0.9222
vn -0.9937 0.1093 0.0244
vn -0.9952 0.0193 -0.0961
vn 0.4197 -0.0327 0.9071
vn 0.5771 0.0142 -0.8166
vn 0.1257 0.9819 0.1419
vn -0.7846 0.5934 -0.1797
vn -0.4435 0.8953 -0.0428
vn -0.1701 0.6427 -0.7470
vn -0.1361 0.8512 -0.5068
vn 0.7032 0.4604 -0.5418
vn 0.5422 0.7834 -0.3040
vn 0.8992 0.2979 0.3204
vn 0.6587 0.6997 0.2767
vn 0.2531 0.3102 0.9164
vn 0.2354 0.6629 0.7107
vn -0.5872 0.4490 0.6735
vn -0.3378 0.7805 0.5261
vn 0.0000 0.8391 0.5439
vn 0.0000 0.3935 0.9193
vn 0.0000 0.6047 0.7964
s off
f 7/1/1 2/2/1 4/3/1 8/4/1
f 8/4/2 4/3/2 6/5/2 9/6/2
f 9/7/3 6/8/3 2/2/3 7/1/3
f 5/9/4 9/7/4 7/1/4 1/10/4
f 3/11/5 8/4/5 9/6/5 5/12/5
f 1/10/6 7/1/6 8/4/6 3/11/6
f 10/13/7 13/14/7 14/15/7
f 11/16/7 12/17/7 13/14/7 10/13/7
f 18/18/8 19/19/8 17/20/8 16/21/8
f 15/22/9 19/19/9 18/18/9
f 23/23/10 24/24/10 22/25/10 21/26/10
f 20/27/11 24/24/11 23/23/11
f 28/28/12 29/29/12 27/30/12 26/31/12
f 25/32/13 29/29/13 28/28/13
f 33/33/14 34/34/14 32/35/14 31/36/14
f 30/37/15 34/34/15 33/33/15
f 38/38/16 39/39/16 37/40/16 36/41/16
f 35/42/17 39/39/17 38/38/17
f 43/43/18 44/44/18 42/45/18 41/46/18
f 40/47/19 44/44/19 43/43/19
f 48/48/20 51/49/20 47/50/20
f 45/51/21 46/52/21 50/53/21 49/54/21
f 49/54/22 50/53/22 51/49/22 48/48/22
