# Blender v2.78 (sub 0) OBJ File: 'Low_Poly_Vegetation_Pack.blend'
# www.blender.org
g Flower_b_OneS_06
v -0.027420 0.330253 0.004033
v -0.015047 0.320315 0.034438
v 0.018660 0.315030 0.030949
v 0.027119 0.321702 -0.001613
v -0.001360 0.331110 -0.018247
v -0.004278 0.298156 0.003469
v -0.052083 0.429979 0.114536
v -0.023224 0.347815 0.086804
v -0.060131 0.363179 0.052683
v 0.048735 0.406157 0.135847
v 0.050390 0.337065 0.076045
v 0.000520 0.342205 0.091822
v 0.121735 0.412062 0.059544
v 0.080545 0.348679 0.008176
v 0.067582 0.338456 0.058074
v 0.093917 0.441790 -0.038069
v 0.037086 0.371045 -0.048933
v 0.073993 0.355681 -0.014813
v -0.006901 0.465612 -0.059380
v -0.036528 0.381795 -0.038175
v 0.013342 0.376655 -0.053952
v -0.079902 0.459706 0.016923
v -0.066683 0.370180 0.029695
v -0.053720 0.380404 -0.020204
v -0.005341 0.000000 0.000307
v -0.011764 0.176770 -0.016209
v 0.002622 0.000000 -0.004922
v -0.007052 0.177637 -0.019381
v 0.003168 0.000000 0.004589
v -0.005956 0.172640 -0.012434
v -0.004434 0.091638 -0.002294
v 0.001493 0.092023 -0.006185
v 0.001900 0.088782 0.000894
v -0.078352 0.222126 -0.034261
v -0.001100 0.222276 -0.085027
v -0.079122 0.271912 -0.096915
v -0.057127 0.271663 -0.110729
v -0.086019 0.302648 -0.120669
v -0.046961 0.185676 0.003942
v 0.021610 0.185809 -0.041119
v -0.042404 0.216574 -0.063736
v -0.063759 0.257071 -0.096112
v -0.006662 0.171342 -0.009480
v -0.005831 0.323041 0.006764
v -0.001120 0.323908 0.003592
v -0.000023 0.318911 0.010539
vt 0.6365 0.4235
vt 0.6834 0.3894
vt 0.7303 0.4235
vt 0.7124 0.4786
vt 0.6544 0.4786
vt 0.4588 0.4151
vt 0.4191 0.4151
vt 0.4390 0.3854
vt 0.4390 0.4862
vt 0.4588 0.4151
vt 0.4191 0.4151
vt 0.4390 0.4862
vt 0.4588 0.4151
vt 0.4191 0.4151
vt 0.4390 0.4862
vt 0.4588 0.4151
vt 0.4191 0.4151
vt 0.4390 0.4862
vt 0.4588 0.4151
vt 0.4191 0.4151
vt 0.4390 0.4862
vt 0.4588 0.4151
vt 0.4191 0.4151
vt 0.4390 0.4862
vt 0.6903 0.6669
vt 0.6900 0.6949
vt 0.6884 0.6951
vt 0.6880 0.6670
vt 0.6863 0.6936
vt 0.6858 0.6658
vt 0.6925 0.6658
vt 0.6920 0.6936
vt 0.6937 0.6377
vt 0.6907 0.6377
vt 0.6878 0.6377
vt 0.6848 0.6377
vt 0.0578 0.8006
vt 0.0816 0.8012
vt 0.0635 0.8382
vt 0.0576 0.8288
vt 0.0595 0.8561
vt 0.0341 0.8008
vt 0.0369 0.7693
vt 0.0582 0.7612
vt 0.0793 0.7697
vt 0.0514 0.8381
vt 0.6916 0.7353
vt 0.6894 0.7362
vt 0.6877 0.7363
vt 0.6854 0.7352
vn 0.1746 0.9547 0.2410
vn 0.5940 0.7432 -0.3078
vn 0.7020 0.4365 -0.5628
vn -0.0481 0.8949 -0.4436
vn -0.1701 0.6426 -0.7471
vn -0.5130 0.8573 0.0424
vn -0.8016 0.5915 -0.0871
vn -0.3358 0.6680 0.6641
vn -0.5610 0.3343 0.7573
vn 0.3062 0.5163 0.7998
vn 0.3111 0.1283 0.9417
vn 0.7712 0.5539 0.3138
vn 0.9426 0.1794 0.2816
vn -0.5291 -0.1808 -0.8290
vn 0.9946 0.0876 -0.0551
vn -0.4497 0.1026 0.8873
vn -0.4446 0.0303 0.8952
vn 0.9984 0.0117 -0.0551
vn -0.5484 -0.0182 -0.8360
vn 0.2454 0.6663 0.7042
vn 0.3612 0.5729 0.7358
vn 0.4347 0.8078 0.3981
vn 0.1907 0.8074 0.5584
vn 0.5476 0.6666 0.5058
vn 0.5365 0.5881 0.6052
vn -0.5919 -0.1016 0.7996
vn 0.9861 -0.0140 -0.1657
vn -0.5710 0.1499 -0.8072
s off
f 2/1/1 3/2/1 4/3/1 5/4/1
f 1/5/1 2/1/1 5/4/1
f 9/6/2 8/7/2 6/8/2
f 7/9/3 8/7/3 9/6/3
f 12/10/4 11/11/4 6/8/4
f 10/12/5 11/11/5 12/10/5
f 15/13/6 14/14/6 6/8/6
f 13/15/7 14/14/7 15/13/7
f 18/16/8 17/17/8 6/8/8
f 16/18/9 17/17/9 18/16/9
f 21/19/10 20/20/10 6/8/10
f 19/21/11 20/20/11 21/19/11
f 24/22/12 23/23/12 6/8/12
f 22/24/13 23/23/13 24/22/13
f 31/25/14 26/26/14 28/27/14 32/28/14
f 32/28/15 28/27/15 30/29/15 33/30/15
f 33/31/16 30/32/16 26/26/16 31/25/16
f 29/33/17 33/31/17 31/25/17 25/34/17
f 27/35/18 32/28/18 33/30/18 29/36/18
f 25/34/19 31/25/19 32/28/19 27/35/19
f 41/37/20 35/38/20 37/39/20 42/40/20
f 42/40/21 37/39/21 38/41/21
f 41/37/22 34/42/22 39/43/22 43/44/22
f 35/38/23 41/37/23 43/44/23 40/45/23
f 34/42/24 41/37/24 42/40/24 36/46/24
f 36/46/25 42/40/25 38/41/25
f 26/26/26 30/32/26 46/47/26 44/48/26
f 30/29/27 28/27/27 45/49/27 46/50/27
f 28/27/28 26/26/28 44/48/28 45/49/28
