# Blender v2.78 (sub 0) OBJ File: 'Low_Poly_Vegetation_Pack.blend'
# www.blender.org
g Flower_a_OneS_04
v 0.000000 0.000000 -0.010000
v -0.040907 0.474225 -0.005672
v 0.008660 0.000000 0.005000
v -0.031769 0.466292 0.006720
v -0.008660 0.000000 0.005000
v -0.048701 0.463059 0.005032
v -0.037142 0.250062 0.005049
v -0.028482 0.250062 0.020049
v -0.045802 0.250062 0.020049
v -0.193880 0.519290 -0.101085
v -0.070772 0.584626 -0.153642
v -0.204529 0.641026 -0.185767
v -0.038308 0.477256 -0.000001
v -0.139850 0.479169 -0.054438
v -0.034260 0.535207 -0.099516
v -0.145078 0.378377 0.122518
v -0.223794 0.436259 0.010090
v -0.291464 0.399723 0.137329
v -0.081758 0.403369 0.077010
v -0.149273 0.453014 -0.019419
v 0.114031 0.448734 0.110306
v -0.009077 0.383399 0.162863
v 0.103778 0.414318 0.254578
v 0.066671 0.460989 0.044641
v -0.038918 0.404951 0.089719
v 0.065228 0.589648 -0.113298
v 0.143944 0.531766 -0.000870
v 0.190713 0.655621 -0.068519
v 0.008579 0.536789 -0.086808
v 0.076093 0.487143 0.009621
v 0.007150 0.501381 -0.019406
v -0.051903 0.505037 -0.045479
v -0.092167 0.470301 -0.008701
v -0.057999 0.445175 0.040101
v 0.003383 0.464384 0.033485
vt 0.5622 0.6805
vt 0.5622 0.7261
vt 0.5569 0.7261
vt 0.5569 0.6805
vt 0.5516 0.7261
vt 0.5516 0.6805
vt 0.5674 0.6805
vt 0.5674 0.7261
vt 0.5674 0.6349
vt 0.5622 0.6349
vt 0.5569 0.6349
vt 0.5516 0.6349
vt 0.1643 0.4394
vt 0.2081 0.4394
vt 0.1862 0.4832
vt 0.1674 0.4161
vt 0.2050 0.4161
vt 0.1862 0.3881
vt 0.1643 0.4394
vt 0.2081 0.4394
vt 0.1862 0.4832
vt 0.1674 0.4161
vt 0.2050 0.4161
vt 0.1643 0.4394
vt 0.2081 0.4394
vt 0.1862 0.4832
vt 0.1674 0.4161
vt 0.2050 0.4161
vt 0.1643 0.4394
vt 0.2081 0.4394
vt 0.1862 0.4832
vt 0.1674 0.4161
vt 0.2050 0.4161
vt 0.2694 0.4210
vt 0.3053 0.3950
vt 0.3411 0.4210
vt 0.3274 0.4631
vt 0.2831 0.4631
vn 0.8362 -0.0165 -0.5481
vn -0.0553 0.0650 0.9964
vn -0.8323 -0.0452 -0.5524
vn -0.8619 -0.0981 -0.4976
vn -0.0000 -0.0601 0.9982
vn 0.8553 0.1568 -0.4938
vn 0.0451 0.5731 0.8182
vn -0.0776 0.7096 0.7003
vn -0.2419 0.8427 0.4809
vn 0.1699 0.9195 0.3544
vn -0.0145 0.8848 0.4657
vn -0.2695 0.7663 0.5832
vn -0.3974 0.8986 0.1861
vn -0.3015 0.8742 0.3806
vn -0.1443 0.7709 0.6203
vn -0.5222 0.5522 0.6499
vn -0.3646 0.6990 0.6152
vn -0.1168 0.8474 0.5180
vn -0.1940 0.8103 0.5530
s off
f 7/1/1 2/2/1 4/3/1 8/4/1
f 8/4/2 4/3/2 6/5/2 9/6/2
f 9/7/3 6/8/3 2/2/3 7/1/3
f 5/9/4 9/7/4 7/1/4 1/10/4
f 3/11/5 8/4/5 9/6/5 5/12/5
f 1/10/6 7/1/6 8/4/6 3/11/6
f 10/13/7 11/14/7 12/15/7
f 11/14/8 10/13/8 14/16/8 15/17/8
f 15/17/9 14/16/9 13/18/9
f 16/19/10 17/20/10 18/21/10
f 17/20/11 16/19/11 19/22/11 20/23/11
f 20/23/12 19/22/12 13/18/12
f 21/24/13 22/25/13 23/26/13
f 22/25/14 21/24/14 24/27/14 25/28/14
f 25/28/15 24/27/15 13/18/15
f 26/29/16 27/30/16 28/31/16
f 27/30/17 26/29/17 29/32/17 30/33/17
f 30/33/18 29/32/18 13/18/18
f 32/34/19 33/35/19 34/36/19 35/37/19
f 31/38/19 32/34/19 35/37/19
