# Blender v2.78 (sub 0) OBJ File: 'Low_Poly_Vegetation_Pack.blend'
# www.blender.org
g Flower_e_OneS_01
v -0.002589 0.000000 -0.005589
v 0.007550 0.192756 0.005046
v 0.006135 0.000000 0.000552
v 0.013562 0.190723 0.010268
v -0.003546 0.000000 0.005037
v 0.008808 0.190891 0.011707
v -0.000751 0.107146 -0.002446
v 0.007814 0.106351 0.003617
v -0.001847 0.106639 0.008092
v 0.023517 0.189234 0.017442
v 0.022314 0.192129 -0.001524
v 0.003841 0.195128 -0.005916
v -0.006374 0.194087 0.010337
v 0.005787 0.190444 0.024773
v 0.007609 0.179726 0.007417
v 0.071658 0.232043 0.023755
v 0.066684 0.230350 0.039876
v 0.056227 0.203267 -0.003902
v 0.040167 0.197801 0.048151
v 0.007609 0.179726 0.007417
v 0.036426 0.233039 0.069158
v 0.020023 0.234559 0.073173
v 0.047451 0.207842 0.043939
v -0.006323 0.206419 0.055991
v 0.007609 0.179726 0.007417
v -0.020002 0.240252 0.061423
v -0.031431 0.243465 0.049317
v 0.001320 0.203733 0.058067
v -0.035584 0.214106 0.018980
v 0.007609 0.179726 0.007417
v -0.040835 0.249301 0.008695
v -0.035639 0.252731 -0.007175
v -0.033961 0.211239 0.026693
v -0.017902 0.216706 -0.025361
v 0.007609 0.179726 0.007417
v -0.004942 0.253473 -0.035961
v 0.011461 0.251953 -0.039977
v -0.023550 0.219439 -0.019303
v 0.029414 0.214532 -0.032269
v 0.007609 0.179726 0.007417
v 0.051169 0.243788 -0.028584
v 0.062598 0.240575 -0.016478
v 0.021375 0.214135 -0.034791
v 0.058280 0.203762 0.004297
vt 0.8155 0.6872
vt 0.8155 0.7316
vt 0.8104 0.7316
vt 0.8104 0.6872
vt 0.8053 0.7316
vt 0.8053 0.6872
vt 0.8207 0.6872
vt 0.8207 0.7316
vt 0.8207 0.6427
vt 0.8155 0.6427
vt 0.8104 0.6427
vt 0.8053 0.6427
vt 0.3143 0.3613
vt 0.3430 0.2729
vt 0.3607 0.3275
vt 0.2678 0.3275
vt 0.2856 0.2729
vt 0.6451 0.3158
vt 0.7258 0.3158
vt 0.7010 0.3624
vt 0.6698 0.3624
vt 0.6854 0.2580
vt 0.6451 0.3158
vt 0.7258 0.3158
vt 0.7010 0.3624
vt 0.6698 0.3624
vt 0.6854 0.2575
vt 0.6451 0.3158
vt 0.7258 0.3158
vt 0.7010 0.3624
vt 0.6698 0.3624
vt 0.6854 0.2577
vt 0.6451 0.3158
vt 0.7258 0.3154
vt 0.7014 0.3623
vt 0.6701 0.3623
vt 0.6852 0.2577
vt 0.6451 0.3157
vt 0.7258 0.3157
vt 0.7010 0.3624
vt 0.6698 0.3624
vt 0.6854 0.2575
vt 0.6451 0.3158
vt 0.7258 0.3158
vt 0.7010 0.3624
vt 0.6698 0.3624
vt 0.6854 0.2578
vn 0.6139 0.0149 -0.7893
vn 0.3754 -0.0927 0.9222
vn -0.9937 0.1093 0.0244
vn -0.9952 0.0193 -0.0961
vn 0.4197 -0.0327 0.9071
vn 0.5771 0.0142 -0.8166
vn 0.1257 0.9819 0.1419
vn -0.7846 0.5934 -0.1797
vn -0.4435 0.8953 -0.0428
vn -0.1701 0.6427 -0.7470
vn -0.1361 0.8512 -0.5068
vn 0.7032 0.4604 -0.5418
vn 0.5422 0.7834 -0.3040
vn 0.8992 0.2979 0.3204
vn 0.6587 0.6997 0.2767
vn 0.2531 0.3102 0.9164
vn 0.2354 0.6629 0.7107
vn -0.5872 0.4490 0.6735
vn -0.3378 0.7805 0.5261
s off
f 7/1/1 2/2/1 4/3/1 8/4/1
f 8/4/2 4/3/2 6/5/2 9/6/2
f 9/7/3 6/8/3 2/2/3 7/1/3
f 5/9/4 9/7/4 7/1/4 1/10/4
f 3/11/5 8/4/5 9/6/5 5/12/5
f 1/10/6 7/1/6 8/4/6 3/11/6
f 10/13/7 13/14/7 14/15/7
f 11/16/7 12/17/7 13/14/7 10/13/7
f 18/18/8 19/19/8 17/20/8 16/21/8
f 15/22/9 19/19/9 18/18/9
f 23/23/10 24/24/10 22/25/10 21/26/10
f 20/27/11 24/24/11 23/23/11
f 28/28/12 29/29/12 27/30/12 26/31/12
f 25/32/13 29/29/13 28/28/13
f 33/33/14 34/34/14 32/35/14 31/36/14
f 30/37/15 34/34/15 33/33/15
f 38/38/16 39/39/16 37/40/16 36/41/16
f 35/42/17 39/39/17 38/38/17
f 43/43/18 44/44/18 42/45/18 41/46/18
f 40/47/19 44/44/19 43/43/19
