# Blender v2.78 (sub 0) OBJ File: 'Low_Poly_Vegetation_Pack.blend'
# www.blender.org
g Flower_b_OneS_05
v -0.005143 0.000000 -0.007386
v -0.098069 0.254363 0.069485
v 0.008968 0.000000 -0.000761
v -0.089288 0.255827 0.072964
v -0.003825 0.000000 0.008147
v -0.097370 0.251516 0.076521
v -0.019963 0.152014 -0.001081
v -0.008701 0.152014 0.004206
v -0.018911 0.152014 0.011316
v -0.105628 0.282475 0.039979
v -0.135557 0.247591 0.059110
v -0.113223 0.228518 0.099308
v -0.069490 0.251613 0.105022
v -0.064797 0.284960 0.068354
v -0.092944 0.254463 0.071194
v -0.246164 0.152152 0.025497
v -0.172278 0.205279 0.092380
v -0.172125 0.237372 0.028747
v -0.091386 0.113766 0.131092
v -0.072238 0.201779 0.133994
v -0.133891 0.188231 0.100913
v 0.038067 0.208236 0.213468
v -0.013746 0.269493 0.133984
v -0.062023 0.226948 0.164615
v 0.052939 0.384840 0.044953
v -0.025993 0.322587 0.037711
v -0.001676 0.296527 0.099425
v -0.087272 0.397495 -0.027291
v -0.114153 0.312778 -0.005275
v -0.051155 0.333294 0.020982
v -0.221175 0.318807 -0.038456
v -0.178113 0.250853 0.014856
v -0.129836 0.293398 -0.015776
vt 0.6821 0.6874
vt 0.6821 0.7328
vt 0.6769 0.7328
vt 0.6769 0.6874
vt 0.6716 0.7328
vt 0.6716 0.6874
vt 0.6874 0.6874
vt 0.6874 0.7328
vt 0.6874 0.6419
vt 0.6821 0.6419
vt 0.6769 0.6419
vt 0.6716 0.6419
vt 0.6436 0.4237
vt 0.6873 0.3919
vt 0.7310 0.4237
vt 0.7143 0.4751
vt 0.6603 0.4751
vt 0.4642 0.4182
vt 0.4262 0.4182
vt 0.4452 0.3899
vt 0.4452 0.4860
vt 0.4642 0.4182
vt 0.4262 0.4182
vt 0.4452 0.4860
vt 0.4642 0.4182
vt 0.4262 0.4182
vt 0.4452 0.4860
vt 0.4642 0.4182
vt 0.4262 0.4182
vt 0.4452 0.4860
vt 0.4642 0.4182
vt 0.4262 0.4182
vt 0.4452 0.4860
vt 0.4642 0.4182
vt 0.4262 0.4182
vt 0.4452 0.4860
vn 0.2563 0.6689 -0.6978
vn 0.5236 -0.1437 0.8398
vn -0.7956 -0.6056 -0.0170
vn -0.9914 -0.1001 0.0842
vn 0.5710 0.0396 0.8200
vn 0.4236 0.0787 -0.9024
vn -0.4401 0.6916 0.5727
vn -0.3979 0.8195 0.4124
vn -0.7237 0.6169 0.3094
vn -0.4789 0.5884 0.6515
vn -0.4844 0.0767 0.8715
vn -0.4589 0.7996 0.3874
vn -0.1971 0.7102 0.6758
vn -0.4853 0.7204 0.4954
vn -0.5642 0.6572 0.4998
vn -0.4640 0.6376 0.6149
vn -0.4560 0.3566 0.8154
vn -0.3674 0.7808 0.5054
vn -0.0290 0.6055 0.7953
s off
f 7/1/1 2/2/1 4/3/1 8/4/1
f 8/4/2 4/3/2 6/5/2 9/6/2
f 9/7/3 6/8/3 2/2/3 7/1/3
f 5/9/4 9/7/4 7/1/4 1/10/4
f 3/11/5 8/4/5 9/6/5 5/12/5
f 1/10/6 7/1/6 8/4/6 3/11/6
f 11/13/7 12/14/7 13/15/7 14/16/7
f 10/17/7 11/13/7 14/16/7
f 18/18/8 17/19/8 15/20/8
f 16/21/9 17/19/9 18/18/9
f 21/22/10 20/23/10 15/20/10
f 19/24/11 20/23/11 21/22/11
f 24/25/12 23/26/12 15/20/12
f 22/27/13 23/26/13 24/25/13
f 27/28/14 26/29/14 15/20/14
f 25/30/15 26/29/15 27/28/15
f 30/31/16 29/32/16 15/20/16
f 28/33/17 29/32/17 30/31/17
f 33/34/18 32/35/18 15/20/18
f 31/36/19 32/35/19 33/34/19
