# Blender v2.78 (sub 0) OBJ File: 'Low_Poly_Vegetation_Pack.blend'
# www.blender.org
g Flower_d_OneS_01
v -0.002354 0.000000 -0.005081
v 0.013597 0.190199 0.007163
v 0.005577 0.000000 0.000502
v 0.019693 0.185336 0.013091
v -0.003224 0.000000 0.004579
v 0.014943 0.188381 0.015212
v -0.000682 0.105782 -0.001027
v 0.007104 0.105059 0.004485
v -0.001679 0.105321 0.008553
v -0.028475 0.255495 0.090304
v -0.047420 0.279290 0.013039
v -0.010476 0.211064 0.071395
v -0.029077 0.234425 -0.004463
v -0.044494 0.300234 0.063391
v 0.014801 0.176818 0.010844
v -0.017434 0.279605 -0.041539
v 0.058263 0.256955 -0.067075
v -0.022693 0.232744 -0.017659
v 0.051335 0.209733 -0.042897
v 0.026623 0.301466 -0.065614
v 0.014802 0.176817 0.010844
v 0.108334 0.232013 -0.039710
v 0.127279 0.208218 0.037555
v 0.062826 0.203163 -0.036624
v 0.081426 0.179801 0.039235
v 0.145309 0.243096 -0.000744
v 0.014802 0.176817 0.010845
v 0.097300 0.207923 0.092138
v 0.021604 0.230574 0.117674
v 0.074653 0.180445 0.052206
v 0.000625 0.203456 0.077444
v 0.074155 0.241766 0.128241
v 0.014801 0.176817 0.010845
v 0.003449 0.194661 0.037476
v 0.035704 0.182847 0.036111
v 0.046706 0.185722 0.003668
v 0.021250 0.199312 -0.015017
v -0.005484 0.204837 0.005878
vt 0.6750 0.6845
vt 0.6750 0.7262
vt 0.6701 0.7262
vt 0.6701 0.6845
vt 0.6653 0.7262
vt 0.6653 0.6845
vt 0.6798 0.6845
vt 0.6798 0.7262
vt 0.6798 0.6429
vt 0.6750 0.6429
vt 0.6701 0.6429
vt 0.6653 0.6429
vt 0.3127 0.2549
vt 0.3473 0.2983
vt 0.2781 0.2983
vt 0.3514 0.3346
vt 0.2740 0.3346
vt 0.3127 0.3640
vt 0.3127 0.2549
vt 0.3473 0.2983
vt 0.2781 0.2983
vt 0.3514 0.3346
vt 0.2740 0.3346
vt 0.3127 0.3640
vt 0.3127 0.2549
vt 0.3473 0.2983
vt 0.2781 0.2983
vt 0.3514 0.3346
vt 0.2740 0.3346
vt 0.3127 0.3640
vt 0.3127 0.2549
vt 0.3473 0.2983
vt 0.2781 0.2983
vt 0.3514 0.3346
vt 0.2740 0.3346
vt 0.3127 0.3640
vt 0.5176 0.3279
vt 0.5356 0.2727
vt 0.5936 0.2727
vt 0.6116 0.3279
vt 0.5646 0.3620
vn 0.6301 -0.0236 -0.7762
vn 0.3799 -0.1532 0.9123
vn -0.9832 0.1776 0.0425
vn -0.9952 0.0188 -0.0961
vn 0.4195 -0.0404 0.9069
vn 0.5772 0.0224 -0.8163
vn 0.7967 0.6043 -0.0092
vn 0.9075 0.4088 -0.0966
vn 0.9560 0.2471 -0.1583
vn 0.4189 0.6193 0.6641
vn 0.3984 0.3758 0.8367
vn 0.3733 0.2359 0.8972
vn -0.1821 0.9263 0.3299
vn -0.4811 0.7977 0.3636
vn -0.5993 0.7119 0.3662
vn 0.1743 0.9265 -0.3335
vn 0.0508 0.8124 -0.5809
vn -0.0157 0.7244 -0.6892
vn 0.3445 0.9176 0.1981
s off
f 7/1/1 2/2/1 4/3/1 8/4/1
f 8/4/2 4/3/2 6/5/2 9/6/2
f 9/7/3 6/8/3 2/2/3 7/1/3
f 5/9/4 9/7/4 7/1/4 1/10/4
f 3/11/5 8/4/5 9/6/5 5/12/5
f 1/10/6 7/1/6 8/4/6 3/11/6
f 15/13/7 13/14/7 12/15/7
f 13/14/8 11/16/8 10/17/8 12/15/8
f 14/18/9 10/17/9 11/16/9
f 21/19/10 19/20/10 18/21/10
f 19/20/11 17/22/11 16/23/11 18/21/11
f 20/24/12 16/23/12 17/22/12
f 27/25/13 25/26/13 24/27/13
f 25/26/14 23/28/14 22/29/14 24/27/14
f 26/30/15 22/29/15 23/28/15
f 33/31/16 31/32/16 30/33/16
f 31/32/17 29/34/17 28/35/17 30/33/17
f 32/36/18 28/35/18 29/34/18
f 35/37/19 36/38/19 37/39/19 38/40/19
f 34/41/19 35/37/19 38/40/19
