# Blender v2.78 (sub 0) OBJ File: 'Low_Poly_Vegetation_Pack.blend'
# www.blender.org
g Reed_a_04
v -0.010930 -0.020548 0.006745
v 0.001212 -0.022174 -0.003622
v -0.063008 0.657413 -0.099252
v -0.027989 0.347995 -0.017830
v -0.004815 0.344890 -0.037617
v -0.010976 -0.020561 0.006650
v 0.001165 -0.022187 -0.003717
v -0.063054 0.657382 -0.099344
v -0.028035 0.347973 -0.017924
v -0.004861 0.344868 -0.037711
v 0.001757 -0.029131 -0.002387
v 0.056877 0.488405 0.068176
v -0.003423 -0.026897 -0.014724
v 0.051697 0.490639 0.055838
v -0.011955 -0.027402 -0.004361
v 0.043166 0.490134 0.066202
v 0.026861 0.495691 0.083119
v 0.060504 0.490827 0.092513
v 0.080325 0.492684 0.063403
v 0.058933 0.498697 0.036017
v 0.025890 0.500555 0.048202
v 0.037960 0.744605 0.134840
v 0.072105 0.740542 0.142676
v 0.090772 0.746127 0.113280
v 0.068164 0.753642 0.087276
v 0.035525 0.752701 0.100601
v 0.061998 0.764141 0.119586
v 0.047825 0.470555 0.061224
vt 0.9333 0.8096
vt 0.9405 0.8096
vt 0.9352 0.8639
vt 0.9374 0.7600
vt 0.9330 0.7600
vt 0.9333 0.8096
vt 0.9352 0.8639
vt 0.9405 0.8096
vt 0.9374 0.7600
vt 0.9330 0.7600
vt 0.0583 0.6572
vt 0.0583 0.7146
vt 0.0568 0.7146
vt 0.0568 0.6572
vt 0.0613 0.6572
vt 0.0613 0.7146
vt 0.0598 0.7146
vt 0.0598 0.6572
vt 0.1696 0.5313
vt 0.1672 0.5983
vt 0.1579 0.6035
vt 0.1602 0.5222
vt 0.1912 0.5318
vt 0.1905 0.5979
vt 0.1830 0.5966
vt 0.1838 0.5344
vt 0.1768 0.5341
vt 0.1755 0.5966
vt 0.1994 0.5242
vt 0.1994 0.6024
vt 0.1703 0.6058
vt 0.1654 0.6096
vt 0.1820 0.6034
vt 0.1877 0.6040
vt 0.1761 0.6039
vt 0.1807 0.5201
vn 0.6468 0.2617 0.7164
vn 0.6535 0.0804 0.7527
vn -0.6468 -0.2617 -0.7164
vn -0.6535 -0.0804 -0.7527
vn -0.7653 0.1663 -0.6219
vn 0.9183 -0.0441 -0.3935
vn -0.1560 -0.1171 0.9808
vn -0.3523 0.2000 -0.9143
vn 0.8351 -0.1422 0.5313
vn -0.9981 0.0299 0.0548
vn 0.7798 0.0930 -0.6191
vn -0.2646 -0.1815 0.9471
vn -0.5209 0.8216 0.2313
vn -0.1627 0.9288 -0.3329
vn 0.5394 0.6955 0.4747
vn 0.4927 0.8509 -0.1825
vn -0.0870 0.6774 0.7304
vn -0.3139 -0.5618 -0.7655
vn 0.5220 -0.7967 0.3046
vn -0.7925 -0.6066 -0.0625
vn 0.4986 -0.6792 -0.5386
vn -0.2759 -0.7518 0.5989
s off
f 4/1/1 5/2/1 3/3/1
f 2/4/2 5/2/2 4/1/2 1/5/2
f 9/6/3 8/7/3 10/8/3
f 7/9/4 6/10/4 9/6/4 10/8/4
f 15/11/5 16/12/5 14/13/5 13/14/5
f 13/15/6 14/16/6 12/17/6 11/18/6
f 12/17/7 16/12/7 15/11/7 11/18/7
f 21/19/8 26/20/8 25/21/8 20/22/8
f 19/23/9 24/24/9 23/25/9 18/26/9
f 17/27/10 22/28/10 26/20/10 21/19/10
f 20/29/11 25/30/11 24/24/11 19/23/11
f 18/26/12 23/25/12 22/28/12 17/27/12
f 26/20/13 22/28/13 27/31/13
f 25/21/14 26/20/14 27/32/14
f 23/25/15 24/24/15 27/33/15
f 24/24/16 25/30/16 27/34/16
f 22/28/17 23/25/17 27/35/17
f 21/19/18 20/22/18 28/36/18
f 19/23/19 18/26/19 28/36/19
f 17/27/20 21/19/20 28/36/20
f 20/29/21 19/23/21 28/36/21
f 18/26/22 17/27/22 28/36/22
