# Blender v2.78 (sub 0) OBJ File: 'Low_Poly_Vegetation_Pack.blend'
# www.blender.org
g Reed_b_05
v 0.022770 -0.028482 0.039106
v 0.056186 0.404190 0.052444
v 0.012659 -0.027850 0.043916
v 0.046076 0.404822 0.057254
v 0.021502 -0.028738 0.050573
v 0.054919 0.403934 0.063911
v 0.069145 0.407425 0.077466
v 0.076037 0.407765 0.049141
v 0.051311 0.410145 0.033882
v 0.029138 0.411276 0.052776
v 0.040160 0.409594 0.079712
v 0.095443 0.679526 0.081379
v 0.102334 0.679867 0.053054
v 0.077608 0.682247 0.037795
v 0.055436 0.683377 0.056688
v 0.066458 0.681696 0.083625
v 0.080543 0.695423 0.062942
v 0.051535 0.388227 0.057948
v -0.002378 -0.029131 0.001769
v -0.062427 0.531318 -0.093610
v -0.001027 -0.026897 0.015081
v -0.060600 0.533099 -0.080286
v 0.010159 -0.027402 0.007661
v -0.049803 0.533901 -0.088237
v -0.030431 0.541731 -0.100334
v -0.060250 0.535077 -0.117950
v -0.086612 0.533563 -0.094572
v -0.073086 0.539281 -0.062508
v -0.038364 0.544329 -0.066070
v -0.091573 0.886872 -0.175521
v -0.121475 0.881366 -0.193390
v -0.148159 0.881646 -0.170332
v -0.134748 0.887326 -0.138212
v -0.099775 0.890556 -0.141420
v -0.120908 0.902406 -0.166019
v -0.053819 0.513749 -0.085478
vt 0.0583 0.6572
vt 0.0583 0.7146
vt 0.0568 0.7146
vt 0.0568 0.6572
vt 0.0613 0.6572
vt 0.0613 0.7146
vt 0.0598 0.7146
vt 0.0598 0.6572
vt 0.4264 0.5313
vt 0.4241 0.5983
vt 0.4147 0.6035
vt 0.4171 0.5222
vt 0.4481 0.5318
vt 0.4474 0.5979
vt 0.4399 0.5966
vt 0.4406 0.5344
vt 0.4337 0.5341
vt 0.4324 0.5966
vt 0.4563 0.5242
vt 0.4563 0.6024
vt 0.4272 0.6058
vt 0.4223 0.6096
vt 0.4389 0.6034
vt 0.4446 0.6040
vt 0.4330 0.6039
vt 0.4376 0.5201
vt 0.0583 0.6572
vt 0.0583 0.7146
vt 0.0568 0.7146
vt 0.0568 0.6572
vt 0.0613 0.6572
vt 0.0613 0.7146
vt 0.0598 0.7146
vt 0.0598 0.6572
vt 0.3005 0.5313
vt 0.2981 0.5983
vt 0.2887 0.6035
vt 0.2911 0.5222
vt 0.3221 0.5318
vt 0.3214 0.5979
vt 0.3139 0.5966
vt 0.3147 0.5344
vt 0.3077 0.5341
vt 0.3064 0.5966
vt 0.3303 0.5242
vt 0.3303 0.6024
vt 0.3012 0.6058
vt 0.2963 0.6096
vt 0.3129 0.6034
vt 0.3186 0.6040
vt 0.3070 0.6039
vt 0.3116 0.5201
vn -0.5999 0.0217 0.7998
vn -0.4257 0.0607 -0.9028
vn 0.9910 -0.0799 0.1078
vn -0.9204 0.0835 0.3819
vn 0.5221 -0.0382 -0.8520
vn 0.0756 -0.0216 0.9969
vn -0.6447 0.0732 -0.7609
vn 0.9674 -0.0969 0.2342
vn 0.1058 0.7938 0.5989
vn -0.4683 0.8490 0.2446
vn 0.3647 0.8066 -0.4652
vn -0.3083 0.8570 -0.4130
vn 0.6206 0.7675 0.1602
vn -0.7214 -0.6438 0.2550
vn 0.3267 -0.6972 -0.6381
vn 0.0009 -0.7134 0.7008
vn -0.5201 -0.6339 -0.5725
vn 0.6487 -0.7464 0.1488
vn 0.5600 0.1970 0.8047
vn -0.9880 -0.0833 0.1304
vn 0.4216 -0.1084 -0.9003
vn 0.0679 0.2236 0.9723
vn -0.6307 -0.2699 -0.7276
vn 0.9549 0.2141 0.2057
vn -0.9146 -0.0754 0.3973
vn 0.5224 -0.0922 -0.8477
vn 0.4725 0.8811 0.0185
vn -0.0396 0.8865 0.4611
vn -0.4561 0.7101 -0.5364
vn -0.6135 0.7808 0.1181
vn 0.2151 0.7721 -0.5980
vn 0.1666 -0.5870 0.7923
vn -0.3619 -0.8104 -0.4606
vn 0.8032 -0.5505 0.2277
vn -0.5535 -0.7477 0.3668
vn 0.4766 -0.6885 -0.5466
s off
f 5/1/1 6/2/1 4/3/1 3/4/1
f 3/5/2 4/6/2 2/7/2 1/8/2
f 2/7/3 6/2/3 5/1/3 1/8/3
f 11/9/4 16/10/4 15/11/4 10/12/4
f 9/13/5 14/14/5 13/15/5 8/16/5
f 7/17/6 12/18/6 16/10/6 11/9/6
f 10/19/7 15/20/7 14/14/7 9/13/7
f 8/16/8 13/15/8 12/18/8 7/17/8
f 16/10/9 12/18/9 17/21/9
f 15/11/10 16/10/10 17/22/10
f 13/15/11 14/14/11 17/23/11
f 14/14/12 15/20/12 17/24/12
f 12/18/13 13/15/13 17/25/13
f 11/9/14 10/12/14 18/26/14
f 9/13/15 8/16/15 18/26/15
f 7/17/16 11/9/16 18/26/16
f 10/19/17 9/13/17 18/26/17
f 8/16/18 7/17/18 18/26/18
f 23/27/19 24/28/19 22/29/19 21/30/19
f 21/31/20 22/32/20 20/33/20 19/34/20
f 20/33/21 24/28/21 23/27/21 19/34/21
f 29/35/22 34/36/22 33/37/22 28/38/22
f 27/39/23 32/40/23 31/41/23 26/42/23
f 25/43/24 30/44/24 34/36/24 29/35/24
f 28/45/25 33/46/25 32/40/25 27/39/25
f 26/42/26 31/41/26 30/44/26 25/43/26
f 34/36/27 30/44/27 35/47/27
f 33/37/28 34/36/28 35/48/28
f 31/41/29 32/40/29 35/49/29
f 32/40/30 33/46/30 35/50/30
f 30/44/31 31/41/31 35/51/31
f 29/35/32 28/38/32 36/52/32
f 27/39/33 26/42/33 36/52/33
f 25/43/34 29/35/34 36/52/34
f 28/45/35 27/39/35 36/52/35
f 26/42/36 25/43/36 36/52/36
