# Blender v2.78 (sub 0) OBJ File: 'Low_Poly_Vegetation_Pack.blend'
# www.blender.org
g Reed_b_06
v 0.000882 -0.028344 0.007296
v -0.139451 0.724895 -0.095960
v 0.013693 -0.025485 0.010725
v -0.126723 0.728227 -0.092653
v 0.011100 -0.028012 -0.002211
v -0.129150 0.724680 -0.105380
v -0.131709 0.724715 -0.129388
v -0.160453 0.723903 -0.108970
v -0.150978 0.733626 -0.076420
v -0.116378 0.740447 -0.076722
v -0.104469 0.734940 -0.109457
v -0.208273 1.015554 -0.220409
v -0.237089 1.015691 -0.200078
v -0.228318 1.029504 -0.168836
v -0.194081 1.037904 -0.169860
v -0.181692 1.029282 -0.201734
v -0.213887 1.041172 -0.197952
v -0.127947 0.707178 -0.094331
v -0.053241 0.382767 -0.026307
v -0.042978 0.382800 -0.035766
v -0.040475 0.385884 -0.022944
v -0.002875 -0.026077 0.073656
v -0.117199 0.349591 0.130377
v -0.007584 -0.026197 0.060934
v -0.121861 0.350060 0.117646
v -0.015970 -0.029937 0.070739
v -0.130228 0.345705 0.127210
v -0.148647 0.343461 0.142657
v -0.116780 0.352236 0.154957
v -0.097228 0.363194 0.127729
v -0.117010 0.361192 0.098601
v -0.148789 0.348996 0.107828
v -0.231229 0.541504 0.177077
v -0.199493 0.551228 0.188995
v -0.180815 0.563327 0.161636
v -0.201007 0.561080 0.132809
v -0.232165 0.547593 0.142352
v -0.214870 0.568709 0.163498
v -0.117632 0.329919 0.122523
v 0.039833 -0.014293 0.067971
v 0.103657 0.491569 0.192414
v 0.035154 -0.010651 0.055769
v 0.099103 0.495335 0.180202
v 0.026266 -0.011843 0.065771
v 0.090192 0.494533 0.190223
v 0.073752 0.499740 0.207120
v 0.106581 0.491428 0.216965
v 0.127515 0.494441 0.188742
v 0.107623 0.504615 0.161456
v 0.074396 0.507890 0.172814
v 0.107011 0.752929 0.262097
v 0.140039 0.744361 0.271012
v 0.160007 0.746294 0.242007
v 0.139319 0.756056 0.215165
v 0.106566 0.760157 0.227581
v 0.133930 0.768375 0.246967
v 0.093554 0.475199 0.183534
vt 0.0583 0.6885
vt 0.0583 0.7146
vt 0.0568 0.7146
vt 0.0568 0.6885
vt 0.0613 0.6885
vt 0.0613 0.7146
vt 0.0598 0.7146
vt 0.0598 0.6885
vt 0.0583 0.6572
vt 0.0598 0.6572
vt 0.0524 0.5313
vt 0.0500 0.5983
vt 0.0407 0.6035
vt 0.0430 0.5222
vt 0.0740 0.5318
vt 0.0733 0.5979
vt 0.0658 0.5966
vt 0.0666 0.5344
vt 0.0596 0.5341
vt 0.0584 0.5966
vt 0.0822 0.5242
vt 0.0822 0.6024
vt 0.0531 0.6058
vt 0.0483 0.6096
vt 0.0648 0.6034
vt 0.0706 0.6040
vt 0.0589 0.6039
vt 0.0635 0.5201
vt 0.0613 0.6572
vt 0.0568 0.6572
vt 0.0583 0.6572
vt 0.0583 0.7146
vt 0.0568 0.7146
vt 0.0568 0.6572
vt 0.0613 0.6572
vt 0.0613 0.7146
vt 0.0598 0.7146
vt 0.0598 0.6572
vt 0.3034 0.5313
vt 0.3010 0.5983
vt 0.2917 0.6035
vt 0.2940 0.5222
vt 0.3250 0.5318
vt 0.3243 0.5979
vt 0.3168 0.5966
vt 0.3176 0.5344
vt 0.3106 0.5341
vt 0.3094 0.5966
vt 0.3332 0.5242
vt 0.3332 0.6024
vt 0.3041 0.6058
vt 0.2993 0.6096
vt 0.3158 0.6034
vt 0.3216 0.6040
vt 0.3099 0.6039
vt 0.3145 0.5201
vt 0.0583 0.6572
vt 0.0583 0.7146
vt 0.0568 0.7146
vt 0.0568 0.6572
vt 0.0613 0.6572
vt 0.0613 0.7146
vt 0.0598 0.7146
vt 0.0598 0.6572
vt 0.4338 0.5313
vt 0.4315 0.5983
vt 0.4221 0.6035
vt 0.4244 0.5222
vt 0.4555 0.5318
vt 0.4547 0.5979
vt 0.4472 0.5966
vt 0.4480 0.5344
vt 0.4411 0.5341
vt 0.4398 0.5966
vt 0.4636 0.5242
vt 0.4636 0.6024
vt 0.4345 0.6058
vt 0.4297 0.6096
vt 0.4462 0.6034
vt 0.4520 0.6040
vt 0.4403 0.6039
vt 0.4449 0.5201
vn 0.9530 0.1925 -0.2339
vn -0.2802 0.1232 0.9520
vn -0.6706 -0.1477 -0.7270
vn 0.9071 0.3223 0.2707
vn -0.9359 -0.1449 0.3212
vn 0.6062 -0.0883 -0.7904
vn -0.0451 0.2874 0.9567
vn -0.5322 -0.3769 -0.7581
vn 0.1625 0.6703 -0.7241
vn 0.3309 0.9354 -0.1244
vn -0.7324 0.6746 -0.0927
vn -0.2222 0.9381 0.2658
vn -0.4946 0.5091 -0.7044
vn 0.7989 -0.4738 0.3704
vn -0.5530 -0.7404 0.3821
vn 0.5701 -0.7086 -0.4157
vn 0.1048 -0.4935 0.8634
vn -0.2654 -0.8734 -0.4084
vn -0.6455 -0.3052 -0.7001
vn -0.2659 0.0438 0.9630
vn 0.9702 0.1101 -0.2159
vn -0.7259 -0.1187 -0.6775
vn 0.8906 0.3196 -0.3235
vn -0.1668 -0.1963 0.9662
vn -0.3000 0.0384 -0.9532
vn 0.7569 0.2100 0.6188
vn -0.9244 -0.3783 -0.0489
vn 0.7398 0.4018 -0.5397
vn -0.2722 -0.2724 0.9229
vn -0.8234 0.5547 0.1195
vn -0.4649 0.7870 -0.4056
vn 0.1622 0.8567 0.4896
vn 0.1442 0.9736 -0.1769
vn -0.4358 0.5979 0.6727
vn 0.0026 -0.6076 -0.7942
vn 0.7756 -0.5294 0.3439
vn -0.4696 -0.8722 -0.1367
vn 0.7721 -0.3957 -0.4972
vn 0.0082 -0.8239 0.5667
vn -0.7362 0.2478 -0.6298
vn 0.9320 -0.0288 -0.3612
vn -0.1977 -0.2105 0.9574
vn -0.3057 0.2373 -0.9221
vn 0.8022 -0.2226 0.5541
vn -0.9921 0.1231 0.0246
vn 0.8041 0.0237 -0.5941
vn -0.3084 -0.1613 0.9375
vn -0.4048 0.8939 0.1924
vn -0.0215 0.9310 -0.3643
vn 0.6209 0.6279 0.4693
vn 0.6124 0.7666 -0.1932
vn -0.0077 0.7066 0.7076
vn -0.3273 -0.4621 -0.8242
vn 0.4500 -0.8596 0.2420
vn -0.8328 -0.5349 -0.1427
vn 0.4655 -0.6628 -0.5865
vn -0.3524 -0.7805 0.5163
s off
f 20/1/1 6/2/1 4/3/1 21/4/1
f 21/5/2 4/6/2 2/7/2 19/8/2
f 19/8/3 20/1/3 5/9/3 1/10/3
f 11/11/4 16/12/4 15/13/4 10/14/4
f 9/15/5 14/16/5 13/17/5 8/18/5
f 7/19/6 12/20/6 16/12/6 11/11/6
f 10/21/7 15/22/7 14/16/7 9/15/7
f 8/18/8 13/17/8 12/20/8 7/19/8
f 16/12/9 12/20/9 17/23/9
f 15/13/10 16/12/10 17/24/10
f 13/17/11 14/16/11 17/25/11
f 14/16/12 15/22/12 17/26/12
f 12/20/13 13/17/13 17/27/13
f 11/11/14 10/14/14 18/28/14
f 9/15/15 8/18/15 18/28/15
f 7/19/16 11/11/16 18/28/16
f 10/21/17 9/15/17 18/28/17
f 8/18/18 7/19/18 18/28/18
f 2/7/19 6/2/19 20/1/19 19/8/19
f 3/29/20 21/5/20 19/8/20 1/10/20
f 5/9/21 20/1/21 21/4/21 3/30/21
f 26/31/22 27/32/22 25/33/22 24/34/22
f 24/35/23 25/36/23 23/37/23 22/38/23
f 23/37/24 27/32/24 26/31/24 22/38/24
f 32/39/25 37/40/25 36/41/25 31/42/25
f 30/43/26 35/44/26 34/45/26 29/46/26
f 28/47/27 33/48/27 37/40/27 32/39/27
f 31/49/28 36/50/28 35/44/28 30/43/28
f 29/46/29 34/45/29 33/48/29 28/47/29
f 37/40/30 33/48/30 38/51/30
f 36/41/31 37/40/31 38/52/31
f 34/45/32 35/44/32 38/53/32
f 35/44/33 36/50/33 38/54/33
f 33/48/34 34/45/34 38/55/34
f 32/39/35 31/42/35 39/56/35
f 30/43/36 29/46/36 39/56/36
f 28/47/37 32/39/37 39/56/37
f 31/49/38 30/43/38 39/56/38
f 29/46/39 28/47/39 39/56/39
f 44/57/40 45/58/40 43/59/40 42/60/40
f 42/61/41 43/62/41 41/63/41 40/64/41
f 41/63/42 45/58/42 44/57/42 40/64/42
f 50/65/43 55/66/43 54/67/43 49/68/43
f 48/69/44 53/70/44 52/71/44 47/72/44
f 46/73/45 51/74/45 55/66/45 50/65/45
f 49/75/46 54/76/46 53/70/46 48/69/46
f 47/72/47 52/71/47 51/74/47 46/73/47
f 55/66/48 51/74/48 56/77/48
f 54/67/49 55/66/49 56/78/49
f 52/71/50 53/70/50 56/79/50
f 53/70/51 54/76/51 56/80/51
f 51/74/52 52/71/52 56/81/52
f 50/65/53 49/68/53 57/82/53
f 48/69/54 47/72/54 57/82/54
f 46/73/55 50/65/55 57/82/55
f 49/75/56 48/69/56 57/82/56
f 47/72/57 46/73/57 57/82/57
