# Blender v2.78 (sub 0) OBJ File: 'Low_Poly_Vegetation_Pack.blend'
# www.blender.org
g Reed_b_02
v -0.002013 -0.024081 -0.001396
v 0.055017 0.403729 -0.048576
v -0.012088 -0.022234 0.003169
v 0.044942 0.405576 -0.044011
v -0.003326 -0.022651 0.009979
v 0.053703 0.405159 -0.037201
v 0.068059 0.409752 -0.024120
v 0.075043 0.405731 -0.052137
v 0.050530 0.407267 -0.067841
v 0.028396 0.412237 -0.049530
v 0.039230 0.413773 -0.022509
v 0.109212 0.677882 -0.058165
v 0.116196 0.673861 -0.086182
v 0.091683 0.675397 -0.101887
v 0.069549 0.680367 -0.083576
v 0.080383 0.681903 -0.056554
v 0.102412 0.691804 -0.070164
v 0.049482 0.388974 -0.040936
v 0.105571 0.689985 -0.082839
v 0.094482 0.690680 -0.089943
v 0.084469 0.692928 -0.081659
v 0.089370 0.693623 -0.069435
v 0.127577 0.877064 -0.102046
v 0.127201 0.876709 -0.105724
v 0.124459 0.877329 -0.103417
v -0.002378 -0.029131 0.001769
v -0.043719 0.494957 -0.084060
v -0.001027 -0.026897 0.015081
v -0.042570 0.497098 -0.070713
v 0.010159 -0.027402 0.007661
v -0.031255 0.495688 -0.077815
v -0.010028 0.499565 -0.088645
v -0.039214 0.497038 -0.108282
v -0.067047 0.501123 -0.087012
v -0.055063 0.506175 -0.054230
v -0.019823 0.505212 -0.055240
v -0.008506 0.823456 -0.148966
v -0.037456 0.822259 -0.169072
v -0.065412 0.827633 -0.148256
v -0.053741 0.832151 -0.115284
v -0.018571 0.829570 -0.115723
v -0.022765 0.842234 -0.146492
v -0.038805 0.476650 -0.074594
v -0.035861 0.841693 -0.155588
v -0.048508 0.844124 -0.146171
v -0.043228 0.846168 -0.131255
v -0.027318 0.845000 -0.131453
v -0.019395 1.067795 -0.188362
v -0.023729 1.067913 -0.189542
v -0.022240 1.068473 -0.185440
vt 0.0583 0.6572
vt 0.0583 0.7146
vt 0.0568 0.7146
vt 0.0568 0.6572
vt 0.0613 0.6572
vt 0.0613 0.7146
vt 0.0598 0.7146
vt 0.0598 0.6572
vt 0.4264 0.5313
vt 0.4241 0.5983
vt 0.4147 0.6035
vt 0.4171 0.5222
vt 0.4481 0.5318
vt 0.4474 0.5979
vt 0.4399 0.5966
vt 0.4406 0.5344
vt 0.4337 0.5341
vt 0.4324 0.5966
vt 0.4563 0.5242
vt 0.4563 0.6024
vt 0.4330 0.6039
vt 0.4272 0.6058
vt 0.4223 0.6096
vt 0.4446 0.6040
vt 0.4389 0.6034
vt 0.4493 0.6070
vt 0.4376 0.5201
vt 0.9244 0.2723
vt 0.9300 0.2715
vt 0.9382 0.3524
vt 0.9356 0.2712
vt 0.9413 0.2713
vt 0.9413 0.3523
vt 0.9397 0.3523
vt 0.9469 0.2714
vt 0.9525 0.2717
vt 0.9428 0.3524
vt 0.9263 0.3419
vt 0.9217 0.3444
vt 0.9217 0.3387
vt 0.0583 0.6572
vt 0.0583 0.7146
vt 0.0568 0.7146
vt 0.0568 0.6572
vt 0.0613 0.6572
vt 0.0613 0.7146
vt 0.0598 0.7146
vt 0.0598 0.6572
vt 0.3005 0.5313
vt 0.2981 0.5983
vt 0.2887 0.6035
vt 0.2911 0.5222
vt 0.3221 0.5318
vt 0.3214 0.5979
vt 0.3139 0.5966
vt 0.3147 0.5344
vt 0.3077 0.5341
vt 0.3064 0.5966
vt 0.3303 0.5242
vt 0.3303 0.6024
vt 0.3070 0.6039
vt 0.3012 0.6058
vt 0.2963 0.6096
vt 0.3186 0.6040
vt 0.3129 0.6034
vt 0.3233 0.6070
vt 0.3116 0.5201
vt 0.9244 0.2723
vt 0.9300 0.2715
vt 0.9382 0.3524
vt 0.9356 0.2712
vt 0.9413 0.2713
vt 0.9413 0.3523
vt 0.9397 0.3523
vt 0.9469 0.2714
vt 0.9525 0.2717
vt 0.9428 0.3524
vt 0.9263 0.3419
vt 0.9217 0.3444
vt 0.9217 0.3387
vn -0.6002 0.1663 0.7824
vn -0.4191 -0.0441 -0.9069
vn 0.9848 -0.1171 0.1284
vn -0.9156 0.1858 0.3565
vn 0.5218 -0.1858 -0.8326
vn 0.0714 0.1149 0.9908
vn -0.6374 0.0000 -0.7705
vn 0.9599 -0.1149 0.2558
vn 0.1354 0.6840 0.7168
vn -0.6449 0.7328 0.2169
vn 0.4952 0.4769 -0.7262
vn -0.4226 0.6049 -0.6750
vn 0.8400 0.5258 0.1339
vn -0.7564 -0.5618 0.3352
vn 0.2899 -0.7967 -0.5304
vn -0.0402 -0.6066 0.7940
vn -0.5523 -0.6792 -0.4833
vn 0.6064 -0.7518 0.2590
vn -0.9061 0.2378 0.3498
vn 0.9790 -0.0967 0.1795
vn -0.6320 0.0457 -0.7736
vn -0.0161 0.1783 0.9839
vn 0.5249 -0.1632 -0.8353
vn 0.1314 0.9854 -0.1087
vn 0.5443 0.1772 0.8200
vn -0.9928 -0.0616 0.1032
vn 0.4428 -0.1106 -0.8898
vn 0.0295 0.1835 0.9826
vn -0.6114 -0.1426 -0.7784
vn 0.9595 0.0476 0.2775
vn -0.9419 0.0660 0.3293
vn 0.5643 -0.1542 -0.8110
vn 0.7977 0.5881 0.1334
vn 0.0620 0.7295 0.6811
vn -0.4349 0.5372 -0.7227
vn -0.6997 0.6980 0.1520
vn 0.4906 0.4692 -0.7343
vn 0.0082 -0.5647 0.8253
vn -0.4600 -0.7621 -0.4556
vn 0.6804 -0.6633 0.3116
vn -0.6966 -0.6257 0.3511
vn 0.3910 -0.7853 -0.4800
vn 0.0293 0.2341 0.9718
vn 0.5042 -0.1597 -0.8487
vn -0.9362 0.1640 0.3108
vn 0.9270 0.0616 0.3700
vn -0.6056 -0.0863 -0.7911
vn 0.0703 0.9846 -0.1598
s off
f 5/1/1 6/2/1 4/3/1 3/4/1
f 3/5/2 4/6/2 2/7/2 1/8/2
f 2/7/3 6/2/3 5/1/3 1/8/3
f 11/9/4 16/10/4 15/11/4 10/12/4
f 9/13/5 14/14/5 13/15/5 8/16/5
f 7/17/6 12/18/6 16/10/6 11/9/6
f 10/19/7 15/20/7 14/14/7 9/13/7
f 8/16/8 13/15/8 12/18/8 7/17/8
f 16/10/9 12/18/9 17/21/9 22/22/9
f 15/11/10 16/10/10 22/22/10 21/23/10
f 13/15/11 14/14/11 20/24/11 19/25/11
f 14/14/12 15/20/12 21/26/12 20/24/12
f 12/18/13 13/15/13 19/25/13 17/21/13
f 11/9/14 10/12/14 18/27/14
f 9/13/15 8/16/15 18/27/15
f 7/17/16 11/9/16 18/27/16
f 10/19/17 9/13/17 18/27/17
f 8/16/18 7/17/18 18/27/18
f 21/28/19 22/29/19 25/30/19
f 17/31/20 19/32/20 24/33/20 23/34/20
f 20/35/21 21/36/21 25/37/21 24/33/21
f 22/29/22 17/31/22 23/34/22 25/30/22
f 19/32/23 20/35/23 24/33/23
f 25/38/24 23/39/24 24/40/24
f 30/41/25 31/42/25 29/43/25 28/44/25
f 28/45/26 29/46/26 27/47/26 26/48/26
f 27/47/27 31/42/27 30/41/27 26/48/27
f 36/49/28 41/50/28 40/51/28 35/52/28
f 34/53/29 39/54/29 38/55/29 33/56/29
f 32/57/30 37/58/30 41/50/30 36/49/30
f 35/59/31 40/60/31 39/54/31 34/53/31
f 33/56/32 38/55/32 37/58/32 32/57/32
f 41/50/33 37/58/33 42/61/33 47/62/33
f 40/51/34 41/50/34 47/62/34 46/63/34
f 38/55/35 39/54/35 45/64/35 44/65/35
f 39/54/36 40/60/36 46/66/36 45/64/36
f 37/58/37 38/55/37 44/65/37 42/61/37
f 36/49/38 35/52/38 43/67/38
f 34/53/39 33/56/39 43/67/39
f 32/57/40 36/49/40 43/67/40
f 35/59/41 34/53/41 43/67/41
f 33/56/42 32/57/42 43/67/42
f 46/68/43 47/69/43 50/70/43
f 42/71/44 44/72/44 49/73/44 48/74/44
f 45/75/45 46/76/45 50/77/45 49/73/45
f 47/69/46 42/71/46 48/74/46 50/70/46
f 44/72/47 45/75/47 49/73/47
f 50/78/48 48/79/48 49/80/48
