# Blender v2.78 (sub 0) OBJ File: 'Low_Poly_Vegetation_Pack.blend'
# www.blender.org
g Plant_f_OneS_02
v 0.000000 0.000000 -0.007000
v 0.024082 0.252529 -0.015450
v 0.006062 0.000000 0.003500
v 0.028220 0.253767 -0.008471
v -0.006062 0.000000 0.003500
v 0.018222 0.246628 -0.007475
v 0.003634 0.130912 -0.006136
v 0.008699 0.131461 0.002636
v -0.001430 0.126831 0.002636
v 0.055281 0.317323 -0.108941
v 0.121357 0.317537 0.005396
v 0.144703 0.388446 -0.104907
v 0.162603 0.388090 -0.072405
v 0.179147 0.432354 -0.112798
v -0.001776 0.265251 -0.067300
v 0.056875 0.265442 0.034189
v 0.094375 0.309391 -0.055257
v 0.142299 0.367245 -0.083061
v 0.014067 0.244774 -0.008725
v -0.024878 0.171022 0.084335
v -0.081875 0.179948 -0.000044
v -0.102218 0.215683 0.095148
v -0.116726 0.217955 0.073671
v -0.137022 0.240320 0.099706
v 0.017222 0.133581 0.044979
v -0.033369 0.141503 -0.029918
v -0.056995 0.168271 0.043827
v -0.098010 0.202623 0.075166
v -0.000141 0.120653 0.000385
vt 0.1536 0.6845
vt 0.1536 0.7232
vt 0.1491 0.7232
vt 0.1491 0.6845
vt 0.1447 0.7232
vt 0.1447 0.6845
vt 0.1581 0.6845
vt 0.1581 0.7232
vt 0.1581 0.6458
vt 0.1536 0.6458
vt 0.1491 0.6458
vt 0.1447 0.6458
vt 0.1920 0.6710
vt 0.1939 0.6517
vt 0.2229 0.6685
vt 0.2150 0.6729
vt 0.2373 0.6729
vt 0.1907 0.6903
vt 0.1653 0.6862
vt 0.1599 0.6684
vt 0.1681 0.6517
vt 0.2221 0.6784
vt 0.0570 0.6710
vt 0.0589 0.6517
vt 0.0880 0.6685
vt 0.0800 0.6729
vt 0.1023 0.6729
vt 0.0558 0.6903
vt 0.0303 0.6862
vt 0.0249 0.6684
vt 0.0331 0.6517
vt 0.0872 0.6784
vn 0.8580 -0.1808 -0.4807
vn -0.0020 0.0876 0.9962
vn -0.8600 0.1026 -0.4998
vn -0.8682 0.0278 -0.4954
vn -0.0014 0.0067 1.0000
vn 0.8661 -0.0207 -0.4995
vn -0.7171 0.6663 0.2046
vn -0.7553 0.5729 0.3184
vn -0.4223 0.8078 0.4111
vn -0.5684 0.8074 0.1584
vn -0.5364 0.6666 0.5177
vn -0.6350 0.5881 0.5009
vn 0.6030 0.7903 -0.1089
vn 0.6333 0.7578 -0.1572
vn 0.3959 0.8342 -0.3839
vn 0.5843 0.8047 -0.1049
vn 0.4052 0.8213 -0.4016
vn 0.4939 0.7718 -0.4004
s off
f 7/1/1 2/2/1 4/3/1 8/4/1
f 8/4/2 4/3/2 6/5/2 9/6/2
f 9/7/3 6/8/3 2/2/3 7/1/3
f 5/9/4 9/7/4 7/1/4 1/10/4
f 3/11/5 8/4/5 9/6/5 5/12/5
f 1/10/6 7/1/6 8/4/6 3/11/6
f 17/13/7 11/14/7 13/15/7 18/16/7
f 18/16/8 13/15/8 14/17/8
f 17/13/9 10/18/9 15/19/9 19/20/9
f 11/14/10 17/13/10 19/20/10 16/21/10
f 10/18/11 17/13/11 18/16/11 12/22/11
f 12/22/12 18/16/12 14/17/12
f 27/23/13 21/24/13 23/25/13 28/26/13
f 28/26/14 23/25/14 24/27/14
f 27/23/15 20/28/15 25/29/15 29/30/15
f 21/24/16 27/23/16 29/30/16 26/31/16
f 20/28/17 27/23/17 28/26/17 22/32/17
f 22/32/18 28/26/18 24/27/18
