# Blender v2.78 (sub 0) OBJ File: 'Low_Poly_Vegetation_Pack.blend'
# www.blender.org
g Plant_j_OneS_10
v -0.027667 0.081415 -0.001471
v -0.112640 0.157781 -0.006307
v -0.097928 0.157781 -0.049504
v -0.134401 0.169475 -0.037822
v -0.068312 0.119431 0.016076
v -0.049154 0.119431 -0.040178
v -0.062143 0.116367 -0.013213
v -0.109654 0.153428 -0.029394
v -0.028413 0.082475 -0.002665
v -0.027703 0.081335 -0.001492
v -0.028714 0.082349 -0.001007
v -0.002701 -0.000035 -0.001035
v 0.001575 -0.000035 -0.002044
v 0.000146 -0.000035 0.002311
v 0.028226 0.143540 -0.039866
v 0.115389 0.278179 -0.162011
v 0.165953 0.278179 -0.099430
v 0.182853 0.298795 -0.164803
v 0.040308 0.210564 -0.116979
v 0.106155 0.210564 -0.035482
v 0.078172 0.205162 -0.080222
v 0.147002 0.270503 -0.135835
v 0.030708 0.145409 -0.039855
v 0.028291 0.143399 -0.039901
v 0.028519 0.145186 -0.041865
v 0.004084 -0.000062 -0.003053
v 0.001566 -0.000062 0.004271
v -0.003582 -0.000062 -0.001956
v 0.036985 0.109019 0.002911
v 0.150567 0.211278 0.012278
v 0.129403 0.211278 0.069602
v 0.178624 0.226936 0.055206
v 0.091991 0.159924 -0.019193
v 0.064430 0.159924 0.055458
v 0.082736 0.155821 0.019803
v 0.145784 0.205448 0.043081
v 0.037943 0.110438 0.004535
v 0.037033 0.108912 0.002941
v 0.038403 0.110269 0.002325
v 0.003580 -0.000047 0.001478
v -0.002178 -0.000047 0.002683
v -0.000117 -0.000047 -0.003098
v 0.005930 0.116307 0.039133
v 0.023697 0.225402 0.159414
v -0.040987 0.225402 0.151303
v -0.014112 0.242107 0.198959
v 0.042214 0.170615 0.090934
v -0.042022 0.170615 0.080371
v -0.000544 0.166238 0.090758
v -0.009465 0.219182 0.161902
v 0.004474 0.117821 0.040521
v 0.005911 0.116193 0.039190
v 0.006882 0.117641 0.040465
v -0.000668 -0.000051 0.004077
v -0.003314 -0.000051 -0.001613
v 0.003191 -0.000051 -0.000871
v -0.005144 0.111335 -0.037537
v -0.020516 0.215765 -0.152905
v 0.041287 0.215765 -0.144263
v 0.016211 0.231756 -0.190242
v -0.039170 0.163321 -0.087611
v 0.041313 0.163321 -0.076356
v 0.001754 0.159131 -0.086862
v 0.011260 0.209812 -0.154836
v -0.003732 0.112784 -0.038846
v -0.005125 0.111225 -0.037591
v -0.006037 0.112612 -0.038824
v 0.000695 -0.000048 -0.003893
v 0.003150 -0.000048 0.001589
v -0.003066 -0.000048 0.000791
vt 0.3325 0.7100
vt 0.3464 0.7098
vt 0.3325 0.7282
vt 0.3187 0.7098
vt 0.3325 0.6417
vt 0.3506 0.6721
vt 0.3325 0.6724
vt 0.3145 0.6721
vt 0.3005 0.6398
vt 0.3005 0.7310
vt 0.2900 0.7310
vt 0.2900 0.6398
vt 0.2795 0.7310
vt 0.2795 0.6398
vt 0.3110 0.6398
vt 0.3110 0.7310
vt 0.3325 0.7100
vt 0.3464 0.7098
vt 0.3325 0.7282
vt 0.3187 0.7098
vt 0.3325 0.6417
vt 0.3506 0.6721
vt 0.3325 0.6724
vt 0.3145 0.6721
vt 0.3005 0.6398
vt 0.3005 0.7310
vt 0.2900 0.7310
vt 0.2900 0.6398
vt 0.2795 0.7310
vt 0.2795 0.6398
vt 0.3110 0.6398
vt 0.3110 0.7310
vt 0.4537 0.7100
vt 0.4675 0.7098
vt 0.4537 0.7282
vt 0.4398 0.7098
vt 0.4537 0.6417
vt 0.4717 0.6721
vt 0.4537 0.6724
vt 0.4356 0.6721
vt 0.4216 0.6398
vt 0.4216 0.7310
vt 0.4111 0.7310
vt 0.4111 0.6398
vt 0.4006 0.7310
vt 0.4006 0.6398
vt 0.4322 0.6398
vt 0.4322 0.7310
vt 0.3325 0.7100
vt 0.3464 0.7098
vt 0.3325 0.7282
vt 0.3187 0.7098
vt 0.3325 0.6417
vt 0.3506 0.6721
vt 0.3325 0.6724
vt 0.3145 0.6721
vt 0.3005 0.6398
vt 0.3005 0.7310
vt 0.2900 0.7310
vt 0.2900 0.6398
vt 0.2795 0.7310
vt 0.2795 0.6398
vt 0.3110 0.6398
vt 0.3110 0.7310
vt 0.4537 0.7100
vt 0.4675 0.7098
vt 0.4537 0.7282
vt 0.4398 0.7098
vt 0.4537 0.6417
vt 0.4717 0.6721
vt 0.4537 0.6724
vt 0.4356 0.6721
vt 0.4216 0.6398
vt 0.4216 0.7310
vt 0.4111 0.7310
vt 0.4111 0.6398
vt 0.4006 0.7310
vt 0.4006 0.6398
vt 0.4322 0.6398
vt 0.4322 0.7310
vn 0.3947 0.8231 0.4083
vn 0.5619 0.8231 -0.0826
vn 0.5969 0.7126 0.3685
vn 0.5033 0.7731 0.3860
vn 0.6343 0.7731 0.0014
vn 0.6978 0.7126 0.0724
vn 0.0340 0.0048 -0.9994
vn 0.8722 0.3159 0.3735
vn -0.8605 -0.2719 0.4308
vn -0.5559 0.8231 0.1159
vn -0.2300 0.8231 0.5192
vn -0.6302 0.7126 0.3082
vn -0.5950 0.7731 0.2196
vn -0.3397 0.7731 0.5356
vn -0.4337 0.7126 0.5515
vn 0.8270 0.0048 0.5621
vn -0.7813 0.3159 0.5382
vn 0.0950 -0.2719 -0.9576
vn -0.3842 0.8231 -0.4182
vn -0.5638 0.8231 0.0682
vn -0.5874 0.7126 -0.3836
vn -0.4933 0.7731 -0.3987
vn -0.6340 0.7731 -0.0175
vn -0.6957 0.7126 -0.0902
vn -0.0594 0.0048 0.9982
vn -0.8624 0.3159 -0.3956
vn 0.8712 -0.2719 -0.4088
vn 0.3201 0.8231 -0.4691
vn -0.1944 0.8231 -0.5336
vn 0.2403 0.7126 -0.6591
vn 0.2764 0.7731 -0.5709
vn -0.1268 0.7731 -0.6214
vn -0.0701 0.7126 -0.6980
vn -0.9857 0.0048 0.1687
vn 0.1896 0.3159 -0.9296
vn 0.5958 -0.2719 0.7557
vn -0.3268 0.8231 0.4645
vn 0.1868 0.8231 0.5363
vn -0.2496 0.7126 0.6556
vn -0.2844 0.7731 0.5669
vn 0.1180 0.7731 0.6232
vn 0.0602 0.7126 0.6990
vn 0.9880 0.0048 -0.1547
vn -0.2027 0.3159 0.9269
vn -0.5850 -0.2719 -0.7641
s off
f 8/1/1 3/2/1 4/3/1
f 2/4/2 8/1/2 4/3/2
f 1/5/3 6/6/3 7/7/3
f 7/7/4 6/6/4 3/2/4 8/1/4
f 5/8/5 7/7/5 8/1/5 2/4/5
f 5/8/6 1/5/6 7/7/6
f 12/9/7 9/10/7 10/11/7 13/12/7
f 13/12/8 10/11/8 11/13/8 14/14/8
f 14/15/9 11/16/9 9/10/9 12/9/9
f 22/17/10 17/18/10 18/19/10
f 16/20/11 22/17/11 18/19/11
f 15/21/12 20/22/12 21/23/12
f 21/23/13 20/22/13 17/18/13 22/17/13
f 19/24/14 21/23/14 22/17/14 16/20/14
f 19/24/15 15/21/15 21/23/15
f 26/25/16 23/26/16 24/27/16 27/28/16
f 27/28/17 24/27/17 25/29/17 28/30/17
f 28/31/18 25/32/18 23/26/18 26/25/18
f 36/33/19 31/34/19 32/35/19
f 30/36/20 36/33/20 32/35/20
f 29/37/21 34/38/21 35/39/21
f 35/39/22 34/38/22 31/34/22 36/33/22
f 33/40/23 35/39/23 36/33/23 30/36/23
f 33/40/24 29/37/24 35/39/24
f 40/41/25 37/42/25 38/43/25 41/44/25
f 41/44/26 38/43/26 39/45/26 42/46/26
f 42/47/27 39/48/27 37/42/27 40/41/27
f 50/49/28 45/50/28 46/51/28
f 44/52/29 50/49/29 46/51/29
f 43/53/30 48/54/30 49/55/30
f 49/55/31 48/54/31 45/50/31 50/49/31
f 47/56/32 49/55/32 50/49/32 44/52/32
f 47/56/33 43/53/33 49/55/33
f 54/57/34 51/58/34 52/59/34 55/60/34
f 55/60/35 52/59/35 53/61/35 56/62/35
f 56/63/36 53/64/36 51/58/36 54/57/36
f 64/65/37 59/66/37 60/67/37
f 58/68/38 64/65/38 60/67/38
f 57/69/39 62/70/39 63/71/39
f 63/71/40 62/70/40 59/66/40 64/65/40
f 61/72/41 63/71/41 64/65/41 58/68/41
f 61/72/42 57/69/42 63/71/42
f 68/73/43 65/74/43 66/75/43 69/76/43
f 69/76/44 66/75/44 67/77/44 70/78/44
f 70/79/45 67/80/45 65/74/45 68/73/45
