# Blender v2.78 (sub 0) OBJ File: 'Low_Poly_Vegetation_Pack.blend'
# www.blender.org
g Plant_c_OneS_03
v -0.000258 0.000000 0.013475
v 0.003384 0.139802 0.069210
v 0.003712 0.000000 0.019400
v 0.006292 0.136762 0.072449
v -0.003404 0.000000 0.019875
v 0.000996 0.136742 0.072833
v 0.011178 0.042670 0.167209
v -0.054175 0.181224 0.045009
v 0.055900 0.181636 0.037025
v 0.001859 0.158673 0.049160
v -0.059567 0.131078 0.097483
v -0.047315 0.093665 0.130639
v 0.062759 0.094078 0.122656
v 0.070320 0.131564 0.088062
v 0.007524 0.090671 0.123745
v 0.004691 0.124672 0.086452
v 0.005225 0.000000 -0.009753
v -0.043649 0.426139 0.081469
v 0.005875 0.000000 0.010708
v -0.042195 0.419067 0.094893
v -0.012170 0.000000 0.001041
v -0.055631 0.419067 0.087695
v -0.011989 0.216673 0.022377
v -0.011159 0.213652 0.036967
v -0.024595 0.213652 0.029769
v -0.195370 0.195813 0.366608
v -0.127661 0.519258 -0.097135
v 0.151586 0.519258 0.052476
v -0.012665 0.470425 0.023637
v -0.238015 0.401566 0.048469
v -0.270276 0.322308 0.169056
v 0.008971 0.322308 0.318666
v 0.091495 0.401566 0.225008
v -0.127449 0.311908 0.237882
v -0.070057 0.391167 0.130760
v -0.008466 0.000000 0.000580
v 0.083526 0.346248 -0.010441
v 0.004563 0.000000 -0.008182
v 0.090573 0.339021 -0.016336
v 0.005637 0.000000 0.007482
v 0.090531 0.338899 -0.004647
v 0.014985 0.177309 -0.004437
v 0.024125 0.174993 -0.010923
v 0.024925 0.174993 0.000740
v 0.267164 0.103293 -0.009810
v 0.012192 0.435708 0.111724
v 0.013061 0.438228 -0.131232
v 0.042649 0.391133 -0.010122
v 0.125293 0.315095 0.132745
v 0.174707 0.227804 0.112111
v 0.175576 0.230324 -0.130845
v 0.126318 0.318068 -0.153941
v 0.195087 0.228987 -0.011259
v 0.129331 0.316428 -0.010225
vt 0.5212 0.8319
vt 0.5500 0.8326
vt 0.5497 0.8336
vt 0.5216 0.8332
vt 0.5497 0.8346
vt 0.5216 0.8346
vt 0.6902 0.8091
vt 0.6902 0.7800
vt 0.7237 0.7844
vt 0.7128 0.8091
vt 0.6902 0.8383
vt 0.7237 0.8338
vt 0.6375 0.8091
vt 0.6676 0.8091
vt 0.6676 0.8338
vt 0.6676 0.7844
vt 0.5217 0.8306
vt 0.5497 0.8316
vt 0.5629 0.8520
vt 0.6047 0.8528
vt 0.6040 0.8557
vt 0.5629 0.8548
vt 0.5631 0.8462
vt 0.6041 0.8470
vt 0.6041 0.8498
vt 0.5630 0.8491
vt 0.5218 0.8477
vt 0.5212 0.8517
vt 0.5220 0.8438
vt 0.5217 0.8557
vt 0.5725 0.7999
vt 0.5725 0.7707
vt 0.6060 0.7751
vt 0.5951 0.7999
vt 0.5725 0.8290
vt 0.6060 0.8246
vt 0.5199 0.7999
vt 0.5500 0.7999
vt 0.5499 0.8246
vt 0.5499 0.7752
vt 0.5549 0.8409
vt 0.5894 0.8415
vt 0.5886 0.8438
vt 0.5550 0.8430
vt 0.5551 0.8365
vt 0.5887 0.8371
vt 0.5886 0.8393
vt 0.5550 0.8387
vt 0.5216 0.8374
vt 0.5212 0.8406
vt 0.5217 0.8346
vt 0.5216 0.8438
vt 0.6902 0.8091
vt 0.6902 0.7800
vt 0.7237 0.7844
vt 0.7128 0.8091
vt 0.6902 0.8383
vt 0.7237 0.8338
vt 0.6375 0.8091
vt 0.6676 0.8091
vt 0.6676 0.8338
vt 0.6676 0.7844
vn 0.8144 0.1964 -0.5460
vn 0.0649 -0.3621 0.9299
vn -0.1154 0.7081 0.6966
vn 0.2094 0.7104 0.6719
vn 0.1284 0.6710 0.7302
vn 0.1593 0.7102 0.6858
vn -0.0267 0.6699 0.7420
vn -0.0635 0.7097 0.7016
vn -0.8827 0.1939 -0.4281
vn 0.9874 0.1561 -0.0243
vn -0.4498 -0.3047 0.8395
vn -0.5268 0.1561 -0.8355
vn -0.5227 0.0840 -0.8484
vn -0.4673 -0.1445 0.8722
vn 0.9959 0.0840 -0.0348
vn -0.3218 0.8325 0.4511
vn -0.1973 0.8325 0.5178
vn -0.2249 0.7796 0.5845
vn -0.1913 0.8393 0.5089
vn -0.3623 0.7791 0.5115
vn -0.3177 0.8393 0.4412
vn -0.5260 0.1848 -0.8302
vn 0.9268 -0.3743 -0.0320
vn -0.4447 0.2090 0.8710
vn -0.4410 0.0833 0.8936
vn 0.9914 -0.1119 -0.0680
vn -0.5624 0.0505 -0.8253
vn 0.6999 0.7128 0.0450
vn 0.7002 0.7135 -0.0253
vn 0.8574 0.4934 0.1464
vn 0.8368 0.5414 0.0818
vn 0.8602 0.4917 -0.1349
vn 0.8379 0.5419 -0.0656
s off
f 1/1/1 2/2/1 4/3/1 3/4/1
f 3/4/2 4/3/2 6/5/2 5/6/2
f 16/7/3 14/8/3 9/9/3 10/10/3
f 11/11/4 16/7/4 10/10/4 8/12/4
f 7/13/5 15/14/5 12/15/5
f 12/15/6 15/14/6 16/7/6 11/11/6
f 7/13/7 13/16/7 15/14/7
f 15/14/8 13/16/8 14/8/8 16/7/8
f 5/17/9 6/18/9 2/2/9 1/1/9
f 23/19/10 18/20/10 20/21/10 24/22/10
f 24/23/11 20/24/11 22/25/11 25/26/11
f 25/26/12 22/25/12 18/20/12 23/19/12
f 21/27/13 25/26/13 23/19/13 17/28/13
f 19/29/14 24/23/14 25/26/14 21/27/14
f 17/28/15 23/19/15 24/22/15 19/30/15
f 35/31/16 33/32/16 28/33/16 29/34/16
f 30/35/17 35/31/17 29/34/17 27/36/17
f 26/37/18 34/38/18 31/39/18
f 31/39/19 34/38/19 35/31/19 30/35/19
f 26/37/20 32/40/20 34/38/20
f 34/38/21 32/40/21 33/32/21 35/31/21
f 42/41/22 37/42/22 39/43/22 43/44/22
f 43/45/23 39/46/23 41/47/23 44/48/23
f 44/48/24 41/47/24 37/42/24 42/41/24
f 40/49/25 44/48/25 42/41/25 36/50/25
f 38/51/26 43/45/26 44/48/26 40/49/26
f 36/50/27 42/41/27 43/44/27 38/52/27
f 54/53/28 52/54/28 47/55/28 48/56/28
f 49/57/29 54/53/29 48/56/29 46/58/29
f 45/59/30 53/60/30 50/61/30
f 50/61/31 53/60/31 54/53/31 49/57/31
f 45/59/32 51/62/32 53/60/32
f 53/60/33 51/62/33 52/54/33 54/53/33
