# Blender v2.78 (sub 0) OBJ File: 'Low_Poly_Vegetation_Pack.blend'
# www.blender.org
g Plant_f_OneS_01
v -0.007390 0.000000 -0.001949
v -0.008797 0.252529 -0.027226
v 0.005742 0.000000 -0.005523
v -0.000993 0.253767 -0.029447
v 0.002270 0.000000 0.007636
v -0.002580 0.246628 -0.019526
v -0.005006 0.130912 -0.005079
v 0.004768 0.131461 -0.007739
v 0.002184 0.126831 0.002055
v -0.091237 0.317323 -0.081240
v 0.036171 0.317537 -0.115967
v -0.064529 0.388446 -0.166675
v -0.028536 0.388090 -0.175693
v -0.063373 0.432354 -0.201993
v -0.065527 0.265251 -0.015448
v 0.047565 0.265442 -0.046273
v -0.029357 0.309391 -0.105347
v -0.044018 0.367245 -0.158779
v -0.004848 0.244774 -0.015827
vt 0.0549 0.6422
vt 0.0998 0.6422
vt 0.0998 0.6474
vt 0.0549 0.6474
vt 0.0998 0.6526
vt 0.0549 0.6526
vt 0.0549 0.6370
vt 0.0998 0.6370
vt 0.0101 0.6370
vt 0.0101 0.6422
vt 0.0101 0.6474
vt 0.0101 0.6526
vt 0.0773 0.6898
vt 0.0998 0.6884
vt 0.0859 0.7247
vt 0.0795 0.7164
vt 0.0837 0.7420
vt 0.0550 0.6920
vt 0.0550 0.6621
vt 0.0743 0.6526
vt 0.0949 0.6589
vt 0.0745 0.7257
vn -0.2460 -0.1808 -0.9523
vn 0.9627 0.0876 0.2560
vn -0.7027 0.1026 0.7041
vn -0.7003 0.0303 0.7132
vn 0.9663 0.0117 0.2573
vn -0.2621 -0.0182 -0.9649
vn 0.0150 0.6663 0.7456
vn 0.1152 0.5729 0.8115
vn 0.2898 0.8078 0.5132
vn 0.0082 0.8074 0.5900
vn 0.3637 0.6666 0.6507
vn 0.3224 0.5881 0.7417
s off
f 7/1/1 2/2/1 4/3/1 8/4/1
f 8/4/2 4/3/2 6/5/2 9/6/2
f 9/7/3 6/8/3 2/2/3 7/1/3
f 5/9/4 9/7/4 7/1/4 1/10/4
f 3/11/5 8/4/5 9/6/5 5/12/5
f 1/10/6 7/1/6 8/4/6 3/11/6
f 17/13/7 11/14/7 13/15/7 18/16/7
f 18/16/8 13/15/8 14/17/8
f 17/13/9 10/18/9 15/19/9 19/20/9
f 11/14/10 17/13/10 19/20/10 16/21/10
f 10/18/11 17/13/11 18/16/11 12/22/11
f 12/22/12 18/16/12 14/17/12
