# Blender v2.78 (sub 0) OBJ File: 'Low_Poly_Vegetation_Pack.blend'
# www.blender.org
g Plant_i_OneS_05
v -0.000826 0.072207 0.000271
v -0.116521 0.113428 -0.083225
v -0.070677 0.096319 -0.029417
v -0.050886 0.102956 -0.053451
v -0.038438 0.113689 -0.131435
v -0.035943 0.101509 -0.058690
v -0.006674 0.093078 -0.069547
v 0.031395 0.083064 -0.094138
v 0.007039 0.084921 -0.055807
v 0.026205 0.077436 -0.049334
v -0.121478 0.078373 -0.000832
v -0.066450 0.075624 0.012658
v -0.065762 0.085227 -0.008975
v -0.004004 0.095126 0.000271
v 0.137526 0.136347 0.018333
v 0.071543 0.119237 -0.007028
v 0.065642 0.125874 0.023542
v 0.091971 0.136608 0.097994
v 0.055018 0.124428 0.035284
v 0.034495 0.115997 0.058807
v 0.012805 0.105983 0.098600
v 0.015884 0.107840 0.053290
v -0.004045 0.100354 0.056763
v 0.102509 0.101292 -0.056414
v 0.047724 0.098542 -0.041969
v 0.057457 0.108146 -0.022637
v -0.006591 0.176341 0.001907
v -0.072773 0.206268 -0.012137
v -0.044888 0.187773 -0.001282
v -0.038720 0.193326 -0.014994
v -0.041601 0.212268 -0.045706
v -0.032182 0.193473 -0.019610
v -0.019363 0.191011 -0.029339
v -0.063266 0.183341 0.025579
v -0.036714 0.174915 0.016875
v -0.039514 0.181111 0.007082
v -0.007086 0.203580 0.001907
v 0.044563 0.245883 -0.014348
v 0.022002 0.222393 -0.011760
v 0.021781 0.227082 0.002367
v 0.033025 0.247052 0.026968
v 0.018566 0.226145 0.009005
v 0.013177 0.221883 0.022475
v 0.025957 0.220371 -0.041943
v 0.010611 0.207693 -0.023543
v 0.015648 0.214608 -0.016514
v -0.003939 -0.000129 -0.002140
v 0.003656 -0.000129 -0.004035
v -0.000032 -0.000129 0.003804
v -0.007409 0.203714 0.001878
v -0.007138 0.203680 0.001720
v -0.007203 0.203571 0.001946
v -0.005547 0.153435 0.001037
v 0.043973 0.195667 -0.050857
v 0.017397 0.174724 -0.034439
v 0.029900 0.174071 -0.023396
v 0.084144 0.193234 -0.002757
v 0.037885 0.172761 -0.014064
v 0.039664 0.171165 0.009388
v 0.045982 0.165006 0.037842
v 0.026845 0.163638 0.015208
v 0.019837 0.157244 0.026155
v 0.004192 0.191143 -0.067472
v -0.007341 0.169832 -0.040487
v 0.007186 0.172830 -0.036310
v -0.004004 0.125093 0.000271
v -0.057135 0.162849 0.119667
v -0.017504 0.147177 0.068466
v -0.042767 0.153256 0.055235
v -0.115016 0.163087 0.058718
v -0.050268 0.151931 0.042823
v -0.065497 0.144209 0.018622
v -0.094690 0.135037 -0.010890
v -0.055754 0.136738 0.003749
v -0.053550 0.129882 -0.014649
v 0.017660 0.130740 0.108642
v 0.019422 0.128222 0.056777
v -0.000101 0.137018 0.060221
vt 0.8427 0.8150
vt 0.8508 0.7583
vt 0.8589 0.8150
vt 0.8508 0.8654
vt 0.8421 0.8191
vt 0.8595 0.8191
vt 0.8508 0.8654
vt 0.8415 0.8234
vt 0.8601 0.8234
vt 0.8508 0.8654
vt 0.8424 0.8173
vt 0.8592 0.8173
vt 0.8508 0.8654
vt 0.8194 0.8150
vt 0.8275 0.7583
vt 0.8356 0.8150
vt 0.8275 0.8654
vt 0.8188 0.8191
vt 0.8362 0.8191
vt 0.8275 0.8654
vt 0.8182 0.8234
vt 0.8368 0.8234
vt 0.8275 0.8654
vt 0.8191 0.8173
vt 0.8360 0.8173
vt 0.8275 0.8654
vt 0.8194 0.8150
vt 0.8275 0.7583
vt 0.8356 0.8150
vt 0.8275 0.8654
vt 0.8188 0.8191
vt 0.8362 0.8191
vt 0.8275 0.8654
vt 0.8191 0.8173
vt 0.8360 0.8173
vt 0.8275 0.8654
vt 0.8194 0.8150
vt 0.8275 0.7583
vt 0.8356 0.8150
vt 0.8275 0.8654
vt 0.8188 0.8191
vt 0.8362 0.8191
vt 0.8275 0.8654
vt 0.8191 0.8173
vt 0.8360 0.8173
vt 0.8275 0.8654
vt 0.7907 0.7576
vt 0.7945 0.7576
vt 0.7924 0.8668
vt 0.7905 0.8680
vt 0.7864 0.7575
vt 0.7886 0.8680
vt 0.7818 0.7578
vt 0.7867 0.8680
vt 0.8427 0.8150
vt 0.8508 0.7583
vt 0.8589 0.8150
vt 0.8508 0.8654
vt 0.8421 0.8191
vt 0.8595 0.8191
vt 0.8508 0.8654
vt 0.8415 0.8234
vt 0.8601 0.8234
vt 0.8508 0.8654
vt 0.8424 0.8173
vt 0.8592 0.8173
vt 0.8508 0.8654
vt 0.8194 0.8150
vt 0.8275 0.7583
vt 0.8356 0.8150
vt 0.8275 0.8654
vt 0.8188 0.8191
vt 0.8362 0.8191
vt 0.8275 0.8654
vt 0.8182 0.8234
vt 0.8368 0.8234
vt 0.8275 0.8654
vt 0.8191 0.8173
vt 0.8360 0.8173
vt 0.8275 0.8654
vn 0.1540 0.9126 0.3788
vn 0.0239 0.9584 0.2844
vn 0.3502 0.9051 0.2412
vn 0.3233 0.9350 0.1455
vn 0.3139 0.9369 0.1541
vn 0.2781 0.9276 0.2493
vn 0.1238 0.9055 0.4059
vn -0.0533 0.9133 0.4037
vn -0.3163 0.9126 -0.2592
vn -0.1569 0.9584 -0.2384
vn -0.4229 0.9051 -0.0446
vn -0.3535 0.9350 0.0267
vn -0.3493 0.9369 0.0147
vn -0.3634 0.9276 -0.0861
vn -0.3027 0.9055 -0.2974
vn -0.1461 0.9133 -0.3802
vn 0.2209 0.8654 0.4498
vn 0.3463 0.8050 0.4818
vn 0.3722 0.8894 0.2654
vn 0.4588 0.7912 0.4043
vn 0.1994 0.8528 0.4826
vn 0.3950 0.8231 0.4080
vn -0.6074 0.7511 -0.2588
vn -0.7144 0.6607 -0.2305
vn -0.6565 0.7539 -0.0241
vn -0.7708 0.6275 -0.1099
vn -0.6013 0.7412 -0.2983
vn -0.7260 0.6730 -0.1418
vn -0.8254 -0.0245 0.5640
vn -0.2524 0.0144 -0.9675
vn 0.9058 0.0359 0.4222
vn -0.2714 0.8926 0.3601
vn -0.3600 0.8141 0.4557
vn -0.3781 0.9212 0.0914
vn -0.4219 0.9018 0.0934
vn -0.3831 0.8832 0.2706
vn -0.3927 0.8812 0.2633
vn -0.2872 0.8866 0.3625
vn -0.3111 0.8060 0.5036
vn 0.3392 0.9126 -0.2284
vn 0.2734 0.9584 -0.0817
vn 0.1643 0.9051 -0.3922
vn 0.0761 0.9350 -0.3463
vn 0.0864 0.9369 -0.3388
vn 0.1870 0.9276 -0.3233
vn 0.3719 0.9055 -0.2043
vn 0.4061 0.9133 -0.0305
s off
f 3/1/1 1/2/1 4/3/1
f 3/1/2 4/3/2 2/4/2
f 6/5/3 1/2/3 7/6/3
f 6/5/4 7/6/4 5/7/4
f 9/8/5 10/9/5 8/10/5
f 9/8/6 1/2/6 10/9/6
f 12/11/7 1/2/7 13/12/7
f 12/11/8 13/12/8 11/13/8
f 16/14/9 14/15/9 17/16/9
f 16/14/10 17/16/10 15/17/10
f 19/18/11 14/15/11 20/19/11
f 19/18/12 20/19/12 18/20/12
f 22/21/13 23/22/13 21/23/13
f 22/21/14 14/15/14 23/22/14
f 25/24/15 14/15/15 26/25/15
f 25/24/16 26/25/16 24/26/16
f 29/27/17 27/28/17 30/29/17
f 29/27/18 30/29/18 28/30/18
f 32/31/19 27/28/19 33/32/19
f 32/31/20 33/32/20 31/33/20
f 35/34/21 27/28/21 36/35/21
f 35/34/22 36/35/22 34/36/22
f 39/37/23 37/38/23 40/39/23
f 39/37/24 40/39/24 38/40/24
f 42/41/25 37/38/25 43/42/25
f 42/41/26 43/42/26 41/43/26
f 45/44/27 37/38/27 46/45/27
f 45/44/28 46/45/28 44/46/28
f 47/47/29 49/48/29 52/49/29 50/50/29
f 48/51/30 47/47/30 50/50/30 51/52/30
f 49/53/31 48/51/31 51/52/31 52/54/31
f 55/55/32 53/56/32 56/57/32
f 55/55/33 56/57/33 54/58/33
f 58/59/34 53/56/34 59/60/34
f 58/59/35 59/60/35 57/61/35
f 61/62/36 62/63/36 60/64/36
f 61/62/37 53/56/37 62/63/37
f 64/65/38 53/56/38 65/66/38
f 64/65/39 65/66/39 63/67/39
f 68/68/40 66/69/40 69/70/40
f 68/68/41 69/70/41 67/71/41
f 71/72/42 66/69/42 72/73/42
f 71/72/43 72/73/43 70/74/43
f 74/75/44 75/76/44 73/77/44
f 74/75/45 66/69/45 75/76/45
f 77/78/46 66/69/46 78/79/46
f 77/78/47 78/79/47 76/80/47
