# Blender v2.78 (sub 0) OBJ File: 'Low_Poly_Vegetation_Pack.blend'
# www.blender.org
g Plant_b_OneS_04
v -0.013949 -0.000000 -0.013100
v -0.465432 0.273307 -0.038917
v -0.267056 0.248175 0.066795
v -0.110449 0.135024 0.071624
v -0.084500 0.165210 -0.062597
v -0.241108 0.278361 -0.067426
v 0.000000 -0.000000 -0.000000
v 0.246923 0.377041 -0.275808
v 0.057060 0.316748 -0.168680
v -0.025149 0.167877 -0.076854
v 0.079157 0.167877 0.016528
v 0.161366 0.316748 -0.075297
v -0.011336 -0.003442 -0.007310
v 0.033879 0.162913 0.492172
v 0.109205 0.183672 0.279911
v 0.089083 0.108020 0.103207
v -0.046872 0.141406 0.104395
v -0.026751 0.217058 0.281099
vt 0.2977 0.8240
vt 0.3237 0.8240
vt 0.3107 0.8640
vt 0.3107 0.7558
vt 0.3237 0.7880
vt 0.2977 0.7880
vt 0.4213 0.8240
vt 0.4473 0.8240
vt 0.4343 0.8640
vt 0.4343 0.7558
vt 0.4473 0.7880
vt 0.4213 0.7880
vt 0.2977 0.8240
vt 0.3237 0.8240
vt 0.3107 0.8640
vt 0.3107 0.7558
vt 0.3237 0.7880
vt 0.2977 0.7880
vn 0.0061 0.9754 0.2205
vn 0.8554 0.4448 0.2654
vn 0.5559 0.7815 0.2832
vn -0.1870 0.9599 0.2089
vn -0.6484 0.2344 0.7243
vn -0.5138 0.6377 0.5739
vn 0.2362 0.9554 0.1772
vn 0.1471 0.6264 -0.7655
vn 0.2147 0.8888 -0.4050
s off
f 3/1/1 6/2/1 2/3/1
f 1/4/2 5/5/2 4/6/2
f 4/6/3 5/5/3 6/2/3 3/1/3
f 9/7/4 12/8/4 8/9/4
f 7/10/5 11/11/5 10/12/5
f 10/12/6 11/11/6 12/8/6 9/7/6
f 15/13/7 18/14/7 14/15/7
f 13/16/8 17/17/8 16/18/8
f 16/18/9 17/17/9 18/14/9 15/13/9
