# Blender v2.78 (sub 0) OBJ File: 'Low_Poly_Vegetation_Pack.blend'
# www.blender.org
g Plant_a_OneS_02
v -0.071990 -0.000000 -0.002880
v -0.806916 0.398907 0.464846
v -0.532143 0.366955 0.377966
v -0.217098 0.238159 0.263768
v -0.039422 0.070030 0.134119
v -0.182379 0.069909 -0.090403
v -0.375106 0.238026 0.015608
v -0.611930 0.366887 0.252656
v -0.000000 -0.000000 -0.000000
v 0.000000 0.593029 -1.016893
v -0.091259 0.520264 -0.680320
v -0.180727 0.323214 -0.295979
v -0.163512 0.091122 -0.047917
v 0.163512 0.091122 -0.047917
v 0.180727 0.323214 -0.295979
v 0.091259 0.520264 -0.680320
vt 0.1859 0.8302
vt 0.1982 0.8308
vt 0.1909 0.8538
vt 0.1951 0.7714
vt 0.2058 0.7789
vt 0.1837 0.7778
vt 0.2058 0.8019
vt 0.1813 0.8007
vt 0.0379 0.8340
vt 0.0530 0.8347
vt 0.0440 0.8630
vt 0.0491 0.7617
vt 0.0623 0.7709
vt 0.0351 0.7695
vt 0.0623 0.7992
vt 0.0323 0.7977
vn 0.0960 0.9935 -0.0617
vn 0.7042 0.5502 -0.4487
vn 0.5127 0.7939 -0.3269
vn 0.3089 0.9304 -0.1972
vn 0.0000 0.9774 0.2113
vn 0.0000 0.4654 0.8851
vn 0.0000 0.7302 0.6832
vn 0.0000 0.8899 0.4562
s off
f 3/1/1 8/2/1 2/3/1
f 1/4/2 6/5/2 5/6/2
f 5/6/3 6/5/3 7/7/3 4/8/3
f 4/8/4 7/7/4 8/2/4 3/1/4
f 11/9/5 16/10/5 10/11/5
f 9/12/6 14/13/6 13/14/6
f 13/14/7 14/13/7 15/15/7 12/16/7
f 12/16/8 15/15/8 16/10/8 11/9/8
