# Blender v2.78 (sub 0) OBJ File: 'Low_Poly_Vegetation_Pack.blend'
# www.blender.org
g Plant_j_OneS_08
v -0.024836 0.081415 0.012279
v -0.101271 0.157781 0.049716
v -0.109622 0.157781 0.004853
v -0.135686 0.169475 0.032914
v -0.051662 0.119431 0.047497
v -0.062538 0.119431 -0.010927
v -0.060642 0.116367 0.018944
v -0.109985 0.153428 0.028130
v -0.026071 0.082475 0.011604
v -0.024878 0.081335 0.012279
v -0.025521 0.082349 0.013198
v -0.002861 -0.000035 0.000422
v 0.000371 -0.000035 -0.002554
v 0.001260 -0.000035 0.001942
v -0.025715 0.116307 -0.030088
v -0.104364 0.225402 -0.122811
v -0.045164 0.225402 -0.150109
v -0.093164 0.242107 -0.176364
v -0.083894 0.170615 -0.054889
v -0.006799 0.170615 -0.090438
v -0.047502 0.166238 -0.077337
v -0.077525 0.219182 -0.142449
v -0.025213 0.117821 -0.032036
v -0.025729 0.116193 -0.030146
v -0.027227 0.117641 -0.030715
v -0.001587 -0.000051 -0.003815
v 0.003666 -0.000051 -0.000382
v -0.002248 -0.000051 0.002426
v 0.022333 0.101582 -0.026386
v 0.091241 0.196864 -0.107186
v 0.123073 0.196864 -0.059978
v 0.138977 0.211454 -0.105038
v 0.035557 0.149014 -0.080017
v 0.077010 0.149014 -0.018540
v 0.060010 0.145191 -0.051791
v 0.111932 0.191432 -0.086802
v 0.024083 0.102904 -0.026226
v 0.022381 0.101482 -0.026406
v 0.022662 0.102747 -0.027777
v 0.003066 -0.000044 -0.001903
v 0.000843 -0.000044 0.003107
v -0.002406 -0.000044 -0.001598
vt 0.3371 0.7141
vt 0.3526 0.7138
vt 0.3371 0.7344
vt 0.3217 0.7138
vt 0.3371 0.6379
vt 0.3573 0.6718
vt 0.3371 0.6721
vt 0.3170 0.6718
vt 0.2990 0.6354
vt 0.2990 0.7360
vt 0.2874 0.7360
vt 0.2874 0.6354
vt 0.2758 0.7360
vt 0.2758 0.6354
vt 0.3107 0.6354
vt 0.3107 0.7360
vt 0.4580 0.7141
vt 0.4734 0.7138
vt 0.4580 0.7344
vt 0.4425 0.7138
vt 0.4580 0.6379
vt 0.4781 0.6718
vt 0.4580 0.6721
vt 0.4379 0.6718
vt 0.4199 0.6354
vt 0.4199 0.7360
vt 0.4083 0.7360
vt 0.4083 0.6354
vt 0.3967 0.7360
vt 0.3967 0.6354
vt 0.4315 0.6354
vt 0.4315 0.7360
vt 0.4598 0.7141
vt 0.4753 0.7138
vt 0.4598 0.7344
vt 0.4444 0.7138
vt 0.4598 0.6379
vt 0.4800 0.6718
vt 0.4598 0.6721
vt 0.4397 0.6718
vt 0.4217 0.6354
vt 0.4217 0.7360
vt 0.4101 0.7360
vt 0.4101 0.6354
vt 0.3985 0.7360
vt 0.3985 0.6354
vt 0.4333 0.6354
vt 0.4333 0.7360
vn 0.5442 0.8231 0.1624
vn 0.4493 0.8231 -0.3474
vn 0.7010 0.7126 0.0286
vn 0.6279 0.7731 0.0898
vn 0.5535 0.7731 -0.3097
vn 0.6437 0.7126 -0.2789
vn -0.4603 0.0048 -0.8878
vn 0.9433 0.3159 -0.1019
vn -0.5389 -0.2719 0.7973
vn -0.0239 0.8231 0.5674
vn 0.4470 0.8231 0.3502
vn 0.1443 0.7126 0.6865
vn 0.0671 0.7731 0.6307
vn 0.4361 0.7731 0.4605
vn 0.4284 0.7126 0.5556
vn 0.7476 0.0048 -0.6641
vn 0.3304 0.3159 0.8894
vn -0.9052 -0.2719 -0.3267
vn -0.5639 0.8231 0.0675
vn -0.2740 0.8231 0.4974
vn -0.6545 0.7126 0.2527
vn -0.6118 0.7731 0.1675
vn -0.3846 0.7731 0.5044
vn -0.4796 0.7126 0.5120
vn 0.7755 0.0048 0.6313
vn -0.8248 0.3159 0.4688
vn 0.1772 -0.2719 -0.9459
s off
f 8/1/1 3/2/1 4/3/1
f 2/4/2 8/1/2 4/3/2
f 1/5/3 6/6/3 7/7/3
f 7/7/4 6/6/4 3/2/4 8/1/4
f 5/8/5 7/7/5 8/1/5 2/4/5
f 5/8/6 1/5/6 7/7/6
f 12/9/7 9/10/7 10/11/7 13/12/7
f 13/12/8 10/11/8 11/13/8 14/14/8
f 14/15/9 11/16/9 9/10/9 12/9/9
f 22/17/10 17/18/10 18/19/10
f 16/20/11 22/17/11 18/19/11
f 15/21/12 20/22/12 21/23/12
f 21/23/13 20/22/13 17/18/13 22/17/13
f 19/24/14 21/23/14 22/17/14 16/20/14
f 19/24/15 15/21/15 21/23/15
f 26/25/16 23/26/16 24/27/16 27/28/16
f 27/28/17 24/27/17 25/29/17 28/30/17
f 28/31/18 25/32/18 23/26/18 26/25/18
f 36/33/19 31/34/19 32/35/19
f 30/36/20 36/33/20 32/35/20
f 29/37/21 34/38/21 35/39/21
f 35/39/22 34/38/22 31/34/22 36/33/22
f 33/40/23 35/39/23 36/33/23 30/36/23
f 33/40/24 29/37/24 35/39/24
f 40/41/25 37/42/25 38/43/25 41/44/25
f 41/44/26 38/43/26 39/45/26 42/46/26
f 42/47/27 39/48/27 37/42/27 40/41/27
