# Blender v2.78 (sub 0) OBJ File: 'Low_Poly_Vegetation_Pack.blend'
# www.blender.org
g Plant_j_OneS_04
v -0.026808 0.272170 0.100070
v -0.070542 0.381142 0.273083
v -0.143200 0.384909 0.232221
v -0.134228 0.403858 0.304492
v -0.012196 0.327482 0.190141
v -0.106815 0.332388 0.136928
v -0.062461 0.323264 0.168176
v -0.110622 0.373708 0.258462
v -0.002467 0.000000 0.004163
v -0.029294 0.273797 0.101318
v -0.002372 0.000000 -0.004217
v -0.026851 0.272014 0.100101
v 0.004838 0.000000 0.000055
v -0.026406 0.273513 0.102381
v -0.015387 0.140011 0.046997
v -0.015498 0.141676 0.038965
v -0.008288 0.141676 0.043237
v 0.052569 0.280570 -0.053112
v 0.146822 0.412981 -0.166730
v 0.193959 0.417955 -0.101398
v 0.222963 0.426838 -0.178470
v 0.075543 0.347810 -0.127971
v 0.129336 0.347810 -0.037667
v 0.107914 0.342391 -0.086080
v 0.177357 0.407875 -0.138512
v 0.003992 0.000000 -0.002441
v 0.055033 0.282445 -0.052747
v 0.000115 0.000000 0.004678
v 0.052639 0.280428 -0.053136
v -0.004112 0.000000 -0.002239
v 0.053145 0.282222 -0.055055
v 0.023356 0.135431 -0.019988
v 0.019813 0.137041 -0.013073
v 0.015586 0.137041 -0.019991
v 0.094930 0.217386 0.022901
v 0.219500 0.314573 0.052061
v 0.196327 0.305398 0.111137
v 0.249023 0.321298 0.099481
v 0.155800 0.270716 0.009747
v 0.125623 0.258769 0.086679
v 0.145193 0.259942 0.049225
v 0.213624 0.303243 0.082792
v 0.001690 -0.000180 0.003306
v 0.095985 0.218500 0.024844
v -0.003609 0.000871 -0.000198
v 0.094974 0.217267 0.022912
v 0.001918 -0.000691 -0.003109
v 0.096496 0.218700 0.022534
v 0.039864 0.102126 0.012304
v 0.035010 0.104402 0.008988
v 0.040538 0.102840 0.006077
v -0.008507 0.258981 -0.068453
v -0.028143 0.383661 -0.206015
v 0.045736 0.383661 -0.196384
v 0.014474 0.411253 -0.249069
v -0.049686 0.321048 -0.127855
v 0.046524 0.321048 -0.115314
v -0.000821 0.316046 -0.127417
v 0.009771 0.376553 -0.208673
v 0.000510 0.000000 -0.004290
v -0.006836 0.260712 -0.070032
v 0.003460 0.000000 0.002587
v -0.008485 0.258851 -0.068518
v -0.003970 0.000000 0.001703
v -0.009588 0.260506 -0.069980
v -0.001162 0.125010 -0.028353
v 0.001831 0.126497 -0.021835
v -0.005600 0.126497 -0.022719
v -0.072383 0.323727 -0.046853
v -0.222935 0.476505 -0.126520
v -0.160258 0.482244 -0.195164
v -0.254147 0.492493 -0.209751
v -0.162351 0.401310 -0.055151
v -0.073039 0.401310 -0.137201
v -0.122669 0.395057 -0.101590
v -0.198263 0.470613 -0.167661
v -0.003698 0.000000 -0.003934
v -0.072552 0.325890 -0.049722
v 0.005257 0.000000 -0.001233
v -0.072427 0.323563 -0.046926
v -0.001560 0.000000 0.005172
v -0.074714 0.325632 -0.047045
v -0.028083 0.156262 -0.021667
v -0.019438 0.158121 -0.019296
v -0.026254 0.158121 -0.012891
vt 0.3279 0.7138
vt 0.3438 0.7136
vt 0.3279 0.7348
vt 0.3119 0.7136
vt 0.3279 0.6352
vt 0.3487 0.6701
vt 0.3279 0.6705
vt 0.3071 0.6701
vt 0.2929 0.6853
vt 0.2929 0.7376
vt 0.2869 0.7376
vt 0.2869 0.6853
vt 0.2809 0.7376
vt 0.2809 0.6853
vt 0.2990 0.6853
vt 0.2990 0.7376
vt 0.2990 0.6330
vt 0.2929 0.6330
vt 0.2869 0.6330
vt 0.2809 0.6330
vt 0.4551 0.7160
vt 0.4710 0.7157
vt 0.4551 0.7370
vt 0.4391 0.7157
vt 0.4551 0.6373
vt 0.4759 0.6723
vt 0.4551 0.6727
vt 0.4343 0.6723
vt 0.4201 0.6875
vt 0.4201 0.7398
vt 0.4141 0.7398
vt 0.4141 0.6875
vt 0.4081 0.7398
vt 0.4081 0.6875
vt 0.4262 0.6875
vt 0.4262 0.7398
vt 0.4262 0.6352
vt 0.4201 0.6352
vt 0.4141 0.6352
vt 0.4081 0.6352
vt 0.3279 0.7138
vt 0.3438 0.7136
vt 0.3279 0.7348
vt 0.3119 0.7136
vt 0.3279 0.6352
vt 0.3487 0.6701
vt 0.3279 0.6705
vt 0.3071 0.6701
vt 0.2929 0.6853
vt 0.2929 0.7376
vt 0.2869 0.7376
vt 0.2869 0.6853
vt 0.2809 0.7376
vt 0.2809 0.6853
vt 0.2990 0.6853
vt 0.2990 0.7376
vt 0.2990 0.6330
vt 0.2929 0.6330
vt 0.2869 0.6330
vt 0.2809 0.6330
vt 0.3279 0.7138
vt 0.3438 0.7136
vt 0.3279 0.7348
vt 0.3119 0.7136
vt 0.3279 0.6352
vt 0.3487 0.6701
vt 0.3279 0.6705
vt 0.3071 0.6701
vt 0.2929 0.6853
vt 0.2929 0.7376
vt 0.2869 0.7376
vt 0.2869 0.6853
vt 0.2809 0.7376
vt 0.2809 0.6853
vt 0.2990 0.6853
vt 0.2990 0.7376
vt 0.2990 0.6330
vt 0.2929 0.6330
vt 0.2869 0.6330
vt 0.2809 0.6330
vt 0.4551 0.7160
vt 0.4710 0.7157
vt 0.4551 0.7370
vt 0.4391 0.7157
vt 0.4551 0.6373
vt 0.4759 0.6723
vt 0.4551 0.6727
vt 0.4343 0.6723
vt 0.4201 0.6875
vt 0.4201 0.7398
vt 0.4141 0.7398
vt 0.4141 0.6875
vt 0.4081 0.7398
vt 0.4081 0.6875
vt 0.4262 0.6875
vt 0.4262 0.7398
vt 0.4262 0.6352
vt 0.4201 0.6352
vt 0.4141 0.6352
vt 0.4081 0.6352
vn 0.5043 0.8178 -0.2771
vn 0.0380 0.8447 -0.5338
vn 0.4368 0.8143 -0.3822
vn 0.4340 0.8570 -0.2778
vn 0.0802 0.8754 -0.4768
vn 0.1644 0.8284 -0.5354
vn -0.9695 0.0142 -0.2446
vn 0.5501 0.3985 -0.7339
vn 0.2889 -0.3464 0.8925
vn 0.4872 -0.2135 0.8468
vn 0.4870 0.2956 -0.8219
vn -0.9959 -0.0896 -0.0081
vn -0.4245 0.9037 -0.0556
vn -0.1247 0.9439 0.3057
vn -0.6676 0.7126 0.2156
vn -0.6379 0.7561 0.1466
vn -0.4076 0.7755 0.4821
vn -0.5075 0.7126 0.4844
vn 0.7395 0.0045 0.6731
vn -0.8494 0.3170 0.4220
vn 0.1883 -0.2642 -0.9459
vn -0.0251 -0.1249 -0.9919
vn -0.8383 0.1868 0.5122
vn 0.8791 -0.0648 0.4723
vn -0.3326 0.9031 -0.2716
vn -0.5200 0.8289 0.2062
vn -0.5420 0.7998 -0.2581
vn -0.4445 0.8567 -0.2618
vn -0.5914 0.7985 0.1126
vn -0.6550 0.7550 0.0301
vn -0.6257 0.2308 0.7451
vn -0.3964 0.3154 -0.8622
vn 0.8941 -0.4411 0.0769
vn 0.9334 -0.3536 0.0609
vn -0.4022 0.2287 -0.8865
vn -0.5257 0.1217 0.8419
vn -0.3455 0.7314 0.5880
vn 0.1836 0.7350 0.6527
vn -0.2435 0.7126 0.6579
vn -0.2791 0.7731 0.5695
vn 0.1238 0.7731 0.6221
vn 0.0667 0.7126 0.6984
vn 0.9863 0.0045 -0.1648
vn -0.1938 0.3170 0.9284
vn -0.6268 -0.2642 -0.7331
vn -0.7949 -0.1249 -0.5938
vn -0.1160 0.1868 0.9755
vn 0.9148 -0.0648 -0.3986
vn 0.0323 0.9037 0.4269
vn 0.3247 0.9439 0.0596
vn 0.3475 0.7126 0.6094
vn 0.2738 0.7561 0.5945
vn 0.5553 0.7755 0.3005
vn 0.5778 0.7126 0.3978
vn 0.5078 0.0045 -0.8615
vn 0.5866 0.3170 0.7452
vn -0.9644 -0.2642 0.0089
vn -0.9658 -0.1249 0.2273
vn 0.6727 0.1868 0.7159
vn 0.2827 -0.0648 -0.9570
s off
f 8/1/1 3/2/1 4/3/1
f 2/4/2 8/1/2 4/3/2
f 1/5/3 6/6/3 7/7/3
f 7/7/4 6/6/4 3/2/4 8/1/4
f 5/8/5 7/7/5 8/1/5 2/4/5
f 5/8/6 1/5/6 7/7/6
f 15/9/7 10/10/7 12/11/7 16/12/7
f 16/12/8 12/11/8 14/13/8 17/14/8
f 17/15/9 14/16/9 10/10/9 15/9/9
f 13/17/10 17/15/10 15/9/10 9/18/10
f 11/19/11 16/12/11 17/14/11 13/20/11
f 9/18/12 15/9/12 16/12/12 11/19/12
f 25/21/13 20/22/13 21/23/13
f 19/24/14 25/21/14 21/23/14
f 18/25/15 23/26/15 24/27/15
f 24/27/16 23/26/16 20/22/16 25/21/16
f 22/28/17 24/27/17 25/21/17 19/24/17
f 22/28/18 18/25/18 24/27/18
f 32/29/19 27/30/19 29/31/19 33/32/19
f 33/32/20 29/31/20 31/33/20 34/34/20
f 34/35/21 31/36/21 27/30/21 32/29/21
f 30/37/22 34/35/22 32/29/22 26/38/22
f 28/39/23 33/32/23 34/34/23 30/40/23
f 26/38/24 32/29/24 33/32/24 28/39/24
f 42/41/25 37/42/25 38/43/25
f 36/44/26 42/41/26 38/43/26
f 35/45/27 40/46/27 41/47/27
f 41/47/28 40/46/28 37/42/28 42/41/28
f 39/48/29 41/47/29 42/41/29 36/44/29
f 39/48/30 35/45/30 41/47/30
f 49/49/31 44/50/31 46/51/31 50/52/31
f 50/52/32 46/51/32 48/53/32 51/54/32
f 51/55/33 48/56/33 44/50/33 49/49/33
f 47/57/34 51/55/34 49/49/34 43/58/34
f 45/59/35 50/52/35 51/54/35 47/60/35
f 43/58/36 49/49/36 50/52/36 45/59/36
f 59/61/37 54/62/37 55/63/37
f 53/64/38 59/61/38 55/63/38
f 52/65/39 57/66/39 58/67/39
f 58/67/40 57/66/40 54/62/40 59/61/40
f 56/68/41 58/67/41 59/61/41 53/64/41
f 56/68/42 52/65/42 58/67/42
f 66/69/43 61/70/43 63/71/43 67/72/43
f 67/72/44 63/71/44 65/73/44 68/74/44
f 68/75/45 65/76/45 61/70/45 66/69/45
f 64/77/46 68/75/46 66/69/46 60/78/46
f 62/79/47 67/72/47 68/74/47 64/80/47
f 60/78/48 66/69/48 67/72/48 62/79/48
f 76/81/49 71/82/49 72/83/49
f 70/84/50 76/81/50 72/83/50
f 69/85/51 74/86/51 75/87/51
f 75/87/52 74/86/52 71/82/52 76/81/52
f 73/88/53 75/87/53 76/81/53 70/84/53
f 73/88/54 69/85/54 75/87/54
f 83/89/55 78/90/55 80/91/55 84/92/55
f 84/92/56 80/91/56 82/93/56 85/94/56
f 85/95/57 82/96/57 78/90/57 83/89/57
f 81/97/58 85/95/58 83/89/58 77/98/58
f 79/99/59 84/92/59 85/94/59 81/100/59
f 77/98/60 83/89/60 84/92/60 79/99/60
