# Blender v2.78 (sub 0) OBJ File: 'Low_Poly_Vegetation_Pack.blend'
# www.blender.org
g Plant_d_OneS_06
v 0.028713 0.000000 -0.058811
v 0.079013 0.474843 -0.089812
v 0.028553 0.000000 -0.076177
v 0.078600 0.469234 -0.101455
v 0.043672 0.000000 -0.067633
v 0.089009 0.467750 -0.093930
v 0.045471 0.246121 -0.049562
v 0.045047 0.243559 -0.061952
v 0.056304 0.243559 -0.055590
v 0.183665 0.250864 -0.258660
v 0.143361 0.534060 0.063763
v -0.073019 0.564905 -0.092647
v 0.032701 0.538375 -0.013215
v 0.216918 0.457985 -0.011455
v 0.236280 0.375742 -0.093681
v 0.022180 0.408104 -0.252865
v -0.038390 0.494379 -0.196005
v 0.124580 0.383652 -0.168701
v 0.084896 0.467647 -0.099370
v -0.036172 0.575271 -0.014938
v 0.060118 0.558101 0.050123
v -0.045145 0.000000 0.054948
v -0.058338 0.643566 0.095917
v -0.024786 0.000000 0.066204
v -0.043664 0.638879 0.103837
v -0.044714 0.000000 0.078207
v -0.058786 0.637670 0.112197
v -0.066974 0.329691 0.068398
v -0.052245 0.326258 0.076067
v -0.067082 0.326258 0.085004
v 0.133828 0.511966 0.424471
v -0.286132 0.700121 0.065023
v 0.028179 0.725247 -0.108747
v -0.127809 0.697398 -0.021960
v -0.233566 0.636118 0.217950
v -0.127277 0.578804 0.334788
v 0.187011 0.603929 0.161031
v 0.137293 0.665765 0.012917
v 0.028197 0.578248 0.242993
v -0.049806 0.637823 0.110517
v -0.087698 0.729435 -0.113199
v -0.221814 0.714834 -0.032197
vt 0.6924 0.8566
vt 0.7207 0.8571
vt 0.7202 0.8591
vt 0.6923 0.8585
vt 0.7201 0.8610
vt 0.6923 0.8605
vt 0.6924 0.8547
vt 0.7203 0.8551
vt 0.6646 0.8530
vt 0.6641 0.8557
vt 0.6644 0.8585
vt 0.6645 0.8610
vt 0.7016 0.8097
vt 0.7032 0.7699
vt 0.7349 0.7773
vt 0.7453 0.7963
vt 0.6999 0.8494
vt 0.7428 0.8256
vt 0.7321 0.8448
vt 0.6298 0.8067
vt 0.6709 0.8084
vt 0.6694 0.8421
vt 0.6722 0.7747
vt 0.7324 0.8110
vt 0.6924 0.8566
vt 0.7207 0.8571
vt 0.7202 0.8591
vt 0.6923 0.8585
vt 0.7201 0.8610
vt 0.6923 0.8605
vt 0.6924 0.8547
vt 0.7203 0.8551
vt 0.6646 0.8530
vt 0.6641 0.8557
vt 0.6644 0.8585
vt 0.6645 0.8610
vt 0.7016 0.8097
vt 0.7032 0.7699
vt 0.7349 0.7773
vt 0.7453 0.7963
vt 0.6999 0.8494
vt 0.7428 0.8256
vt 0.7321 0.8448
vt 0.6298 0.8067
vt 0.6709 0.8084
vt 0.6694 0.8421
vt 0.6722 0.7747
vt 0.7324 0.8110
vn -0.9895 0.1436 -0.0143
vn 0.5158 -0.2193 -0.8282
vn 0.4677 0.0843 0.8799
vn 0.4928 -0.0673 0.8675
vn 0.4919 0.0175 -0.8705
vn -0.9977 0.0671 0.0139
vn 0.4773 0.8001 -0.3633
vn 0.3441 0.8201 -0.4572
vn 0.4636 0.6290 -0.6240
vn 0.4381 0.6856 -0.5814
vn 0.5822 0.6174 -0.5290
vn 0.5451 0.6822 -0.4873
vn 0.4416 0.8060 -0.3941
vn 0.3985 0.8125 -0.4255
vn 0.4812 0.0639 -0.8743
vn 0.5007 -0.0894 0.8610
vn -0.9996 0.0279 -0.0090
vn -0.9977 -0.0673 0.0023
vn 0.5159 0.0175 0.8565
vn 0.4787 0.0671 -0.8754
vn 0.0457 0.9222 0.3840
vn 0.1880 0.9343 0.3028
vn 0.1556 0.9536 0.2577
vn 0.1773 0.9350 0.3073
vn 0.0194 0.9427 0.3330
vn 0.0521 0.9249 0.3765
vn 0.0888 0.9269 0.3645
vn 0.1358 0.9310 0.3387
s off
f 7/1/1 2/2/1 4/3/1 8/4/1
f 8/4/2 4/3/2 6/5/2 9/6/2
f 9/7/3 6/8/3 2/2/3 7/1/3
f 5/9/4 9/7/4 7/1/4 1/10/4
f 3/11/5 8/4/5 9/6/5 5/12/5
f 1/10/6 7/1/6 8/4/6 3/11/6
f 19/13/7 17/14/7 12/15/7 20/16/7
f 14/17/8 19/13/8 21/18/8 11/19/8
f 10/20/9 18/21/9 15/22/9
f 15/22/10 18/21/10 19/13/10 14/17/10
f 10/20/11 16/23/11 18/21/11
f 18/21/12 16/23/12 17/14/12 19/13/12
f 20/16/13 13/24/13 19/13/13
f 21/18/14 19/13/14 13/24/14
f 28/25/15 23/26/15 25/27/15 29/28/15
f 29/28/16 25/27/16 27/29/16 30/30/16
f 30/31/17 27/32/17 23/26/17 28/25/17
f 26/33/18 30/31/18 28/25/18 22/34/18
f 24/35/19 29/28/19 30/30/19 26/36/19
f 22/34/20 28/25/20 29/28/20 24/35/20
f 40/37/21 38/38/21 33/39/21 41/40/21
f 35/41/22 40/37/22 42/42/22 32/43/22
f 31/44/23 39/45/23 36/46/23
f 36/46/24 39/45/24 40/37/24 35/41/24
f 31/44/25 37/47/25 39/45/25
f 39/45/26 37/47/26 38/38/26 40/37/26
f 41/40/27 34/48/27 40/37/27
f 42/42/28 40/37/28 34/48/28
