# Blender v2.78 (sub 0) OBJ File: 'Low_Poly_Vegetation_Pack.blend'
# www.blender.org
g Plant_i_OneS_09
v 0.001692 0.095126 0.001292
v 0.055631 0.123992 0.085394
v 0.039578 0.112010 0.038568
v 0.020513 0.116658 0.049145
v -0.007618 0.124174 0.096756
v 0.009433 0.115645 0.048721
v -0.012423 0.109741 0.048280
v -0.043539 0.102729 0.054528
v -0.017830 0.104029 0.035808
v -0.028655 0.098787 0.026670
v 0.080015 0.099444 0.032986
v 0.047627 0.097518 0.010070
v 0.041624 0.104243 0.023987
v -0.000826 0.072207 0.000271
v -0.116521 0.113428 -0.083225
v -0.070677 0.096319 -0.029417
v -0.050886 0.102956 -0.053451
v -0.038438 0.113689 -0.131435
v -0.035943 0.101509 -0.058690
v -0.006674 0.093078 -0.069547
v 0.031395 0.083064 -0.094138
v 0.007039 0.084921 -0.055807
v 0.026205 0.077436 -0.049334
v -0.121478 0.078373 -0.000832
v -0.066450 0.075624 0.012658
v -0.065762 0.085227 -0.008975
v 0.003068 0.126823 0.001907
v 0.054716 0.169126 -0.014348
v 0.032155 0.145636 -0.011760
v 0.031934 0.150324 0.002367
v 0.043178 0.170294 0.026968
v 0.028720 0.149388 0.009005
v 0.023330 0.145126 0.022475
v 0.003068 0.126823 0.001907
v 0.036111 0.143614 -0.041943
v 0.020764 0.130936 -0.023543
v 0.025802 0.137851 -0.016514
v -0.002603 -0.000129 -0.001823
v 0.001646 -0.000129 -0.002882
v -0.000417 -0.000129 0.001503
v 0.002744 0.126956 0.001878
v 0.003016 0.126922 0.001720
v 0.002950 0.126814 0.001946
vt 0.8235 0.8149
vt 0.8305 0.7653
vt 0.8376 0.8149
vt 0.8305 0.8589
vt 0.8229 0.8184
vt 0.8381 0.8184
vt 0.8305 0.8589
vt 0.8224 0.8221
vt 0.8387 0.8221
vt 0.8305 0.8589
vt 0.8232 0.8168
vt 0.8379 0.8168
vt 0.8305 0.8589
vt 0.8235 0.8149
vt 0.8305 0.7653
vt 0.8376 0.8149
vt 0.8305 0.8589
vt 0.8229 0.8184
vt 0.8381 0.8184
vt 0.8305 0.8589
vt 0.8224 0.8221
vt 0.8387 0.8221
vt 0.8305 0.8589
vt 0.8232 0.8168
vt 0.8379 0.8168
vt 0.8305 0.8589
vt 0.8235 0.8149
vt 0.8305 0.7653
vt 0.8376 0.8149
vt 0.8305 0.8589
vt 0.8229 0.8184
vt 0.8381 0.8184
vt 0.8305 0.8589
vt 0.8232 0.8168
vt 0.8379 0.8168
vt 0.8305 0.8589
vt 0.8103 0.7614
vt 0.8133 0.7615
vt 0.8111 0.8583
vt 0.8094 0.8593
vt 0.8069 0.7614
vt 0.8077 0.8593
vt 0.8032 0.7615
vt 0.8060 0.8592
vn -0.0044 0.9126 -0.4089
vn 0.0820 0.9584 -0.2733
vn -0.2374 0.9051 -0.3528
vn -0.2475 0.9350 -0.2539
vn -0.2355 0.9369 -0.2584
vn -0.1673 0.9276 -0.3339
vn 0.0337 0.9055 -0.4230
vn 0.1977 0.9133 -0.3561
vn 0.1540 0.9126 0.3788
vn 0.0239 0.9584 0.2844
vn 0.3502 0.9051 0.2412
vn 0.3233 0.9350 0.1455
vn 0.3139 0.9369 0.1541
vn 0.2781 0.9276 0.2493
vn 0.1238 0.9055 0.4059
vn -0.0533 0.9133 0.4037
vn -0.6074 0.7511 -0.2588
vn -0.7144 0.6607 -0.2305
vn -0.6565 0.7539 -0.0241
vn -0.7708 0.6275 -0.1099
vn -0.6013 0.7412 -0.2983
vn -0.7260 0.6730 -0.1418
vn -0.8169 0.0186 0.5765
vn -0.2597 0.0384 -0.9649
vn 0.9078 -0.0252 0.4186
s off
f 3/1/1 1/2/1 4/3/1
f 3/1/2 4/3/2 2/4/2
f 6/5/3 1/2/3 7/6/3
f 6/5/4 7/6/4 5/7/4
f 9/8/5 10/9/5 8/10/5
f 9/8/6 1/2/6 10/9/6
f 12/11/7 1/2/7 13/12/7
f 12/11/8 13/12/8 11/13/8
f 16/14/9 14/15/9 17/16/9
f 16/14/10 17/16/10 15/17/10
f 19/18/11 14/15/11 20/19/11
f 19/18/12 20/19/12 18/20/12
f 22/21/13 23/22/13 21/23/13
f 22/21/14 14/15/14 23/22/14
f 25/24/15 14/15/15 26/25/15
f 25/24/16 26/25/16 24/26/16
f 29/27/17 27/28/17 30/29/17
f 29/27/18 30/29/18 28/30/18
f 32/31/19 27/28/19 33/32/19
f 32/31/20 33/32/20 31/33/20
f 36/34/21 27/28/21 37/35/21
f 36/34/22 37/35/22 35/36/22
f 38/37/23 40/38/23 43/39/23 41/40/23
f 39/41/24 38/37/24 41/40/24 42/42/24
f 40/43/25 39/41/25 42/42/25 43/44/25
