# Blender v2.78 (sub 0) OBJ File: 'Low_Poly_Vegetation_Pack.blend'
# www.blender.org
g Plant_h_OneS_03
v -0.001363 -0.004121 -0.000469
v -0.180891 0.049150 -0.034597
v -0.115746 0.040291 -0.145991
v -0.192524 0.050618 -0.116615
v -0.108224 0.026960 0.032363
v -0.023389 0.015423 -0.112701
v -0.064044 0.028714 -0.039737
v -0.147750 0.050120 -0.090391
v 0.001512 -0.003288 0.002443
v 0.108480 0.112554 0.109077
v -0.008365 0.098766 0.162817
v 0.066701 0.130168 0.178422
v 0.097978 0.057125 0.024970
v -0.054184 0.039170 0.094953
v 0.019434 0.054462 0.056226
v 0.048574 0.110491 0.133960
v 0.003207 -0.004815 -0.002624
v 0.051518 0.124698 -0.214761
v 0.162451 0.149552 -0.124779
v 0.142515 0.168031 -0.222109
v -0.025426 0.046467 -0.133598
v 0.119037 0.078834 -0.016418
v 0.041584 0.071820 -0.071104
v 0.103842 0.144069 -0.167814
vt 0.0641 0.7146
vt 0.0922 0.7140
vt 0.0641 0.7360
vt 0.0360 0.7140
vt 0.0641 0.6363
vt 0.1007 0.6710
vt 0.0641 0.6714
vt 0.0275 0.6710
vt 0.0641 0.7146
vt 0.0922 0.7140
vt 0.0641 0.7360
vt 0.0360 0.7140
vt 0.0641 0.6363
vt 0.1007 0.6710
vt 0.0641 0.6714
vt 0.0275 0.6710
vt 0.1795 0.7146
vt 0.2076 0.7140
vt 0.1795 0.7360
vt 0.1514 0.7140
vt 0.1795 0.6363
vt 0.2160 0.6710
vt 0.1795 0.6714
vt 0.1429 0.6710
vn 0.0848 0.9884 -0.1259
vn 0.0007 0.9998 0.0178
vn 0.4264 0.9016 0.0733
vn 0.2647 0.9640 -0.0238
vn 0.1763 0.9761 0.1274
vn 0.3359 0.9139 0.2280
vn -0.3234 0.9070 -0.2696
vn -0.1726 0.9248 -0.3389
vn -0.4470 0.6800 -0.5812
vn -0.3941 0.8077 -0.4385
vn -0.2356 0.8264 -0.5114
vn -0.2847 0.6992 -0.6558
vn -0.2573 0.9383 0.2309
vn -0.4214 0.9016 0.0977
vn -0.4480 0.7099 0.5434
vn -0.3640 0.8416 0.3991
vn -0.5377 0.8026 0.2583
vn -0.6258 0.6701 0.3992
s off
f 8/1/1 3/2/1 4/3/1
f 2/4/2 8/1/2 4/3/2
f 1/5/3 6/6/3 7/7/3
f 7/7/4 6/6/4 3/2/4 8/1/4
f 5/8/5 7/7/5 8/1/5 2/4/5
f 5/8/6 1/5/6 7/7/6
f 16/9/7 11/10/7 12/11/7
f 10/12/8 16/9/8 12/11/8
f 9/13/9 14/14/9 15/15/9
f 15/15/10 14/14/10 11/10/10 16/9/10
f 13/16/11 15/15/11 16/9/11 10/12/11
f 13/16/12 9/13/12 15/15/12
f 24/17/13 19/18/13 20/19/13
f 18/20/14 24/17/14 20/19/14
f 17/21/15 22/22/15 23/23/15
f 23/23/16 22/22/16 19/18/16 24/17/16
f 21/24/17 23/23/17 24/17/17 18/20/17
f 21/24/18 17/21/18 23/23/18
