# Blender v2.78 (sub 0) OBJ File: 'Low_Poly_Vegetation_Pack.blend'
# www.blender.org
g Plant_b_OneS_02
v 0.046492 -0.000000 0.026909
v 0.373459 0.273307 -0.285494
v 0.160813 0.248175 -0.212626
v 0.050413 0.135024 -0.101446
v 0.130818 0.165210 0.009116
v 0.241218 0.278361 -0.102064
v -0.000000 -0.000000 -0.000000
v 0.000000 0.377041 -0.370190
v -0.070000 0.316748 -0.163733
v -0.070000 0.167877 -0.040485
v 0.070000 0.167877 -0.040485
v 0.070000 0.316748 -0.163733
vt 0.4283 0.8236
vt 0.4528 0.8236
vt 0.4406 0.8613
vt 0.4406 0.7596
vt 0.4528 0.7898
vt 0.4283 0.7898
vt 0.4283 0.8236
vt 0.4528 0.8236
vt 0.4406 0.8613
vt 0.4406 0.7596
vt 0.4528 0.7898
vt 0.4283 0.7898
vn -0.1653 0.9754 -0.1461
vn -0.7777 0.4448 0.4442
vn -0.5864 0.7815 0.2131
vn 0.0000 0.9599 0.2803
vn 0.0000 0.2344 0.9721
vn 0.0000 0.6377 0.7703
s off
f 3/1/1 6/2/1 2/3/1
f 1/4/2 5/5/2 4/6/2
f 4/6/3 5/5/3 6/2/3 3/1/3
f 9/7/4 12/8/4 8/9/4
f 7/10/5 11/11/5 10/12/5
f 10/12/6 11/11/6 12/8/6 9/7/6
