# Blender v2.78 (sub 0) OBJ File: 'Low_Poly_Vegetation_Pack.blend'
# www.blender.org
g Plant_k_OneS_04
v 0.001195 -0.001592 0.001579
v 0.131436 0.128357 0.067803
v 0.079315 0.138805 0.121100
v 0.161513 0.143852 0.137430
v 0.073047 0.065366 -0.000275
v -0.000327 0.074128 0.064138
v 0.039849 0.066892 0.036411
v 0.112974 0.124911 0.101953
v -0.000411 -0.002390 -0.001429
v -0.110207 0.087014 -0.165304
v -0.034268 0.091697 -0.199397
v -0.110420 0.075630 -0.250283
v -0.077867 0.053906 -0.053086
v 0.024641 0.057586 -0.088678
v -0.027972 0.050682 -0.075579
v -0.076061 0.076466 -0.189513
v -0.001869 -0.001836 -0.000610
v -0.143288 0.156952 0.004630
v -0.113787 0.154929 -0.069358
v -0.181358 0.163608 -0.053635
v -0.062806 0.076723 0.036936
v -0.031614 0.078092 -0.062017
v -0.051677 0.074688 -0.013158
v -0.134133 0.148178 -0.033625
v 0.001340 -0.002342 -0.001436
v 0.085281 0.139046 -0.157766
v 0.151484 0.139046 -0.095998
v 0.160899 0.158508 -0.172451
v 0.005690 0.069003 -0.092519
v 0.091903 0.069003 -0.012081
v 0.053413 0.062502 -0.057248
v 0.124262 0.129869 -0.133184
vt 0.3106 0.8383
vt 0.3254 0.8380
vt 0.3106 0.8578
vt 0.2957 0.8380
vt 0.3106 0.7653
vt 0.3298 0.7977
vt 0.3106 0.7981
vt 0.2913 0.7977
vt 0.3106 0.8383
vt 0.3254 0.8380
vt 0.3106 0.8578
vt 0.2957 0.8380
vt 0.3106 0.7653
vt 0.3298 0.7977
vt 0.3106 0.7981
vt 0.2913 0.7977
vt 0.4370 0.8383
vt 0.4518 0.8380
vt 0.4370 0.8578
vt 0.4222 0.8380
vt 0.4370 0.7653
vt 0.4563 0.7977
vt 0.4370 0.7981
vt 0.4177 0.7977
vt 0.4370 0.8383
vt 0.4518 0.8380
vt 0.4370 0.8578
vt 0.4222 0.8380
vt 0.4370 0.7653
vt 0.4563 0.7977
vt 0.4370 0.7981
vt 0.4177 0.7977
vn 0.0521 0.8496 -0.5249
vn -0.3147 0.9463 -0.0746
vn -0.3881 0.5824 -0.7143
vn -0.1537 0.7874 -0.5970
vn -0.4547 0.8353 -0.3090
vn -0.5778 0.6048 -0.5480
vn -0.3046 0.9391 0.1593
vn 0.2070 0.9696 -0.1304
vn 0.0352 0.8188 0.5730
vn -0.1424 0.9374 0.3178
vn 0.2462 0.9557 0.1613
vn 0.2744 0.8273 0.4901
vn 0.1869 0.9404 0.2841
vn 0.3563 0.9257 -0.1271
vn 0.7580 0.5507 0.3496
vn 0.5920 0.7166 0.3688
vn 0.6736 0.7362 0.0646
vn 0.8154 0.5567 0.1585
vn -0.4996 0.8522 0.1554
vn -0.1205 0.8522 0.5092
vn -0.5506 0.7527 0.3609
vn -0.5257 0.8081 0.2657
vn -0.2286 0.8081 0.5429
vn -0.3219 0.7527 0.5742
s off
f 8/1/1 3/2/1 4/3/1
f 2/4/2 8/1/2 4/3/2
f 1/5/3 6/6/3 7/7/3
f 7/7/4 6/6/4 3/2/4 8/1/4
f 5/8/5 7/7/5 8/1/5 2/4/5
f 5/8/6 1/5/6 7/7/6
f 16/9/7 11/10/7 12/11/7
f 10/12/8 16/9/8 12/11/8
f 9/13/9 14/14/9 15/15/9
f 15/15/10 14/14/10 11/10/10 16/9/10
f 13/16/11 15/15/11 16/9/11 10/12/11
f 13/16/12 9/13/12 15/15/12
f 24/17/13 19/18/13 20/19/13
f 18/20/14 24/17/14 20/19/14
f 17/21/15 22/22/15 23/23/15
f 23/23/16 22/22/16 19/18/16 24/17/16
f 21/24/17 23/23/17 24/17/17 18/20/17
f 21/24/18 17/21/18 23/23/18
f 32/25/19 27/26/19 28/27/19
f 26/28/20 32/25/20 28/27/20
f 25/29/21 30/30/21 31/31/21
f 31/31/22 30/30/22 27/26/22 32/25/22
f 29/32/23 31/31/23 32/25/23 26/28/23
f 29/32/24 25/29/24 31/31/24
