# Blender v2.78 (sub 0) OBJ File: 'Low_Poly_Vegetation_Pack.blend'
# www.blender.org
g Plant_g_OneS_01
v -0.007380 0.245213 -0.034280
v 0.008347 0.245333 -0.034247
v 0.002351 0.629852 -0.171888
v -0.050418 0.494555 -0.133715
v -0.059892 0.372201 -0.088222
v 0.068166 0.373201 -0.088058
v 0.053853 0.495370 -0.133581
v -0.004341 0.000000 -0.000875
v 0.004341 0.000000 -0.000875
vt 0.0618 0.8573
vt 0.0547 0.8382
vt 0.0689 0.8383
vt 0.0627 0.8017
vt 0.0606 0.8017
vt 0.0610 0.7681
vt 0.0622 0.7681
vt 0.0708 0.8206
vt 0.0534 0.8204
vn -0.0034 0.2728 0.9621
vn -0.0020 0.1349 0.9909
vn -0.0043 0.3895 0.9210
vn -0.0039 0.3488 0.9372
s off
f 3/1/1 4/2/1 7/3/1
f 2/4/2 1/5/2 8/6/2 9/7/2
f 1/5/3 2/4/3 6/8/3 5/9/3
f 4/2/4 5/9/4 6/8/4 7/3/4
