# Blender v2.78 (sub 0) OBJ File: 'Low_Poly_Vegetation_Pack.blend'
# www.blender.org
g Plant_i_OneS_07
v 0.095461 0.368661 0.041631
v 0.097096 0.382953 0.018336
v 0.146965 0.390822 0.042752
v 0.033682 0.354394 0.017392
v 0.112315 0.401010 -0.000445
v 0.090513 0.403957 -0.039191
v 0.172505 0.455944 -0.052351
v 0.069289 0.404180 -0.048914
v 0.039224 0.401841 -0.058198
v 0.065943 0.449333 -0.103848
v -0.013460 0.429179 -0.102487
v -0.006246 0.385338 -0.050283
v 0.020910 0.395250 -0.053838
v 0.017366 0.267049 0.019485
v 0.166630 0.284892 0.031830
v 0.104290 0.274929 0.010025
v 0.100421 0.286195 0.040527
v 0.167503 0.320125 0.118972
v 0.110229 0.295666 0.058546
v 0.087858 0.304587 0.086876
v 0.000592 0.310608 0.201356
v 0.024350 0.301619 0.121228
v -0.010633 0.289641 0.121214
v 0.101432 0.334860 0.197638
v 0.080683 0.309207 0.101900
v 0.040515 0.306917 0.121726
v -0.063555 0.263456 -0.063757
v -0.197955 0.382129 -0.144565
v -0.152407 0.322764 -0.096640
v -0.130825 0.325688 -0.129523
v -0.099141 0.390394 -0.254666
v -0.111786 0.325410 -0.151637
v -0.057692 0.321726 -0.164375
v 0.006206 0.308991 -0.190998
v -0.040418 0.299155 -0.139582
v -0.013011 0.281289 -0.129536
v -0.223871 0.356936 -0.048739
v -0.158678 0.302136 -0.039290
v -0.153524 0.314526 -0.073134
v 0.003192 0.000000 0.006454
v 0.010659 0.216928 0.022698
v -0.007185 0.000000 -0.000463
v 0.002882 0.216928 0.017514
v 0.003994 0.000000 -0.005991
v 0.011260 0.216928 0.013371
v 0.034170 0.354170 0.017409
v 0.033406 0.354393 0.017341
v 0.033878 0.354483 0.016767
v 0.003062 0.228032 0.021016
v -0.063862 0.263733 -0.064102
v -0.063515 0.263611 -0.064334
v -0.063726 0.263505 -0.063706
vt 0.8011 0.8253
vt 0.8102 0.7620
vt 0.8192 0.8253
vt 0.8102 0.8662
vt 0.8017 0.8212
vt 0.8186 0.8212
vt 0.8102 0.8662
vt 0.8023 0.8172
vt 0.8181 0.8172
vt 0.8102 0.8662
vt 0.8020 0.8194
vt 0.8184 0.8194
vt 0.8102 0.8662
vt 0.9637 0.8219
vt 0.9722 0.7620
vt 0.9808 0.8219
vt 0.9722 0.8662
vt 0.9640 0.8194
vt 0.9804 0.8194
vt 0.9722 0.8662
vt 0.9638 0.8212
vt 0.9807 0.8212
vt 0.9722 0.8662
vt 0.9643 0.8172
vt 0.9801 0.8172
vt 0.9722 0.8662
vt 0.9643 0.8172
vt 0.9722 0.7620
vt 0.9801 0.8172
vt 0.9722 0.8662
vt 0.9638 0.8212
vt 0.9807 0.8212
vt 0.9722 0.8662
vt 0.9632 0.8253
vt 0.9813 0.8253
vt 0.9722 0.8662
vt 0.9640 0.8194
vt 0.9804 0.8194
vt 0.9722 0.8662
vt 0.9348 0.7609
vt 0.9345 0.8189
vt 0.9320 0.8185
vt 0.9315 0.7607
vt 0.9295 0.8185
vt 0.9282 0.7607
vt 0.9381 0.7607
vt 0.9369 0.8185
vt 0.9306 0.8679
vt 0.9298 0.8677
vt 0.9297 0.8180
vt 0.9319 0.8215
vt 0.9290 0.8678
vt 0.9282 0.8676
vt 0.9407 0.7627
vt 0.9442 0.7607
vt 0.9416 0.7871
vt 0.9411 0.7871
vt 0.9381 0.7611
vt 0.9407 0.7872
vt 0.9466 0.7614
vt 0.9420 0.7872
vn -0.3689 0.8036 0.4671
vn -0.3575 0.8070 0.4700
vn -0.4684 0.8212 0.3260
vn -0.4326 0.8474 0.3078
vn -0.2213 0.8332 0.5068
vn -0.2502 0.7404 0.6238
vn -0.2336 0.8248 0.5150
vn -0.1853 0.7397 0.6469
vn -0.1228 0.9258 -0.3575
vn -0.0275 0.9366 -0.3494
vn -0.1208 0.9155 -0.3836
vn -0.0487 0.9410 -0.3348
vn -0.3102 0.9064 -0.2867
vn -0.3174 0.9273 -0.1982
vn -0.2079 0.9263 -0.3142
vn -0.1643 0.9611 -0.2219
vn 0.4254 0.8332 0.3533
vn 0.5299 0.7404 0.4136
vn 0.1757 0.8474 0.5010
vn 0.1832 0.8212 0.5404
vn 0.3523 0.8070 0.4739
vn 0.3464 0.8036 0.4840
vn 0.4299 0.8248 0.3674
vn 0.5700 0.7398 0.3576
vn -0.5541 -0.0432 0.8313
vn -0.4413 0.0944 -0.8924
vn 0.9972 -0.0391 0.0643
vn 0.9859 -0.1653 0.0254
vn -0.5990 0.1194 -0.7918
vn -0.5377 -0.2457 0.8066
vn -0.1266 0.0595 0.9902
vn 0.6770 0.6965 -0.2378
vn -0.8084 -0.1776 0.5611
vn -0.1944 -0.9116 -0.3622
s off
f 2/1/1 4/2/1 1/3/1
f 2/1/2 1/3/2 3/4/2
f 6/5/3 5/6/3 7/7/3
f 6/5/4 4/2/4 5/6/4
f 9/8/5 4/2/5 8/9/5
f 9/8/6 8/9/6 10/10/6
f 12/11/7 4/2/7 13/12/7
f 12/11/8 13/12/8 11/13/8
f 16/14/9 14/15/9 17/16/9
f 16/14/10 17/16/10 15/17/10
f 19/18/11 14/15/11 20/19/11
f 19/18/12 20/19/12 18/20/12
f 22/21/13 14/15/13 23/22/13
f 22/21/14 23/22/14 21/23/14
f 25/24/15 14/15/15 26/25/15
f 25/24/16 26/25/16 24/26/16
f 29/27/17 27/28/17 30/29/17
f 29/27/18 30/29/18 28/30/18
f 32/31/19 27/28/19 33/32/19
f 32/31/20 33/32/20 31/33/20
f 35/34/21 36/35/21 34/36/21
f 35/34/22 27/28/22 36/35/22
f 38/37/23 27/28/23 39/38/23
f 38/37/24 39/38/24 37/39/24
f 40/40/25 41/41/25 43/42/25 42/43/25
f 42/43/26 43/42/26 45/44/26 44/45/26
f 44/46/27 45/47/27 41/41/27 40/40/27
f 41/41/28 45/47/28 48/48/28 46/49/28
f 45/50/29 49/51/29 47/52/29 48/53/29
f 43/42/30 41/41/30 49/51/30
f 49/51/31 41/41/31 46/49/31 47/52/31
f 49/54/32 45/55/32 51/56/32 52/57/32
f 43/58/33 49/54/33 52/57/33 50/59/33
f 45/55/34 43/60/34 50/61/34 51/56/34
