# Blender v2.78 (sub 0) OBJ File: 'Low_Poly_Vegetation_Pack.blend'
# www.blender.org
g Plant_a_OneS_01
v -0.000000 -0.000000 -0.000000
v 0.000000 0.593029 -1.016893
v -0.091259 0.520264 -0.680320
v -0.180727 0.323214 -0.295979
v -0.163512 0.091122 -0.047917
v 0.163512 0.091122 -0.047917
v 0.180727 0.323214 -0.295979
v 0.091259 0.520264 -0.680320
vt 0.0546 0.8310
vt 0.0698 0.8317
vt 0.0607 0.8601
vt 0.0659 0.7583
vt 0.0791 0.7676
vt 0.0518 0.7662
vt 0.0791 0.7961
vt 0.0489 0.7945
vn 0.0000 0.9774 0.2113
vn 0.0000 0.4654 0.8851
vn 0.0000 0.7302 0.6832
vn 0.0000 0.8899 0.4562
s off
f 3/1/1 8/2/1 2/3/1
f 1/4/2 6/5/2 5/6/2
f 5/6/3 6/5/3 7/7/3 4/8/3
f 4/8/4 7/7/4 8/2/4 3/1/4
