# Blender v2.78 (sub 0) OBJ File: 'Low_Poly_Vegetation_Pack.blend'
# www.blender.org
g Plant_i_OneS_01
v 0.057688 0.394839 -0.052426
v -0.020467 0.467347 -0.147601
v 0.001994 0.431390 -0.098898
v 0.023411 0.430270 -0.117913
v 0.069852 0.463170 -0.206070
v 0.040973 0.428021 -0.129582
v 0.081312 0.425279 -0.127742
v 0.131117 0.414705 -0.132599
v 0.088569 0.412357 -0.104687
v 0.105769 0.401379 -0.090470
v -0.057047 0.459580 -0.083254
v -0.013452 0.422992 -0.057993
v -0.003317 0.428139 -0.081883
v 0.043994 0.338532 -0.042777
v 0.142022 0.372529 0.063027
v 0.113584 0.360533 0.006556
v 0.090826 0.356186 0.027623
v 0.059939 0.367569 -0.190958
v 0.036743 0.351218 -0.131028
v 0.068768 0.356160 -0.126236
v 0.190470 0.390171 -0.203509
v 0.108777 0.364407 -0.146475
v 0.142282 0.358367 -0.116451
v 0.254352 0.393087 0.009472
v 0.169962 0.361054 -0.034834
v 0.158618 0.367467 0.008263
v 0.273905 0.400370 -0.112584
v 0.159793 0.360313 -0.105746
v 0.175166 0.361015 -0.054491
v -0.089305 0.308997 -0.041558
v -0.006614 0.297462 0.045020
v -0.067363 0.305932 -0.000249
v -0.049616 0.301386 -0.017802
v 0.130114 0.300837 0.081276
v 0.075789 0.294896 0.049976
v 0.067153 0.300398 0.082487
v -0.201141 0.348579 0.038782
v -0.128850 0.327570 0.062712
v -0.128664 0.324716 0.020424
v 0.088629 0.335371 0.202598
v 0.069823 0.316947 0.135878
v 0.036347 0.320879 0.154968
v 0.002250 0.362609 0.314613
v 0.029445 0.327594 0.201889
v -0.031322 0.320227 0.203118
v -0.206092 0.365106 0.160888
v -0.103016 0.319965 0.133889
v -0.127028 0.329669 0.087996
v -0.139805 0.373758 0.276996
v -0.055212 0.322800 0.191136
v -0.108983 0.324939 0.159560
v 0.003535 0.000000 -0.006272
v 0.012752 0.216928 -0.021591
v 0.003664 0.000000 0.006198
v 0.012849 0.216928 -0.012246
v -0.007200 0.000000 0.000074
v 0.004707 0.216928 -0.016835
v 0.057220 0.394476 -0.053215
v 0.057839 0.394845 -0.052104
v 0.056990 0.394856 -0.052398
v 0.015641 0.228032 -0.014367
v -0.006696 0.297444 0.045599
v -0.007099 0.297399 0.045441
v -0.006487 0.297704 0.045171
vt 0.8098 0.8153
vt 0.8177 0.7604
vt 0.8255 0.8153
vt 0.8177 0.8640
vt 0.8093 0.8192
vt 0.8261 0.8192
vt 0.8177 0.8640
vt 0.8087 0.8233
vt 0.8267 0.8233
vt 0.8177 0.8640
vt 0.8095 0.8174
vt 0.8258 0.8174
vt 0.8177 0.8640
vt 0.8349 0.8233
vt 0.8529 0.8233
vt 0.8439 0.8640
vt 0.8354 0.8200
vt 0.8439 0.7604
vt 0.8524 0.8200
vt 0.8439 0.8640
vt 0.8357 0.8174
vt 0.8520 0.8174
vt 0.8439 0.8640
vt 0.8355 0.8192
vt 0.8523 0.8192
vt 0.8439 0.8640
vt 0.8360 0.8153
vt 0.8517 0.8153
vt 0.8439 0.8640
vt 0.9266 0.8252
vt 0.9451 0.8252
vt 0.9359 0.8640
vt 0.9266 0.8252
vt 0.9451 0.8252
vt 0.9359 0.8640
vt 0.9359 0.7604
vt 0.9266 0.8252
vt 0.9451 0.8252
vt 0.9359 0.8640
vt 0.9266 0.8252
vt 0.9451 0.8252
vt 0.9359 0.8640
vt 0.9266 0.8252
vt 0.9451 0.8252
vt 0.9359 0.8640
vt 0.9279 0.8163
vt 0.9438 0.8163
vt 0.9359 0.8640
vt 0.9277 0.8176
vt 0.9440 0.8176
vt 0.9359 0.8640
vt 0.7788 0.7587
vt 0.7785 0.8185
vt 0.7759 0.8181
vt 0.7754 0.7585
vt 0.7733 0.8182
vt 0.7719 0.7585
vt 0.7822 0.7585
vt 0.7810 0.8182
vt 0.7744 0.8692
vt 0.7736 0.8690
vt 0.7735 0.8176
vt 0.7758 0.8213
vt 0.7728 0.8691
vt 0.7719 0.8689
vt 0.7848 0.7605
vt 0.7885 0.7585
vt 0.7858 0.7858
vt 0.7853 0.7858
vt 0.7822 0.7589
vt 0.7849 0.7859
vt 0.7909 0.7592
vt 0.7862 0.7859
vn 0.3246 0.8926 0.3130
vn 0.4088 0.8141 0.4125
vn 0.0450 0.9212 0.3864
vn 0.0417 0.9018 0.4301
vn 0.2222 0.8832 0.4131
vn 0.2138 0.8812 0.4217
vn 0.3251 0.8866 0.3290
vn 0.4622 0.8060 0.3698
vn -0.2549 0.9640 -0.0764
vn -0.1732 0.9728 0.1541
vn -0.1779 0.9647 0.1943
vn -0.0270 0.9737 0.2261
vn -0.0935 0.9507 0.2956
vn -0.1615 0.9691 -0.1867
vn -0.2505 0.9458 -0.2067
vn -0.1657 0.9855 0.0362
vn -0.3255 0.9417 0.0847
vn -0.2527 0.9647 -0.0739
vn 0.2110 0.9767 -0.0396
vn -0.0101 0.9855 -0.1695
vn 0.1859 0.9804 -0.0660
vn 0.2977 0.9526 -0.0630
vn -0.0032 0.9783 -0.2071
vn -0.0333 0.9658 -0.2573
vn -0.1220 0.9795 -0.1601
vn -0.1204 0.9394 -0.3209
vn 0.2771 0.9591 0.0578
vn 0.3980 0.9173 -0.0143
vn 0.1166 0.9844 -0.1319
vn 0.2261 0.9191 -0.3227
vn 0.0401 0.9869 -0.1564
vn 0.2298 0.9711 -0.0645
vn 0.9990 -0.0432 -0.0103
vn -0.4888 0.0944 0.8672
vn -0.5085 -0.0391 -0.8602
vn -0.5588 -0.0047 -0.8293
vn -0.4810 0.3065 0.8214
vn 0.9693 -0.2457 -0.0100
vn 0.9655 -0.2543 -0.0563
vn -0.3791 0.5298 -0.7587
vn 0.8736 -0.1252 0.4703
vn -0.3866 -0.5987 0.7015
s off
f 3/1/1 1/2/1 4/3/1
f 3/1/2 4/3/2 2/4/2
f 6/5/3 1/2/3 7/6/3
f 6/5/4 7/6/4 5/7/4
f 9/8/5 10/9/5 8/10/5
f 9/8/6 1/2/6 10/9/6
f 12/11/7 1/2/7 13/12/7
f 12/11/8 13/12/8 11/13/8
f 16/14/9 17/15/9 15/16/9
f 19/17/10 14/18/10 20/19/10
f 19/17/11 20/19/11 18/20/11
f 22/21/12 14/18/12 23/22/12
f 22/21/13 23/22/13 21/23/13
f 25/24/14 14/18/14 26/25/14
f 25/24/15 26/25/15 24/26/15
f 28/27/16 14/18/16 29/28/16
f 28/27/17 29/28/17 27/29/17
f 16/14/18 14/18/18 17/15/18
f 32/30/19 33/31/19 30/32/19
f 35/33/20 36/34/20 34/35/20
f 32/30/21 31/36/21 33/31/21
f 38/37/22 39/38/22 37/39/22
f 41/40/23 31/36/23 42/41/23
f 41/40/24 42/41/24 40/42/24
f 44/43/25 31/36/25 45/44/25
f 44/43/26 45/44/26 43/45/26
f 47/46/27 31/36/27 48/47/27
f 47/46/28 48/47/28 46/48/28
f 50/49/29 31/36/29 51/50/29
f 50/49/30 51/50/30 49/51/30
f 35/33/31 31/36/31 36/34/31
f 38/37/32 31/36/32 39/38/32
f 52/52/33 53/53/33 55/54/33 54/55/33
f 54/55/34 55/54/34 57/56/34 56/57/34
f 56/58/35 57/59/35 53/53/35 52/52/35
f 53/53/36 57/59/36 60/60/36 58/61/36
f 57/62/37 61/63/37 59/64/37 60/65/37
f 55/54/38 53/53/38 61/63/38
f 61/63/39 53/53/39 58/61/39 59/64/39
f 61/66/40 57/67/40 63/68/40 64/69/40
f 55/70/41 61/66/41 64/69/41 62/71/41
f 57/67/42 55/72/42 62/73/42 63/68/42
