# Blender v2.78 (sub 0) OBJ File: 'Low_Poly_Vegetation_Pack.blend'
# www.blender.org
g Plant_f_OneS_04
v -0.223118 0.232499 0.061766
v -0.192088 0.211406 -0.079353
v -0.324338 0.205955 -0.012841
v -0.316439 0.200586 -0.048761
v -0.373378 0.198908 -0.048877
v -0.126046 0.241684 0.073248
v -0.098503 0.222962 -0.052014
v -0.205689 0.210529 -0.006666
v -0.291995 0.201140 -0.024240
v -0.086053 0.223543 0.017695
v -0.004608 0.000000 -0.009657
v 0.021112 0.353541 -0.034042
v 0.011096 0.000000 0.001132
v 0.030548 0.355274 -0.027718
v -0.006100 0.000000 0.009338
v 0.018516 0.345280 -0.020432
v -0.012053 0.183276 0.001029
v -0.000365 0.184046 0.009059
v -0.013163 0.177564 0.015167
v 0.004162 0.444252 -0.170979
v 0.156589 0.444552 -0.066355
v 0.119578 0.543825 -0.219800
v 0.161793 0.543326 -0.189527
v 0.158341 0.605295 -0.250539
v -0.042823 0.371352 -0.083962
v 0.092476 0.371619 0.008905
v 0.085926 0.433148 -0.126721
v 0.129714 0.514143 -0.190748
v 0.012513 0.342684 -0.019505
v -0.010275 0.192856 0.011921
v -0.101548 0.220791 0.008320
v -0.103097 0.221218 0.015086
v -0.092363 0.221723 0.013752
vt 0.1837 0.6639
vt 0.1858 0.6431
vt 0.2170 0.6612
vt 0.2084 0.6659
vt 0.2324 0.6659
vt 0.1824 0.6847
vt 0.1550 0.6802
vt 0.1492 0.6610
vt 0.1580 0.6431
vt 0.2161 0.6718
vt 0.0220 0.6847
vt 0.0220 0.7264
vt 0.0172 0.7264
vt 0.0172 0.6847
vt 0.0124 0.6885
vt 0.0124 0.6847
vt 0.0268 0.6885
vt 0.0220 0.6847
vt 0.0268 0.6885
vt 0.0268 0.6431
vt 0.0268 0.6847
vt 0.0220 0.6431
vt 0.0172 0.6431
vt 0.0124 0.6431
vt 0.0631 0.6639
vt 0.0651 0.6431
vt 0.0964 0.6612
vt 0.0878 0.6659
vt 0.1118 0.6659
vt 0.0617 0.6847
vt 0.0344 0.6802
vt 0.0286 0.6610
vt 0.0374 0.6431
vt 0.0955 0.6718
vt 0.0268 0.6847
vt 0.0124 0.7264
vt 0.0268 0.7264
vt 0.0124 0.6885
vt 0.0124 0.6847
vn -0.0946 0.9954 0.0139
vn -0.0295 0.9995 0.0068
vn -0.0429 0.9446 -0.3255
vn -0.1147 0.9934 0.0011
vn -0.0193 0.9442 -0.3288
vn 0.0521 0.9643 -0.2595
vn 0.5628 -0.2700 -0.7812
vn 0.3755 0.1240 0.9185
vn 0.2485 0.7298 -0.6369
vn -0.9958 -0.0362 -0.0844
vn 0.4328 -0.0121 0.9014
vn 0.5635 0.0707 -0.8231
vn -0.5590 0.6663 0.4935
vn -0.5445 0.5729 0.6127
vn -0.2041 0.8078 0.5529
vn -0.4448 0.8074 0.3878
vn -0.2611 0.6666 0.6982
vn -0.3573 0.5881 0.7255
vn -0.0562 0.9955 -0.0757
vn 0.4117 0.1171 0.9038
vn -0.9828 0.1798 -0.0424
vn -0.4057 -0.8725 -0.2722
vn 0.0947 0.2010 0.9750
s off
f 8/1/1 2/2/1 4/3/1 9/4/1
f 9/4/2 4/3/2 5/5/2
f 8/1/3 1/6/3 6/7/3 10/8/3
f 2/2/4 8/1/4 10/8/4 7/9/4
f 1/6/5 8/1/5 9/4/5 3/10/5
f 3/10/6 9/4/6 5/5/6
f 17/11/7 12/12/7 14/13/7 18/14/7
f 18/14/8 30/15/8 19/16/8
f 30/17/9 17/11/9 31/18/9 33/19/9
f 15/20/10 19/21/10 17/11/10 11/22/10
f 13/23/11 18/14/11 19/16/11 15/24/11
f 11/22/12 17/11/12 18/14/12 13/23/12
f 27/25/13 21/26/13 23/27/13 28/28/13
f 28/28/14 23/27/14 24/29/14
f 27/25/15 20/30/15 25/31/15 29/32/15
f 21/26/16 27/25/16 29/32/16 26/33/16
f 20/30/17 27/25/17 28/28/17 22/34/17
f 22/34/18 28/28/18 24/29/18
f 32/35/19 33/19/19 31/18/19
f 30/15/20 18/14/20 14/13/20 16/36/20
f 17/11/21 30/17/21 16/37/21 12/12/21
f 17/11/22 19/21/22 32/35/22 31/18/22
f 19/16/23 30/15/23 33/38/23 32/39/23
