# Blender v2.78 (sub 0) OBJ File: 'Low_Poly_Vegetation_Pack.blend'
# www.blender.org
g Plant_d_OneS_03
v -0.006488 0.000000 -0.010770
v -0.019680 0.643566 0.030198
v 0.013871 0.000000 0.000485
v -0.005007 0.638879 0.038119
v -0.006056 0.000000 0.012489
v -0.020128 0.637670 0.046479
v -0.028316 0.329691 0.002680
v -0.013587 0.326258 0.010348
v -0.028424 0.326258 0.019286
v 0.172486 0.511966 0.358753
v -0.247475 0.700121 -0.000695
v 0.066837 0.725247 -0.174465
v -0.089151 0.697398 -0.087678
v -0.194908 0.636118 0.152231
v -0.088619 0.578804 0.269070
v 0.225669 0.603929 0.095312
v 0.175951 0.665765 -0.052802
v 0.066855 0.578248 0.177275
v -0.011148 0.637823 0.044798
v -0.049040 0.729435 -0.178917
v -0.183157 0.714834 -0.097915
vt 0.5631 0.8489
vt 0.5878 0.8493
vt 0.5873 0.8510
vt 0.5631 0.8505
vt 0.5873 0.8527
vt 0.5631 0.8522
vt 0.5631 0.8472
vt 0.5874 0.8476
vt 0.5389 0.8458
vt 0.5385 0.8481
vt 0.5388 0.8505
vt 0.5388 0.8527
vt 0.5746 0.8098
vt 0.5755 0.7752
vt 0.6032 0.7812
vt 0.6125 0.7976
vt 0.5737 0.8445
vt 0.6107 0.8232
vt 0.6016 0.8400
vt 0.5120 0.8081
vt 0.5478 0.8091
vt 0.5470 0.8385
vt 0.5485 0.7798
vt 0.6015 0.8105
vn 0.4812 0.0639 -0.8743
vn 0.5007 -0.0894 0.8610
vn -0.9996 0.0279 -0.0090
vn -0.9977 -0.0673 0.0023
vn 0.5159 0.0175 0.8565
vn 0.4787 0.0671 -0.8754
vn 0.0457 0.9222 0.3840
vn 0.1880 0.9343 0.3028
vn 0.1556 0.9536 0.2577
vn 0.1773 0.9350 0.3073
vn 0.0194 0.9427 0.3330
vn 0.0521 0.9249 0.3765
vn 0.0888 0.9269 0.3645
vn 0.1358 0.9310 0.3387
s off
f 7/1/1 2/2/1 4/3/1 8/4/1
f 8/4/2 4/3/2 6/5/2 9/6/2
f 9/7/3 6/8/3 2/2/3 7/1/3
f 5/9/4 9/7/4 7/1/4 1/10/4
f 3/11/5 8/4/5 9/6/5 5/12/5
f 1/10/6 7/1/6 8/4/6 3/11/6
f 19/13/7 17/14/7 12/15/7 20/16/7
f 14/17/8 19/13/8 21/18/8 11/19/8
f 10/20/9 18/21/9 15/22/9
f 15/22/10 18/21/10 19/13/10 14/17/10
f 10/20/11 16/23/11 18/21/11
f 18/21/12 16/23/12 17/14/12 19/13/12
f 20/16/13 13/24/13 19/13/13
f 21/18/14 19/13/14 13/24/14
