# Blender v2.78 (sub 0) OBJ File: 'Low_Poly_Vegetation_Pack.blend'
# www.blender.org
g Plant_a_OneS_06
v 0.007550 -0.000000 0.012604
v 0.610559 0.451046 0.371453
v 0.445066 0.385693 0.192388
v 0.251176 0.231049 0.002171
v 0.098053 0.059852 -0.070908
v -0.026925 0.071983 0.123857
v 0.113039 0.244457 0.217442
v 0.375314 0.392464 0.301090
v 0.001492 0.004053 -0.012825
v 0.175650 0.530573 -0.635946
v 0.083020 0.443938 -0.424462
v -0.026184 0.265411 -0.196719
v -0.085040 0.076390 -0.058699
v 0.104000 0.069741 -0.011482
v 0.129509 0.259935 -0.157830
v 0.152140 0.441506 -0.407197
v -0.025317 0.019231 -0.019747
v -0.516641 0.531722 0.136648
v -0.394373 0.475969 0.136155
v -0.152480 0.268920 0.159464
v -0.026900 0.075001 0.088474
v -0.057880 0.102914 -0.101975
v -0.190333 0.303027 -0.073240
v -0.403354 0.484060 0.080948
v -0.033393 -0.000000 -0.025755
v -0.741430 0.311285 -0.913191
v -0.596674 0.328997 -0.588173
v -0.402819 0.238891 -0.202359
v -0.203592 0.078220 0.021674
v 0.051149 0.073201 -0.183330
v -0.121258 0.233344 -0.428947
v -0.454499 0.326196 -0.702589
v -0.027228 -0.000000 0.011064
v -0.339582 0.593029 0.978797
v -0.188331 0.520264 0.673944
v -0.010321 0.323214 0.327535
v 0.088968 0.091122 0.098920
v -0.172861 0.091122 0.014409
v -0.225963 0.323214 0.257932
v -0.284066 0.520264 0.643044
v 0.029011 -0.000000 0.007077
v 0.907135 0.350058 -0.391520
v 0.722569 0.357223 -0.348545
v 0.288056 0.252315 -0.292182
v 0.033014 0.080471 -0.144685
v 0.147710 0.075994 0.105357
v 0.428201 0.246844 0.013337
v 0.755817 0.355926 -0.276063
vt 0.0467 0.8327
vt 0.0614 0.8335
vt 0.0526 0.8608
vt 0.0576 0.7627
vt 0.0703 0.7717
vt 0.0440 0.7703
vt 0.0703 0.7991
vt 0.0412 0.7976
vt 0.0177 0.8327
vt 0.0258 0.8333
vt 0.0198 0.8607
vt 0.0268 0.7627
vt 0.0373 0.7718
vt 0.0151 0.7702
vt 0.0334 0.7989
vt 0.0151 0.7976
vt 0.0829 0.8330
vt 0.0893 0.8336
vt 0.0846 0.8482
vt 0.0924 0.7631
vt 0.1027 0.7723
vt 0.0806 0.7703
vt 0.1027 0.7998
vt 0.0757 0.7974
vt 0.2069 0.8326
vt 0.2233 0.8334
vt 0.2135 0.8639
vt 0.2191 0.7545
vt 0.2333 0.7645
vt 0.2040 0.7630
vt 0.2333 0.7951
vt 0.2009 0.7934
vt 0.1462 0.8326
vt 0.1552 0.8332
vt 0.1485 0.8637
vt 0.1563 0.7545
vt 0.1679 0.7646
vt 0.1433 0.7629
vt 0.1636 0.7949
vt 0.1433 0.7935
vt 0.1760 0.8324
vt 0.1831 0.8331
vt 0.1779 0.8494
vt 0.1866 0.7545
vt 0.1981 0.7648
vt 0.1735 0.7626
vt 0.1981 0.7955
vt 0.1680 0.7928
vn -0.1867 0.9658 -0.1800
vn -0.7495 0.4253 -0.5074
vn -0.5818 0.6984 -0.4169
vn -0.3921 0.8676 -0.3057
vn -0.0564 0.9323 0.3572
vn -0.2187 0.3224 0.9210
vn -0.1706 0.6152 0.7697
vn -0.1159 0.8079 0.5778
vn 0.4142 0.9078 0.0657
vn 0.9592 0.2569 -0.1184
vn 0.8292 0.5565 -0.0533
vn 0.6499 0.7600 0.0057
vn -0.0178 0.9988 -0.0465
vn 0.4692 0.6775 0.5665
vn 0.3066 0.8814 0.3594
vn 0.1445 0.9772 0.1556
vn 0.0649 0.9774 -0.2011
vn 0.2719 0.4654 -0.8423
vn 0.2099 0.7302 -0.6502
vn 0.1401 0.8899 -0.4342
vn 0.0388 0.9992 0.0001
vn -0.6864 0.6499 0.3265
vn -0.4527 0.8633 0.2231
vn -0.2186 0.9687 0.1176
s off
f 3/1/1 8/2/1 2/3/1
f 1/4/2 6/5/2 5/6/2
f 5/6/3 6/5/3 7/7/3 4/8/3
f 4/8/4 7/7/4 8/2/4 3/1/4
f 11/9/5 16/10/5 10/11/5
f 9/12/6 14/13/6 13/14/6
f 13/14/7 14/13/7 15/15/7 12/16/7
f 12/16/8 15/15/8 16/10/8 11/9/8
f 19/17/9 24/18/9 18/19/9
f 17/20/10 22/21/10 21/22/10
f 21/22/11 22/21/11 23/23/11 20/24/11
f 20/24/12 23/23/12 24/18/12 19/17/12
f 27/25/13 32/26/13 26/27/13
f 25/28/14 30/29/14 29/30/14
f 29/30/15 30/29/15 31/31/15 28/32/15
f 28/32/16 31/31/16 32/26/16 27/25/16
f 35/33/17 40/34/17 34/35/17
f 33/36/18 38/37/18 37/38/18
f 37/38/19 38/37/19 39/39/19 36/40/19
f 36/40/20 39/39/20 40/34/20 35/33/20
f 43/41/21 48/42/21 42/43/21
f 41/44/22 46/45/22 45/46/22
f 45/46/23 46/45/23 47/47/23 44/48/23
f 44/48/24 47/47/24 48/42/24 43/41/24
