# Blender v2.78 (sub 0) OBJ File: 'Low_Poly_Vegetation_Pack.blend'
# www.blender.org
g Plant_g_OneS_02
v 0.031646 0.213295 -0.042678
v 0.041423 0.213399 -0.033110
v 0.121250 0.547867 -0.122491
v 0.065203 0.430181 -0.130747
v 0.031683 0.323753 -0.108160
v 0.111354 0.324623 -0.030315
v 0.130076 0.430889 -0.067361
v 0.013260 0.000000 -0.020024
v 0.018668 0.000000 -0.014754
v -0.029852 0.264087 -0.019462
v -0.020548 0.264210 -0.029568
v -0.136607 0.614483 -0.128797
v -0.117950 0.501115 -0.049195
v -0.084874 0.371433 -0.007668
v -0.009114 0.372437 -0.089952
v -0.056263 0.501932 -0.116195
v -0.003670 0.000000 0.002676
v 0.002346 0.000000 -0.003889
v -0.011850 0.130758 -0.003893
v -0.004184 0.130817 -0.012223
vt 0.0534 0.8640
vt 0.0452 0.8421
vt 0.0614 0.8423
vt 0.0544 0.8004
vt 0.0520 0.8004
vt 0.0524 0.7618
vt 0.0538 0.7618
vt 0.0637 0.8220
vt 0.0438 0.8218
vt 0.1890 0.8640
vt 0.1818 0.8433
vt 0.1961 0.8434
vt 0.1899 0.8037
vt 0.1878 0.8037
vt 0.1879 0.7824
vt 0.1897 0.7824
vt 0.1880 0.7618
vt 0.1894 0.7618
vt 0.1981 0.8215
vt 0.1806 0.8213
vn -0.6739 0.2728 0.6866
vn -0.6930 0.1349 0.7082
vn -0.6459 0.3895 0.6566
vn -0.6569 0.3488 0.6684
vn 0.6280 0.5138 0.5845
vn 0.7234 0.1756 0.6677
vn 0.7340 0.0797 0.6745
vn 0.7026 0.2887 0.6504
vn 0.6796 0.3752 0.6303
s off
f 3/1/1 4/2/1 7/3/1
f 2/4/2 1/5/2 8/6/2 9/7/2
f 1/5/3 2/4/3 6/8/3 5/9/3
f 4/2/4 5/9/4 6/8/4 7/3/4
f 12/10/5 13/11/5 16/12/5
f 11/13/6 10/14/6 19/15/6 20/16/6
f 20/16/7 19/15/7 17/17/7 18/18/7
f 10/14/8 11/13/8 15/19/8 14/20/8
f 13/11/9 14/20/9 15/19/9 16/12/9
