# Blender v2.78 (sub 0) OBJ File: 'Low_Poly_Vegetation_Pack.blend'
# www.blender.org
g Plant_c_OneS_02
v 0.012543 0.000000 -0.004901
v 0.056473 0.316953 0.067646
v 0.024769 0.000000 0.002654
v 0.064050 0.310337 0.071295
v 0.012113 0.000000 0.009465
v 0.054287 0.310226 0.075675
v 0.025583 0.162308 0.012759
v 0.034442 0.160187 0.017932
v 0.025019 0.160187 0.023003
v 0.125297 0.094554 0.221012
v -0.072334 0.398843 0.054298
v 0.130585 0.401150 -0.036729
v 0.040770 0.358040 0.033680
v -0.047151 0.288435 0.156547
v -0.011284 0.208530 0.189959
v 0.191636 0.210837 0.098932
v 0.192293 0.291157 0.049136
v 0.099286 0.209613 0.160363
v 0.070028 0.283826 0.097022
v -0.016044 0.000000 -0.004262
v -0.101757 0.426139 0.053734
v -0.024991 0.000000 0.014151
v -0.106717 0.419067 0.066292
v -0.036464 0.000000 -0.002804
v -0.115259 0.419067 0.053669
v -0.046233 0.216673 0.016166
v -0.052289 0.213652 0.029465
v -0.060831 0.213652 0.016841
v -0.368746 0.195813 0.235504
v -0.092996 0.519258 -0.143448
v 0.084540 0.519258 0.118932
v -0.047418 0.470425 0.016966
v -0.258434 0.401566 -0.065931
v -0.343108 0.322308 0.025788
v -0.165571 0.322308 0.288167
v -0.048941 0.401566 0.243676
v -0.248722 0.311908 0.153177
v -0.148070 0.391167 0.085072
vt 0.6732 0.8390
vt 0.7078 0.8397
vt 0.7070 0.8419
vt 0.6732 0.8412
vt 0.6733 0.8347
vt 0.7071 0.8353
vt 0.7070 0.8375
vt 0.6732 0.8369
vt 0.6396 0.8356
vt 0.6393 0.8388
vt 0.6398 0.8327
vt 0.6397 0.8419
vt 0.5696 0.8149
vt 0.5696 0.7821
vt 0.6073 0.7871
vt 0.5950 0.8149
vt 0.5696 0.8477
vt 0.6073 0.8427
vt 0.5104 0.8149
vt 0.5443 0.8149
vt 0.5442 0.8427
vt 0.5442 0.7871
vt 0.6851 0.8509
vt 0.7309 0.8518
vt 0.7301 0.8550
vt 0.6850 0.8540
vt 0.6852 0.8446
vt 0.7303 0.8455
vt 0.7302 0.8486
vt 0.6851 0.8478
vt 0.6399 0.8462
vt 0.6393 0.8506
vt 0.6401 0.8420
vt 0.6399 0.8550
vt 0.6961 0.7931
vt 0.6960 0.7603
vt 0.7337 0.7653
vt 0.7214 0.7931
vt 0.6960 0.8259
vt 0.7337 0.8209
vt 0.6368 0.7931
vt 0.6707 0.7931
vt 0.6706 0.8209
vt 0.6706 0.7653
vn 0.5392 0.1848 -0.8216
vn 0.4115 -0.3743 0.8310
vn -0.9768 0.2090 -0.0458
vn -0.9960 0.0833 -0.0330
vn 0.4709 -0.1119 0.8751
vn 0.5198 0.0505 -0.8528
vn 0.2282 0.6784 0.6984
vn 0.3570 0.6798 0.6406
vn 0.2204 0.4934 0.8414
vn 0.3009 0.5950 0.7453
vn 0.4777 0.4917 0.7280
vn 0.3458 0.5951 0.7254
vn 0.8853 0.1561 0.4381
vn -0.7888 -0.3047 0.5338
vn -0.0774 0.1561 -0.9847
vn -0.0678 0.0840 -0.9942
vn -0.8195 -0.1445 0.5545
vn 0.8976 0.0840 0.4327
vn -0.4947 0.8325 0.2495
vn -0.4156 0.8325 0.3665
vn -0.4711 0.7796 0.4127
vn -0.4062 0.8393 0.3614
vn -0.5587 0.7791 0.2841
vn -0.4866 0.8393 0.2426
s off
f 7/1/1 2/2/1 4/3/1 8/4/1
f 8/5/2 4/6/2 6/7/2 9/8/2
f 9/8/3 6/7/3 2/2/3 7/1/3
f 5/9/4 9/8/4 7/1/4 1/10/4
f 3/11/5 8/5/5 9/8/5 5/9/5
f 1/10/6 7/1/6 8/4/6 3/12/6
f 19/13/7 17/14/7 12/15/7 13/16/7
f 14/17/8 19/13/8 13/16/8 11/18/8
f 10/19/9 18/20/9 15/21/9
f 15/21/10 18/20/10 19/13/10 14/17/10
f 10/19/11 16/22/11 18/20/11
f 18/20/12 16/22/12 17/14/12 19/13/12
f 26/23/13 21/24/13 23/25/13 27/26/13
f 27/27/14 23/28/14 25/29/14 28/30/14
f 28/30/15 25/29/15 21/24/15 26/23/15
f 24/31/16 28/30/16 26/23/16 20/32/16
f 22/33/17 27/27/17 28/30/17 24/31/17
f 20/32/18 26/23/18 27/26/18 22/34/18
f 38/35/19 36/36/19 31/37/19 32/38/19
f 33/39/20 38/35/20 32/38/20 30/40/20
f 29/41/21 37/42/21 34/43/21
f 34/43/22 37/42/22 38/35/22 33/39/22
f 29/41/23 35/44/23 37/42/23
f 37/42/24 35/44/24 36/36/24 38/35/24
