# Blender v2.78 (sub 0) OBJ File: 'Low_Poly_Vegetation_Pack.blend'
# www.blender.org
g Plant_e_OneS_01
v -0.013491 0.000000 0.000000
v 0.013491 0.000000 0.000000
v -0.000000 0.476647 -0.397543
v -0.038764 0.353989 -0.208311
v -0.050075 0.182570 -0.078149
v 0.050075 0.182570 -0.078149
v 0.038764 0.353989 -0.208311
vt 0.8018 0.8273
vt 0.8144 0.8273
vt 0.8081 0.8639
vt 0.8059 0.7600
vt 0.8103 0.7600
vt 0.8163 0.7923
vt 0.8000 0.7923
vn 0.0000 0.8391 0.5439
vn 0.0000 0.3935 0.9193
vn 0.0000 0.6047 0.7964
s off
f 4/1/1 7/2/1 3/3/1
f 1/4/2 2/5/2 6/6/2 5/7/2
f 5/7/3 6/6/3 7/2/3 4/1/3
