# Blender v2.78 (sub 0) OBJ File: 'Low_Poly_Vegetation_Pack.blend'
# www.blender.org
g Plant_c_OneS_01
v 0.008365 0.000000 -0.009387
v -0.069877 0.484249 0.078412
v 0.003645 0.000000 0.013393
v -0.071838 0.476213 0.093629
v -0.013722 0.000000 -0.002085
v -0.084769 0.476213 0.082106
v -0.019193 0.246219 0.021537
v -0.022154 0.242787 0.037877
v -0.035085 0.242787 0.026354
v -0.331613 0.246220 0.372121
v -0.115232 0.590066 -0.141246
v 0.153534 0.590066 0.098263
v -0.020275 0.534574 0.022750
v -0.275852 0.456325 -0.009704
v -0.343543 0.366259 0.114954
v -0.074776 0.366259 0.354463
v 0.041291 0.456325 0.272916
v -0.204032 0.354441 0.228954
v -0.112153 0.444508 0.125852
vt 0.5647 0.8536
vt 0.5911 0.8541
vt 0.5907 0.8560
vt 0.5647 0.8554
vt 0.5907 0.8578
vt 0.5647 0.8573
vt 0.5648 0.8519
vt 0.5908 0.8522
vt 0.5388 0.8503
vt 0.5383 0.8528
vt 0.5386 0.8554
vt 0.5386 0.8578
vt 0.5728 0.8085
vt 0.5728 0.7725
vt 0.6143 0.7779
vt 0.6007 0.8085
vt 0.5728 0.8446
vt 0.6143 0.8392
vt 0.5076 0.8085
vt 0.5449 0.8085
vt 0.5448 0.8391
vt 0.5448 0.7780
vn 0.9657 0.1561 0.2073
vn -0.6337 -0.3047 0.7111
vn -0.3168 0.1561 -0.9356
vn -0.3098 0.0840 -0.9471
vn -0.6583 -0.1445 0.7387
vn 0.9764 0.0840 0.1991
vn -0.4183 0.8325 0.3633
vn -0.3129 0.8325 0.4573
vn -0.2678 0.8682 0.4177
vn -0.3050 0.8393 0.4501
vn -0.3842 0.8682 0.3139
vn -0.4121 0.8393 0.3546
s off
f 7/1/1 2/2/1 4/3/1 8/4/1
f 8/4/2 4/3/2 6/5/2 9/6/2
f 9/7/3 6/8/3 2/2/3 7/1/3
f 5/9/4 9/7/4 7/1/4 1/10/4
f 3/11/5 8/4/5 9/6/5 5/12/5
f 1/10/6 7/1/6 8/4/6 3/11/6
f 19/13/7 17/14/7 12/15/7 13/16/7
f 14/17/8 19/13/8 13/16/8 11/18/8
f 10/19/9 18/20/9 15/21/9
f 15/21/10 18/20/10 19/13/10 14/17/10
f 10/19/11 16/22/11 18/20/11
f 18/20/12 16/22/12 17/14/12 19/13/12
