# Blender v2.78 (sub 0) OBJ File: 'Low_Poly_Vegetation_Pack.blend'
# www.blender.org
g Plant_e_OneS_02
v -0.011515 0.002655 -0.001143
v 0.011515 -0.002655 0.001142
v 0.116614 0.302821 -0.392798
v 0.048889 0.265565 -0.204296
v -0.000356 0.158875 -0.085100
v 0.085124 0.139167 -0.076616
v 0.115061 0.250308 -0.197729
v -0.013085 -0.003121 0.001022
v 0.013085 0.003121 -0.001022
v -0.144859 0.493425 -0.347535
v -0.136811 0.350653 -0.168908
v -0.096918 0.171589 -0.055774
v 0.000218 0.194760 -0.063363
v -0.061616 0.368591 -0.174783
vt 0.9312 0.8275
vt 0.9436 0.8275
vt 0.9374 0.8637
vt 0.9352 0.7610
vt 0.9396 0.7610
vt 0.9455 0.7929
vt 0.9294 0.7929
vt 0.9312 0.8275
vt 0.9436 0.8275
vt 0.9374 0.8637
vt 0.9352 0.7610
vt 0.9396 0.7610
vt 0.9455 0.7929
vt 0.9294 0.7929
vn 0.1929 0.9471 0.2565
vn 0.0214 0.4721 0.8813
vn 0.0982 0.7210 0.6859
vn -0.1353 0.7710 0.6223
vn 0.0005 0.3094 0.9509
vn -0.0586 0.5239 0.8498
s off
f 4/1/1 7/2/1 3/3/1
f 1/4/2 2/5/2 6/6/2 5/7/2
f 5/7/3 6/6/3 7/2/3 4/1/3
f 11/8/4 14/9/4 10/10/4
f 8/11/5 9/12/5 13/13/5 12/14/5
f 12/14/6 13/13/6 14/9/6 11/8/6
