# Blender v2.78 (sub 0) OBJ File: 'Low_Poly_Vegetation_Pack.blend'
# www.blender.org
g FlowerBush_a_l_05
v -1.449482 0.791537 -0.625950
v -1.398781 0.917421 -0.641915
v -1.477855 0.817340 -0.574050
v -1.432482 0.929996 -0.588338
v -1.393213 0.837141 -0.672455
v -1.474821 0.891133 -0.505901
v -1.406964 1.005859 -0.590791
v -1.473095 1.046745 -0.478420
v -1.434234 0.948926 -0.577394
v -1.493416 0.985516 -0.476831
v -1.414964 1.072219 -0.536561
v -1.474822 0.891133 -0.505900
v -1.535051 1.001670 -0.410365
v -1.585752 0.875786 -0.394399
v -1.506678 0.975867 -0.462264
v -1.552051 0.863211 -0.447977
v -1.579649 0.952406 -0.355660
v -1.474823 0.891132 -0.505900
v -1.577569 0.787349 -0.445524
v -1.511437 0.746463 -0.557894
v -1.550299 0.844281 -0.458920
v -1.491117 0.807691 -0.559483
v -1.557898 0.717328 -0.491553
v -1.474822 0.891131 -0.505901
v -1.462991 0.880553 -0.551747
v -1.495014 0.849363 -0.520094
v -1.513944 0.880543 -0.479233
v -1.493621 0.931003 -0.485633
v -1.462130 0.931009 -0.530449
v -0.111377 0.964954 -1.493891
v -0.041423 1.076471 -1.457250
v -0.162065 0.998351 -1.471986
v -0.099462 1.098149 -1.439195
v -0.031440 0.995610 -1.485006
v -0.192680 1.072650 -1.411644
v -0.065754 1.166723 -1.415244
v -0.181587 1.225396 -1.372672
v -0.104670 1.117468 -1.430203
v -0.208332 1.169976 -1.392106
v -0.096113 1.235510 -1.373348
v -0.192681 1.072651 -1.411644
v -0.280109 1.197373 -1.369528
v -0.350063 1.085856 -1.406170
v -0.229421 1.163977 -1.391433
v -0.292024 1.064178 -1.424224
v -0.357997 1.161021 -1.364990
v -0.192682 1.072650 -1.411644
v -0.325732 0.995604 -1.448176
v -0.209899 0.936931 -1.490747
v -0.286815 1.044859 -1.433216
v -0.183154 0.992351 -1.471314
v -0.293324 0.921121 -1.476648
v -0.192681 1.072649 -1.411645
v -0.155066 1.057875 -1.438489
v -0.205042 1.035535 -1.440341
v -0.240536 1.071716 -1.419573
v -0.212495 1.116417 -1.404886
v -0.159672 1.107862 -1.416576
v 1.481022 0.955193 -0.652263
v 1.402294 0.959947 -0.763849
v 1.481175 0.891265 -0.663885
v 1.410720 0.895519 -0.763746
v 1.428500 1.006757 -0.696677
v 1.424254 0.809264 -0.702095
v 1.372002 0.891780 -0.834116
v 1.394394 0.758701 -0.855584
v 1.401937 0.880291 -0.777192
v 1.420964 0.760916 -0.795702
v 1.348762 0.825778 -0.884002
v 1.424254 0.809263 -0.702095
v 1.447569 0.685485 -0.807483
v 1.526297 0.680731 -0.695897
v 1.431413 0.744987 -0.784757
v 1.501868 0.740733 -0.684897
v 1.491130 0.631443 -0.756852
v 1.424255 0.809263 -0.702094
v 1.556620 0.748907 -0.625650
v 1.534228 0.881986 -0.604182
v 1.509292 0.755584 -0.670508
v 1.490265 0.874960 -0.651999
v 1.570711 0.812378 -0.569418
v 1.424255 0.809264 -0.702093
v 1.449680 0.847183 -0.687047
v 1.465880 0.798382 -0.683154
v 1.445909 0.771772 -0.722551
v 1.417366 0.804126 -0.750793
v 1.419697 0.850733 -0.728851
v -0.242690 1.911551 -0.369006
v -0.115105 1.943321 -0.331789
v -0.257046 1.929414 -0.308680
v -0.142868 1.957845 -0.275374
v -0.160826 1.907433 -0.395273
v -0.221985 1.942312 -0.215389
v -0.071244 1.978465 -0.246098
v -0.116116 2.012969 -0.121727
v -0.133480 1.965368 -0.257031
v -0.173637 1.996246 -0.145729
v -0.044236 2.000852 -0.167498
v -0.221985 1.942312 -0.215388
v -0.207570 2.014420 -0.075511
v -0.335154 1.982650 -0.112728
v -0.193213 1.996556 -0.135837
v -0.307391 1.968126 -0.169143
v -0.287330 2.004707 -0.044648
v -0.221987 1.942312 -0.215388
v -0.379015 1.947506 -0.198419
v -0.334143 1.913001 -0.322790
v -0.316779 1.960603 -0.187486
v -0.276622 1.929724 -0.298788
v -0.403920 1.911288 -0.272423
v -0.221986 1.942311 -0.215390
v -0.208617 1.943249 -0.262017
v -0.260563 1.941076 -0.244783
v -0.261866 1.958165 -0.192760
v -0.210725 1.970900 -0.177842
v -0.177815 1.961681 -0.220645
v -1.064566 1.610181 0.930210
v -0.970786 1.728283 0.856040
v -1.004924 1.608778 0.983380
v -0.920998 1.714470 0.917003
v -1.053857 1.664798 0.840318
v -0.875316 1.623246 0.999898
v -0.864714 1.789533 0.885750
v -0.759126 1.787795 1.016487
v -0.896387 1.725070 0.921778
v -0.801054 1.722410 1.038079
v -0.772556 1.828466 0.919830
v -0.875315 1.623246 0.999900
v -0.752493 1.723754 1.124839
v -0.846274 1.605652 1.199010
v -0.798860 1.707682 1.060628
v -0.882787 1.601990 1.127005
v -0.755770 1.659353 1.208549
v -0.875316 1.623244 0.999900
v -0.952370 1.544435 1.169321
v -1.057958 1.546173 1.038583
v -0.906271 1.589906 1.121293
v -1.001604 1.592567 1.004992
v -1.036941 1.495513 1.128929
v -0.875317 1.623244 0.999899
v -0.933714 1.619495 0.991478
v -0.905072 1.606462 1.046542
v -0.853398 1.642975 1.050878
v -0.850104 1.678575 0.998495
v -0.899742 1.664063 0.961784
v 1.169015 1.443030 0.487845
v 1.184350 1.469453 0.329715
v 1.234731 1.405690 0.479360
v 1.248455 1.429336 0.337847
v 1.119855 1.480227 0.407277
v 1.306118 1.349355 0.403472
v 1.265827 1.439704 0.245662
v 1.404132 1.357185 0.245286
v 1.265896 1.422968 0.319856
v 1.389669 1.349119 0.319520
v 1.336427 1.401152 0.183850
v 1.306119 1.349354 0.403472
v 1.469343 1.299413 0.328943
v 1.454008 1.272991 0.487072
v 1.403626 1.336753 0.337427
v 1.389903 1.313108 0.478940
v 1.509766 1.247588 0.406219
v 1.306119 1.349353 0.403474
v 1.372532 1.302740 0.571126
v 1.234226 1.385259 0.571501
v 1.372462 1.319476 0.496932
v 1.248689 1.393324 0.497268
v 1.293193 1.326663 0.629646
v 1.306118 1.349354 0.403474
v 1.266984 1.390927 0.406624
v 1.294597 1.362917 0.457815
v 1.349222 1.334731 0.438085
v 1.355369 1.345322 0.374700
v 1.304543 1.380054 0.355256
v 0.186409 0.619141 1.372246
v 0.275350 0.698351 1.305257
v 0.231682 0.573348 1.363562
v 0.311277 0.644235 1.303613
v 0.193850 0.694942 1.332386
v 0.308331 0.537528 1.298249
v 0.371267 0.686760 1.271088
v 0.463542 0.586032 1.274497
v 0.330807 0.640763 1.293799
v 0.412946 0.550184 1.295749
v 0.449149 0.664470 1.242409
v 0.308332 0.537526 1.298249
v 0.465114 0.490419 1.311341
v 0.376173 0.411208 1.378329
v 0.412875 0.529315 1.302621
v 0.333280 0.458429 1.362570
v 0.453773 0.410757 1.341456
v 0.308331 0.537526 1.298249
v 0.280270 0.422813 1.412532
v 0.187995 0.523540 1.409123
v 0.313158 0.461315 1.370906
v 0.231020 0.551894 1.368956
v 0.198406 0.441161 1.431261
v 0.308330 0.537527 1.298249
v 0.275052 0.555693 1.327799
v 0.299228 0.510868 1.335882
v 0.346497 0.514369 1.315573
v 0.351535 0.561357 1.294938
v 0.307379 0.586897 1.302495
v -1.663111 1.195872 -0.117407
v -1.435875 0.475512 0.517768
v -1.355567 1.559247 -0.082795
v -1.685336 0.668666 0.188998
v -1.252309 0.122479 -0.013785
v -1.478075 1.335892 0.665238
v -1.267773 1.683665 0.536142
v -1.264217 1.367933 -0.536898
v -1.515499 0.752296 -0.529485
v -0.684416 1.193472 -1.187713
v -0.000301 1.505355 -1.279012
v 0.572006 1.126234 -1.534346
v 1.077250 0.711962 -1.366400
v 0.542237 0.719234 -1.582989
v -0.516266 0.297503 -1.125636
v -0.391388 0.974965 -1.420572
v -0.959496 0.614329 -0.872554
v 0.829778 1.334050 -1.210588
v 1.673609 0.890738 -0.273227
v 1.495929 1.227440 0.426647
v 1.235920 0.985439 0.879560
v 1.586526 0.445136 -0.521355
v 1.476091 1.177632 -0.290746
v 1.678450 0.656831 0.378465
v 1.471169 0.671072 0.748378
v 1.197395 0.177849 0.627535
v 0.356424 0.389274 1.336661
v -0.251972 1.694347 1.174699
v -0.376354 1.069516 1.313375
v -0.103390 0.281499 1.355230
v 0.739643 0.495468 1.097024
v 0.365577 1.623369 0.956461
v -0.868011 1.582798 1.115872
v -0.672619 0.113686 1.003320
v -0.112443 -0.299957 0.126132
v 0.140093 -0.272014 0.730702
v -0.107573 -0.083288 -0.660151
v -0.928907 0.083857 -0.448071
v 1.078359 0.074013 -0.588558
v 0.742292 0.202778 -1.260176
v 0.444246 -0.050757 1.026595
v 1.295244 0.054100 0.159291
v -0.480624 -0.187129 0.663021
v -0.200700 2.078131 0.170468
v -0.777919 1.968019 0.195156
v 0.059788 1.994823 0.678183
v 0.525682 1.932698 0.058621
v 0.094214 1.922595 -0.446816
v -0.456093 1.808091 -0.524206
v -0.565436 1.996844 0.730360
v 0.577244 1.791659 0.546112
v -0.939817 1.027518 1.130192
v -0.121244 -0.000631 1.193880
v -0.945828 0.274959 0.736239
v -0.911338 1.222899 -0.857846
v 0.797345 1.710052 -0.336828
vt 0.4387 0.2661
vt 0.4694 0.3046
vt 0.4081 0.3046
vt 0.4730 0.3367
vt 0.4045 0.3367
vt 0.4387 0.3627
vt 0.4387 0.2661
vt 0.4694 0.3046
vt 0.4081 0.3046
vt 0.4730 0.3367
vt 0.4045 0.3367
vt 0.4387 0.3627
vt 0.4387 0.2661
vt 0.4694 0.3046
vt 0.4081 0.3046
vt 0.4730 0.3367
vt 0.4045 0.3367
vt 0.4387 0.3627
vt 0.4387 0.2661
vt 0.4694 0.3046
vt 0.4081 0.3046
vt 0.4730 0.3367
vt 0.4045 0.3367
vt 0.4387 0.3627
vt 0.5163 0.3262
vt 0.5342 0.2712
vt 0.5920 0.2712
vt 0.6099 0.3262
vt 0.5631 0.3602
vt 0.4387 0.2661
vt 0.4694 0.3046
vt 0.4081 0.3046
vt 0.4730 0.3367
vt 0.4045 0.3367
vt 0.4387 0.3627
vt 0.4387 0.2661
vt 0.4694 0.3046
vt 0.4081 0.3046
vt 0.4730 0.3367
vt 0.4045 0.3367
vt 0.4387 0.3627
vt 0.4387 0.2661
vt 0.4694 0.3046
vt 0.4081 0.3046
vt 0.4730 0.3367
vt 0.4045 0.3367
vt 0.4387 0.3627
vt 0.4387 0.2661
vt 0.4694 0.3046
vt 0.4081 0.3046
vt 0.4730 0.3367
vt 0.4045 0.3367
vt 0.4387 0.3627
vt 0.5163 0.3262
vt 0.5342 0.2712
vt 0.5920 0.2712
vt 0.6099 0.3262
vt 0.5631 0.3602
vt 0.3123 0.2584
vt 0.3451 0.2995
vt 0.2795 0.2995
vt 0.3489 0.3339
vt 0.2757 0.3339
vt 0.3123 0.3617
vt 0.3123 0.2584
vt 0.3451 0.2995
vt 0.2795 0.2995
vt 0.3489 0.3339
vt 0.2757 0.3339
vt 0.3123 0.3617
vt 0.3123 0.2584
vt 0.3451 0.2995
vt 0.2795 0.2995
vt 0.3489 0.3339
vt 0.2757 0.3339
vt 0.3123 0.3617
vt 0.3123 0.2584
vt 0.3451 0.2995
vt 0.2795 0.2995
vt 0.3489 0.3339
vt 0.2757 0.3339
vt 0.3123 0.3617
vt 0.5175 0.3245
vt 0.5349 0.2709
vt 0.5912 0.2709
vt 0.6087 0.3245
vt 0.5631 0.3576
vt 0.4387 0.2661
vt 0.4694 0.3046
vt 0.4081 0.3046
vt 0.4730 0.3367
vt 0.4045 0.3367
vt 0.4387 0.3627
vt 0.4387 0.2661
vt 0.4694 0.3046
vt 0.4081 0.3046
vt 0.4730 0.3367
vt 0.4045 0.3367
vt 0.4387 0.3627
vt 0.4387 0.2661
vt 0.4694 0.3046
vt 0.4081 0.3046
vt 0.4730 0.3367
vt 0.4045 0.3367
vt 0.4387 0.3627
vt 0.4387 0.2661
vt 0.4694 0.3046
vt 0.4081 0.3046
vt 0.4730 0.3367
vt 0.4045 0.3367
vt 0.4387 0.3627
vt 0.5163 0.3262
vt 0.5342 0.2712
vt 0.5920 0.2712
vt 0.6099 0.3262
vt 0.5631 0.3602
vt 0.3123 0.2584
vt 0.3451 0.2995
vt 0.2795 0.2995
vt 0.3489 0.3339
vt 0.2757 0.3339
vt 0.3123 0.3617
vt 0.3123 0.2584
vt 0.3451 0.2995
vt 0.2795 0.2995
vt 0.3489 0.3339
vt 0.2757 0.3339
vt 0.3123 0.3617
vt 0.3123 0.2584
vt 0.3451 0.2995
vt 0.2795 0.2995
vt 0.3489 0.3339
vt 0.2757 0.3339
vt 0.3123 0.3617
vt 0.3123 0.2584
vt 0.3451 0.2995
vt 0.2795 0.2995
vt 0.3489 0.3339
vt 0.2757 0.3339
vt 0.3123 0.3617
vt 0.5175 0.3245
vt 0.5349 0.2709
vt 0.5912 0.2709
vt 0.6087 0.3245
vt 0.5631 0.3576
vt 0.4387 0.2661
vt 0.4694 0.3046
vt 0.4081 0.3046
vt 0.4730 0.3367
vt 0.4045 0.3367
vt 0.4387 0.3627
vt 0.4387 0.2661
vt 0.4694 0.3046
vt 0.4081 0.3046
vt 0.4730 0.3367
vt 0.4045 0.3367
vt 0.4387 0.3627
vt 0.4387 0.2661
vt 0.4694 0.3046
vt 0.4081 0.3046
vt 0.4730 0.3367
vt 0.4045 0.3367
vt 0.4387 0.3627
vt 0.4387 0.2661
vt 0.4694 0.3046
vt 0.4081 0.3046
vt 0.4730 0.3367
vt 0.4045 0.3367
vt 0.4387 0.3627
vt 0.5163 0.3262
vt 0.5342 0.2712
vt 0.5920 0.2712
vt 0.6099 0.3262
vt 0.5631 0.3602
vt 0.3123 0.2584
vt 0.3451 0.2995
vt 0.2795 0.2995
vt 0.3489 0.3339
vt 0.2757 0.3339
vt 0.3123 0.3617
vt 0.3123 0.2584
vt 0.3451 0.2995
vt 0.2795 0.2995
vt 0.3489 0.3339
vt 0.2757 0.3339
vt 0.3123 0.3617
vt 0.3123 0.2584
vt 0.3451 0.2995
vt 0.2795 0.2995
vt 0.3489 0.3339
vt 0.2757 0.3339
vt 0.3123 0.3617
vt 0.3123 0.2584
vt 0.3451 0.2995
vt 0.2795 0.2995
vt 0.3489 0.3339
vt 0.2757 0.3339
vt 0.3123 0.3617
vt 0.5175 0.3245
vt 0.5349 0.2709
vt 0.5912 0.2709
vt 0.6087 0.3245
vt 0.5631 0.3576
vt 0.5472 0.9805
vt 0.5472 0.9891
vt 0.5389 0.9814
vt 0.5591 0.9806
vt 0.5632 0.9913
vt 0.5538 0.9822
vt 0.5627 0.9736
vt 0.5547 0.8840
vt 0.5643 0.8864
vt 0.5533 0.8916
vt 0.5406 0.8960
vt 0.5420 0.9061
vt 0.5349 0.9045
vt 0.5525 0.9122
vt 0.5479 0.9008
vt 0.5402 0.9720
vt 0.5517 0.9739
vt 0.5409 0.9636
vt 0.5504 0.9676
vt 0.5343 0.9636
vt 0.5359 0.9562
vt 0.5481 0.9577
vt 0.5418 0.9504
vt 0.5528 0.9449
vt 0.5414 0.9295
vt 0.5392 0.9200
vt 0.5492 0.9248
vt 0.5398 0.9124
vt 0.5522 0.9345
vt 0.5592 0.9307
vt 0.5595 0.9406
vt 0.5599 0.9151
vt 0.5517 0.9399
vt 0.5577 0.9494
vt 0.5710 0.9475
vt 0.5768 0.9454
vt 0.5782 0.9323
vt 0.5738 0.9294
vt 0.5839 0.9204
vt 0.5717 0.9099
vt 0.5884 0.9112
vt 0.5800 0.9556
vt 0.5884 0.9649
vt 0.5823 0.9612
vt 0.5875 0.9554
vt 0.5810 0.9709
vt 0.5760 0.9635
vt 0.5822 0.8943
vt 0.5750 0.9037
vt 0.5693 0.8995
vt 0.5556 0.8978
vt 0.5879 0.9018
vt 0.5732 0.8899
vt 0.5643 0.8956
vt 0.5747 0.9890
vt 0.5707 0.9784
vt 0.5640 0.9787
vt 0.5555 0.9603
vt 0.5620 0.9674
vt 0.5668 0.9529
vt 0.5726 0.9585
vt 0.5669 0.9700
vt 0.5714 0.9707
vt 0.5683 0.9751
vt 0.5668 0.9138
vt 0.5619 0.9084
vt 0.5661 0.9206
vt 0.5632 0.9025
vt 0.5674 0.9059
vt 0.5573 0.9047
vt 0.5745 0.9287
vt 0.5759 0.9760
vn -0.8953 0.3215 -0.3083
vn -0.7925 0.2486 -0.5569
vn -0.7166 0.2040 -0.6670
vn -0.8642 -0.0153 -0.5030
vn -0.7325 0.3757 -0.5678
vn -0.6282 0.1563 -0.7622
vn -0.8527 0.2882 -0.4357
vn -0.6594 0.4932 -0.5675
vn -0.8368 0.1165 -0.5349
vn -0.3677 0.4903 -0.7902
vn -0.1391 0.3868 -0.9116
vn -0.0185 0.3226 -0.9464
vn -0.2750 0.1465 -0.9502
vn -0.0657 0.4977 -0.8648
vn 0.1002 0.2533 -0.9622
vn -0.2569 0.4433 -0.8587
vn 0.0076 0.5970 -0.8022
vn -0.2097 0.2682 -0.9403
vn 0.7790 -0.2791 -0.5615
vn 0.8146 0.1056 -0.5703
vn 0.7775 0.3316 -0.5344
vn 0.9766 0.1750 -0.1247
vn 0.8864 0.2107 -0.4121
vn 0.7329 0.2268 -0.6415
vn 0.6490 0.6268 -0.4312
vn 0.7560 0.4024 -0.5162
vn 0.8134 0.1229 -0.5686
vn 0.4526 0.2066 -0.8674
vn 0.6942 0.2223 -0.6846
vn 0.8590 0.2192 -0.4627
vn 0.8012 0.2216 -0.5558
vn -0.2279 0.9725 -0.0488
vn -0.1428 0.9392 -0.3121
vn -0.0952 0.8944 -0.4370
vn -0.3950 0.8386 -0.3752
vn -0.0101 0.9626 -0.2707
vn -0.0467 0.8331 -0.5512
vn -0.1876 0.9654 -0.1810
vn 0.1204 0.9669 -0.2248
vn -0.2727 0.8972 -0.3473
vn -0.1669 0.6160 0.7699
vn -0.4626 0.7050 0.5376
vn -0.6088 0.7081 0.3577
vn -0.7308 0.3139 0.6062
vn -0.6246 0.5841 0.5184
vn -0.4778 0.7840 0.3963
vn -0.7619 0.6446 0.0630
vn -0.6500 0.7008 0.2940
vn -0.4746 0.7065 0.5250
vn -0.2232 0.9530 0.2048
vn -0.4384 0.8186 0.3711
vn -0.5999 0.6302 0.4929
vn -0.5404 0.7113 0.4494
vn 0.7209 0.6688 0.1817
vn 0.5035 0.8429 0.1897
vn 0.3777 0.9066 0.1881
vn 0.4576 0.7649 0.4533
vn 0.5118 0.8576 0.0497
vn 0.2469 0.9516 0.1830
vn 0.6192 0.7625 0.1875
vn 0.5102 0.8555 -0.0887
vn 0.4851 0.8115 0.3259
vn 0.6322 -0.0563 0.7728
vn 0.4256 0.2561 0.8679
vn 0.2694 0.4274 0.8630
vn 0.0192 0.0389 0.9991
vn 0.2367 0.2421 0.9409
vn 0.4161 0.4087 0.8123
vn 0.0175 0.6341 0.7730
vn 0.2145 0.4790 0.8512
vn 0.4146 0.2696 0.8692
vn 0.6111 0.5661 0.5532
vn 0.4539 0.4356 0.7773
vn 0.2736 0.2817 0.9197
vn 0.3488 0.3452 0.8713
vn -0.9670 0.1573 0.2005
vn -0.5044 -0.3973 0.7666
vn -0.5171 -0.6149 0.5954
vn -0.6950 -0.1544 0.7022
vn -0.7498 0.2989 -0.5903
vn -0.4284 0.7987 -0.4227
vn -0.8017 -0.5418 -0.2526
vn -0.5337 -0.5469 -0.6450
vn -0.8181 0.0785 -0.5698
vn -0.2522 -0.3468 -0.9034
vn -0.5991 -0.2242 -0.7686
vn -0.3191 0.4569 -0.8303
vn -0.5628 0.6939 -0.4491
vn 0.5701 0.4057 -0.7144
vn 0.2157 0.8628 -0.4571
vn -0.1360 0.1274 -0.9825
vn 0.3749 0.0829 -0.9233
vn 0.3391 -0.4007 -0.8512
vn 0.8660 0.1032 -0.4893
vn 0.8239 0.5634 -0.0619
vn 0.4706 0.6370 0.6105
vn 0.9855 -0.1571 -0.0637
vn 0.7439 0.3095 0.5924
vn 0.4700 -0.4473 0.7609
vn 0.3483 0.2736 0.8966
vn -0.8047 0.5920 0.0450
vn 0.2266 0.1941 0.9545
vn 0.1429 0.1872 0.9719
vn -0.1353 0.2403 0.9612
vn -0.3050 -0.0551 0.9508
vn -0.7515 -0.3012 0.5869
vn -0.1217 -0.8179 -0.5623
vn -0.2562 -0.9315 -0.2583
vn 0.2449 -0.9647 -0.0967
vn 0.1363 -0.9553 -0.2624
vn 0.1462 -0.9555 -0.2563
vn 0.0852 -0.8380 0.5390
vn 0.2448 -0.9679 -0.0575
vn -0.3431 -0.9385 -0.0381
vn -0.1680 -0.8890 0.4261
vn 0.1693 0.9718 -0.1640
vn 0.3182 0.9027 -0.2897
vn 0.0477 0.8410 0.5389
vn -0.1865 0.9822 0.0211
vn 0.2042 0.9773 0.0556
vn 0.4238 0.7401 0.5221
vn -0.8258 -0.1344 0.5477
vn -0.7380 -0.6510 0.1775
vn -0.5736 -0.7597 0.3065
vn -0.6170 0.0999 0.7806
vn -0.5461 0.8329 -0.0900
vn -0.5992 0.2354 -0.7652
vn -0.6819 0.6149 -0.3962
vn -0.4118 0.8331 -0.3694
vn -0.3450 0.6529 -0.6743
vn -0.9658 -0.0986 -0.2398
vn -0.6520 -0.6245 -0.4300
vn -0.5131 0.0613 -0.8562
vn -0.6606 -0.0917 -0.7451
vn -0.6689 -0.4876 -0.5611
vn -0.4076 0.7356 -0.5411
vn -0.1657 0.3665 -0.9155
vn 0.2056 0.7410 -0.6393
vn -0.1296 -0.5612 -0.8175
vn 0.5952 -0.7800 -0.1934
vn 0.6381 -0.5352 -0.5535
vn 0.5707 -0.7052 -0.4208
vn 0.5317 0.8269 0.1830
vn 0.7634 0.4254 -0.4860
vn 0.6542 0.6729 -0.3453
vn 0.5278 0.6549 0.5408
vn 0.9502 0.2956 0.0990
vn 0.8359 -0.5472 0.0433
vn 0.8522 0.2330 0.4685
vn 0.4388 -0.0461 0.8974
vn 0.4597 0.2584 0.8497
vn -0.3129 0.0649 0.9476
vn 0.0258 0.0619 0.9977
vn -0.4542 -0.2515 0.8547
vn -0.1461 -0.9835 0.1065
vn -0.2872 -0.8494 -0.4427
vn -0.3257 -0.9319 -0.1597
vn 0.3976 -0.8632 0.3112
vn 0.3997 -0.8822 0.2489
vn -0.6621 -0.7063 0.2508
vn -0.3397 -0.7915 0.5080
vn 0.3212 0.8742 -0.3642
vn -0.1248 0.8926 -0.4333
vn 0.0160 0.9880 0.1539
vn -0.1955 0.7410 0.6424
vn -0.4324 0.8932 0.1236
vn -0.4646 0.7610 0.4528
vn 0.4039 0.8893 0.2146
vn 0.3037 0.7186 0.6256
vn 0.6083 0.7917 -0.0562
vn -0.6240 0.5741 0.5302
vn 0.7451 -0.5594 0.3633
vn 0.1803 -0.5254 0.8316
vn 0.5358 -0.3865 0.7507
vn -0.1728 0.9378 -0.3010
vn -0.3735 -0.4426 0.8152
s off
f 6/1/1 4/2/1 3/3/1
f 4/2/2 2/4/2 1/5/2 3/3/2
f 5/6/3 1/5/3 2/4/3
f 12/7/4 10/8/4 9/9/4
f 10/8/2 8/10/2 7/11/2 9/9/2
f 11/12/5 7/11/5 8/10/5
f 18/13/6 16/14/6 15/15/6
f 16/14/2 14/16/2 13/17/2 15/15/2
f 17/18/7 13/17/7 14/16/7
f 24/19/8 22/20/8 21/21/8
f 22/20/2 20/22/2 19/23/2 21/21/2
f 23/24/9 19/23/9 20/22/9
f 26/25/2 27/26/2 28/27/2 29/28/2
f 25/29/2 26/25/2 29/28/2
f 35/30/10 33/31/10 32/32/10
f 33/31/11 31/33/11 30/34/11 32/32/11
f 34/35/12 30/34/12 31/33/12
f 41/36/13 39/37/13 38/38/13
f 39/37/11 37/39/11 36/40/11 38/38/11
f 40/41/14 36/40/14 37/39/14
f 47/42/15 45/43/15 44/44/15
f 45/43/11 43/45/11 42/46/11 44/44/11
f 46/47/16 42/46/16 43/45/16
f 53/48/17 51/49/17 50/50/17
f 51/49/11 49/51/11 48/52/11 50/50/11
f 52/53/18 48/52/18 49/51/18
f 55/54/11 56/55/11 57/56/11 58/57/11
f 54/58/11 55/54/11 58/57/11
f 64/59/19 62/60/19 61/61/19
f 62/60/20 60/62/20 59/63/20 61/61/20
f 63/64/21 59/63/21 60/62/21
f 70/65/22 68/66/22 67/67/22
f 68/66/23 66/68/23 65/69/23 67/67/23
f 69/70/24 65/69/24 66/68/24
f 76/71/25 74/72/25 73/73/25
f 74/72/26 72/74/26 71/75/26 73/73/26
f 75/76/27 71/75/27 72/74/27
f 82/77/28 80/78/28 79/79/28
f 80/78/29 78/80/29 77/81/29 79/79/29
f 81/82/30 77/81/30 78/80/30
f 84/83/31 85/84/31 86/85/31 87/86/31
f 83/87/31 84/83/31 87/86/31
f 93/88/32 91/89/32 90/90/32
f 91/89/33 89/91/33 88/92/33 90/90/33
f 92/93/34 88/92/34 89/91/34
f 99/94/35 97/95/35 96/96/35
f 97/95/33 95/97/33 94/98/33 96/96/33
f 98/99/36 94/98/36 95/97/36
f 105/100/37 103/101/37 102/102/37
f 103/101/33 101/103/33 100/104/33 102/102/33
f 104/105/38 100/104/38 101/103/38
f 111/106/39 109/107/39 108/108/39
f 109/107/33 107/109/33 106/110/33 108/108/33
f 110/111/40 106/110/40 107/109/40
f 113/112/33 114/113/33 115/114/33 116/115/33
f 112/116/33 113/112/33 116/115/33
f 122/117/41 120/118/41 119/119/41
f 120/118/42 118/120/42 117/121/42 119/119/42
f 121/122/43 117/121/43 118/120/43
f 128/123/44 126/124/44 125/125/44
f 126/124/45 124/126/45 123/127/45 125/125/45
f 127/128/46 123/127/46 124/126/46
f 134/129/47 132/130/47 131/131/47
f 132/130/48 130/132/48 129/133/48 131/131/48
f 133/134/49 129/133/49 130/132/49
f 140/135/50 138/136/50 137/137/50
f 138/136/51 136/138/51 135/139/51 137/137/51
f 139/140/52 135/139/52 136/138/52
f 142/141/53 143/142/53 144/143/53 145/144/53
f 141/145/53 142/141/53 145/144/53
f 151/146/54 149/147/54 148/148/54
f 149/147/55 147/149/55 146/150/55 148/148/55
f 150/151/56 146/150/56 147/149/56
f 157/152/57 155/153/57 154/154/57
f 155/153/55 153/155/55 152/156/55 154/154/55
f 156/157/58 152/156/58 153/155/58
f 163/158/59 161/159/59 160/160/59
f 161/159/55 159/161/55 158/162/55 160/160/55
f 162/163/60 158/162/60 159/161/60
f 169/164/61 167/165/61 166/166/61
f 167/165/55 165/167/55 164/168/55 166/166/55
f 168/169/62 164/168/62 165/167/62
f 171/170/55 172/171/55 173/172/55 174/173/55
f 170/174/55 171/170/55 174/173/55
f 180/175/63 178/176/63 177/177/63
f 178/176/64 176/178/64 175/179/64 177/177/64
f 179/180/65 175/179/65 176/178/65
f 186/181/66 184/182/66 183/183/66
f 184/182/67 182/184/67 181/185/67 183/183/67
f 185/186/68 181/185/68 182/184/68
f 192/187/69 190/188/69 189/189/69
f 190/188/70 188/190/70 187/191/70 189/189/70
f 191/192/71 187/191/71 188/190/71
f 198/193/72 196/194/72 195/195/72
f 196/194/73 194/196/73 193/197/73 195/195/73
f 197/198/74 193/197/74 194/196/74
f 200/199/75 201/200/75 202/201/75 203/202/75
f 199/203/75 200/199/75 203/202/75
f 207/204/76 209/205/76 204/206/76
f 257/207/77 255/208/77 205/209/77
f 246/210/78 257/207/78 205/209/78
f 205/211/79 255/212/79 209/213/79
f 204/214/80 211/215/80 212/216/80
f 252/217/81 211/215/81 206/218/81
f 212/219/82 208/220/82 207/204/82
f 220/221/83 241/222/83 212/219/83
f 220/221/84 258/223/84 213/224/84
f 218/225/85 219/226/85 217/227/85
f 218/225/86 220/221/86 219/226/86
f 219/228/87 213/229/87 214/230/87
f 213/229/88 258/231/88 252/217/88
f 215/232/89 221/233/89 216/234/89
f 214/230/90 251/235/90 221/233/90
f 215/236/91 217/227/91 219/226/91
f 216/234/92 217/227/92 215/236/92
f 216/234/93 243/237/93 217/227/93
f 225/238/94 216/234/94 222/239/94
f 222/240/95 226/241/95 223/242/95
f 223/242/96 254/243/96 224/244/96
f 222/239/97 227/245/97 225/238/97
f 224/246/98 228/247/98 223/248/98
f 234/249/99 229/250/99 228/247/99
f 230/251/100 235/252/100 231/253/100
f 209/213/101 210/254/101 206/218/101 204/214/101
f 224/244/102 235/252/102 234/255/102
f 231/253/103 232/256/103 230/251/103
f 231/253/104 236/257/104 232/256/104
f 232/258/105 255/208/105 233/259/105
f 255/208/106 257/207/106 237/260/106
f 240/261/107 218/225/107 243/237/107
f 238/262/108 241/222/108 240/261/108
f 238/262/109 242/263/109 245/264/109
f 240/261/110 243/237/110 238/262/110
f 238/262/111 243/237/111 242/263/111
f 239/265/112 244/266/112 256/267/112
f 238/262/113 245/264/113 239/265/113
f 238/262/114 246/210/114 208/220/114
f 239/265/115 256/267/115 246/210/115
f 250/268/116 251/235/116 247/269/116
f 250/268/117 259/270/117 251/235/117
f 253/271/118 231/253/118 249/272/118
f 248/273/119 253/271/119 247/269/119
f 247/269/120 249/272/120 250/268/120
f 249/272/121 235/252/121 254/243/121
f 207/204/122 205/209/122 209/205/122
f 207/204/123 208/220/123 205/209/123
f 208/220/124 246/210/124 205/209/124
f 209/213/125 255/212/125 236/257/125
f 206/218/126 210/254/126 248/273/126
f 212/216/127 211/215/127 258/231/127
f 204/214/128 206/218/128 211/215/128
f 248/273/129 252/217/129 206/218/129
f 211/215/130 252/217/130 258/231/130
f 204/206/131 212/219/131 207/204/131
f 212/219/132 241/222/132 208/220/132
f 258/223/133 220/221/133 212/219/133
f 219/226/134 220/221/134 213/224/134
f 218/225/135 241/222/135 220/221/135
f 214/230/136 213/229/136 252/217/136
f 219/228/137 214/230/137 215/232/137
f 215/232/138 214/230/138 221/233/138
f 217/227/139 243/237/139 218/225/139
f 225/238/140 245/264/140 242/263/140
f 216/234/141 225/238/141 243/237/141
f 225/238/142 242/263/142 243/237/142
f 254/243/143 223/242/143 250/268/143
f 222/240/144 216/234/144 221/233/144
f 222/240/145 221/233/145 259/270/145 226/274/145
f 224/244/146 254/243/146 235/252/146
f 222/239/147 223/248/147 227/245/147
f 225/238/148 227/245/148 245/264/148
f 223/248/149 228/247/149 227/245/149
f 224/246/150 234/249/150 228/247/150
f 230/251/151 234/255/151 235/252/151
f 232/256/152 236/257/152 255/212/152
f 230/275/153 232/258/153 233/259/153
f 233/259/154 255/208/154 237/260/154
f 246/210/155 238/262/155 239/265/155
f 240/261/156 241/222/156 218/225/156
f 238/262/157 208/220/157 241/222/157
f 239/265/158 245/264/158 229/250/158
f 239/265/159 229/250/159 244/266/159
f 246/210/160 237/260/160 257/207/160
f 246/210/161 256/267/161 237/260/161
f 251/235/162 259/270/162 221/233/162
f 251/235/163 214/230/163 252/217/163
f 247/269/164 253/271/164 249/272/164
f 253/271/165 236/257/165 231/253/165
f 248/273/166 210/254/166 253/271/166
f 253/271/167 210/254/167 236/257/167
f 250/268/168 249/272/168 254/243/168
f 249/272/169 231/253/169 235/252/169
f 223/242/170 226/241/170 259/270/170 250/268/170
f 236/257/171 210/254/171 209/213/171
f 227/245/172 228/247/172 229/250/172 245/264/172
f 256/267/173 244/266/173 230/275/173 233/259/173
f 244/266/174 229/250/174 234/249/174 230/275/174
f 247/269/175 251/235/175 252/217/175 248/273/175
f 256/267/176 233/259/176 237/260/176
