# Blender v2.78 (sub 0) OBJ File: 'Low_Poly_Vegetation_Pack.blend'
# www.blender.org
g FlowerBush_b_l_02
v -1.137676 0.280985 -1.173115
v -0.979042 0.366073 -1.186270
v -1.025868 0.242939 -1.309159
v -1.133465 0.482000 -1.060370
v -1.155560 0.351931 -1.106093
v -1.019501 0.424911 -1.117376
v -1.356026 0.455850 -1.006341
v -1.289440 0.317127 -1.100680
v -1.466925 0.347975 -1.098649
v -1.260475 0.482298 -1.002362
v -1.203365 0.363316 -1.083277
v -1.135366 0.691755 -0.964788
v -1.293999 0.606667 -0.951633
v -1.286663 0.786275 -0.939660
v -1.104878 0.602785 -0.996412
v -1.240938 0.529805 -0.985129
v -0.917015 0.516889 -1.131563
v -0.983600 0.655612 -1.037224
v -0.845606 0.681238 -1.150171
v -0.999963 0.472417 -1.100144
v -1.057073 0.591399 -1.019229
v -1.076590 0.513419 -1.068714
v -1.093682 0.442993 -1.098487
v -1.168102 0.426474 -1.080402
v -1.197005 0.486691 -1.039452
v -1.140448 0.540425 -1.032228
v 0.611864 0.795610 -1.048349
v 0.603983 0.753482 -1.096760
v 0.545637 0.763572 -1.122727
v 0.517457 0.811936 -1.090366
v 0.558387 0.831737 -1.044398
v 0.623562 0.721701 -1.275199
v 0.743166 0.733400 -1.188534
v 0.739359 0.647175 -1.298292
v 0.555977 0.772246 -1.062097
v 0.565134 0.735156 -1.164808
v 0.654923 0.743939 -1.099747
v 0.434875 0.899331 -1.209468
v 0.499451 0.788501 -1.283627
v 0.376755 0.842338 -1.322915
v 0.482436 0.836776 -1.111459
v 0.530915 0.753573 -1.167132
v 0.591559 0.993598 -1.014430
v 0.471955 0.981899 -1.101096
v 0.485090 1.083567 -1.006294
v 0.582449 0.868323 -1.016518
v 0.492659 0.859541 -1.081580
v 0.780247 0.815967 -1.080161
v 0.715670 0.926797 -1.006003
v 0.847694 0.888403 -0.981672
v 0.665147 0.766703 -1.069868
v 0.616668 0.849906 -1.014195
v -0.100407 1.617616 -0.043982
v 0.041456 1.593328 -0.152898
v -0.084941 1.714596 -0.195018
v 0.080695 1.523654 0.063302
v -0.045355 1.563640 0.018477
v 0.076320 1.542809 -0.074939
v -0.034435 1.530715 0.262880
v -0.130958 1.592409 0.123401
v -0.173730 1.641341 0.291426
v 0.027810 1.502785 0.190833
v -0.054978 1.555700 0.071202
v 0.268067 1.448487 0.174561
v 0.126204 1.472775 0.283476
v 0.293113 1.472958 0.351281
v 0.200085 1.463703 0.103904
v 0.078410 1.484534 0.197321
v 0.202094 1.535389 -0.132302
v 0.298618 1.473695 0.007177
v 0.381902 1.546213 -0.135164
v 0.126920 1.524558 -0.068452
v 0.209708 1.471643 0.051179
v 0.133078 1.514686 0.023085
v 0.062986 1.542548 0.001893
v 0.017368 1.544299 0.065566
v 0.059267 1.517519 0.126111
v 0.130779 1.499217 0.099856
v 1.490191 0.836024 0.545237
v 1.526633 0.846552 0.401196
v 1.501447 0.969549 0.480829
v 1.580744 0.682024 0.479876
v 1.514125 0.758433 0.534662
v 1.545381 0.767463 0.411118
v 1.578960 0.607200 0.654764
v 1.511257 0.739667 0.647318
v 1.562668 0.689516 0.777494
v 1.578829 0.614465 0.573203
v 1.520761 0.728082 0.566816
v 1.685580 0.535558 0.418679
v 1.649139 0.525030 0.562719
v 1.766619 0.450717 0.509995
v 1.632191 0.597611 0.420666
v 1.600935 0.588582 0.544210
v 1.596811 0.764383 0.309152
v 1.664514 0.631916 0.316598
v 1.705397 0.730750 0.213330
v 1.567486 0.741580 0.382125
v 1.625555 0.627964 0.388512
v 1.594200 0.685911 0.426689
v 1.561127 0.729744 0.460825
v 1.555164 0.707629 0.521289
v 1.584552 0.650128 0.524521
v 1.608678 0.636706 0.466055
v -0.347128 0.656469 1.233084
v -0.240633 0.748627 1.184584
v -0.377516 0.800313 1.210961
v -0.171498 0.592374 1.268209
v -0.283496 0.606324 1.244974
v -0.192155 0.685368 1.203376
v -0.244834 0.443206 1.360721
v -0.348819 0.533513 1.303993
v -0.382430 0.442981 1.417033
v -0.194840 0.490137 1.315965
v -0.284028 0.567594 1.267310
v 0.003495 0.536610 1.317765
v -0.103000 0.444452 1.366265
v 0.029764 0.446604 1.433147
v -0.058823 0.569573 1.276113
v -0.150163 0.490529 1.317712
v -0.098800 0.749874 1.190129
v 0.005185 0.659567 1.246856
v 0.034677 0.803937 1.227074
v -0.147479 0.685761 1.205122
v -0.058291 0.608304 1.253777
v -0.132175 0.626403 1.250301
v -0.195863 0.634603 1.242754
v -0.225879 0.584444 1.270385
v -0.180742 0.545243 1.295009
v -0.122829 0.571175 1.282596
v -1.294789 0.675881 0.264310
v -1.311485 0.700605 0.206948
v -1.355125 0.661152 0.180125
v -1.365399 0.612044 0.220910
v -1.328109 0.621148 0.272939
v -1.426237 0.809093 0.115865
v -1.328737 0.867592 0.210862
v -1.367396 0.933850 0.094194
v -1.309736 0.639244 0.216430
v -1.366064 0.703572 0.147888
v -1.292868 0.747488 0.219205
v -1.531349 0.581311 0.208291
v -1.507804 0.693843 0.114830
v -1.605702 0.597135 0.091170
v -1.406228 0.587316 0.217766
v -1.388553 0.671797 0.147602
v -1.384013 0.603398 0.430283
v -1.481513 0.544899 0.335286
v -1.460103 0.490756 0.462197
v -1.319293 0.621193 0.324097
v -1.392488 0.577277 0.252780
v -1.278902 0.831181 0.337856
v -1.302446 0.718649 0.431317
v -1.221797 0.827472 0.465220
v -1.279129 0.737450 0.254218
v -1.296804 0.652969 0.324382
v 1.949966 -0.026894 0.478814
v 1.935058 -0.028700 -0.026221
v 1.511718 -0.027911 -0.694647
v 1.940774 0.171719 0.200327
v 1.610548 0.733086 0.173108
v 1.593919 -0.028556 0.850659
v 1.690851 0.217564 -0.421321
v 1.345882 0.762071 -0.427737
v 1.363306 0.654827 0.839091
v 1.427545 0.868372 0.594851
v -0.412669 -0.028011 1.377287
v 0.269282 -0.027988 1.377632
v 0.737406 -0.027449 1.168799
v -0.467370 0.194264 1.358821
v -0.236095 0.576598 1.262967
v -1.030185 -0.027375 0.924131
v 0.246641 0.189482 1.387781
v 0.149816 0.620380 1.232764
v -0.961589 0.329009 0.994812
v -0.557399 0.556755 1.167971
v -1.058243 0.679253 0.635771
v -1.933568 -0.028592 -0.531423
v -1.741554 -0.028163 0.070481
v -1.878751 0.218980 -0.479506
v -1.678973 0.484867 -0.184558
v -1.261345 0.946440 -0.065897
v -1.815262 -0.024462 -0.914426
v -1.571618 -0.025501 -1.105729
v -1.700130 0.236903 0.062481
v -1.321415 0.567669 0.326926
v -1.570167 0.569107 -0.666714
v -1.343681 0.514169 -0.936040
v 0.224714 -0.027903 -1.470928
v -0.355958 -0.028058 -1.422159
v -1.097963 -0.033086 -1.192799
v 0.272569 0.355638 -1.506146
v 0.189982 0.738454 -1.296533
v 0.670868 -0.027988 -1.367881
v -0.330123 0.214348 -1.468552
v -0.359970 0.476624 -1.412428
v -0.354482 0.741478 -1.268491
v -1.034128 0.345782 -1.156193
v 0.595201 0.349292 -1.422284
v 0.837685 0.340996 -1.268838
v 1.174153 0.305534 -0.937101
v 1.031354 0.716192 -0.782044
v 0.618109 0.654217 -1.227337
v -0.036871 1.577741 -0.123661
v -0.081222 1.525107 0.257234
v -0.174783 1.276599 0.651311
v 1.065140 1.130973 0.310749
v 0.258377 0.965295 -1.048189
v -0.423032 1.639267 -0.191240
v -0.957385 1.390532 -0.027139
v -0.510677 1.501818 0.358491
v -0.514304 1.175825 0.695062
v -0.828361 1.176864 0.555297
v 0.248367 1.165770 0.635834
v 1.022503 1.089648 -0.118850
v 0.962591 0.973571 -0.474428
v -0.746253 1.435107 -0.358211
v 1.412297 0.959398 0.143842
v 0.974028 0.934118 0.824937
v 1.148008 0.506592 1.011308
v 0.653278 0.670633 1.054862
v -1.234117 0.275062 0.582429
v -1.127789 1.013719 0.354439
v -1.059747 1.004401 -0.539644
v -0.876982 0.784347 -0.953817
v -0.366834 1.003460 -1.050825
vt 0.1658 0.4399
vt 0.2106 0.4399
vt 0.1882 0.4847
vt 0.1690 0.4161
vt 0.2074 0.4161
vt 0.1882 0.3873
vt 0.1658 0.4399
vt 0.2106 0.4399
vt 0.1882 0.4847
vt 0.1690 0.4161
vt 0.2074 0.4161
vt 0.1658 0.4399
vt 0.2106 0.4399
vt 0.1882 0.4847
vt 0.1690 0.4161
vt 0.2074 0.4161
vt 0.1658 0.4399
vt 0.2106 0.4399
vt 0.1882 0.4847
vt 0.1690 0.4161
vt 0.2074 0.4161
vt 0.2672 0.4290
vt 0.3114 0.3968
vt 0.3557 0.4290
vt 0.3388 0.4810
vt 0.2841 0.4810
vt 0.2700 0.4288
vt 0.3151 0.3961
vt 0.3601 0.4288
vt 0.3429 0.4818
vt 0.2872 0.4818
vt 0.0465 0.4378
vt 0.0882 0.4378
vt 0.0673 0.4795
vt 0.0495 0.4156
vt 0.0852 0.4156
vt 0.0673 0.3889
vt 0.0465 0.4378
vt 0.0882 0.4378
vt 0.0673 0.4795
vt 0.0495 0.4156
vt 0.0852 0.4156
vt 0.0465 0.4378
vt 0.0882 0.4378
vt 0.0673 0.4795
vt 0.0495 0.4156
vt 0.0852 0.4156
vt 0.0465 0.4378
vt 0.0882 0.4378
vt 0.0673 0.4795
vt 0.0495 0.4156
vt 0.0852 0.4156
vt 0.1658 0.4399
vt 0.2106 0.4399
vt 0.1882 0.4847
vt 0.1690 0.4161
vt 0.2074 0.4161
vt 0.1882 0.3873
vt 0.1658 0.4399
vt 0.2106 0.4399
vt 0.1882 0.4847
vt 0.1690 0.4161
vt 0.2074 0.4161
vt 0.1658 0.4399
vt 0.2106 0.4399
vt 0.1882 0.4847
vt 0.1690 0.4161
vt 0.2074 0.4161
vt 0.1658 0.4399
vt 0.2106 0.4399
vt 0.1882 0.4847
vt 0.1690 0.4161
vt 0.2074 0.4161
vt 0.2672 0.4290
vt 0.3114 0.3968
vt 0.3557 0.4290
vt 0.3388 0.4810
vt 0.2841 0.4810
vt 0.1658 0.4399
vt 0.2106 0.4399
vt 0.1882 0.4847
vt 0.1690 0.4161
vt 0.2074 0.4161
vt 0.1882 0.3873
vt 0.1658 0.4399
vt 0.2106 0.4399
vt 0.1882 0.4847
vt 0.1690 0.4161
vt 0.2074 0.4161
vt 0.1658 0.4399
vt 0.2106 0.4399
vt 0.1882 0.4847
vt 0.1690 0.4161
vt 0.2074 0.4161
vt 0.1658 0.4399
vt 0.2106 0.4399
vt 0.1882 0.4847
vt 0.1690 0.4161
vt 0.2074 0.4161
vt 0.2672 0.4290
vt 0.3114 0.3968
vt 0.3557 0.4290
vt 0.3388 0.4810
vt 0.2841 0.4810
vt 0.1658 0.4399
vt 0.2106 0.4399
vt 0.1882 0.4847
vt 0.1690 0.4161
vt 0.2074 0.4161
vt 0.1882 0.3873
vt 0.1658 0.4399
vt 0.2106 0.4399
vt 0.1882 0.4847
vt 0.1690 0.4161
vt 0.2074 0.4161
vt 0.1658 0.4399
vt 0.2106 0.4399
vt 0.1882 0.4847
vt 0.1690 0.4161
vt 0.2074 0.4161
vt 0.1658 0.4399
vt 0.2106 0.4399
vt 0.1882 0.4847
vt 0.1690 0.4161
vt 0.2074 0.4161
vt 0.2672 0.4290
vt 0.3114 0.3968
vt 0.3557 0.4290
vt 0.3388 0.4810
vt 0.2841 0.4810
vt 0.2700 0.4288
vt 0.3151 0.3961
vt 0.3601 0.4288
vt 0.3429 0.4818
vt 0.2872 0.4818
vt 0.0465 0.4378
vt 0.0882 0.4378
vt 0.0673 0.4795
vt 0.0495 0.4156
vt 0.0852 0.4156
vt 0.0673 0.3889
vt 0.0465 0.4378
vt 0.0882 0.4378
vt 0.0673 0.4795
vt 0.0495 0.4156
vt 0.0852 0.4156
vt 0.0465 0.4378
vt 0.0882 0.4378
vt 0.0673 0.4795
vt 0.0495 0.4156
vt 0.0852 0.4156
vt 0.0465 0.4378
vt 0.0882 0.4378
vt 0.0673 0.4795
vt 0.0495 0.4156
vt 0.0852 0.4156
vt 0.1591 0.8928
vt 0.1595 0.9057
vt 0.1451 0.9070
vt 0.1817 0.9111
vt 0.1747 0.9214
vt 0.1701 0.9169
vt 0.1810 0.8842
vt 0.1746 0.8954
vt 0.1913 0.8929
vt 0.1534 0.9378
vt 0.1379 0.9511
vt 0.1381 0.9228
vt 0.1672 0.9272
vt 0.1599 0.9313
vt 0.1672 0.9370
vt 0.1648 0.9570
vt 0.1813 0.9482
vt 0.1686 0.9630
vt 0.1537 0.9626
vt 0.1450 0.9674
vt 0.1628 0.9457
vt 0.1741 0.9676
vt 0.1795 0.9776
vt 0.1651 0.9739
vt 0.1889 0.9678
vt 0.1941 0.9821
vt 0.1891 0.9559
vt 0.1838 0.9537
vt 0.2148 0.9750
vt 0.2158 0.9631
vt 0.2274 0.9623
vt 0.2006 0.9695
vt 0.2067 0.9551
vt 0.1803 0.9904
vt 0.2198 0.9835
vt 0.1955 0.9591
vt 0.2217 0.9500
vt 0.2428 0.9537
vt 0.2260 0.9412
vt 0.2319 0.9312
vt 0.2447 0.9434
vt 0.2118 0.9441
vt 0.2214 0.9180
vt 0.2278 0.9128
vt 0.2181 0.9344
vt 0.2113 0.9262
vt 0.2158 0.9221
vt 0.2142 0.8883
vt 0.2030 0.9108
vt 0.2030 0.8976
vt 0.2103 0.9016
vt 0.1918 0.9084
vt 0.2094 0.9156
vt 0.2035 0.9196
vt 0.1870 0.9417
vt 0.1891 0.9475
vt 0.1962 0.9394
vt 0.1990 0.9482
vt 0.1776 0.9437
vt 0.1763 0.9290
vt 0.1822 0.9231
vt 0.2034 0.9410
vt 0.1579 0.9815
vt 0.2368 0.9668
vt 0.2442 0.9304
vt 0.2170 0.9068
vt 0.2265 0.8956
vt 0.2367 0.9084
vt 0.1920 0.9357
vt 0.1876 0.9175
vn -0.4291 0.7146 -0.5525
vn -0.3737 0.5855 -0.7194
vn -0.2671 0.3597 -0.8941
vn 0.0934 0.5901 -0.8019
vn -0.1094 0.5225 -0.8456
vn -0.3823 0.3871 -0.8390
vn -0.1202 0.0709 -0.9902
vn -0.2174 0.2599 -0.9408
vn -0.3352 0.5016 -0.7975
vn -0.6426 0.1953 -0.7408
vn -0.4817 0.3228 -0.8147
vn -0.2200 0.4742 -0.8525
vn -0.3024 0.4325 -0.8494
vn 0.3980 0.6590 -0.6382
vn 0.3529 0.7298 -0.5856
vn -0.0068 0.9922 -0.1245
vn 0.1439 0.9348 -0.3247
vn 0.4760 0.6635 -0.5772
vn 0.8420 0.5354 -0.0669
vn 0.7331 0.6177 -0.2847
vn 0.4392 0.5817 -0.6847
vn 0.5884 -0.0293 -0.8081
vn 0.5570 0.2257 -0.7992
vn 0.3161 0.6479 -0.6930
vn -0.2604 0.4275 -0.8657
vn -0.0322 0.5428 -0.8392
vn 0.5057 0.7015 0.5022
vn 0.4165 0.8366 0.3559
vn 0.2595 0.9577 0.1245
vn 0.6109 0.7883 -0.0741
vn 0.4697 0.8805 0.0644
vn 0.2363 0.9385 0.2516
vn 0.0578 0.9877 -0.1450
vn 0.1900 0.9814 0.0286
vn 0.3583 0.8945 0.2672
vn -0.0474 0.9010 0.4313
vn 0.1368 0.9375 0.3200
vn 0.3815 0.9137 0.1401
vn 0.3102 0.9301 0.1967
vn 0.9681 0.0379 0.2477
vn 0.9333 0.2532 0.2546
vn 0.8108 0.5320 0.2440
vn 0.8802 0.4399 -0.1782
vn 0.8889 0.4565 0.0392
vn 0.8302 0.4433 0.3379
vn 0.5874 0.7827 0.2058
vn 0.7408 0.6299 0.2334
vn 0.8948 0.3677 0.2532
vn 0.6753 0.3807 0.6317
vn 0.7852 0.4266 0.4488
vn 0.8754 0.4564 0.1593
vn 0.8565 0.4518 0.2497
vn 0.2576 0.1998 0.9454
vn 0.1105 0.3599 0.9264
vn -0.1025 0.5535 0.8265
vn 0.2647 0.7128 0.6495
vn 0.1141 0.6193 0.7768
vn -0.1041 0.4403 0.8918
vn -0.3270 0.7076 0.6264
vn -0.1852 0.6167 0.7651
vn 0.0264 0.4415 0.8969
vn -0.3341 0.1946 0.9222
vn -0.1888 0.3572 0.9147
vn 0.0280 0.5546 0.8316
vn -0.0382 0.4996 0.8654
vn -0.7360 0.5170 0.4371
vn -0.7481 0.4392 0.4974
vn -0.6462 -0.1409 0.7500
vn -0.7234 0.0952 0.6838
vn -0.6672 0.5535 0.4984
vn -0.0884 0.6473 0.7571
vn -0.3362 0.6424 0.6887
vn -0.7167 0.5896 0.3725
vn -0.4292 0.8963 -0.1114
vn -0.5728 0.8152 0.0858
vn -0.7975 0.4754 0.3714
vn -0.9871 0.1081 -0.1185
vn -0.9600 0.2681 0.0809
vn 0.9996 0.0049 -0.0295
vn 0.7372 0.6076 -0.2954
vn 0.8446 -0.0207 -0.5350
vn 0.6757 0.4210 -0.6051
vn 0.3482 0.0087 0.9374
vn 0.7612 0.3757 0.5287
vn 0.8148 0.4879 -0.3131
vn 0.3181 0.4846 0.8148
vn -0.0159 0.6587 0.7522
vn 0.4074 -0.0002 0.9132
vn 0.4708 0.1971 0.8599
vn 0.1442 0.1763 0.9737
vn -0.5125 0.2969 0.8057
vn -0.8157 0.2888 0.5013
vn -0.6916 0.4151 0.5911
vn -0.3273 0.5879 0.7398
vn -0.8907 0.3567 0.2818
vn -0.7246 0.5482 0.4178
vn -0.7158 0.3258 0.6176
vn -0.7527 0.2009 0.6270
vn -0.7766 0.3031 0.5523
vn -0.7846 0.4851 -0.3861
vn -0.3657 0.4162 -0.8325
vn -0.6152 0.7703 -0.1676
vn -0.3769 0.1526 -0.9136
vn -0.3853 0.5789 -0.7186
vn 0.6237 0.0650 -0.7790
vn 0.4902 0.4431 -0.7506
vn 0.5980 0.5020 -0.6248
vn 0.2455 0.6811 -0.6898
vn 0.0834 0.8339 0.5456
vn -0.3729 0.9124 0.1687
vn -0.2930 0.6883 0.6636
vn -0.6276 0.6756 0.3869
vn 0.2503 0.8016 0.5430
vn 0.2093 0.7045 0.6782
vn 0.0098 0.6506 0.7593
vn 0.3900 0.9121 -0.1264
vn -0.4593 0.8708 -0.1756
vn -0.5327 0.6271 -0.5683
vn 0.0516 0.8045 -0.5917
vn -0.1891 0.7835 -0.5919
vn 0.8792 0.3457 -0.3280
vn 0.8418 0.4774 0.2521
vn 0.7069 0.2291 -0.6691
vn 0.6353 0.4562 -0.6231
vn 0.6993 0.2473 0.6707
vn 0.5288 0.1924 0.8267
vn -0.0209 0.0152 0.9997
vn 0.7407 0.6629 0.1088
vn 0.4237 0.6238 0.6568
vn -0.0094 0.2962 0.9551
vn -0.5958 -0.0580 0.8010
vn 0.2743 0.3795 0.8836
vn 0.2297 0.4660 0.8545
vn -0.1741 0.6336 0.7538
vn -0.8363 0.0527 0.5458
vn -0.2831 0.3908 0.8759
vn -0.5538 0.4502 0.7005
vn -0.9411 0.1508 0.3025
vn -0.5825 0.4837 -0.6533
vn -0.7451 0.5016 0.4396
vn -0.8987 0.3762 0.2253
vn -0.7427 0.1359 0.6557
vn -0.7791 0.2640 0.5685
vn -0.9225 0.2634 -0.2821
vn -0.1775 0.1242 -0.9763
vn -0.7647 0.6416 -0.0605
vn -0.4470 0.7046 -0.5511
vn -0.7346 0.6769 -0.0475
vn -0.3136 0.4882 -0.8144
vn -0.0577 -0.1224 -0.9908
vn -0.0409 0.4750 -0.8790
vn -0.1068 0.1964 -0.9747
vn 0.0085 0.6895 -0.7243
vn -0.3479 0.0355 -0.9369
vn -0.4067 0.4775 -0.7789
vn 0.2341 -0.1053 -0.9665
vn 0.2305 0.5082 -0.8298
vn 0.5343 -0.0147 -0.8452
vn 0.6905 -0.1207 -0.7132
vn 0.6488 0.4557 -0.6094
vn 0.0543 0.9768 0.2072
vn 0.4159 0.7646 -0.4924
vn 0.3622 0.8372 -0.4098
vn -0.1229 0.7135 0.6898
vn -0.5271 0.7534 0.3932
vn -0.6512 0.4047 0.6421
vn -0.8197 0.5460 0.1731
vn 0.3137 0.9349 0.1657
vn 0.4968 0.8538 0.1555
vn 0.2294 0.7978 0.5576
vn 0.1899 0.9052 0.3802
vn 0.3219 0.8637 0.3877
vn 0.1690 0.7136 0.6799
vn 0.4904 0.8031 -0.3383
vn 0.4155 0.9006 -0.1279
vn 0.4195 0.7402 -0.5255
vn -0.7408 0.5993 -0.3035
vn 0.4632 0.7279 -0.5055
vn 0.2201 0.8441 -0.4889
vn -0.4040 0.6604 -0.6329
s off
f 1/1/1 2/2/1 3/3/1
f 2/2/2 1/1/2 5/4/2 6/5/2
f 6/5/3 5/4/3 4/6/3
f 7/7/4 8/8/4 9/9/4
f 8/8/5 7/7/5 10/10/5 11/11/5
f 11/11/6 10/10/6 4/6/6
f 12/12/7 13/13/7 14/14/7
f 13/13/8 12/12/8 15/15/8 16/16/8
f 16/16/9 15/15/9 4/6/9
f 17/17/10 18/18/10 19/19/10
f 18/18/11 17/17/11 20/20/11 21/21/11
f 21/21/12 20/20/12 4/6/12
f 23/22/13 24/23/13 25/24/13 26/25/13
f 22/26/13 23/22/13 26/25/13
f 28/27/14 29/28/14 30/29/14 31/30/14
f 27/31/14 28/27/14 31/30/14
f 32/32/15 33/33/15 34/34/15
f 33/33/16 32/32/16 36/35/16 37/36/16
f 37/36/17 36/35/17 35/37/17
f 38/38/18 39/39/18 40/40/18
f 39/39/19 38/38/19 41/41/19 42/42/19
f 42/42/20 41/41/20 35/37/20
f 43/43/21 44/44/21 45/45/21
f 44/44/22 43/43/22 46/46/22 47/47/22
f 47/47/23 46/46/23 35/37/23
f 48/48/24 49/49/24 50/50/24
f 49/49/25 48/48/25 51/51/25 52/52/25
f 52/52/26 51/51/26 35/37/26
f 53/53/27 54/54/27 55/55/27
f 54/54/28 53/53/28 57/56/28 58/57/28
f 58/57/29 57/56/29 56/58/29
f 59/59/30 60/60/30 61/61/30
f 60/60/31 59/59/31 62/62/31 63/63/31
f 63/63/32 62/62/32 56/58/32
f 64/64/33 65/65/33 66/66/33
f 65/65/34 64/64/34 67/67/34 68/68/34
f 68/68/35 67/67/35 56/58/35
f 69/69/36 70/70/36 71/71/36
f 70/70/37 69/69/37 72/72/37 73/73/37
f 73/73/38 72/72/38 56/58/38
f 75/74/39 76/75/39 77/76/39 78/77/39
f 74/78/39 75/74/39 78/77/39
f 79/79/40 80/80/40 81/81/40
f 80/80/41 79/79/41 83/82/41 84/83/41
f 84/83/42 83/82/42 82/84/42
f 85/85/43 86/86/43 87/87/43
f 86/86/44 85/85/44 88/88/44 89/89/44
f 89/89/45 88/88/45 82/84/45
f 90/90/46 91/91/46 92/92/46
f 91/91/47 90/90/47 93/93/47 94/94/47
f 94/94/48 93/93/48 82/84/48
f 95/95/49 96/96/49 97/97/49
f 96/96/50 95/95/50 98/98/50 99/99/50
f 99/99/51 98/98/51 82/84/51
f 101/100/52 102/101/52 103/102/52 104/103/52
f 100/104/52 101/100/52 104/103/52
f 105/105/53 106/106/53 107/107/53
f 106/106/54 105/105/54 109/108/54 110/109/54
f 110/109/55 109/108/55 108/110/55
f 111/111/56 112/112/56 113/113/56
f 112/112/57 111/111/57 114/114/57 115/115/57
f 115/115/58 114/114/58 108/110/58
f 116/116/59 117/117/59 118/118/59
f 117/117/60 116/116/60 119/119/60 120/120/60
f 120/120/61 119/119/61 108/110/61
f 121/121/62 122/122/62 123/123/62
f 122/122/63 121/121/63 124/124/63 125/125/63
f 125/125/64 124/124/64 108/110/64
f 127/126/65 128/127/65 129/128/65 130/129/65
f 126/130/65 127/126/65 130/129/65
f 132/131/66 133/132/66 134/133/66 135/134/66
f 131/135/66 132/131/66 135/134/66
f 136/136/67 137/137/67 138/138/67
f 137/137/68 136/136/68 140/139/68 141/140/68
f 141/140/69 140/139/69 139/141/69
f 142/142/70 143/143/70 144/144/70
f 143/143/71 142/142/71 145/145/71 146/146/71
f 146/146/72 145/145/72 139/141/72
f 147/147/73 148/148/73 149/149/73
f 148/148/74 147/147/74 150/150/74 151/151/74
f 151/151/75 150/150/75 139/141/75
f 152/152/76 153/153/76 154/154/76
f 153/153/77 152/152/77 155/155/77 156/156/77
f 156/156/78 155/155/78 139/141/78
f 158/157/79 160/158/79 157/159/79
f 164/160/80 218/161/80 161/162/80
f 159/163/81 163/164/81 158/157/81
f 201/165/82 164/160/82 163/164/82
f 220/166/83 169/167/83 162/168/83
f 166/169/84 165/170/84 157/159/84
f 161/162/85 160/158/85 163/164/85 164/160/85
f 165/170/86 219/171/86 220/166/86
f 174/172/87 206/173/87 171/174/87
f 169/167/88 173/175/88 168/176/88
f 169/167/89 221/177/89 173/175/89
f 169/167/90 220/166/90 221/177/90
f 176/178/91 175/179/91 170/180/91
f 177/181/92 222/182/92 175/179/92
f 213/183/93 177/181/93 175/179/93
f 212/184/94 213/183/94 176/178/94
f 185/185/95 181/186/95 180/187/95
f 186/188/96 182/189/96 181/186/96
f 222/182/97 186/188/97 185/185/97
f 172/190/98 222/182/98 179/191/98
f 186/188/99 177/181/99 223/192/99
f 180/187/100 187/193/100 183/194/100
f 188/195/101 198/196/101 184/197/101
f 182/189/102 224/198/102 187/193/102
f 198/196/103 196/199/103 195/200/103
f 225/201/104 226/202/104 197/203/104
f 194/204/105 201/165/105 159/163/105
f 203/205/106 200/206/106 199/207/106
f 203/205/107 202/208/107 200/206/107
f 193/209/108 208/210/108 203/205/108
f 205/211/109 211/212/109 206/173/109
f 209/213/110 210/214/110 211/212/110
f 211/212/111 213/183/111 212/184/111
f 210/214/112 223/192/112 213/183/112
f 205/211/113 214/215/113 207/216/113
f 206/173/114 174/172/114 214/215/114
f 214/215/115 221/177/115 219/171/115
f 207/216/116 218/161/116 215/217/116
f 209/213/117 217/218/117 210/214/117
f 217/218/118 225/201/118 224/198/118
f 208/210/119 226/202/119 209/213/119
f 209/213/120 226/202/120 217/218/120
f 158/157/121 163/164/121 160/158/121
f 157/159/122 160/158/122 161/162/122 166/169/122
f 159/163/123 201/165/123 163/164/123
f 164/160/124 201/165/124 202/208/124
f 157/159/125 165/170/125 162/168/125
f 165/170/126 220/166/126 162/168/126
f 173/175/127 170/180/127 167/219/127 168/176/127
f 161/162/128 218/161/128 166/169/128
f 165/170/129 166/169/129 219/171/129
f 171/174/130 170/180/130 173/175/130 174/172/130
f 172/190/131 167/219/131 170/180/131 175/179/131
f 173/175/132 221/177/132 174/172/132
f 221/177/133 220/166/133 219/171/133
f 176/178/134 171/174/134 206/173/134 212/184/134
f 175/179/135 222/182/135 172/190/135
f 171/174/136 176/178/136 170/180/136
f 176/178/137 213/183/137 175/179/137
f 180/187/138 178/220/138 179/191/138 185/185/138
f 188/195/139 184/197/139 183/194/139 187/193/139
f 185/185/140 186/188/140 181/186/140
f 186/188/141 223/192/141 182/189/141
f 179/191/142 222/182/142 185/185/142
f 186/188/143 222/182/143 177/181/143
f 178/220/144 180/187/144 183/194/144
f 184/197/145 198/196/145 191/221/145
f 180/187/146 181/186/146 187/193/146
f 225/201/147 188/195/147 187/193/147 224/198/147
f 181/186/148 182/189/148 187/193/148
f 188/195/149 225/201/149 198/196/149
f 195/200/150 192/222/150 189/223/150 190/224/150
f 193/209/151 192/222/151 196/199/151 197/203/151
f 195/200/152 196/199/152 192/222/152
f 208/210/153 193/209/153 197/203/153 226/202/153
f 198/196/154 195/200/154 190/224/154 191/221/154
f 197/203/155 196/199/155 198/196/155 225/201/155
f 194/204/156 189/223/156 192/222/156 199/207/156
f 203/205/157 199/207/157 192/222/157 193/209/157
f 194/204/158 199/207/158 200/206/158
f 194/204/159 200/206/159 201/165/159
f 200/206/160 202/208/160 201/165/160
f 205/211/161 204/225/161 209/213/161 211/212/161
f 208/210/162 202/208/162 203/205/162
f 208/210/163 204/225/163 215/217/163 216/226/163
f 206/173/164 211/212/164 212/184/164
f 211/212/165 210/214/165 213/183/165
f 213/183/166 223/192/166 177/181/166
f 210/214/167 182/189/167 223/192/167
f 204/225/168 205/211/168 207/216/168
f 207/216/169 166/169/169 218/161/169
f 205/211/170 206/173/170 214/215/170
f 207/216/171 214/215/171 219/171/171
f 207/216/172 219/171/172 166/169/172
f 214/215/173 174/172/173 221/177/173
f 164/160/174 216/226/174 215/217/174 218/161/174
f 204/225/175 207/216/175 215/217/175
f 208/210/176 216/226/176 202/208/176
f 224/198/177 182/189/177 210/214/177 217/218/177
f 216/226/178 164/160/178 202/208/178
f 204/225/179 208/210/179 209/213/179
f 217/218/180 226/202/180 225/201/180
