# Blender v2.78 (sub 0) OBJ File: 'Low_Poly_Vegetation_Pack.blend'
# www.blender.org
g FlowerBush_e_m_01
v 0.156767 0.767162 -0.414153
v 0.267373 0.832968 -0.368236
v 0.138983 0.768692 -0.352138
v 0.237965 0.827583 -0.311047
v 0.234509 0.795174 -0.438238
v 0.170344 0.776554 -0.256988
v 0.299364 0.865686 -0.276542
v 0.249087 0.861579 -0.149547
v 0.244812 0.834586 -0.291419
v 0.199819 0.830910 -0.177769
v 0.319547 0.882144 -0.194503
v 0.170343 0.776554 -0.256987
v 0.163772 0.824504 -0.106553
v 0.053167 0.758698 -0.152469
v 0.181557 0.822974 -0.168567
v 0.082574 0.764083 -0.209658
v 0.092769 0.783594 -0.080217
v 0.170342 0.776554 -0.256988
v 0.021176 0.725980 -0.244163
v 0.071452 0.730087 -0.371158
v 0.075727 0.757080 -0.229286
v 0.120720 0.760756 -0.342936
v 0.007731 0.696625 -0.323951
v 0.170343 0.776554 -0.256989
v 0.181297 0.789800 -0.302357
v 0.133584 0.767492 -0.287326
v 0.128117 0.774078 -0.233226
v 0.172452 0.800455 -0.214820
v 0.205319 0.810172 -0.257546
v 0.670788 0.382994 -0.589262
v 0.605109 0.502818 -0.588377
v 0.630322 0.369359 -0.637646
v 0.571545 0.476591 -0.636853
v 0.663003 0.456314 -0.544853
v 0.542159 0.391080 -0.680708
v 0.528456 0.543839 -0.642630
v 0.449587 0.501371 -0.745820
v 0.555137 0.485371 -0.648467
v 0.484556 0.447366 -0.740814
v 0.459249 0.565354 -0.689063
v 0.542159 0.391080 -0.680709
v 0.442593 0.415307 -0.801011
v 0.508272 0.295484 -0.801897
v 0.483059 0.428943 -0.752628
v 0.541836 0.321711 -0.753420
v 0.440657 0.336588 -0.835768
v 0.542159 0.391078 -0.680709
v 0.584925 0.254463 -0.747644
v 0.663794 0.296931 -0.644453
v 0.558244 0.312931 -0.741807
v 0.628826 0.350936 -0.649459
v 0.644411 0.227548 -0.691558
v 0.542160 0.391079 -0.680708
v 0.577980 0.410519 -0.654388
v 0.580697 0.361656 -0.678988
v 0.542494 0.360309 -0.718217
v 0.516168 0.408339 -0.717862
v 0.538099 0.439371 -0.678414
v 0.486789 0.750006 0.043229
v 0.571131 0.747703 -0.051956
v 0.514146 0.698665 0.059781
v 0.589624 0.696604 -0.025403
v 0.503734 0.783273 -0.027548
v 0.560751 0.617108 0.026994
v 0.646328 0.693365 -0.074147
v 0.704335 0.593770 -0.020339
v 0.604132 0.683318 -0.031520
v 0.655344 0.593460 0.016032
v 0.704161 0.639401 -0.086068
v 0.560752 0.617107 0.026994
v 0.690059 0.541855 0.058406
v 0.605718 0.544158 0.153591
v 0.651642 0.581675 0.032332
v 0.576163 0.583737 0.117516
v 0.666921 0.502137 0.123852
v 0.560751 0.617107 0.026995
v 0.530541 0.598517 0.175800
v 0.472534 0.698112 0.121992
v 0.560717 0.596045 0.122824
v 0.509505 0.685903 0.075273
v 0.466385 0.645896 0.182278
v 0.560750 0.617108 0.026995
v 0.541360 0.655011 0.040761
v 0.553555 0.619042 0.070113
v 0.592138 0.597260 0.051648
v 0.603789 0.619767 0.010884
v 0.572406 0.655459 0.004155
v -0.714228 0.417816 -0.427911
v -0.616176 0.511645 -0.411977
v -0.709916 0.412789 -0.363273
v -0.622167 0.496759 -0.349013
v -0.656176 0.464024 -0.471324
v -0.643949 0.418650 -0.279380
v -0.570821 0.556122 -0.331561
v -0.584026 0.546878 -0.195868
v -0.610480 0.504203 -0.331756
v -0.621425 0.495016 -0.210303
v -0.536293 0.582958 -0.257585
v -0.643949 0.418650 -0.279379
v -0.642640 0.491813 -0.132353
v -0.740692 0.397983 -0.148287
v -0.633168 0.482385 -0.196690
v -0.720918 0.398415 -0.210950
v -0.692974 0.437511 -0.088771
v -0.643950 0.418649 -0.279379
v -0.786072 0.353533 -0.228703
v -0.772868 0.362777 -0.364396
v -0.731434 0.389744 -0.228182
v -0.720489 0.398932 -0.349635
v -0.812722 0.318435 -0.302508
v -0.643950 0.418649 -0.279380
v -0.673083 0.418281 -0.317614
v -0.687975 0.405070 -0.270045
v -0.660028 0.432417 -0.236427
v -0.627864 0.462530 -0.263218
v -0.635932 0.453794 -0.313395
v -0.089285 0.590386 0.361308
v 0.044867 0.616375 0.361304
v -0.075015 0.554480 0.412995
v 0.045040 0.577738 0.412991
v -0.026917 0.627678 0.315176
v -0.002982 0.504144 0.461742
v 0.124166 0.588042 0.419705
v 0.139554 0.508627 0.529835
v 0.062014 0.571673 0.425493
v 0.075785 0.500602 0.524050
v 0.183873 0.552367 0.470410
v -0.002982 0.504143 0.461743
v 0.076573 0.452732 0.588237
v -0.057579 0.426743 0.588241
v 0.062303 0.488638 0.536551
v -0.057753 0.465380 0.536554
v 0.016462 0.403789 0.625653
v -0.002983 0.504143 0.461743
v -0.136879 0.455075 0.529840
v -0.152267 0.534491 0.419711
v -0.074727 0.471445 0.524053
v -0.088497 0.542516 0.425495
v -0.194328 0.479100 0.470418
v -0.002983 0.504143 0.461742
v -0.010302 0.541923 0.432197
v -0.050181 0.514784 0.458146
v -0.027697 0.487728 0.500129
v 0.026076 0.498145 0.500128
v 0.036827 0.531639 0.458144
v 0.388651 0.391874 0.312217
v -0.129303 0.401562 -0.598761
v 0.504766 0.384570 -0.729292
v 0.824884 0.378579 -0.166275
v 0.299166 0.861761 -0.230864
v 0.861546 -0.019398 0.020502
v 0.901891 -0.019398 -0.358058
v 0.606390 -0.019398 0.303056
v -0.008058 -0.019398 -0.764783
v -0.263214 -0.019398 -0.482229
v 0.712016 -0.019398 -0.688040
v 0.364447 -0.019398 -0.843395
v 0.666366 0.451292 0.126486
v 0.063325 0.468590 0.250382
v -0.240925 0.473922 -0.285192
v 0.174073 0.459923 -0.740092
v 0.734813 0.445936 -0.485660
v 0.388245 0.744115 0.087359
v 0.638081 0.760966 -0.199160
v 0.053179 0.676655 -0.092858
v 0.074833 0.713145 -0.441582
v 0.444377 0.741828 -0.526065
v 0.166266 0.379240 0.691143
v -0.763903 0.320961 -0.490672
v 0.091870 0.372829 -0.592428
v 0.558387 0.389106 0.168011
v 0.645369 0.000000 0.181883
v 0.167328 0.000000 0.789952
v 0.534857 0.000000 0.635571
v -0.668869 0.000000 0.297853
v -0.291839 0.000000 0.662848
v -0.735974 0.000000 -0.701430
v -0.848917 0.000000 -0.255211
v 0.117894 0.000000 -0.645242
v -0.352726 0.000000 -0.807530
v -0.699636 0.377311 -0.015886
v -0.503004 0.377312 -0.695211
v 0.144182 0.610499 0.364157
v 0.102072 0.712506 -0.042160
v -0.405042 0.503356 0.363989
v -0.485848 0.610498 -0.287816
v -0.112538 0.610499 -0.424428
vt 0.4387 0.2661
vt 0.4694 0.3046
vt 0.4081 0.3046
vt 0.4730 0.3367
vt 0.4045 0.3367
vt 0.4387 0.3627
vt 0.4387 0.2661
vt 0.4694 0.3046
vt 0.4081 0.3046
vt 0.4730 0.3367
vt 0.4045 0.3367
vt 0.4387 0.3627
vt 0.4387 0.2661
vt 0.4694 0.3046
vt 0.4081 0.3046
vt 0.4730 0.3367
vt 0.4045 0.3367
vt 0.4387 0.3627
vt 0.4387 0.2661
vt 0.4694 0.3046
vt 0.4081 0.3046
vt 0.4730 0.3367
vt 0.4045 0.3367
vt 0.4387 0.3627
vt 0.5163 0.3262
vt 0.5342 0.2712
vt 0.5920 0.2712
vt 0.6099 0.3262
vt 0.5631 0.3602
vt 0.4387 0.2661
vt 0.4694 0.3046
vt 0.4081 0.3046
vt 0.4730 0.3367
vt 0.4045 0.3367
vt 0.4387 0.3627
vt 0.4387 0.2661
vt 0.4694 0.3046
vt 0.4081 0.3046
vt 0.4730 0.3367
vt 0.4045 0.3367
vt 0.4387 0.3627
vt 0.4387 0.2661
vt 0.4694 0.3046
vt 0.4081 0.3046
vt 0.4730 0.3367
vt 0.4045 0.3367
vt 0.4387 0.3627
vt 0.4387 0.2661
vt 0.4694 0.3046
vt 0.4081 0.3046
vt 0.4730 0.3367
vt 0.4045 0.3367
vt 0.4387 0.3627
vt 0.5163 0.3262
vt 0.5342 0.2712
vt 0.5920 0.2712
vt 0.6099 0.3262
vt 0.5631 0.3602
vt 0.3123 0.2584
vt 0.3451 0.2995
vt 0.2795 0.2995
vt 0.3489 0.3339
vt 0.2757 0.3339
vt 0.3123 0.3617
vt 0.3123 0.2584
vt 0.3451 0.2995
vt 0.2795 0.2995
vt 0.3489 0.3339
vt 0.2757 0.3339
vt 0.3123 0.3617
vt 0.3123 0.2584
vt 0.3451 0.2995
vt 0.2795 0.2995
vt 0.3489 0.3339
vt 0.2757 0.3339
vt 0.3123 0.3617
vt 0.3123 0.2584
vt 0.3451 0.2995
vt 0.2795 0.2995
vt 0.3489 0.3339
vt 0.2757 0.3339
vt 0.3123 0.3617
vt 0.5175 0.3245
vt 0.5349 0.2709
vt 0.5912 0.2709
vt 0.6087 0.3245
vt 0.5631 0.3576
vt 0.3123 0.2584
vt 0.3451 0.2995
vt 0.2795 0.2995
vt 0.3489 0.3339
vt 0.2757 0.3339
vt 0.3123 0.3617
vt 0.3123 0.2584
vt 0.3451 0.2995
vt 0.2795 0.2995
vt 0.3489 0.3339
vt 0.2757 0.3339
vt 0.3123 0.3617
vt 0.3123 0.2584
vt 0.3451 0.2995
vt 0.2795 0.2995
vt 0.3489 0.3339
vt 0.2757 0.3339
vt 0.3123 0.3617
vt 0.3123 0.2584
vt 0.3451 0.2995
vt 0.2795 0.2995
vt 0.3489 0.3339
vt 0.2757 0.3339
vt 0.3123 0.3617
vt 0.5175 0.3245
vt 0.5349 0.2709
vt 0.5912 0.2709
vt 0.6087 0.3245
vt 0.5631 0.3576
vt 0.4387 0.2661
vt 0.4694 0.3046
vt 0.4081 0.3046
vt 0.4730 0.3367
vt 0.4045 0.3367
vt 0.4387 0.3627
vt 0.4387 0.2661
vt 0.4694 0.3046
vt 0.4081 0.3046
vt 0.4730 0.3367
vt 0.4045 0.3367
vt 0.4387 0.3627
vt 0.4387 0.2661
vt 0.4694 0.3046
vt 0.4081 0.3046
vt 0.4730 0.3367
vt 0.4045 0.3367
vt 0.4387 0.3627
vt 0.4387 0.2661
vt 0.4694 0.3046
vt 0.4081 0.3046
vt 0.4730 0.3367
vt 0.4045 0.3367
vt 0.4387 0.3627
vt 0.5163 0.3262
vt 0.5342 0.2712
vt 0.5920 0.2712
vt 0.6099 0.3262
vt 0.5631 0.3602
vt 0.0369 0.9473
vt 0.0393 0.9316
vt 0.0518 0.9407
vt 0.0865 0.9470
vt 0.0751 0.9570
vt 0.0715 0.9412
vt 0.0779 0.9170
vt 0.0840 0.9317
vt 0.0674 0.9298
vt 0.0457 0.9167
vt 0.0618 0.9147
vt 0.0559 0.9300
vt 0.0616 0.9382
vt 0.0612 0.9485
vt 0.0487 0.9573
vt 0.0447 0.8848
vt 0.0789 0.8849
vt 0.1071 0.9058
vt 0.1173 0.9381
vt 0.0059 0.9379
vt 0.0163 0.9055
vt 0.1063 0.9712
vt 0.1614 0.9575
vt 0.1589 0.9295
vt 0.1723 0.9451
vt 0.2227 0.9341
vt 0.2108 0.9526
vt 0.2045 0.9363
vt 0.1915 0.9105
vt 0.2154 0.9210
vt 0.1952 0.9251
vt 0.1819 0.9338
vt 0.1897 0.9583
vt 0.2228 0.8985
vt 0.2405 0.9200
vt 0.2384 0.9522
vt 0.2114 0.9817
vt 0.1752 0.9882
vt 0.1466 0.9732
vt 0.1327 0.9500
vt 0.1403 0.9206
vt 0.1921 0.8910
vn -0.5414 0.8336 0.1096
vn -0.4577 0.8759 -0.1529
vn -0.4014 0.8714 -0.2820
vn -0.6633 0.7090 -0.2397
vn -0.3393 0.9349 -0.1041
vn -0.3383 0.8502 -0.4034
vn -0.5049 0.8630 -0.0206
vn -0.2165 0.9748 -0.0542
vn -0.5670 0.7995 -0.1986
vn 0.4752 0.2667 -0.8385
vn 0.6602 0.3667 -0.6555
vn 0.7348 0.4068 -0.5428
vn 0.7672 0.1105 -0.6318
vn 0.5860 0.4864 -0.6481
vn 0.7938 0.4382 -0.4216
vn 0.5725 0.3194 -0.7552
vn 0.5019 0.5945 -0.6283
vn 0.7212 0.2397 -0.6499
vn 0.7406 0.1610 0.6524
vn 0.6441 0.5231 0.5581
vn 0.5390 0.7053 0.4605
vn 0.2313 0.5548 0.7992
vn 0.4768 0.6123 0.6307
vn 0.6626 0.6160 0.4259
vn 0.3351 0.9011 0.2751
vn 0.4979 0.7572 0.4228
vn 0.6374 0.5379 0.5518
vn 0.8344 0.5383 0.1186
vn 0.6981 0.6062 0.3809
vn 0.5174 0.6200 0.5898
vn 0.5949 0.6196 0.5121
vn -0.6493 0.5989 0.4687
vn -0.6964 0.7104 0.1017
vn -0.6747 0.7269 -0.1285
vn -0.9415 0.3317 -0.0598
vn -0.8003 0.5988 -0.0322
vn -0.6070 0.7947 -0.0049
vn -0.5785 0.6808 -0.4493
vn -0.6595 0.7237 -0.2031
vn -0.6960 0.7130 0.0845
vn -0.2889 0.9563 0.0463
vn -0.5608 0.8279 0.0067
vn -0.7642 0.6443 -0.0305
vn -0.6900 0.7236 -0.0150
vn -0.6900 0.7236 -0.0151
vn -0.1162 0.6001 0.7914
vn -0.1533 0.7912 0.5920
vn -0.1676 0.8651 0.4728
vn -0.4183 0.7080 0.5690
vn -0.0137 0.8101 0.5861
vn -0.1784 0.9209 0.3466
vn -0.1359 0.7016 0.6995
vn 0.1236 0.8130 0.5690
vn -0.2898 0.7566 0.5861
vn 0.4091 0.4913 0.7689
vn -0.6709 0.6338 -0.3851
vn 0.1434 0.5075 -0.8496
vn 0.8920 0.4218 -0.1626
vn 0.2971 0.9266 -0.2303
vn 0.6720 0.6005 -0.4334
vn 0.5768 0.4754 -0.6643
vn -0.1693 0.8812 -0.4413
vn -0.2088 0.7104 -0.6721
vn -0.4272 0.6145 -0.6633
vn -0.5830 0.8110 0.0487
vn -0.5880 0.8075 0.0480
vn -0.3881 0.8238 0.4132
vn -0.4142 0.7729 0.4807
vn -0.0333 0.5377 0.8424
vn 0.2507 0.9287 0.2732
vn 0.5745 0.6175 0.5373
vn 0.8323 0.4360 0.3423
vn 0.9377 0.2804 -0.2053
vn 0.8539 0.1719 -0.4913
vn 0.6652 0.2702 -0.6961
vn 0.0869 0.2427 -0.9662
vn -0.2048 0.1278 -0.9704
vn -0.4460 0.2143 -0.8690
vn 0.5016 0.2471 0.8291
vn 0.7332 0.1550 0.6621
vn 0.8731 0.2707 0.4055
vn 0.4053 0.1153 -0.9069
vn -0.7412 0.0505 -0.6694
vn 0.9846 0.1399 0.1049
vn 0.5769 0.6848 0.4453
vn -0.7271 0.6864 0.0170
vn 0.1346 0.6466 -0.7509
vn 0.6455 0.6445 -0.4098
vn 0.4795 0.7427 -0.4674
vn -0.0788 0.9733 -0.2155
vn -0.1769 0.8574 -0.4833
vn -0.4919 0.7644 -0.4168
vn -0.2431 0.9519 0.1866
vn -0.5934 0.7792 0.2017
vn -0.1851 0.9484 0.2573
vn -0.1565 0.8014 0.5773
vn 0.5222 0.8384 0.1564
vn 0.1626 0.3404 -0.9261
vn -0.2626 0.1777 -0.9484
vn -0.6184 0.3930 -0.6805
vn -0.9443 0.3164 0.0903
vn -0.9359 0.1770 0.3047
vn -0.7929 0.3501 0.4987
vn -0.3865 0.4050 0.8286
vn -0.2588 0.2429 0.9349
vn 0.6558 0.5638 0.5022
vn 0.9478 0.2201 0.2309
vn 0.3221 0.1548 -0.9340
vn -0.9666 0.0765 -0.2447
vn -0.6715 0.2608 0.6936
vn 0.3765 0.2346 0.8962
s off
f 6/1/1 4/2/1 3/3/1
f 4/2/2 2/4/2 1/5/2 3/3/2
f 5/6/3 1/5/3 2/4/3
f 12/7/4 10/8/4 9/9/4
f 10/8/2 8/10/2 7/11/2 9/9/2
f 11/12/5 7/11/5 8/10/5
f 18/13/6 16/14/6 15/15/6
f 16/14/2 14/16/2 13/17/2 15/15/2
f 17/18/7 13/17/7 14/16/7
f 24/19/8 22/20/8 21/21/8
f 22/20/2 20/22/2 19/23/2 21/21/2
f 23/24/9 19/23/9 20/22/9
f 26/25/2 27/26/2 28/27/2 29/28/2
f 25/29/2 26/25/2 29/28/2
f 35/30/10 33/31/10 32/32/10
f 33/31/11 31/33/11 30/34/11 32/32/11
f 34/35/12 30/34/12 31/33/12
f 41/36/13 39/37/13 38/38/13
f 39/37/11 37/39/11 36/40/11 38/38/11
f 40/41/14 36/40/14 37/39/14
f 47/42/15 45/43/15 44/44/15
f 45/43/11 43/45/11 42/46/11 44/44/11
f 46/47/16 42/46/16 43/45/16
f 53/48/17 51/49/17 50/50/17
f 51/49/11 49/51/11 48/52/11 50/50/11
f 52/53/18 48/52/18 49/51/18
f 55/54/11 56/55/11 57/56/11 58/57/11
f 54/58/11 55/54/11 58/57/11
f 64/59/19 62/60/19 61/61/19
f 62/60/20 60/62/20 59/63/20 61/61/20
f 63/64/21 59/63/21 60/62/21
f 70/65/22 68/66/22 67/67/22
f 68/66/23 66/68/23 65/69/23 67/67/23
f 69/70/24 65/69/24 66/68/24
f 76/71/25 74/72/25 73/73/25
f 74/72/26 72/74/26 71/75/26 73/73/26
f 75/76/27 71/75/27 72/74/27
f 82/77/28 80/78/28 79/79/28
f 80/78/29 78/80/29 77/81/29 79/79/29
f 81/82/30 77/81/30 78/80/30
f 84/83/31 85/84/31 86/85/31 87/86/31
f 83/87/31 84/83/31 87/86/31
f 93/88/32 91/89/32 90/90/32
f 91/89/33 89/91/33 88/92/33 90/90/33
f 92/93/34 88/92/34 89/91/34
f 99/94/35 97/95/35 96/96/35
f 97/95/36 95/97/36 94/98/36 96/96/36
f 98/99/37 94/98/37 95/97/37
f 105/100/38 103/101/38 102/102/38
f 103/101/39 101/103/39 100/104/39 102/102/39
f 104/105/40 100/104/40 101/103/40
f 111/106/41 109/107/41 108/108/41
f 109/107/42 107/109/42 106/110/42 108/108/42
f 110/111/43 106/110/43 107/109/43
f 113/112/44 114/113/44 115/114/44 116/115/44
f 112/116/45 113/112/45 116/115/45
f 122/117/46 120/118/46 119/119/46
f 120/118/47 118/120/47 117/121/47 119/119/47
f 121/122/48 117/121/48 118/120/48
f 128/123/49 126/124/49 125/125/49
f 126/124/47 124/126/47 123/127/47 125/125/47
f 127/128/50 123/127/50 124/126/50
f 134/129/51 132/130/51 131/131/51
f 132/130/47 130/132/47 129/133/47 131/131/47
f 133/134/52 129/133/52 130/132/52
f 140/135/53 138/136/53 137/137/53
f 138/136/47 136/138/47 135/139/47 137/137/47
f 139/140/54 135/139/54 136/138/54
f 142/141/47 143/142/47 144/143/47 145/144/47
f 141/145/47 142/141/47 145/144/47
f 146/146/55 158/147/55 163/148/55
f 147/149/56 160/150/56 166/151/56
f 148/152/57 161/153/57 167/154/57
f 149/155/58 162/156/58 164/157/58
f 164/157/59 167/154/59 150/158/59
f 164/157/60 162/156/60 167/154/60
f 162/156/61 148/152/61 167/154/61
f 167/154/62 166/151/62 150/158/62
f 167/154/63 161/153/63 166/151/63
f 161/153/64 147/149/64 166/151/64
f 166/151/65 165/159/65 150/158/65
f 166/151/66 160/150/66 165/159/66
f 165/159/67 163/148/67 150/158/67
f 165/159/68 159/160/68 163/148/68
f 159/160/69 146/146/69 163/148/69
f 163/148/70 164/157/70 150/158/70
f 163/148/71 158/147/71 164/157/71
f 158/147/72 149/155/72 164/157/72
f 152/161/73 162/156/73 149/155/73
f 152/161/74 156/162/74 162/156/74
f 156/162/75 148/152/75 162/156/75
f 157/163/76 161/153/76 148/152/76
f 157/163/77 154/164/77 161/153/77
f 154/164/78 147/149/78 161/153/78
f 153/165/79 158/147/79 146/146/79
f 153/165/80 151/166/80 158/147/80
f 151/166/81 149/155/81 158/147/81
f 156/162/82 157/163/82 148/152/82
f 154/164/83 155/167/83 147/149/83
f 151/166/84 152/161/84 149/155/84
f 168/168/85 171/169/85 183/170/85
f 169/171/86 181/172/86 186/173/86
f 170/174/87 182/175/87 187/176/87
f 171/169/88 170/174/88 184/177/88
f 184/177/89 170/174/89 187/176/89
f 187/176/90 186/173/90 184/177/90
f 187/176/91 182/175/91 186/173/91
f 182/175/92 169/171/92 186/173/92
f 186/173/93 185/178/93 184/177/93
f 186/173/94 181/172/94 185/178/94
f 185/178/95 183/170/95 184/177/95
f 185/178/96 168/168/96 183/170/96
f 183/170/97 171/169/97 184/177/97
f 180/179/98 182/175/98 170/174/98
f 180/179/99 177/180/99 182/175/99
f 177/180/100 169/171/100 182/175/100
f 178/181/101 181/172/101 169/171/101
f 178/181/102 175/182/102 181/172/102
f 175/182/103 185/178/103 181/172/103
f 176/183/104 168/168/104 185/178/104
f 176/183/105 173/184/105 168/168/105
f 174/185/106 171/169/106 168/168/106
f 174/185/107 172/186/107 171/169/107
f 179/187/108 180/179/108 170/174/108
f 177/180/109 178/181/109 169/171/109
f 175/182/110 176/183/110 185/178/110
f 173/184/111 174/185/111 168/168/111
