# Blender v2.78 (sub 0) OBJ File: 'Low_Poly_Vegetation_Pack.blend'
# www.blender.org
g FlowerBush_a_m_06
v -0.733757 0.753558 0.052860
v -0.624232 0.378729 0.265558
v -0.657200 1.082053 -0.067602
v -0.699730 0.652368 -0.240510
v -0.540732 0.427695 -0.453714
v -0.489287 0.077684 0.157660
v -0.634939 1.070602 0.209472
v -0.644352 0.697971 0.367535
v -0.536915 0.867723 0.513854
v -0.557059 1.039245 -0.409472
v -0.604749 0.239502 -0.105767
v -0.052860 0.753558 -0.733757
v -0.265558 0.378729 -0.624232
v 0.067602 1.082053 -0.657200
v 0.240510 0.652368 -0.699730
v 0.453714 0.427695 -0.540732
v -0.157660 0.077684 -0.489287
v -0.209472 1.070602 -0.634939
v -0.367535 0.697971 -0.644352
v -0.513854 0.867723 -0.536915
v 0.409472 1.039245 -0.557059
v 0.105767 0.239502 -0.604749
v 0.733757 0.753558 -0.052860
v 0.624232 0.378729 -0.265558
v 0.657200 1.082053 0.067602
v 0.699730 0.652368 0.240510
v 0.561206 0.650990 0.492169
v 0.489287 0.077684 -0.157660
v 0.634939 1.070602 -0.209472
v 0.644352 0.697971 -0.367535
v 0.536915 0.867723 -0.513854
v 0.604749 0.239502 0.105767
v 0.052860 0.753558 0.733757
v 0.265558 0.378729 0.624232
v -0.067602 1.082053 0.657200
v -0.240510 0.652368 0.699730
v 0.157660 0.077684 0.489287
v 0.301673 0.967623 0.650708
v 0.367535 0.697971 0.644352
v -0.409472 1.039245 0.557059
v -0.105767 0.239502 0.604749
v 0.000000 -0.149134 0.000000
v -0.089141 -0.061249 -0.314245
v -0.294329 -0.053706 -0.161330
v 0.314245 -0.061249 -0.089141
v 0.161330 -0.053706 -0.294329
v 0.089141 -0.061249 0.314245
v 0.294329 -0.053706 0.161330
v -0.314245 -0.061249 0.089141
v -0.161330 -0.053706 0.294329
v 0.129517 1.251323 -0.133908
v 0.073182 1.201748 -0.499316
v -0.465223 1.217749 -0.076192
v -0.076192 1.217749 0.465223
v 0.453527 1.215754 0.170648
v 0.426575 1.179675 -0.361649
v -0.361649 1.179675 -0.426575
v -0.426575 1.179675 0.361649
v 0.568004 1.100148 0.321176
v -0.453714 0.427694 0.540732
v 0.501667 0.293294 0.405851
v 0.238908 1.142485 0.558745
v -0.258112 0.077105 0.437756
v -0.437756 0.077105 -0.258112
v 0.437756 0.077105 0.258112
v 0.513248 1.014220 0.471019
v 0.258112 0.077105 -0.437756
v 0.434940 0.532788 0.565623
v 0.401301 0.490803 0.579620
v 0.416251 0.446204 0.549995
v 0.459130 0.460625 0.517690
v 0.470680 0.514137 0.527349
v 0.425801 0.493404 0.535913
v 0.432410 0.631792 0.650326
v 0.471736 0.645018 0.620697
v 0.387779 0.557189 0.627492
v 0.489600 0.591433 0.550780
v 0.425801 0.493404 0.535913
v 0.564022 0.612329 0.540015
v 0.585106 0.577974 0.508797
v 0.481711 0.593783 0.570996
v 0.536298 0.504832 0.490169
v 0.425801 0.493404 0.535913
v 0.587057 0.461448 0.459371
v 0.568814 0.413867 0.457781
v 0.533541 0.524179 0.495145
v 0.486307 0.400983 0.491031
v 0.425801 0.493404 0.535913
v 0.483991 0.327706 0.495315
v 0.448046 0.313055 0.528796
v 0.496949 0.415658 0.482068
v 0.395127 0.381414 0.558780
v 0.425801 0.493404 0.535913
v 0.362437 0.342929 0.617086
v 0.341354 0.377285 0.648303
v 0.413075 0.374825 0.550022
v 0.358488 0.463776 0.630850
v 0.425801 0.493404 0.535913
v 0.334590 0.495839 0.692248
v 0.352834 0.543420 0.693837
v 0.356433 0.446457 0.620392
v 0.403667 0.569652 0.624507
v 0.483335 1.088287 -0.434640
v 0.453911 1.077536 -0.488729
v 0.404526 1.115731 -0.491777
v 0.403428 1.150087 -0.439571
v 0.452135 1.133126 -0.404258
v 0.428817 1.099853 -0.443397
v 0.619413 1.034094 -0.430433
v 0.618406 1.065603 -0.382553
v 0.533634 1.029377 -0.483670
v 0.531027 1.110960 -0.359701
v 0.428817 1.099853 -0.443397
v 0.563256 1.173367 -0.307090
v 0.521792 1.212153 -0.299167
v 0.546305 1.102154 -0.376774
v 0.438949 1.202577 -0.356262
v 0.428817 1.099853 -0.443397
v 0.402278 1.275560 -0.343408
v 0.361821 1.282837 -0.383366
v 0.455283 1.189599 -0.347378
v 0.350533 1.208439 -0.450835
v 0.428817 1.099853 -0.443397
v 0.302965 1.245252 -0.507411
v 0.307350 1.217899 -0.557956
v 0.357096 1.211041 -0.429221
v 0.359703 1.129458 -0.553190
v 0.428817 1.099853 -0.443397
v 0.369173 1.118343 -0.638680
v 0.410637 1.079557 -0.646602
v 0.354476 1.150627 -0.544043
v 0.461832 1.050204 -0.564554
v 0.428817 1.099852 -0.443397
v 0.525342 1.010236 -0.598571
v 0.565799 1.002959 -0.558613
v 0.440690 1.057267 -0.569647
v 0.545440 1.038428 -0.466190
v -0.331514 0.817910 -0.663410
v -0.368465 0.778319 -0.651085
v -0.408287 0.801145 -0.619814
v -0.395948 0.854842 -0.612812
v -0.348499 0.865203 -0.639756
v -0.361865 0.819687 -0.623554
v -0.252492 0.786253 -0.761929
v -0.241175 0.835501 -0.755507
v -0.311542 0.750472 -0.704505
v -0.282239 0.877983 -0.687878
v -0.361865 0.819687 -0.623554
v -0.273724 0.950858 -0.714281
v -0.304507 0.980687 -0.686761
v -0.282509 0.862209 -0.702936
v -0.362212 0.939440 -0.631684
v -0.361865 0.819687 -0.623554
v -0.407229 0.994851 -0.614344
v -0.449330 0.975431 -0.593246
v -0.344072 0.936341 -0.639888
v -0.453077 0.886063 -0.585262
v -0.361865 0.819687 -0.623554
v -0.523989 0.876201 -0.569201
v -0.538059 0.828157 -0.580008
v -0.439154 0.900700 -0.585554
v -0.468457 0.773190 -0.602181
v -0.361865 0.819687 -0.623554
v -0.510946 0.715178 -0.629892
v -0.480163 0.685349 -0.657412
v -0.476376 0.792547 -0.600166
v -0.396674 0.715315 -0.671419
v -0.361865 0.819687 -0.623554
v -0.373523 0.669472 -0.723590
v -0.331423 0.688891 -0.744687
v -0.410896 0.716700 -0.656976
v -0.301891 0.766979 -0.711601
v -0.244727 1.126757 0.581368
v -0.198497 1.107955 0.621543
v -0.143445 1.134353 0.602122
v -0.155651 1.169470 0.549944
v -0.218246 1.164775 0.537117
v -0.188670 1.125266 0.567252
v -0.383258 1.104843 0.635100
v -0.394453 1.137051 0.587245
v -0.284388 1.078805 0.651776
v -0.313372 1.162195 0.527873
v -0.188670 1.125266 0.567252
v -0.349962 1.233146 0.486421
v -0.306433 1.262233 0.459740
v -0.322501 1.156647 0.550650
v -0.209798 1.231958 0.481569
v -0.188670 1.125266 0.567252
v -0.164948 1.296384 0.449629
v -0.110225 1.293264 0.470803
v -0.231242 1.223050 0.480590
v -0.089556 1.214971 0.535412
v -0.188670 1.125266 0.567252
v -0.015011 1.239280 0.567289
v -0.004909 1.211957 0.618687
v -0.103651 1.219571 0.517430
v -0.074668 1.136181 0.641334
v -0.188670 1.125266 0.567252
v -0.051557 1.125507 0.726506
v -0.095086 1.096420 0.753187
v -0.068788 1.156257 0.629095
v -0.181491 1.080947 0.698176
v -0.188670 1.125266 0.567252
v -0.235016 1.055318 0.758257
v -0.289740 1.058439 0.737083
v -0.158492 1.082904 0.694113
v -0.300179 1.090984 0.639291
v -0.697255 0.481703 0.139760
v -0.678468 0.433294 0.164152
v -0.663744 0.445277 0.218290
v -0.673431 0.501091 0.227357
v -0.694141 0.523604 0.178823
v -0.665301 0.480632 0.180491
v -0.766057 0.461196 0.026035
v -0.774941 0.512385 0.034350
v -0.709508 0.418332 0.085781
v -0.732510 0.550869 0.107311
v -0.665301 0.480632 0.180491
v -0.781472 0.614169 0.116446
v -0.771118 0.635367 0.163477
v -0.741480 0.532614 0.097628
v -0.714671 0.587499 0.219397
v -0.665301 0.480632 0.180491
v -0.725510 0.623488 0.285323
v -0.706271 0.593497 0.324038
v -0.718136 0.590203 0.199055
v -0.668325 0.512550 0.299293
v -0.665301 0.480632 0.180491
v -0.662459 0.477954 0.366471
v -0.658684 0.425610 0.359800
v -0.671147 0.531627 0.291316
v -0.648145 0.399090 0.269785
v -0.665301 0.480632 0.180491
v -0.662243 0.321547 0.280954
v -0.672597 0.300349 0.233923
v -0.654374 0.413911 0.284363
v -0.681184 0.359027 0.162593
v -0.665301 0.480632 0.180491
v -0.710934 0.313870 0.109735
v -0.730173 0.343862 0.071020
v -0.670448 0.357966 0.180595
v -0.720259 0.435618 0.080356
vt 0.7087 0.9108
vt 0.7178 0.9116
vt 0.7155 0.9208
vt 0.7064 0.9138
vt 0.6781 0.9767
vt 0.6865 0.9787
vt 0.6834 0.9870
vt 0.6958 0.9804
vt 0.6941 0.9907
vt 0.6781 0.8964
vt 0.6868 0.8999
vt 0.6830 0.9043
vt 0.6790 0.8876
vt 0.6857 0.8895
vt 0.6913 0.8926
vt 0.6715 0.9024
vt 0.6745 0.9138
vt 0.6668 0.9112
vt 0.6790 0.9107
vt 0.6720 0.9858
vt 0.6696 0.9773
vt 0.6701 0.9679
vt 0.6841 0.9519
vt 0.6821 0.9603
vt 0.6738 0.9572
vt 0.6804 0.9695
vt 0.6783 0.9270
vt 0.6819 0.9182
vt 0.6862 0.9221
vt 0.6695 0.9261
vt 0.6715 0.9194
vt 0.6843 0.9336
vt 0.6957 0.9306
vt 0.6930 0.9433
vt 0.6927 0.9261
vt 0.6750 0.9458
vt 0.6836 0.9434
vt 0.7089 0.9579
vt 0.7005 0.9559
vt 0.7036 0.9476
vt 0.6913 0.9542
vt 0.7089 0.9268
vt 0.7002 0.9232
vt 0.7040 0.9188
vt 0.7081 0.9355
vt 0.7013 0.9336
vt 0.7150 0.9488
vt 0.7174 0.9573
vt 0.7132 0.9667
vt 0.7132 0.9774
vt 0.7205 0.9667
vt 0.7029 0.9827
vt 0.7049 0.9743
vt 0.7066 0.9651
vt 0.7087 0.8962
vt 0.7081 0.9052
vt 0.7008 0.9010
vt 0.7175 0.8970
vt 0.7155 0.9038
vt 0.7027 0.8896
vt 0.6939 0.8848
vt 0.6944 0.8970
vt 0.7120 0.9888
vt 0.7035 0.9912
vt 0.6933 0.9674
vt 0.6855 0.9689
vt 0.6871 0.9630
vt 0.6919 0.9592
vt 0.6978 0.9609
vt 0.7016 0.9657
vt 0.6999 0.9716
vt 0.6951 0.9754
vt 0.6892 0.9737
vt 0.6937 0.9139
vt 0.6950 0.9211
vt 0.6893 0.9183
vt 0.6873 0.9079
vt 0.6921 0.9020
vt 0.6972 0.9053
vt 0.7003 0.9140
vt 0.7035 0.9067
vt 0.6863 0.9944
vt 0.6664 0.9601
vt 0.7007 0.9402
vt 0.7206 0.9745
vt 0.6839 0.9130
vt 0.4387 0.3548
vt 0.4636 0.2783
vt 0.4789 0.3256
vt 0.3985 0.3256
vt 0.4138 0.2783
vt 0.7222 0.3086
vt 0.6525 0.3086
vt 0.6739 0.2683
vt 0.7008 0.2683
vt 0.6873 0.3585
vt 0.7222 0.3086
vt 0.6525 0.3086
vt 0.6739 0.2683
vt 0.7008 0.2683
vt 0.6873 0.3589
vt 0.7222 0.3086
vt 0.6525 0.3086
vt 0.6739 0.2683
vt 0.7008 0.2683
vt 0.6873 0.3587
vt 0.7222 0.3086
vt 0.6525 0.3089
vt 0.6735 0.2684
vt 0.7006 0.2684
vt 0.6876 0.3588
vt 0.7222 0.3086
vt 0.6525 0.3086
vt 0.6739 0.2683
vt 0.7008 0.2683
vt 0.6873 0.3589
vt 0.7222 0.3086
vt 0.6525 0.3086
vt 0.6739 0.2683
vt 0.7008 0.2683
vt 0.6873 0.3587
vt 0.4387 0.3548
vt 0.4636 0.2783
vt 0.4789 0.3256
vt 0.3985 0.3256
vt 0.4138 0.2783
vt 0.7222 0.3086
vt 0.6525 0.3086
vt 0.6739 0.2683
vt 0.7008 0.2683
vt 0.6873 0.3585
vt 0.7222 0.3086
vt 0.6525 0.3086
vt 0.6739 0.2683
vt 0.7008 0.2683
vt 0.6873 0.3589
vt 0.7222 0.3086
vt 0.6525 0.3086
vt 0.6739 0.2683
vt 0.7008 0.2683
vt 0.6873 0.3587
vt 0.7222 0.3086
vt 0.6525 0.3089
vt 0.6735 0.2684
vt 0.7006 0.2684
vt 0.6876 0.3588
vt 0.7222 0.3086
vt 0.6525 0.3086
vt 0.6739 0.2683
vt 0.7008 0.2683
vt 0.6873 0.3589
vt 0.7222 0.3086
vt 0.6525 0.3086
vt 0.6739 0.2683
vt 0.7008 0.2683
vt 0.6873 0.3587
vt 0.4387 0.3548
vt 0.4636 0.2783
vt 0.4789 0.3256
vt 0.3985 0.3256
vt 0.4138 0.2783
vt 0.7222 0.3086
vt 0.6525 0.3086
vt 0.6739 0.2683
vt 0.7008 0.2683
vt 0.6873 0.3585
vt 0.7222 0.3086
vt 0.6525 0.3086
vt 0.6739 0.2683
vt 0.7008 0.2683
vt 0.6873 0.3589
vt 0.7222 0.3086
vt 0.6525 0.3086
vt 0.6739 0.2683
vt 0.7008 0.2683
vt 0.6873 0.3587
vt 0.7222 0.3086
vt 0.6525 0.3089
vt 0.6735 0.2684
vt 0.7006 0.2684
vt 0.6876 0.3588
vt 0.7222 0.3086
vt 0.6525 0.3086
vt 0.6739 0.2683
vt 0.7008 0.2683
vt 0.6873 0.3589
vt 0.7222 0.3086
vt 0.6525 0.3086
vt 0.6739 0.2683
vt 0.7008 0.2683
vt 0.6873 0.3587
vt 0.4387 0.3548
vt 0.4636 0.2783
vt 0.4789 0.3256
vt 0.3985 0.3256
vt 0.4138 0.2783
vt 0.7222 0.3086
vt 0.6525 0.3086
vt 0.6739 0.2683
vt 0.7008 0.2683
vt 0.6873 0.3585
vt 0.7222 0.3086
vt 0.6525 0.3086
vt 0.6739 0.2683
vt 0.7008 0.2683
vt 0.6873 0.3589
vt 0.7222 0.3086
vt 0.6525 0.3086
vt 0.6739 0.2683
vt 0.7008 0.2683
vt 0.6873 0.3587
vt 0.7222 0.3086
vt 0.6525 0.3089
vt 0.6735 0.2684
vt 0.7006 0.2684
vt 0.6876 0.3588
vt 0.7222 0.3086
vt 0.6525 0.3086
vt 0.6739 0.2683
vt 0.7008 0.2683
vt 0.6873 0.3589
vt 0.7222 0.3086
vt 0.6525 0.3086
vt 0.6739 0.2683
vt 0.7008 0.2683
vt 0.6873 0.3587
vt 0.4387 0.3548
vt 0.4636 0.2783
vt 0.4789 0.3256
vt 0.3985 0.3256
vt 0.4138 0.2783
vt 0.7222 0.3086
vt 0.6525 0.3086
vt 0.6739 0.2683
vt 0.7008 0.2683
vt 0.6873 0.3585
vt 0.7222 0.3086
vt 0.6525 0.3086
vt 0.6739 0.2683
vt 0.7008 0.2683
vt 0.6873 0.3589
vt 0.7222 0.3086
vt 0.6525 0.3086
vt 0.6739 0.2683
vt 0.7008 0.2683
vt 0.6873 0.3587
vt 0.7222 0.3086
vt 0.6525 0.3089
vt 0.6735 0.2684
vt 0.7006 0.2684
vt 0.6876 0.3588
vt 0.7222 0.3086
vt 0.6525 0.3086
vt 0.6739 0.2683
vt 0.7008 0.2683
vt 0.6873 0.3589
vt 0.7222 0.3086
vt 0.6525 0.3086
vt 0.6739 0.2683
vt 0.7008 0.2683
vt 0.6873 0.3587
vn 0.8753 0.1604 0.4562
vn -0.8895 -0.4413 0.1188
vn -0.6568 -0.5253 0.5410
vn -0.9625 0.2566 0.0879
vn -0.9587 -0.1396 0.2477
vn -0.8859 0.1999 0.4186
vn -0.8274 -0.0551 -0.5589
vn -0.9717 0.1643 -0.1694
vn -0.8784 0.1221 -0.4621
vn -0.9717 -0.2340 -0.0320
vn -0.8893 -0.3133 -0.3331
vn -0.1188 -0.4413 -0.8895
vn -0.5410 -0.5253 -0.6568
vn -0.0879 0.2566 -0.9625
vn -0.2477 -0.1396 -0.9587
vn -0.4186 0.1999 -0.8859
vn 0.5589 -0.0551 -0.8274
vn 0.1694 0.1643 -0.9717
vn 0.4621 0.1221 -0.8784
vn 0.0320 -0.2340 -0.9717
vn 0.3331 -0.3133 -0.8893
vn 0.8895 -0.4413 -0.1188
vn 0.6568 -0.5253 -0.5410
vn 0.9625 0.2566 -0.0879
vn 0.9587 -0.1396 -0.2477
vn 0.8859 0.1999 -0.4186
vn 0.9717 0.1643 0.1694
vn 0.9717 -0.2340 0.0320
vn 0.8774 -0.3189 0.3585
vn 0.5950 -0.2808 0.7531
vn 0.1188 -0.4413 0.8895
vn 0.5170 -0.5819 0.6278
vn 0.0973 0.2596 0.9608
vn 0.2477 -0.1396 0.9587
vn 0.6323 0.1365 0.7626
vn -0.5589 -0.0551 0.8274
vn -0.1694 0.1643 0.9717
vn -0.4621 0.1221 0.8784
vn -0.0320 -0.2340 0.9717
vn -0.3331 -0.3133 0.8893
vn -0.1938 -0.9577 -0.2129
vn -0.3891 -0.7842 -0.4834
vn -0.3897 -0.7895 -0.4741
vn 0.2129 -0.9577 -0.1938
vn 0.4834 -0.7842 -0.3891
vn 0.4741 -0.7895 -0.3897
vn 0.1938 -0.9577 0.2129
vn 0.3891 -0.7842 0.4834
vn 0.3897 -0.7895 0.4741
vn -0.2129 -0.9577 0.1938
vn -0.4834 -0.7842 0.3891
vn -0.4741 -0.7895 0.3897
vn 0.1204 0.9811 -0.1517
vn -0.1360 0.9859 0.0977
vn 0.5953 0.7888 0.1531
vn 0.1497 0.9532 0.2627
vn 0.4910 0.6661 0.5614
vn -0.9655 -0.2563 0.0455
vn -0.8100 -0.2241 0.5418
vn -0.6949 -0.4976 0.5192
vn -0.9440 0.1488 0.2945
vn -0.7431 0.4212 0.5200
vn -0.7431 -0.1001 0.6617
vn -0.9303 0.2124 -0.2991
vn -0.7354 -0.6716 -0.0902
vn -0.7998 -0.4540 -0.3927
vn -0.0455 -0.2563 -0.9655
vn -0.5418 -0.2241 -0.8100
vn -0.5192 -0.4976 -0.6949
vn -0.2945 0.1488 -0.9440
vn -0.5200 0.4212 -0.7431
vn -0.6617 -0.1001 -0.7431
vn 0.2991 0.2124 -0.9303
vn 0.0902 -0.6716 -0.7354
vn 0.3927 -0.4540 -0.7998
vn 0.9655 -0.2563 -0.0455
vn 0.8100 -0.2241 -0.5418
vn 0.6949 -0.4976 -0.5192
vn 0.9440 0.1488 -0.2945
vn 0.7431 0.4212 -0.5200
vn 0.7431 -0.1001 -0.6617
vn 0.9257 0.2164 0.3102
vn -0.6404 -0.7642 -0.0767
vn 0.7354 -0.6716 0.0902
vn 0.8480 -0.2535 0.4654
vn 0.7982 -0.4825 0.3607
vn 0.0455 -0.2563 0.9655
vn 0.5660 -0.2307 0.7915
vn 0.4857 -0.4966 0.7194
vn 0.1717 0.5061 0.8452
vn 0.2805 0.0459 0.9588
vn 0.4742 0.5371 0.6976
vn 0.6256 0.1274 0.7697
vn -0.2991 0.2124 0.9303
vn -0.0902 -0.6716 0.7354
vn -0.3927 -0.4540 0.7998
vn -0.2825 -0.9579 -0.0513
vn 0.0767 -0.7642 -0.6404
vn 0.0513 -0.9579 -0.2825
vn 0.6404 -0.7642 0.0767
vn 0.2825 -0.9579 0.0513
vn -0.0767 -0.7642 0.6404
vn -0.0513 -0.9579 0.2825
vn 0.2706 0.7668 -0.5820
vn 0.1787 0.9810 -0.0755
vn 0.5131 0.8544 -0.0814
vn -0.0694 0.9896 -0.1258
vn 0.6553 0.5851 -0.4778
vn -0.5719 0.7783 -0.2592
vn -0.1132 0.8217 -0.5586
vn -0.2592 0.7783 0.5719
vn -0.4778 0.5851 -0.6553
vn -0.0527 0.9979 0.0378
vn -0.5457 0.8315 0.1041
vn -0.6553 0.5851 0.4778
vn 0.0430 0.9966 0.0706
vn 0.3752 0.8508 0.3681
vn 0.0241 0.8169 0.5763
vn 0.6356 -0.2679 0.7241
vn 0.6142 -0.5428 0.5729
vn 0.6226 -0.4969 0.6046
vn 0.4017 -0.4685 0.7869
vn 0.3768 -0.4856 0.7888
vn 0.3917 -0.1803 0.9022
vn 0.3928 -0.1807 0.9017
vn 0.6077 0.0706 0.7911
vn 0.6021 -0.0019 0.7984
vn 0.8066 -0.0408 0.5897
vn 0.8185 -0.0195 0.5742
vn 0.8166 -0.3289 0.4743
vn 0.8114 -0.3273 0.4844
vn 0.5648 0.6948 -0.4453
vn 0.2807 0.8045 -0.5235
vn 0.3343 0.7905 -0.5132
vn 0.4135 0.5846 -0.6980
vn 0.3965 0.5708 -0.7190
vn 0.6697 0.4406 -0.5978
vn 0.6694 0.4417 -0.5973
vn 0.8109 0.5105 -0.2862
vn 0.7702 0.5401 -0.3392
vn 0.6603 0.7362 -0.1486
vn 0.6658 0.7364 -0.1203
vn 0.4040 0.8803 -0.2488
vn 0.4107 0.8749 -0.2565
vn -0.5179 0.2266 -0.8249
vn -0.7488 0.2520 -0.6130
vn -0.7124 0.2493 -0.6560
vn -0.6803 -0.0263 -0.7325
vn -0.6926 -0.0509 -0.7196
vn -0.4238 -0.0630 -0.9036
vn -0.4242 -0.0618 -0.9034
vn -0.2000 0.1993 -0.9593
vn -0.2703 0.1853 -0.9448
vn -0.3043 0.4571 -0.8358
vn -0.2829 0.4762 -0.8326
vn -0.5608 0.4937 -0.6647
vn -0.5602 0.4847 -0.6717
vn -0.1781 0.7965 0.5778
vn 0.1305 0.8364 0.5324
vn 0.0754 0.8353 0.5446
vn 0.0318 0.6494 0.7598
vn 0.0521 0.6316 0.7736
vn -0.2680 0.5701 0.7766
vn -0.2677 0.5712 0.7760
vn -0.5008 0.6771 0.5393
vn -0.4372 0.6954 0.5703
vn -0.3704 0.8650 0.3386
vn -0.3864 0.8670 0.3147
vn -0.0707 0.9442 0.3218
vn -0.0748 0.9404 0.3318
vn -0.9306 -0.2102 0.2996
vn -0.7838 -0.2298 0.5770
vn -0.8162 -0.2279 0.5309
vn -0.7888 -0.4764 0.3884
vn -0.7708 -0.4999 0.3950
vn -0.8896 -0.4465 0.0962
vn -0.8900 -0.4456 0.0971
vn -0.9898 -0.1382 -0.0338
vn -0.9841 -0.1755 0.0288
vn -0.9804 0.0768 0.1812
vn -0.9802 0.1031 0.1693
vn -0.8796 0.0469 0.4734
vn -0.8830 0.0374 0.4678
s off
f 66/1/1 27/2/1 26/3/1 59/4/1
f 11/5/2 6/6/2 2/7/2
f 6/6/3 63/8/3 60/9/3
f 1/10/4 7/11/4 3/12/4
f 2/13/5 8/14/5 1/10/5
f 8/14/6 9/15/6 7/11/6
f 4/16/7 20/17/7 5/18/7
f 1/10/8 3/12/8 4/16/8
f 4/16/9 10/19/9 20/17/9
f 1/20/10 4/21/10 11/5/10
f 4/21/11 5/22/11 11/5/11
f 22/23/12 17/24/12 13/25/12
f 17/24/13 64/26/13 5/22/13
f 12/27/14 18/28/14 14/29/14
f 13/30/15 19/31/15 12/27/15
f 19/31/16 20/17/16 18/28/16
f 15/32/17 31/33/17 16/34/17
f 12/27/18 14/29/18 15/32/18
f 15/32/19 21/35/19 31/33/19
f 12/36/20 15/37/20 22/23/20
f 15/37/21 16/34/21 22/23/21
f 32/38/22 28/39/22 24/40/22
f 28/39/23 67/41/23 16/34/23
f 23/42/24 29/43/24 25/44/24
f 24/45/25 30/46/25 23/42/25
f 30/46/26 31/33/26 29/43/26
f 23/42/27 25/44/27 26/3/27
f 23/47/28 26/48/28 32/38/28
f 26/48/29 61/49/29 32/38/29
f 34/50/30 61/49/30 27/51/30
f 41/52/31 37/53/31 34/50/31
f 37/53/32 65/54/32 61/49/32
f 33/55/33 38/56/33 35/57/33
f 34/58/34 39/59/34 33/55/34
f 39/59/35 27/2/35 38/56/35
f 36/60/36 9/15/36 60/61/36
f 33/55/37 35/57/37 36/60/37
f 36/60/38 40/62/38 9/15/38
f 33/63/39 36/64/39 41/52/39
f 36/64/40 60/9/40 41/52/40
f 42/65/41 44/66/41 43/67/41
f 44/66/42 64/26/42 43/67/42
f 64/26/43 17/24/43 43/67/43
f 42/65/44 46/68/44 45/69/44
f 46/68/45 67/41/45 45/69/45
f 67/41/46 28/39/46 45/69/46
f 42/65/47 48/70/47 47/71/47
f 48/70/48 65/54/48 47/71/48
f 65/54/49 37/53/49 47/71/49
f 42/65/50 50/72/50 49/73/50
f 50/72/51 63/8/51 49/73/51
f 63/8/52 6/6/52 49/73/52
f 51/74/53 56/75/53 52/76/53
f 53/77/54 58/78/54 54/79/54
f 55/80/55 59/4/55 25/44/55
f 54/79/56 62/81/56 55/80/56
f 62/81/57 66/1/57 59/4/57
f 1/20/58 11/5/58 2/7/58
f 8/82/59 2/7/59 60/9/59
f 2/7/60 6/6/60 60/9/60
f 1/10/61 8/14/61 7/11/61
f 9/15/62 40/62/62 7/11/62
f 8/14/63 60/61/63 9/15/63
f 4/16/64 3/12/64 10/19/64
f 6/6/65 11/5/65 64/26/65
f 11/5/66 5/22/66 64/26/66
f 12/36/67 22/23/67 13/25/67
f 19/83/68 13/25/68 5/22/68
f 13/25/69 17/24/69 5/22/69
f 12/27/70 19/31/70 18/28/70
f 20/17/71 10/19/71 18/28/71
f 19/31/72 5/18/72 20/17/72
f 15/32/73 14/29/73 21/35/73
f 17/24/74 22/23/74 67/41/74
f 22/23/75 16/34/75 67/41/75
f 23/47/76 32/38/76 24/40/76
f 30/84/77 24/40/77 16/34/77
f 24/40/78 28/39/78 16/34/78
f 23/42/79 30/46/79 29/43/79
f 31/33/80 21/35/80 29/43/80
f 30/46/81 16/34/81 31/33/81
f 26/3/82 25/44/82 59/4/82
f 44/66/83 49/73/83 6/6/83 64/26/83
f 28/39/84 32/38/84 65/54/84
f 26/48/85 27/51/85 61/49/85
f 32/38/86 61/49/86 65/54/86
f 33/63/87 41/52/87 34/50/87
f 39/85/88 34/50/88 27/51/88
f 34/50/89 37/53/89 61/49/89
f 38/56/90 62/81/90 35/57/90
f 33/55/91 39/59/91 38/56/91
f 38/56/92 66/1/92 62/81/92
f 38/56/93 27/2/93 66/1/93
f 36/60/94 35/57/94 40/62/94
f 37/53/95 41/52/95 63/8/95
f 41/52/96 60/9/96 63/8/96
f 42/65/97 49/73/97 44/66/97
f 46/68/98 43/67/98 17/24/98 67/41/98
f 42/65/99 43/67/99 46/68/99
f 48/70/100 45/69/100 28/39/100 65/54/100
f 42/65/101 45/69/101 48/70/101
f 50/72/102 47/71/102 37/53/102 63/8/102
f 42/65/103 47/71/103 50/72/103
f 21/35/104 14/29/104 52/76/104 56/75/104
f 51/74/105 55/80/105 56/75/105
f 29/43/106 56/75/106 55/80/106 25/44/106
f 57/86/107 53/77/107 51/74/107 52/76/107
f 56/75/108 29/43/108 21/35/108
f 10/19/109 3/12/109 53/77/109 57/86/109
f 18/28/110 57/86/110 52/76/110 14/29/110
f 40/62/111 35/57/111 54/79/111 58/78/111
f 57/86/112 18/28/112 10/19/112
f 51/74/113 53/77/113 54/79/113
f 7/11/114 58/78/114 53/77/114 3/12/114
f 58/78/115 7/11/115 40/62/115
f 51/74/116 54/79/116 55/80/116
f 55/80/117 62/81/117 59/4/117
f 54/79/118 35/57/118 62/81/118
f 68/87/119 71/88/119 72/89/119
f 69/90/119 70/91/119 71/88/119 68/87/119
f 76/92/120 77/93/120 75/94/120 74/95/120
f 73/96/121 77/93/121 76/92/121
f 81/97/122 82/98/122 80/99/122 79/100/122
f 78/101/123 82/98/123 81/97/123
f 86/102/124 87/103/124 85/104/124 84/105/124
f 83/106/125 87/103/125 86/102/125
f 91/107/126 92/108/126 90/109/126 89/110/126
f 88/111/127 92/108/127 91/107/127
f 96/112/128 97/113/128 95/114/128 94/115/128
f 93/116/129 97/113/129 96/112/129
f 101/117/130 102/118/130 100/119/130 99/120/130
f 98/121/131 102/118/131 101/117/131
f 103/122/132 106/123/132 107/124/132
f 104/125/132 105/126/132 106/123/132 103/122/132
f 111/127/133 112/128/133 110/129/133 109/130/133
f 108/131/134 112/128/134 111/127/134
f 116/132/135 117/133/135 115/134/135 114/135/135
f 113/136/136 117/133/136 116/132/136
f 121/137/137 122/138/137 120/139/137 119/140/137
f 118/141/138 122/138/138 121/137/138
f 126/142/139 127/143/139 125/144/139 124/145/139
f 123/146/140 127/143/140 126/142/140
f 131/147/141 132/148/141 130/149/141 129/150/141
f 128/151/142 132/148/142 131/147/142
f 136/152/143 137/153/143 135/154/143 134/155/143
f 133/156/144 137/153/144 136/152/144
f 138/157/145 141/158/145 142/159/145
f 139/160/145 140/161/145 141/158/145 138/157/145
f 146/162/146 147/163/146 145/164/146 144/165/146
f 143/166/147 147/163/147 146/162/147
f 151/167/148 152/168/148 150/169/148 149/170/148
f 148/171/149 152/168/149 151/167/149
f 156/172/150 157/173/150 155/174/150 154/175/150
f 153/176/151 157/173/151 156/172/151
f 161/177/152 162/178/152 160/179/152 159/180/152
f 158/181/153 162/178/153 161/177/153
f 166/182/154 167/183/154 165/184/154 164/185/154
f 163/186/155 167/183/155 166/182/155
f 171/187/156 172/188/156 170/189/156 169/190/156
f 168/191/157 172/188/157 171/187/157
f 173/192/158 176/193/158 177/194/158
f 174/195/158 175/196/158 176/193/158 173/192/158
f 181/197/159 182/198/159 180/199/159 179/200/159
f 178/201/160 182/198/160 181/197/160
f 186/202/161 187/203/161 185/204/161 184/205/161
f 183/206/162 187/203/162 186/202/162
f 191/207/163 192/208/163 190/209/163 189/210/163
f 188/211/164 192/208/164 191/207/164
f 196/212/165 197/213/165 195/214/165 194/215/165
f 193/216/166 197/213/166 196/212/166
f 201/217/167 202/218/167 200/219/167 199/220/167
f 198/221/168 202/218/168 201/217/168
f 206/222/169 207/223/169 205/224/169 204/225/169
f 203/226/170 207/223/170 206/222/170
f 208/227/171 211/228/171 212/229/171
f 209/230/171 210/231/171 211/228/171 208/227/171
f 216/232/172 217/233/172 215/234/172 214/235/172
f 213/236/173 217/233/173 216/232/173
f 221/237/174 222/238/174 220/239/174 219/240/174
f 218/241/175 222/238/175 221/237/175
f 226/242/176 227/243/176 225/244/176 224/245/176
f 223/246/177 227/243/177 226/242/177
f 231/247/178 232/248/178 230/249/178 229/250/178
f 228/251/179 232/248/179 231/247/179
f 236/252/180 237/253/180 235/254/180 234/255/180
f 233/256/181 237/253/181 236/252/181
f 241/257/182 242/258/182 240/259/182 239/260/182
f 238/261/183 242/258/183 241/257/183
