# Blender v2.78 (sub 0) OBJ File: 'Low_Poly_Vegetation_Pack.blend'
# www.blender.org
g FlowerBush_g_m_04
v -0.037332 0.512682 -0.596162
v -0.059131 0.490382 -0.592810
v -0.085227 0.503904 -0.581859
v -0.079555 0.534562 -0.578443
v -0.049955 0.539987 -0.587282
v -0.061141 0.515987 -0.578493
v -0.021336 0.378080 -0.644677
v -0.068527 0.455709 -0.606686
v -0.028168 0.472375 -0.617140
v -0.166659 0.399208 -0.593037
v -0.120632 0.485818 -0.584284
v -0.088391 0.458597 -0.599628
v -0.214945 0.541545 -0.552533
v -0.119113 0.549161 -0.573857
v -0.127232 0.505274 -0.578747
v -0.117907 0.662754 -0.563669
v -0.065490 0.582395 -0.585833
v -0.105849 0.565729 -0.575379
v 0.027416 0.641626 -0.615309
v -0.013385 0.552286 -0.608236
v -0.045625 0.579507 -0.592891
v 0.075701 0.499289 -0.655813
v -0.014904 0.488942 -0.618662
v -0.006786 0.532829 -0.613772
v -0.056071 0.966162 0.070829
v -0.021325 0.967590 0.058249
v -0.022595 0.969105 0.021322
v -0.058124 0.968614 0.011079
v -0.078814 0.966795 0.041676
v -0.048553 0.963202 0.042540
v 0.077458 1.013697 0.176869
v 0.019544 0.970371 0.075545
v -0.018543 0.967847 0.112223
v 0.128130 1.022396 0.000682
v 0.013697 0.973382 0.000122
v 0.026470 0.971560 0.051462
v 0.000753 1.024634 -0.131436
v -0.054575 0.972984 -0.032600
v -0.003714 0.973688 -0.017937
v -0.177295 1.018173 -0.087368
v -0.117000 0.969577 0.010102
v -0.078912 0.972101 -0.026575
v -0.227968 1.009474 0.088819
v -0.111154 0.966567 0.085526
v -0.123927 0.968388 0.034186
v -0.100591 1.007236 0.220937
v -0.042880 0.966964 0.118247
v -0.093741 0.966261 0.103585
v 0.487707 0.346933 -0.260009
v 0.496893 0.328651 -0.238656
v 0.489370 0.301105 -0.246347
v 0.475534 0.302363 -0.272453
v 0.474507 0.330686 -0.280897
v 0.481791 0.319191 -0.256269
v 0.586729 0.382107 -0.164869
v 0.515635 0.326029 -0.206240
v 0.509966 0.363342 -0.225416
v 0.569779 0.236331 -0.162907
v 0.499181 0.270590 -0.224168
v 0.513318 0.306103 -0.205973
v 0.501837 0.168848 -0.274134
v 0.470089 0.263166 -0.276743
v 0.489894 0.261366 -0.239372
v 0.450844 0.247140 -0.387322
v 0.457450 0.311181 -0.311390
v 0.463119 0.273868 -0.292214
v 0.467794 0.392915 -0.389285
v 0.473903 0.366620 -0.293463
v 0.459766 0.331107 -0.311658
v 0.535736 0.460398 -0.278058
v 0.502996 0.374044 -0.240888
v 0.483190 0.375843 -0.278258
v -0.505237 0.403112 0.469535
v -0.516793 0.381743 0.445901
v -0.504584 0.350888 0.452808
v -0.485483 0.353189 0.480712
v -0.485886 0.385464 0.491049
v -0.491491 0.376764 0.463301
v -0.613813 0.443580 0.364579
v -0.548749 0.379463 0.419153
v -0.543297 0.422255 0.441361
v -0.580903 0.278859 0.355629
v -0.522358 0.317449 0.435667
v -0.544250 0.356948 0.417931
v -0.482348 0.206386 0.471087
v -0.481543 0.310836 0.491393
v -0.508886 0.307543 0.451449
v -0.416703 0.298633 0.595495
v -0.467119 0.366237 0.530605
v -0.472570 0.323445 0.508398
v -0.449612 0.463354 0.604444
v -0.493509 0.428252 0.514092
v -0.471617 0.388753 0.531828
v -0.548168 0.535827 0.488986
v -0.534325 0.434865 0.458366
v -0.506981 0.438157 0.498309
v -0.481317 0.326504 -0.185400
v -0.463213 0.326150 -0.212100
v -0.451951 0.296186 -0.216112
v -0.463095 0.278021 -0.191891
v -0.481244 0.296759 -0.172910
v -0.461378 0.312714 -0.195948
v -0.489012 0.443713 -0.295110
v -0.448896 0.356710 -0.243967
v -0.476040 0.375451 -0.211645
v -0.412274 0.316639 -0.355105
v -0.427214 0.294597 -0.249818
v -0.438407 0.339340 -0.252168
v -0.421802 0.175027 -0.281000
v -0.444469 0.249238 -0.205017
v -0.428517 0.275241 -0.239688
v -0.508068 0.160491 -0.146899
v -0.483405 0.265992 -0.154365
v -0.456261 0.247251 -0.186687
v -0.584807 0.287565 -0.086904
v -0.505087 0.328105 -0.148513
v -0.493895 0.283362 -0.146164
v -0.575279 0.429177 -0.161010
v -0.487832 0.373464 -0.193315
v -0.503784 0.347462 -0.158644
v 0.292686 0.524231 0.678466
v 0.274936 0.499084 0.694052
v 0.295030 0.471067 0.695330
v 0.325198 0.478899 0.680535
v 0.323749 0.511756 0.670112
v 0.303305 0.493469 0.672382
v 0.156305 0.548167 0.747404
v 0.246005 0.494699 0.718637
v 0.253557 0.539980 0.700420
v 0.212515 0.389332 0.777937
v 0.289322 0.438918 0.719847
v 0.253689 0.472988 0.722810
v 0.370286 0.343578 0.729611
v 0.354073 0.443876 0.692062
v 0.310888 0.432665 0.713241
v 0.471846 0.456659 0.650753
v 0.375507 0.504614 0.663066
v 0.367955 0.459334 0.681283
v 0.415636 0.615494 0.620220
v 0.332190 0.560395 0.661856
v 0.367824 0.526326 0.658893
v 0.257865 0.661248 0.668546
v 0.267439 0.555437 0.689641
v 0.310624 0.566648 0.668462
v 0.582919 0.123200 0.394896
v -0.266282 0.216185 0.747452
v -0.454789 0.126274 -0.133743
v -0.068456 0.332582 -0.609319
v 0.526034 0.125404 -0.136866
v 0.253211 0.709364 0.626516
v -0.476344 0.606735 0.573874
v 0.151734 0.722280 -0.619298
v -0.156856 0.961620 -0.109374
v -0.002753 -0.141307 0.138845
v 0.283093 0.041357 0.626589
v 0.290440 -0.110917 0.002216
v -0.371575 -0.008170 0.159391
v -0.086959 -0.038860 -0.278701
v 0.151839 0.142560 -0.476285
v 0.678759 0.464711 0.057628
v 0.090568 0.312244 0.840892
v 0.518868 0.368344 0.623317
v -0.577554 0.362559 0.347945
v -0.348773 0.461414 -0.433448
v -0.559874 0.432001 -0.090476
v 0.341549 0.447082 -0.536117
v 0.456147 0.831195 0.282750
v -0.139947 0.692608 0.701757
v -0.546028 0.721519 -0.051290
v -0.180951 0.762891 -0.508534
v 0.476071 0.804195 -0.256185
v 0.160654 0.979827 -0.249460
v -0.082512 0.958348 0.277337
vt 0.6436 0.4219
vt 0.6868 0.3905
vt 0.7300 0.4219
vt 0.7135 0.4727
vt 0.6601 0.4727
vt 0.5793 0.4226
vt 0.5436 0.4226
vt 0.5614 0.3959
vt 0.5614 0.4864
vt 0.5793 0.4226
vt 0.5436 0.4226
vt 0.5614 0.4864
vt 0.5793 0.4226
vt 0.5436 0.4226
vt 0.5614 0.4864
vt 0.5793 0.4226
vt 0.5436 0.4226
vt 0.5614 0.4864
vt 0.5793 0.4226
vt 0.5436 0.4226
vt 0.5614 0.4864
vt 0.5793 0.4226
vt 0.5436 0.4226
vt 0.5614 0.4864
vt 0.6372 0.4213
vt 0.6831 0.3879
vt 0.7290 0.4213
vt 0.7115 0.4753
vt 0.6547 0.4753
vt 0.4571 0.4228
vt 0.4210 0.4228
vt 0.4390 0.3958
vt 0.4390 0.4872
vt 0.4571 0.4228
vt 0.4210 0.4228
vt 0.4390 0.4872
vt 0.4571 0.4228
vt 0.4210 0.4228
vt 0.4390 0.4872
vt 0.4571 0.4228
vt 0.4210 0.4228
vt 0.4390 0.4872
vt 0.4571 0.4228
vt 0.4210 0.4228
vt 0.4390 0.4872
vt 0.4571 0.4228
vt 0.4210 0.4228
vt 0.4390 0.4872
vt 0.6372 0.4213
vt 0.6831 0.3879
vt 0.7290 0.4213
vt 0.7115 0.4753
vt 0.6547 0.4753
vt 0.4571 0.4228
vt 0.4210 0.4228
vt 0.4390 0.3958
vt 0.4390 0.4872
vt 0.4571 0.4228
vt 0.4210 0.4228
vt 0.4390 0.4872
vt 0.4571 0.4228
vt 0.4210 0.4228
vt 0.4390 0.4872
vt 0.4571 0.4228
vt 0.4210 0.4228
vt 0.4390 0.4872
vt 0.4571 0.4228
vt 0.4210 0.4228
vt 0.4390 0.4872
vt 0.4571 0.4228
vt 0.4210 0.4228
vt 0.4390 0.4872
vt 0.6436 0.4219
vt 0.6868 0.3905
vt 0.7300 0.4219
vt 0.7135 0.4727
vt 0.6601 0.4727
vt 0.5793 0.4226
vt 0.5436 0.4226
vt 0.5614 0.3959
vt 0.5614 0.4864
vt 0.5793 0.4226
vt 0.5436 0.4226
vt 0.5614 0.4864
vt 0.5793 0.4226
vt 0.5436 0.4226
vt 0.5614 0.4864
vt 0.5793 0.4226
vt 0.5436 0.4226
vt 0.5614 0.4864
vt 0.5793 0.4226
vt 0.5436 0.4226
vt 0.5614 0.4864
vt 0.5793 0.4226
vt 0.5436 0.4226
vt 0.5614 0.4864
vt 0.6372 0.4213
vt 0.6831 0.3879
vt 0.7290 0.4213
vt 0.7115 0.4753
vt 0.6547 0.4753
vt 0.4571 0.4228
vt 0.4210 0.4228
vt 0.4390 0.3958
vt 0.4390 0.4872
vt 0.4571 0.4228
vt 0.4210 0.4228
vt 0.4390 0.4872
vt 0.4571 0.4228
vt 0.4210 0.4228
vt 0.4390 0.4872
vt 0.4571 0.4228
vt 0.4210 0.4228
vt 0.4390 0.4872
vt 0.4571 0.4228
vt 0.4210 0.4228
vt 0.4390 0.4872
vt 0.4571 0.4228
vt 0.4210 0.4228
vt 0.4390 0.4872
vt 0.6436 0.4219
vt 0.6868 0.3905
vt 0.7300 0.4219
vt 0.7135 0.4727
vt 0.6601 0.4727
vt 0.5793 0.4226
vt 0.5436 0.4226
vt 0.5614 0.3959
vt 0.5614 0.4864
vt 0.5793 0.4226
vt 0.5436 0.4226
vt 0.5614 0.4864
vt 0.5793 0.4226
vt 0.5436 0.4226
vt 0.5614 0.4864
vt 0.5793 0.4226
vt 0.5436 0.4226
vt 0.5614 0.4864
vt 0.5793 0.4226
vt 0.5436 0.4226
vt 0.5614 0.4864
vt 0.5793 0.4226
vt 0.5436 0.4226
vt 0.5614 0.4864
vt 0.1911 0.9163
vt 0.2062 0.9192
vt 0.2023 0.9294
vt 0.2095 0.9104
vt 0.2161 0.9022
vt 0.2191 0.9178
vt 0.1862 0.9333
vt 0.2050 0.8857
vt 0.1950 0.9050
vt 0.1879 0.8896
vt 0.2274 0.9061
vt 0.2266 0.8842
vt 0.2320 0.9318
vt 0.2437 0.9193
vt 0.2189 0.9298
vt 0.2156 0.9464
vt 0.1783 0.9077
vt 0.2409 0.8989
vt 0.1567 0.9394
vt 0.1687 0.9396
vt 0.1593 0.9533
vt 0.1456 0.9602
vt 0.1495 0.9489
vt 0.1832 0.9668
vt 0.1735 0.9737
vt 0.1729 0.9566
vt 0.1820 0.9501
vt 0.1647 0.9617
vt 0.1573 0.9737
vt 0.1982 0.9632
vt 0.1886 0.9813
vt 0.1701 0.9903
vt 0.1499 0.9868
vt 0.1356 0.9720
vt 0.1328 0.9516
vt 0.1424 0.9335
vt 0.1609 0.9245
vn -0.3095 0.1617 -0.9371
vn -0.3884 0.4290 -0.8155
vn -0.3356 0.2416 -0.9105
vn -0.1078 0.3882 -0.9152
vn -0.2534 0.2296 -0.9397
vn -0.0146 0.1134 -0.9934
vn -0.2260 0.1491 -0.9626
vn -0.2019 -0.1206 -0.9719
vn -0.2809 0.0805 -0.9563
vn -0.4825 -0.0798 -0.8722
vn -0.3632 0.0925 -0.9271
vn -0.5758 0.1950 -0.7940
vn -0.3905 0.1730 -0.9042
vn -0.0259 0.9988 0.0419
vn -0.0918 0.9954 -0.0268
vn -0.2865 0.9292 -0.2336
vn -0.1181 0.9909 0.0645
vn -0.3909 0.9112 0.1296
vn -0.0520 0.9897 0.1330
vn -0.1284 0.9066 0.4019
vn 0.0403 0.9931 0.1102
vn 0.2386 0.9200 0.3111
vn 0.0665 0.9976 0.0188
vn 0.3430 0.9379 -0.0521
vn 0.0005 0.9988 -0.0497
vn 0.0805 0.9425 -0.3244
vn 0.8762 -0.1082 -0.4696
vn 0.8282 -0.1515 -0.5396
vn 0.6360 -0.2741 -0.7214
vn 0.8392 -0.0570 -0.5408
vn 0.6797 0.1016 -0.7264
vn 0.8832 -0.0132 -0.4687
vn 0.8548 0.2756 -0.4398
vn 0.9163 -0.0640 -0.3954
vn 0.9862 0.0738 -0.1480
vn 0.9053 -0.1585 -0.3941
vn 0.9425 -0.3020 -0.1430
vn 0.8613 -0.2022 -0.4662
vn 0.7674 -0.4759 -0.4296
vn -0.8026 -0.1910 0.5651
vn -0.8026 -0.1911 0.5651
vn -0.5894 -0.3117 0.7453
vn -0.7478 -0.2283 0.6234
vn -0.6482 -0.0174 0.7613
vn -0.7651 -0.1420 0.6281
vn -0.8243 0.1121 0.5550
vn -0.8167 -0.1041 0.5676
vn -0.9416 -0.0527 0.3327
vn -0.8511 -0.1524 0.5025
vn -0.8828 -0.3470 0.3167
vn -0.8338 -0.2386 0.4978
vn -0.7066 -0.4765 0.5230
vn -0.7822 -0.2766 0.5583
vn -0.8068 -0.2304 -0.5440
vn -0.8088 -0.3135 -0.4975
vn -0.7694 -0.5479 -0.3285
vn -0.8544 -0.2380 -0.4618
vn -0.9507 -0.2476 -0.1867
vn -0.8488 -0.1538 -0.5059
vn -0.9282 0.0870 -0.3618
vn -0.7975 -0.1452 -0.5856
vn -0.7244 0.1213 -0.6787
vn -0.7519 -0.2207 -0.6212
vn -0.5431 -0.1789 -0.8204
vn -0.7576 -0.3049 -0.5772
vn -0.5656 -0.5135 -0.6453
vn 0.3573 0.2967 0.8856
vn 0.6177 0.2027 0.7598
vn 0.4371 0.2720 0.8573
vn 0.5191 0.4815 0.7062
vn 0.4082 0.3537 0.8416
vn 0.2421 0.5618 0.7911
vn 0.3270 0.3772 0.8665
vn 0.0638 0.3633 0.9295
vn 0.2748 0.3191 0.9070
vn 0.1625 0.0845 0.9831
vn 0.3037 0.2374 0.9227
vn 0.4395 0.0042 0.8983
vn 0.3848 0.2138 0.8979
vn 0.6834 -0.7261 -0.0761
vn -0.3430 -0.9259 -0.1580
vn -0.0095 -0.9716 -0.2365
vn 0.9276 -0.3598 -0.1007
vn -0.0317 -0.6339 0.7728
vn -0.8695 -0.4935 0.0205
vn -0.6125 -0.4104 -0.6756
vn 0.5744 -0.4871 -0.6579
vn 0.9624 -0.0017 0.2717
vn -0.9458 -0.3127 -0.0877
vn 0.8657 -0.1097 -0.4884
vn 0.2032 0.8790 0.4314
vn -0.3785 0.8067 0.4539
vn -0.0891 0.8184 -0.5677
vn 0.4041 0.7460 -0.5293
vn -0.2362 0.8755 -0.4216
vn -0.5289 0.7720 -0.3524
vn -0.5107 0.8533 0.1054
vn -0.5586 0.8025 0.2096
vn 0.0667 0.8416 0.5360
vn -0.0493 0.9986 0.0179
vn 0.2260 0.9635 0.1436
vn 0.4859 0.8736 -0.0258
vn 0.8672 0.0608 -0.4943
vn 0.6870 0.2700 -0.6746
vn -0.2968 0.1435 -0.9441
vn -0.5074 0.0685 -0.8590
vn -0.7626 0.2791 -0.5836
vn -0.9981 0.0521 -0.0320
vn -0.9550 0.2542 0.1531
vn -0.3909 0.1900 0.9006
vn -0.2917 0.1677 0.9417
vn 0.1533 0.4201 0.8945
vn 0.6537 0.5040 0.5645
vn 0.8851 0.3476 0.3094
vn 0.8562 0.5166 0.0058
vn 0.2130 -0.1451 -0.9662
vn 0.2560 -0.3374 -0.9059
vn -0.8506 0.1103 -0.5141
vn -0.8247 -0.2091 -0.5255
vn -0.8069 -0.1847 0.5611
vn -0.7295 -0.5853 0.3539
vn 0.3997 0.3033 0.8650
vn 0.4618 -0.3247 0.8254
vn 0.6210 -0.4413 0.6478
vn 0.4348 -0.7376 -0.5167
vn 0.2166 -0.8354 -0.5052
vn -0.1170 -0.6570 -0.7447
vn -0.5089 -0.5581 -0.6555
vn -0.4770 -0.8423 -0.2509
vn -0.2941 -0.8743 0.3862
vn -0.1839 -0.8803 0.4374
vn 0.2075 -0.9498 0.2341
vn 0.4118 -0.8842 0.2205
s off
f 2/1/1 3/2/1 4/3/1 5/4/1
f 1/5/1 2/1/1 5/4/1
f 9/6/2 8/7/2 6/8/2
f 7/9/3 8/7/3 9/6/3
f 12/10/4 11/11/4 6/8/4
f 10/12/5 11/11/5 12/10/5
f 15/13/6 14/14/6 6/8/6
f 13/15/7 14/14/7 15/13/7
f 18/16/8 17/17/8 6/8/8
f 16/18/9 17/17/9 18/16/9
f 21/19/10 20/20/10 6/8/10
f 19/21/11 20/20/11 21/19/11
f 24/22/12 23/23/12 6/8/12
f 22/24/13 23/23/13 24/22/13
f 26/25/14 27/26/14 28/27/14 29/28/14
f 25/29/14 26/25/14 29/28/14
f 33/30/15 32/31/15 30/32/15
f 31/33/16 32/31/16 33/30/16
f 36/34/17 35/35/17 30/32/17
f 34/36/18 35/35/18 36/34/18
f 39/37/19 38/38/19 30/32/19
f 37/39/20 38/38/20 39/37/20
f 42/40/21 41/41/21 30/32/21
f 40/42/22 41/41/22 42/40/22
f 45/43/23 44/44/23 30/32/23
f 43/45/24 44/44/24 45/43/24
f 48/46/25 47/47/25 30/32/25
f 46/48/26 47/47/26 48/46/26
f 50/49/27 51/50/27 52/51/27 53/52/27
f 49/53/27 50/49/27 53/52/27
f 57/54/28 56/55/28 54/56/28
f 55/57/29 56/55/29 57/54/29
f 60/58/30 59/59/30 54/56/30
f 58/60/31 59/59/31 60/58/31
f 63/61/32 62/62/32 54/56/32
f 61/63/33 62/62/33 63/61/33
f 66/64/34 65/65/34 54/56/34
f 64/66/35 65/65/35 66/64/35
f 69/67/36 68/68/36 54/56/36
f 67/69/37 68/68/37 69/67/37
f 72/70/38 71/71/38 54/56/38
f 70/72/39 71/71/39 72/70/39
f 74/73/40 75/74/40 76/75/40 77/76/40
f 73/77/41 74/73/41 77/76/41
f 81/78/42 80/79/42 78/80/42
f 79/81/43 80/79/43 81/78/43
f 84/82/44 83/83/44 78/80/44
f 82/84/45 83/83/45 84/82/45
f 87/85/46 86/86/46 78/80/46
f 85/87/47 86/86/47 87/85/47
f 90/88/48 89/89/48 78/80/48
f 88/90/49 89/89/49 90/88/49
f 93/91/50 92/92/50 78/80/50
f 91/93/51 92/92/51 93/91/51
f 96/94/52 95/95/52 78/80/52
f 94/96/53 95/95/53 96/94/53
f 98/97/54 99/98/54 100/99/54 101/100/54
f 97/101/54 98/97/54 101/100/54
f 105/102/55 104/103/55 102/104/55
f 103/105/56 104/103/56 105/102/56
f 108/106/57 107/107/57 102/104/57
f 106/108/58 107/107/58 108/106/58
f 111/109/59 110/110/59 102/104/59
f 109/111/60 110/110/60 111/109/60
f 114/112/61 113/113/61 102/104/61
f 112/114/62 113/113/62 114/112/62
f 117/115/63 116/116/63 102/104/63
f 115/117/64 116/116/64 117/115/64
f 120/118/65 119/119/65 102/104/65
f 118/120/66 119/119/66 120/118/66
f 122/121/67 123/122/67 124/123/67 125/124/67
f 121/125/67 122/121/67 125/124/67
f 129/126/68 128/127/68 126/128/68
f 127/129/69 128/127/69 129/126/69
f 132/130/70 131/131/70 126/128/70
f 130/132/71 131/131/71 132/130/71
f 135/133/72 134/134/72 126/128/72
f 133/135/73 134/134/73 135/133/73
f 138/136/74 137/137/74 126/128/74
f 136/138/75 137/137/75 138/136/75
f 141/139/76 140/140/76 126/128/76
f 139/141/77 140/140/77 141/139/77
f 144/142/78 143/143/78 126/128/78
f 142/144/79 143/143/79 144/142/79
f 145/145/80 156/146/80 149/147/80
f 154/148/81 157/149/81 158/150/81
f 154/148/82 158/150/82 156/146/82
f 145/145/83 149/147/83 160/151/83
f 146/152/84 155/153/84 161/154/84
f 147/155/85 157/149/85 163/156/85
f 148/157/86 147/155/86 164/158/86
f 149/147/87 159/159/87 166/160/87
f 145/145/88 160/151/88 162/161/88
f 147/155/89 163/156/89 165/162/89
f 149/147/90 166/160/90 160/151/90
f 150/163/91 167/164/91 173/165/91
f 151/166/92 168/167/92 173/165/92
f 152/168/93 170/169/93 172/170/93
f 171/171/94 152/168/94 172/170/94
f 172/170/95 170/169/95 153/172/95
f 170/169/96 169/173/96 153/172/96
f 153/172/97 169/173/97 173/165/97
f 169/173/98 151/166/98 173/165/98
f 168/167/99 150/163/99 173/165/99
f 173/165/100 172/170/100 153/172/100
f 173/165/101 167/164/101 172/170/101
f 167/164/102 171/171/102 172/170/102
f 160/151/103 166/174/103 171/171/103
f 166/174/104 152/168/104 171/171/104
f 148/175/105 170/169/105 152/168/105
f 148/175/106 164/176/106 170/169/106
f 164/176/107 169/173/107 170/169/107
f 165/177/108 163/178/108 169/173/108
f 163/178/109 151/166/109 169/173/109
f 146/179/110 168/167/110 151/166/110
f 146/179/111 161/180/111 168/167/111
f 161/180/112 150/163/112 168/167/112
f 162/181/113 167/164/113 150/163/113
f 162/181/114 160/151/114 167/164/114
f 160/151/115 171/171/115 167/164/115
f 166/174/116 148/175/116 152/168/116
f 166/160/117 159/159/117 148/157/117
f 164/176/118 165/177/118 169/173/118
f 164/158/119 147/155/119 165/162/119
f 163/178/120 146/179/120 151/166/120
f 163/156/121 157/149/121 146/152/121
f 161/180/122 162/181/122 150/163/122
f 161/154/123 155/153/123 162/161/123
f 155/153/124 145/145/124 162/161/124
f 156/146/125 159/159/125 149/147/125
f 156/146/126 158/150/126 159/159/126
f 158/150/127 148/157/127 159/159/127
f 158/150/128 147/155/128 148/157/128
f 158/150/129 157/149/129 147/155/129
f 154/148/130 146/152/130 157/149/130
f 154/148/131 155/153/131 146/152/131
f 154/148/132 156/146/132 155/153/132
f 156/146/133 145/145/133 155/153/133
