# Blender v2.78 (sub 0) OBJ File: 'Low_Poly_Vegetation_Pack.blend'
# www.blender.org
g FlowerBush_g_m_01
v 0.296997 0.557804 -0.404681
v 0.321931 0.540794 -0.396155
v 0.321601 0.514147 -0.412695
v 0.296462 0.514688 -0.431444
v 0.281256 0.541670 -0.426491
v 0.299244 0.530271 -0.408486
v 0.402781 0.609907 -0.319487
v 0.357651 0.547042 -0.380377
v 0.329963 0.582382 -0.379788
v 0.441595 0.469977 -0.375567
v 0.354659 0.493349 -0.415471
v 0.362956 0.527915 -0.388043
v 0.352953 0.402339 -0.484192
v 0.306557 0.484879 -0.457158
v 0.342542 0.484104 -0.430319
v 0.225498 0.474630 -0.536737
v 0.261447 0.530101 -0.463751
v 0.289135 0.494761 -0.464340
v 0.186684 0.614560 -0.480657
v 0.264439 0.583793 -0.428658
v 0.256142 0.549228 -0.456085
v 0.275326 0.682198 -0.372031
v 0.312542 0.592263 -0.386970
v 0.276556 0.593038 -0.413809
v -0.118438 0.951588 -0.139871
v -0.108607 0.958105 -0.109843
v -0.077407 0.966210 -0.111106
v -0.067954 0.964703 -0.141914
v -0.093312 0.955666 -0.159692
v -0.092396 0.956436 -0.132117
v -0.218521 0.984724 -0.026999
v -0.123070 0.962095 -0.073598
v -0.153167 0.949843 -0.106413
v -0.070945 1.029453 0.016093
v -0.059270 0.978303 -0.078996
v -0.102898 0.968209 -0.067709
v 0.043472 1.045338 -0.094779
v -0.030099 0.978316 -0.138253
v -0.043630 0.980474 -0.094151
v 0.010313 1.016494 -0.248743
v -0.064728 0.962121 -0.192113
v -0.034632 0.974373 -0.159298
v -0.137263 0.971765 -0.291834
v -0.128529 0.945914 -0.186716
v -0.084901 0.956007 -0.198003
v -0.251680 0.955880 -0.180962
v -0.157700 0.945900 -0.127458
v -0.144169 0.943743 -0.171560
v 0.305150 0.271275 0.367871
v 0.280170 0.268728 0.383491
v 0.267054 0.243398 0.375686
v 0.283929 0.230291 0.355241
v 0.307474 0.247520 0.350411
v 0.287408 0.253538 0.364599
v 0.283800 0.345098 0.486778
v 0.262584 0.284984 0.410315
v 0.298556 0.303340 0.397621
v 0.188144 0.234053 0.479016
v 0.237693 0.232685 0.392681
v 0.249509 0.269805 0.409253
v 0.212846 0.122194 0.387260
v 0.265226 0.198633 0.350872
v 0.241070 0.217396 0.380139
v 0.333205 0.121382 0.303268
v 0.317650 0.216879 0.326698
v 0.281678 0.198522 0.339392
v 0.428861 0.232427 0.311031
v 0.342541 0.269177 0.344331
v 0.330725 0.232058 0.327759
v 0.404159 0.344286 0.402786
v 0.315007 0.303229 0.386140
v 0.339164 0.284467 0.356873
v -0.445810 0.380648 -0.282145
v -0.428674 0.360462 -0.298957
v -0.431309 0.332147 -0.285727
v -0.450073 0.334833 -0.260738
v -0.459036 0.364808 -0.258525
v -0.436540 0.356160 -0.272554
v -0.385908 0.415320 -0.410101
v -0.414840 0.357435 -0.335881
v -0.432395 0.397349 -0.325176
v -0.369397 0.263225 -0.381355
v -0.421891 0.300576 -0.306886
v -0.412584 0.336645 -0.331951
v -0.441795 0.198722 -0.259578
v -0.458648 0.295604 -0.254469
v -0.431787 0.291760 -0.290240
v -0.530704 0.286313 -0.166547
v -0.488356 0.347491 -0.231048
v -0.470801 0.307578 -0.241753
v -0.547215 0.438408 -0.195293
v -0.481306 0.404350 -0.260043
v -0.490613 0.368281 -0.234977
v -0.474816 0.502911 -0.317070
v -0.444548 0.409322 -0.312460
v -0.471410 0.413167 -0.276689
v 0.272242 0.861034 0.159048
v 0.257274 0.856290 0.187230
v 0.275590 0.836605 0.205057
v 0.301879 0.829184 0.187893
v 0.299810 0.844281 0.159458
v 0.279962 0.843153 0.178606
v 0.162253 0.956866 0.209778
v 0.226059 0.869019 0.207290
v 0.231589 0.886376 0.164854
v 0.215444 0.866111 0.330487
v 0.265433 0.828632 0.241656
v 0.233331 0.856614 0.223790
v 0.355031 0.788835 0.317068
v 0.322145 0.807446 0.215252
v 0.284513 0.818070 0.239822
v 0.441427 0.802313 0.182941
v 0.339484 0.826645 0.154481
v 0.333954 0.809288 0.196918
v 0.388237 0.893068 0.062232
v 0.300111 0.867032 0.120114
v 0.332213 0.839051 0.137981
v 0.248650 0.970344 0.075651
v 0.243398 0.888219 0.146520
v 0.281030 0.877595 0.121950
v -0.269827 0.642145 0.436283
v -0.299325 0.625457 0.429821
v -0.295085 0.592427 0.438844
v -0.262967 0.588702 0.450882
v -0.247357 0.619429 0.449299
v -0.272046 0.611751 0.432793
v -0.404950 0.717299 0.395041
v -0.341570 0.635040 0.425848
v -0.311171 0.673927 0.427552
v -0.434619 0.550943 0.422715
v -0.330048 0.568081 0.445159
v -0.345625 0.612301 0.429631
v -0.311407 0.451752 0.488293
v -0.267230 0.549190 0.471356
v -0.313206 0.554523 0.454123
v -0.158527 0.518918 0.526198
v -0.215933 0.597258 0.478241
v -0.246332 0.558371 0.476537
v -0.128858 0.685274 0.498524
v -0.227455 0.664218 0.458929
v -0.211878 0.619998 0.474458
v -0.252070 0.784464 0.432946
v -0.290274 0.683109 0.432733
v -0.244298 0.677776 0.449965
v -0.154777 0.187988 -0.476364
v 0.049543 0.995225 -0.152482
v -0.049543 -0.118364 0.152482
v 0.238181 -0.037936 0.173046
v -0.002026 0.145107 0.499683
v 0.474601 0.145108 0.156338
v 0.238181 -0.037936 -0.173046
v -0.294409 -0.037934 0.000000
v -0.475854 0.145108 0.152482
v -0.090975 -0.037936 -0.279997
v -0.385386 0.144018 -0.279998
v 0.295348 0.145108 -0.403059
v 0.532592 0.438431 0.173047
v 0.532592 0.438431 -0.173047
v 0.000000 0.438431 0.560000
v 0.329160 0.438431 0.453049
v -0.532592 0.438431 0.173047
v -0.329160 0.438431 0.453049
v -0.329160 0.438431 -0.453049
v -0.532592 0.438431 -0.173047
v 0.329160 0.438431 -0.453049
v 0.000000 0.438431 -0.560000
v 0.385386 0.732843 0.279998
v -0.295348 0.731754 0.403059
v -0.474601 0.731753 -0.156338
v 0.002026 0.731755 -0.499683
v 0.475854 0.731754 -0.152482
v 0.131735 0.830842 0.405444
v 0.294409 0.914796 0.000000
v -0.238181 0.914797 0.173046
v -0.238181 0.914797 -0.173046
vt 0.6436 0.4219
vt 0.6868 0.3905
vt 0.7300 0.4219
vt 0.7135 0.4727
vt 0.6601 0.4727
vt 0.5793 0.4226
vt 0.5436 0.4226
vt 0.5614 0.3959
vt 0.5614 0.4864
vt 0.5793 0.4226
vt 0.5436 0.4226
vt 0.5614 0.4864
vt 0.5793 0.4226
vt 0.5436 0.4226
vt 0.5614 0.4864
vt 0.5793 0.4226
vt 0.5436 0.4226
vt 0.5614 0.4864
vt 0.5793 0.4226
vt 0.5436 0.4226
vt 0.5614 0.4864
vt 0.5793 0.4226
vt 0.5436 0.4226
vt 0.5614 0.4864
vt 0.6372 0.4213
vt 0.6831 0.3879
vt 0.7290 0.4213
vt 0.7115 0.4753
vt 0.6547 0.4753
vt 0.4571 0.4228
vt 0.4210 0.4228
vt 0.4390 0.3958
vt 0.4390 0.4872
vt 0.4571 0.4228
vt 0.4210 0.4228
vt 0.4390 0.4872
vt 0.4571 0.4228
vt 0.4210 0.4228
vt 0.4390 0.4872
vt 0.4571 0.4228
vt 0.4210 0.4228
vt 0.4390 0.4872
vt 0.4571 0.4228
vt 0.4210 0.4228
vt 0.4390 0.4872
vt 0.4571 0.4228
vt 0.4210 0.4228
vt 0.4390 0.4872
vt 0.6372 0.4213
vt 0.6831 0.3879
vt 0.7290 0.4213
vt 0.7115 0.4753
vt 0.6547 0.4753
vt 0.4571 0.4228
vt 0.4210 0.4228
vt 0.4390 0.3958
vt 0.4390 0.4872
vt 0.4571 0.4228
vt 0.4210 0.4228
vt 0.4390 0.4872
vt 0.4571 0.4228
vt 0.4210 0.4228
vt 0.4390 0.4872
vt 0.4571 0.4228
vt 0.4210 0.4228
vt 0.4390 0.4872
vt 0.4571 0.4228
vt 0.4210 0.4228
vt 0.4390 0.4872
vt 0.4571 0.4228
vt 0.4210 0.4228
vt 0.4390 0.4872
vt 0.6436 0.4219
vt 0.6868 0.3905
vt 0.7300 0.4219
vt 0.7135 0.4727
vt 0.6601 0.4727
vt 0.5793 0.4226
vt 0.5436 0.4226
vt 0.5614 0.3959
vt 0.5614 0.4864
vt 0.5793 0.4226
vt 0.5436 0.4226
vt 0.5614 0.4864
vt 0.5793 0.4226
vt 0.5436 0.4226
vt 0.5614 0.4864
vt 0.5793 0.4226
vt 0.5436 0.4226
vt 0.5614 0.4864
vt 0.5793 0.4226
vt 0.5436 0.4226
vt 0.5614 0.4864
vt 0.5793 0.4226
vt 0.5436 0.4226
vt 0.5614 0.4864
vt 0.6372 0.4213
vt 0.6831 0.3879
vt 0.7290 0.4213
vt 0.7115 0.4753
vt 0.6547 0.4753
vt 0.4571 0.4228
vt 0.4210 0.4228
vt 0.4390 0.3958
vt 0.4390 0.4872
vt 0.4571 0.4228
vt 0.4210 0.4228
vt 0.4390 0.4872
vt 0.4571 0.4228
vt 0.4210 0.4228
vt 0.4390 0.4872
vt 0.4571 0.4228
vt 0.4210 0.4228
vt 0.4390 0.4872
vt 0.4571 0.4228
vt 0.4210 0.4228
vt 0.4390 0.4872
vt 0.4571 0.4228
vt 0.4210 0.4228
vt 0.4390 0.4872
vt 0.6436 0.4219
vt 0.6868 0.3905
vt 0.7300 0.4219
vt 0.7135 0.4727
vt 0.6601 0.4727
vt 0.5793 0.4226
vt 0.5436 0.4226
vt 0.5614 0.3959
vt 0.5614 0.4864
vt 0.5793 0.4226
vt 0.5436 0.4226
vt 0.5614 0.4864
vt 0.5793 0.4226
vt 0.5436 0.4226
vt 0.5614 0.4864
vt 0.5793 0.4226
vt 0.5436 0.4226
vt 0.5614 0.4864
vt 0.5793 0.4226
vt 0.5436 0.4226
vt 0.5614 0.4864
vt 0.5793 0.4226
vt 0.5436 0.4226
vt 0.5614 0.4864
vt 0.0781 0.9100
vt 0.0867 0.9071
vt 0.0891 0.9178
vt 0.0797 0.9233
vt 0.0992 0.9222
vt 0.0985 0.9101
vt 0.1141 0.9172
vt 0.0646 0.9233
vt 0.0515 0.9313
vt 0.0469 0.9109
vt 0.0669 0.9017
vt 0.0552 0.8918
vt 0.0732 0.8811
vt 0.0881 0.8973
vt 0.0939 0.8831
vt 0.1096 0.8969
vt 0.1058 0.9364
vt 0.0843 0.9321
vt 0.0879 0.9470
vt 0.0671 0.9450
vt 0.0442 0.9553
vt 0.0538 0.9527
vt 0.0424 0.9641
vt 0.0520 0.9743
vt 0.0372 0.9715
vt 0.0310 0.9792
vt 0.0290 0.9643
vt 0.0197 0.9607
vt 0.0306 0.9495
vt 0.0398 0.9439
vt 0.0671 0.9451
vt 0.0717 0.9654
vt 0.0634 0.9846
vt 0.0454 0.9952
vt 0.0247 0.9932
vt 0.0090 0.9794
vt 0.0045 0.9590
vt 0.0128 0.9399
vt 0.0307 0.9293
vt 0.0715 0.9161
vn 0.5436 0.4378 -0.7162
vn 0.3473 0.2869 -0.8928
vn 0.4913 0.3978 -0.7748
vn 0.2723 0.5571 -0.7845
vn 0.4693 0.4770 -0.7431
vn 0.4435 0.6877 -0.5748
vn 0.5195 0.5153 -0.6816
vn 0.6896 0.5481 -0.4733
vn 0.5916 0.4744 -0.6519
vn 0.7645 0.2780 -0.5816
vn 0.6136 0.3952 -0.6836
vn 0.5934 0.1474 -0.7913
vn 0.5634 0.3569 -0.7451
vn -0.2542 0.9590 -0.1249
vn -0.1851 0.9641 -0.1902
vn 0.0350 0.9253 -0.3776
vn -0.2728 0.9376 -0.2159
vn -0.3137 0.8196 -0.4794
vn -0.3407 0.9281 -0.1500
vn -0.5840 0.7821 -0.2175
vn -0.3210 0.9453 -0.0585
vn -0.5056 0.8502 0.1463
vn -0.2333 0.9718 -0.0329
vn -0.1570 0.9559 0.2481
vn -0.1654 0.9813 -0.0988
vn 0.1134 0.9935 -0.0138
vn 0.4996 -0.4808 0.7206
vn 0.5134 -0.5511 0.6578
vn 0.5262 -0.7333 0.4305
vn 0.5754 -0.4791 0.6629
vn 0.7727 -0.4471 0.4506
vn 0.5594 -0.4066 0.7224
vn 0.7090 -0.1588 0.6870
vn 0.4813 -0.4061 0.7768
vn 0.3988 -0.1567 0.9035
vn 0.4193 -0.4780 0.7718
vn 0.1523 -0.4429 0.8835
vn 0.4353 -0.5506 0.7123
vn 0.2159 -0.7312 0.6470
vn -0.7942 -0.1950 -0.5755
vn -0.8973 -0.3105 -0.3137
vn -0.8321 -0.2307 -0.5043
vn -0.9292 -0.0168 -0.3692
vn -0.8415 -0.1447 -0.5206
vn -0.7894 0.1077 -0.6044
vn -0.8005 -0.1082 -0.5895
vn -0.6177 -0.0614 -0.7840
vn -0.7502 -0.1577 -0.6421
vn -0.5858 -0.3551 -0.7285
vn -0.7408 -0.2438 -0.6259
vn -0.7256 -0.4796 -0.4934
vn -0.7818 -0.2803 -0.5570
vn 0.4750 0.7911 0.3855
vn 0.5558 0.7416 0.3757
vn 0.7695 0.5497 0.3251
vn 0.5242 0.7955 0.3040
vn 0.6438 0.7641 0.0399
vn 0.4412 0.8414 0.3120
vn 0.3140 0.9467 0.0716
vn 0.3899 0.8334 0.3917
vn 0.1099 0.9149 0.3885
vn 0.4215 0.7795 0.4634
vn 0.2356 0.7004 0.6737
vn 0.5045 0.7336 0.4554
vn 0.5654 0.5179 0.6420
vn -0.3215 0.2109 0.9231
vn -0.0904 0.0270 0.9955
vn -0.2569 0.1591 0.9533
vn -0.0383 0.3190 0.9470
vn -0.2416 0.2446 0.9390
vn -0.2546 0.4932 0.8319
vn -0.3050 0.2957 0.9053
vn -0.5229 0.3753 0.7653
vn -0.3837 0.2611 0.8858
vn -0.5750 0.0833 0.8139
vn -0.3989 0.1755 0.9000
vn -0.3587 -0.0909 0.9290
vn -0.3355 0.1245 0.9338
vn -0.2178 -0.9631 -0.1582
vn 0.0611 -0.9802 -0.1882
vn -0.5746 -0.3304 -0.7488
vn 0.7943 -0.1899 0.5771
vn -0.3034 -0.1899 0.9337
vn -0.9818 -0.1899 0.0000
vn -0.3066 -0.1256 -0.9435
vn 0.7943 -0.1899 -0.5771
vn 0.4889 0.7910 -0.3678
vn 0.4272 0.6912 -0.5829
vn -0.1809 0.7952 -0.5787
vn -0.4831 0.5628 -0.6707
vn -0.2692 0.9631 0.0000
vn -0.6122 0.7907 0.0000
vn -0.7872 0.5628 0.2522
vn 0.0443 0.9600 0.2763
vn -0.1867 0.7908 0.5829
vn 0.1523 0.9539 0.2586
vn 0.4857 0.7966 0.3598
vn 0.7640 0.6255 0.1582
vn 0.7937 0.1939 -0.5766
vn 0.5220 0.4689 -0.7124
vn -0.3031 0.1939 -0.9330
vn -0.5162 0.4689 -0.7166
vn -0.9810 0.1940 0.0000
vn -0.8411 0.4689 0.2695
vn -0.3031 0.1940 0.9330
vn -0.0962 0.3925 0.9147
vn 0.5212 0.3563 0.7755
vn 0.7947 0.1876 0.5773
vn 0.9041 0.3837 0.1882
vn 0.3034 0.1899 -0.9337
vn 0.3031 -0.1940 -0.9330
vn 0.1137 -0.3772 -0.9191
vn -0.7943 0.1899 -0.5771
vn -0.7947 -0.1876 -0.5773
vn -0.9041 -0.3837 -0.1882
vn -0.7943 0.1899 0.5771
vn -0.7937 -0.1939 0.5766
vn -0.5220 -0.4689 0.7124
vn 0.2983 0.2614 0.9180
vn 0.3031 -0.1939 0.9330
vn 0.5162 -0.4689 0.7166
vn 0.9818 0.1899 0.0000
vn 0.9810 -0.1940 0.0000
vn 0.8411 -0.4689 -0.2695
vn 0.1892 -0.7907 -0.5822
vn 0.0627 -0.6446 -0.7620
vn -0.4089 -0.6617 -0.6284
vn -0.4911 -0.7947 -0.3568
vn -0.7640 -0.6255 -0.1582
vn -0.4889 -0.7910 0.3678
vn -0.4272 -0.6912 0.5829
vn 0.7872 -0.5628 -0.2522
vn 0.6122 -0.7907 0.0000
vn 0.2692 -0.9631 0.0000
vn 0.1809 -0.7952 0.5787
vn 0.4831 -0.5628 0.6707
s off
f 2/1/1 3/2/1 4/3/1 5/4/1
f 1/5/1 2/1/1 5/4/1
f 9/6/2 8/7/2 6/8/2
f 7/9/3 8/7/3 9/6/3
f 12/10/4 11/11/4 6/8/4
f 10/12/5 11/11/5 12/10/5
f 15/13/6 14/14/6 6/8/6
f 13/15/7 14/14/7 15/13/7
f 18/16/8 17/17/8 6/8/8
f 16/18/9 17/17/9 18/16/9
f 21/19/10 20/20/10 6/8/10
f 19/21/11 20/20/11 21/19/11
f 24/22/12 23/23/12 6/8/12
f 22/24/13 23/23/13 24/22/13
f 26/25/14 27/26/14 28/27/14 29/28/14
f 25/29/14 26/25/14 29/28/14
f 33/30/15 32/31/15 30/32/15
f 31/33/16 32/31/16 33/30/16
f 36/34/17 35/35/17 30/32/17
f 34/36/18 35/35/18 36/34/18
f 39/37/19 38/38/19 30/32/19
f 37/39/20 38/38/20 39/37/20
f 42/40/21 41/41/21 30/32/21
f 40/42/22 41/41/22 42/40/22
f 45/43/23 44/44/23 30/32/23
f 43/45/24 44/44/24 45/43/24
f 48/46/25 47/47/25 30/32/25
f 46/48/26 47/47/26 48/46/26
f 50/49/27 51/50/27 52/51/27 53/52/27
f 49/53/27 50/49/27 53/52/27
f 57/54/28 56/55/28 54/56/28
f 55/57/29 56/55/29 57/54/29
f 60/58/30 59/59/30 54/56/30
f 58/60/31 59/59/31 60/58/31
f 63/61/32 62/62/32 54/56/32
f 61/63/33 62/62/33 63/61/33
f 66/64/34 65/65/34 54/56/34
f 64/66/35 65/65/35 66/64/35
f 69/67/36 68/68/36 54/56/36
f 67/69/37 68/68/37 69/67/37
f 72/70/38 71/71/38 54/56/38
f 70/72/39 71/71/39 72/70/39
f 74/73/40 75/74/40 76/75/40 77/76/40
f 73/77/40 74/73/40 77/76/40
f 81/78/41 80/79/41 78/80/41
f 79/81/42 80/79/42 81/78/42
f 84/82/43 83/83/43 78/80/43
f 82/84/44 83/83/44 84/82/44
f 87/85/45 86/86/45 78/80/45
f 85/87/46 86/86/46 87/85/46
f 90/88/47 89/89/47 78/80/47
f 88/90/48 89/89/48 90/88/48
f 93/91/49 92/92/49 78/80/49
f 91/93/50 92/92/50 93/91/50
f 96/94/51 95/95/51 78/80/51
f 94/96/52 95/95/52 96/94/52
f 98/97/53 99/98/53 100/99/53 101/100/53
f 97/101/53 98/97/53 101/100/53
f 105/102/54 104/103/54 102/104/54
f 103/105/55 104/103/55 105/102/55
f 108/106/56 107/107/56 102/104/56
f 106/108/57 107/107/57 108/106/57
f 111/109/58 110/110/58 102/104/58
f 109/111/59 110/110/59 111/109/59
f 114/112/60 113/113/60 102/104/60
f 112/114/61 113/113/61 114/112/61
f 117/115/62 116/116/62 102/104/62
f 115/117/63 116/116/63 117/115/63
f 120/118/64 119/119/64 102/104/64
f 118/120/65 119/119/65 120/118/65
f 122/121/66 123/122/66 124/123/66 125/124/66
f 121/125/66 122/121/66 125/124/66
f 129/126/67 128/127/67 126/128/67
f 127/129/68 128/127/68 129/126/68
f 132/130/69 131/131/69 126/128/69
f 130/132/70 131/131/70 132/130/70
f 135/133/71 134/134/71 126/128/71
f 133/135/72 134/134/72 135/133/72
f 138/136/73 137/137/73 126/128/73
f 136/138/74 137/137/74 138/136/74
f 141/139/75 140/140/75 126/128/75
f 139/141/76 140/140/76 141/139/76
f 144/142/77 143/143/77 126/128/77
f 142/144/78 143/143/78 144/142/78
f 147/145/79 152/146/79 154/147/79
f 147/145/80 154/147/80 151/148/80
f 145/149/81 155/150/81 163/151/81
f 150/152/82 157/153/82 160/154/82
f 149/155/83 159/156/83 162/157/83
f 153/158/84 161/159/84 164/160/84
f 145/149/85 163/151/85 166/161/85
f 156/162/86 165/163/86 158/164/86
f 173/165/87 171/166/87 146/167/87
f 171/166/88 170/168/88 146/167/88
f 146/167/89 170/168/89 175/169/89
f 170/168/90 169/170/90 175/169/90
f 175/169/91 174/171/91 146/167/91
f 175/169/92 169/170/92 174/171/92
f 169/170/93 168/172/93 174/171/93
f 174/171/94 172/173/94 146/167/94
f 174/171/95 168/172/95 172/173/95
f 172/173/96 173/165/96 146/167/96
f 172/173/97 167/174/97 173/165/97
f 167/174/98 171/166/98 173/165/98
f 158/175/99 165/176/99 171/166/99
f 165/176/100 170/168/100 171/166/100
f 166/177/101 163/178/101 170/168/101
f 163/178/102 169/170/102 170/168/102
f 164/179/103 161/180/103 169/170/103
f 161/180/104 168/172/104 169/170/104
f 162/181/105 159/182/105 168/172/105
f 159/182/106 172/173/106 168/172/106
f 160/183/107 167/174/107 172/173/107
f 160/183/108 157/153/108 167/174/108
f 157/153/109 171/166/109 167/174/109
f 165/176/110 166/177/110 170/168/110
f 165/163/111 156/162/111 166/161/111
f 156/162/112 145/149/112 166/161/112
f 163/178/113 164/179/113 169/170/113
f 163/151/114 155/150/114 164/160/114
f 155/150/115 153/158/115 164/160/115
f 161/180/116 162/181/116 168/172/116
f 161/159/117 153/158/117 162/157/117
f 153/158/118 149/155/118 162/157/118
f 159/182/119 160/183/119 172/173/119
f 159/156/120 149/155/120 160/154/120
f 149/155/121 150/152/121 160/154/121
f 157/153/122 158/175/122 171/166/122
f 157/153/123 150/152/123 158/164/123
f 150/152/124 156/162/124 158/164/124
f 151/148/125 154/147/125 156/162/125
f 154/147/126 145/149/126 156/162/126
f 154/147/127 155/150/127 145/149/127
f 154/147/128 152/146/128 155/150/128
f 152/146/129 153/158/129 155/150/129
f 152/146/130 147/145/130 153/158/130
f 147/145/131 149/155/131 153/158/131
f 150/152/132 151/148/132 156/162/132
f 150/152/133 148/184/133 151/148/133
f 148/184/134 147/145/134 151/148/134
f 147/145/135 148/184/135 149/155/135
f 148/184/136 150/152/136 149/155/136
