# Blender v2.78 (sub 0) OBJ File: 'Low_Poly_Vegetation_Pack.blend'
# www.blender.org
g FlowerBush_h_m_02
v -0.299903 0.322035 0.481410
v -0.336826 0.397451 0.428458
v -0.397960 0.334370 0.474299
v -0.217385 0.417074 0.466175
v -0.253338 0.349827 0.475282
v -0.285007 0.414511 0.429865
v -0.134011 0.356152 0.539735
v -0.218254 0.305409 0.526207
v -0.160676 0.286053 0.604489
v -0.155365 0.388113 0.500996
v -0.227620 0.344590 0.489393
v -0.139047 0.516581 0.460218
v -0.102124 0.441165 0.513169
v -0.068006 0.533115 0.527284
v -0.176989 0.479575 0.447211
v -0.145320 0.414891 0.492628
v -0.304939 0.482463 0.401892
v -0.220696 0.533206 0.415420
v -0.305292 0.581432 0.397093
v -0.274963 0.441290 0.421497
v -0.202708 0.484812 0.433100
v -0.231018 0.444921 0.446622
v -0.251181 0.407860 0.455382
v -0.224638 0.383532 0.479057
v -0.188070 0.405559 0.484929
v -0.192013 0.443499 0.464883
v -0.567549 0.446028 -0.131355
v -0.627244 0.383144 -0.166947
v -0.640384 0.416576 -0.080565
v -0.566274 0.442689 -0.251004
v -0.551511 0.448542 -0.180256
v -0.602712 0.394606 -0.210783
v -0.488404 0.533589 -0.252481
v -0.511655 0.506594 -0.165789
v -0.477947 0.592591 -0.180637
v -0.513963 0.490773 -0.265458
v -0.533905 0.467620 -0.191103
v -0.572659 0.446521 -0.370475
v -0.512963 0.509405 -0.334883
v -0.549319 0.522307 -0.420112
v -0.572900 0.429220 -0.321942
v -0.521699 0.483156 -0.291415
v -0.651803 0.358960 -0.249348
v -0.628553 0.385955 -0.336040
v -0.711757 0.346292 -0.320040
v -0.610448 0.386988 -0.236739
v -0.590506 0.410142 -0.311095
v -0.588316 0.419470 -0.264147
v -0.581250 0.426034 -0.224621
v -0.553487 0.455616 -0.221557
v -0.543395 0.467334 -0.259188
v -0.564920 0.444994 -0.285510
v -0.002664 0.409359 -0.624584
v -0.081543 0.398989 -0.644127
v -0.049266 0.474103 -0.642554
v -0.024032 0.312831 -0.658827
v -0.001439 0.364699 -0.630265
v -0.069094 0.355805 -0.647026
v 0.077469 0.288284 -0.652353
v 0.061351 0.364792 -0.627896
v 0.136772 0.344582 -0.652179
v 0.032549 0.285040 -0.652285
v 0.018725 0.350661 -0.631308
v -0.043703 0.219370 -0.701546
v 0.035177 0.229740 -0.682004
v 0.013863 0.174444 -0.738347
v -0.048427 0.257704 -0.678386
v 0.019228 0.266599 -0.661625
v -0.123835 0.340445 -0.673777
v -0.107718 0.263937 -0.698234
v -0.172175 0.303965 -0.728722
v -0.082415 0.337364 -0.656366
v -0.068591 0.271743 -0.677343
v -0.053158 0.309001 -0.666043
v -0.038692 0.338515 -0.652468
v -0.003966 0.332534 -0.647681
v 0.003030 0.299323 -0.658298
v -0.027372 0.284780 -0.669646
v 0.286874 0.662086 0.000768
v 0.225468 0.711167 -0.022293
v 0.279487 0.736626 0.033565
v 0.247494 0.637173 -0.092909
v 0.273703 0.638428 -0.035219
v 0.221036 0.680525 -0.054999
v 0.320192 0.562666 -0.103430
v 0.325007 0.602303 -0.031895
v 0.390311 0.562886 -0.061361
v 0.281585 0.585601 -0.106863
v 0.285715 0.619597 -0.045508
v 0.214163 0.618111 -0.190236
v 0.275568 0.569030 -0.167174
v 0.260627 0.581382 -0.246614
v 0.214861 0.629702 -0.146722
v 0.267529 0.587605 -0.126943
v 0.180844 0.717531 -0.086037
v 0.176029 0.677894 -0.157572
v 0.149803 0.755121 -0.151687
v 0.206980 0.682529 -0.075078
v 0.202850 0.648533 -0.136433
v 0.224821 0.655296 -0.101425
v 0.242179 0.656692 -0.070420
v 0.266883 0.631113 -0.070494
v 0.264793 0.613908 -0.101546
v 0.238797 0.628853 -0.120662
v 0.537372 0.237913 0.514727
v 0.521255 0.304682 0.457784
v 0.497017 0.312033 0.543161
v 0.605030 0.235686 0.423069
v 0.565506 0.221800 0.477924
v 0.551683 0.279067 0.429084
v 0.660705 0.146308 0.466610
v 0.593511 0.174155 0.518280
v 0.660168 0.126741 0.553486
v 0.640822 0.177832 0.434725
v 0.583190 0.201717 0.479043
v 0.679007 0.239305 0.336477
v 0.695124 0.172536 0.393419
v 0.760195 0.202964 0.340783
v 0.637841 0.243361 0.362831
v 0.651664 0.186094 0.411671
v 0.555673 0.330910 0.384595
v 0.622867 0.303062 0.332924
v 0.597043 0.388255 0.330458
v 0.562525 0.287329 0.406030
v 0.620157 0.263444 0.361712
v 0.599079 0.260340 0.402042
v 0.579594 0.253083 0.434716
v 0.595261 0.221784 0.451293
v 0.624428 0.209696 0.428864
v 0.626788 0.233525 0.398426
v 0.256104 0.379240 0.691143
v -0.674064 0.320961 -0.490672
v 0.181708 0.372829 -0.592428
v 0.648225 0.389106 0.168011
v 0.735207 0.000000 0.181883
v 0.573647 0.000000 -0.314391
v 0.257166 0.000000 0.789952
v 0.624696 0.000000 0.635571
v -0.579031 0.000000 0.297853
v -0.202001 0.000000 0.662848
v -0.646136 0.000000 -0.701430
v -0.759079 0.000000 -0.255211
v 0.207732 0.000000 -0.645242
v -0.262888 0.000000 -0.807530
v -0.609798 0.377311 -0.015886
v -0.413166 0.377312 -0.695211
v 0.234021 0.610499 0.364157
v 0.191911 0.712506 -0.042160
v -0.315204 0.503356 0.363989
v -0.396010 0.610498 -0.287816
v -0.022700 0.610499 -0.424428
vt 0.1658 0.4399
vt 0.2106 0.4399
vt 0.1882 0.4847
vt 0.1690 0.4161
vt 0.2074 0.4161
vt 0.1882 0.3873
vt 0.1658 0.4399
vt 0.2106 0.4399
vt 0.1882 0.4847
vt 0.1690 0.4161
vt 0.2074 0.4161
vt 0.1658 0.4399
vt 0.2106 0.4399
vt 0.1882 0.4847
vt 0.1690 0.4161
vt 0.2074 0.4161
vt 0.1658 0.4399
vt 0.2106 0.4399
vt 0.1882 0.4847
vt 0.1690 0.4161
vt 0.2074 0.4161
vt 0.2672 0.4290
vt 0.3114 0.3968
vt 0.3557 0.4290
vt 0.3388 0.4810
vt 0.2841 0.4810
vt 0.1658 0.4399
vt 0.2106 0.4399
vt 0.1882 0.4847
vt 0.1690 0.4161
vt 0.2074 0.4161
vt 0.1882 0.3873
vt 0.1658 0.4399
vt 0.2106 0.4399
vt 0.1882 0.4847
vt 0.1690 0.4161
vt 0.2074 0.4161
vt 0.1658 0.4399
vt 0.2106 0.4399
vt 0.1882 0.4847
vt 0.1690 0.4161
vt 0.2074 0.4161
vt 0.1658 0.4399
vt 0.2106 0.4399
vt 0.1882 0.4847
vt 0.1690 0.4161
vt 0.2074 0.4161
vt 0.2672 0.4290
vt 0.3114 0.3968
vt 0.3557 0.4290
vt 0.3388 0.4810
vt 0.2841 0.4810
vt 0.1658 0.4399
vt 0.2106 0.4399
vt 0.1882 0.4847
vt 0.1690 0.4161
vt 0.2074 0.4161
vt 0.1882 0.3873
vt 0.1658 0.4399
vt 0.2106 0.4399
vt 0.1882 0.4847
vt 0.1690 0.4161
vt 0.2074 0.4161
vt 0.1658 0.4399
vt 0.2106 0.4399
vt 0.1882 0.4847
vt 0.1690 0.4161
vt 0.2074 0.4161
vt 0.1658 0.4399
vt 0.2106 0.4399
vt 0.1882 0.4847
vt 0.1690 0.4161
vt 0.2074 0.4161
vt 0.2672 0.4290
vt 0.3114 0.3968
vt 0.3557 0.4290
vt 0.3388 0.4810
vt 0.2841 0.4810
vt 0.1658 0.4399
vt 0.2106 0.4399
vt 0.1882 0.4847
vt 0.1690 0.4161
vt 0.2074 0.4161
vt 0.1882 0.3873
vt 0.1658 0.4399
vt 0.2106 0.4399
vt 0.1882 0.4847
vt 0.1690 0.4161
vt 0.2074 0.4161
vt 0.1658 0.4399
vt 0.2106 0.4399
vt 0.1882 0.4847
vt 0.1690 0.4161
vt 0.2074 0.4161
vt 0.1658 0.4399
vt 0.2106 0.4399
vt 0.1882 0.4847
vt 0.1690 0.4161
vt 0.2074 0.4161
vt 0.2672 0.4290
vt 0.3114 0.3968
vt 0.3557 0.4290
vt 0.3388 0.4810
vt 0.2841 0.4810
vt 0.1658 0.4399
vt 0.2106 0.4399
vt 0.1882 0.4847
vt 0.1690 0.4161
vt 0.2074 0.4161
vt 0.1882 0.3873
vt 0.1658 0.4399
vt 0.2106 0.4399
vt 0.1882 0.4847
vt 0.1690 0.4161
vt 0.2074 0.4161
vt 0.1658 0.4399
vt 0.2106 0.4399
vt 0.1882 0.4847
vt 0.1690 0.4161
vt 0.2074 0.4161
vt 0.1658 0.4399
vt 0.2106 0.4399
vt 0.1882 0.4847
vt 0.1690 0.4161
vt 0.2074 0.4161
vt 0.2672 0.4290
vt 0.3114 0.3968
vt 0.3557 0.4290
vt 0.3388 0.4810
vt 0.2841 0.4810
vt 0.4086 0.9470
vt 0.4126 0.9191
vt 0.4221 0.9374
vt 0.4740 0.9382
vt 0.4581 0.9536
vt 0.4557 0.9362
vt 0.4489 0.9080
vt 0.4698 0.9236
vt 0.4491 0.9231
vt 0.4342 0.9285
vt 0.4361 0.9543
vt 0.4237 0.8890
vt 0.4539 0.8890
vt 0.4823 0.9033
vt 0.4946 0.9285
vt 0.4852 0.9595
vt 0.4520 0.9821
vt 0.4151 0.9802
vt 0.3905 0.9590
vt 0.3822 0.9331
vt 0.3964 0.9061
vn 0.0137 0.5791 0.8152
vn -0.1879 0.5011 0.8447
vn -0.4529 0.3530 0.8187
vn -0.4974 0.6831 0.5347
vn -0.4464 0.5537 0.7029
vn -0.3402 0.3301 0.8805
vn -0.6970 0.1510 0.7010
vn -0.5474 0.2846 0.7870
vn -0.2962 0.4475 0.8438
vn -0.1859 0.0469 0.9815
vn -0.2889 0.2320 0.9288
vn -0.4089 0.4704 0.7820
vn -0.3762 0.4020 0.8348
vn -0.5590 0.7411 -0.3719
vn -0.6608 0.7288 -0.1793
vn -0.7497 0.6538 0.1024
vn -0.9296 0.3396 -0.1436
vn -0.8483 0.5257 -0.0638
vn -0.6680 0.7423 0.0520
vn -0.7667 0.4999 0.4027
vn -0.7659 0.6068 0.2125
vn -0.7039 0.7070 -0.0685
vn -0.3962 0.9015 0.1745
vn -0.5785 0.8099 0.0970
vn -0.7856 0.6184 -0.0181
vn -0.7299 0.6833 0.0170
vn 0.2504 -0.0874 -0.9642
vn 0.2225 0.1290 -0.9664
vn 0.1660 0.4192 -0.8926
vn -0.2352 0.2507 -0.9391
vn -0.0231 0.3000 -0.9537
vn 0.2731 0.3446 -0.8981
vn 0.0856 0.6947 -0.7142
vn 0.1391 0.5246 -0.8399
vn 0.2024 0.2467 -0.9477
vn 0.5712 0.3567 -0.7393
vn 0.3847 0.3536 -0.8526
vn 0.0953 0.3213 -0.9422
vn 0.1850 0.3344 -0.9241
vn 0.5741 0.3767 -0.7269
vn 0.6319 0.5210 -0.5738
vn 0.6619 0.6799 -0.3155
vn 0.2849 0.8302 -0.4792
vn 0.4856 0.7504 -0.4485
vn 0.7257 0.5799 -0.3702
vn 0.6234 0.7819 0.0043
vn 0.6568 0.7259 -0.2039
vn 0.6511 0.5905 -0.4768
vn 0.9126 0.3285 -0.2434
vn 0.8031 0.4966 -0.3292
vn 0.5873 0.6906 -0.4222
vn 0.6593 0.6380 -0.3979
vn 0.8898 0.4008 0.2181
vn 0.7777 0.5059 0.3731
vn 0.5603 0.6116 0.5585
vn 0.4988 0.8449 0.1934
vn 0.5800 0.7305 0.3606
vn 0.6466 0.5137 0.5640
vn 0.2591 0.6622 0.7031
vn 0.4587 0.6381 0.6184
vn 0.6994 0.5539 0.4516
vn 0.6501 0.2181 0.7279
vn 0.6565 0.4135 0.6309
vn 0.6132 0.6519 0.4461
vn 0.6326 0.5853 0.5072
vn 0.5769 0.6848 0.4453
vn -0.7271 0.6864 0.0170
vn 0.1346 0.6466 -0.7509
vn 0.6455 0.6445 -0.4098
vn 0.4795 0.7427 -0.4674
vn -0.0788 0.9733 -0.2155
vn -0.1769 0.8574 -0.4833
vn -0.4919 0.7644 -0.4168
vn -0.2431 0.9519 0.1866
vn -0.5934 0.7792 0.2017
vn -0.1851 0.9484 0.2573
vn -0.1565 0.8014 0.5773
vn 0.5222 0.8384 0.1564
vn 0.7595 0.4439 -0.4755
vn 0.6631 0.1502 -0.7333
vn 0.1626 0.3404 -0.9261
vn -0.2626 0.1777 -0.9484
vn -0.6184 0.3930 -0.6805
vn -0.9443 0.3164 0.0903
vn -0.9359 0.1770 0.3047
vn -0.7929 0.3501 0.4987
vn -0.3865 0.4050 0.8286
vn -0.2588 0.2429 0.9349
vn 0.6558 0.5638 0.5022
vn 0.9478 0.2201 0.2309
vn 0.3221 0.1548 -0.9340
vn -0.9666 0.0765 -0.2447
vn -0.6715 0.2608 0.6936
vn 0.3765 0.2346 0.8962
vn 0.9321 0.1976 -0.3035
s off
f 1/1/1 2/2/1 3/3/1
f 2/2/2 1/1/2 5/4/2 6/5/2
f 6/5/3 5/4/3 4/6/3
f 7/7/4 8/8/4 9/9/4
f 8/8/5 7/7/5 10/10/5 11/11/5
f 11/11/6 10/10/6 4/6/6
f 12/12/7 13/13/7 14/14/7
f 13/13/8 12/12/8 15/15/8 16/16/8
f 16/16/9 15/15/9 4/6/9
f 17/17/10 18/18/10 19/19/10
f 18/18/11 17/17/11 20/20/11 21/21/11
f 21/21/12 20/20/12 4/6/12
f 23/22/13 24/23/13 25/24/13 26/25/13
f 22/26/13 23/22/13 26/25/13
f 27/27/14 28/28/14 29/29/14
f 28/28/15 27/27/15 31/30/15 32/31/15
f 32/31/16 31/30/16 30/32/16
f 33/33/17 34/34/17 35/35/17
f 34/34/18 33/33/18 36/36/18 37/37/18
f 37/37/19 36/36/19 30/32/19
f 38/38/20 39/39/20 40/40/20
f 39/39/21 38/38/21 41/41/21 42/42/21
f 42/42/22 41/41/22 30/32/22
f 43/43/23 44/44/23 45/45/23
f 44/44/24 43/43/24 46/46/24 47/47/24
f 47/47/25 46/46/25 30/32/25
f 49/48/26 50/49/26 51/50/26 52/51/26
f 48/52/26 49/48/26 52/51/26
f 53/53/27 54/54/27 55/55/27
f 54/54/28 53/53/28 57/56/28 58/57/28
f 58/57/29 57/56/29 56/58/29
f 59/59/30 60/60/30 61/61/30
f 60/60/31 59/59/31 62/62/31 63/63/31
f 63/63/32 62/62/32 56/58/32
f 64/64/33 65/65/33 66/66/33
f 65/65/34 64/64/34 67/67/34 68/68/34
f 68/68/35 67/67/35 56/58/35
f 69/69/36 70/70/36 71/71/36
f 70/70/37 69/69/37 72/72/37 73/73/37
f 73/73/38 72/72/38 56/58/38
f 75/74/39 76/75/39 77/76/39 78/77/39
f 74/78/39 75/74/39 78/77/39
f 79/79/40 80/80/40 81/81/40
f 80/80/41 79/79/41 83/82/41 84/83/41
f 84/83/42 83/82/42 82/84/42
f 85/85/43 86/86/43 87/87/43
f 86/86/44 85/85/44 88/88/44 89/89/44
f 89/89/45 88/88/45 82/84/45
f 90/90/46 91/91/46 92/92/46
f 91/91/47 90/90/47 93/93/47 94/94/47
f 94/94/48 93/93/48 82/84/48
f 95/95/49 96/96/49 97/97/49
f 96/96/50 95/95/50 98/98/50 99/99/50
f 99/99/51 98/98/51 82/84/51
f 101/100/52 102/101/52 103/102/52 104/103/52
f 100/104/52 101/100/52 104/103/52
f 105/105/53 106/106/53 107/107/53
f 106/106/54 105/105/54 109/108/54 110/109/54
f 110/109/55 109/108/55 108/110/55
f 111/111/56 112/112/56 113/113/56
f 112/112/57 111/111/57 114/114/57 115/115/57
f 115/115/58 114/114/58 108/110/58
f 116/116/59 117/117/59 118/118/59
f 117/117/60 116/116/60 119/119/60 120/120/60
f 120/120/61 119/119/61 108/110/61
f 121/121/62 122/122/62 123/123/62
f 122/122/63 121/121/63 124/124/63 125/125/63
f 125/125/64 124/124/64 108/110/64
f 127/126/65 128/127/65 129/128/65 130/129/65
f 126/130/65 127/126/65 130/129/65
f 131/131/66 134/132/66 147/133/66
f 132/134/67 145/135/67 150/136/67
f 133/137/68 146/138/68 151/139/68
f 134/132/69 133/137/69 148/140/69
f 148/140/70 133/137/70 151/139/70
f 151/139/71 150/136/71 148/140/71
f 151/139/72 146/138/72 150/136/72
f 146/138/73 132/134/73 150/136/73
f 150/136/74 149/141/74 148/140/74
f 150/136/75 145/135/75 149/141/75
f 149/141/76 147/133/76 148/140/76
f 149/141/77 131/131/77 147/133/77
f 147/133/78 134/132/78 148/140/78
f 136/142/79 133/137/79 134/132/79
f 136/142/80 143/143/80 133/137/80
f 144/144/81 146/138/81 133/137/81
f 144/144/82 141/145/82 146/138/82
f 141/145/83 132/134/83 146/138/83
f 142/146/84 145/135/84 132/134/84
f 142/146/85 139/147/85 145/135/85
f 139/147/86 149/141/86 145/135/86
f 140/148/87 131/131/87 149/141/87
f 140/148/88 137/149/88 131/131/88
f 138/150/89 134/132/89 131/131/89
f 138/150/90 135/151/90 134/132/90
f 143/143/91 144/144/91 133/137/91
f 141/145/92 142/146/92 132/134/92
f 139/147/93 140/148/93 149/141/93
f 137/149/94 138/150/94 131/131/94
f 135/151/95 136/142/95 134/132/95
