# Blender v2.78 (sub 0) OBJ File: 'Low_Poly_Vegetation_Pack.blend'
# www.blender.org
g FlowerBush_g_m_02
v 0.284858 0.519927 -0.389565
v 0.309323 0.507581 -0.384716
v 0.312189 0.486726 -0.402920
v 0.289495 0.486184 -0.419019
v 0.272603 0.506703 -0.410765
v 0.291721 0.495646 -0.397906
v 0.374245 0.567116 -0.309868
v 0.341460 0.514608 -0.371528
v 0.312340 0.541186 -0.365807
v 0.425797 0.459161 -0.378902
v 0.345140 0.472498 -0.409731
v 0.348506 0.499852 -0.380965
v 0.354031 0.402852 -0.482615
v 0.302844 0.464025 -0.446954
v 0.335330 0.464801 -0.423908
v 0.230711 0.454498 -0.517294
v 0.256867 0.497662 -0.445973
v 0.285987 0.471084 -0.451694
v 0.179159 0.562453 -0.448260
v 0.253186 0.539773 -0.407770
v 0.249820 0.512419 -0.436537
v 0.250926 0.618762 -0.344547
v 0.295483 0.548245 -0.370547
v 0.262996 0.547469 -0.393593
v 0.436261 0.421939 0.368527
v 0.416775 0.429391 0.389486
v 0.412841 0.405935 0.407061
v 0.429895 0.383987 0.396964
v 0.444370 0.393878 0.373148
v 0.423349 0.398829 0.385663
v 0.405665 0.549868 0.399754
v 0.396256 0.450783 0.401840
v 0.420461 0.456808 0.367636
v 0.357632 0.462858 0.507752
v 0.389900 0.401446 0.436351
v 0.389691 0.438889 0.416602
v 0.406920 0.325017 0.518351
v 0.421051 0.351187 0.423345
v 0.396637 0.382605 0.437800
v 0.504241 0.274187 0.420952
v 0.458559 0.350264 0.375828
v 0.434354 0.344239 0.410032
v 0.552273 0.361198 0.312954
v 0.464915 0.399601 0.341316
v 0.465124 0.362158 0.361065
v 0.502985 0.499038 0.302355
v 0.433764 0.449861 0.354322
v 0.458178 0.418442 0.339868
v -0.501740 0.424949 -0.275721
v -0.481948 0.424009 -0.300035
v -0.482722 0.395047 -0.312049
v -0.502992 0.378087 -0.295161
v -0.514746 0.396567 -0.272709
v -0.491401 0.397153 -0.284783
v -0.438898 0.539461 -0.329218
v -0.466474 0.445056 -0.324365
v -0.488139 0.463837 -0.289814
v -0.410248 0.415673 -0.419148
v -0.469910 0.385075 -0.347033
v -0.462558 0.428135 -0.336657
v -0.483046 0.280880 -0.391523
v -0.508878 0.342371 -0.319081
v -0.479861 0.366650 -0.343257
v -0.584494 0.269876 -0.273969
v -0.544409 0.359649 -0.268461
v -0.522744 0.340867 -0.303012
v -0.613144 0.393664 -0.184039
v -0.540973 0.419630 -0.245793
v -0.548325 0.376570 -0.256168
v -0.540346 0.528457 -0.211664
v -0.502006 0.462333 -0.273746
v -0.531022 0.438054 -0.249570
v 0.019444 0.713804 0.136153
v 0.003056 0.708480 0.163426
v 0.024336 0.701463 0.186636
v 0.053876 0.702451 0.173706
v 0.050853 0.710078 0.142506
v 0.034013 0.702175 0.161142
v -0.121508 0.761740 0.156353
v -0.029558 0.708533 0.178908
v -0.024255 0.718784 0.134192
v -0.058092 0.723532 0.298321
v 0.016094 0.694473 0.224521
v -0.020889 0.703310 0.198314
v 0.100583 0.708673 0.313732
v 0.080071 0.693856 0.208119
v 0.037784 0.692442 0.226627
v 0.195843 0.732022 0.187175
v 0.098394 0.707298 0.146103
v 0.093091 0.697048 0.190819
v 0.132428 0.770230 0.045207
v 0.052742 0.721358 0.100490
v 0.089726 0.712521 0.126698
v -0.026248 0.785089 0.029797
v -0.011234 0.721975 0.116893
v 0.031052 0.723389 0.098385
v -0.439936 0.401030 0.369334
v -0.457836 0.386194 0.353913
v -0.459263 0.360501 0.364691
v -0.442245 0.359459 0.386773
v -0.430301 0.384507 0.389643
v -0.437702 0.375715 0.372930
v -0.511715 0.453472 0.282147
v -0.482346 0.391765 0.336930
v -0.461451 0.424089 0.347581
v -0.546604 0.321077 0.302782
v -0.483649 0.339851 0.360711
v -0.487115 0.373668 0.339751
v -0.490904 0.250397 0.408011
v -0.451674 0.328697 0.406705
v -0.476035 0.330190 0.375094
v -0.400314 0.312112 0.492606
v -0.418396 0.369457 0.428919
v -0.439292 0.337133 0.418268
v -0.365425 0.444507 0.471972
v -0.417093 0.421372 0.405139
v -0.413627 0.387554 0.426098
v -0.421125 0.515187 0.366742
v -0.449068 0.432525 0.359144
v -0.424707 0.431032 0.390755
v -0.144908 0.035435 -0.445989
v 0.054498 0.766323 -0.167730
v -0.054498 -0.091140 0.167730
v 0.261999 -0.029210 0.190351
v -0.002229 0.111732 0.549651
v 0.522061 0.111733 0.171972
v 0.261999 -0.029210 -0.190351
v -0.323849 -0.029209 0.000000
v -0.523439 0.111733 0.167730
v -0.423925 0.110894 -0.307998
v 0.324883 0.111733 -0.443365
v 0.585852 0.337592 0.190352
v 0.585852 0.337592 -0.190352
v 0.000000 0.337592 0.616000
v 0.362076 0.337592 0.498354
v -0.585852 0.337592 0.190352
v -0.362076 0.337592 0.498354
v -0.362076 0.337592 -0.498354
v -0.585852 0.337592 -0.190352
v 0.362076 0.337592 -0.498354
v 0.000000 0.337592 -0.616000
v 0.423925 0.564289 0.307998
v -0.324883 0.563450 0.443365
v -0.522061 0.563450 -0.171972
v 0.002229 0.563451 -0.549651
v 0.523439 0.563450 -0.167731
v 0.144908 0.639749 0.445989
v 0.323849 0.704393 0.000000
v -0.258047 0.750530 0.000000
vt 0.6436 0.4219
vt 0.6868 0.3905
vt 0.7300 0.4219
vt 0.7135 0.4727
vt 0.6601 0.4727
vt 0.5793 0.4226
vt 0.5436 0.4226
vt 0.5614 0.3959
vt 0.5614 0.4864
vt 0.5793 0.4226
vt 0.5436 0.4226
vt 0.5614 0.4864
vt 0.5793 0.4226
vt 0.5436 0.4226
vt 0.5614 0.4864
vt 0.5793 0.4226
vt 0.5436 0.4226
vt 0.5614 0.4864
vt 0.5793 0.4226
vt 0.5436 0.4226
vt 0.5614 0.4864
vt 0.5793 0.4226
vt 0.5436 0.4226
vt 0.5614 0.4864
vt 0.6372 0.4213
vt 0.6831 0.3879
vt 0.7290 0.4213
vt 0.7115 0.4753
vt 0.6547 0.4753
vt 0.4571 0.4228
vt 0.4210 0.4228
vt 0.4390 0.3958
vt 0.4390 0.4872
vt 0.4571 0.4228
vt 0.4210 0.4228
vt 0.4390 0.4872
vt 0.4571 0.4228
vt 0.4210 0.4228
vt 0.4390 0.4872
vt 0.4571 0.4228
vt 0.4210 0.4228
vt 0.4390 0.4872
vt 0.4571 0.4228
vt 0.4210 0.4228
vt 0.4390 0.4872
vt 0.4571 0.4228
vt 0.4210 0.4228
vt 0.4390 0.4872
vt 0.6436 0.4219
vt 0.6868 0.3905
vt 0.7300 0.4219
vt 0.7135 0.4727
vt 0.6601 0.4727
vt 0.5793 0.4226
vt 0.5436 0.4226
vt 0.5614 0.3959
vt 0.5614 0.4864
vt 0.5793 0.4226
vt 0.5436 0.4226
vt 0.5614 0.4864
vt 0.5793 0.4226
vt 0.5436 0.4226
vt 0.5614 0.4864
vt 0.5793 0.4226
vt 0.5436 0.4226
vt 0.5614 0.4864
vt 0.5793 0.4226
vt 0.5436 0.4226
vt 0.5614 0.4864
vt 0.5793 0.4226
vt 0.5436 0.4226
vt 0.5614 0.4864
vt 0.6372 0.4213
vt 0.6831 0.3879
vt 0.7290 0.4213
vt 0.7115 0.4753
vt 0.6547 0.4753
vt 0.4571 0.4228
vt 0.4210 0.4228
vt 0.4390 0.3958
vt 0.4390 0.4872
vt 0.4571 0.4228
vt 0.4210 0.4228
vt 0.4390 0.4872
vt 0.4571 0.4228
vt 0.4210 0.4228
vt 0.4390 0.4872
vt 0.4571 0.4228
vt 0.4210 0.4228
vt 0.4390 0.4872
vt 0.4571 0.4228
vt 0.4210 0.4228
vt 0.4390 0.4872
vt 0.4571 0.4228
vt 0.4210 0.4228
vt 0.4390 0.4872
vt 0.6436 0.4219
vt 0.6868 0.3905
vt 0.7300 0.4219
vt 0.7135 0.4727
vt 0.6601 0.4727
vt 0.5793 0.4226
vt 0.5436 0.4226
vt 0.5614 0.3959
vt 0.5614 0.4864
vt 0.5793 0.4226
vt 0.5436 0.4226
vt 0.5614 0.4864
vt 0.5793 0.4226
vt 0.5436 0.4226
vt 0.5614 0.4864
vt 0.5793 0.4226
vt 0.5436 0.4226
vt 0.5614 0.4864
vt 0.5793 0.4226
vt 0.5436 0.4226
vt 0.5614 0.4864
vt 0.5793 0.4226
vt 0.5436 0.4226
vt 0.5614 0.4864
vt 0.2048 0.9099
vt 0.2132 0.9070
vt 0.2205 0.9195
vt 0.2064 0.9229
vt 0.2248 0.9098
vt 0.2401 0.9168
vt 0.1916 0.9229
vt 0.1789 0.9308
vt 0.1743 0.9109
vt 0.1938 0.9018
vt 0.1823 0.8921
vt 0.1999 0.8817
vt 0.2145 0.8974
vt 0.2202 0.8835
vt 0.2355 0.8969
vt 0.2320 0.9356
vt 0.2110 0.9315
vt 0.2146 0.9460
vt 0.1942 0.9442
vt 0.1719 0.9543
vt 0.1812 0.9517
vt 0.1701 0.9630
vt 0.1796 0.9728
vt 0.1610 0.9667
vt 0.1590 0.9778
vt 0.1479 0.9598
vt 0.1585 0.9488
vt 0.1675 0.9432
vt 0.1987 0.9641
vt 0.1907 0.9829
vt 0.1732 0.9933
vt 0.1529 0.9915
vt 0.1375 0.9781
vt 0.1330 0.9582
vt 0.1410 0.9394
vt 0.1585 0.9290
vt 0.1788 0.9308
vt 0.1983 0.9159
vn 0.4424 0.6235 -0.6446
vn 0.2658 0.4721 -0.8405
vn 0.3949 0.5852 -0.7083
vn 0.1536 0.7070 -0.6903
vn 0.3620 0.6540 -0.6642
vn 0.3098 0.8296 -0.4646
vn 0.4078 0.6899 -0.5981
vn 0.5781 0.7172 -0.3891
vn 0.4864 0.6570 -0.5760
vn 0.6903 0.4823 -0.5394
vn 0.5193 0.5881 -0.6200
vn 0.5341 0.3597 -0.7651
vn 0.4736 0.5522 -0.6862
vn 0.7485 0.3126 0.5848
vn 0.7771 0.2218 0.5890
vn 0.8199 -0.0659 0.5686
vn 0.8082 0.2782 0.5190
vn 0.9437 0.1584 0.2903
vn 0.7763 0.3676 0.5121
vn 0.8167 0.5137 0.2630
vn 0.7132 0.4006 0.5753
vn 0.5659 0.6447 0.5140
vn 0.6820 0.3442 0.6453
vn 0.4421 0.4204 0.7924
vn 0.7140 0.2548 0.6521
vn 0.5691 0.0651 0.8197
vn -0.7406 0.2743 -0.6134
vn -0.8469 0.0013 -0.5317
vn -0.7789 0.1969 -0.5954
vn -0.9022 0.2403 -0.3581
vn -0.7951 0.2670 -0.5445
vn -0.7617 0.5006 -0.4114
vn -0.7539 0.3432 -0.5602
vn -0.5658 0.5218 -0.6384
vn -0.6965 0.3495 -0.6267
vn -0.5105 0.2828 -0.8121
vn -0.6803 0.2794 -0.6776
vn -0.6510 0.0226 -0.7587
vn -0.7215 0.2031 -0.6619
vn 0.0685 0.9706 0.2306
vn 0.1625 0.9574 0.2387
vn 0.4383 0.8634 0.2499
vn 0.1248 0.9801 0.1544
vn 0.2885 0.9537 -0.0855
vn 0.0305 0.9889 0.1452
vn -0.0864 0.9888 -0.1219
vn -0.0261 0.9751 0.2204
vn -0.3115 0.9336 0.1771
vn 0.0116 0.9523 0.3048
vn -0.1617 0.8433 0.5125
vn 0.1059 0.9435 0.3140
vn 0.2132 0.8082 0.5489
vn -0.7513 0.2904 0.5927
vn -0.5956 0.1235 0.7937
vn -0.7129 0.2443 0.6573
vn -0.5199 0.4109 0.7489
vn -0.6907 0.3285 0.6442
vn -0.6408 0.5643 0.5205
vn -0.7262 0.3734 0.5773
vn -0.8374 0.4304 0.3369
vn -0.7838 0.3342 0.5234
vn -0.9132 0.1430 0.3816
vn -0.8060 0.2500 0.5366
vn -0.7923 -0.0105 0.6101
vn -0.7705 0.2050 0.6035
vn -0.1091 -0.9766 -0.1853
vn -0.0316 -0.9798 -0.1974
vn -0.4898 -0.4784 -0.7289
vn 0.7798 -0.2663 0.5666
vn -0.2979 -0.2664 0.9167
vn -0.9639 -0.2664 0.0000
vn -0.2882 -0.3609 -0.8870
vn 0.7798 -0.2663 -0.5666
vn 0.3804 0.8794 -0.2862
vn 0.3491 0.8069 -0.4764
vn -0.2705 0.8651 -0.4225
vn -0.3139 0.8436 -0.4358
vn -0.6524 0.7285 0.2090
vn 0.0546 0.9795 0.1940
vn -0.1512 0.9187 0.3648
vn 0.1091 0.9766 0.1853
vn 0.3769 0.8831 0.2792
vn 0.6440 0.7533 0.1334
vn 0.7786 0.2718 -0.5657
vn 0.4709 0.6043 -0.6427
vn -0.2974 0.2718 -0.9153
vn -0.4657 0.6043 -0.6465
vn -0.9624 0.2718 0.0000
vn -0.7587 0.6043 0.2431
vn -0.2974 0.2718 0.9153
vn -0.0893 0.5206 0.8491
vn 0.4898 0.4784 0.7289
vn 0.7805 0.2632 0.5671
vn 0.8419 0.5104 0.1752
vn 0.2979 0.2664 -0.9167
vn 0.2974 -0.2718 -0.9153
vn 0.0893 -0.5206 -0.8491
vn -0.7798 0.2663 -0.5666
vn -0.7805 -0.2632 -0.5671
vn -0.8419 -0.5104 -0.1752
vn -0.7798 0.2663 0.5666
vn -0.7786 -0.2718 0.5657
vn -0.4709 -0.6043 0.6427
vn 0.2882 0.3609 0.8870
vn 0.2974 -0.2718 0.9153
vn 0.4657 -0.6043 0.6465
vn 0.9639 0.2664 0.0000
vn 0.9624 -0.2718 0.0000
vn 0.7587 -0.6043 -0.2431
vn 0.1453 -0.8792 -0.4537
vn -0.3769 -0.8831 -0.2792
vn -0.6440 -0.7533 -0.1334
vn -0.3804 -0.8794 0.2862
vn -0.3491 -0.8069 0.4764
vn 0.6826 -0.6972 -0.2187
vn 0.4765 -0.8792 0.0000
vn 0.1920 -0.9814 0.0000
vn 0.1405 -0.8822 0.4494
vn 0.4190 -0.6972 0.5816
s off
f 2/1/1 3/2/1 4/3/1 5/4/1
f 1/5/1 2/1/1 5/4/1
f 9/6/2 8/7/2 6/8/2
f 7/9/3 8/7/3 9/6/3
f 12/10/4 11/11/4 6/8/4
f 10/12/5 11/11/5 12/10/5
f 15/13/6 14/14/6 6/8/6
f 13/15/7 14/14/7 15/13/7
f 18/16/8 17/17/8 6/8/8
f 16/18/9 17/17/9 18/16/9
f 21/19/10 20/20/10 6/8/10
f 19/21/11 20/20/11 21/19/11
f 24/22/12 23/23/12 6/8/12
f 22/24/13 23/23/13 24/22/13
f 26/25/14 27/26/14 28/27/14 29/28/14
f 25/29/14 26/25/14 29/28/14
f 33/30/15 32/31/15 30/32/15
f 31/33/16 32/31/16 33/30/16
f 36/34/17 35/35/17 30/32/17
f 34/36/18 35/35/18 36/34/18
f 39/37/19 38/38/19 30/32/19
f 37/39/20 38/38/20 39/37/20
f 42/40/21 41/41/21 30/32/21
f 40/42/22 41/41/22 42/40/22
f 45/43/23 44/44/23 30/32/23
f 43/45/24 44/44/24 45/43/24
f 48/46/25 47/47/25 30/32/25
f 46/48/26 47/47/26 48/46/26
f 50/49/27 51/50/27 52/51/27 53/52/27
f 49/53/27 50/49/27 53/52/27
f 57/54/28 56/55/28 54/56/28
f 55/57/29 56/55/29 57/54/29
f 60/58/30 59/59/30 54/56/30
f 58/60/31 59/59/31 60/58/31
f 63/61/32 62/62/32 54/56/32
f 61/63/33 62/62/33 63/61/33
f 66/64/34 65/65/34 54/56/34
f 64/66/35 65/65/35 66/64/35
f 69/67/36 68/68/36 54/56/36
f 67/69/37 68/68/37 69/67/37
f 72/70/38 71/71/38 54/56/38
f 70/72/39 71/71/39 72/70/39
f 74/73/40 75/74/40 76/75/40 77/76/40
f 73/77/40 74/73/40 77/76/40
f 81/78/41 80/79/41 78/80/41
f 79/81/42 80/79/42 81/78/42
f 84/82/43 83/83/43 78/80/43
f 82/84/44 83/83/44 84/82/44
f 87/85/45 86/86/45 78/80/45
f 85/87/46 86/86/46 87/85/46
f 90/88/47 89/89/47 78/80/47
f 88/90/48 89/89/48 90/88/48
f 93/91/49 92/92/49 78/80/49
f 91/93/50 92/92/50 93/91/50
f 96/94/51 95/95/51 78/80/51
f 94/96/52 95/95/52 96/94/52
f 98/97/53 99/98/53 100/99/53 101/100/53
f 97/101/53 98/97/53 101/100/53
f 105/102/54 104/103/54 102/104/54
f 103/105/55 104/103/55 105/102/55
f 108/106/56 107/107/56 102/104/56
f 106/108/57 107/107/57 108/106/57
f 111/109/58 110/110/58 102/104/58
f 109/111/59 110/110/59 111/109/59
f 114/112/60 113/113/60 102/104/60
f 112/114/61 113/113/61 114/112/61
f 117/115/62 116/116/62 102/104/62
f 115/117/63 116/116/63 117/115/63
f 120/118/64 119/119/64 102/104/64
f 118/120/65 119/119/65 120/118/65
f 123/121/66 128/122/66 121/123/66
f 123/121/67 121/123/67 127/124/67
f 121/123/68 130/125/68 138/126/68
f 126/127/69 132/128/69 135/129/69
f 125/130/70 134/131/70 137/132/70
f 129/133/71 136/134/71 139/135/71
f 121/123/72 138/126/72 141/136/72
f 131/137/73 140/138/73 133/139/73
f 148/140/74 146/141/74 122/142/74
f 146/141/75 145/143/75 122/142/75
f 122/142/76 145/143/76 149/144/76
f 145/143/77 144/145/77 149/144/77
f 144/145/78 143/146/78 149/144/78
f 149/144/79 147/147/79 122/142/79
f 149/144/80 143/146/80 147/147/80
f 147/147/81 148/140/81 122/142/81
f 147/147/82 142/148/82 148/140/82
f 142/148/83 146/141/83 148/140/83
f 133/139/84 140/149/84 146/141/84
f 140/149/85 145/143/85 146/141/85
f 141/150/86 138/151/86 145/143/86
f 138/151/87 144/145/87 145/143/87
f 139/152/88 136/153/88 144/145/88
f 136/153/89 143/146/89 144/145/89
f 137/154/90 134/155/90 143/146/90
f 134/155/91 147/147/91 143/146/91
f 135/156/92 142/148/92 147/147/92
f 135/156/93 132/157/93 142/148/93
f 132/157/94 146/141/94 142/148/94
f 140/149/95 141/150/95 145/143/95
f 140/138/96 131/137/96 141/136/96
f 131/137/97 121/123/97 141/136/97
f 138/151/98 139/152/98 144/145/98
f 138/126/99 130/125/99 139/135/99
f 130/125/100 129/133/100 139/135/100
f 136/153/101 137/154/101 143/146/101
f 136/134/102 129/133/102 137/132/102
f 129/133/103 125/130/103 137/132/103
f 134/155/104 135/156/104 147/147/104
f 134/131/105 125/130/105 135/129/105
f 125/130/106 126/127/106 135/129/106
f 132/157/107 133/139/107 146/141/107
f 132/128/108 126/127/108 133/139/108
f 126/127/109 131/137/109 133/139/109
f 127/124/110 121/123/110 131/137/110
f 121/123/111 128/122/111 130/125/111
f 128/122/112 129/133/112 130/125/112
f 128/122/113 123/121/113 129/133/113
f 123/121/114 125/130/114 129/133/114
f 126/127/115 127/124/115 131/137/115
f 126/127/116 124/158/116 127/124/116
f 124/158/117 123/121/117 127/124/117
f 123/121/118 124/158/118 125/130/118
f 124/158/119 126/127/119 125/130/119
