# Blender v2.78 (sub 0) OBJ File: 'Low_Poly_Vegetation_Pack.blend'
# www.blender.org
g FlowerBush_b_l_04
v -1.408355 0.464403 -0.192855
v -1.382262 0.547694 -0.350840
v -1.523565 0.438124 -0.328840
v -1.277311 0.653182 -0.174789
v -1.339232 0.528664 -0.162231
v -1.316852 0.600102 -0.297735
v -1.269838 0.625565 0.053942
v -1.363096 0.495752 -0.029899
v -1.392034 0.529230 0.144738
v -1.244989 0.649878 -0.038992
v -1.324975 0.538539 -0.110902
v -1.163319 0.852457 -0.154006
v -1.189412 0.769167 0.003979
v -1.158302 0.946561 -0.000463
v -1.197274 0.766551 -0.190233
v -1.219654 0.695112 -0.054729
v -1.301836 0.691295 -0.400803
v -1.208579 0.821107 -0.316963
v -1.289835 0.855454 -0.474042
v -1.291518 0.645335 -0.313473
v -1.211531 0.756675 -0.241563
v -1.267675 0.683937 -0.233125
v -1.307083 0.617099 -0.222258
v -1.305346 0.600127 -0.145791
v -1.264864 0.656476 -0.109397
v -1.241583 0.708273 -0.163373
v 0.801551 0.814577 -0.670085
v 0.751035 0.833483 -0.705738
v 0.723758 0.884240 -0.676409
v 0.757416 0.896703 -0.622629
v 0.805494 0.853649 -0.618721
v 0.691821 0.941693 -0.839970
v 0.782605 0.828675 -0.870595
v 0.682871 0.869714 -0.959282
v 0.750686 0.838713 -0.643846
v 0.699943 0.892736 -0.724566
v 0.768096 0.807890 -0.747557
v 0.759749 1.065658 -0.613047
v 0.682619 1.037097 -0.736287
v 0.655989 1.148447 -0.656360
v 0.755309 0.940481 -0.603460
v 0.697406 0.919040 -0.695980
v 0.963683 0.895727 -0.581262
v 0.872899 1.008745 -0.550637
v 0.986568 0.982171 -0.474024
v 0.854659 0.839944 -0.609244
v 0.786505 0.924790 -0.586253
v 0.895754 0.771762 -0.808186
v 0.972883 0.800323 -0.684945
v 1.013449 0.703438 -0.776946
v 0.799292 0.792199 -0.730350
v 0.857195 0.813640 -0.637830
v -0.428942 1.435895 0.197025
v -0.391648 1.455412 0.021509
v -0.561232 1.471703 0.080092
v -0.208635 1.490755 0.157131
v -0.330278 1.442153 0.205479
v -0.298291 1.458893 0.054939
v -0.170495 1.500886 0.384241
v -0.339911 1.454202 0.343053
v -0.302492 1.524906 0.504475
v -0.156926 1.487960 0.286804
v -0.302234 1.447920 0.251476
v 0.006092 1.565012 0.118209
v -0.031202 1.545496 0.293724
v 0.102318 1.654549 0.241416
v -0.081062 1.518752 0.107752
v -0.113049 1.502012 0.258292
v -0.252356 1.500021 -0.069008
v -0.082940 1.546705 -0.027819
v -0.156424 1.601346 -0.182967
v -0.254415 1.472944 0.026427
v -0.109108 1.512985 0.061754
v -0.194863 1.497962 0.092323
v -0.263873 1.476588 0.122640
v -0.256544 1.474793 0.200623
v -0.183005 1.495058 0.218502
v -0.144884 1.509376 0.151569
v -0.446143 0.818336 -1.302897
v -0.576435 0.821126 -1.230766
v -0.500036 0.946984 -1.251425
v -0.556770 0.668907 -1.343152
v -0.470741 0.742739 -1.322519
v -0.582492 0.745132 -1.260653
v -0.427911 0.607902 -1.469093
v -0.386351 0.732497 -1.398842
v -0.326268 0.697519 -1.530259
v -0.487553 0.608835 -1.412996
v -0.451907 0.715701 -1.352741
v -0.674006 0.528611 -1.395697
v -0.543714 0.525821 -1.467828
v -0.662813 0.458981 -1.526580
v -0.635781 0.585373 -1.350731
v -0.524030 0.582980 -1.412597
v -0.692238 0.739047 -1.229499
v -0.733798 0.614451 -1.299751
v -0.836580 0.708446 -1.247745
v -0.618969 0.719278 -1.260254
v -0.654615 0.612412 -1.320508
v -0.604881 0.669937 -1.316518
v -0.557043 0.712980 -1.310251
v -0.508829 0.695115 -1.349453
v -0.526869 0.641032 -1.379947
v -0.586232 0.625470 -1.359593
v 1.176885 0.859410 0.697627
v 1.149905 0.967272 0.598509
v 1.115822 0.987568 0.741793
v 1.283210 0.844543 0.540586
v 1.220320 0.828018 0.635716
v 1.197179 0.920532 0.550703
v 1.373915 0.695577 0.616543
v 1.267066 0.750031 0.704887
v 1.377905 0.669695 0.762892
v 1.340370 0.746860 0.562231
v 1.248726 0.793565 0.638003
v 1.400755 0.839429 0.391103
v 1.427736 0.731566 0.490221
v 1.534317 0.774287 0.395778
v 1.334183 0.850709 0.437427
v 1.357324 0.758196 0.522440
v 1.203724 1.003262 0.472188
v 1.310573 0.948807 0.383844
v 1.272232 1.092160 0.374680
v 1.214132 0.931868 0.510913
v 1.305776 0.885163 0.435141
v 1.273248 0.884371 0.503987
v 1.242610 0.875974 0.560300
v 1.268080 0.824140 0.589369
v 1.314461 0.800503 0.551021
v 1.317655 0.837728 0.498252
v -0.401096 0.826752 1.167464
v -0.458495 0.834343 1.138686
v -0.495565 0.783750 1.154390
v -0.461076 0.744891 1.192873
v -0.402691 0.771468 1.200953
v -0.627928 0.900155 1.152655
v -0.512928 0.993125 1.143471
v -0.637190 1.023224 1.087353
v -0.434080 0.777952 1.147746
v -0.536645 0.815181 1.137567
v -0.450311 0.884976 1.130672
v -0.573132 0.688452 1.306457
v -0.652165 0.777501 1.218270
v -0.708000 0.664876 1.279052
v -0.483995 0.714513 1.221862
v -0.543327 0.781364 1.155657
v -0.327381 0.784064 1.350509
v -0.442381 0.691094 1.359694
v -0.325998 0.672596 1.434588
v -0.361612 0.785036 1.229645
v -0.447945 0.715241 1.236540
v -0.382177 0.995767 1.196707
v -0.303144 0.906719 1.284894
v -0.255189 1.030945 1.242888
v -0.414262 0.885704 1.145350
v -0.354930 0.818853 1.211554
v -1.506411 -0.017151 -0.034182
v -1.225598 -0.025662 0.482777
v -1.103981 -0.013276 1.095908
v -1.298830 0.455858 0.275279
v -1.517746 -0.014732 -0.417711
v -0.977548 -0.021409 -0.987089
v -1.195649 0.720763 0.723246
v -1.268934 0.485626 0.617739
v -1.201218 0.389568 -0.910229
v -1.362551 0.564021 -0.519165
v -1.215810 0.802102 -0.497450
v 0.068420 -0.018275 -1.482321
v -0.507763 -0.018058 -1.401593
v -0.780919 -0.024274 -1.253518
v 0.200377 0.613692 -1.342749
v 0.468337 -0.016020 -1.605958
v 0.758037 -0.018058 -1.563019
v 1.068568 -0.021005 -1.310011
v -0.439678 0.290018 -1.526458
v -0.372720 0.544028 -1.506361
v -0.325892 0.955497 -1.239367
v -0.779051 0.598127 -1.252619
v 0.725228 0.346935 -1.438812
v 1.040277 0.359961 -1.159399
v 0.582644 0.837293 -0.981744
v 1.751774 -0.018058 -0.026553
v 1.630094 -0.020755 -0.405410
v 1.175538 -0.018058 -0.773377
v 1.553061 0.569897 -0.054271
v 1.414229 0.863093 -0.140944
v 1.655424 -0.019101 0.310551
v 1.156017 -0.018058 0.731424
v 1.521396 0.242090 -0.465413
v 1.107091 0.405077 -0.711338
v 1.572507 0.238502 0.347540
v 1.510718 0.776652 0.274678
v 1.340806 0.628823 0.693155
v 0.055727 -0.018284 1.448236
v 0.458038 -0.017461 1.344178
v 0.856743 -0.022322 0.845645
v 0.215499 0.426818 1.558491
v -0.021643 0.786171 1.379868
v 0.490070 0.274126 1.431359
v 0.764219 0.736798 1.120027
v -0.194430 0.394395 1.487092
v -0.835318 -0.018000 1.379554
v -0.462585 0.793612 1.148973
v 0.076677 1.560572 0.087137
v 0.343470 1.518259 -0.203450
v 0.205526 1.206215 -1.035634
v -0.369280 1.434423 -0.025113
v -0.834440 1.263284 0.353370
v 0.634314 1.303819 0.771742
v -0.580557 1.163655 0.812822
v 0.668955 1.354717 0.031386
v 0.719582 1.232609 -0.287569
v -0.234169 1.337639 -0.869786
v -0.701556 1.104998 -0.258214
v -0.565849 1.210950 -0.745366
v -0.535857 1.362214 0.455121
v -0.950009 0.722218 1.000783
v -1.017954 1.041520 0.047957
v -0.966882 0.385504 -1.066258
v 0.717178 0.877765 -0.641413
v 1.067828 0.992267 -0.393193
v 1.299106 1.058406 0.102758
v 0.933514 1.172293 0.662375
v 0.540790 1.152243 1.023964
v -0.892757 0.736137 -0.931818
v 0.942275 0.844398 0.958127
vt 0.1658 0.4399
vt 0.2106 0.4399
vt 0.1882 0.4847
vt 0.1690 0.4161
vt 0.2074 0.4161
vt 0.1882 0.3873
vt 0.1658 0.4399
vt 0.2106 0.4399
vt 0.1882 0.4847
vt 0.1690 0.4161
vt 0.2074 0.4161
vt 0.1658 0.4399
vt 0.2106 0.4399
vt 0.1882 0.4847
vt 0.1690 0.4161
vt 0.2074 0.4161
vt 0.1658 0.4399
vt 0.2106 0.4399
vt 0.1882 0.4847
vt 0.1690 0.4161
vt 0.2074 0.4161
vt 0.2672 0.4290
vt 0.3114 0.3968
vt 0.3557 0.4290
vt 0.3388 0.4810
vt 0.2841 0.4810
vt 0.2700 0.4288
vt 0.3151 0.3961
vt 0.3601 0.4288
vt 0.3429 0.4818
vt 0.2872 0.4818
vt 0.0465 0.4378
vt 0.0882 0.4378
vt 0.0673 0.4795
vt 0.0495 0.4156
vt 0.0852 0.4156
vt 0.0673 0.3889
vt 0.0465 0.4378
vt 0.0882 0.4378
vt 0.0673 0.4795
vt 0.0495 0.4156
vt 0.0852 0.4156
vt 0.0465 0.4378
vt 0.0882 0.4378
vt 0.0673 0.4795
vt 0.0495 0.4156
vt 0.0852 0.4156
vt 0.0465 0.4378
vt 0.0882 0.4378
vt 0.0673 0.4795
vt 0.0495 0.4156
vt 0.0852 0.4156
vt 0.1658 0.4399
vt 0.2106 0.4399
vt 0.1882 0.4847
vt 0.1690 0.4161
vt 0.2074 0.4161
vt 0.1882 0.3873
vt 0.1658 0.4399
vt 0.2106 0.4399
vt 0.1882 0.4847
vt 0.1690 0.4161
vt 0.2074 0.4161
vt 0.1658 0.4399
vt 0.2106 0.4399
vt 0.1882 0.4847
vt 0.1690 0.4161
vt 0.2074 0.4161
vt 0.1658 0.4399
vt 0.2106 0.4399
vt 0.1882 0.4847
vt 0.1690 0.4161
vt 0.2074 0.4161
vt 0.2672 0.4290
vt 0.3114 0.3968
vt 0.3557 0.4290
vt 0.3388 0.4810
vt 0.2841 0.4810
vt 0.1658 0.4399
vt 0.2106 0.4399
vt 0.1882 0.4847
vt 0.1690 0.4161
vt 0.2074 0.4161
vt 0.1882 0.3873
vt 0.1658 0.4399
vt 0.2106 0.4399
vt 0.1882 0.4847
vt 0.1690 0.4161
vt 0.2074 0.4161
vt 0.1658 0.4399
vt 0.2106 0.4399
vt 0.1882 0.4847
vt 0.1690 0.4161
vt 0.2074 0.4161
vt 0.1658 0.4399
vt 0.2106 0.4399
vt 0.1882 0.4847
vt 0.1690 0.4161
vt 0.2074 0.4161
vt 0.2672 0.4290
vt 0.3114 0.3968
vt 0.3557 0.4290
vt 0.3388 0.4810
vt 0.2841 0.4810
vt 0.1658 0.4399
vt 0.2106 0.4399
vt 0.1882 0.4847
vt 0.1690 0.4161
vt 0.2074 0.4161
vt 0.1882 0.3873
vt 0.1658 0.4399
vt 0.2106 0.4399
vt 0.1882 0.4847
vt 0.1690 0.4161
vt 0.2074 0.4161
vt 0.1658 0.4399
vt 0.2106 0.4399
vt 0.1882 0.4847
vt 0.1690 0.4161
vt 0.2074 0.4161
vt 0.1658 0.4399
vt 0.2106 0.4399
vt 0.1882 0.4847
vt 0.1690 0.4161
vt 0.2074 0.4161
vt 0.2672 0.4290
vt 0.3114 0.3968
vt 0.3557 0.4290
vt 0.3388 0.4810
vt 0.2841 0.4810
vt 0.2700 0.4288
vt 0.3151 0.3961
vt 0.3601 0.4288
vt 0.3429 0.4818
vt 0.2872 0.4818
vt 0.0465 0.4378
vt 0.0882 0.4378
vt 0.0673 0.4795
vt 0.0495 0.4156
vt 0.0852 0.4156
vt 0.0673 0.3889
vt 0.0465 0.4378
vt 0.0882 0.4378
vt 0.0673 0.4795
vt 0.0495 0.4156
vt 0.0852 0.4156
vt 0.0465 0.4378
vt 0.0882 0.4378
vt 0.0673 0.4795
vt 0.0495 0.4156
vt 0.0852 0.4156
vt 0.0465 0.4378
vt 0.0882 0.4378
vt 0.0673 0.4795
vt 0.0495 0.4156
vt 0.0852 0.4156
vt 0.1620 0.9052
vt 0.1782 0.9055
vt 0.1714 0.9197
vt 0.1625 0.8882
vt 0.1713 0.9018
vt 0.1798 0.9196
vt 0.1817 0.8827
vt 0.1868 0.9036
vt 0.1463 0.9003
vt 0.1542 0.9223
vt 0.1389 0.9129
vt 0.1473 0.9316
vt 0.1574 0.9370
vt 0.1466 0.9392
vt 0.1604 0.9261
vt 0.1690 0.9384
vt 0.1692 0.9646
vt 0.1653 0.9489
vt 0.1770 0.9524
vt 0.1391 0.9598
vt 0.1357 0.9500
vt 0.1493 0.9580
vt 0.1570 0.9550
vt 0.1537 0.9450
vt 0.1616 0.9840
vt 0.1753 0.9763
vt 0.1718 0.9879
vt 0.1504 0.9749
vt 0.1812 0.9640
vt 0.1870 0.9781
vt 0.2224 0.9431
vt 0.2161 0.9321
vt 0.2416 0.9315
vt 0.2079 0.9566
vt 0.2065 0.9487
vt 0.2150 0.9507
vt 0.2093 0.9366
vt 0.2171 0.9251
vt 0.2066 0.9254
vt 0.2149 0.9082
vt 0.2332 0.9063
vt 0.2248 0.9114
vt 0.2229 0.8940
vt 0.2069 0.8998
vt 0.1943 0.8824
vt 0.1977 0.9068
vt 0.2047 0.9129
vt 0.1891 0.9417
vt 0.1944 0.9512
vt 0.1903 0.9612
vt 0.1993 0.9576
vt 0.1809 0.9317
vt 0.1719 0.9294
vt 0.1742 0.9437
vt 0.1855 0.9231
vt 0.2040 0.9323
vt 0.1891 0.9347
vt 0.1889 0.9156
vt 0.1993 0.9432
vt 0.1342 0.9381
vt 0.1847 0.9898
vt 0.2145 0.9605
vt 0.2295 0.9718
vt 0.2192 0.9805
vt 0.2117 0.9735
vt 0.1988 0.9754
vt 0.2018 0.9883
vt 0.2359 0.9619
vt 0.2275 0.9561
vt 0.2417 0.9420
vn -0.5500 0.7728 0.3166
vn -0.7153 0.6599 0.2298
vn -0.8880 0.4508 0.0910
vn -0.7058 0.6649 -0.2444
vn -0.7941 0.6054 -0.0540
vn -0.8536 0.4746 0.2147
vn -0.9827 0.1705 -0.0724
vn -0.9342 0.3553 0.0330
vn -0.7926 0.5836 0.1768
vn -0.8269 0.2785 0.4886
vn -0.8554 0.4099 0.3168
vn -0.8269 0.5598 0.0530
vn -0.8439 0.5194 0.1345
vn 0.5946 0.6172 -0.5152
vn 0.6432 0.6333 -0.4303
vn 0.7899 0.5826 0.1916
vn 0.7703 0.6349 -0.0594
vn 0.6524 0.5387 -0.5331
vn 0.8528 -0.0699 -0.5175
vn 0.8140 0.1819 -0.5516
vn 0.5402 0.5951 -0.5950
vn 0.0790 0.3193 -0.9443
vn 0.2768 0.4521 -0.8479
vn 0.5310 0.6897 -0.4922
vn 0.0161 0.9718 -0.2353
vn 0.2331 0.9051 -0.3557
vn 0.1422 0.9800 0.1392
vn -0.0711 0.9929 0.0953
vn -0.3617 0.9319 0.0268
vn -0.1643 0.9170 -0.3636
vn -0.2262 0.9610 -0.1590
vn -0.2941 0.9458 0.1377
vn -0.6438 0.7634 -0.0519
vn -0.4687 0.8834 -0.0014
vn -0.1883 0.9797 0.0689
vn -0.3373 0.8264 0.4508
vn -0.3137 0.9152 0.2529
vn -0.2559 0.9658 -0.0420
vn -0.2762 0.9599 0.0480
vn -0.2762 0.9599 0.0481
vn -0.4767 0.1471 -0.8667
vn -0.4463 0.3581 -0.8201
vn -0.3688 0.6226 -0.6902
vn -0.7261 0.5052 -0.4664
vn -0.5725 0.5392 -0.6176
vn -0.3138 0.5436 -0.7785
vn -0.2430 0.8476 -0.4717
vn -0.3282 0.7124 -0.6203
vn -0.4203 0.4681 -0.7773
vn 0.0064 0.4895 -0.8720
vn -0.2020 0.5313 -0.8228
vn -0.4753 0.5471 -0.6890
vn -0.3962 0.5477 -0.7369
vn 0.9113 0.3780 0.1632
vn 0.8094 0.4941 0.3174
vn 0.6036 0.6160 0.5061
vn 0.5351 0.8343 0.1330
vn 0.6191 0.7249 0.3020
vn 0.6866 0.5154 0.5128
vn 0.3106 0.6841 0.6599
vn 0.5056 0.6489 0.5686
vn 0.7361 0.5485 0.3965
vn 0.6868 0.2278 0.6902
vn 0.6959 0.4182 0.5839
vn 0.6532 0.6492 0.3898
vn 0.6728 0.5848 0.4532
vn -0.3362 0.4950 0.8012
vn -0.2818 0.4331 0.8562
vn 0.1186 -0.0487 0.9917
vn -0.0432 0.1510 0.9876
vn -0.2577 0.5547 0.7911
vn 0.2843 0.7901 0.5430
vn 0.0719 0.7333 0.6761
vn -0.3874 0.5521 0.7383
vn -0.6099 0.7720 0.1789
vn -0.5489 0.7208 0.4233
vn -0.4114 0.4305 0.8034
vn -0.7756 -0.0668 0.6277
vn -0.6640 0.1385 0.7348
vn -0.9068 0.4197 -0.0393
vn -0.9894 -0.1092 0.0959
vn -0.8101 0.5828 0.0636
vn -0.9715 -0.1339 0.1954
vn -0.7283 0.2357 0.6434
vn -0.9641 0.2638 0.0302
vn -0.8851 0.1608 -0.4368
vn -0.5031 0.4001 -0.7660
vn -0.5871 0.6122 -0.5296
vn 0.1229 0.4558 -0.8815
vn -0.4577 -0.2452 -0.8546
vn -0.3969 0.5310 -0.7487
vn -0.7061 0.0031 -0.7081
vn 0.1407 0.3303 -0.9333
vn -0.2863 0.2632 -0.9213
vn 0.2310 0.6985 -0.6773
vn 0.4772 0.6694 -0.5693
vn 0.4975 0.3958 -0.7719
vn 0.4853 -0.1595 0.8597
vn 0.8179 0.5709 -0.0712
vn 0.6499 0.5185 0.5556
vn 0.4159 0.4112 0.8111
vn 0.7522 -0.2633 0.6041
vn 0.8183 -0.1046 0.5652
vn -0.0761 -0.1391 0.9873
vn -0.4049 0.4171 0.8137
vn -0.1873 0.3353 0.9233
vn -0.4184 0.4068 0.8121
vn 0.5060 0.7767 -0.3751
vn 0.8471 0.3723 -0.3791
vn 0.2621 0.6805 -0.6842
vn -0.5449 0.7754 -0.3191
vn -0.4706 0.8240 -0.3155
vn -0.4061 0.8983 -0.1679
vn -0.6910 0.7220 -0.0354
vn 0.1363 0.9200 -0.3676
vn -0.4712 0.6690 -0.5748
vn -0.0607 0.9173 0.3935
vn -0.1355 0.6422 0.7545
vn -0.3236 0.9457 0.0300
vn -0.5620 0.6876 0.4597
vn 0.2856 0.9503 0.1238
vn 0.4158 0.9053 0.0874
vn 0.4260 0.9010 0.0819
vn -0.8681 0.4812 0.1223
vn -0.8759 0.0723 0.4770
vn -0.9603 0.2723 0.0602
vn -0.9054 0.0968 0.4133
vn -0.7024 -0.2582 -0.6633
vn -0.5501 -0.1456 -0.8223
vn -0.9356 0.3319 0.1202
vn -0.6639 0.5171 -0.5402
vn 0.2140 0.1265 -0.9686
vn -0.5899 0.0656 -0.8048
vn 0.1749 0.5218 -0.8349
vn -0.1302 -0.3476 -0.9286
vn 0.6117 0.3171 -0.7247
vn -0.5321 0.6928 -0.4867
vn -0.8015 -0.0939 -0.5905
vn -0.8283 0.3445 -0.4418
vn 0.9066 0.2966 -0.3001
vn 0.0344 0.3979 -0.9168
vn 0.6175 0.7145 -0.3291
vn 0.7108 0.3098 -0.6315
vn 0.5422 0.7618 -0.3544
vn 0.5657 0.6229 -0.5403
vn 0.5896 0.1546 -0.7928
vn 0.9700 0.1641 -0.1792
vn 0.4105 0.4555 -0.7900
vn 0.9233 0.3050 0.2333
vn 0.7465 0.6418 -0.1759
vn 0.7012 -0.0780 0.7087
vn 0.6851 0.6112 0.3963
vn 0.3568 -0.0467 0.9330
vn 0.9913 0.1208 0.0517
vn 0.8938 0.1594 0.4192
vn 0.9104 0.3928 -0.1297
vn 0.2443 -0.3099 0.9189
vn 0.4516 0.8422 -0.2947
vn 0.1793 0.5302 0.8287
vn 0.5165 0.2459 0.8202
vn 0.4545 0.4254 0.7826
vn 0.7150 -0.1589 0.6808
vn -0.1544 -0.1850 0.9705
vn -0.7039 0.2341 0.6706
vn -0.3197 0.3919 0.8627
vn -0.2400 0.8407 0.4854
vn -0.3134 0.5818 0.7505
vn 0.5590 0.8001 -0.2176
vn 0.6511 0.5971 -0.4685
vn -0.1581 0.9718 -0.1750
vn -0.4762 0.8753 -0.0845
vn 0.5262 0.5980 0.6046
vn -0.0584 0.7012 -0.7105
vn -0.5478 0.6043 -0.5786
vn -0.2826 0.9581 0.0460
vn -0.0849 0.8756 0.4754
vn -0.4087 0.8187 0.4034
vn -0.5557 0.6729 0.4883
vn 0.3999 0.9129 0.0815
vn -0.0835 0.8675 0.4904
s off
f 1/1/1 2/2/1 3/3/1
f 2/2/2 1/1/2 5/4/2 6/5/2
f 6/5/3 5/4/3 4/6/3
f 7/7/4 8/8/4 9/9/4
f 8/8/5 7/7/5 10/10/5 11/11/5
f 11/11/6 10/10/6 4/6/6
f 12/12/7 13/13/7 14/14/7
f 13/13/8 12/12/8 15/15/8 16/16/8
f 16/16/9 15/15/9 4/6/9
f 17/17/10 18/18/10 19/19/10
f 18/18/11 17/17/11 20/20/11 21/21/11
f 21/21/12 20/20/12 4/6/12
f 23/22/13 24/23/13 25/24/13 26/25/13
f 22/26/13 23/22/13 26/25/13
f 28/27/14 29/28/14 30/29/14 31/30/14
f 27/31/14 28/27/14 31/30/14
f 32/32/15 33/33/15 34/34/15
f 33/33/16 32/32/16 36/35/16 37/36/16
f 37/36/17 36/35/17 35/37/17
f 38/38/18 39/39/18 40/40/18
f 39/39/19 38/38/19 41/41/19 42/42/19
f 42/42/20 41/41/20 35/37/20
f 43/43/21 44/44/21 45/45/21
f 44/44/22 43/43/22 46/46/22 47/47/22
f 47/47/23 46/46/23 35/37/23
f 48/48/24 49/49/24 50/50/24
f 49/49/25 48/48/25 51/51/25 52/52/25
f 52/52/26 51/51/26 35/37/26
f 53/53/27 54/54/27 55/55/27
f 54/54/28 53/53/28 57/56/28 58/57/28
f 58/57/29 57/56/29 56/58/29
f 59/59/30 60/60/30 61/61/30
f 60/60/31 59/59/31 62/62/31 63/63/31
f 63/63/32 62/62/32 56/58/32
f 64/64/33 65/65/33 66/66/33
f 65/65/34 64/64/34 67/67/34 68/68/34
f 68/68/35 67/67/35 56/58/35
f 69/69/36 70/70/36 71/71/36
f 70/70/37 69/69/37 72/72/37 73/73/37
f 73/73/38 72/72/38 56/58/38
f 75/74/39 76/75/39 77/76/39 78/77/39
f 74/78/40 75/74/40 78/77/40
f 79/79/41 80/80/41 81/81/41
f 80/80/42 79/79/42 83/82/42 84/83/42
f 84/83/43 83/82/43 82/84/43
f 85/85/44 86/86/44 87/87/44
f 86/86/45 85/85/45 88/88/45 89/89/45
f 89/89/46 88/88/46 82/84/46
f 90/90/47 91/91/47 92/92/47
f 91/91/48 90/90/48 93/93/48 94/94/48
f 94/94/49 93/93/49 82/84/49
f 95/95/50 96/96/50 97/97/50
f 96/96/51 95/95/51 98/98/51 99/99/51
f 99/99/52 98/98/52 82/84/52
f 101/100/53 102/101/53 103/102/53 104/103/53
f 100/104/53 101/100/53 104/103/53
f 105/105/54 106/106/54 107/107/54
f 106/106/55 105/105/55 109/108/55 110/109/55
f 110/109/56 109/108/56 108/110/56
f 111/111/57 112/112/57 113/113/57
f 112/112/58 111/111/58 114/114/58 115/115/58
f 115/115/59 114/114/59 108/110/59
f 116/116/60 117/117/60 118/118/60
f 117/117/61 116/116/61 119/119/61 120/120/61
f 120/120/62 119/119/62 108/110/62
f 121/121/63 122/122/63 123/123/63
f 122/122/64 121/121/64 124/124/64 125/125/64
f 125/125/65 124/124/65 108/110/65
f 127/126/66 128/127/66 129/128/66 130/129/66
f 126/130/66 127/126/66 130/129/66
f 132/131/67 133/132/67 134/133/67 135/134/67
f 131/135/67 132/131/67 135/134/67
f 136/136/68 137/137/68 138/138/68
f 137/137/69 136/136/69 140/139/69 141/140/69
f 141/140/70 140/139/70 139/141/70
f 142/142/71 143/143/71 144/144/71
f 143/143/72 142/142/72 145/145/72 146/146/72
f 146/146/73 145/145/73 139/141/73
f 147/147/74 148/148/74 149/149/74
f 148/148/75 147/147/75 150/150/75 151/151/75
f 151/151/76 150/150/76 139/141/76
f 152/152/77 153/153/77 154/154/77
f 153/153/78 152/152/78 155/155/78 156/156/78
f 156/156/79 155/155/79 139/141/79
f 160/157/80 163/158/80 218/159/80
f 158/160/81 164/161/81 160/157/81
f 163/158/82 208/162/82 218/159/82
f 159/163/83 164/161/83 158/160/83
f 159/163/84 217/164/84 163/158/84
f 157/165/85 166/166/85 161/167/85
f 166/166/86 165/168/86 161/167/86
f 225/169/87 219/170/87 165/168/87
f 167/171/88 215/172/88 225/169/88
f 171/173/89 177/174/89 206/175/89
f 169/176/90 170/177/90 175/178/90
f 176/179/91 178/180/91 177/174/91
f 219/170/92 178/180/92 170/177/92
f 172/181/93 179/182/93 173/183/93
f 168/184/94 171/173/94 172/181/94
f 171/173/95 181/185/95 179/182/95
f 179/182/96 181/185/96 180/186/96
f 206/175/97 181/185/97 171/173/97
f 193/187/98 226/188/98 196/189/98
f 186/190/99 222/191/99 192/192/99
f 223/193/100 226/188/100 193/187/100
f 200/194/101 224/195/101 197/196/101
f 195/197/102 196/189/102 199/198/102
f 196/189/103 200/194/103 199/198/103
f 194/199/104 201/200/104 202/201/104
f 201/200/105 203/202/105 202/201/105
f 198/203/106 201/200/106 197/196/106
f 198/203/107 203/202/107 201/200/107
f 205/204/108 212/205/108 206/175/108
f 212/205/109 220/206/109 181/185/109
f 212/205/110 221/207/110 220/206/110
f 207/208/111 214/209/111 208/162/111
f 214/209/112 218/159/112 208/162/112
f 213/210/113 215/172/113 207/208/113
f 207/208/114 215/172/114 214/209/114
f 206/175/115 213/210/115 205/204/115
f 213/210/116 177/174/116 215/172/116
f 216/211/117 209/212/117 204/213/117
f 210/214/118 203/202/118 224/195/118
f 208/162/119 216/211/119 207/208/119
f 208/162/120 163/158/120 210/214/120
f 204/213/121 209/212/121 205/204/121
f 223/193/122 222/191/122 211/215/122
f 209/212/123 223/193/123 211/215/123
f 167/171/124 166/166/124 160/157/124 218/159/124
f 158/160/125 160/157/125 157/165/125
f 160/157/126 164/161/126 163/158/126
f 164/161/127 159/163/127 163/158/127
f 161/167/128 165/168/128 162/216/128
f 162/216/129 165/168/129 219/170/129
f 157/165/130 160/157/130 166/166/130
f 225/169/131 165/168/131 166/166/131 167/171/131
f 176/179/132 171/173/132 168/184/132 175/178/132
f 178/180/133 176/179/133 175/178/133 170/177/133
f 171/173/134 176/179/134 177/174/134
f 168/184/135 169/176/135 175/178/135
f 174/217/136 173/183/136 179/182/136 180/186/136
f 178/180/137 225/169/137 177/174/137
f 170/177/138 162/216/138 219/170/138
f 219/170/139 225/169/139 178/180/139
f 185/218/140 182/219/140 183/220/140 189/221/140
f 172/181/141 171/173/141 179/182/141
f 181/185/142 220/206/142 180/186/142
f 186/190/143 185/218/143 190/222/143 221/207/143
f 186/190/144 221/207/144 222/191/144
f 189/221/145 190/222/145 185/218/145
f 189/221/146 183/220/146 184/223/146 190/222/146
f 180/186/147 190/222/147 184/223/147 174/217/147
f 190/222/148 220/206/148 221/207/148
f 187/224/149 182/219/149 185/218/149 191/225/149
f 190/222/150 180/186/150 220/206/150
f 188/226/151 187/224/151 191/225/151 193/187/151
f 193/187/152 192/192/152 222/191/152 223/193/152
f 188/226/153 193/187/153 196/189/153
f 185/218/154 192/192/154 191/225/154
f 191/225/155 192/192/155 193/187/155
f 185/218/156 186/190/156 192/192/156
f 197/196/157 194/199/157 195/197/157 199/198/157
f 221/207/158 212/205/158 211/215/158 222/191/158
f 197/196/159 224/195/159 198/203/159
f 199/198/160 200/194/160 197/196/160
f 200/194/161 226/188/161 224/195/161
f 196/189/162 226/188/162 200/194/162
f 194/199/163 197/196/163 201/200/163
f 202/201/164 217/164/164 159/163/164
f 202/201/165 203/202/165 217/164/165
f 224/195/166 203/202/166 198/203/166
f 203/202/167 210/214/167 217/164/167
f 205/204/168 211/215/168 212/205/168
f 206/175/169 212/205/169 181/185/169
f 213/210/170 207/208/170 204/213/170 205/204/170
f 218/159/171 214/209/171 215/172/171 167/171/171
f 226/188/172 223/193/172 209/212/172 224/195/172
f 206/175/173 177/174/173 213/210/173
f 215/172/174 177/174/174 225/169/174
f 207/208/175 216/211/175 204/213/175
f 209/212/176 216/211/176 210/214/176
f 216/211/177 208/162/177 210/214/177
f 210/214/178 163/158/178 217/164/178
f 205/204/179 209/212/179 211/215/179
f 210/214/180 224/195/180 209/212/180
