# Blender v2.78 (sub 0) OBJ File: 'Low_Poly_Vegetation_Pack.blend'
# www.blender.org
g FlowerBush_b_m_02
v 0.783164 0.561284 -0.341385
v 0.811926 0.676572 -0.273903
v 0.752385 0.601111 -0.381769
v 0.778125 0.704284 -0.321379
v 0.817471 0.590867 -0.268197
v 0.708216 0.690761 -0.392293
v 0.790693 0.775864 -0.287756
v 0.721893 0.847818 -0.381359
v 0.773580 0.725538 -0.324345
v 0.712009 0.789930 -0.408112
v 0.761033 0.854800 -0.305018
v 0.708216 0.690762 -0.392294
v 0.670156 0.824836 -0.466781
v 0.641394 0.709549 -0.534263
v 0.700935 0.785010 -0.426396
v 0.675195 0.681837 -0.486787
v 0.623510 0.793715 -0.532082
v 0.708215 0.690761 -0.392294
v 0.662627 0.610256 -0.520410
v 0.731427 0.538303 -0.426807
v 0.679741 0.660583 -0.483821
v 0.741311 0.596191 -0.400054
v 0.679948 0.529782 -0.495261
v 0.708216 0.690760 -0.392293
v 0.743008 0.667640 -0.367621
v 0.717471 0.647206 -0.411558
v 0.694805 0.688917 -0.438883
v 0.706334 0.735129 -0.411833
v 0.736125 0.721979 -0.367791
v 0.517103 0.417474 0.580928
v 0.540790 0.551981 0.585275
v 0.558229 0.419131 0.531226
v 0.579427 0.539504 0.535116
v 0.491092 0.490239 0.618840
v 0.599688 0.476257 0.459696
v 0.598415 0.617196 0.531162
v 0.683391 0.605669 0.424775
v 0.591762 0.553463 0.523533
v 0.667810 0.543148 0.428324
v 0.644265 0.663591 0.475003
v 0.599689 0.476257 0.459695
v 0.715892 0.528227 0.366053
v 0.692205 0.393720 0.361707
v 0.674766 0.526570 0.415755
v 0.653568 0.406197 0.411865
v 0.730657 0.457741 0.318913
v 0.599688 0.476256 0.459695
v 0.634580 0.328505 0.415819
v 0.549604 0.340032 0.522207
v 0.641233 0.392238 0.423449
v 0.565186 0.402554 0.518657
v 0.577485 0.284389 0.462750
v 0.599688 0.476256 0.459696
v 0.581041 0.478094 0.504447
v 0.593381 0.431760 0.477972
v 0.628710 0.444026 0.437953
v 0.638205 0.497942 0.439695
v 0.608744 0.518998 0.480791
v -0.380030 0.766328 0.669961
v -0.282770 0.771311 0.765815
v -0.377559 0.702347 0.681015
v -0.290520 0.706806 0.766797
v -0.320901 0.818185 0.704669
v -0.314045 0.620720 0.707978
v -0.239883 0.703106 0.829144
v -0.256947 0.569715 0.853393
v -0.279356 0.691600 0.778370
v -0.293754 0.571959 0.799199
v -0.207576 0.637095 0.873682
v -0.314045 0.620718 0.707978
v -0.317187 0.496219 0.815035
v -0.414446 0.491236 0.719181
v -0.305843 0.555982 0.790183
v -0.392883 0.551522 0.704402
v -0.368580 0.442000 0.772602
v -0.314046 0.620718 0.707977
v -0.457359 0.559449 0.655877
v -0.440295 0.692840 0.631628
v -0.402873 0.566370 0.691656
v -0.388476 0.686011 0.670828
v -0.481769 0.623049 0.603452
v -0.314046 0.620720 0.707977
v -0.342069 0.658462 0.697930
v -0.358278 0.609526 0.696663
v -0.331394 0.582922 0.731714
v -0.298569 0.615415 0.754644
v -0.305166 0.662102 0.733764
v 0.190070 1.343545 0.305960
v 0.082106 1.313016 0.383960
v 0.145096 1.361782 0.263425
v 0.048477 1.334461 0.333229
v 0.167746 1.305440 0.379840
v 0.049501 1.351492 0.234195
v -0.019554 1.319246 0.372631
v -0.103293 1.361522 0.273269
v 0.026717 1.335795 0.330803
v -0.048223 1.373629 0.241883
v -0.102478 1.322000 0.349728
v 0.049500 1.351493 0.234193
v -0.090446 1.400130 0.179215
v 0.017518 1.430659 0.101215
v -0.045472 1.381893 0.221750
v 0.051147 1.409214 0.151946
v -0.068330 1.424624 0.099720
v 0.049501 1.351493 0.234193
v 0.119178 1.424429 0.112544
v 0.202917 1.382153 0.211905
v 0.072907 1.407880 0.154372
v 0.147847 1.370046 0.243292
v 0.201894 1.408065 0.129832
v 0.049502 1.351492 0.234194
v 0.078245 1.349578 0.273231
v 0.093527 1.369439 0.224526
v 0.048230 1.381774 0.196309
v 0.004954 1.369536 0.227574
v 0.023504 1.349638 0.275115
v -0.002478 0.477953 -0.812925
v -0.045510 0.603223 -0.846509
v -0.063728 0.470172 -0.792680
v -0.102238 0.582278 -0.822736
v 0.025478 0.555866 -0.836119
v -0.148513 0.519213 -0.749897
v -0.136209 0.650920 -0.847216
v -0.264358 0.615297 -0.815890
v -0.121226 0.593358 -0.820186
v -0.235721 0.561861 -0.790964
v -0.215757 0.682355 -0.838918
v -0.148514 0.519213 -0.749897
v -0.309411 0.530146 -0.780942
v -0.266379 0.404876 -0.747358
v -0.245191 0.543988 -0.782386
v -0.206681 0.431881 -0.752331
v -0.335704 0.455626 -0.747221
v -0.148514 0.519212 -0.749896
v -0.175685 0.357168 -0.746686
v -0.047536 0.392790 -0.778012
v -0.187440 0.421316 -0.753284
v -0.072945 0.452812 -0.782507
v -0.094440 0.329197 -0.744237
v -0.148512 0.519212 -0.749896
v -0.110500 0.498678 -0.770969
v -0.152491 0.472770 -0.755983
v -0.192983 0.504470 -0.759805
v -0.176016 0.549971 -0.777154
v -0.125039 0.546391 -0.784053
v -0.639088 0.943816 -0.368351
v -0.598814 1.044138 -0.284770
v -0.674440 0.925482 -0.317572
v -0.638398 1.015262 -0.242774
v -0.583102 1.008853 -0.361690
v -0.684560 0.929600 -0.217675
v -0.619793 1.070666 -0.188034
v -0.699628 1.020371 -0.089196
v -0.642890 1.020940 -0.222067
v -0.714335 0.975930 -0.133615
v -0.638868 1.079370 -0.104553
v -0.684561 0.929600 -0.217673
v -0.763321 0.940499 -0.081105
v -0.803595 0.840177 -0.164686
v -0.727969 0.958833 -0.131884
v -0.764011 0.869053 -0.206682
v -0.808172 0.867060 -0.083047
v -0.684561 0.929599 -0.217674
v -0.782615 0.813649 -0.261422
v -0.702781 0.863944 -0.360260
v -0.759519 0.863375 -0.227389
v -0.688074 0.908385 -0.315841
v -0.752407 0.796543 -0.340184
v -0.684560 0.929599 -0.217675
v -0.667565 0.954465 -0.255710
v -0.699435 0.910082 -0.259527
v -0.724882 0.903334 -0.211494
v -0.708738 0.943548 -0.177992
v -0.673315 0.975148 -0.205318
v 0.786049 0.813675 -0.276794
v 0.689330 0.352798 -0.464571
v 0.691481 1.156590 -0.036127
v 0.794744 0.653586 -0.010578
v 0.839414 0.319302 -0.109798
v 0.556171 0.055497 -0.214867
v 0.338818 0.503002 -0.728801
v 0.425103 0.130908 -0.551244
v 0.447741 1.183217 -0.259799
v 0.610637 0.804744 -0.516764
v 0.513612 0.637182 -0.605563
v 0.762041 0.532203 0.267559
v 0.323423 0.640297 0.795404
v 0.000569 1.006956 0.671292
v 0.104821 0.550822 0.888737
v 0.317921 0.109940 0.561430
v 0.400914 0.366540 0.704530
v 0.577285 0.216517 0.408225
v -0.200752 0.889279 0.752480
v -0.166109 0.975491 0.570979
v 0.060795 0.298851 0.809830
v -0.023877 0.003161 0.607097
v -0.561939 0.550142 0.614658
v -0.874747 0.492863 -0.312655
v -0.621493 0.394841 0.353807
v -0.664045 0.107481 0.184256
v -0.477719 0.155122 0.595215
v -0.287500 0.465962 0.796427
v -0.591741 0.834298 0.412898
v -0.820482 0.741615 -0.203045
v -0.810304 0.901115 0.051855
v -0.820283 0.346102 0.018370
v -0.358469 0.646438 -0.769516
v -0.565989 0.367979 -0.591311
v -0.118264 1.151908 -0.739785
v 0.098260 0.723628 -0.860350
v -0.092115 0.261455 -0.697125
v -0.427107 0.994265 -0.657460
v -0.644091 0.894591 -0.424125
v 0.156082 0.391836 -0.694285
v -0.049864 -0.201606 0.267871
v -0.425680 -0.102491 0.165506
v -0.246435 -0.046164 -0.364965
v 0.370572 -0.065505 0.108124
v 0.656012 0.140924 0.122301
v -0.274798 -0.052079 0.534959
v -0.591792 0.048499 -0.301291
v 0.190291 -0.068960 -0.301841
v 0.093152 1.358633 -0.213527
v -0.076433 1.391265 0.143974
v 0.115705 1.242066 0.523235
v -0.384753 1.183354 0.287865
v 0.319140 1.419262 0.062266
v 0.271943 1.339738 0.386773
v 0.545657 1.229156 0.376527
v -0.208581 1.290413 -0.176704
v 0.700405 0.880286 0.398788
v 0.391993 1.077908 0.532198
v -0.450370 1.200721 -0.008852
v -0.682660 0.207509 -0.345388
v 0.224101 0.192721 -0.608392
v 0.279300 1.144794 -0.625743
v -0.423890 1.206836 -0.333492
v -0.283222 1.066461 0.522576
vt 0.4387 0.2661
vt 0.4694 0.3046
vt 0.4081 0.3046
vt 0.4730 0.3367
vt 0.4045 0.3367
vt 0.4387 0.3627
vt 0.4387 0.2661
vt 0.4694 0.3046
vt 0.4081 0.3046
vt 0.4730 0.3367
vt 0.4045 0.3367
vt 0.4387 0.3627
vt 0.4387 0.2661
vt 0.4694 0.3046
vt 0.4081 0.3046
vt 0.4730 0.3367
vt 0.4045 0.3367
vt 0.4387 0.3627
vt 0.4387 0.2661
vt 0.4694 0.3046
vt 0.4081 0.3046
vt 0.4730 0.3367
vt 0.4045 0.3367
vt 0.4387 0.3627
vt 0.5163 0.3262
vt 0.5342 0.2712
vt 0.5920 0.2712
vt 0.6099 0.3262
vt 0.5631 0.3602
vt 0.4387 0.2661
vt 0.4694 0.3046
vt 0.4081 0.3046
vt 0.4730 0.3367
vt 0.4045 0.3367
vt 0.4387 0.3627
vt 0.4387 0.2661
vt 0.4694 0.3046
vt 0.4081 0.3046
vt 0.4730 0.3367
vt 0.4045 0.3367
vt 0.4387 0.3627
vt 0.4387 0.2661
vt 0.4694 0.3046
vt 0.4081 0.3046
vt 0.4730 0.3367
vt 0.4045 0.3367
vt 0.4387 0.3627
vt 0.4387 0.2661
vt 0.4694 0.3046
vt 0.4081 0.3046
vt 0.4730 0.3367
vt 0.4045 0.3367
vt 0.4387 0.3627
vt 0.5163 0.3262
vt 0.5342 0.2712
vt 0.5920 0.2712
vt 0.6099 0.3262
vt 0.5631 0.3602
vt 0.3123 0.2584
vt 0.3451 0.2995
vt 0.2795 0.2995
vt 0.3489 0.3339
vt 0.2757 0.3339
vt 0.3123 0.3617
vt 0.3123 0.2584
vt 0.3451 0.2995
vt 0.2795 0.2995
vt 0.3489 0.3339
vt 0.2757 0.3339
vt 0.3123 0.3617
vt 0.3123 0.2584
vt 0.3451 0.2995
vt 0.2795 0.2995
vt 0.3489 0.3339
vt 0.2757 0.3339
vt 0.3123 0.3617
vt 0.3123 0.2584
vt 0.3451 0.2995
vt 0.2795 0.2995
vt 0.3489 0.3339
vt 0.2757 0.3339
vt 0.3123 0.3617
vt 0.5175 0.3245
vt 0.5349 0.2709
vt 0.5912 0.2709
vt 0.6087 0.3245
vt 0.5631 0.3576
vt 0.4387 0.2661
vt 0.4694 0.3046
vt 0.4081 0.3046
vt 0.4730 0.3367
vt 0.4045 0.3367
vt 0.4387 0.3627
vt 0.4387 0.2661
vt 0.4694 0.3046
vt 0.4081 0.3046
vt 0.4730 0.3367
vt 0.4045 0.3367
vt 0.4387 0.3627
vt 0.4387 0.2661
vt 0.4694 0.3046
vt 0.4081 0.3046
vt 0.4730 0.3367
vt 0.4045 0.3367
vt 0.4387 0.3627
vt 0.4387 0.2661
vt 0.4694 0.3046
vt 0.4081 0.3046
vt 0.4730 0.3367
vt 0.4045 0.3367
vt 0.4387 0.3627
vt 0.5163 0.3262
vt 0.5342 0.2712
vt 0.5920 0.2712
vt 0.6099 0.3262
vt 0.5631 0.3602
vt 0.3123 0.2584
vt 0.3451 0.2995
vt 0.2795 0.2995
vt 0.3489 0.3339
vt 0.2757 0.3339
vt 0.3123 0.3617
vt 0.3123 0.2584
vt 0.3451 0.2995
vt 0.2795 0.2995
vt 0.3489 0.3339
vt 0.2757 0.3339
vt 0.3123 0.3617
vt 0.3123 0.2584
vt 0.3451 0.2995
vt 0.2795 0.2995
vt 0.3489 0.3339
vt 0.2757 0.3339
vt 0.3123 0.3617
vt 0.3123 0.2584
vt 0.3451 0.2995
vt 0.2795 0.2995
vt 0.3489 0.3339
vt 0.2757 0.3339
vt 0.3123 0.3617
vt 0.5175 0.3245
vt 0.5349 0.2709
vt 0.5912 0.2709
vt 0.6087 0.3245
vt 0.5631 0.3576
vt 0.4387 0.2661
vt 0.4694 0.3046
vt 0.4081 0.3046
vt 0.4730 0.3367
vt 0.4045 0.3367
vt 0.4387 0.3627
vt 0.4387 0.2661
vt 0.4694 0.3046
vt 0.4081 0.3046
vt 0.4730 0.3367
vt 0.4045 0.3367
vt 0.4387 0.3627
vt 0.4387 0.2661
vt 0.4694 0.3046
vt 0.4081 0.3046
vt 0.4730 0.3367
vt 0.4045 0.3367
vt 0.4387 0.3627
vt 0.4387 0.2661
vt 0.4694 0.3046
vt 0.4081 0.3046
vt 0.4730 0.3367
vt 0.4045 0.3367
vt 0.4387 0.3627
vt 0.5163 0.3262
vt 0.5342 0.2712
vt 0.5920 0.2712
vt 0.6099 0.3262
vt 0.5631 0.3602
vt 0.4205 0.9769
vt 0.4295 0.9752
vt 0.4266 0.9841
vt 0.4343 0.9812
vt 0.4375 0.9920
vt 0.4215 0.8958
vt 0.4315 0.9020
vt 0.4257 0.9047
vt 0.4310 0.8851
vt 0.4285 0.8908
vt 0.4209 0.8878
vt 0.4135 0.9007
vt 0.4184 0.9130
vt 0.4142 0.9084
vt 0.4261 0.9126
vt 0.4120 0.9772
vt 0.4165 0.9854
vt 0.4141 0.9678
vt 0.4242 0.9699
vt 0.4185 0.9493
vt 0.4209 0.9539
vt 0.4118 0.9571
vt 0.4269 0.9578
vt 0.4220 0.9638
vt 0.4318 0.9248
vt 0.4258 0.9186
vt 0.4322 0.9194
vt 0.4183 0.9274
vt 0.4306 0.9147
vt 0.4211 0.9331
vt 0.4349 0.9301
vt 0.4368 0.9426
vt 0.4492 0.9277
vt 0.4399 0.9243
vt 0.4307 0.9496
vt 0.4247 0.9448
vt 0.4396 0.9551
vt 0.4338 0.9554
vt 0.4423 0.9512
vt 0.4600 0.9481
vt 0.4505 0.9504
vt 0.4474 0.9430
vt 0.4494 0.9576
vt 0.4433 0.9192
vt 0.4561 0.9200
vt 0.4619 0.9160
vt 0.4657 0.9035
vt 0.4664 0.9135
vt 0.4470 0.9141
vt 0.4493 0.9076
vt 0.4574 0.9069
vt 0.4571 0.9581
vt 0.4654 0.9583
vt 0.4633 0.9530
vt 0.4629 0.9652
vt 0.4515 0.9675
vt 0.4579 0.9739
vt 0.4554 0.9678
vt 0.4479 0.9817
vt 0.4456 0.9717
vt 0.4582 0.8917
vt 0.4533 0.9007
vt 0.4460 0.8983
vt 0.4456 0.8873
vt 0.4386 0.8966
vt 0.4483 0.9932
vt 0.4583 0.9850
vt 0.4433 0.9869
vt 0.4314 0.9673
vt 0.4371 0.9620
vt 0.4441 0.9609
vt 0.4369 0.9731
vt 0.4387 0.9139
vt 0.4331 0.9092
vt 0.4382 0.9057
vt 0.4437 0.9095
vt 0.4295 0.9917
vt 0.4396 0.9813
vt 0.4367 0.9265
vt 0.4500 0.9359
vt 0.4385 0.8823
vn 0.6665 0.2457 -0.7039
vn 0.8380 0.1045 -0.5356
vn 0.9005 0.0294 -0.4340
vn 0.7473 -0.1324 -0.6511
vn 0.8592 0.2221 -0.4608
vn 0.9444 -0.0449 -0.3258
vn 0.7588 0.1775 -0.6266
vn 0.8635 0.3333 -0.3785
vn 0.8000 -0.0152 -0.5998
vn 0.9057 -0.1720 0.3875
vn 0.7637 -0.1547 0.6268
vn 0.6686 -0.1413 0.7300
vn 0.6862 -0.4204 0.5936
vn 0.7805 -0.0148 0.6250
vn 0.5624 -0.1255 0.8173
vn 0.8436 -0.1651 0.5110
vn 0.7819 0.1229 0.6112
vn 0.7317 -0.2916 0.6161
vn -0.6644 -0.2893 0.6891
vn -0.7012 0.0950 0.7066
vn -0.6730 0.3215 0.6661
vn -0.9404 0.1649 0.2974
vn -0.8009 0.2001 0.5644
vn -0.6091 0.2166 0.7629
vn -0.5675 0.6184 0.5436
vn -0.6557 0.3926 0.6449
vn -0.7004 0.1123 0.7048
vn -0.2931 0.1981 0.9353
vn -0.5634 0.2123 0.7985
vn -0.7650 0.2086 0.6093
vn -0.6916 0.2112 0.6907
vn -0.1555 0.9738 0.1659
vn 0.0141 0.9243 0.3814
vn 0.1002 0.8716 0.4798
vn 0.2317 0.9501 0.2090
vn -0.0971 0.8837 0.4578
vn 0.1827 0.8030 0.5672
vn -0.0722 0.9586 0.2753
vn -0.2045 0.8268 0.5241
vn 0.1251 0.9466 0.2973
vn -0.5849 -0.3914 -0.7104
vn -0.2578 -0.3318 -0.9074
vn -0.0405 -0.2717 -0.9615
vn 0.0045 -0.6889 -0.7249
vn -0.0960 -0.4527 -0.8865
vn -0.1797 -0.2005 -0.9631
vn 0.2778 -0.1586 -0.9475
vn 0.0318 -0.2486 -0.9681
vn -0.2419 -0.3279 -0.9132
vn -0.2819 0.1449 -0.9484
vn -0.2011 -0.1467 -0.9685
vn -0.1107 -0.4012 -0.9093
vn -0.1487 -0.3034 -0.9412
vn -0.8880 0.4468 -0.1084
vn -0.7562 0.5705 -0.3205
vn -0.6665 0.6166 -0.4190
vn -0.8081 0.3458 -0.4768
vn -0.7072 0.6681 -0.2312
vn -0.5656 0.6500 -0.5076
vn -0.8308 0.5131 -0.2155
vn -0.6455 0.7510 -0.1392
vn -0.7901 0.4616 -0.4033
vn 0.7042 -0.6143 -0.3559
vn 0.5006 -0.2755 -0.8207
vn 0.5899 0.5665 -0.5754
vn 0.6505 0.0256 -0.7591
vn 0.6336 0.6024 -0.4855
vn 0.9801 0.1117 0.1640
vn 0.8816 0.4064 0.2401
vn 0.9919 0.1206 0.0401
vn 0.9844 0.0860 0.1533
vn 0.6851 -0.7282 -0.0183
vn 0.7306 -0.0197 0.6825
vn -0.3227 -0.3792 0.8672
vn 0.7912 -0.2066 0.5756
vn 0.2304 0.4353 0.8703
vn 0.5559 0.3627 0.7479
vn 0.5287 0.2855 0.7993
vn 0.2543 0.5561 0.7913
vn -0.2574 0.1518 0.9543
vn 0.1224 0.4132 0.9024
vn -0.6578 0.2099 0.7234
vn -0.6030 0.5125 0.6113
vn 0.5027 -0.3533 0.7890
vn -0.1653 -0.2683 0.9490
vn -0.1216 -0.5374 0.8345
vn -0.1957 -0.4457 0.8735
vn -0.9790 0.0394 0.2001
vn -0.9177 -0.2122 0.3358
vn -0.5791 -0.1628 0.7989
vn -0.6124 -0.7042 0.3593
vn -0.6539 0.5671 0.5008
vn -0.6186 0.5631 0.5480
vn -0.4980 0.4383 -0.7482
vn -0.6111 0.7707 0.1803
vn -0.7484 0.6060 -0.2696
vn -0.8596 -0.0105 0.5109
vn -0.9994 0.0162 0.0298
vn -0.9701 0.1182 0.2120
vn -0.8184 -0.5722 -0.0523
vn -0.6978 -0.4017 -0.5931
vn -0.3013 -0.6257 -0.7195
vn -0.5969 -0.5123 -0.6175
vn -0.3555 0.2223 -0.9079
vn -0.7448 0.0669 -0.6640
vn -0.2186 0.1605 -0.9625
vn 0.5380 0.1299 -0.8329
vn 0.5148 0.2376 -0.8238
vn -0.1422 -0.2770 -0.9503
vn 0.2229 -0.4050 -0.8867
vn 0.0937 -0.4325 -0.8968
vn 0.5847 -0.8106 0.0323
vn -0.3103 -0.9167 0.2518
vn -0.6050 -0.7176 0.3450
vn 0.0408 -0.8568 0.5141
vn -0.2071 -0.9630 -0.1722
vn -0.6613 -0.7501 -0.0073
vn 0.3495 -0.9255 -0.1459
vn 0.3742 -0.8630 -0.3393
vn 0.0088 0.9321 0.3622
vn -0.3515 0.7968 0.4915
vn -0.0980 0.9858 -0.1364
vn 0.4549 0.7951 -0.4011
vn 0.3119 0.5666 0.7627
vn -0.2392 0.9501 -0.2002
vn 0.1333 0.9031 -0.4083
vn 0.3442 0.8175 -0.4617
vn 0.3973 0.8756 -0.2748
vn -0.5670 0.8233 -0.0253
vn -0.2734 0.9548 0.1164
vn -0.2379 0.9541 -0.1819
vn -0.3547 0.9349 -0.0113
vn 0.9193 -0.0332 -0.3921
vn 0.5926 -0.0328 -0.8048
vn 0.6628 -0.6329 -0.4001
vn 0.1342 -0.4012 -0.9061
vn 0.8040 0.0718 -0.5903
vn 0.7187 0.5749 -0.3912
vn 0.9746 0.2047 0.0913
vn 0.9725 0.2052 0.1104
vn 0.8458 -0.3714 0.3830
vn 0.8706 -0.3603 0.3350
vn 0.7844 -0.0923 0.6133
vn 0.5820 -0.5315 0.6155
vn 0.2158 0.4782 0.8513
vn 0.1637 0.4920 0.8551
vn -0.3683 0.8651 0.3406
vn 0.4223 0.7849 0.4534
vn -0.4862 0.6236 0.6122
vn 0.4831 -0.3374 0.8080
vn 0.2865 -0.5962 0.7500
vn -0.2451 -0.4416 0.8631
vn -0.8996 -0.1153 0.4212
vn -0.3577 0.5154 0.7787
vn -0.8026 0.0691 -0.5925
vn -0.8078 0.5136 -0.2891
vn -0.6431 0.7649 -0.0381
vn -0.8566 -0.0157 0.5157
vn -0.8337 -0.1838 0.5208
vn -0.8305 -0.5469 -0.1058
vn -0.8466 -0.5179 -0.1230
vn -0.2798 -0.3609 -0.8897
vn -0.3041 -0.6267 -0.7175
vn -0.4973 0.7276 -0.4725
vn -0.7268 0.1076 -0.6783
vn -0.6958 0.6037 -0.3892
vn 0.5332 0.0791 -0.8423
vn 0.2612 0.3816 -0.8866
vn 0.0278 -0.7398 -0.6722
vn 0.1864 -0.3348 -0.9237
vn 0.0562 -0.3792 -0.9236
vn 0.2681 -0.9571 -0.1098
vn 0.4104 -0.8334 0.3702
vn 0.5283 -0.7694 0.3591
vn 0.5373 -0.7670 0.3507
vn 0.3197 -0.8218 0.4716
vn -0.0170 -0.9722 -0.2335
vn -0.2929 -0.9353 -0.1983
vn 0.0534 -0.7624 -0.6449
vn -0.0476 -0.7571 -0.6515
vn -0.1412 0.3172 0.9378
vn -0.2937 0.7989 0.5249
vn -0.4207 0.8934 0.1577
vn 0.3692 0.8888 0.2715
vn 0.5867 0.8072 0.0654
vn -0.2089 0.9359 -0.2837
s off
f 6/1/1 4/2/1 3/3/1
f 4/2/2 2/4/2 1/5/2 3/3/2
f 5/6/3 1/5/3 2/4/3
f 12/7/4 10/8/4 9/9/4
f 10/8/2 8/10/2 7/11/2 9/9/2
f 11/12/5 7/11/5 8/10/5
f 18/13/6 16/14/6 15/15/6
f 16/14/2 14/16/2 13/17/2 15/15/2
f 17/18/7 13/17/7 14/16/7
f 24/19/8 22/20/8 21/21/8
f 22/20/2 20/22/2 19/23/2 21/21/2
f 23/24/9 19/23/9 20/22/9
f 26/25/2 27/26/2 28/27/2 29/28/2
f 25/29/2 26/25/2 29/28/2
f 35/30/10 33/31/10 32/32/10
f 33/31/11 31/33/11 30/34/11 32/32/11
f 34/35/12 30/34/12 31/33/12
f 41/36/13 39/37/13 38/38/13
f 39/37/11 37/39/11 36/40/11 38/38/11
f 40/41/14 36/40/14 37/39/14
f 47/42/15 45/43/15 44/44/15
f 45/43/11 43/45/11 42/46/11 44/44/11
f 46/47/16 42/46/16 43/45/16
f 53/48/17 51/49/17 50/50/17
f 51/49/11 49/51/11 48/52/11 50/50/11
f 52/53/18 48/52/18 49/51/18
f 55/54/11 56/55/11 57/56/11 58/57/11
f 54/58/11 55/54/11 58/57/11
f 64/59/19 62/60/19 61/61/19
f 62/60/20 60/62/20 59/63/20 61/61/20
f 63/64/21 59/63/21 60/62/21
f 70/65/22 68/66/22 67/67/22
f 68/66/23 66/68/23 65/69/23 67/67/23
f 69/70/24 65/69/24 66/68/24
f 76/71/25 74/72/25 73/73/25
f 74/72/26 72/74/26 71/75/26 73/73/26
f 75/76/27 71/75/27 72/74/27
f 82/77/28 80/78/28 79/79/28
f 80/78/29 78/80/29 77/81/29 79/79/29
f 81/82/30 77/81/30 78/80/30
f 84/83/31 85/84/31 86/85/31 87/86/31
f 83/87/31 84/83/31 87/86/31
f 93/88/32 91/89/32 90/90/32
f 91/89/33 89/91/33 88/92/33 90/90/33
f 92/93/34 88/92/34 89/91/34
f 99/94/35 97/95/35 96/96/35
f 97/95/33 95/97/33 94/98/33 96/96/33
f 98/99/36 94/98/36 95/97/36
f 105/100/37 103/101/37 102/102/37
f 103/101/33 101/103/33 100/104/33 102/102/33
f 104/105/38 100/104/38 101/103/38
f 111/106/39 109/107/39 108/108/39
f 109/107/33 107/109/33 106/110/33 108/108/33
f 110/111/40 106/110/40 107/109/40
f 113/112/33 114/113/33 115/114/33 116/115/33
f 112/116/33 113/112/33 116/115/33
f 122/117/41 120/118/41 119/119/41
f 120/118/42 118/120/42 117/121/42 119/119/42
f 121/122/43 117/121/43 118/120/43
f 128/123/44 126/124/44 125/125/44
f 126/124/45 124/126/45 123/127/45 125/125/45
f 127/128/46 123/127/46 124/126/46
f 134/129/47 132/130/47 131/131/47
f 132/130/48 130/132/48 129/133/48 131/131/48
f 133/134/49 129/133/49 130/132/49
f 140/135/50 138/136/50 137/137/50
f 138/136/51 136/138/51 135/139/51 137/137/51
f 139/140/52 135/139/52 136/138/52
f 142/141/53 143/142/53 144/143/53 145/144/53
f 141/145/53 142/141/53 145/144/53
f 151/146/54 149/147/54 148/148/54
f 149/147/55 147/149/55 146/150/55 148/148/55
f 150/151/56 146/150/56 147/149/56
f 157/152/57 155/153/57 154/154/57
f 155/153/55 153/155/55 152/156/55 154/154/55
f 156/157/58 152/156/58 153/155/58
f 163/158/59 161/159/59 160/160/59
f 161/159/55 159/161/55 158/162/55 160/160/55
f 162/163/60 158/162/60 159/161/60
f 169/164/61 167/165/61 166/166/61
f 167/165/55 165/167/55 164/168/55 166/166/55
f 168/169/62 164/168/62 165/167/62
f 171/170/55 172/171/55 173/172/55 174/173/55
f 170/174/55 171/170/55 174/173/55
f 179/175/63 180/176/63 176/177/63
f 176/177/64 182/178/64 181/179/64
f 175/180/65 183/181/65 177/182/65
f 185/183/66 184/184/66 176/185/66
f 175/180/67 184/184/67 183/181/67
f 178/186/68 231/187/68 186/188/68
f 177/182/69 229/189/69 231/187/69
f 178/190/70 179/175/70 175/191/70
f 178/190/71 186/192/71 179/175/71
f 179/175/72 219/193/72 180/176/72
f 187/194/73 191/195/73 231/196/73
f 190/197/74 191/195/74 187/194/74
f 191/195/75 192/198/75 186/192/75
f 188/199/76 232/200/76 225/201/76
f 187/202/77 231/187/77 232/200/77
f 231/187/78 229/189/78 232/200/78
f 232/200/79 229/189/79 228/203/79
f 189/204/80 193/205/80 202/206/80
f 187/202/81 188/199/81 193/205/81
f 193/205/82 203/207/82 202/206/82
f 193/205/83 238/208/83 203/207/83
f 187/194/84 195/209/84 190/197/84
f 202/206/85 195/209/85 189/210/85
f 195/209/86 220/211/86 196/212/86
f 202/206/87 201/213/87 220/211/87
f 203/214/88 199/215/88 197/216/88
f 199/215/89 201/213/89 197/216/89
f 197/216/90 201/213/90 202/206/90
f 200/217/91 220/211/91 201/213/91
f 203/207/92 226/218/92 205/219/92
f 203/207/93 238/208/93 226/218/93
f 204/220/94 208/221/94 198/222/94
f 226/218/95 233/223/95 205/219/95
f 205/219/96 237/224/96 213/225/96
f 203/214/97 206/226/97 199/215/97
f 204/227/98 206/226/98 205/228/98
f 198/229/99 206/226/99 204/227/99
f 206/226/100 221/230/100 200/217/100
f 208/231/101 234/232/101 198/229/101
f 211/233/102 217/234/102 208/231/102
f 208/231/103 221/230/103 234/232/103
f 207/235/104 212/236/104 209/237/104
f 207/235/105 213/225/105 212/236/105
f 207/235/106 209/237/106 210/238/106
f 210/238/107 184/184/107 185/183/107
f 210/238/108 236/239/108 184/184/108
f 210/240/109 211/233/109 207/241/109
f 210/240/110 214/242/110 211/233/110
f 181/179/111 214/242/111 210/240/111
f 180/176/112 219/193/112 218/243/112
f 215/244/113 220/211/113 216/245/113
f 216/245/114 220/211/114 200/217/114
f 215/244/115 196/212/115 220/211/115
f 215/244/116 216/245/116 217/234/116
f 200/217/117 221/230/117 216/245/117
f 218/243/118 222/246/118 180/176/118
f 222/246/119 182/178/119 180/176/119
f 224/247/120 225/201/120 227/248/120
f 224/247/121 238/208/121 225/201/121
f 227/248/122 223/249/122 224/247/122
f 227/248/123 177/182/123 183/181/123
f 225/201/124 232/200/124 228/203/124
f 223/249/125 230/250/125 224/247/125
f 223/249/126 236/239/126 209/237/126
f 183/181/127 223/249/127 227/248/127
f 183/181/128 236/239/128 223/249/128
f 224/247/129 230/250/129 226/218/129
f 230/250/130 233/223/130 226/218/130
f 223/249/131 237/224/131 230/250/131
f 230/250/132 237/224/132 233/223/132
f 175/191/133 179/175/133 176/177/133
f 185/251/134 176/177/134 181/179/134
f 176/177/135 180/176/135 182/178/135
f 181/179/136 182/178/136 235/252/136
f 175/180/137 176/185/137 184/184/137
f 183/181/138 184/184/138 236/239/138
f 175/180/139 177/182/139 178/186/139
f 178/186/140 177/182/140 231/187/140
f 179/175/141 186/192/141 219/193/141
f 186/192/142 192/198/142 219/193/142
f 191/195/143 186/192/143 231/196/143
f 190/197/144 192/198/144 191/195/144
f 187/202/145 232/200/145 188/199/145
f 189/204/146 187/202/146 193/205/146
f 193/205/147 188/199/147 194/253/147
f 193/205/148 194/253/148 238/208/148
f 225/201/149 194/253/149 188/199/149
f 187/194/150 189/210/150 195/209/150
f 190/197/151 195/209/151 196/212/151
f 195/209/152 202/206/152 220/211/152
f 200/217/153 201/213/153 199/215/153
f 197/254/154 202/206/154 203/207/154
f 204/220/155 213/225/155 208/221/155
f 204/220/156 205/219/156 213/225/156
f 205/219/157 233/223/157 237/224/157
f 203/214/158 205/228/158 206/226/158
f 199/215/159 206/226/159 200/217/159
f 206/226/160 198/229/160 234/232/160
f 206/226/161 234/232/161 221/230/161
f 207/241/162 211/233/162 208/231/162
f 208/231/163 217/234/163 221/230/163
f 212/236/164 237/224/164 209/237/164
f 207/235/165 208/221/165 213/225/165
f 212/236/166 213/225/166 237/224/166
f 181/255/167 210/238/167 185/183/167
f 209/237/168 236/239/168 210/238/168
f 211/233/169 235/252/169 217/234/169
f 211/233/170 214/242/170 235/252/170
f 214/242/171 181/179/171 235/252/171
f 222/246/172 218/243/172 215/244/172
f 215/244/173 218/243/173 190/197/173
f 190/197/174 218/243/174 192/198/174
f 218/243/175 219/193/175 192/198/175
f 215/244/176 190/197/176 196/212/176
f 222/246/177 215/244/177 217/234/177
f 217/234/178 216/245/178 221/230/178
f 217/234/179 235/252/179 222/246/179
f 222/246/180 235/252/180 182/178/180
f 225/201/181 238/208/181 194/253/181
f 224/247/182 226/218/182 238/208/182
f 225/201/183 228/203/183 227/248/183
f 227/248/184 228/203/184 229/189/184
f 227/248/185 229/189/185 177/182/185
f 223/249/186 209/237/186 237/224/186
