# Blender v2.78 (sub 0) OBJ File: 'Low_Poly_Vegetation_Pack.blend'
# www.blender.org
g FlowerBush_h_m_04
v -0.232069 0.903276 0.109525
v -0.264643 0.876437 0.019674
v -0.326101 0.874495 0.097373
v -0.161925 0.950612 0.015117
v -0.189613 0.921932 0.080757
v -0.217552 0.898912 0.003691
v -0.091791 1.014210 0.099439
v -0.162483 0.958740 0.141637
v -0.123871 1.035684 0.190696
v -0.107062 0.986979 0.054679
v -0.167694 0.939403 0.090872
v -0.098680 1.006662 -0.079394
v -0.066105 1.033502 0.010457
v -0.049224 1.091751 -0.067901
v -0.126909 0.970036 -0.050415
v -0.098971 0.993056 0.026650
v -0.238958 0.895729 -0.069308
v -0.168266 0.951198 -0.111505
v -0.251454 0.930561 -0.161224
v -0.209461 0.904989 -0.024337
v -0.148829 0.952565 -0.060530
v -0.173953 0.940702 -0.018061
v -0.190467 0.928071 0.019683
v -0.167537 0.946591 0.051116
v -0.136851 0.970669 0.032799
v -0.140817 0.967029 -0.009955
v -0.576704 0.300317 -0.098876
v -0.567400 0.237451 -0.167768
v -0.627144 0.221537 -0.097557
v -0.532567 0.347439 -0.199673
v -0.550153 0.330065 -0.131509
v -0.542173 0.276146 -0.190598
v -0.533734 0.455963 -0.149177
v -0.563151 0.388285 -0.091391
v -0.587756 0.477188 -0.075806
v -0.520653 0.415822 -0.178714
v -0.545884 0.357774 -0.129152
v -0.498338 0.396340 -0.303432
v -0.507642 0.459206 -0.234539
v -0.511928 0.486613 -0.323885
v -0.504454 0.362924 -0.264692
v -0.512434 0.416844 -0.205603
v -0.541308 0.240694 -0.253131
v -0.511891 0.308372 -0.310916
v -0.551316 0.230962 -0.345636
v -0.533954 0.277167 -0.217487
v -0.508724 0.335214 -0.267049
v -0.529131 0.324227 -0.225112
v -0.541835 0.316499 -0.187241
v -0.541730 0.351531 -0.166552
v -0.528961 0.380908 -0.191635
v -0.521174 0.364033 -0.227827
v 0.401102 0.244995 -0.411579
v 0.347746 0.303049 -0.433810
v 0.423408 0.323658 -0.410640
v 0.323878 0.208649 -0.472097
v 0.370145 0.217805 -0.429762
v 0.324381 0.267598 -0.448830
v 0.368724 0.114120 -0.472202
v 0.409547 0.168936 -0.427035
v 0.447952 0.102619 -0.455558
v 0.337791 0.146832 -0.473371
v 0.372805 0.193847 -0.434631
v 0.251904 0.174357 -0.539850
v 0.305260 0.116303 -0.517620
v 0.263515 0.108961 -0.587547
v 0.272036 0.197312 -0.506744
v 0.317800 0.147519 -0.487677
v 0.284282 0.305231 -0.479226
v 0.243458 0.250415 -0.524394
v 0.238971 0.330001 -0.542629
v 0.304390 0.268286 -0.463136
v 0.269376 0.221270 -0.501876
v 0.304176 0.230085 -0.480305
v 0.332126 0.234523 -0.458772
v 0.348677 0.203204 -0.455653
v 0.330957 0.179409 -0.475259
v 0.303454 0.196023 -0.490495
v 0.371470 0.782812 0.160926
v 0.351427 0.851981 0.121871
v 0.361336 0.852168 0.203039
v 0.396596 0.781266 0.059373
v 0.379505 0.768386 0.119027
v 0.362314 0.827712 0.085529
v 0.440848 0.687297 0.071959
v 0.407469 0.716514 0.140833
v 0.465955 0.659494 0.144644
v 0.419474 0.722443 0.053624
v 0.390845 0.747503 0.112697
v 0.429792 0.783389 -0.039826
v 0.449835 0.714219 -0.000770
v 0.492073 0.737736 -0.066720
v 0.405114 0.790250 -0.002783
v 0.422305 0.730924 0.030715
v 0.360414 0.878903 0.049142
v 0.393793 0.849687 -0.019732
v 0.387454 0.930409 -0.008325
v 0.365145 0.836192 0.062620
v 0.393775 0.811134 0.003547
v 0.389195 0.806807 0.044951
v 0.382587 0.799419 0.079103
v 0.395339 0.766944 0.085988
v 0.409828 0.754262 0.056091
v 0.406031 0.778898 0.030729
v -0.030658 0.292158 0.576913
v -0.086358 0.358157 0.559940
v -0.113329 0.288663 0.606427
v 0.021572 0.388841 0.553258
v 0.002084 0.324072 0.561086
v -0.045690 0.380679 0.546529
v 0.120746 0.339985 0.573578
v 0.052718 0.284842 0.582403
v 0.128976 0.267403 0.622381
v 0.086695 0.369064 0.555246
v 0.028347 0.321767 0.562815
v 0.073353 0.487618 0.539222
v 0.129053 0.421619 0.556194
v 0.153118 0.504643 0.571861
v 0.041538 0.451385 0.535213
v 0.089312 0.394778 0.549770
v -0.078051 0.439790 0.542557
v -0.010023 0.494933 0.533732
v -0.089186 0.525903 0.555906
v -0.043073 0.406393 0.541053
v 0.015275 0.453689 0.533483
v 0.001005 0.413211 0.546991
v -0.008673 0.377007 0.554420
v 0.023447 0.357157 0.560243
v 0.052977 0.381093 0.556413
v 0.039107 0.415737 0.548222
v 0.146534 0.480968 0.530539
v -0.468188 0.498399 0.327244
v -0.465044 0.492858 -0.320418
v 0.151621 0.472004 -0.517411
v 0.529602 0.464651 0.008512
v 0.000000 1.057685 0.000000
v 0.585852 -0.023808 0.190352
v 0.585852 -0.023808 -0.190352
v 0.000000 -0.023808 0.616000
v 0.362076 -0.023808 0.498354
v -0.585852 -0.023808 0.190352
v -0.362076 -0.023808 0.498354
v -0.362076 -0.023808 -0.498354
v -0.585852 -0.023808 -0.190352
v 0.362076 -0.023808 -0.498354
v 0.000000 -0.023808 -0.616000
v 0.403003 0.553895 0.316424
v -0.183513 0.575125 0.503529
v -0.542807 0.581669 0.003214
v -0.178354 0.564488 -0.493104
v 0.406191 0.547321 -0.299530
v 0.122301 0.913292 0.306991
v 0.340366 0.933974 -0.004392
v -0.239720 0.877016 0.194898
v -0.245401 0.875281 -0.185758
v 0.113109 0.910485 -0.308928
vt 0.1658 0.4399
vt 0.2106 0.4399
vt 0.1882 0.4847
vt 0.1690 0.4161
vt 0.2074 0.4161
vt 0.1882 0.3873
vt 0.1658 0.4399
vt 0.2106 0.4399
vt 0.1882 0.4847
vt 0.1690 0.4161
vt 0.2074 0.4161
vt 0.1658 0.4399
vt 0.2106 0.4399
vt 0.1882 0.4847
vt 0.1690 0.4161
vt 0.2074 0.4161
vt 0.1658 0.4399
vt 0.2106 0.4399
vt 0.1882 0.4847
vt 0.1690 0.4161
vt 0.2074 0.4161
vt 0.2672 0.4290
vt 0.3114 0.3968
vt 0.3557 0.4290
vt 0.3388 0.4810
vt 0.2841 0.4810
vt 0.1658 0.4399
vt 0.2106 0.4399
vt 0.1882 0.4847
vt 0.1690 0.4161
vt 0.2074 0.4161
vt 0.1882 0.3873
vt 0.1658 0.4399
vt 0.2106 0.4399
vt 0.1882 0.4847
vt 0.1690 0.4161
vt 0.2074 0.4161
vt 0.1658 0.4399
vt 0.2106 0.4399
vt 0.1882 0.4847
vt 0.1690 0.4161
vt 0.2074 0.4161
vt 0.1658 0.4399
vt 0.2106 0.4399
vt 0.1882 0.4847
vt 0.1690 0.4161
vt 0.2074 0.4161
vt 0.2672 0.4290
vt 0.3114 0.3968
vt 0.3557 0.4290
vt 0.3388 0.4810
vt 0.2841 0.4810
vt 0.1658 0.4399
vt 0.2106 0.4399
vt 0.1882 0.4847
vt 0.1690 0.4161
vt 0.2074 0.4161
vt 0.1882 0.3873
vt 0.1658 0.4399
vt 0.2106 0.4399
vt 0.1882 0.4847
vt 0.1690 0.4161
vt 0.2074 0.4161
vt 0.1658 0.4399
vt 0.2106 0.4399
vt 0.1882 0.4847
vt 0.1690 0.4161
vt 0.2074 0.4161
vt 0.1658 0.4399
vt 0.2106 0.4399
vt 0.1882 0.4847
vt 0.1690 0.4161
vt 0.2074 0.4161
vt 0.2672 0.4290
vt 0.3114 0.3968
vt 0.3557 0.4290
vt 0.3388 0.4810
vt 0.2841 0.4810
vt 0.1658 0.4399
vt 0.2106 0.4399
vt 0.1882 0.4847
vt 0.1690 0.4161
vt 0.2074 0.4161
vt 0.1882 0.3873
vt 0.1658 0.4399
vt 0.2106 0.4399
vt 0.1882 0.4847
vt 0.1690 0.4161
vt 0.2074 0.4161
vt 0.1658 0.4399
vt 0.2106 0.4399
vt 0.1882 0.4847
vt 0.1690 0.4161
vt 0.2074 0.4161
vt 0.1658 0.4399
vt 0.2106 0.4399
vt 0.1882 0.4847
vt 0.1690 0.4161
vt 0.2074 0.4161
vt 0.2672 0.4290
vt 0.3114 0.3968
vt 0.3557 0.4290
vt 0.3388 0.4810
vt 0.2841 0.4810
vt 0.1658 0.4399
vt 0.2106 0.4399
vt 0.1882 0.4847
vt 0.1690 0.4161
vt 0.2074 0.4161
vt 0.1882 0.3873
vt 0.1658 0.4399
vt 0.2106 0.4399
vt 0.1882 0.4847
vt 0.1690 0.4161
vt 0.2074 0.4161
vt 0.1658 0.4399
vt 0.2106 0.4399
vt 0.1882 0.4847
vt 0.1690 0.4161
vt 0.2074 0.4161
vt 0.1658 0.4399
vt 0.2106 0.4399
vt 0.1882 0.4847
vt 0.1690 0.4161
vt 0.2074 0.4161
vt 0.2672 0.4290
vt 0.3114 0.3968
vt 0.3557 0.4290
vt 0.3388 0.4810
vt 0.2841 0.4810
vt 0.4187 0.9438
vt 0.4211 0.9312
vt 0.4322 0.9383
vt 0.4393 0.9577
vt 0.4287 0.9515
vt 0.4387 0.9438
vt 0.4591 0.9436
vt 0.4496 0.9513
vt 0.4460 0.9387
vt 0.4523 0.9191
vt 0.4567 0.9313
vt 0.4430 0.9307
vt 0.4259 0.9188
vt 0.4391 0.9177
vt 0.4350 0.9309
vt 0.4390 0.9365
vt 0.4227 0.8843
vt 0.4557 0.8844
vt 0.4835 0.9052
vt 0.4931 0.9364
vt 0.4821 0.9688
vt 0.4559 0.9875
vt 0.4219 0.9875
vt 0.3957 0.9686
vt 0.3847 0.9361
vt 0.3946 0.9048
vn -0.2655 0.9459 -0.1863
vn -0.4558 0.8846 -0.0990
vn -0.6838 0.7291 0.0301
vn -0.7010 0.5988 -0.3873
vn -0.6761 0.7090 -0.2007
vn -0.5877 0.8056 0.0744
vn -0.8618 0.4780 0.1697
vn -0.7574 0.6479 0.0811
vn -0.5523 0.8323 -0.0484
vn -0.4262 0.8252 0.3707
vn -0.5371 0.8235 0.1827
vn -0.6483 0.7557 -0.0927
vn -0.6207 0.7840 -0.0092
vn -0.7261 0.4563 -0.5144
vn -0.8564 0.3186 -0.4064
vn -0.9692 0.1021 -0.2240
vn -0.8159 -0.1269 -0.5640
vn -0.9018 0.0236 -0.4315
vn -0.9494 0.2307 -0.2131
vn -0.9889 -0.1484 0.0019
vn -0.9893 0.0127 -0.1452
vn -0.9112 0.2355 -0.3379
vn -0.8991 0.4348 0.0515
vn -0.9439 0.3077 -0.1201
vn -0.9311 0.1068 -0.3489
vn -0.9443 0.1695 -0.2822
vn 0.3110 -0.0769 -0.9473
vn 0.4538 0.0771 -0.8878
vn 0.6158 0.2847 -0.7346
vn 0.2470 0.5000 -0.8301
vn 0.4214 0.3689 -0.8285
vn 0.6300 0.1575 -0.7605
vn 0.7283 0.4835 -0.4856
vn 0.6648 0.3605 -0.6543
vn 0.5238 0.1611 -0.8365
vn 0.7924 -0.0934 -0.6028
vn 0.6972 0.0687 -0.7136
vn 0.5097 0.2884 -0.8106
vn 0.5723 0.2239 -0.7889
vn 0.9696 0.2138 -0.1189
vn 0.9462 0.3153 0.0729
vn 0.8385 0.4312 0.3333
vn 0.6966 0.7167 0.0335
vn 0.8081 0.5697 0.1500
vn 0.8987 0.3202 0.2997
vn 0.6284 0.5125 0.5852
vn 0.7736 0.4664 0.4290
vn 0.9137 0.3653 0.1780
vn 0.9014 0.0096 0.4328
vn 0.9117 0.2120 0.3519
vn 0.8535 0.4762 0.2116
vn 0.8798 0.3999 0.2568
vn 0.2822 0.4553 0.8444
vn 0.1191 0.3404 0.9327
vn -0.1168 0.1537 0.9812
vn -0.3064 0.5070 0.8057
vn -0.1786 0.3665 0.9131
vn 0.0130 0.1423 0.9897
vn -0.3651 -0.0694 0.9284
vn -0.2083 0.0750 0.9752
vn 0.0259 0.2695 0.9627
vn 0.2236 -0.1210 0.9671
vn 0.0894 0.0489 0.9948
vn -0.1039 0.2809 0.9541
vn -0.0456 0.2125 0.9761
vn 0.5094 0.4176 0.7524
vn -0.5419 0.5493 0.6360
vn -0.7611 0.5552 -0.3353
vn 0.0550 0.4327 -0.8999
vn 0.8970 0.3544 -0.2642
vn 0.3214 0.8952 -0.3089
vn 0.6639 0.5219 -0.5357
vn 0.5234 0.4029 -0.7508
vn -0.2502 0.8353 -0.4896
vn -0.3060 0.6352 -0.7091
vn -0.5298 0.5358 -0.6574
vn -0.5991 0.8006 0.0053
vn -0.7002 0.7139 0.0072
vn -0.7573 0.5690 0.3206
vn -0.2355 0.8399 0.4889
vn -0.2818 0.6597 0.6967
vn 0.0591 0.4611 0.8854
vn 0.3301 0.8980 0.2908
vn 0.6728 0.5388 0.5070
vn 0.8929 0.3672 0.2607
vn 0.9229 0.2315 -0.3076
vn 0.8010 0.1407 -0.5819
vn 0.5950 0.2229 -0.7722
vn -0.0162 0.1998 -0.9797
vn -0.3073 0.1044 -0.9459
vn -0.5398 0.1759 -0.8232
vn -0.9503 0.1541 -0.2706
vn -0.9975 0.0709 0.0000
vn -0.9549 0.1476 0.2578
vn -0.5502 0.1569 0.8202
vn -0.3079 0.0836 0.9477
vn -0.0305 0.1754 0.9840
vn 0.5927 0.2034 0.7793
vn 0.8025 0.1268 0.5830
vn 0.9226 0.2234 0.3146
vn 0.3076 0.0942 -0.9468
vn -0.8083 0.0412 -0.5873
vn -0.8087 0.0282 0.5875
vn 0.3082 0.0711 0.9486
vn 0.9934 0.1144 0.0000
s off
f 1/1/1 2/2/1 3/3/1
f 2/2/2 1/1/2 5/4/2 6/5/2
f 6/5/3 5/4/3 4/6/3
f 7/7/4 8/8/4 9/9/4
f 8/8/5 7/7/5 10/10/5 11/11/5
f 11/11/6 10/10/6 4/6/6
f 12/12/7 13/13/7 14/14/7
f 13/13/8 12/12/8 15/15/8 16/16/8
f 16/16/9 15/15/9 4/6/9
f 17/17/10 18/18/10 19/19/10
f 18/18/11 17/17/11 20/20/11 21/21/11
f 21/21/12 20/20/12 4/6/12
f 23/22/13 24/23/13 25/24/13 26/25/13
f 22/26/13 23/22/13 26/25/13
f 27/27/14 28/28/14 29/29/14
f 28/28/15 27/27/15 31/30/15 32/31/15
f 32/31/16 31/30/16 30/32/16
f 33/33/17 34/34/17 35/35/17
f 34/34/18 33/33/18 36/36/18 37/37/18
f 37/37/19 36/36/19 30/32/19
f 38/38/20 39/39/20 40/40/20
f 39/39/21 38/38/21 41/41/21 42/42/21
f 42/42/22 41/41/22 30/32/22
f 43/43/23 44/44/23 45/45/23
f 44/44/24 43/43/24 46/46/24 47/47/24
f 47/47/25 46/46/25 30/32/25
f 49/48/26 50/49/26 51/50/26 52/51/26
f 48/52/26 49/48/26 52/51/26
f 53/53/27 54/54/27 55/55/27
f 54/54/28 53/53/28 57/56/28 58/57/28
f 58/57/29 57/56/29 56/58/29
f 59/59/30 60/60/30 61/61/30
f 60/60/31 59/59/31 62/62/31 63/63/31
f 63/63/32 62/62/32 56/58/32
f 64/64/33 65/65/33 66/66/33
f 65/65/34 64/64/34 67/67/34 68/68/34
f 68/68/35 67/67/35 56/58/35
f 69/69/36 70/70/36 71/71/36
f 70/70/37 69/69/37 72/72/37 73/73/37
f 73/73/38 72/72/38 56/58/38
f 75/74/39 76/75/39 77/76/39 78/77/39
f 74/78/39 75/74/39 78/77/39
f 79/79/40 80/80/40 81/81/40
f 80/80/41 79/79/41 83/82/41 84/83/41
f 84/83/42 83/82/42 82/84/42
f 85/85/43 86/86/43 87/87/43
f 86/86/44 85/85/44 88/88/44 89/89/44
f 89/89/45 88/88/45 82/84/45
f 90/90/46 91/91/46 92/92/46
f 91/91/47 90/90/47 93/93/47 94/94/47
f 94/94/48 93/93/48 82/84/48
f 95/95/49 96/96/49 97/97/49
f 96/96/50 95/95/50 98/98/50 99/99/50
f 99/99/51 98/98/51 82/84/51
f 101/100/52 102/101/52 103/102/52 104/103/52
f 100/104/52 101/100/52 104/103/52
f 105/105/53 106/106/53 107/107/53
f 106/106/54 105/105/54 109/108/54 110/109/54
f 110/109/55 109/108/55 108/110/55
f 111/111/56 112/112/56 113/113/56
f 112/112/57 111/111/57 114/114/57 115/115/57
f 115/115/58 114/114/58 108/110/58
f 116/116/59 117/117/59 118/118/59
f 117/117/60 116/116/60 119/119/60 120/120/60
f 120/120/61 119/119/61 108/110/61
f 121/121/62 122/122/62 123/123/62
f 122/122/63 121/121/63 124/124/63 125/125/63
f 125/125/64 124/124/64 108/110/64
f 127/126/65 128/127/65 129/128/65 130/129/65
f 126/130/65 127/126/65 130/129/65
f 131/131/66 147/132/66 152/133/66
f 132/134/67 148/135/67 154/136/67
f 133/137/68 149/138/68 155/139/68
f 134/140/69 150/141/69 156/142/69
f 135/143/70 151/144/70 153/145/70
f 153/145/71 156/142/71 136/146/71
f 153/145/72 151/144/72 156/142/72
f 151/144/73 134/140/73 156/142/73
f 156/142/74 155/139/74 136/146/74
f 156/142/75 150/141/75 155/139/75
f 150/141/76 133/137/76 155/139/76
f 155/139/77 154/136/77 136/146/77
f 155/139/78 149/138/78 154/136/78
f 149/138/79 132/134/79 154/136/79
f 154/136/80 152/133/80 136/146/80
f 154/136/81 148/135/81 152/133/81
f 148/135/82 131/131/82 152/133/82
f 152/133/83 153/145/83 136/146/83
f 152/133/84 147/132/84 153/145/84
f 147/132/85 135/143/85 153/145/85
f 138/147/86 151/144/86 135/143/86
f 138/147/87 145/148/87 151/144/87
f 145/148/88 134/140/88 151/144/88
f 146/149/89 150/141/89 134/140/89
f 146/149/90 143/150/90 150/141/90
f 143/150/91 133/137/91 150/141/91
f 144/151/92 149/138/92 133/137/92
f 144/151/93 141/152/93 149/138/93
f 141/152/94 132/134/94 149/138/94
f 142/153/95 148/135/95 132/134/95
f 142/153/96 139/154/96 148/135/96
f 139/154/97 131/131/97 148/135/97
f 140/155/98 147/132/98 131/131/98
f 140/155/99 137/156/99 147/132/99
f 137/156/100 135/143/100 147/132/100
f 145/148/101 146/149/101 134/140/101
f 143/150/102 144/151/102 133/137/102
f 141/152/103 142/153/103 132/134/103
f 139/154/104 140/155/104 131/131/104
f 137/156/105 138/147/105 135/143/105
