# Blender v2.78 (sub 0) OBJ File: 'Low_Poly_Vegetation_Pack.blend'
# www.blender.org
g FlowerBush_g_m_03
v 0.316055 0.625152 -0.483304
v 0.342064 0.608126 -0.472944
v 0.341120 0.578586 -0.487094
v 0.314528 0.577356 -0.506200
v 0.299036 0.606135 -0.503858
v 0.318912 0.597350 -0.484885
v 0.429568 0.688765 -0.403238
v 0.380619 0.617182 -0.458583
v 0.352104 0.654311 -0.461509
v 0.467525 0.536596 -0.446273
v 0.376254 0.557491 -0.488890
v 0.385807 0.596381 -0.464465
v 0.372204 0.455225 -0.549911
v 0.325157 0.544608 -0.530407
v 0.363224 0.546369 -0.503056
v 0.238926 0.526023 -0.610514
v 0.278425 0.591416 -0.541616
v 0.306939 0.554286 -0.538690
v 0.200969 0.678193 -0.567480
v 0.282789 0.651106 -0.511309
v 0.273236 0.612216 -0.535734
v 0.296291 0.759563 -0.463842
v 0.333886 0.663989 -0.469792
v 0.295819 0.662228 -0.497143
v -0.100207 0.969877 0.389620
v -0.062245 0.963305 0.393416
v -0.043408 0.988831 0.371228
v -0.069728 1.011179 0.353719
v -0.104832 0.999465 0.365086
v -0.079284 0.987634 0.362632
v -0.034630 0.878432 0.524039
v -0.035518 0.940423 0.409407
v -0.089513 0.932148 0.418746
v 0.106114 0.975599 0.436484
v 0.000037 0.993972 0.363038
v -0.016280 0.953706 0.397439
v 0.063358 1.120236 0.317453
v -0.043485 1.045733 0.321704
v -0.005808 1.013742 0.346768
v -0.120142 1.167705 0.285977
v -0.122562 1.043945 0.326740
v -0.068567 1.052221 0.317402
v -0.260886 1.070537 0.373531
v -0.158118 0.990396 0.373110
v -0.141801 1.030663 0.338708
v -0.218130 0.925901 0.492562
v -0.114595 0.938635 0.414444
v -0.152273 0.970626 0.389381
v 0.377647 0.306179 0.475775
v 0.349342 0.302333 0.496831
v 0.333949 0.271342 0.488961
v 0.352741 0.256034 0.463040
v 0.379748 0.277565 0.454891
v 0.356043 0.283940 0.474010
v 0.359473 0.395120 0.619660
v 0.329372 0.321241 0.530738
v 0.370456 0.344516 0.512004
v 0.248842 0.258079 0.620386
v 0.300066 0.257321 0.512466
v 0.314250 0.302509 0.530837
v 0.274297 0.123764 0.509340
v 0.330446 0.217049 0.460182
v 0.303546 0.238962 0.497286
v 0.410382 0.126490 0.397567
v 0.390132 0.240696 0.426170
v 0.349048 0.217422 0.444904
v 0.521013 0.263530 0.396841
v 0.419439 0.304616 0.444441
v 0.405255 0.259429 0.426070
v 0.495558 0.397846 0.507888
v 0.389058 0.344889 0.496726
v 0.415958 0.322976 0.459621
v -0.553528 0.749733 -0.290360
v -0.549516 0.730513 -0.315826
v -0.571424 0.707038 -0.314107
v -0.588976 0.711749 -0.287579
v -0.577916 0.738136 -0.272903
v -0.564589 0.715241 -0.292540
v -0.464161 0.775784 -0.404379
v -0.535742 0.725511 -0.353975
v -0.526817 0.761381 -0.326543
v -0.550184 0.645680 -0.438187
v -0.581551 0.678601 -0.348053
v -0.547501 0.707727 -0.358596
v -0.668635 0.600879 -0.341069
v -0.622867 0.679222 -0.296803
v -0.597742 0.672477 -0.334778
v -0.701064 0.686182 -0.210143
v -0.618375 0.726753 -0.251474
v -0.627299 0.690882 -0.278907
v -0.615041 0.816286 -0.176334
v -0.572566 0.773663 -0.257396
v -0.606616 0.744537 -0.246853
v -0.496590 0.861087 -0.273453
v -0.531250 0.773042 -0.308647
v -0.556375 0.779786 -0.270672
v 0.263190 1.136344 0.037780
v 0.255571 1.135325 0.074476
v 0.271411 1.104483 0.088746
v 0.288820 1.086441 0.060868
v 0.283739 1.106132 0.029369
v 0.265832 1.115617 0.060231
v 0.208448 1.286717 0.130397
v 0.232698 1.164603 0.109646
v 0.231523 1.184624 0.059863
v 0.263036 1.154865 0.249818
v 0.266255 1.100731 0.135846
v 0.240160 1.146580 0.125969
v 0.365153 1.011391 0.189706
v 0.305133 1.055293 0.087722
v 0.280213 1.081120 0.127629
v 0.412682 0.999769 0.010174
v 0.310455 1.073726 0.013398
v 0.311630 1.053705 0.063182
v 0.358095 1.131621 -0.109248
v 0.276898 1.137598 -0.012802
v 0.302993 1.091749 -0.002925
v 0.255978 1.275095 -0.049135
v 0.238019 1.183036 0.035323
v 0.262939 1.157209 -0.004584
v -0.495961 0.508230 0.426544
v -0.511531 0.487591 0.405542
v -0.505351 0.456358 0.415328
v -0.485960 0.457694 0.442379
v -0.480157 0.489752 0.449310
v -0.485275 0.481673 0.428294
v -0.592772 0.559126 0.325234
v -0.540863 0.490693 0.384883
v -0.527230 0.532900 0.402384
v -0.591788 0.393983 0.332683
v -0.526603 0.427825 0.407124
v -0.540728 0.468120 0.385902
v -0.507953 0.317152 0.452674
v -0.487386 0.419236 0.462248
v -0.515144 0.417323 0.423525
v -0.425103 0.405465 0.565215
v -0.462429 0.473514 0.495131
v -0.476061 0.431307 0.477631
v -0.426087 0.570609 0.557766
v -0.476688 0.536383 0.472891
v -0.462563 0.496088 0.494113
v -0.509922 0.647440 0.437775
v -0.515905 0.544972 0.417767
v -0.488148 0.546884 0.456489
v -0.303601 0.336780 0.637743
v -0.406778 0.026329 0.005256
v -0.138622 0.033044 -0.393047
v 0.463455 0.133733 -0.165768
v -0.178830 1.308866 -0.144363
v -0.054430 -0.122921 0.129556
v 0.383014 0.053429 0.295148
v 0.216127 0.014053 -0.344017
v 0.615308 0.488054 0.014838
v 0.114003 0.266003 0.674591
v 0.406912 0.437282 0.533218
v -0.565755 0.312877 0.319605
v -0.453496 0.302800 -0.431544
v -0.653656 0.636802 -0.277544
v 0.341465 0.447103 -0.536140
v 0.079482 0.606908 -0.683878
v 0.362030 0.866379 0.416024
v -0.396702 0.801851 0.570179
v -0.630737 0.833064 0.064901
v -0.260195 0.830170 -0.558971
v 0.470164 0.873564 -0.250177
v 0.157162 1.281252 0.057729
v -0.324457 1.137232 0.215498
v 0.038136 1.111006 -0.417010
vt 0.6436 0.4219
vt 0.6868 0.3905
vt 0.7300 0.4219
vt 0.7135 0.4727
vt 0.6601 0.4727
vt 0.5793 0.4226
vt 0.5436 0.4226
vt 0.5614 0.3959
vt 0.5614 0.4864
vt 0.5793 0.4226
vt 0.5436 0.4226
vt 0.5614 0.4864
vt 0.5793 0.4226
vt 0.5436 0.4226
vt 0.5614 0.4864
vt 0.5793 0.4226
vt 0.5436 0.4226
vt 0.5614 0.4864
vt 0.5793 0.4226
vt 0.5436 0.4226
vt 0.5614 0.4864
vt 0.5793 0.4226
vt 0.5436 0.4226
vt 0.5614 0.4864
vt 0.6372 0.4213
vt 0.6831 0.3879
vt 0.7290 0.4213
vt 0.7115 0.4753
vt 0.6547 0.4753
vt 0.4571 0.4228
vt 0.4210 0.4228
vt 0.4390 0.3958
vt 0.4390 0.4872
vt 0.4571 0.4228
vt 0.4210 0.4228
vt 0.4390 0.4872
vt 0.4571 0.4228
vt 0.4210 0.4228
vt 0.4390 0.4872
vt 0.4571 0.4228
vt 0.4210 0.4228
vt 0.4390 0.4872
vt 0.4571 0.4228
vt 0.4210 0.4228
vt 0.4390 0.4872
vt 0.4571 0.4228
vt 0.4210 0.4228
vt 0.4390 0.4872
vt 0.6372 0.4213
vt 0.6831 0.3879
vt 0.7290 0.4213
vt 0.7115 0.4753
vt 0.6547 0.4753
vt 0.4571 0.4228
vt 0.4210 0.4228
vt 0.4390 0.3958
vt 0.4390 0.4872
vt 0.4571 0.4228
vt 0.4210 0.4228
vt 0.4390 0.4872
vt 0.4571 0.4228
vt 0.4210 0.4228
vt 0.4390 0.4872
vt 0.4571 0.4228
vt 0.4210 0.4228
vt 0.4390 0.4872
vt 0.4571 0.4228
vt 0.4210 0.4228
vt 0.4390 0.4872
vt 0.4571 0.4228
vt 0.4210 0.4228
vt 0.4390 0.4872
vt 0.6436 0.4219
vt 0.6868 0.3905
vt 0.7300 0.4219
vt 0.7135 0.4727
vt 0.6601 0.4727
vt 0.5793 0.4226
vt 0.5436 0.4226
vt 0.5614 0.3959
vt 0.5614 0.4864
vt 0.5793 0.4226
vt 0.5436 0.4226
vt 0.5614 0.4864
vt 0.5793 0.4226
vt 0.5436 0.4226
vt 0.5614 0.4864
vt 0.5793 0.4226
vt 0.5436 0.4226
vt 0.5614 0.4864
vt 0.5793 0.4226
vt 0.5436 0.4226
vt 0.5614 0.4864
vt 0.5793 0.4226
vt 0.5436 0.4226
vt 0.5614 0.4864
vt 0.6372 0.4213
vt 0.6831 0.3879
vt 0.7290 0.4213
vt 0.7115 0.4753
vt 0.6547 0.4753
vt 0.4571 0.4228
vt 0.4210 0.4228
vt 0.4390 0.3958
vt 0.4390 0.4872
vt 0.4571 0.4228
vt 0.4210 0.4228
vt 0.4390 0.4872
vt 0.4571 0.4228
vt 0.4210 0.4228
vt 0.4390 0.4872
vt 0.4571 0.4228
vt 0.4210 0.4228
vt 0.4390 0.4872
vt 0.4571 0.4228
vt 0.4210 0.4228
vt 0.4390 0.4872
vt 0.4571 0.4228
vt 0.4210 0.4228
vt 0.4390 0.4872
vt 0.6436 0.4219
vt 0.6868 0.3905
vt 0.7300 0.4219
vt 0.7135 0.4727
vt 0.6601 0.4727
vt 0.5793 0.4226
vt 0.5436 0.4226
vt 0.5614 0.3959
vt 0.5614 0.4864
vt 0.5793 0.4226
vt 0.5436 0.4226
vt 0.5614 0.4864
vt 0.5793 0.4226
vt 0.5436 0.4226
vt 0.5614 0.4864
vt 0.5793 0.4226
vt 0.5436 0.4226
vt 0.5614 0.4864
vt 0.5793 0.4226
vt 0.5436 0.4226
vt 0.5614 0.4864
vt 0.5793 0.4226
vt 0.5436 0.4226
vt 0.5614 0.4864
vt 0.0825 0.9071
vt 0.0940 0.9000
vt 0.0980 0.9165
vt 0.0888 0.9237
vt 0.0683 0.9142
vt 0.0772 0.9286
vt 0.0608 0.9346
vt 0.0922 0.9453
vt 0.0493 0.9071
vt 0.0940 0.8833
vt 0.1152 0.8927
vt 0.1124 0.9106
vt 0.1111 0.9342
vt 0.0320 0.9876
vt 0.0268 0.9756
vt 0.0394 0.9639
vt 0.0625 0.9765
vt 0.0495 0.9778
vt 0.0487 0.9650
vt 0.0403 0.9532
vt 0.0566 0.9519
vt 0.0302 0.9632
vt 0.0200 0.9609
vt 0.0360 0.9422
vt 0.0750 0.9646
vt 0.0473 0.9958
vt 0.0091 0.9791
vt 0.0044 0.9576
vt 0.0132 0.9375
vt 0.0321 0.9264
vt 0.0622 0.8945
vt 0.0759 0.8816
vn 0.5356 0.3508 -0.7681
vn 0.3347 0.1842 -0.9241
vn 0.4819 0.3054 -0.8213
vn 0.2646 0.4655 -0.8446
vn 0.4614 0.3878 -0.7980
vn 0.4407 0.6159 -0.6531
vn 0.5130 0.4319 -0.7418
vn 0.6870 0.4850 -0.5411
vn 0.5852 0.3935 -0.7090
vn 0.7572 0.2038 -0.6206
vn 0.6057 0.3111 -0.7323
vn 0.5810 0.0534 -0.8121
vn 0.5541 0.2671 -0.7884
vn 0.0343 0.6411 0.7667
vn 0.0130 0.7098 0.7043
vn -0.0524 0.8782 0.4753
vn -0.0567 0.6617 0.7476
vn -0.3295 0.6869 0.6477
vn -0.0355 0.5901 0.8066
vn -0.2453 0.4022 0.8821
vn 0.0554 0.5666 0.8222
vn 0.1160 0.3087 0.9441
vn 0.1251 0.6147 0.7788
vn 0.3931 0.5000 0.7717
vn 0.1039 0.6863 0.7198
vn 0.3089 0.7848 0.5373
vn 0.5701 -0.4566 0.6830
vn 0.5813 -0.5271 0.6199
vn 0.5824 -0.7112 0.3937
vn 0.6410 -0.4531 0.6195
vn 0.8200 -0.4168 0.3922
vn 0.6273 -0.3805 0.6795
vn 0.7654 -0.1283 0.6307
vn 0.5538 -0.3820 0.7399
vn 0.4731 -0.1342 0.8707
vn 0.4940 -0.4560 0.7403
vn 0.2354 -0.4285 0.8723
vn 0.5078 -0.5286 0.6803
vn 0.2901 -0.7170 0.6338
vn -0.6415 0.5603 -0.5240
vn -0.8349 0.4500 -0.3168
vn -0.7044 0.5334 -0.4683
vn -0.6729 0.6951 -0.2531
vn -0.6569 0.6052 -0.4497
vn -0.4498 0.7794 -0.4361
vn -0.5915 0.6299 -0.5033
vn -0.3888 0.6188 -0.6826
vn -0.5736 0.5829 -0.5755
vn -0.5508 0.3737 -0.7463
vn -0.6211 0.5110 -0.5942
vn -0.7739 0.2894 -0.5634
vn -0.6865 0.4863 -0.5406
vn 0.8357 0.5161 0.1878
vn 0.8841 0.4404 0.1562
vn 0.9812 0.1861 0.0517
vn 0.8562 0.5078 0.0952
vn 0.8702 0.4541 -0.1911
vn 0.8040 0.5812 0.1259
vn 0.6626 0.7458 -0.0689
vn 0.7797 0.5871 0.2177
vn 0.5660 0.7694 0.2961
vn 0.8076 0.5197 0.2788
vn 0.6770 0.5014 0.5389
vn 0.8598 0.4463 0.2480
vn 0.8846 0.2097 0.4167
vn -0.8131 0.0214 0.5818
vn -0.6230 -0.1193 0.7730
vn -0.7652 -0.0196 0.6434
vn -0.6248 0.1810 0.7595
vn -0.7658 0.0684 0.6395
vn -0.7773 0.3207 0.5413
vn -0.8104 0.1093 0.5755
vn -0.9279 0.1601 0.3367
vn -0.8546 0.0622 0.5156
vn -0.9261 -0.1402 0.3503
vn -0.8541 -0.0257 0.5196
vn -0.7737 -0.2799 0.5684
vn -0.8094 -0.0667 0.5835
vn -0.3115 -0.9231 -0.2253
vn -0.0120 -0.9587 -0.2842
vn 0.9001 -0.4278 0.0825
vn 0.6549 -0.4567 -0.6021
vn 0.9033 -0.2653 0.3371
vn -0.9087 -0.4081 -0.0876
vn -0.2122 -0.3764 -0.9018
vn 0.8884 -0.1618 -0.4295
vn -0.7544 0.5900 -0.2877
vn -0.0185 0.4666 -0.8843
vn 0.3050 0.8696 -0.3883
vn 0.5553 0.7288 -0.4006
vn 0.5216 0.4322 -0.7356
vn -0.2831 0.6549 -0.7006
vn -0.6462 0.5594 -0.5191
vn -0.7147 0.6980 0.0437
vn -0.7394 0.5579 0.3769
vn -0.1506 0.9146 0.3753
vn 0.0083 0.7257 0.6879
vn 0.0910 0.6763 0.7310
vn 0.8339 0.5336 0.1411
vn 0.8942 0.0296 -0.4466
vn 0.6035 0.3104 -0.7345
vn -0.3894 -0.0790 -0.9177
vn -0.5882 0.0203 -0.8085
vn -0.9917 -0.0714 0.1073
vn -0.9011 0.0947 0.4232
vn -0.0651 0.1307 0.9893
vn 0.1603 0.3338 0.9289
vn 0.9024 0.1988 0.3823
vn 0.8874 0.4364 0.1487
vn 0.2163 -0.4476 -0.8677
vn 0.0950 -0.4785 -0.8729
vn -0.8782 -0.4409 -0.1852
vn -0.7680 -0.0611 0.6375
vn 0.2795 0.2801 0.9184
vn 0.5881 -0.4524 0.6704
vn -0.5692 -0.7209 -0.3954
vn -0.4780 -0.7559 0.4473
vn -0.4767 -0.7554 0.4496
vn 0.4749 -0.8772 -0.0700
vn 0.3880 -0.9206 -0.0446
vn -0.1845 -0.7722 0.6080
vn 0.1243 -0.8255 0.5506
s off
f 2/1/1 3/2/1 4/3/1 5/4/1
f 1/5/1 2/1/1 5/4/1
f 9/6/2 8/7/2 6/8/2
f 7/9/3 8/7/3 9/6/3
f 12/10/4 11/11/4 6/8/4
f 10/12/5 11/11/5 12/10/5
f 15/13/6 14/14/6 6/8/6
f 13/15/7 14/14/7 15/13/7
f 18/16/8 17/17/8 6/8/8
f 16/18/9 17/17/9 18/16/9
f 21/19/10 20/20/10 6/8/10
f 19/21/11 20/20/11 21/19/11
f 24/22/12 23/23/12 6/8/12
f 22/24/13 23/23/13 24/22/13
f 26/25/14 27/26/14 28/27/14 29/28/14
f 25/29/14 26/25/14 29/28/14
f 33/30/15 32/31/15 30/32/15
f 31/33/16 32/31/16 33/30/16
f 36/34/17 35/35/17 30/32/17
f 34/36/18 35/35/18 36/34/18
f 39/37/19 38/38/19 30/32/19
f 37/39/20 38/38/20 39/37/20
f 42/40/21 41/41/21 30/32/21
f 40/42/22 41/41/22 42/40/22
f 45/43/23 44/44/23 30/32/23
f 43/45/24 44/44/24 45/43/24
f 48/46/25 47/47/25 30/32/25
f 46/48/26 47/47/26 48/46/26
f 50/49/27 51/50/27 52/51/27 53/52/27
f 49/53/27 50/49/27 53/52/27
f 57/54/28 56/55/28 54/56/28
f 55/57/29 56/55/29 57/54/29
f 60/58/30 59/59/30 54/56/30
f 58/60/31 59/59/31 60/58/31
f 63/61/32 62/62/32 54/56/32
f 61/63/33 62/62/33 63/61/33
f 66/64/34 65/65/34 54/56/34
f 64/66/35 65/65/35 66/64/35
f 69/67/36 68/68/36 54/56/36
f 67/69/37 68/68/37 69/67/37
f 72/70/38 71/71/38 54/56/38
f 70/72/39 71/71/39 72/70/39
f 74/73/40 75/74/40 76/75/40 77/76/40
f 73/77/40 74/73/40 77/76/40
f 81/78/41 80/79/41 78/80/41
f 79/81/42 80/79/42 81/78/42
f 84/82/43 83/83/43 78/80/43
f 82/84/44 83/83/44 84/82/44
f 87/85/45 86/86/45 78/80/45
f 85/87/46 86/86/46 87/85/46
f 90/88/47 89/89/47 78/80/47
f 88/90/48 89/89/48 90/88/48
f 93/91/49 92/92/49 78/80/49
f 91/93/50 92/92/50 93/91/50
f 96/94/51 95/95/51 78/80/51
f 94/96/52 95/95/52 96/94/52
f 98/97/53 99/98/53 100/99/53 101/100/53
f 97/101/53 98/97/53 101/100/53
f 105/102/54 104/103/54 102/104/54
f 103/105/55 104/103/55 105/102/55
f 108/106/56 107/107/56 102/104/56
f 106/108/57 107/107/57 108/106/57
f 111/109/58 110/110/58 102/104/58
f 109/111/59 110/110/59 111/109/59
f 114/112/60 113/113/60 102/104/60
f 112/114/61 113/113/61 114/112/61
f 117/115/62 116/116/62 102/104/62
f 115/117/63 116/116/63 117/115/63
f 120/118/64 119/119/64 102/104/64
f 118/120/65 119/119/65 120/118/65
f 122/121/66 123/122/66 124/123/66 125/124/66
f 121/125/66 122/121/66 125/124/66
f 129/126/67 128/127/67 126/128/67
f 127/129/68 128/127/68 129/126/68
f 132/130/69 131/131/69 126/128/69
f 130/132/70 131/131/70 132/130/70
f 135/133/71 134/134/71 126/128/71
f 133/135/72 134/134/72 135/133/72
f 138/136/73 137/137/73 126/128/73
f 136/138/74 137/137/74 138/136/74
f 141/139/75 140/140/75 126/128/75
f 139/141/76 140/140/76 141/139/76
f 144/142/77 143/143/77 126/128/77
f 142/144/78 143/143/78 144/142/78
f 150/145/79 146/146/79 147/147/79
f 150/145/80 147/147/80 152/148/80
f 151/149/81 148/150/81 153/151/81
f 148/150/82 152/148/82 159/152/82
f 151/149/83 153/151/83 155/153/83
f 146/146/84 156/154/84 158/155/84
f 147/147/85 157/156/85 160/157/85
f 148/150/86 159/152/86 153/151/86
f 158/158/87 163/159/87 149/160/87
f 160/161/88 164/162/88 168/163/88
f 166/164/89 168/163/89 149/160/89
f 166/164/90 165/165/90 168/163/90
f 165/165/91 160/161/91 168/163/91
f 168/163/92 164/162/92 149/160/92
f 164/162/93 158/158/93 149/160/93
f 149/160/94 163/159/94 167/166/94
f 163/159/95 162/167/95 167/166/95
f 167/166/96 166/164/96 149/160/96
f 167/166/97 162/167/97 166/164/97
f 162/167/98 161/168/98 166/164/98
f 161/168/99 165/165/99 166/164/99
f 153/151/100 159/169/100 165/165/100
f 159/169/101 160/161/101 165/165/101
f 160/161/102 157/170/102 164/162/102
f 157/170/103 158/158/103 164/162/103
f 158/158/104 156/171/104 163/159/104
f 156/171/105 162/167/105 163/159/105
f 145/172/106 154/173/106 162/167/106
f 154/173/107 161/168/107 162/167/107
f 155/174/108 153/151/108 161/168/108
f 153/151/109 165/165/109 161/168/109
f 159/152/110 152/148/110 160/157/110
f 152/148/111 147/147/111 160/157/111
f 157/156/112 146/146/112 158/155/112
f 156/171/113 145/172/113 162/167/113
f 154/173/114 155/174/114 161/168/114
f 154/175/115 151/149/115 155/153/115
f 147/147/116 146/146/116 157/156/116
f 146/146/117 150/145/117 156/154/117
f 150/145/118 145/176/118 156/154/118
f 148/150/119 151/149/119 152/148/119
f 151/149/120 150/145/120 152/148/120
f 150/145/121 154/175/121 145/176/121
f 150/145/122 151/149/122 154/175/122
