# Blender v2.78 (sub 0) OBJ File: 'Low_Poly_Vegetation_Pack.blend'
# www.blender.org
g Grass_b_TwoS_03
v 0.159899 0.230596 -0.024454
v 0.079645 -0.019230 0.042450
v 0.118278 -0.030912 0.045172
v 0.016151 0.220071 -0.020102
v 0.030871 -0.017399 0.009807
v 0.055994 0.220071 -0.039711
v 0.070714 -0.017399 -0.009802
v -0.020040 0.447245 -0.093638
v -0.001853 0.251407 0.082170
v -0.025270 -0.015542 0.043185
v 0.014993 -0.019257 0.044437
v -0.126721 0.159594 0.023093
v -0.113655 -0.017399 0.044225
v -0.098569 0.159594 0.005688
v -0.085504 -0.017399 0.026820
v -0.158845 0.328913 -0.028864
v -0.062860 0.198926 -0.035863
v -0.084056 -0.017399 -0.014118
v -0.033892 0.198926 -0.007628
v -0.055087 -0.017399 0.014118
v -0.029790 0.405872 -0.083939
v 0.159898 0.230570 -0.024551
v 0.079644 -0.019256 0.042353
v 0.118277 -0.030937 0.045076
v 0.016108 0.220047 -0.020189
v 0.030827 -0.017413 0.009718
v 0.055951 0.220048 -0.039798
v 0.070670 -0.017413 -0.009891
v -0.020081 0.447211 -0.093722
v -0.001849 0.251421 0.082071
v -0.025265 -0.015528 0.043086
v 0.014997 -0.019243 0.044338
v -0.126772 0.159570 0.023011
v -0.113707 -0.017413 0.044141
v -0.098621 0.159571 0.005605
v -0.085556 -0.017413 0.026736
v -0.158895 0.328879 -0.028944
v -0.062792 0.198905 -0.035933
v -0.083987 -0.017413 -0.014189
v -0.033824 0.198906 -0.007698
v -0.055018 -0.017413 0.014047
v -0.029723 0.405845 -0.084008
vt 0.6869 0.6023
vt 0.6756 0.5267
vt 0.6869 0.5250
vt 0.5509 0.5630
vt 0.5509 0.5096
vt 0.5609 0.5096
vt 0.5609 0.5630
vt 0.5509 0.6178
vt 0.5679 0.6023
vt 0.5566 0.5267
vt 0.5679 0.5250
vt 0.5509 0.5630
vt 0.5509 0.5096
vt 0.5609 0.5096
vt 0.5609 0.5630
vt 0.5509 0.6178
vt 0.6700 0.5630
vt 0.6700 0.5096
vt 0.6799 0.5096
vt 0.6799 0.5630
vt 0.6700 0.6178
vt 0.6869 0.6023
vt 0.6869 0.5250
vt 0.6756 0.5267
vt 0.5509 0.5630
vt 0.5609 0.5630
vt 0.5609 0.5096
vt 0.5509 0.5096
vt 0.5509 0.6178
vt 0.5679 0.6023
vt 0.5679 0.5250
vt 0.5566 0.5267
vt 0.5509 0.5630
vt 0.5609 0.5630
vt 0.5609 0.5096
vt 0.5509 0.5096
vt 0.5509 0.6178
vt 0.6700 0.5630
vt 0.6799 0.5630
vt 0.6799 0.5096
vt 0.6700 0.5096
vt 0.6700 0.6178
vn 0.0093 0.2559 0.9667
vn 0.4286 0.2405 0.8709
vn 0.4373 0.1390 0.8885
vn 0.4293 0.2343 0.8722
vn 0.4154 0.3393 0.8440
vn -0.0437 -0.1406 0.9891
vn 0.5104 0.2405 0.8256
vn 0.5208 0.1390 0.8423
vn 0.5112 0.2343 0.8269
vn 0.4946 0.3394 0.8001
vn -0.6832 0.2047 0.7009
vn -0.6912 0.1390 0.7091
vn -0.6840 0.1987 0.7018
vn -0.6725 0.2677 0.6899
vn -0.0093 -0.2559 -0.9667
vn -0.4286 -0.2405 -0.8709
vn -0.4293 -0.2343 -0.8722
vn -0.4373 -0.1390 -0.8885
vn -0.4154 -0.3394 -0.8440
vn 0.0437 0.1406 -0.9891
vn -0.5104 -0.2405 -0.8256
vn -0.5112 -0.2343 -0.8269
vn -0.5208 -0.1390 -0.8423
vn -0.4946 -0.3394 -0.8001
vn 0.6832 -0.2047 -0.7009
vn 0.6840 -0.1987 -0.7018
vn 0.6912 -0.1390 -0.7091
vn 0.6725 -0.2677 -0.6899
s off
f 1/1/1 2/2/1 3/3/1
s 1
f 4/4/2 5/5/3 7/6/3 6/7/4
f 4/4/2 6/7/4 8/8/5
s off
f 9/9/6 10/10/6 11/11/6
s 1
f 12/12/7 13/13/8 15/14/8 14/15/9
f 12/12/7 14/15/9 16/16/10
f 17/17/11 18/18/12 20/19/12 19/20/13
f 17/17/11 19/20/13 21/21/14
s off
f 22/22/15 24/23/15 23/24/15
s 1
f 25/25/16 27/26/17 28/27/18 26/28/18
f 25/25/16 29/29/19 27/26/17
s off
f 30/30/20 32/31/20 31/32/20
s 1
f 33/33/21 35/34/22 36/35/23 34/36/23
f 33/33/21 37/37/24 35/34/22
f 38/38/25 40/39/26 41/40/27 39/41/27
f 38/38/25 42/42/28 40/39/26
