# Blender v2.78 (sub 0) OBJ File: 'Low_Poly_Vegetation_Pack.blend'
# www.blender.org
g Grass_e_TwoS_01
v 0.099711 0.353465 0.299216
v 0.011783 0.242837 0.092028
v 0.034694 0.120870 0.057735
v 0.062697 0.350581 0.179559
v 0.080327 0.122218 0.074477
v 0.051355 0.231019 0.094971
v 0.077320 0.334731 0.181980
v -0.087233 0.417817 -0.134265
v -0.012344 0.296400 -0.051931
v 0.018937 0.127116 -0.043097
v 0.064570 0.126741 -0.012601
v 0.020382 0.298153 -0.036757
v 0.187334 0.336365 -0.174548
v 0.062218 0.214204 -0.029588
v -0.014988 0.147221 0.008826
v 0.032400 0.143771 0.008194
v 0.104300 0.194699 -0.032970
v -0.229655 0.422647 -0.328560
v -0.124815 0.321004 -0.133645
v -0.069679 0.124903 -0.053042
v -0.022475 0.125285 -0.031964
v -0.097253 0.326424 -0.128399
v -0.096763 0.447755 0.016936
v -0.071420 0.275044 0.063662
v -0.099740 0.141317 0.027451
v -0.053348 0.149116 0.028803
v -0.037830 0.271709 0.064923
v 0.014412 -0.055304 0.004286
v 0.070655 -0.061934 0.041870
v 0.002838 -0.055304 -0.039768
v 0.059081 -0.061934 -0.002184
v -0.035325 -0.058965 -0.005897
v 0.032139 -0.058895 -0.005885
v -0.068933 -0.057074 -0.029754
v -0.003370 -0.060172 -0.011833
v -0.059446 -0.059272 0.013714
v 0.008502 -0.058926 0.013775
v 0.099784 0.353529 0.299192
v 0.011813 0.242879 0.091942
v 0.034731 0.120892 0.057645
v 0.062754 0.350642 0.179504
v 0.080363 0.122240 0.074387
v 0.051384 0.231058 0.094883
v 0.077376 0.334792 0.181924
v -0.087192 0.417785 -0.134351
v -0.012299 0.296382 -0.052018
v 0.018990 0.127114 -0.043182
v 0.064624 0.126739 -0.012686
v 0.020430 0.298145 -0.036844
v 0.187302 0.336309 -0.174624
v 0.062196 0.214156 -0.029673
v -0.014993 0.147211 0.008727
v 0.032391 0.143749 0.008097
v 0.104274 0.194648 -0.033051
v -0.229629 0.422568 -0.328615
v -0.124784 0.320943 -0.133718
v -0.069646 0.124882 -0.053134
v -0.022442 0.125268 -0.032057
v -0.097220 0.326376 -0.128480
v -0.096761 0.447729 0.016839
v -0.071418 0.275044 0.063562
v -0.099739 0.141333 0.027352
v -0.053347 0.149134 0.028705
v -0.037829 0.271714 0.064823
v 0.014459 -0.055287 0.004199
v 0.070702 -0.061917 0.041783
v 0.002893 -0.055310 -0.039851
v 0.059136 -0.061940 -0.002267
v -0.035325 -0.058957 -0.005997
v 0.032139 -0.058888 -0.005985
v -0.068901 -0.057083 -0.029848
v -0.003337 -0.060182 -0.011927
v -0.059445 -0.059265 0.013614
v 0.008503 -0.058918 0.013675
vt 0.1815 0.6089
vt 0.1826 0.5944
vt 0.1845 0.5920
vt 0.1829 0.5653
vt 0.1858 0.5650
vt 0.1820 0.5390
vt 0.1797 0.5110
vt 0.1821 0.5107
vt 0.1852 0.5386
vt 0.1815 0.6089
vt 0.1831 0.5797
vt 0.1855 0.5795
vt 0.4477 0.5797
vt 0.4466 0.5390
vt 0.4499 0.5386
vt 0.4502 0.5795
vt 0.3119 0.5390
vt 0.3095 0.5110
vt 0.3120 0.5107
vt 0.3151 0.5386
vt 0.3157 0.5650
vt 0.3127 0.5653
vt 0.3129 0.5797
vt 0.3119 0.5390
vt 0.3151 0.5386
vt 0.3154 0.5795
vt 0.3095 0.5110
vt 0.3120 0.5107
vt 0.4462 0.6089
vt 0.1820 0.5390
vt 0.1797 0.5110
vt 0.1821 0.5107
vt 0.1852 0.5386
vt 0.3114 0.6089
vt 0.4443 0.5110
vt 0.4468 0.5107
vt 0.3114 0.6089
vt 0.1815 0.6089
vt 0.1845 0.5920
vt 0.1826 0.5944
vt 0.1858 0.5650
vt 0.1829 0.5653
vt 0.1820 0.5390
vt 0.1852 0.5386
vt 0.1821 0.5107
vt 0.1797 0.5110
vt 0.1815 0.6089
vt 0.1855 0.5795
vt 0.1831 0.5797
vt 0.4477 0.5797
vt 0.4502 0.5795
vt 0.4499 0.5386
vt 0.4466 0.5390
vt 0.3119 0.5390
vt 0.3151 0.5386
vt 0.3120 0.5107
vt 0.3095 0.5110
vt 0.3127 0.5653
vt 0.3157 0.5650
vt 0.3129 0.5797
vt 0.3154 0.5795
vt 0.3151 0.5386
vt 0.3119 0.5390
vt 0.3120 0.5107
vt 0.3095 0.5110
vt 0.4462 0.6089
vt 0.1820 0.5390
vt 0.1852 0.5386
vt 0.1821 0.5107
vt 0.1797 0.5110
vt 0.3114 0.6089
vt 0.4468 0.5107
vt 0.4443 0.5110
vt 0.3114 0.6089
vn -0.7313 -0.6378 0.2416
vn -0.5663 -0.6140 0.5499
vn -0.5569 -0.6110 0.5625
vn -0.3042 -0.4161 0.8569
vn -0.2924 -0.3856 0.8751
vn -0.5271 0.0158 0.8496
vn -0.5515 0.0629 0.8318
vn -0.5306 0.0224 0.8473
vn -0.4122 0.3233 0.8517
vn -0.4553 0.1877 0.8703
vn -0.4822 0.0800 0.8724
vn -0.0138 0.0054 0.9999
vn -0.0113 -0.1590 0.9872
vn -0.0121 -0.1760 0.9843
vn -0.0144 -0.0436 0.9989
vn 0.0548 0.1017 0.9933
vn 0.0033 -0.0704 0.9975
vn 0.0913 0.2248 0.9701
vn 0.2577 0.5139 0.8182
vn 0.2172 0.4797 0.8501
vn -0.3065 0.6149 0.7266
vn -0.3331 0.2044 0.9204
vn -0.3306 0.1713 0.9281
vn -0.3250 0.4865 0.8109
vn -0.3234 0.0938 0.9416
vn -0.0105 0.2597 0.9656
vn -0.3684 -0.2209 0.9030
vn -0.4706 -0.1678 0.8662
vn -0.3630 -0.2235 0.9045
vn -0.2609 0.7913 0.5530
vn -0.0072 -0.0720 0.9974
vn 0.3237 0.5671 0.7573
vn 0.7313 0.6378 -0.2416
vn 0.5570 0.6110 -0.5625
vn 0.5663 0.6140 -0.5499
vn 0.2924 0.3856 -0.8751
vn 0.3042 0.4161 -0.8569
vn 0.5271 -0.0158 -0.8497
vn 0.5306 -0.0224 -0.8473
vn 0.5515 -0.0629 -0.8318
vn 0.4123 -0.3233 -0.8517
vn 0.4822 -0.0800 -0.8724
vn 0.4553 -0.1877 -0.8703
vn 0.0139 -0.0054 -0.9999
vn 0.0144 0.0436 -0.9989
vn 0.0121 0.1760 -0.9843
vn 0.0113 0.1590 -0.9872
vn -0.0548 -0.1017 -0.9933
vn -0.0913 -0.2248 -0.9701
vn -0.0033 0.0704 -0.9975
vn -0.2172 -0.4797 -0.8501
vn -0.2577 -0.5139 -0.8182
vn 0.3066 -0.6147 -0.7267
vn 0.3251 -0.4866 -0.8109
vn 0.3306 -0.1713 -0.9281
vn 0.3331 -0.2044 -0.9204
vn 0.3234 -0.0938 -0.9416
vn 0.0105 -0.2597 -0.9656
vn 0.3684 0.2209 -0.9030
vn 0.3630 0.2235 -0.9045
vn 0.4706 0.1678 -0.8662
vn 0.2610 -0.7912 -0.5530
vn 0.0072 0.0720 -0.9974
vn -0.3237 -0.5671 -0.7573
s 1
f 1/1/1 4/2/2 7/3/3
f 4/2/2 2/4/4 6/5/5 7/3/3
f 10/6/6 30/7/7 31/8/7 11/9/8
f 8/10/9 9/11/10 12/12/11
f 12/12/11 9/11/10 10/6/6 11/9/8
f 24/13/12 25/14/13 26/15/14 27/16/15
f 15/17/16 32/18/17 33/19/17 16/20/18
f 15/17/16 16/20/18 17/21/19 14/22/20
f 19/23/21 20/24/22 21/25/23 22/26/24
f 20/24/22 34/27/25 35/28/25 21/25/23
f 23/29/26 24/13/12 27/16/15
f 3/30/27 28/31/28 29/32/28 5/33/29
f 18/34/30 19/23/21 22/26/24
f 25/14/13 36/35/31 37/36/31 26/15/14
f 3/30/27 5/33/29 6/5/5 2/4/4
f 13/37/32 14/22/20 17/21/19
f 38/38/33 44/39/34 41/40/35
f 41/40/35 44/39/34 43/41/36 39/42/37
f 47/43/38 48/44/39 68/45/40 67/46/40
f 45/47/41 49/48/42 46/49/43
f 49/48/42 48/44/39 47/43/38 46/49/43
f 61/50/44 64/51/45 63/52/46 62/53/47
f 52/54/48 53/55/49 70/56/50 69/57/50
f 52/54/48 51/58/51 54/59/52 53/55/49
f 56/60/53 59/61/54 58/62/55 57/63/56
f 57/63/56 58/62/55 72/64/57 71/65/57
f 60/66/58 64/51/45 61/50/44
f 40/67/59 42/68/60 66/69/61 65/70/61
f 55/71/62 59/61/54 56/60/53
f 62/53/47 63/52/46 74/72/63 73/73/63
f 40/67/59 39/42/37 43/41/36 42/68/60
f 50/74/64 54/59/52 51/58/51
