# Blender v2.78 (sub 0) OBJ File: 'Low_Poly_Vegetation_Pack.blend'
# www.blender.org
g Grass_h_TwoS_06
v 0.074922 0.294554 -0.021117
v 0.010117 0.199835 -0.193144
v 0.026156 0.195045 -0.191952
v -0.086610 0.348181 -0.364200
v -0.012699 0.208317 -0.289183
v -0.002493 0.208648 -0.284194
v 0.156112 0.280304 -0.410390
v -0.001830 0.121908 -0.257720
v 0.016340 0.120586 -0.257962
v -0.175030 0.352206 -0.541510
v -0.061693 0.156895 -0.342350
v -0.047440 0.157010 -0.335986
v -0.080635 0.373129 -0.248647
v -0.072681 0.119519 -0.239580
v -0.054893 0.122509 -0.239062
v 0.022539 -0.048291 -0.254396
v 0.032008 -0.049407 -0.248069
v 0.007149 -0.048291 -0.272956
v 0.016618 -0.049407 -0.266629
v -0.007006 -0.049114 -0.269843
v 0.004352 -0.049102 -0.269841
v -0.019295 -0.048592 -0.286546
v -0.008257 -0.049113 -0.283529
v -0.026946 -0.049278 -0.251312
v -0.015507 -0.049220 -0.251301
v -0.491688 0.142335 0.227879
v -0.358579 0.197747 0.139698
v -0.367474 0.189677 0.138715
v -0.395049 0.274105 -0.026901
v -0.264468 0.144984 0.034729
v -0.247149 0.142543 0.036904
v -0.341507 0.220773 0.244813
v -0.233408 0.124554 0.076426
v -0.251378 0.123086 0.074417
v -0.412573 0.380712 -0.046550
v -0.266034 0.233798 -0.005623
v -0.249748 0.238052 0.002979
v -0.219523 -0.033494 0.060810
v -0.239436 -0.033681 0.058635
v -0.234644 -0.034143 0.047954
v -0.216900 -0.033816 0.059868
v -0.234800 -0.033057 0.058865
v -0.254656 -0.033372 0.056689
v -0.238049 -0.033245 0.045668
v -0.221568 -0.033225 0.056734
v 0.022489 0.119081 0.159267
v -0.102289 0.167303 0.098127
v -0.099113 0.160280 0.105238
v -0.030877 0.208029 0.039057
v -0.162467 0.154999 0.038141
v -0.157540 0.153403 0.049370
v -0.222705 -0.033936 0.028431
v -0.215577 -0.034098 0.044339
v -0.217444 -0.033555 0.040757
v -0.210341 -0.033829 0.056623
v 0.265589 0.299179 -0.005925
v 0.317866 0.161025 0.155100
v 0.332421 0.159434 0.146501
v 0.132466 0.186086 0.418156
v 0.191600 0.173021 0.277917
v 0.201382 0.180798 0.274754
v 0.063611 0.328390 0.104003
v 0.187381 0.210715 0.167534
v 0.202780 0.207579 0.164300
v 0.420013 0.339639 0.376863
v 0.285887 0.216475 0.278856
v 0.295248 0.211965 0.270776
v 0.219177 0.263248 0.055242
v 0.264099 0.161939 0.178861
v 0.278448 0.160354 0.170385
v 0.021284 0.280655 0.299001
v 0.249555 0.144400 0.259584
v 0.266943 0.143126 0.249460
v 0.344497 0.159839 -0.050973
v 0.276524 0.152132 0.136689
v 0.292183 0.149125 0.127334
v 0.292624 -0.028648 0.206780
v 0.306510 -0.028903 0.198481
v 0.226187 -0.028415 0.240961
v 0.242369 -0.028415 0.241887
v 0.245396 -0.028415 0.229472
v 0.261579 -0.028415 0.230399
v 0.291271 -0.028415 0.254062
v 0.307454 -0.028415 0.254988
v 0.276809 -0.028645 0.207842
v 0.290671 -0.028900 0.199558
v 0.276449 -0.029523 0.241679
v 0.291279 -0.029259 0.232810
v 0.251003 -0.028999 0.188947
v 0.264901 -0.029150 0.180634
v -0.320566 0.273467 0.407249
v -0.114367 -0.026132 0.489026
v -0.100333 -0.026132 0.489026
v -0.192919 0.217853 0.469831
v -0.181326 0.218709 0.469937
v -0.412663 0.134248 0.445949
v -0.180423 -0.026463 0.467541
v -0.166527 -0.026449 0.467541
v -0.222095 0.113424 0.455803
v -0.210375 0.123688 0.454675
v 0.149994 0.187398 0.271866
v -0.106593 -0.026463 0.467541
v -0.092663 -0.026449 0.467541
v -0.039597 0.129467 0.411933
v -0.030776 0.123578 0.414607
v -0.265781 0.376746 0.423535
v -0.159683 -0.026132 0.505312
v -0.145649 -0.026132 0.505312
v -0.264799 0.261898 0.486117
v -0.250866 0.260235 0.486223
v 0.073940 0.325663 0.271866
v -0.156518 -0.026463 0.467541
v -0.142587 -0.026449 0.467541
v -0.089402 0.255365 0.383082
v -0.078876 0.250409 0.382565
v 0.074949 0.294633 -0.021172
v 0.010149 0.199891 -0.193221
v 0.026188 0.195098 -0.192030
v -0.086567 0.348157 -0.364287
v -0.012653 0.208302 -0.289270
v -0.002445 0.208638 -0.284281
v 0.156106 0.280238 -0.410464
v -0.001833 0.121885 -0.257817
v 0.016337 0.120548 -0.258054
v -0.174996 0.352149 -0.541585
v -0.061658 0.156852 -0.342433
v -0.047405 0.156980 -0.336074
v -0.080632 0.373126 -0.248747
v -0.072679 0.119521 -0.239680
v -0.054890 0.122511 -0.239162
v 0.022572 -0.048268 -0.254488
v 0.032040 -0.049384 -0.248161
v 0.007199 -0.048293 -0.273043
v 0.016668 -0.049409 -0.266715
v -0.007007 -0.049107 -0.269943
v 0.004351 -0.049095 -0.269941
v -0.019261 -0.048609 -0.286639
v -0.008223 -0.049131 -0.283622
v -0.026945 -0.049271 -0.251411
v -0.015506 -0.049213 -0.251401
v -0.491630 0.142266 0.227923
v -0.358558 0.197697 0.139782
v -0.367438 0.189618 0.138787
v -0.395042 0.274067 -0.026994
v -0.264451 0.144957 0.034634
v -0.247119 0.142531 0.036809
v -0.341505 0.220687 0.244864
v -0.233414 0.124504 0.076512
v -0.251383 0.123029 0.074499
v -0.412531 0.380729 -0.046639
v -0.265987 0.233803 -0.005711
v -0.249699 0.238052 0.002891
v -0.219524 -0.033528 0.060904
v -0.239436 -0.033714 0.058729
v -0.234607 -0.034146 0.047861
v -0.216863 -0.033819 0.059776
v -0.234810 -0.033068 0.058964
v -0.254666 -0.033383 0.056788
v -0.237996 -0.033256 0.045583
v -0.221516 -0.033236 0.056649
v 0.022498 0.119012 0.159195
v -0.102227 0.167253 0.098066
v -0.099069 0.160221 0.105170
v -0.030841 0.207940 0.039028
v -0.162396 0.154940 0.038103
v -0.157474 0.153338 0.049333
v -0.222624 -0.033969 0.028384
v -0.215495 -0.034132 0.044292
v -0.217356 -0.033582 0.040717
v -0.210253 -0.033855 0.056582
v 0.265550 0.299103 -0.005977
v 0.317817 0.160979 0.155026
v 0.332373 0.159383 0.146429
v 0.132401 0.186154 0.418123
v 0.191555 0.173069 0.277842
v 0.201340 0.180843 0.274676
v 0.063583 0.328323 0.103934
v 0.187358 0.210660 0.167454
v 0.202764 0.207540 0.164209
v 0.419993 0.339713 0.376799
v 0.285863 0.216524 0.278772
v 0.295222 0.212003 0.270687
v 0.219139 0.263170 0.055192
v 0.264051 0.161889 0.178789
v 0.278400 0.160304 0.170313
v 0.021239 0.280600 0.298931
v 0.249506 0.144363 0.259505
v 0.266892 0.143114 0.249375
v 0.344470 0.159743 -0.050986
v 0.276473 0.152085 0.136617
v 0.292140 0.149048 0.127287
v 0.292572 -0.028664 0.206695
v 0.306458 -0.028919 0.198397
v 0.226174 -0.028401 0.240863
v 0.242357 -0.028401 0.241789
v 0.245386 -0.028443 0.229377
v 0.261569 -0.028443 0.230303
v 0.291246 -0.028408 0.253965
v 0.307428 -0.028408 0.254892
v 0.276758 -0.028662 0.207758
v 0.290620 -0.028916 0.199474
v 0.276398 -0.029522 0.241593
v 0.291228 -0.029257 0.232724
v 0.250951 -0.029016 0.188863
v 0.264850 -0.029167 0.180551
v -0.320561 0.273398 0.407176
v -0.114366 -0.026140 0.488926
v -0.100332 -0.026140 0.488926
v -0.192915 0.217803 0.469744
v -0.181324 0.218686 0.469839
v -0.412659 0.134233 0.445850
v -0.180424 -0.026472 0.467441
v -0.166528 -0.026457 0.467441
v -0.222094 0.113412 0.455704
v -0.210374 0.123677 0.454576
v 0.149967 0.187327 0.271801
v -0.106591 -0.026497 0.467447
v -0.092660 -0.026483 0.467447
v -0.039609 0.129414 0.411849
v -0.030789 0.123523 0.414524
v -0.265786 0.376698 0.423448
v -0.159683 -0.026139 0.505213
v -0.145649 -0.026139 0.505213
v -0.264802 0.261866 0.486023
v -0.250868 0.260211 0.486126
v 0.073911 0.325609 0.271788
v -0.156525 -0.026491 0.467445
v -0.142595 -0.026476 0.467445
v -0.089419 0.255325 0.382992
v -0.078896 0.250366 0.382477
vt 0.1858 0.5650
vt 0.1829 0.5653
vt 0.1797 0.5110
vt 0.1821 0.5107
vt 0.1815 0.6089
vt 0.1815 0.6089
vt 0.1826 0.5706
vt 0.1851 0.5704
vt 0.1797 0.5110
vt 0.1821 0.5107
vt 0.3119 0.5390
vt 0.3095 0.5110
vt 0.3120 0.5107
vt 0.3151 0.5386
vt 0.4462 0.6089
vt 0.4466 0.5390
vt 0.4499 0.5386
vt 0.3118 0.5539
vt 0.3095 0.5110
vt 0.3120 0.5107
vt 0.3143 0.5536
vt 0.4443 0.5110
vt 0.4468 0.5107
vt 0.3114 0.6089
vt 0.3114 0.6089
vt 0.4346 0.5815
vt 0.4314 0.5168
vt 0.4337 0.5165
vt 0.4369 0.5814
vt 0.1747 0.5680
vt 0.1717 0.5168
vt 0.1741 0.5165
vt 0.1775 0.5676
vt 0.0561 0.5432
vt 0.0539 0.5168
vt 0.0562 0.5165
vt 0.0592 0.5428
vt 0.1735 0.6091
vt 0.3108 0.5676
vt 0.3081 0.5680
vt 0.3050 0.5168
vt 0.3074 0.5165
vt 0.3072 0.5432
vt 0.3050 0.5168
vt 0.3074 0.5165
vt 0.3103 0.5428
vt 0.4331 0.6091
vt 0.3068 0.6091
vt 0.4369 0.5814
vt 0.4346 0.5815
vt 0.4314 0.5168
vt 0.4337 0.5165
vt 0.4331 0.6091
vt 0.3068 0.6091
vt 0.0557 0.6091
vt 0.3199 0.6161
vt 0.3213 0.5686
vt 0.3245 0.5682
vt 0.4229 0.5686
vt 0.4194 0.5094
vt 0.4221 0.5091
vt 0.4261 0.5682
vt 0.0618 0.6161
vt 0.0623 0.5400
vt 0.0658 0.5396
vt 0.1963 0.5542
vt 0.1931 0.5094
vt 0.1958 0.5091
vt 0.1997 0.5538
vt 0.4214 0.6161
vt 0.3211 0.5542
vt 0.3245 0.5538
vt 0.3199 0.6161
vt 0.0618 0.6161
vt 0.0630 0.5542
vt 0.0664 0.5538
vt 0.3178 0.5094
vt 0.3205 0.5091
vt 0.1951 0.6161
vt 0.1965 0.5686
vt 0.1997 0.5682
vt 0.0597 0.5094
vt 0.0624 0.5091
vt 0.3178 0.5094
vt 0.3205 0.5091
vt 0.0597 0.5094
vt 0.0624 0.5091
vt 0.1931 0.5094
vt 0.1958 0.5091
vt 0.1967 0.6043
vt 0.4257 0.5554
vt 0.4236 0.5142
vt 0.4261 0.5139
vt 0.4282 0.5542
vt 0.3015 0.6131
vt 0.3030 0.5835
vt 0.3055 0.5834
vt 0.1837 0.5407
vt 0.1814 0.5142
vt 0.1840 0.5139
vt 0.1871 0.5421
vt 0.2996 0.5142
vt 0.3021 0.5139
vt 0.4255 0.6131
vt 0.1833 0.6131
vt 0.1842 0.5699
vt 0.1867 0.5697
vt 0.1840 0.5139
vt 0.1814 0.5142
vt 0.0515 0.6131
vt 0.0530 0.5835
vt 0.0555 0.5834
vt 0.1841 0.5863
vt 0.0521 0.5139
vt 0.0496 0.5142
vt 0.1858 0.5650
vt 0.1821 0.5107
vt 0.1797 0.5110
vt 0.1829 0.5653
vt 0.1815 0.6089
vt 0.1815 0.6089
vt 0.1851 0.5704
vt 0.1826 0.5706
vt 0.1821 0.5107
vt 0.1797 0.5110
vt 0.3119 0.5390
vt 0.3151 0.5386
vt 0.3120 0.5107
vt 0.3095 0.5110
vt 0.4462 0.6089
vt 0.4499 0.5386
vt 0.4466 0.5390
vt 0.3118 0.5539
vt 0.3143 0.5536
vt 0.3120 0.5107
vt 0.3095 0.5110
vt 0.4468 0.5107
vt 0.4443 0.5110
vt 0.3114 0.6089
vt 0.3114 0.6089
vt 0.4346 0.5815
vt 0.4369 0.5814
vt 0.4337 0.5165
vt 0.4314 0.5168
vt 0.1747 0.5680
vt 0.1775 0.5676
vt 0.1741 0.5165
vt 0.1717 0.5168
vt 0.0561 0.5432
vt 0.0592 0.5428
vt 0.0562 0.5165
vt 0.0539 0.5168
vt 0.1735 0.6091
vt 0.3108 0.5676
vt 0.3074 0.5165
vt 0.3050 0.5168
vt 0.3081 0.5680
vt 0.3072 0.5432
vt 0.3103 0.5428
vt 0.3074 0.5165
vt 0.3050 0.5168
vt 0.4331 0.6091
vt 0.3068 0.6091
vt 0.4369 0.5814
vt 0.4337 0.5165
vt 0.4314 0.5168
vt 0.4346 0.5815
vt 0.4331 0.6091
vt 0.3068 0.6091
vt 0.0557 0.6091
vt 0.3199 0.6161
vt 0.3245 0.5682
vt 0.3213 0.5686
vt 0.4229 0.5686
vt 0.4261 0.5682
vt 0.4221 0.5091
vt 0.4194 0.5094
vt 0.0618 0.6161
vt 0.0658 0.5396
vt 0.0623 0.5400
vt 0.1963 0.5542
vt 0.1997 0.5538
vt 0.1958 0.5091
vt 0.1931 0.5094
vt 0.4214 0.6161
vt 0.3211 0.5542
vt 0.3199 0.6161
vt 0.3245 0.5538
vt 0.0618 0.6161
vt 0.0664 0.5538
vt 0.0630 0.5542
vt 0.3205 0.5091
vt 0.3178 0.5094
vt 0.1951 0.6161
vt 0.1997 0.5682
vt 0.1965 0.5686
vt 0.0624 0.5091
vt 0.0597 0.5094
vt 0.3205 0.5091
vt 0.3178 0.5094
vt 0.0624 0.5091
vt 0.0597 0.5094
vt 0.1958 0.5091
vt 0.1931 0.5094
vt 0.1967 0.6043
vt 0.4257 0.5554
vt 0.4282 0.5542
vt 0.4261 0.5139
vt 0.4236 0.5142
vt 0.3015 0.6131
vt 0.3055 0.5834
vt 0.3030 0.5835
vt 0.1837 0.5407
vt 0.1871 0.5421
vt 0.1840 0.5139
vt 0.1814 0.5142
vt 0.3021 0.5139
vt 0.2996 0.5142
vt 0.4255 0.6131
vt 0.1833 0.6131
vt 0.1867 0.5697
vt 0.1842 0.5699
vt 0.1840 0.5139
vt 0.1814 0.5142
vt 0.0515 0.6131
vt 0.0555 0.5834
vt 0.0530 0.5835
vt 0.1841 0.5863
vt 0.0521 0.5139
vt 0.0496 0.5142
vn -0.3205 -0.5328 0.7832
vn -0.3188 -0.5538 0.7692
vn -0.3239 -0.2306 0.9175
vn -0.2773 -0.7937 0.5415
vn -0.4328 0.2377 0.8696
vn -0.4625 0.1486 0.8741
vn -0.4770 0.0997 0.8732
vn -0.4979 0.0192 0.8670
vn 0.0280 0.2356 0.9714
vn 0.0050 -0.0705 0.9975
vn 0.0382 0.3763 0.9257
vn -0.0349 0.0346 0.9988
vn -0.0226 -0.0198 0.9995
vn -0.0227 -0.0190 0.9995
vn -0.3471 0.4331 0.8318
vn -0.3399 0.1756 0.9239
vn -0.3468 0.3088 0.8856
vn -0.0104 -0.0728 0.9973
vn -0.3395 0.5677 0.7499
vn 0.0581 0.6621 0.7471
vn -0.2108 0.4982 -0.8410
vn 0.0076 0.3340 -0.9425
vn -0.3587 0.5913 -0.7223
vn -0.4715 -0.0523 0.8803
vn -0.5220 0.1105 0.8457
vn -0.4899 0.0016 0.8718
vn -0.1705 0.2677 0.9483
vn -0.3710 0.0318 0.9281
vn -0.3026 0.1175 0.9458
vn -0.4237 -0.1750 0.8887
vn -0.6607 0.6503 0.3748
vn -0.7077 0.5918 0.3858
vn -0.8753 0.2617 0.4067
vn 0.0570 0.5024 -0.8627
vn 0.1042 0.1095 -0.9885
vn 0.0469 0.5672 -0.8222
vn -0.5771 0.6893 -0.4379
vn -0.0144 0.8641 -0.5030
vn -0.4418 0.5913 0.6746
vn -0.6190 0.4982 0.6071
vn -0.8170 0.3340 0.4700
vn -0.0860 0.6894 0.7193
vn -0.3601 0.8885 0.2843
vn -0.0628 0.3775 0.9239
vn 0.6502 -0.6806 0.3376
vn 0.4516 -0.4783 0.7532
vn 0.4272 -0.4532 0.7823
vn 0.2252 0.5526 0.8025
vn 0.0977 0.2813 0.9546
vn 0.1515 0.3968 0.9053
vn 0.4498 0.5501 0.7035
vn 0.4887 0.3738 0.7883
vn 0.5100 0.1218 0.8515
vn 0.5100 0.4660 0.7230
vn 0.5189 0.1698 0.8378
vn 0.4249 0.7712 0.4740
vn 0.2808 0.6676 0.6895
vn 0.4859 0.4633 0.7411
vn 0.4768 0.5092 0.7165
vn 0.3916 0.7573 0.5226
vn 0.3809 0.7782 0.4993
vn 0.4785 0.5025 0.7201
vn 0.4800 0.4952 0.7241
vn 0.1275 -0.1434 0.9814
vn 0.2033 -0.7356 0.6461
vn 0.2423 -0.4936 0.8352
vn 0.2517 -0.3791 0.8904
vn 0.5075 -0.0109 0.8615
vn 0.5118 0.1621 0.8437
vn 0.5118 0.1627 0.8436
vn 0.2573 -0.0713 0.9637
vn 0.2639 0.9550 0.1348
vn 0.1217 0.5343 0.8365
vn -0.0219 0.3424 0.9393
vn 0.1318 0.5468 0.8268
vn -0.0573 0.6854 0.7259
vn -0.0419 0.5004 0.8648
vn -0.0198 0.2339 0.9720
vn -0.0145 0.1200 0.9926
vn 0.0089 0.0871 0.9962
vn -0.0089 0.1122 0.9936
vn -0.0067 0.0759 0.9971
vn 0.2705 0.7035 0.6571
vn 0.2965 0.5482 0.7820
vn 0.1683 0.3922 0.9043
vn 0.2008 0.4327 0.8789
vn 0.0755 0.2731 0.9590
vn 0.0504 0.4782 0.8768
vn 0.0313 0.3227 0.9460
vn 0.0206 0.2358 0.9716
vn -0.0349 0.1484 0.9883
vn 0.0002 0.0666 0.9978
vn 0.3205 0.5327 -0.7832
vn 0.3239 0.2307 -0.9175
vn 0.3188 0.5538 -0.7692
vn 0.2773 0.7936 -0.5415
vn 0.4328 -0.2376 -0.8696
vn 0.4770 -0.0997 -0.8732
vn 0.4625 -0.1486 -0.8740
vn 0.4979 -0.0192 -0.8670
vn -0.0280 -0.2357 -0.9714
vn -0.0383 -0.3760 -0.9258
vn -0.0048 0.0705 -0.9975
vn 0.0349 -0.0346 -0.9988
vn 0.0227 0.0190 -0.9995
vn 0.0226 0.0198 -0.9995
vn 0.3472 -0.4329 -0.8318
vn 0.3468 -0.3089 -0.8856
vn 0.3398 -0.1756 -0.9239
vn 0.0104 0.0728 -0.9973
vn 0.3397 -0.5676 -0.7499
vn -0.0585 -0.6620 -0.7472
vn 0.2112 -0.4983 0.8409
vn 0.3585 -0.5907 0.7229
vn -0.0078 -0.3341 0.9425
vn 0.4715 0.0523 -0.8803
vn 0.4899 -0.0016 -0.8717
vn 0.5220 -0.1105 -0.8457
vn 0.1708 -0.2675 -0.9483
vn 0.3025 -0.1176 -0.9459
vn 0.3709 -0.0318 -0.9281
vn 0.4237 0.1750 -0.8887
vn 0.6608 -0.6501 -0.3750
vn 0.8753 -0.2617 -0.4066
vn 0.7076 -0.5919 -0.3858
vn -0.0569 -0.5025 0.8627
vn -0.0469 -0.5670 0.8223
vn -0.1043 -0.1094 0.9885
vn 0.5774 -0.6886 0.4387
vn 0.0146 -0.8641 0.5030
vn 0.4425 -0.5906 -0.6748
vn 0.8171 -0.3341 -0.4697
vn 0.6186 -0.4983 -0.6074
vn 0.0866 -0.6885 -0.7201
vn 0.3599 -0.8885 -0.2845
vn 0.0631 -0.3771 -0.9240
vn -0.6501 0.6807 -0.3376
vn -0.4270 0.4532 -0.7824
vn -0.4516 0.4784 -0.7531
vn -0.2250 -0.5523 -0.8027
vn -0.1516 -0.3970 -0.9052
vn -0.0978 -0.2813 -0.9546
vn -0.4496 -0.5496 -0.7040
vn -0.5100 -0.1220 -0.8514
vn -0.4886 -0.3732 -0.7886
vn -0.5099 -0.4664 -0.7228
vn -0.4259 -0.7702 -0.4747
vn -0.5184 -0.1699 -0.8381
vn -0.2805 -0.6674 -0.6898
vn -0.4859 -0.4633 -0.7410
vn -0.3916 -0.7573 -0.5225
vn -0.4768 -0.5091 -0.7165
vn -0.3809 -0.7782 -0.4993
vn -0.4800 -0.4952 -0.7241
vn -0.4785 -0.5025 -0.7201
vn -0.1276 0.1434 -0.9814
vn -0.2031 0.7355 -0.6464
vn -0.2517 0.3789 -0.8905
vn -0.2422 0.4937 -0.8352
vn -0.5077 0.0109 -0.8614
vn -0.5117 -0.1621 -0.8437
vn -0.5118 -0.1627 -0.8436
vn -0.2575 0.0713 -0.9636
vn -0.2656 -0.9545 -0.1352
vn -0.1218 -0.5343 -0.8365
vn -0.1318 -0.5468 -0.8268
vn 0.0220 -0.3424 -0.9393
vn 0.0581 -0.6844 -0.7267
vn 0.0198 -0.2343 -0.9720
vn 0.0423 -0.4993 -0.8654
vn 0.0145 -0.1200 -0.9926
vn 0.0089 -0.1122 -0.9936
vn -0.0089 -0.0871 -0.9962
vn 0.0063 -0.0760 -0.9971
vn -0.2705 -0.7035 -0.6571
vn -0.2966 -0.5481 -0.7820
vn -0.2008 -0.4326 -0.8789
vn -0.1684 -0.3922 -0.9043
vn -0.0754 -0.2731 -0.9590
vn -0.0503 -0.4782 -0.8768
vn -0.0206 -0.2359 -0.9716
vn -0.0312 -0.3227 -0.9460
vn 0.0349 -0.1484 -0.9883
vn -0.0002 -0.0666 -0.9978
s 1
f 3/1/1 2/2/2 16/3/3 17/4/3
f 1/5/4 2/2/2 3/1/1
f 4/6/5 5/7/6 6/8/7
f 6/8/7 5/7/6 18/9/8 19/10/8
f 8/11/9 20/12/10 21/13/10 9/14/11
f 13/15/12 14/16/13 15/17/14
f 11/18/15 22/19/16 23/20/16 12/21/17
f 14/16/13 24/22/18 25/23/18 15/17/14
f 10/24/19 11/18/15 12/21/17
f 7/25/20 8/11/9 9/14/11
f 27/26/21 38/27/22 39/28/22 28/29/23
f 36/30/24 44/31/25 45/32/25 37/33/26
f 30/34/27 40/35/28 41/36/28 31/37/29
f 35/38/30 36/30/24 37/33/26
f 51/39/31 50/40/32 54/41/33 55/42/33
f 33/43/34 42/44/35 43/45/35 34/46/36
f 26/47/37 27/26/21 28/29/23
f 32/48/38 33/43/34 34/46/36
f 48/49/39 47/50/40 52/51/41 53/52/41
f 46/53/42 47/50/40 48/49/39
f 49/54/43 50/40/32 51/39/31
f 29/55/44 30/34/27 31/37/29
f 59/56/45 60/57/46 61/58/47
f 63/59/48 81/60/49 82/61/49 64/62/50
f 71/63/51 72/64/52 73/65/53
f 75/66/54 89/67/55 90/68/55 76/69/56
f 62/70/57 63/59/48 64/62/50
f 57/71/58 58/72/59 56/73/60
f 68/74/61 69/75/62 70/76/63
f 60/57/46 79/77/64 80/78/64 61/58/47
f 65/79/65 66/80/66 67/81/67
f 72/64/52 87/82/68 88/83/68 73/65/53
f 57/71/58 77/84/69 78/85/69 58/72/59
f 69/75/62 85/86/70 86/87/70 70/76/63
f 66/80/66 83/88/71 84/89/71 67/81/67
f 74/90/72 75/66/54 76/69/56
f 104/91/73 102/92/74 103/93/74 105/94/75
f 91/95/76 94/96/77 95/97/78
f 99/98/79 97/99/80 98/100/80 100/101/81
f 94/96/77 92/102/82 93/103/82 95/97/78
f 101/104/83 104/91/73 105/94/75
f 111/105/84 114/106/85 115/107/86
f 113/108/87 115/107/86 114/106/85 112/109/87
f 106/110/88 109/111/89 110/112/90
f 99/98/79 100/101/81 96/113/91
f 108/114/92 110/112/90 109/111/89 107/115/92
f 118/116/93 132/117/94 131/118/94 117/119/95
f 116/120/96 118/116/93 117/119/95
f 119/121/97 121/122/98 120/123/99
f 121/122/98 134/124/100 133/125/100 120/123/99
f 123/126/101 124/127/102 136/128/103 135/129/103
f 128/130/104 130/131/105 129/132/106
f 126/133/107 127/134/108 138/135/109 137/136/109
f 129/132/106 130/131/105 140/137/110 139/138/110
f 125/139/111 127/134/108 126/133/107
f 122/140/112 124/127/102 123/126/101
f 142/141/113 143/142/114 154/143/115 153/144/115
f 151/145/116 152/146/117 160/147/118 159/148/118
f 145/149/119 146/150/120 156/151/121 155/152/121
f 150/153/122 152/146/117 151/145/116
f 166/154/123 170/155/124 169/156/124 165/157/125
f 148/158/126 149/159/127 158/160/128 157/161/128
f 141/162/129 143/142/114 142/141/113
f 147/163/130 149/159/127 148/158/126
f 163/164/131 168/165/132 167/166/132 162/167/133
f 161/168/134 163/164/131 162/167/133
f 164/169/135 166/154/123 165/157/125
f 144/170/136 146/150/120 145/149/119
f 174/171/137 176/172/138 175/173/139
f 178/174/140 179/175/141 197/176/142 196/177/142
f 186/178/143 188/179/144 187/180/145
f 190/181/146 191/182/147 205/183/148 204/184/148
f 177/185/149 179/175/141 178/174/140
f 172/186/150 171/187/151 173/188/152
f 183/189/153 185/190/154 184/191/155
f 175/173/139 176/172/138 195/192/156 194/193/156
f 180/194/157 182/195/158 181/196/159
f 187/180/145 188/179/144 203/197/160 202/198/160
f 172/186/150 173/188/152 193/199/161 192/200/161
f 184/191/155 185/190/154 201/201/162 200/202/162
f 181/196/159 182/195/158 199/203/163 198/204/163
f 189/205/164 191/182/147 190/181/146
f 219/206/165 220/207/166 218/208/167 217/209/167
f 206/210/168 210/211/169 209/212/170
f 214/213/171 215/214/172 213/215/173 212/216/173
f 209/212/170 210/211/169 208/217/174 207/218/174
f 216/219/175 220/207/166 219/206/165
f 226/220/176 230/221/177 229/222/178
f 228/223/179 227/224/179 229/222/178 230/221/177
f 221/225/180 225/226/181 224/227/182
f 214/213/171 211/228/183 215/214/172
f 223/229/184 222/230/184 224/227/182 225/226/181
