# Blender v2.78 (sub 0) OBJ File: 'Low_Poly_Vegetation_Pack.blend'
# www.blender.org
g Grass_b_TwoS_02
v 0.056097 0.176713 0.024506
v -0.006841 -0.011635 0.025524
v 0.051264 0.178525 0.060917
v -0.011675 -0.009823 0.061935
v 0.156703 0.349503 0.029264
v -0.077725 0.155625 -0.017785
v -0.047212 -0.017837 0.012610
v -0.049626 0.157521 -0.035172
v -0.019113 -0.015941 -0.004777
v -0.126281 0.317951 -0.078556
v 0.002345 0.207304 -0.019289
v -0.022190 -0.009699 -0.014143
v 0.031696 0.204643 0.008421
v 0.007161 -0.012360 0.013567
v 0.057194 0.416950 -0.057251
v 0.056188 0.176672 0.024520
v -0.006747 -0.011666 0.025538
v 0.051354 0.178484 0.060931
v -0.011581 -0.009854 0.061949
v 0.156789 0.349453 0.029278
v -0.077773 0.155592 -0.017866
v -0.047262 -0.017860 0.012526
v -0.049674 0.157489 -0.035253
v -0.019163 -0.015964 -0.004860
v -0.126327 0.317908 -0.078634
v 0.002411 0.207285 -0.019361
v -0.022123 -0.009708 -0.014216
v 0.031763 0.204624 0.008349
v 0.007229 -0.012369 0.013494
v 0.057259 0.416920 -0.057322
vt 0.6845 0.5581
vt 0.6845 0.5062
vt 0.6941 0.5062
vt 0.6941 0.5581
vt 0.6845 0.6113
vt 0.6845 0.5581
vt 0.6845 0.5062
vt 0.6941 0.5062
vt 0.6941 0.5581
vt 0.6845 0.6113
vt 0.5588 0.5581
vt 0.5588 0.5062
vt 0.5684 0.5062
vt 0.5684 0.5581
vt 0.5588 0.6113
vt 0.6845 0.5581
vt 0.6941 0.5581
vt 0.6941 0.5062
vt 0.6845 0.5062
vt 0.6845 0.6113
vt 0.6845 0.5581
vt 0.6941 0.5581
vt 0.6941 0.5062
vt 0.6845 0.5062
vt 0.6845 0.6113
vt 0.5588 0.5581
vt 0.5684 0.5581
vt 0.5684 0.5062
vt 0.5588 0.5062
vt 0.5588 0.6113
vn -0.9015 0.4093 -0.1400
vn -0.9393 0.3131 -0.1403
vn -0.9042 0.4035 -0.1401
vn -0.8542 0.5011 -0.1383
vn 0.4798 0.3330 0.8117
vn 0.5001 0.2340 0.8337
vn 0.4812 0.3269 0.8133
vn 0.4544 0.4283 0.7811
vn -0.6637 0.1960 0.7218
vn -0.6789 0.0940 0.7281
vn -0.6648 0.1898 0.7224
vn -0.6414 0.2960 0.7078
vn 0.9015 -0.4093 0.1400
vn 0.9042 -0.4035 0.1401
vn 0.9393 -0.3131 0.1403
vn 0.8542 -0.5011 0.1383
vn -0.4798 -0.3330 -0.8117
vn -0.4812 -0.3269 -0.8133
vn -0.5001 -0.2340 -0.8337
vn -0.4544 -0.4283 -0.7811
vn 0.6637 -0.1960 -0.7218
vn 0.6648 -0.1898 -0.7224
vn 0.6789 -0.0940 -0.7281
vn 0.6414 -0.2960 -0.7078
s 1
f 1/1/1 2/2/2 4/3/2 3/4/3
f 1/1/1 3/4/3 5/5/4
f 6/6/5 7/7/6 9/8/6 8/9/7
f 6/6/5 8/9/7 10/10/8
f 11/11/9 12/12/10 14/13/10 13/14/11
f 11/11/9 13/14/11 15/15/12
f 16/16/13 18/17/14 19/18/15 17/19/15
f 16/16/13 20/20/16 18/17/14
f 21/21/17 23/22/18 24/23/19 22/24/19
f 21/21/17 25/25/20 23/22/18
f 26/26/21 28/27/22 29/28/23 27/29/23
f 26/26/21 30/30/24 28/27/22
