# Blender v2.78 (sub 0) OBJ File: 'Low_Poly_Vegetation_Pack.blend'
# www.blender.org
g Grass_h_TwoS_03
v 0.108368 0.299179 -0.196202
v 0.070582 0.161025 -0.031175
v 0.087487 0.159434 -0.031084
v -0.223554 0.186086 0.099424
v -0.100822 0.173021 0.009420
v -0.090803 0.180798 0.011726
v -0.121397 0.328390 -0.205531
v -0.047785 0.210715 -0.087479
v -0.032909 0.207579 -0.082351
v 0.044420 0.339639 0.211577
v -0.020384 0.216475 0.058621
v -0.008204 0.211965 0.056491
v 0.037141 0.263248 -0.167531
v 0.012242 0.161939 -0.038380
v 0.028907 0.160354 -0.038290
v -0.257812 0.280655 -0.059905
v -0.041674 0.144400 0.023432
v -0.021554 0.143126 0.023670
v 0.199210 0.159839 -0.194362
v 0.044552 0.152132 -0.068195
v 0.062792 0.149125 -0.068187
v 0.022392 -0.028648 0.000221
v 0.038569 -0.028903 0.000227
v -0.052170 -0.028415 -0.004545
v -0.038757 -0.028415 0.004557
v -0.029787 -0.028415 -0.004545
v -0.016374 -0.028415 0.004557
v -0.003037 -0.028415 0.040105
v 0.010376 -0.028415 0.049207
v 0.008275 -0.028645 -0.006984
v 0.024424 -0.028900 -0.006979
v -0.009402 -0.029523 0.021871
v 0.007877 -0.029259 0.021871
v -0.004174 -0.028999 -0.036446
v 0.012020 -0.029150 -0.036446
v 0.108361 0.299103 -0.196267
v 0.070578 0.160979 -0.031264
v 0.087483 0.159383 -0.031170
v -0.223592 0.186154 0.099361
v -0.100822 0.173069 0.009332
v -0.090799 0.180843 0.011637
v -0.121386 0.328323 -0.205605
v -0.047764 0.210660 -0.087560
v -0.032876 0.207540 -0.082437
v 0.044436 0.339713 0.211511
v -0.020362 0.216524 0.058537
v -0.008180 0.212003 0.056402
v 0.037134 0.263170 -0.167593
v 0.012238 0.161889 -0.038467
v 0.028903 0.160304 -0.038376
v -0.257815 0.280600 -0.059989
v -0.041675 0.144363 0.023340
v -0.021554 0.143114 0.023570
v 0.199194 0.159743 -0.194387
v 0.044545 0.152085 -0.068284
v 0.062780 0.149048 -0.068250
v 0.022392 -0.028664 0.000123
v 0.038568 -0.028919 0.000128
v -0.052130 -0.028401 -0.004635
v -0.038718 -0.028401 0.004466
v -0.029746 -0.028443 -0.004632
v -0.016334 -0.028443 0.004470
v -0.003010 -0.028408 0.040010
v 0.010403 -0.028408 0.049111
v 0.008274 -0.028662 -0.007083
v 0.024423 -0.028916 -0.007077
v -0.009402 -0.029522 0.021771
v 0.007878 -0.029257 0.021771
v -0.004175 -0.029016 -0.036545
v 0.012019 -0.029167 -0.036545
vt 0.3199 0.6161
vt 0.3213 0.5686
vt 0.3245 0.5682
vt 0.4229 0.5686
vt 0.4194 0.5094
vt 0.4221 0.5091
vt 0.4261 0.5682
vt 0.0618 0.6161
vt 0.0623 0.5400
vt 0.0658 0.5396
vt 0.1963 0.5542
vt 0.1931 0.5094
vt 0.1958 0.5091
vt 0.1997 0.5538
vt 0.4214 0.6161
vt 0.3211 0.5542
vt 0.3245 0.5538
vt 0.3199 0.6161
vt 0.0618 0.6161
vt 0.0630 0.5542
vt 0.0664 0.5538
vt 0.3178 0.5094
vt 0.3205 0.5091
vt 0.1951 0.6161
vt 0.1965 0.5686
vt 0.1997 0.5682
vt 0.0597 0.5094
vt 0.0624 0.5091
vt 0.3178 0.5094
vt 0.3205 0.5091
vt 0.0597 0.5094
vt 0.0624 0.5091
vt 0.1931 0.5094
vt 0.1958 0.5091
vt 0.1967 0.6043
vt 0.3199 0.6161
vt 0.3245 0.5682
vt 0.3213 0.5686
vt 0.4229 0.5686
vt 0.4261 0.5682
vt 0.4221 0.5091
vt 0.4194 0.5094
vt 0.0618 0.6161
vt 0.0658 0.5396
vt 0.0623 0.5400
vt 0.1963 0.5542
vt 0.1997 0.5538
vt 0.1958 0.5091
vt 0.1931 0.5094
vt 0.4214 0.6161
vt 0.3211 0.5542
vt 0.3199 0.6161
vt 0.3245 0.5538
vt 0.0618 0.6161
vt 0.0664 0.5538
vt 0.0630 0.5542
vt 0.3205 0.5091
vt 0.3178 0.5094
vt 0.1951 0.6161
vt 0.1997 0.5682
vt 0.1965 0.5686
vt 0.0624 0.5091
vt 0.0597 0.5094
vt 0.3205 0.5091
vt 0.3178 0.5094
vt 0.0624 0.5091
vt 0.0597 0.5094
vt 0.1958 0.5091
vt 0.1931 0.5094
vt 0.1967 0.6043
vn 0.3847 -0.6806 0.6235
vn 0.0009 -0.4783 0.8782
vn -0.0349 -0.4532 0.8907
vn -0.2186 0.5526 0.8043
vn -0.4061 0.2813 0.8694
vn -0.3346 0.3968 0.8547
vn 0.0250 0.5501 0.8347
vn 0.0148 0.3738 0.9274
vn 0.0006 0.1218 0.9925
vn 0.0665 0.4660 0.8823
vn 0.0153 0.1698 0.9854
vn 0.1213 0.7712 0.6249
vn -0.1129 0.6676 0.7359
vn 0.0367 0.4633 0.8854
vn 0.0414 0.5092 0.8596
vn 0.0678 0.7573 0.6495
vn 0.0706 0.7782 0.6240
vn 0.0410 0.5025 0.8636
vn 0.0403 0.4952 0.8678
vn -0.3943 -0.1434 0.9077
vn -0.1571 -0.7356 0.6589
vn -0.2207 -0.4936 0.8412
vn -0.2409 -0.3791 0.8934
vn -0.0066 -0.0109 0.9999
vn 0.0062 0.1621 0.9867
vn 0.0062 0.1627 0.9866
vn -0.2738 -0.0713 0.9591
vn 0.1573 0.9550 0.2512
vn -0.3846 0.6807 -0.6234
vn 0.0351 0.4532 -0.8907
vn -0.0010 0.4784 -0.8781
vn 0.2189 -0.5523 -0.8044
vn 0.3345 -0.3970 -0.8547
vn 0.4060 -0.2813 -0.8695
vn -0.0245 -0.5496 -0.8350
vn -0.0007 -0.1220 -0.9925
vn -0.0145 -0.3732 -0.9276
vn -0.0666 -0.4664 -0.8820
vn -0.1219 -0.7702 -0.6260
vn -0.0147 -0.1699 -0.9854
vn 0.1133 -0.6674 -0.7360
vn -0.0367 -0.4633 -0.8854
vn -0.0679 -0.7573 -0.6495
vn -0.0414 -0.5091 -0.8597
vn -0.0706 -0.7782 -0.6240
vn -0.0402 -0.4952 -0.8678
vn -0.0410 -0.5025 -0.8636
vn 0.3942 0.1434 -0.9077
vn 0.1575 0.7355 -0.6590
vn 0.2410 0.3789 -0.8935
vn 0.2208 0.4937 -0.8411
vn 0.0064 0.0109 -0.9999
vn -0.0061 -0.1621 -0.9868
vn -0.0062 -0.1627 -0.9866
vn 0.2736 0.0713 -0.9592
vn -0.1585 -0.9545 -0.2524
s 1
f 4/1/1 5/2/2 6/3/3
f 8/4/4 26/5/5 27/6/5 9/7/6
f 16/8/7 17/9/8 18/10/9
f 20/11/10 34/12/11 35/13/11 21/14/12
f 7/15/13 8/4/4 9/7/6
f 2/16/14 3/17/15 1/18/16
f 13/19/17 14/20/18 15/21/19
f 5/2/2 24/22/20 25/23/20 6/3/3
f 10/24/21 11/25/22 12/26/23
f 17/9/8 32/27/24 33/28/24 18/10/9
f 2/16/14 22/29/25 23/30/25 3/17/15
f 14/20/18 30/31/26 31/32/26 15/21/19
f 11/25/22 28/33/27 29/34/27 12/26/23
f 19/35/28 20/11/10 21/14/12
f 39/36/29 41/37/30 40/38/31
f 43/39/32 44/40/33 62/41/34 61/42/34
f 51/43/35 53/44/36 52/45/37
f 55/46/38 56/47/39 70/48/40 69/49/40
f 42/50/41 44/40/33 43/39/32
f 37/51/42 36/52/43 38/53/44
f 48/54/45 50/55/46 49/56/47
f 40/38/31 41/37/30 60/57/48 59/58/48
f 45/59/49 47/60/50 46/61/51
f 52/45/37 53/44/36 68/62/52 67/63/52
f 37/51/42 38/53/44 58/64/53 57/65/53
f 49/56/47 50/55/46 66/66/54 65/67/54
f 46/61/51 47/60/50 64/68/55 63/69/55
f 54/70/56 56/47/39 55/46/38
