# Blender v2.78 (sub 0) OBJ File: 'Low_Poly_Vegetation_Pack.blend'
# www.blender.org
g Grass_f_TwoS_05
v 0.252888 0.100777 0.412890
v 0.169294 0.164063 0.301628
v 0.094102 0.092898 0.212621
v 0.093603 0.091434 0.229570
v 0.168282 0.156583 0.309491
v 0.030555 0.247641 0.349950
v 0.043362 0.195760 0.270075
v 0.062760 0.130369 0.223809
v 0.063137 0.128596 0.207969
v 0.041250 0.198202 0.255087
v 0.264455 0.175089 0.278475
v 0.170875 0.167789 0.238097
v 0.095673 0.109068 0.191926
v 0.095102 0.107288 0.208230
v 0.170335 0.165536 0.248517
v 0.025030 0.344710 0.370283
v 0.035679 0.214061 0.230933
v 0.052411 0.126825 0.207594
v 0.060057 0.126911 0.193184
v 0.042565 0.217637 0.215695
v 0.064712 -0.030903 0.176259
v 0.064270 -0.031586 0.194360
v 0.054289 -0.030781 0.190888
v 0.063636 -0.031004 0.173963
v 0.064183 -0.030879 0.190185
v 0.063723 -0.031675 0.208231
v 0.052593 -0.029875 0.194162
v 0.061245 -0.030337 0.178434
v 0.149732 0.105402 -0.045317
v 0.109377 0.150150 0.073299
v 0.065801 0.080689 0.159285
v 0.078551 0.078621 0.152038
v 0.114795 0.143260 0.069674
v 0.055102 0.195135 0.014858
v 0.059017 0.142764 0.131956
v 0.051575 0.095640 0.169202
v 0.063833 0.093319 0.162252
v 0.068536 0.140411 0.126575
v 0.035911 -0.028248 0.181706
v 0.049597 -0.029690 0.174007
v 0.046586 -0.028920 0.175991
v 0.060225 -0.030459 0.168315
v -0.361119 0.142335 0.351823
v -0.299769 0.197747 0.204412
v -0.251520 0.107311 0.093621
v -0.268154 0.106219 0.102344
v -0.307701 0.189677 0.208554
v -0.422918 0.274105 0.086431
v -0.337218 0.215983 0.062666
v -0.280153 0.144984 0.064804
v -0.264562 0.142542 0.056954
v -0.323901 0.217893 0.052356
v -0.226998 0.220773 0.282163
v -0.237519 0.199864 0.171652
v -0.231122 0.124554 0.082106
v -0.247161 0.123086 0.090456
v -0.247829 0.197679 0.176959
v -0.448420 0.380711 0.079887
v -0.303947 0.233798 0.032176
v -0.269858 0.139265 0.046668
v -0.251836 0.139808 0.046334
v -0.285631 0.238052 0.030238
v -0.228300 -0.033495 0.061401
v -0.246044 -0.033681 0.070696
v -0.248020 -0.034143 0.059157
v -0.226647 -0.033816 0.059157
v -0.242067 -0.033057 0.068303
v -0.259764 -0.033372 0.077565
v -0.252121 -0.033246 0.059157
v -0.232270 -0.033225 0.059157
v 0.027506 0.119081 0.008230
v -0.110169 0.167303 0.027029
v -0.214584 0.088600 0.039552
v -0.200715 0.087651 0.048203
v -0.103568 0.160280 0.031162
v -0.083812 0.208029 -0.061820
v -0.193568 0.154999 0.010776
v -0.232204 0.103607 0.029303
v -0.218878 0.102329 0.037671
v -0.183219 0.153402 0.017351
v -0.248992 -0.033936 0.036294
v -0.234206 -0.034098 0.045527
v -0.237752 -0.033556 0.043595
v -0.223011 -0.033829 0.052806
v 0.171998 0.294554 0.104081
v 0.107194 0.199835 -0.067945
v 0.128082 0.101028 -0.093386
v 0.143398 0.289717 0.004739
v 0.145580 0.101545 -0.086967
v 0.123232 0.195045 -0.066753
v 0.151094 0.281376 0.006013
v 0.010466 0.348181 -0.255617
v 0.081350 0.247454 -0.183075
v 0.109207 0.105845 -0.172784
v 0.126704 0.105702 -0.161091
v 0.091669 0.248007 -0.178291
v 0.253188 0.280304 -0.287101
v 0.157931 0.174329 -0.167024
v 0.095246 0.121908 -0.134430
v 0.113417 0.120585 -0.134673
v 0.174987 0.166423 -0.168395
v -0.077953 0.352205 -0.402986
v 0.013372 0.271637 -0.240860
v 0.065979 0.104171 -0.168647
v 0.084079 0.104318 -0.160565
v 0.028424 0.267886 -0.235882
v 0.016441 0.373129 -0.123448
v 0.044749 0.228489 -0.084240
v 0.024395 0.119518 -0.114382
v 0.042184 0.122509 -0.113863
v 0.058362 0.227138 -0.083729
v 0.119616 -0.048291 -0.129198
v 0.129084 -0.049408 -0.122870
v 0.104226 -0.048291 -0.164374
v 0.113694 -0.049408 -0.158046
v 0.090070 -0.049114 -0.146554
v 0.101428 -0.049103 -0.146552
v 0.077781 -0.048592 -0.148023
v 0.088819 -0.049114 -0.145006
v 0.070130 -0.049279 -0.126113
v 0.081570 -0.049220 -0.126102
v 0.252919 0.100706 0.412826
v 0.169360 0.163995 0.301595
v 0.094195 0.092860 0.212616
v 0.093690 0.091385 0.229559
v 0.168334 0.156511 0.309443
v 0.030461 0.247607 0.349957
v 0.043268 0.195726 0.270082
v 0.062662 0.130351 0.223802
v 0.063039 0.128592 0.207951
v 0.041156 0.198170 0.255092
v 0.264471 0.174993 0.278455
v 0.170922 0.167701 0.238084
v 0.095760 0.109019 0.191923
v 0.095186 0.107235 0.208225
v 0.170373 0.165445 0.248501
v 0.024940 0.344739 0.370250
v 0.035588 0.214076 0.230894
v 0.052322 0.126824 0.207548
v 0.059968 0.126911 0.193138
v 0.042474 0.217644 0.215654
v 0.064809 -0.030927 0.176260
v 0.064367 -0.031610 0.194361
v 0.054194 -0.030772 0.190859
v 0.063540 -0.030996 0.173934
v 0.064281 -0.030901 0.190186
v 0.063821 -0.031697 0.208233
v 0.052505 -0.029871 0.194114
v 0.061157 -0.030333 0.178387
v 0.149652 0.105341 -0.045321
v 0.109307 0.150098 0.073251
v 0.065746 0.080670 0.159204
v 0.078493 0.078591 0.151962
v 0.114719 0.143203 0.069644
v 0.055061 0.195051 0.014822
v 0.058969 0.142699 0.131897
v 0.051524 0.095615 0.169120
v 0.063782 0.093291 0.162171
v 0.068490 0.140341 0.126522
v 0.035861 -0.028252 0.181619
v 0.049547 -0.029694 0.173920
v 0.046537 -0.028923 0.175904
v 0.060176 -0.030461 0.168228
v -0.361047 0.142266 0.351827
v -0.299707 0.197686 0.204461
v -0.251470 0.107283 0.093702
v -0.268102 0.106181 0.102420
v -0.307633 0.189610 0.208584
v -0.422968 0.274060 0.086357
v -0.337268 0.215939 0.062592
v -0.280193 0.144954 0.064717
v -0.264592 0.142526 0.056860
v -0.323950 0.217850 0.052280
v -0.226970 0.220678 0.282178
v -0.237482 0.199782 0.171696
v -0.231076 0.124515 0.082185
v -0.247115 0.123042 0.090533
v -0.247795 0.197593 0.176995
v -0.448434 0.380729 0.079790
v -0.303957 0.233801 0.032077
v -0.269860 0.139252 0.046569
v -0.251838 0.139797 0.046235
v -0.285639 0.238047 0.030138
v -0.228254 -0.033507 0.061489
v -0.245998 -0.033694 0.070784
v -0.248041 -0.034146 0.059060
v -0.226668 -0.033819 0.059060
v -0.242021 -0.033068 0.068390
v -0.259718 -0.033383 0.077653
v -0.252122 -0.033253 0.059058
v -0.232271 -0.033232 0.059058
v 0.027473 0.119012 0.008166
v -0.110158 0.167242 0.026951
v -0.214538 0.088573 0.039467
v -0.200676 0.087612 0.048119
v -0.103578 0.160214 0.031088
v -0.083797 0.207940 -0.061864
v -0.193538 0.154927 0.010713
v -0.232157 0.103574 0.029222
v -0.218831 0.102293 0.037590
v -0.183193 0.153325 0.017293
v -0.248939 -0.033948 0.036210
v -0.234153 -0.034111 0.045443
v -0.237700 -0.033567 0.043510
v -0.222959 -0.033840 0.052722
v 0.172071 0.294618 0.104057
v 0.107225 0.199876 -0.068031
v 0.128116 0.101051 -0.093478
v 0.143456 0.289777 0.004685
v 0.145613 0.101567 -0.087058
v 0.123262 0.195083 -0.066840
v 0.151151 0.281437 0.005958
v 0.010508 0.348148 -0.255703
v 0.081396 0.247435 -0.183162
v 0.109260 0.105844 -0.172869
v 0.126758 0.105700 -0.161175
v 0.091717 0.247998 -0.178378
v 0.253156 0.280247 -0.287176
v 0.157909 0.174281 -0.167109
v 0.095241 0.121898 -0.134530
v 0.113407 0.120562 -0.134770
v 0.174961 0.166372 -0.168476
v -0.077963 0.352114 -0.403026
v 0.013375 0.271556 -0.240919
v 0.066012 0.104150 -0.168738
v 0.084113 0.104300 -0.160657
v 0.028448 0.267839 -0.235967
v 0.016442 0.373103 -0.123545
v 0.044750 0.228488 -0.084340
v 0.024397 0.119535 -0.114480
v 0.042185 0.122527 -0.113961
v 0.058364 0.227141 -0.083829
v 0.119658 -0.048274 -0.129286
v 0.129127 -0.049390 -0.122959
v 0.104281 -0.048298 -0.164457
v 0.113750 -0.049414 -0.158129
v 0.090070 -0.049107 -0.146654
v 0.101428 -0.049096 -0.146652
v 0.077817 -0.048601 -0.148116
v 0.088855 -0.049123 -0.145099
v 0.070131 -0.049271 -0.126212
v 0.081571 -0.049213 -0.126202
vt 0.3072 0.5432
vt 0.3103 0.5428
vt 0.3106 0.5814
vt 0.3083 0.5815
vt 0.0561 0.5432
vt 0.0592 0.5428
vt 0.0597 0.5676
vt 0.0569 0.5680
vt 0.0539 0.5168
vt 0.0562 0.5165
vt 0.0557 0.6091
vt 0.1735 0.6091
vt 0.1747 0.5680
vt 0.1775 0.5676
vt 0.1739 0.5432
vt 0.1770 0.5428
vt 0.3050 0.5168
vt 0.3074 0.5165
vt 0.3068 0.6091
vt 0.4331 0.6091
vt 0.4346 0.5815
vt 0.4369 0.5814
vt 0.4336 0.5432
vt 0.4366 0.5428
vt 0.1717 0.5168
vt 0.1741 0.5165
vt 0.4336 0.5432
vt 0.4314 0.5168
vt 0.4337 0.5165
vt 0.4366 0.5428
vt 0.4369 0.5814
vt 0.4346 0.5815
vt 0.3072 0.5432
vt 0.3050 0.5168
vt 0.3074 0.5165
vt 0.3103 0.5428
vt 0.4314 0.5168
vt 0.4337 0.5165
vt 0.3108 0.5676
vt 0.3081 0.5680
vt 0.4331 0.6091
vt 0.3068 0.6091
vt 0.3072 0.5432
vt 0.3103 0.5428
vt 0.3106 0.5814
vt 0.3083 0.5815
vt 0.0561 0.5432
vt 0.0592 0.5428
vt 0.0597 0.5676
vt 0.0569 0.5680
vt 0.0539 0.5168
vt 0.0562 0.5165
vt 0.0557 0.6091
vt 0.1735 0.6091
vt 0.1747 0.5680
vt 0.1775 0.5676
vt 0.1739 0.5432
vt 0.1770 0.5428
vt 0.3050 0.5168
vt 0.3074 0.5165
vt 0.3068 0.6091
vt 0.4331 0.6091
vt 0.4346 0.5815
vt 0.4369 0.5814
vt 0.4336 0.5432
vt 0.4366 0.5428
vt 0.1717 0.5168
vt 0.1741 0.5165
vt 0.4336 0.5432
vt 0.4314 0.5168
vt 0.4337 0.5165
vt 0.4366 0.5428
vt 0.4369 0.5814
vt 0.4346 0.5815
vt 0.3072 0.5432
vt 0.3050 0.5168
vt 0.3074 0.5165
vt 0.3103 0.5428
vt 0.4314 0.5168
vt 0.4337 0.5165
vt 0.3108 0.5676
vt 0.3081 0.5680
vt 0.4331 0.6091
vt 0.3068 0.6091
vt 0.1815 0.6089
vt 0.1826 0.5944
vt 0.1845 0.5920
vt 0.1829 0.5653
vt 0.1858 0.5650
vt 0.1820 0.5390
vt 0.1797 0.5110
vt 0.1821 0.5107
vt 0.1852 0.5386
vt 0.1815 0.6089
vt 0.1831 0.5797
vt 0.1855 0.5795
vt 0.4477 0.5797
vt 0.4466 0.5390
vt 0.4499 0.5386
vt 0.4502 0.5795
vt 0.3119 0.5390
vt 0.3095 0.5110
vt 0.3120 0.5107
vt 0.3151 0.5386
vt 0.3157 0.5650
vt 0.3127 0.5653
vt 0.3129 0.5797
vt 0.3119 0.5390
vt 0.3151 0.5386
vt 0.3154 0.5795
vt 0.3095 0.5110
vt 0.3120 0.5107
vt 0.4462 0.6089
vt 0.1820 0.5390
vt 0.1797 0.5110
vt 0.1821 0.5107
vt 0.1852 0.5386
vt 0.3114 0.6089
vt 0.4443 0.5110
vt 0.4468 0.5107
vt 0.3114 0.6089
vt 0.3072 0.5432
vt 0.3083 0.5815
vt 0.3106 0.5814
vt 0.3103 0.5428
vt 0.0561 0.5432
vt 0.0569 0.5680
vt 0.0597 0.5676
vt 0.0592 0.5428
vt 0.0562 0.5165
vt 0.0539 0.5168
vt 0.0557 0.6091
vt 0.1735 0.6091
vt 0.1775 0.5676
vt 0.1747 0.5680
vt 0.1739 0.5432
vt 0.1770 0.5428
vt 0.3074 0.5165
vt 0.3050 0.5168
vt 0.3068 0.6091
vt 0.4331 0.6091
vt 0.4369 0.5814
vt 0.4346 0.5815
vt 0.4336 0.5432
vt 0.4366 0.5428
vt 0.1741 0.5165
vt 0.1717 0.5168
vt 0.4336 0.5432
vt 0.4366 0.5428
vt 0.4337 0.5165
vt 0.4314 0.5168
vt 0.4346 0.5815
vt 0.4369 0.5814
vt 0.3072 0.5432
vt 0.3103 0.5428
vt 0.3074 0.5165
vt 0.3050 0.5168
vt 0.4337 0.5165
vt 0.4314 0.5168
vt 0.3081 0.5680
vt 0.3108 0.5676
vt 0.4331 0.6091
vt 0.3068 0.6091
vt 0.3072 0.5432
vt 0.3083 0.5815
vt 0.3106 0.5814
vt 0.3103 0.5428
vt 0.0561 0.5432
vt 0.0569 0.5680
vt 0.0597 0.5676
vt 0.0592 0.5428
vt 0.0562 0.5165
vt 0.0539 0.5168
vt 0.0557 0.6091
vt 0.1735 0.6091
vt 0.1775 0.5676
vt 0.1747 0.5680
vt 0.1739 0.5432
vt 0.1770 0.5428
vt 0.3074 0.5165
vt 0.3050 0.5168
vt 0.3068 0.6091
vt 0.4331 0.6091
vt 0.4369 0.5814
vt 0.4346 0.5815
vt 0.4336 0.5432
vt 0.4366 0.5428
vt 0.1741 0.5165
vt 0.1717 0.5168
vt 0.4336 0.5432
vt 0.4366 0.5428
vt 0.4337 0.5165
vt 0.4314 0.5168
vt 0.4346 0.5815
vt 0.4369 0.5814
vt 0.3072 0.5432
vt 0.3103 0.5428
vt 0.3074 0.5165
vt 0.3050 0.5168
vt 0.4337 0.5165
vt 0.4314 0.5168
vt 0.3081 0.5680
vt 0.3108 0.5676
vt 0.4331 0.6091
vt 0.3068 0.6091
vt 0.1815 0.6089
vt 0.1845 0.5920
vt 0.1826 0.5944
vt 0.1858 0.5650
vt 0.1829 0.5653
vt 0.1820 0.5390
vt 0.1852 0.5386
vt 0.1821 0.5107
vt 0.1797 0.5110
vt 0.1815 0.6089
vt 0.1855 0.5795
vt 0.1831 0.5797
vt 0.4477 0.5797
vt 0.4502 0.5795
vt 0.4499 0.5386
vt 0.4466 0.5390
vt 0.3119 0.5390
vt 0.3151 0.5386
vt 0.3120 0.5107
vt 0.3095 0.5110
vt 0.3127 0.5653
vt 0.3157 0.5650
vt 0.3129 0.5797
vt 0.3154 0.5795
vt 0.3151 0.5386
vt 0.3119 0.5390
vt 0.3120 0.5107
vt 0.3095 0.5110
vt 0.4462 0.6089
vt 0.1820 0.5390
vt 0.1852 0.5386
vt 0.1821 0.5107
vt 0.1797 0.5110
vt 0.3114 0.6089
vt 0.4468 0.5107
vt 0.4443 0.5110
vt 0.3114 0.6089
vn -0.8705 0.4908 0.0347
vn -0.8448 0.5334 0.0426
vn -0.3810 0.9109 0.1581
vn -0.4657 0.8741 0.1381
vn 0.9802 0.1830 0.0751
vn 0.9812 0.0466 0.1874
vn 0.9432 0.3279 -0.0538
vn 0.9387 0.3383 -0.0656
vn 0.9539 -0.0838 0.2882
vn 0.9350 0.3466 -0.0752
vn 0.8964 -0.2871 0.3377
vn 0.9097 -0.1488 0.3877
vn 0.9084 -0.0686 0.4124
vn 0.8882 0.0146 0.4592
vn 0.8864 0.0030 0.4629
vn -0.9754 0.2199 -0.0128
vn -0.1619 0.9662 0.2005
vn -0.3081 0.7088 0.6346
vn -0.6559 0.6784 0.3310
vn -0.5125 0.7112 0.4811
vn -0.9236 0.3792 0.0556
vn -0.8691 0.4831 0.1063
vn 0.8787 -0.0389 0.4757
vn 0.5507 0.1904 0.8126
vn 0.4960 0.0428 0.8672
vn 0.5824 0.3003 0.7554
vn 0.7638 0.5740 0.2951
vn 0.6996 0.5216 0.4883
vn 0.5159 0.2491 0.8196
vn 0.4947 0.0278 0.8686
vn 0.5166 0.2727 0.8116
vn -0.9720 0.2347 -0.0117
vn 0.4674 0.7082 0.5291
vn 0.4833 0.6488 0.5877
vn 0.7962 0.6034 0.0432
vn 0.4108 0.8373 0.3607
vn -0.4629 0.3917 -0.7951
vn -0.4586 0.4371 -0.7737
vn -0.3464 0.8673 -0.3574
vn -0.3687 0.8207 -0.4364
vn 0.4015 0.2932 0.8676
vn 0.3073 0.1612 0.9378
vn 0.4927 0.4290 0.7571
vn 0.5007 0.4385 0.7464
vn 0.2093 0.0318 0.9773
vn 0.5070 0.4460 0.7375
vn 0.1437 -0.1750 0.9740
vn 0.1026 -0.0346 0.9941
vn 0.0782 0.0457 0.9959
vn 0.0252 0.1275 0.9915
vn 0.0214 0.1159 0.9930
vn -0.4646 0.1095 -0.8787
vn -0.2795 0.9479 -0.1527
vn -0.7232 0.6894 -0.0418
vn -0.6240 0.6110 -0.4870
vn -0.6873 0.6643 -0.2937
vn -0.5038 0.2755 -0.8187
vn -0.5247 0.3864 -0.7585
vn 0.0077 0.0739 0.9972
vn -0.4516 0.2755 0.8486
vn -0.5218 0.1245 0.8439
vn -0.3891 0.3864 0.8362
vn 0.0941 0.6643 0.7415
vn -0.1046 0.6110 0.7846
vn -0.4761 0.3301 0.8151
vn -0.5232 0.1095 0.8451
vn -0.4694 0.3534 0.8092
vn -0.4642 0.1245 -0.8769
vn -0.2572 0.7718 0.5814
vn -0.2993 0.7164 0.6302
vn 0.3295 0.6894 0.6451
vn -0.1404 0.8885 0.4367
vn -0.7313 -0.6378 0.2416
vn -0.5814 -0.6092 0.5393
vn -0.5714 -0.6057 0.5537
vn -0.3163 -0.4138 0.8536
vn -0.3013 -0.3840 0.8728
vn -0.5301 0.0137 0.8478
vn -0.5525 0.0629 0.8311
vn -0.5332 0.0204 0.8457
vn -0.4122 0.3233 0.8517
vn -0.4569 0.1902 0.8689
vn -0.4855 0.0837 0.8702
vn -0.0143 0.0108 0.9998
vn -0.0137 -0.1625 0.9866
vn -0.0143 -0.1789 0.9838
vn -0.0149 -0.0364 0.9992
vn 0.0580 0.1044 0.9928
vn 0.0050 -0.0705 0.9975
vn 0.0948 0.2278 0.9691
vn 0.2592 0.5134 0.8180
vn 0.2201 0.4793 0.8496
vn -0.0254 0.8058 0.5916
vn -0.3372 0.2101 0.9177
vn -0.3425 0.1755 0.9230
vn -0.2432 0.4743 0.8461
vn -0.3535 0.0909 0.9310
vn -0.0105 0.2597 0.9656
vn -0.3389 -0.2264 0.9131
vn -0.4238 -0.1769 0.8883
vn -0.3339 -0.2292 0.9143
vn 0.0950 0.9117 0.3995
vn -0.0104 -0.0728 0.9973
vn 0.3237 0.5671 0.7573
vn 0.8705 -0.4909 -0.0347
vn 0.4655 -0.8741 -0.1382
vn 0.3811 -0.9109 -0.1582
vn 0.8448 -0.5334 -0.0426
vn -0.9802 -0.1829 -0.0753
vn -0.9387 -0.3382 0.0656
vn -0.9432 -0.3279 0.0537
vn -0.9812 -0.0466 -0.1872
vn -0.9539 0.0838 -0.2880
vn -0.9350 -0.3466 0.0752
vn -0.8963 0.2871 -0.3377
vn -0.9084 0.0686 -0.4124
vn -0.9097 0.1489 -0.3877
vn -0.8882 -0.0146 -0.4592
vn -0.8864 -0.0030 -0.4629
vn 0.9754 -0.2199 0.0128
vn 0.1619 -0.9662 -0.2008
vn 0.3088 -0.7082 -0.6349
vn 0.5131 -0.7108 -0.4811
vn 0.6558 -0.6783 -0.3314
vn 0.9236 -0.3793 -0.0555
vn 0.8691 -0.4830 -0.1062
vn -0.8787 0.0389 -0.4757
vn -0.5507 -0.1906 -0.8126
vn -0.5823 -0.3002 -0.7555
vn -0.4959 -0.0428 -0.8673
vn -0.6999 -0.5215 -0.4880
vn -0.7640 -0.5734 -0.2957
vn -0.5158 -0.2491 -0.8196
vn -0.5165 -0.2727 -0.8117
vn -0.4947 -0.0278 -0.8686
vn 0.9720 -0.2347 0.0118
vn -0.4834 -0.6488 -0.5877
vn -0.4675 -0.7082 -0.5291
vn -0.7968 -0.6026 -0.0436
vn -0.4110 -0.8372 -0.3606
vn 0.4629 -0.3918 0.7951
vn 0.3687 -0.8207 0.4363
vn 0.3465 -0.8672 0.3574
vn 0.4585 -0.4371 0.7737
vn -0.4014 -0.2931 -0.8677
vn -0.5006 -0.4384 -0.7464
vn -0.4926 -0.4290 -0.7571
vn -0.3074 -0.1613 -0.9378
vn -0.2094 -0.0318 -0.9773
vn -0.5070 -0.4460 -0.7375
vn -0.1436 0.1751 -0.9740
vn -0.0782 -0.0457 -0.9959
vn -0.1026 0.0347 -0.9941
vn -0.0252 -0.1275 -0.9915
vn -0.0214 -0.1159 -0.9930
vn 0.4645 -0.1095 0.8787
vn 0.2797 -0.9479 0.1527
vn 0.7237 -0.6888 0.0422
vn 0.6875 -0.6638 0.2942
vn 0.6243 -0.6110 0.4867
vn 0.5037 -0.2756 0.8187
vn 0.5246 -0.3864 0.7586
vn -0.0077 -0.0739 -0.9972
vn 0.4516 -0.2757 -0.8485
vn 0.3893 -0.3864 -0.8361
vn 0.5219 -0.1245 -0.8438
vn 0.1042 -0.6110 -0.7847
vn -0.0937 -0.6638 -0.7420
vn 0.4761 -0.3301 -0.8150
vn 0.4694 -0.3534 -0.8091
vn 0.5233 -0.1095 -0.8451
vn 0.4642 -0.1245 0.8769
vn 0.2992 -0.7164 -0.6302
vn 0.2572 -0.7718 -0.5815
vn -0.3295 -0.6887 -0.6459
vn 0.1403 -0.8885 -0.4368
vn 0.7313 0.6377 -0.2416
vn 0.5714 0.6056 -0.5538
vn 0.5814 0.6091 -0.5393
vn 0.3013 0.3840 -0.8728
vn 0.3163 0.4139 -0.8536
vn 0.5301 -0.0137 -0.8478
vn 0.5332 -0.0204 -0.8457
vn 0.5525 -0.0629 -0.8311
vn 0.4124 -0.3231 -0.8517
vn 0.4855 -0.0838 -0.8702
vn 0.4570 -0.1901 -0.8689
vn 0.0143 -0.0107 -0.9998
vn 0.0150 0.0363 -0.9992
vn 0.0143 0.1789 -0.9837
vn 0.0137 0.1625 -0.9866
vn -0.0580 -0.1045 -0.9928
vn -0.0948 -0.2277 -0.9691
vn -0.0049 0.0705 -0.9975
vn -0.2202 -0.4793 -0.8495
vn -0.2593 -0.5134 -0.8180
vn 0.0269 -0.8050 -0.5926
vn 0.2428 -0.4749 -0.8459
vn 0.3422 -0.1756 -0.9230
vn 0.3369 -0.2102 -0.9178
vn 0.3534 -0.0909 -0.9310
vn 0.0106 -0.2597 -0.9656
vn 0.3389 0.2264 -0.9131
vn 0.3339 0.2292 -0.9143
vn 0.4238 0.1769 -0.8883
vn -0.0932 -0.9115 -0.4005
vn 0.0104 0.0728 -0.9973
vn -0.3237 -0.5671 -0.7573
s 1
f 13/1/1 14/2/2 15/3/3 12/4/4
f 8/5/5 9/6/6 10/7/7 7/8/8
f 8/5/5 23/9/9 24/10/9 9/6/6
f 6/11/10 7/8/8 10/7/7
f 16/12/11 17/13/12 20/14/13
f 18/15/14 19/16/15 20/14/13 17/13/12
f 13/1/1 25/17/16 26/18/16 14/2/2
f 11/19/17 12/4/4 15/3/3
f 1/20/18 2/21/19 5/22/20
f 3/23/21 4/24/22 5/22/20 2/21/19
f 18/15/14 27/25/23 28/26/23 19/16/15
f 31/27/24 39/28/25 40/29/25 32/30/26
f 31/27/24 32/30/26 33/31/27 30/32/28
f 36/33/29 41/34/30 42/35/30 37/36/31
f 3/23/21 21/37/32 22/38/32 4/24/22
f 36/33/29 37/36/31 38/39/33 35/40/34
f 29/41/35 30/32/28 33/31/27
f 34/42/36 35/40/34 38/39/33
f 55/43/37 56/44/38 57/45/39 54/46/40
f 50/47/41 51/48/42 52/49/43 49/50/44
f 50/47/41 65/51/45 66/52/45 51/48/42
f 48/53/46 49/50/44 52/49/43
f 58/54/47 59/55/48 62/56/49
f 60/57/50 61/58/51 62/56/49 59/55/48
f 55/43/37 67/59/52 68/60/52 56/44/38
f 53/61/53 54/46/40 57/45/39
f 43/62/54 44/63/55 47/64/56
f 45/65/57 46/66/58 47/64/56 44/63/55
f 60/57/50 69/67/59 70/68/59 61/58/51
f 73/69/60 81/70/61 82/71/61 74/72/62
f 73/69/60 74/72/62 75/73/63 72/74/64
f 78/75/65 83/76/66 84/77/66 79/78/67
f 45/65/57 63/79/68 64/80/68 46/66/58
f 78/75/65 79/78/67 80/81/69 77/82/70
f 71/83/71 72/74/64 75/73/63
f 76/84/72 77/82/70 80/81/69
f 85/85/73 88/86/74 91/87/75
f 88/86/74 86/88/76 90/89/77 91/87/75
f 94/90/78 114/91/79 115/92/79 95/93/80
f 92/94/81 93/95/82 96/96/83
f 96/96/83 93/95/82 94/90/78 95/93/80
f 108/97/84 109/98/85 110/99/86 111/100/87
f 99/101/88 116/102/89 117/103/89 100/104/90
f 99/101/88 100/104/90 101/105/91 98/106/92
f 103/107/93 104/108/94 105/109/95 106/110/96
f 104/108/94 118/111/97 119/112/97 105/109/95
f 107/113/98 108/97/84 111/100/87
f 87/114/99 112/115/100 113/116/100 89/117/101
f 102/118/102 103/107/93 106/110/96
f 109/98/85 120/119/103 121/120/103 110/99/86
f 87/114/99 89/117/101 90/89/77 86/88/76
f 97/121/104 98/106/92 101/105/91
f 134/122/105 133/123/106 136/124/107 135/125/108
f 129/126/109 128/127/110 131/128/111 130/129/112
f 129/126/109 130/129/112 145/130/113 144/131/113
f 127/132/114 131/128/111 128/127/110
f 137/133/115 141/134/116 138/135/117
f 139/136/118 138/135/117 141/134/116 140/137/119
f 134/122/105 135/125/108 147/138/120 146/139/120
f 132/140/121 136/124/107 133/123/106
f 122/141/122 126/142/123 123/143/124
f 124/144/125 123/143/124 126/142/123 125/145/126
f 139/136/118 140/137/119 149/146/127 148/147/127
f 152/148/128 153/149/129 161/150/130 160/151/130
f 152/148/128 151/152/131 154/153/132 153/149/129
f 157/154/133 158/155/134 163/156/135 162/157/135
f 124/144/125 125/145/126 143/158/136 142/159/136
f 157/154/133 156/160/137 159/161/138 158/155/134
f 150/162/139 154/153/132 151/152/131
f 155/163/140 159/161/138 156/160/137
f 176/164/141 175/165/142 178/166/143 177/167/144
f 171/168/145 170/169/146 173/170/147 172/171/148
f 171/168/145 172/171/148 187/172/149 186/173/149
f 169/174/150 173/170/147 170/169/146
f 179/175/151 183/176/152 180/177/153
f 181/178/154 180/177/153 183/176/152 182/179/155
f 176/164/141 177/167/144 189/180/156 188/181/156
f 174/182/157 178/166/143 175/165/142
f 164/183/158 168/184/159 165/185/160
f 166/186/161 165/185/160 168/184/159 167/187/162
f 181/178/154 182/179/155 191/188/163 190/189/163
f 194/190/164 195/191/165 203/192/166 202/193/166
f 194/190/164 193/194/167 196/195/168 195/191/165
f 199/196/169 200/197/170 205/198/171 204/199/171
f 166/186/161 167/187/162 185/200/172 184/201/172
f 199/196/169 198/202/173 201/203/174 200/197/170
f 192/204/175 196/195/168 193/194/167
f 197/205/176 201/203/174 198/202/173
f 206/206/177 212/207/178 209/208/179
f 209/208/179 212/207/178 211/209/180 207/210/181
f 215/211/182 216/212/183 236/213/184 235/214/184
f 213/215/185 217/216/186 214/217/187
f 217/216/186 216/212/183 215/211/182 214/217/187
f 229/218/188 232/219/189 231/220/190 230/221/191
f 220/222/192 221/223/193 238/224/194 237/225/194
f 220/222/192 219/226/195 222/227/196 221/223/193
f 224/228/197 227/229/198 226/230/199 225/231/200
f 225/231/200 226/230/199 240/232/201 239/233/201
f 228/234/202 232/219/189 229/218/188
f 208/235/203 210/236/204 234/237/205 233/238/205
f 223/239/206 227/229/198 224/228/197
f 230/221/191 231/220/190 242/240/207 241/241/207
f 208/235/203 207/210/181 211/209/180 210/236/204
f 218/242/208 222/227/196 219/226/195
