# Blender v2.78 (sub 0) OBJ File: 'Low_Poly_Vegetation_Pack.blend'
# www.blender.org
g Grass_h_TwoS_02
v -0.108654 0.142335 0.292624
v -0.047304 0.197747 0.145212
v -0.055236 0.189677 0.149355
v -0.170453 0.274105 0.027231
v -0.027688 0.144984 0.005604
v -0.012097 0.142543 -0.002245
v 0.025467 0.220773 0.222963
v 0.021342 0.124554 0.022906
v 0.005304 0.123086 0.031256
v -0.195955 0.380712 0.020687
v -0.051482 0.233798 -0.027023
v -0.033166 0.238052 -0.028962
v 0.024164 -0.033494 0.002202
v 0.006421 -0.033681 0.011496
v 0.004444 -0.034143 -0.000042
v 0.025818 -0.033816 -0.000042
v 0.010397 -0.033057 0.009103
v -0.007300 -0.033372 0.018365
v 0.000344 -0.033245 -0.000042
v 0.020195 -0.033225 -0.000042
v 0.279970 0.119081 -0.050969
v 0.142296 0.167303 -0.032170
v 0.148896 0.160280 -0.028037
v 0.168653 0.208029 -0.121020
v 0.058896 0.154999 -0.048424
v 0.069246 0.153403 -0.041848
v 0.003473 -0.033936 -0.022905
v 0.018259 -0.034098 -0.013672
v 0.014713 -0.033555 -0.015605
v 0.029454 -0.033829 -0.006393
v -0.108582 0.142266 0.292628
v -0.047240 0.197697 0.145271
v -0.055166 0.189618 0.149395
v -0.170499 0.274067 0.027151
v -0.027727 0.144957 0.005516
v -0.012125 0.142531 -0.002341
v 0.025496 0.220687 0.223004
v 0.021386 0.124504 0.022981
v 0.005346 0.123029 0.031327
v -0.195969 0.380729 0.020590
v -0.051492 0.233803 -0.027123
v -0.033174 0.238052 -0.029061
v 0.024216 -0.033528 0.002280
v 0.006473 -0.033714 0.011575
v 0.004423 -0.034146 -0.000140
v 0.025797 -0.033819 -0.000140
v 0.010444 -0.033068 0.009191
v -0.007253 -0.033383 0.018453
v 0.000340 -0.033256 -0.000142
v 0.020191 -0.033236 -0.000142
v 0.279938 0.119012 -0.051034
v 0.142314 0.167253 -0.032255
v 0.148895 0.160221 -0.028118
v 0.168667 0.207940 -0.121063
v 0.058934 0.154940 -0.048495
v 0.069280 0.153338 -0.041916
v 0.003515 -0.033969 -0.022990
v 0.018301 -0.034132 -0.013757
v 0.014763 -0.033582 -0.015688
v 0.029504 -0.033855 -0.006476
vt 0.4346 0.5815
vt 0.4314 0.5168
vt 0.4337 0.5165
vt 0.4369 0.5814
vt 0.1747 0.5680
vt 0.1717 0.5168
vt 0.1741 0.5165
vt 0.1775 0.5676
vt 0.0561 0.5432
vt 0.0539 0.5168
vt 0.0562 0.5165
vt 0.0592 0.5428
vt 0.1735 0.6091
vt 0.3108 0.5676
vt 0.3081 0.5680
vt 0.3050 0.5168
vt 0.3074 0.5165
vt 0.3072 0.5432
vt 0.3050 0.5168
vt 0.3074 0.5165
vt 0.3103 0.5428
vt 0.4331 0.6091
vt 0.3068 0.6091
vt 0.4369 0.5814
vt 0.4346 0.5815
vt 0.4314 0.5168
vt 0.4337 0.5165
vt 0.4331 0.6091
vt 0.3068 0.6091
vt 0.0557 0.6091
vt 0.4346 0.5815
vt 0.4369 0.5814
vt 0.4337 0.5165
vt 0.4314 0.5168
vt 0.1747 0.5680
vt 0.1775 0.5676
vt 0.1741 0.5165
vt 0.1717 0.5168
vt 0.0561 0.5432
vt 0.0592 0.5428
vt 0.0562 0.5165
vt 0.0539 0.5168
vt 0.1735 0.6091
vt 0.3108 0.5676
vt 0.3074 0.5165
vt 0.3050 0.5168
vt 0.3081 0.5680
vt 0.3072 0.5432
vt 0.3103 0.5428
vt 0.3074 0.5165
vt 0.3050 0.5168
vt 0.4331 0.6091
vt 0.3068 0.6091
vt 0.4369 0.5814
vt 0.4337 0.5165
vt 0.4314 0.5168
vt 0.4346 0.5815
vt 0.4331 0.6091
vt 0.3068 0.6091
vt 0.0557 0.6091
vn -0.6438 0.4982 -0.5807
vn -0.5191 0.3340 -0.7867
vn -0.7004 0.5913 -0.3997
vn 0.0992 -0.0523 0.9937
vn 0.0380 0.1105 0.9931
vn 0.0792 0.0016 0.9968
vn 0.3870 0.2677 0.8823
vn 0.2093 0.0318 0.9773
vn 0.2760 0.1175 0.9539
vn 0.1437 -0.1750 0.9740
vn -0.3396 0.6503 0.6795
vn -0.3725 0.5918 0.7148
vn -0.4999 0.2617 0.8256
vn -0.4336 0.5024 -0.7480
vn -0.4646 0.1095 -0.8787
vn -0.4194 0.5672 -0.7088
vn -0.7232 0.6894 -0.0418
vn -0.2923 0.8641 -0.4096
vn 0.0093 0.5913 0.8064
vn -0.1754 0.4982 0.8491
vn -0.4162 0.3340 0.8456
vn 0.3295 0.6894 0.6451
vn -0.1404 0.8885 0.4367
vn 0.4629 0.3775 0.8020
vn 0.6441 -0.4983 0.5803
vn 0.7006 -0.5907 0.4003
vn 0.5189 -0.3341 0.7868
vn -0.0992 0.0523 -0.9937
vn -0.0792 -0.0016 -0.9968
vn -0.0381 -0.1105 -0.9931
vn -0.3868 -0.2675 -0.8825
vn -0.2761 -0.1176 -0.9539
vn -0.2094 -0.0318 -0.9773
vn -0.1437 0.1750 -0.9740
vn 0.3396 -0.6501 -0.6797
vn 0.5000 -0.2617 -0.8255
vn 0.3724 -0.5919 -0.7148
vn 0.4336 -0.5025 0.7479
vn 0.4194 -0.5670 0.7089
vn 0.4645 -0.1094 0.8788
vn 0.7239 -0.6886 0.0423
vn 0.2925 -0.8641 0.4095
vn -0.0088 -0.5906 -0.8069
vn 0.4165 -0.3341 -0.8455
vn 0.1750 -0.4983 -0.8491
vn -0.3295 -0.6885 -0.6461
vn 0.1402 -0.8885 -0.4369
vn -0.4626 -0.3771 -0.8023
s 1
f 2/1/1 13/2/2 14/3/2 3/4/3
f 11/5/4 19/6/5 20/7/5 12/8/6
f 5/9/7 15/10/8 16/11/8 6/12/9
f 10/13/10 11/5/4 12/8/6
f 26/14/11 25/15/12 29/16/13 30/17/13
f 8/18/14 17/19/15 18/20/15 9/21/16
f 1/22/17 2/1/1 3/4/3
f 7/23/18 8/18/14 9/21/16
f 23/24/19 22/25/20 27/26/21 28/27/21
f 21/28/22 22/25/20 23/24/19
f 24/29/23 25/15/12 26/14/11
f 4/30/24 5/9/7 6/12/9
f 32/31/25 33/32/26 44/33/27 43/34/27
f 41/35/28 42/36/29 50/37/30 49/38/30
f 35/39/31 36/40/32 46/41/33 45/42/33
f 40/43/34 42/36/29 41/35/28
f 56/44/35 60/45/36 59/46/36 55/47/37
f 38/48/38 39/49/39 48/50/40 47/51/40
f 31/52/41 33/32/26 32/31/25
f 37/53/42 39/49/39 38/48/38
f 53/54/43 58/55/44 57/56/44 52/57/45
f 51/58/46 53/54/43 52/57/45
f 54/59/47 56/44/35 55/47/37
f 34/60/48 36/40/32 35/39/31
