# Blender v2.78 (sub 0) OBJ File: 'Low_Poly_Vegetation_Pack.blend'
# www.blender.org
g Grass_g_TwoS_06
v -0.578658 0.353465 0.130335
v -0.487740 0.242837 -0.075559
v -0.462808 0.231019 -0.044689
v -0.390478 0.417817 -0.302611
v -0.384309 0.127116 -0.162806
v -0.375322 0.126741 -0.108661
v -0.173222 0.336365 -0.129957
v -0.445387 0.147221 -0.152014
v -0.412500 0.143771 -0.117890
v -0.346252 0.422647 -0.539421
v -0.416647 0.321004 -0.329593
v -0.401613 0.326424 -0.305903
v -0.507258 0.447755 -0.206096
v -0.516963 0.141317 -0.201073
v -0.486204 0.149116 -0.166317
v -0.421958 -0.055304 -0.133682
v -0.410879 -0.061934 -0.066951
v -0.397753 -0.055304 -0.172267
v -0.386674 -0.061934 -0.105536
v -0.448566 -0.058965 -0.176919
v -0.402411 -0.058895 -0.127715
v -0.454167 -0.057074 -0.217752
v -0.422372 -0.060172 -0.157679
v -0.479373 -0.059272 -0.181089
v -0.432922 -0.058926 -0.131498
v -0.354216 0.170802 -0.121648
v -0.166414 0.241542 -0.175024
v -0.184955 0.223367 -0.182924
v -0.154954 0.328926 -0.380911
v -0.035128 0.170842 -0.266441
v 0.001742 0.174189 -0.254827
v -0.187530 0.264928 -0.050184
v 0.001075 0.150003 -0.203614
v -0.031064 0.147165 -0.217355
v -0.168284 0.456854 -0.409556
v -0.019233 0.278889 -0.316859
v 0.006784 0.287330 -0.291192
v 0.033003 -0.040025 -0.212278
v -0.022444 -0.040586 -0.235821
v -0.007628 -0.041238 -0.252836
v 0.030730 -0.040313 -0.206050
v 0.013430 -0.039430 -0.220942
v -0.036564 -0.040285 -0.242189
v -0.010518 -0.039912 -0.256361
v 0.026222 -0.039852 -0.211549
v 0.260306 0.142897 -0.022423
v 0.137462 0.205403 -0.140982
v 0.139955 0.187697 -0.121507
v 0.240619 0.249634 -0.179019
v 0.041955 0.125105 -0.256889
v 0.046735 0.122018 -0.219170
v 0.021544 -0.040552 -0.275868
v 0.028934 -0.041089 -0.218698
v 0.023779 -0.040033 -0.256380
v 0.030238 -0.040829 -0.206275
v 0.495348 0.359014 -0.294158
v 0.571312 0.194422 -0.102368
v 0.607427 0.190129 -0.130209
v 0.387865 0.223303 0.265206
v 0.430643 0.201802 0.092729
v 0.455783 0.222780 0.081019
v 0.218167 0.394068 -0.127502
v 0.363784 0.255206 -0.066262
v 0.403935 0.246748 -0.080023
v 0.716156 0.407567 0.125925
v 0.535768 0.263147 0.035838
v 0.558149 0.250982 0.011107
v 0.425146 0.315897 -0.195810
v 0.486981 0.195514 -0.047593
v 0.522584 0.191238 -0.075036
v 0.209260 0.336786 0.102952
v 0.372645 0.306544 0.070732
v 0.396539 0.325310 0.052424
v 0.565741 0.191806 -0.331787
v 0.501674 0.184810 -0.089889
v 0.540492 0.176699 -0.120120
v 0.540992 -0.034019 -0.030887
v 0.592104 -0.035041 -0.070701
v 0.450680 -0.034098 0.041867
v 0.515458 -0.034098 0.037590
v 0.430464 -0.034098 -0.003371
v 0.495241 -0.034098 -0.007648
v 0.522054 -0.034098 0.000150
v 0.586831 -0.034098 -0.004128
v 0.498403 -0.034018 -0.008650
v 0.549426 -0.035036 -0.048396
v 0.485578 -0.035798 0.011981
v 0.540161 -0.034740 -0.030567
v 0.471843 -0.034587 -0.018321
v 0.522997 -0.035191 -0.058196
v -0.031107 0.384713 0.467759
v -0.009264 -0.025253 0.328277
v 0.065657 -0.025253 0.328277
v -0.042546 0.218214 0.354761
v -0.012374 0.220443 0.355037
v -0.338179 0.151408 0.255261
v -0.088245 -0.025680 0.281171
v -0.014063 -0.025603 0.281171
v -0.192882 0.169450 0.250662
v -0.185866 0.202561 0.242884
v 0.337009 0.215188 0.061438
v 0.000279 -0.025680 0.296247
v 0.074647 -0.025603 0.296247
v 0.160632 0.269559 0.180818
v 0.174513 0.243745 0.192527
v -0.161921 0.442405 0.198114
v -0.063643 -0.025253 0.296247
v 0.011278 -0.025253 0.296247
v -0.170514 0.305755 0.273138
v -0.134252 0.301426 0.273415
v 0.245744 0.381107 0.017318
v -0.059629 -0.025680 0.252127
v 0.014735 -0.025603 0.252127
v 0.062673 0.380087 0.126391
v 0.087898 0.364019 0.124714
v -0.578599 0.353544 0.130318
v -0.487660 0.242891 -0.075584
v -0.462726 0.231071 -0.044714
v -0.390380 0.417812 -0.302628
v -0.384211 0.127110 -0.162822
v -0.375223 0.126735 -0.108677
v -0.173171 0.336299 -0.130012
v -0.445318 0.147199 -0.152082
v -0.412434 0.143735 -0.117957
v -0.346194 0.422568 -0.539439
v -0.416573 0.320946 -0.329626
v -0.401533 0.326378 -0.305942
v -0.507182 0.447752 -0.206162
v -0.516888 0.141320 -0.201139
v -0.486130 0.149118 -0.166384
v -0.421865 -0.055281 -0.133712
v -0.410786 -0.061911 -0.066981
v -0.397655 -0.055310 -0.172284
v -0.386576 -0.061940 -0.105553
v -0.448494 -0.058957 -0.176988
v -0.402339 -0.058888 -0.127783
v -0.454082 -0.057096 -0.217799
v -0.422286 -0.060195 -0.157726
v -0.479300 -0.059265 -0.181157
v -0.432849 -0.058918 -0.131566
v -0.354174 0.170733 -0.121589
v -0.166420 0.241492 -0.174937
v -0.184942 0.223307 -0.182844
v -0.154923 0.328887 -0.380998
v -0.035083 0.170817 -0.266527
v 0.001795 0.174174 -0.254911
v -0.187543 0.264842 -0.050136
v 0.001045 0.149954 -0.203532
v -0.031093 0.147109 -0.217277
v -0.168218 0.456871 -0.409628
v -0.019162 0.278894 -0.316929
v 0.006856 0.287330 -0.291261
v 0.032974 -0.040059 -0.212189
v -0.022474 -0.040620 -0.235732
v -0.007566 -0.041241 -0.252915
v 0.030791 -0.040316 -0.206129
v 0.013392 -0.039441 -0.220850
v -0.036602 -0.040296 -0.242098
v -0.010443 -0.039923 -0.256426
v 0.026297 -0.039863 -0.211614
v 0.260335 0.142828 -0.022489
v 0.137540 0.205353 -0.141021
v 0.140017 0.187638 -0.121558
v 0.240675 0.249553 -0.179033
v 0.042043 0.125059 -0.256904
v 0.046819 0.121966 -0.219185
v 0.021636 -0.040586 -0.275888
v 0.029026 -0.041123 -0.218718
v 0.023877 -0.040044 -0.256393
v 0.030337 -0.040840 -0.206289
v 0.495303 0.358939 -0.294205
v 0.571255 0.194376 -0.102436
v 0.607371 0.190079 -0.130275
v 0.387797 0.223372 0.265181
v 0.430591 0.201850 0.092658
v 0.455734 0.222825 0.080944
v 0.218131 0.394001 -0.127567
v 0.363753 0.255152 -0.066340
v 0.403912 0.246709 -0.080112
v 0.716128 0.407641 0.125864
v 0.535736 0.263196 0.035756
v 0.558117 0.251019 0.011020
v 0.425102 0.315819 -0.195855
v 0.486924 0.195465 -0.047659
v 0.522527 0.191189 -0.075103
v 0.209235 0.336737 0.102868
v 0.372603 0.306513 0.070647
v 0.396488 0.325289 0.052341
v 0.565714 0.191711 -0.331797
v 0.501615 0.184764 -0.089955
v 0.540444 0.176623 -0.120163
v 0.540931 -0.034036 -0.030964
v 0.592043 -0.035057 -0.070778
v 0.450659 -0.034083 0.041770
v 0.515437 -0.034083 0.037493
v 0.430445 -0.034126 -0.003465
v 0.495223 -0.034126 -0.007743
v 0.522023 -0.034091 0.000055
v 0.586801 -0.034091 -0.004223
v 0.498341 -0.034034 -0.008728
v 0.549365 -0.035053 -0.048474
v 0.485518 -0.035804 0.011902
v 0.540101 -0.034746 -0.030646
v 0.471781 -0.034604 -0.018398
v 0.522935 -0.035208 -0.058273
v -0.031110 0.384769 0.467677
v -0.009264 -0.025242 0.328178
v 0.065657 -0.025242 0.328178
v -0.042547 0.218249 0.354667
v -0.012375 0.220475 0.354943
v -0.338180 0.151386 0.255164
v -0.088247 -0.025698 0.281073
v -0.014066 -0.025620 0.281073
v -0.192884 0.169430 0.250564
v -0.185867 0.202540 0.242786
v 0.336952 0.215131 0.061379
v 0.000280 -0.025717 0.296154
v 0.074648 -0.025639 0.296154
v 0.160598 0.269507 0.180739
v 0.174488 0.243696 0.192443
v -0.161926 0.442358 0.198027
v -0.063643 -0.025260 0.296147
v 0.011278 -0.025260 0.296147
v -0.170517 0.305723 0.273044
v -0.134254 0.301403 0.273317
v 0.245703 0.381049 0.017247
v -0.059635 -0.025709 0.252031
v 0.014729 -0.025631 0.252031
v 0.062654 0.380047 0.126301
v 0.087871 0.363972 0.124630
vt 0.1820 0.5390
vt 0.1797 0.5110
vt 0.1821 0.5107
vt 0.1852 0.5386
vt 0.3119 0.5390
vt 0.3095 0.5110
vt 0.3120 0.5107
vt 0.3151 0.5386
vt 0.1815 0.6089
vt 0.1815 0.6089
vt 0.1829 0.5653
vt 0.1858 0.5650
vt 0.3114 0.6089
vt 0.3129 0.5797
vt 0.3154 0.5795
vt 0.4466 0.5390
vt 0.4443 0.5110
vt 0.4468 0.5107
vt 0.4499 0.5386
vt 0.1797 0.5110
vt 0.1821 0.5107
vt 0.3114 0.6089
vt 0.4462 0.6089
vt 0.3095 0.5110
vt 0.3120 0.5107
vt 0.4346 0.5815
vt 0.4314 0.5168
vt 0.4337 0.5165
vt 0.4369 0.5814
vt 0.1747 0.5680
vt 0.1717 0.5168
vt 0.1741 0.5165
vt 0.1775 0.5676
vt 0.0561 0.5432
vt 0.0539 0.5168
vt 0.0562 0.5165
vt 0.0592 0.5428
vt 0.1735 0.6091
vt 0.3068 0.6091
vt 0.3072 0.5432
vt 0.3103 0.5428
vt 0.3072 0.5432
vt 0.3050 0.5168
vt 0.3074 0.5165
vt 0.3103 0.5428
vt 0.4331 0.6091
vt 0.3050 0.5168
vt 0.3074 0.5165
vt 0.4369 0.5814
vt 0.4346 0.5815
vt 0.4314 0.5168
vt 0.4337 0.5165
vt 0.4331 0.6091
vt 0.0557 0.6091
vt 0.3068 0.6091
vt 0.3199 0.6161
vt 0.3213 0.5686
vt 0.3245 0.5682
vt 0.1963 0.5542
vt 0.1931 0.5094
vt 0.1958 0.5091
vt 0.1997 0.5538
vt 0.1967 0.6043
vt 0.4229 0.5686
vt 0.4194 0.5094
vt 0.4221 0.5091
vt 0.4261 0.5682
vt 0.0634 0.5843
vt 0.0597 0.5094
vt 0.0624 0.5091
vt 0.0661 0.5841
vt 0.1951 0.6161
vt 0.1965 0.5686
vt 0.1997 0.5682
vt 0.4214 0.6161
vt 0.3211 0.5542
vt 0.3245 0.5538
vt 0.3199 0.6161
vt 0.0618 0.6161
vt 0.0630 0.5542
vt 0.0664 0.5538
vt 0.0618 0.6161
vt 0.3178 0.5094
vt 0.3205 0.5091
vt 0.0597 0.5094
vt 0.0624 0.5091
vt 0.3178 0.5094
vt 0.3205 0.5091
vt 0.1931 0.5094
vt 0.1958 0.5091
vt 0.3015 0.6131
vt 0.3030 0.5835
vt 0.3055 0.5834
vt 0.1840 0.5139
vt 0.1876 0.5687
vt 0.1847 0.5690
vt 0.1814 0.5142
vt 0.1841 0.5863
vt 0.4255 0.6131
vt 0.4271 0.5835
vt 0.4295 0.5817
vt 0.1833 0.6131
vt 0.1849 0.5835
vt 0.1874 0.5834
vt 0.2996 0.5142
vt 0.3021 0.5139
vt 0.0515 0.6131
vt 0.0530 0.5835
vt 0.0555 0.5834
vt 0.4236 0.5142
vt 0.4261 0.5139
vt 0.0521 0.5139
vt 0.0496 0.5142
vt 0.1840 0.5139
vt 0.1814 0.5142
vt 0.1820 0.5390
vt 0.1852 0.5386
vt 0.1821 0.5107
vt 0.1797 0.5110
vt 0.3119 0.5390
vt 0.3151 0.5386
vt 0.3120 0.5107
vt 0.3095 0.5110
vt 0.1815 0.6089
vt 0.1815 0.6089
vt 0.1858 0.5650
vt 0.1829 0.5653
vt 0.3114 0.6089
vt 0.3154 0.5795
vt 0.3129 0.5797
vt 0.4466 0.5390
vt 0.4499 0.5386
vt 0.4468 0.5107
vt 0.4443 0.5110
vt 0.1821 0.5107
vt 0.1797 0.5110
vt 0.3114 0.6089
vt 0.4462 0.6089
vt 0.3120 0.5107
vt 0.3095 0.5110
vt 0.4346 0.5815
vt 0.4369 0.5814
vt 0.4337 0.5165
vt 0.4314 0.5168
vt 0.1747 0.5680
vt 0.1775 0.5676
vt 0.1741 0.5165
vt 0.1717 0.5168
vt 0.0561 0.5432
vt 0.0592 0.5428
vt 0.0562 0.5165
vt 0.0539 0.5168
vt 0.1735 0.6091
vt 0.3068 0.6091
vt 0.3103 0.5428
vt 0.3072 0.5432
vt 0.3072 0.5432
vt 0.3103 0.5428
vt 0.3074 0.5165
vt 0.3050 0.5168
vt 0.4331 0.6091
vt 0.3074 0.5165
vt 0.3050 0.5168
vt 0.4369 0.5814
vt 0.4337 0.5165
vt 0.4314 0.5168
vt 0.4346 0.5815
vt 0.4331 0.6091
vt 0.0557 0.6091
vt 0.3068 0.6091
vt 0.3199 0.6161
vt 0.3245 0.5682
vt 0.3213 0.5686
vt 0.1963 0.5542
vt 0.1997 0.5538
vt 0.1958 0.5091
vt 0.1931 0.5094
vt 0.1967 0.6043
vt 0.4229 0.5686
vt 0.4261 0.5682
vt 0.4221 0.5091
vt 0.4194 0.5094
vt 0.0634 0.5843
vt 0.0661 0.5841
vt 0.0624 0.5091
vt 0.0597 0.5094
vt 0.1951 0.6161
vt 0.1997 0.5682
vt 0.1965 0.5686
vt 0.4214 0.6161
vt 0.3211 0.5542
vt 0.3199 0.6161
vt 0.3245 0.5538
vt 0.0618 0.6161
vt 0.0664 0.5538
vt 0.0630 0.5542
vt 0.0618 0.6161
vt 0.3205 0.5091
vt 0.3178 0.5094
vt 0.0624 0.5091
vt 0.0597 0.5094
vt 0.3205 0.5091
vt 0.3178 0.5094
vt 0.1958 0.5091
vt 0.1931 0.5094
vt 0.3015 0.6131
vt 0.3055 0.5834
vt 0.3030 0.5835
vt 0.1840 0.5139
vt 0.1814 0.5142
vt 0.1847 0.5690
vt 0.1876 0.5687
vt 0.1841 0.5863
vt 0.4255 0.6131
vt 0.4295 0.5817
vt 0.4271 0.5835
vt 0.1833 0.6131
vt 0.1874 0.5834
vt 0.1849 0.5835
vt 0.3021 0.5139
vt 0.2996 0.5142
vt 0.0515 0.6131
vt 0.0555 0.5834
vt 0.0530 0.5835
vt 0.4261 0.5139
vt 0.4236 0.5142
vt 0.0521 0.5139
vt 0.0496 0.5142
vt 0.1840 0.5139
vt 0.1814 0.5142
vn -0.9844 0.0601 0.1653
vn -0.9839 0.0629 0.1670
vn -0.9843 0.0610 0.1658
vn -0.6933 0.2210 0.6859
vn -0.7251 -0.0704 0.6850
vn -0.6533 0.3648 0.6633
vn -0.9848 0.0579 0.1639
vn -0.5846 -0.7937 0.1683
vn -0.8036 -0.5407 0.2487
vn -0.8146 -0.5219 0.2529
vn -0.5817 0.7913 0.1881
vn -0.7430 0.5825 0.3295
vn -0.7985 0.4596 0.3887
vn -0.7429 -0.0214 0.6691
vn -0.7322 -0.0720 0.6772
vn -0.7430 -0.0203 0.6689
vn -0.9271 -0.2253 0.2995
vn -0.5050 0.6621 0.5536
vn -0.7522 0.0346 0.6579
vn -0.8531 0.2251 0.4707
vn 0.0591 0.4996 -0.8642
vn 0.2929 0.3419 -0.8929
vn -0.1235 0.5936 -0.7952
vn -0.7084 -0.0508 0.7039
vn -0.7489 0.1092 0.6536
vn -0.7246 0.0036 0.6891
vn -0.4456 0.2538 0.8585
vn -0.6140 0.0340 0.7885
vn -0.5273 0.1558 0.8353
vn -0.6621 -0.1750 0.7287
vn -0.5643 0.8139 0.1381
vn -0.8751 0.4610 0.1469
vn -0.8441 0.5155 0.1476
vn 0.3070 0.4917 -0.8148
vn 0.3854 0.1095 -0.9162
vn 0.2853 0.5589 -0.7786
vn -0.4261 0.6894 -0.5858
vn -0.9853 0.1095 0.1309
vn -0.6243 0.5929 0.5085
vn -0.7765 0.4983 0.3854
vn -0.9184 0.3414 0.1997
vn -0.2899 0.6894 0.6638
vn -0.3085 0.3933 0.8661
vn 0.1314 0.8641 -0.4858
vn 0.6868 -0.6806 0.2552
vn 0.5150 -0.4789 0.7109
vn 0.4875 -0.4487 0.7490
vn 0.5962 0.4507 0.6644
vn 0.6159 0.1705 0.7692
vn 0.4841 0.7632 0.4280
vn 0.2785 0.9550 0.1014
vn 0.3107 0.5479 0.7767
vn 0.1844 0.2749 0.9436
vn 0.2373 0.3876 0.8907
vn 0.4233 0.3131 0.8502
vn 0.6023 0.0593 0.7960
vn 0.5042 0.2096 0.8377
vn 0.2811 -0.7356 0.6163
vn 0.3132 -0.4874 0.8150
vn 0.3172 -0.3746 0.8712
vn 0.3634 0.6676 0.6498
vn 0.5751 0.4544 0.6803
vn 0.5635 0.5000 0.6576
vn 0.4528 0.7573 0.4706
vn 0.4393 0.7782 0.4487
vn 0.5662 0.4906 0.6623
vn 0.5679 0.4840 0.6657
vn 0.2550 0.4891 0.8341
vn 0.6109 0.1623 0.7749
vn 0.6109 0.1628 0.7748
vn 0.2072 -0.1514 0.9665
vn 0.3054 -0.0751 0.9492
vn 0.0340 -0.5628 0.8259
vn 0.0170 -0.3410 0.9399
vn 0.0160 -0.3277 0.9446
vn 0.0228 0.1749 0.9843
vn 0.0116 0.2043 0.9788
vn 0.0139 0.1982 0.9800
vn 0.0025 0.2282 0.9736
vn 0.5730 0.5736 0.5853
vn 0.3396 0.5179 0.7851
vn 0.2552 0.4885 0.8344
vn 0.4151 0.5784 0.7022
vn 0.1931 0.4038 0.8942
vn 0.2645 0.4632 0.8459
vn -0.0003 -0.1083 0.9941
vn 0.0504 0.4782 0.8768
vn 0.0304 0.3168 0.9480
vn 0.0197 0.2300 0.9730
vn -0.0160 0.3682 0.9296
vn 0.0002 0.0698 0.9976
vn 0.0624 0.2887 0.9554
vn 0.9844 -0.0601 -0.1653
vn 0.9843 -0.0610 -0.1658
vn 0.9839 -0.0629 -0.1670
vn 0.6932 -0.2210 -0.6859
vn 0.6533 -0.3647 -0.6634
vn 0.7252 0.0705 -0.6849
vn 0.9848 -0.0579 -0.1639
vn 0.5846 0.7936 -0.1683
vn 0.8146 0.5219 -0.2529
vn 0.8036 0.5407 -0.2487
vn 0.5819 -0.7912 -0.1880
vn 0.7985 -0.4597 -0.3887
vn 0.7431 -0.5824 -0.3295
vn 0.7429 0.0214 -0.6691
vn 0.7430 0.0203 -0.6689
vn 0.7322 0.0720 -0.6772
vn 0.9271 0.2253 -0.2995
vn 0.5049 -0.6621 -0.5538
vn 0.7522 -0.0346 -0.6579
vn 0.8531 -0.2251 -0.4707
vn -0.0589 -0.4996 0.8642
vn 0.1234 -0.5933 0.7954
vn -0.2930 -0.3419 0.8929
vn 0.7084 0.0508 -0.7039
vn 0.7246 -0.0036 -0.6891
vn 0.7489 -0.1092 -0.6536
vn 0.4457 -0.2537 -0.8585
vn 0.5272 -0.1558 -0.8353
vn 0.6140 -0.0340 -0.7885
vn 0.6621 0.1750 -0.7287
vn 0.5643 -0.8139 -0.1382
vn 0.8441 -0.5154 -0.1476
vn 0.8751 -0.4610 -0.1469
vn -0.3070 -0.4918 0.8148
vn -0.2853 -0.5588 0.7786
vn -0.3854 -0.1094 0.9162
vn 0.4262 -0.6890 0.5862
vn 0.9853 -0.1094 -0.1309
vn 0.6246 -0.5926 -0.5085
vn 0.9185 -0.3414 -0.1996
vn 0.7765 -0.4984 -0.3856
vn 0.2902 -0.6890 -0.6641
vn 0.3086 -0.3932 -0.8661
vn -0.1313 -0.8641 0.4858
vn -0.6867 0.6806 -0.2552
vn -0.4874 0.4487 -0.7490
vn -0.5150 0.4790 -0.7108
vn -0.5962 -0.4508 -0.6643
vn -0.4845 -0.7629 -0.4281
vn -0.6157 -0.1705 -0.7693
vn -0.2791 -0.9549 -0.1014
vn -0.3106 -0.5478 -0.7768
vn -0.2374 -0.3877 -0.8907
vn -0.1844 -0.2749 -0.9436
vn -0.4233 -0.3130 -0.8502
vn -0.5041 -0.2097 -0.8378
vn -0.6023 -0.0594 -0.7960
vn -0.2811 0.7355 -0.6164
vn -0.3172 0.3746 -0.8712
vn -0.3132 0.4875 -0.8150
vn -0.3632 -0.6675 -0.6499
vn -0.5751 -0.4545 -0.6803
vn -0.4528 -0.7573 -0.4705
vn -0.5635 -0.5000 -0.6576
vn -0.4393 -0.7782 -0.4487
vn -0.5679 -0.4840 -0.6657
vn -0.5662 -0.4906 -0.6623
vn -0.2550 -0.4889 -0.8342
vn -0.6109 -0.1623 -0.7749
vn -0.6109 -0.1627 -0.7748
vn -0.2072 0.1515 -0.9665
vn -0.3055 0.0752 -0.9492
vn -0.0340 0.5628 -0.8259
vn -0.0160 0.3277 -0.9446
vn -0.0170 0.3410 -0.9399
vn -0.0228 -0.1749 -0.9843
vn -0.0139 -0.1982 -0.9800
vn -0.0116 -0.2043 -0.9788
vn -0.0025 -0.2282 -0.9736
vn -0.5730 -0.5737 -0.5852
vn -0.2553 -0.4885 -0.8343
vn -0.3395 -0.5180 -0.7851
vn -0.4152 -0.5783 -0.7022
vn -0.2645 -0.4631 -0.8459
vn -0.1932 -0.4038 -0.8942
vn 0.0003 0.1083 -0.9941
vn -0.0504 -0.4782 -0.8768
vn -0.0197 -0.2300 -0.9730
vn -0.0304 -0.3168 -0.9480
vn 0.0159 -0.3681 -0.9296
vn -0.0002 -0.0698 -0.9976
vn -0.0624 -0.2887 -0.9554
s 1
f 5/1/1 18/2/2 19/3/2 6/4/3
f 8/5/4 20/6/5 21/7/5 9/8/6
f 4/9/7 5/1/1 6/4/3
f 1/10/8 2/11/9 3/12/10
f 10/13/11 11/14/12 12/15/13
f 14/16/14 24/17/15 25/18/15 15/19/16
f 3/12/10 2/11/9 16/20/17 17/21/17
f 7/22/18 8/5/4 9/8/6
f 13/23/19 14/16/14 15/19/16
f 11/14/12 22/24/20 23/25/20 12/15/13
f 27/26/21 38/27/22 39/28/22 28/29/23
f 36/30/24 44/31/25 45/32/25 37/33/26
f 30/34/27 40/35/28 41/36/28 31/37/29
f 35/38/30 36/30/24 37/33/26
f 49/39/31 50/40/32 51/41/33
f 33/42/34 42/43/35 43/44/35 34/45/36
f 26/46/37 27/26/21 28/29/23
f 50/40/32 54/47/38 55/48/38 51/41/33
f 48/49/39 47/50/40 52/51/41 53/52/41
f 46/53/42 47/50/40 48/49/39
f 29/54/43 30/34/27 31/37/29
f 32/55/44 33/42/34 34/45/36
f 59/56/45 60/57/46 61/58/47
f 75/59/48 89/60/49 90/61/49 76/62/50
f 74/63/51 75/59/48 76/62/50
f 63/64/52 81/65/53 82/66/53 64/67/54
f 72/68/55 87/69/56 88/70/56 73/71/57
f 65/72/58 66/73/59 67/74/60
f 62/75/61 63/64/52 64/67/54
f 57/76/62 58/77/63 56/78/64
f 68/79/65 69/80/66 70/81/67
f 71/82/68 72/68/55 73/71/57
f 57/76/62 77/83/69 78/84/69 58/77/63
f 69/80/66 85/85/70 86/86/70 70/81/67
f 60/57/46 79/87/71 80/88/71 61/58/47
f 66/73/59 83/89/72 84/90/72 67/74/60
f 91/91/73 94/92/74 95/93/75
f 98/94/76 100/95/77 99/96/78 97/97/76
f 96/98/79 99/96/78 100/95/77
f 101/99/80 104/100/81 105/101/82
f 111/102/83 114/103/84 115/104/85
f 94/92/74 92/105/86 93/106/86 95/93/75
f 106/107/87 109/108/88 110/109/89
f 104/100/81 102/110/90 103/111/90 105/101/82
f 108/112/91 110/109/89 109/108/88 107/113/91
f 113/114/92 115/104/85 114/103/84 112/115/92
f 120/116/93 121/117/94 134/118/95 133/119/95
f 123/120/96 124/121/97 136/122/98 135/123/98
f 119/124/99 121/117/94 120/116/93
f 116/125/100 118/126/101 117/127/102
f 125/128/103 127/129/104 126/130/105
f 129/131/106 130/132/107 140/133/108 139/134/108
f 118/126/101 132/135/109 131/136/109 117/127/102
f 122/137/110 124/121/97 123/120/96
f 128/138/111 130/132/107 129/131/106
f 126/130/105 127/129/104 138/139/112 137/140/112
f 142/141/113 143/142/114 154/143/115 153/144/115
f 151/145/116 152/146/117 160/147/118 159/148/118
f 145/149/119 146/150/120 156/151/121 155/152/121
f 150/153/122 152/146/117 151/145/116
f 164/154/123 166/155/124 165/156/125
f 148/157/126 149/158/127 158/159/128 157/160/128
f 141/161/129 143/142/114 142/141/113
f 165/156/125 166/155/124 170/162/130 169/163/130
f 163/164/131 168/165/132 167/166/132 162/167/133
f 161/168/134 163/164/131 162/167/133
f 144/169/135 146/150/120 145/149/119
f 147/170/136 149/158/127 148/157/126
f 174/171/137 176/172/138 175/173/139
f 190/174/140 191/175/141 205/176/142 204/177/142
f 189/178/143 191/175/141 190/174/140
f 178/179/144 179/180/145 197/181/146 196/182/146
f 187/183/147 188/184/148 203/185/149 202/186/149
f 180/187/150 182/188/151 181/189/152
f 177/190/153 179/180/145 178/179/144
f 172/191/154 171/192/155 173/193/156
f 183/194/157 185/195/158 184/196/159
f 186/197/160 188/184/148 187/183/147
f 172/191/154 173/193/156 193/198/161 192/199/161
f 184/196/159 185/195/158 201/200/162 200/201/162
f 175/173/139 176/172/138 195/202/163 194/203/163
f 181/189/152 182/188/151 199/204/164 198/205/164
f 206/206/165 210/207/166 209/208/167
f 213/209/168 212/210/168 214/211/169 215/212/170
f 211/213/171 215/212/170 214/211/169
f 216/214/172 220/215/173 219/216/174
f 226/217/175 230/218/176 229/219/177
f 209/208/167 210/207/166 208/220/178 207/221/178
f 221/222/179 225/223/180 224/224/181
f 219/216/174 220/215/173 218/225/182 217/226/182
f 223/227/183 222/228/183 224/224/181 225/223/180
f 228/229/184 227/230/184 229/219/177 230/218/176
