# Blender v2.78 (sub 0) OBJ File: 'Low_Poly_Vegetation_Pack.blend'
# www.blender.org
g Grass_d_TwoS_01
v -0.024954 -0.013746 0.008705
v 0.003198 -0.013746 -0.008700
v -0.070144 0.332566 -0.064385
v 0.004646 -0.013746 -0.014118
v 0.033614 -0.013746 0.014118
v 0.077954 0.409525 -0.089329
v -0.025005 -0.013770 0.008622
v 0.003147 -0.013770 -0.008783
v -0.070195 0.332542 -0.064467
v 0.004713 -0.013770 -0.014187
v 0.033682 -0.013770 0.014048
v 0.078022 0.409501 -0.089398
vt 0.5697 0.5077
vt 0.5603 0.6109
vt 0.5603 0.5077
vt 0.5697 0.5077
vt 0.5603 0.6109
vt 0.5603 0.5077
vt 0.5697 0.5077
vt 0.5603 0.5077
vt 0.5603 0.6109
vt 0.5697 0.5077
vt 0.5603 0.5077
vt 0.5603 0.6109
vn -0.6774 0.2408 0.6950
vn 0.5104 0.2408 0.8255
vn 0.6774 -0.2408 -0.6950
vn -0.5104 -0.2408 -0.8255
s 1
f 5/1/1 6/2/1 4/3/1
f 2/4/2 3/5/2 1/6/2
f 11/7/3 10/8/3 12/9/3
f 8/10/4 7/11/4 9/12/4
