# Blender v2.78 (sub 0) OBJ File: 'Low_Poly_Vegetation_Pack.blend'
# www.blender.org
g Grass_c_TwoS_02
v -0.005923 -0.014474 0.049761
v -0.018518 -0.009752 0.144637
v 0.206848 0.463393 0.078105
v -0.080384 -0.022715 0.027822
v -0.007166 -0.017774 -0.017482
v -0.166691 0.421744 -0.103694
v -0.019080 -0.009042 -0.057159
v 0.057400 -0.015978 0.015045
v 0.104576 0.552423 -0.096248
v -0.005832 -0.014515 0.049775
v -0.018428 -0.009793 0.144651
v 0.206939 0.463352 0.078119
v -0.080431 -0.022748 0.027741
v -0.007214 -0.017807 -0.017563
v -0.166739 0.421711 -0.103775
v -0.019014 -0.009062 -0.057231
v 0.057466 -0.015997 0.014972
v 0.104643 0.552403 -0.096320
vt 0.6941 0.5062
vt 0.6845 0.6113
vt 0.6845 0.5062
vt 0.5684 0.5062
vt 0.5588 0.6113
vt 0.5588 0.5062
vt 0.6941 0.5062
vt 0.6845 0.6113
vt 0.6845 0.5062
vt 0.6941 0.5062
vt 0.6845 0.5062
vt 0.6845 0.6113
vt 0.5684 0.5062
vt 0.5588 0.5062
vt 0.5588 0.6113
vt 0.6941 0.5062
vt 0.6845 0.5062
vt 0.6845 0.6113
vn 0.4797 0.3333 0.8116
vn -0.6636 0.1964 0.7218
vn -0.9014 0.4096 -0.1400
vn -0.4797 -0.3333 -0.8116
vn 0.6636 -0.1964 -0.7218
vn 0.9014 -0.4096 0.1400
s 1
f 5/1/1 6/2/1 4/3/1
f 8/4/2 9/5/2 7/6/2
f 2/7/3 3/8/3 1/9/3
f 14/10/4 13/11/4 15/12/4
f 17/13/5 16/14/5 18/15/5
f 11/16/6 10/17/6 12/18/6
