# Blender v2.78 (sub 0) OBJ File: 'Low_Poly_Vegetation_Pack.blend'
# www.blender.org
g Grass_g_TwoS_05
v -0.179489 0.137419 -0.010858
v -0.116900 0.194333 -0.154931
v -0.131273 0.179710 -0.147426
v -0.239153 0.264638 -0.267085
v -0.106809 0.137452 -0.283246
v -0.080776 0.140144 -0.300262
v -0.050000 0.213149 -0.078113
v -0.049252 0.120685 -0.273723
v -0.074196 0.118402 -0.260736
v -0.263774 0.367563 -0.273402
v -0.130069 0.224381 -0.318854
v -0.100829 0.231172 -0.321948
v -0.038357 -0.032202 -0.298007
v -0.081288 -0.032654 -0.275518
v -0.084316 -0.033178 -0.293416
v -0.035641 -0.032434 -0.293416
v -0.053731 -0.031723 -0.290249
v -0.092452 -0.032412 -0.269982
v -0.087983 -0.032112 -0.293416
v -0.041362 -0.032063 -0.293416
v 0.195714 0.114968 -0.342584
v 0.059287 0.165258 -0.326631
v 0.072675 0.151012 -0.318248
v 0.088242 0.200844 -0.410215
v -0.061546 0.100654 -0.326333
v -0.035640 0.098170 -0.310066
v -0.083766 -0.032626 -0.323315
v -0.044426 -0.033058 -0.298750
v -0.070501 -0.032209 -0.314764
v -0.036032 -0.032849 -0.293225
v 0.305470 0.170802 0.437797
v 0.206693 0.241542 0.269387
v 0.203697 0.223367 0.289316
v 0.004513 0.328926 0.309936
v 0.085268 0.170842 0.165228
v 0.087263 0.174189 0.126624
v 0.332839 0.264928 0.258515
v 0.137006 0.150003 0.114423
v 0.131766 0.147165 0.148982
v -0.019871 0.456854 0.330025
v 0.032475 0.278889 0.162487
v 0.050796 0.287330 0.130865
v 0.120610 -0.040025 0.085690
v 0.111728 -0.040586 0.145270
v 0.091541 -0.041238 0.135194
v 0.127209 -0.040313 0.086328
v 0.117133 -0.039430 0.106810
v 0.109105 -0.040285 0.160535
v 0.088854 -0.039912 0.138876
v 0.123017 -0.039852 0.092071
v 0.247382 0.142897 -0.181968
v 0.163426 0.205403 -0.033313
v 0.181653 0.187697 -0.040611
v 0.100730 0.249634 -0.123632
v 0.075180 0.125105 0.088213
v 0.110494 0.122018 0.074126
v 0.061928 -0.040552 0.112733
v 0.115416 -0.041089 0.091239
v 0.080232 -0.040033 0.105681
v 0.127115 -0.040829 0.086860
v -0.117560 0.353465 0.424673
v -0.205488 0.242837 0.217485
v -0.165916 0.231019 0.220427
v -0.304504 0.417817 -0.008809
v -0.198333 0.127116 0.082359
v -0.152700 0.126741 0.112856
v -0.029936 0.336365 -0.049092
v -0.232258 0.147221 0.134283
v -0.184871 0.143772 0.133651
v -0.446926 0.422647 -0.203103
v -0.342086 0.321004 -0.008189
v -0.314523 0.326424 -0.002942
v -0.314033 0.447755 0.142393
v -0.317011 0.141317 0.152907
v -0.270619 0.149116 0.154260
v -0.202859 -0.055304 0.129743
v -0.146616 -0.061934 0.167326
v -0.214433 -0.055304 0.085689
v -0.158190 -0.061934 0.123273
v -0.252595 -0.058965 0.119559
v -0.185132 -0.058895 0.119572
v -0.286204 -0.057074 0.095703
v -0.220640 -0.060172 0.113623
v -0.276717 -0.059272 0.139171
v -0.208769 -0.058926 0.139232
v -0.179416 0.137350 -0.010854
v -0.116837 0.194283 -0.154872
v -0.131204 0.179651 -0.147385
v -0.239200 0.264599 -0.267164
v -0.106847 0.137426 -0.283335
v -0.080807 0.140129 -0.300355
v -0.049970 0.213062 -0.078072
v -0.049208 0.120636 -0.273647
v -0.074154 0.118346 -0.260665
v -0.263789 0.367581 -0.273500
v -0.130079 0.224386 -0.318953
v -0.100837 0.231172 -0.322048
v -0.038306 -0.032236 -0.297928
v -0.081238 -0.032688 -0.275439
v -0.084338 -0.033181 -0.293514
v -0.035663 -0.032437 -0.293514
v -0.053684 -0.031734 -0.290161
v -0.092406 -0.032423 -0.269894
v -0.087986 -0.032123 -0.293515
v -0.041365 -0.032074 -0.293515
v 0.195681 0.114899 -0.342649
v 0.059306 0.165208 -0.326716
v 0.072675 0.150953 -0.318328
v 0.088267 0.200763 -0.410268
v -0.061502 0.100607 -0.326410
v -0.035598 0.098118 -0.310141
v -0.083723 -0.032660 -0.323398
v -0.044384 -0.033092 -0.298834
v -0.070449 -0.032220 -0.314849
v -0.035980 -0.032860 -0.293309
v 0.305516 0.170733 0.437741
v 0.206779 0.241492 0.269371
v 0.203770 0.223307 0.289284
v 0.004422 0.328887 0.309928
v 0.085174 0.170817 0.165206
v 0.087169 0.174174 0.126594
v 0.332889 0.264842 0.258515
v 0.137093 0.149954 0.114433
v 0.131848 0.147109 0.148990
v -0.019959 0.456871 0.329979
v 0.032389 0.278894 0.162436
v 0.050711 0.287330 0.130812
v 0.120704 -0.040059 0.085696
v 0.111822 -0.040620 0.145276
v 0.091449 -0.041241 0.135155
v 0.127118 -0.040316 0.086288
v 0.117232 -0.039441 0.106824
v 0.109203 -0.040296 0.160549
v 0.088771 -0.039923 0.138820
v 0.122935 -0.039863 0.092015
v 0.247311 0.142828 -0.181979
v 0.163369 0.205353 -0.033379
v 0.181588 0.187638 -0.040659
v 0.100703 0.249553 -0.123683
v 0.075144 0.125059 0.088132
v 0.110459 0.121966 0.074048
v 0.061886 -0.040586 0.112649
v 0.115374 -0.041123 0.091155
v 0.080195 -0.040044 0.105589
v 0.127077 -0.040840 0.086768
v -0.117532 0.353544 0.424619
v -0.205451 0.242891 0.217409
v -0.165878 0.231071 0.220351
v -0.304448 0.417812 -0.008892
v -0.198278 0.127110 0.082276
v -0.152645 0.126735 0.112773
v -0.029942 0.336299 -0.049166
v -0.232261 0.147199 0.134186
v -0.184874 0.143735 0.133558
v -0.446900 0.422568 -0.203158
v -0.342059 0.320946 -0.008265
v -0.314497 0.326378 -0.003027
v -0.314030 0.447752 0.142293
v -0.317009 0.141320 0.152807
v -0.270617 0.149118 0.154160
v -0.202817 -0.055281 0.129654
v -0.146574 -0.061911 0.167238
v -0.214377 -0.055310 0.085606
v -0.158134 -0.061940 0.123189
v -0.252596 -0.058957 0.119460
v -0.185132 -0.058888 0.119472
v -0.286179 -0.057096 0.095608
v -0.220616 -0.060195 0.113529
v -0.276716 -0.059265 0.139071
v -0.208768 -0.058918 0.139132
vt 0.4346 0.5815
vt 0.4314 0.5168
vt 0.4337 0.5165
vt 0.4369 0.5814
vt 0.1747 0.5680
vt 0.1717 0.5168
vt 0.1741 0.5165
vt 0.1775 0.5676
vt 0.0561 0.5432
vt 0.0539 0.5168
vt 0.0562 0.5165
vt 0.0592 0.5428
vt 0.1735 0.6091
vt 0.3068 0.6091
vt 0.3072 0.5432
vt 0.3103 0.5428
vt 0.3072 0.5432
vt 0.3050 0.5168
vt 0.3074 0.5165
vt 0.3103 0.5428
vt 0.4331 0.6091
vt 0.3050 0.5168
vt 0.3074 0.5165
vt 0.4369 0.5814
vt 0.4346 0.5815
vt 0.4314 0.5168
vt 0.4337 0.5165
vt 0.4331 0.6091
vt 0.0557 0.6091
vt 0.3068 0.6091
vt 0.4346 0.5815
vt 0.4314 0.5168
vt 0.4337 0.5165
vt 0.4369 0.5814
vt 0.1747 0.5680
vt 0.1717 0.5168
vt 0.1741 0.5165
vt 0.1775 0.5676
vt 0.0561 0.5432
vt 0.0539 0.5168
vt 0.0562 0.5165
vt 0.0592 0.5428
vt 0.1735 0.6091
vt 0.3068 0.6091
vt 0.3072 0.5432
vt 0.3103 0.5428
vt 0.3072 0.5432
vt 0.3050 0.5168
vt 0.3074 0.5165
vt 0.3103 0.5428
vt 0.4331 0.6091
vt 0.3050 0.5168
vt 0.3074 0.5165
vt 0.4369 0.5814
vt 0.4346 0.5815
vt 0.4314 0.5168
vt 0.4337 0.5165
vt 0.4331 0.6091
vt 0.0557 0.6091
vt 0.3068 0.6091
vt 0.1820 0.5390
vt 0.1797 0.5110
vt 0.1821 0.5107
vt 0.1852 0.5386
vt 0.3119 0.5390
vt 0.3095 0.5110
vt 0.3120 0.5107
vt 0.3151 0.5386
vt 0.1815 0.6089
vt 0.1815 0.6089
vt 0.1829 0.5653
vt 0.1858 0.5650
vt 0.3114 0.6089
vt 0.3129 0.5797
vt 0.3154 0.5795
vt 0.4466 0.5390
vt 0.4443 0.5110
vt 0.4468 0.5107
vt 0.4499 0.5386
vt 0.1797 0.5110
vt 0.1821 0.5107
vt 0.3114 0.6089
vt 0.4462 0.6089
vt 0.3095 0.5110
vt 0.3120 0.5107
vt 0.4346 0.5815
vt 0.4369 0.5814
vt 0.4337 0.5165
vt 0.4314 0.5168
vt 0.1747 0.5680
vt 0.1775 0.5676
vt 0.1741 0.5165
vt 0.1717 0.5168
vt 0.0561 0.5432
vt 0.0592 0.5428
vt 0.0562 0.5165
vt 0.0539 0.5168
vt 0.1735 0.6091
vt 0.3068 0.6091
vt 0.3103 0.5428
vt 0.3072 0.5432
vt 0.3072 0.5432
vt 0.3103 0.5428
vt 0.3074 0.5165
vt 0.3050 0.5168
vt 0.4331 0.6091
vt 0.3074 0.5165
vt 0.3050 0.5168
vt 0.4369 0.5814
vt 0.4337 0.5165
vt 0.4314 0.5168
vt 0.4346 0.5815
vt 0.4331 0.6091
vt 0.0557 0.6091
vt 0.3068 0.6091
vt 0.4346 0.5815
vt 0.4369 0.5814
vt 0.4337 0.5165
vt 0.4314 0.5168
vt 0.1747 0.5680
vt 0.1775 0.5676
vt 0.1741 0.5165
vt 0.1717 0.5168
vt 0.0561 0.5432
vt 0.0592 0.5428
vt 0.0562 0.5165
vt 0.0539 0.5168
vt 0.1735 0.6091
vt 0.3068 0.6091
vt 0.3103 0.5428
vt 0.3072 0.5432
vt 0.3072 0.5432
vt 0.3103 0.5428
vt 0.3074 0.5165
vt 0.3050 0.5168
vt 0.4331 0.6091
vt 0.3074 0.5165
vt 0.3050 0.5168
vt 0.4369 0.5814
vt 0.4337 0.5165
vt 0.4314 0.5168
vt 0.4346 0.5815
vt 0.4331 0.6091
vt 0.0557 0.6091
vt 0.3068 0.6091
vt 0.1820 0.5390
vt 0.1852 0.5386
vt 0.1821 0.5107
vt 0.1797 0.5110
vt 0.3119 0.5390
vt 0.3151 0.5386
vt 0.3120 0.5107
vt 0.3095 0.5110
vt 0.1815 0.6089
vt 0.1815 0.6089
vt 0.1858 0.5650
vt 0.1829 0.5653
vt 0.3114 0.6089
vt 0.3154 0.5795
vt 0.3129 0.5797
vt 0.4466 0.5390
vt 0.4499 0.5386
vt 0.4468 0.5107
vt 0.4443 0.5110
vt 0.1821 0.5107
vt 0.1797 0.5110
vt 0.3114 0.6089
vt 0.4462 0.6089
vt 0.3120 0.5107
vt 0.3095 0.5110
vn -0.6308 0.4996 -0.5936
vn -0.5048 0.3419 -0.7926
vn -0.6933 0.5936 -0.4086
vn 0.0952 -0.0508 0.9941
vn 0.0307 0.1092 0.9935
vn 0.0735 0.0036 0.9973
vn 0.3813 0.2538 0.8889
vn 0.2204 0.0340 0.9748
vn 0.3116 0.1558 0.9373
vn 0.1437 -0.1750 0.9740
vn -0.2510 0.8139 0.5240
vn -0.4413 0.4610 0.7699
vn -0.4210 0.5155 0.7463
vn -0.4354 0.4917 -0.7540
vn -0.4642 0.1095 -0.8789
vn -0.4212 0.5589 -0.7143
vn -0.7232 0.6894 -0.0418
vn -0.5235 0.1095 0.8450
vn -0.0026 0.5929 0.8052
vn -0.1943 0.4983 0.8449
vn -0.4279 0.3414 0.8368
vn 0.3295 0.6894 0.6451
vn 0.4741 0.3933 0.7877
vn -0.2923 0.8641 -0.4096
vn -0.8514 0.4996 0.1596
vn -0.9378 0.3419 -0.0595
vn -0.7388 0.5936 0.3191
vn 0.8591 -0.0508 0.5092
vn 0.8206 0.1092 0.5610
vn 0.8488 0.0036 0.5286
vn 0.9428 0.2538 0.2161
vn 0.9173 0.0340 0.3966
vn 0.9408 0.1558 0.3009
vn 0.8715 -0.1750 0.4581
vn 0.2752 0.8139 0.5116
vn 0.3617 0.4610 0.8103
vn 0.3546 0.5155 0.7801
vn -0.8657 0.4917 -0.0928
vn -0.9836 0.1095 -0.1433
vn -0.8253 0.5589 -0.0809
vn -0.4602 0.6893 0.5595
vn 0.3739 0.1095 0.9210
vn 0.6489 0.5929 0.4768
vn 0.5679 0.4983 0.6550
vn 0.4237 0.3414 0.8390
vn 0.7154 0.6894 0.1141
vn 0.9158 0.3933 0.0814
vn -0.5032 0.8641 -0.0053
vn -0.5531 0.0601 0.8309
vn -0.5515 0.0629 0.8318
vn -0.5526 0.0610 0.8312
vn 0.0258 0.2210 0.9749
vn 0.0033 -0.0704 0.9975
vn 0.0366 0.3648 0.9303
vn -0.5544 0.0579 0.8302
vn -0.2773 -0.7937 0.5415
vn -0.3685 -0.5407 0.7562
vn -0.3730 -0.5219 0.7671
vn -0.2609 0.7913 0.5530
vn -0.2682 0.5825 0.7673
vn -0.2629 0.4596 0.8483
vn -0.0204 -0.0214 0.9995
vn -0.0072 -0.0720 0.9974
vn -0.0207 -0.0203 0.9996
vn -0.4160 -0.2253 0.8810
vn 0.0581 0.6621 0.7471
vn -0.0349 0.0346 0.9988
vn -0.2405 0.2251 0.9442
vn 0.6310 -0.4996 0.5934
vn 0.6934 -0.5932 0.4089
vn 0.5047 -0.3419 0.7927
vn -0.0952 0.0508 -0.9941
vn -0.0735 -0.0036 -0.9973
vn -0.0307 -0.1092 -0.9935
vn -0.3813 -0.2537 -0.8889
vn -0.3116 -0.1558 -0.9373
vn -0.2205 -0.0340 -0.9748
vn -0.1437 0.1750 -0.9740
vn 0.2509 -0.8139 -0.5240
vn 0.4210 -0.5154 -0.7464
vn 0.4412 -0.4610 -0.7699
vn 0.4354 -0.4918 0.7540
vn 0.4212 -0.5588 0.7143
vn 0.4641 -0.1094 0.8790
vn 0.7236 -0.6889 0.0421
vn 0.5235 -0.1094 -0.8450
vn 0.0028 -0.5925 -0.8055
vn 0.4280 -0.3414 -0.8368
vn 0.1940 -0.4984 -0.8450
vn -0.3295 -0.6889 -0.6456
vn -0.4741 -0.3932 -0.7878
vn 0.2925 -0.8641 0.4095
vn 0.8513 -0.4996 -0.1597
vn 0.7391 -0.5933 -0.3190
vn 0.9378 -0.3419 0.0596
vn -0.8591 0.0508 -0.5092
vn -0.8488 -0.0036 -0.5286
vn -0.8206 -0.1092 -0.5610
vn -0.9428 -0.2537 -0.2161
vn -0.9408 -0.1558 -0.3009
vn -0.9173 -0.0340 -0.3966
vn -0.8714 0.1750 -0.4582
vn -0.2753 -0.8139 -0.5116
vn -0.3546 -0.5154 -0.7801
vn -0.3617 -0.4610 -0.8103
vn 0.8657 -0.4918 0.0928
vn 0.8253 -0.5588 0.0809
vn 0.9836 -0.1094 0.1433
vn 0.4605 -0.6890 -0.5596
vn -0.3739 -0.1094 -0.9210
vn -0.6489 -0.5926 -0.4771
vn -0.4236 -0.3414 -0.8390
vn -0.5681 -0.4984 -0.6549
vn -0.7157 -0.6890 -0.1144
vn -0.9158 -0.3932 -0.0815
vn 0.5032 -0.8641 0.0052
vn 0.5531 -0.0601 -0.8309
vn 0.5526 -0.0610 -0.8312
vn 0.5515 -0.0629 -0.8318
vn -0.0258 -0.2210 -0.9749
vn -0.0367 -0.3647 -0.9304
vn -0.0032 0.0705 -0.9975
vn 0.5544 -0.0579 -0.8302
vn 0.2773 0.7936 -0.5415
vn 0.3730 0.5219 -0.7671
vn 0.3685 0.5407 -0.7562
vn 0.2611 -0.7912 -0.5530
vn 0.2629 -0.4597 -0.8482
vn 0.2682 -0.5824 -0.7674
vn 0.0204 0.0214 -0.9995
vn 0.0207 0.0203 -0.9996
vn 0.0072 0.0720 -0.9974
vn 0.4160 0.2253 -0.8810
vn -0.0583 -0.6621 -0.7472
vn 0.0349 -0.0346 -0.9988
vn 0.2405 -0.2251 -0.9442
s 1
f 2/1/1 13/2/2 14/3/2 3/4/3
f 11/5/4 19/6/5 20/7/5 12/8/6
f 5/9/7 15/10/8 16/11/8 6/12/9
f 10/13/10 11/5/4 12/8/6
f 24/14/11 25/15/12 26/16/13
f 8/17/14 17/18/15 18/19/15 9/20/16
f 1/21/17 2/1/1 3/4/3
f 25/15/12 29/22/18 30/23/18 26/16/13
f 23/24/19 22/25/20 27/26/21 28/27/21
f 21/28/22 22/25/20 23/24/19
f 4/29/23 5/9/7 6/12/9
f 7/30/24 8/17/14 9/20/16
f 32/31/25 43/32/26 44/33/26 33/34/27
f 41/35/28 49/36/29 50/37/29 42/38/30
f 35/39/31 45/40/32 46/41/32 36/42/33
f 40/43/34 41/35/28 42/38/30
f 54/44/35 55/45/36 56/46/37
f 38/47/38 47/48/39 48/49/39 39/50/40
f 31/51/41 32/31/25 33/34/27
f 55/45/36 59/52/42 60/53/42 56/46/37
f 53/54/43 52/55/44 57/56/45 58/57/45
f 51/58/46 52/55/44 53/54/43
f 34/59/47 35/39/31 36/42/33
f 37/60/48 38/47/38 39/50/40
f 65/61/49 78/62/50 79/63/50 66/64/51
f 68/65/52 80/66/53 81/67/53 69/68/54
f 64/69/55 65/61/49 66/64/51
f 61/70/56 62/71/57 63/72/58
f 70/73/59 71/74/60 72/75/61
f 74/76/62 84/77/63 85/78/63 75/79/64
f 63/72/58 62/71/57 76/80/65 77/81/65
f 67/82/66 68/65/52 69/68/54
f 73/83/67 74/76/62 75/79/64
f 71/74/60 82/84/68 83/85/68 72/75/61
f 87/86/69 88/87/70 99/88/71 98/89/71
f 96/90/72 97/91/73 105/92/74 104/93/74
f 90/94/75 91/95/76 101/96/77 100/97/77
f 95/98/78 97/91/73 96/90/72
f 109/99/79 111/100/80 110/101/81
f 93/102/82 94/103/83 103/104/84 102/105/84
f 86/106/85 88/87/70 87/86/69
f 110/101/81 111/100/80 115/107/86 114/108/86
f 108/109/87 113/110/88 112/111/88 107/112/89
f 106/113/90 108/109/87 107/112/89
f 89/114/91 91/95/76 90/94/75
f 92/115/92 94/103/83 93/102/82
f 117/116/93 118/117/94 129/118/95 128/119/95
f 126/120/96 127/121/97 135/122/98 134/123/98
f 120/124/99 121/125/100 131/126/101 130/127/101
f 125/128/102 127/121/97 126/120/96
f 139/129/103 141/130/104 140/131/105
f 123/132/106 124/133/107 133/134/108 132/135/108
f 116/136/109 118/117/94 117/116/93
f 140/131/105 141/130/104 145/137/110 144/138/110
f 138/139/111 143/140/112 142/141/112 137/142/113
f 136/143/114 138/139/111 137/142/113
f 119/144/115 121/125/100 120/124/99
f 122/145/116 124/133/107 123/132/106
f 150/146/117 151/147/118 164/148/119 163/149/119
f 153/150/120 154/151/121 166/152/122 165/153/122
f 149/154/123 151/147/118 150/146/117
f 146/155/124 148/156/125 147/157/126
f 155/158/127 157/159/128 156/160/129
f 159/161/130 160/162/131 170/163/132 169/164/132
f 148/156/125 162/165/133 161/166/133 147/157/126
f 152/167/134 154/151/121 153/150/120
f 158/168/135 160/162/131 159/161/130
f 156/160/129 157/159/128 168/169/136 167/170/136
