# Blender v2.78 (sub 0) OBJ File: 'Low_Poly_Vegetation_Pack.blend'
# www.blender.org
g Grass_f_TwoS_02
v -0.108654 0.142335 0.292624
v -0.047304 0.197747 0.145212
v 0.000944 0.107311 0.034421
v -0.015690 0.106220 0.043144
v -0.055236 0.189677 0.149355
v -0.170453 0.274105 0.027231
v -0.084753 0.215983 0.003467
v -0.027688 0.144984 0.005604
v -0.012097 0.142543 -0.002245
v -0.071436 0.217893 -0.006844
v 0.025467 0.220773 0.222963
v 0.014946 0.199864 0.112453
v 0.021342 0.124554 0.022906
v 0.005304 0.123086 0.031256
v 0.004635 0.197679 0.117760
v -0.195955 0.380712 0.020687
v -0.051482 0.233798 -0.027023
v -0.017393 0.139265 -0.012532
v 0.000629 0.139808 -0.012865
v -0.033166 0.238052 -0.028962
v 0.024164 -0.033494 0.002202
v 0.006421 -0.033681 0.011496
v 0.004444 -0.034143 -0.000042
v 0.025818 -0.033816 -0.000042
v 0.010397 -0.033057 0.009103
v -0.007300 -0.033372 0.018365
v 0.000344 -0.033245 -0.000042
v 0.020195 -0.033225 -0.000042
v 0.279970 0.119081 -0.050969
v 0.142296 0.167303 -0.032170
v 0.037881 0.088601 -0.019648
v 0.051750 0.087651 -0.010997
v 0.148896 0.160280 -0.028037
v 0.168653 0.208029 -0.121020
v 0.058896 0.154999 -0.048424
v 0.020260 0.103607 -0.029896
v 0.033587 0.102329 -0.021528
v 0.069246 0.153403 -0.041848
v 0.003473 -0.033936 -0.022905
v 0.018259 -0.034098 -0.013672
v 0.014713 -0.033555 -0.015605
v 0.029454 -0.033829 -0.006393
v -0.108582 0.142266 0.292628
v -0.047242 0.197686 0.145261
v 0.000995 0.107283 0.034503
v -0.015637 0.106181 0.043220
v -0.055168 0.189610 0.149384
v -0.170503 0.274060 0.027157
v -0.084803 0.215939 0.003392
v -0.027728 0.144954 0.005517
v -0.012128 0.142527 -0.002339
v -0.071485 0.217850 -0.006919
v 0.025495 0.220679 0.222978
v 0.014983 0.199782 0.112496
v 0.021389 0.124515 0.022986
v 0.005350 0.123042 0.031334
v 0.004670 0.197593 0.117795
v -0.195969 0.380729 0.020590
v -0.051493 0.233801 -0.027123
v -0.017396 0.139253 -0.012631
v 0.000627 0.139797 -0.012965
v -0.033174 0.238047 -0.029061
v 0.024211 -0.033507 0.002289
v 0.006467 -0.033693 0.011584
v 0.004423 -0.034146 -0.000140
v 0.025797 -0.033819 -0.000140
v 0.010444 -0.033068 0.009191
v -0.007253 -0.033383 0.018453
v 0.000343 -0.033253 -0.000142
v 0.020194 -0.033232 -0.000142
v 0.279938 0.119012 -0.051034
v 0.142307 0.167242 -0.032249
v 0.037926 0.088573 -0.019733
v 0.051789 0.087612 -0.011080
v 0.148887 0.160214 -0.028111
v 0.168667 0.207940 -0.121063
v 0.058926 0.154927 -0.048487
v 0.020308 0.103574 -0.029978
v 0.033634 0.102294 -0.021609
v 0.069272 0.153325 -0.041906
v 0.003525 -0.033948 -0.022989
v 0.018311 -0.034111 -0.013757
v 0.014765 -0.033566 -0.015690
v 0.029506 -0.033840 -0.006478
vt 0.3072 0.5432
vt 0.3103 0.5428
vt 0.3106 0.5814
vt 0.3083 0.5815
vt 0.0561 0.5432
vt 0.0592 0.5428
vt 0.0597 0.5676
vt 0.0569 0.5680
vt 0.0539 0.5168
vt 0.0562 0.5165
vt 0.0557 0.6091
vt 0.1735 0.6091
vt 0.1747 0.5680
vt 0.1775 0.5676
vt 0.1739 0.5432
vt 0.1770 0.5428
vt 0.3050 0.5168
vt 0.3074 0.5165
vt 0.3068 0.6091
vt 0.4331 0.6091
vt 0.4346 0.5815
vt 0.4369 0.5814
vt 0.4336 0.5432
vt 0.4366 0.5428
vt 0.1717 0.5168
vt 0.1741 0.5165
vt 0.4336 0.5432
vt 0.4314 0.5168
vt 0.4337 0.5165
vt 0.4366 0.5428
vt 0.4369 0.5814
vt 0.4346 0.5815
vt 0.3072 0.5432
vt 0.3050 0.5168
vt 0.3074 0.5165
vt 0.3103 0.5428
vt 0.4314 0.5168
vt 0.4337 0.5165
vt 0.3108 0.5676
vt 0.3081 0.5680
vt 0.4331 0.6091
vt 0.3068 0.6091
vt 0.3072 0.5432
vt 0.3083 0.5815
vt 0.3106 0.5814
vt 0.3103 0.5428
vt 0.0561 0.5432
vt 0.0569 0.5680
vt 0.0597 0.5676
vt 0.0592 0.5428
vt 0.0562 0.5165
vt 0.0539 0.5168
vt 0.0557 0.6091
vt 0.1735 0.6091
vt 0.1775 0.5676
vt 0.1747 0.5680
vt 0.1739 0.5432
vt 0.1770 0.5428
vt 0.3074 0.5165
vt 0.3050 0.5168
vt 0.3068 0.6091
vt 0.4331 0.6091
vt 0.4369 0.5814
vt 0.4346 0.5815
vt 0.4336 0.5432
vt 0.4366 0.5428
vt 0.1741 0.5165
vt 0.1717 0.5168
vt 0.4336 0.5432
vt 0.4366 0.5428
vt 0.4337 0.5165
vt 0.4314 0.5168
vt 0.4346 0.5815
vt 0.4369 0.5814
vt 0.3072 0.5432
vt 0.3103 0.5428
vt 0.3074 0.5165
vt 0.3050 0.5168
vt 0.4337 0.5165
vt 0.4314 0.5168
vt 0.3081 0.5680
vt 0.3108 0.5676
vt 0.4331 0.6091
vt 0.3068 0.6091
vn -0.4629 0.3917 -0.7951
vn -0.4586 0.4371 -0.7737
vn -0.3464 0.8673 -0.3574
vn -0.3687 0.8207 -0.4364
vn 0.4015 0.2932 0.8676
vn 0.3073 0.1612 0.9378
vn 0.4927 0.4290 0.7571
vn 0.5007 0.4385 0.7464
vn 0.2093 0.0318 0.9773
vn 0.5070 0.4460 0.7375
vn 0.1437 -0.1750 0.9740
vn 0.1026 -0.0346 0.9941
vn 0.0782 0.0457 0.9959
vn 0.0252 0.1275 0.9915
vn 0.0214 0.1159 0.9930
vn -0.4646 0.1095 -0.8787
vn -0.2795 0.9479 -0.1527
vn -0.7232 0.6894 -0.0418
vn -0.6240 0.6110 -0.4870
vn -0.6873 0.6643 -0.2937
vn -0.5038 0.2755 -0.8187
vn -0.5247 0.3864 -0.7585
vn 0.0077 0.0739 0.9972
vn -0.4516 0.2755 0.8486
vn -0.5218 0.1245 0.8439
vn -0.3891 0.3864 0.8362
vn 0.0941 0.6643 0.7415
vn -0.1046 0.6110 0.7846
vn -0.4761 0.3301 0.8151
vn -0.5232 0.1095 0.8451
vn -0.4694 0.3534 0.8092
vn -0.4642 0.1245 -0.8769
vn -0.2572 0.7718 0.5814
vn -0.2993 0.7164 0.6302
vn 0.3295 0.6894 0.6451
vn -0.1404 0.8885 0.4367
vn 0.4629 -0.3918 0.7951
vn 0.3687 -0.8207 0.4363
vn 0.3465 -0.8673 0.3574
vn 0.4585 -0.4371 0.7737
vn -0.4014 -0.2931 -0.8677
vn -0.5006 -0.4384 -0.7464
vn -0.4926 -0.4290 -0.7571
vn -0.3074 -0.1613 -0.9378
vn -0.2094 -0.0318 -0.9773
vn -0.5070 -0.4460 -0.7375
vn -0.1436 0.1751 -0.9740
vn -0.0782 -0.0457 -0.9959
vn -0.1026 0.0347 -0.9941
vn -0.0252 -0.1275 -0.9915
vn -0.0214 -0.1159 -0.9930
vn 0.4645 -0.1095 0.8787
vn 0.2797 -0.9479 0.1527
vn 0.7237 -0.6887 0.0422
vn 0.6875 -0.6638 0.2942
vn 0.6243 -0.6110 0.4867
vn 0.5037 -0.2756 0.8187
vn 0.5246 -0.3864 0.7586
vn -0.0077 -0.0739 -0.9972
vn 0.4516 -0.2757 -0.8485
vn 0.3893 -0.3864 -0.8361
vn 0.5219 -0.1245 -0.8438
vn 0.1042 -0.6110 -0.7847
vn -0.0937 -0.6638 -0.7420
vn 0.4761 -0.3301 -0.8150
vn 0.4694 -0.3534 -0.8091
vn 0.5233 -0.1095 -0.8451
vn 0.4642 -0.1245 0.8769
vn 0.2992 -0.7164 -0.6302
vn 0.2572 -0.7718 -0.5815
vn -0.3295 -0.6887 -0.6459
vn 0.1403 -0.8885 -0.4368
s 1
f 13/1/1 14/2/2 15/3/3 12/4/4
f 8/5/5 9/6/6 10/7/7 7/8/8
f 8/5/5 23/9/9 24/10/9 9/6/6
f 6/11/10 7/8/8 10/7/7
f 16/12/11 17/13/12 20/14/13
f 18/15/14 19/16/15 20/14/13 17/13/12
f 13/1/1 25/17/16 26/18/16 14/2/2
f 11/19/17 12/4/4 15/3/3
f 1/20/18 2/21/19 5/22/20
f 3/23/21 4/24/22 5/22/20 2/21/19
f 18/15/14 27/25/23 28/26/23 19/16/15
f 31/27/24 39/28/25 40/29/25 32/30/26
f 31/27/24 32/30/26 33/31/27 30/32/28
f 36/33/29 41/34/30 42/35/30 37/36/31
f 3/23/21 21/37/32 22/38/32 4/24/22
f 36/33/29 37/36/31 38/39/33 35/40/34
f 29/41/35 30/32/28 33/31/27
f 34/42/36 35/40/34 38/39/33
f 55/43/37 54/44/38 57/45/39 56/46/40
f 50/47/41 49/48/42 52/49/43 51/50/44
f 50/47/41 51/50/44 66/51/45 65/52/45
f 48/53/46 52/49/43 49/48/42
f 58/54/47 62/55/48 59/56/49
f 60/57/50 59/56/49 62/55/48 61/58/51
f 55/43/37 56/46/40 68/59/52 67/60/52
f 53/61/53 57/45/39 54/44/38
f 43/62/54 47/63/55 44/64/56
f 45/65/57 44/64/56 47/63/55 46/66/58
f 60/57/50 61/58/51 70/67/59 69/68/59
f 73/69/60 74/70/61 82/71/62 81/72/62
f 73/69/60 72/73/63 75/74/64 74/70/61
f 78/75/65 79/76/66 84/77/67 83/78/67
f 45/65/57 46/66/58 64/79/68 63/80/68
f 78/75/65 77/81/69 80/82/70 79/76/66
f 71/83/71 75/74/64 72/73/63
f 76/84/72 80/82/70 77/81/69
