# Blender v2.78 (sub 0) OBJ File: 'Low_Poly_Vegetation_Pack.blend'
# www.blender.org
g Grass_f_TwoS_01
v 0.074922 0.294554 0.245725
v 0.010117 0.199835 0.073698
v 0.031005 0.101028 0.048257
v 0.046322 0.289717 0.146383
v 0.048503 0.101545 0.054677
v 0.026156 0.195045 0.074891
v 0.054017 0.281376 0.147657
v -0.086610 0.348181 -0.113974
v -0.015726 0.247454 -0.041432
v 0.012130 0.105846 -0.031141
v 0.029628 0.105702 -0.019447
v -0.005408 0.248007 -0.036647
v 0.156112 0.280304 -0.145457
v 0.060854 0.174329 -0.025380
v -0.001830 0.121908 0.007213
v 0.016340 0.120586 0.006971
v 0.077910 0.166424 -0.026751
v -0.175030 0.352206 -0.261343
v -0.083704 0.271637 -0.099216
v -0.031098 0.104172 -0.027003
v -0.012998 0.104318 -0.018921
v -0.068653 0.267887 -0.094239
v -0.080635 0.373129 0.018195
v -0.052328 0.228490 0.057404
v -0.072681 0.119519 0.027262
v -0.054893 0.122509 0.027781
v -0.038714 0.227138 0.057915
v 0.022539 -0.048291 0.012446
v 0.032008 -0.049407 0.018773
v 0.007149 -0.048291 -0.022730
v 0.016618 -0.049407 -0.016403
v -0.007006 -0.049114 -0.004910
v 0.004352 -0.049102 -0.004908
v -0.019295 -0.048592 -0.006379
v -0.008257 -0.049113 -0.003362
v -0.026946 -0.049278 0.015531
v -0.015507 -0.049220 0.015541
v 0.074995 0.294618 0.245701
v 0.010149 0.199877 0.073613
v 0.031039 0.101051 0.048166
v 0.046380 0.289778 0.146329
v 0.048536 0.101568 0.054585
v 0.026186 0.195084 0.074804
v 0.054074 0.281437 0.147601
v -0.086569 0.348149 -0.114059
v -0.015680 0.247435 -0.041519
v 0.012183 0.105844 -0.031225
v 0.029681 0.105700 -0.019532
v -0.005359 0.247999 -0.036734
v 0.156080 0.280248 -0.145533
v 0.060832 0.174281 -0.025465
v -0.001836 0.121898 0.007114
v 0.016331 0.120563 0.006874
v 0.077884 0.166372 -0.026833
v -0.175039 0.352114 -0.261383
v -0.083702 0.271556 -0.099276
v -0.031064 0.104151 -0.027095
v -0.012964 0.104301 -0.019013
v -0.068628 0.267839 -0.094323
v -0.080634 0.373103 0.018099
v -0.052326 0.228489 0.057304
v -0.072680 0.119535 0.027163
v -0.054891 0.122527 0.027682
v -0.038713 0.227142 0.057815
v 0.022582 -0.048273 0.012357
v 0.032050 -0.049390 0.018685
v 0.007204 -0.048297 -0.022813
v 0.016673 -0.049414 -0.016486
v -0.007007 -0.049107 -0.005010
v 0.004351 -0.049095 -0.005008
v -0.019260 -0.048601 -0.006472
v -0.008222 -0.049122 -0.003455
v -0.026945 -0.049271 0.015431
v -0.015506 -0.049213 0.015441
vt 0.1815 0.6089
vt 0.1826 0.5944
vt 0.1845 0.5920
vt 0.1829 0.5653
vt 0.1858 0.5650
vt 0.1820 0.5390
vt 0.1797 0.5110
vt 0.1821 0.5107
vt 0.1852 0.5386
vt 0.1815 0.6089
vt 0.1831 0.5797
vt 0.1855 0.5795
vt 0.4477 0.5797
vt 0.4466 0.5390
vt 0.4499 0.5386
vt 0.4502 0.5795
vt 0.3119 0.5390
vt 0.3095 0.5110
vt 0.3120 0.5107
vt 0.3151 0.5386
vt 0.3157 0.5650
vt 0.3127 0.5653
vt 0.3129 0.5797
vt 0.3119 0.5390
vt 0.3151 0.5386
vt 0.3154 0.5795
vt 0.3095 0.5110
vt 0.3120 0.5107
vt 0.4462 0.6089
vt 0.1820 0.5390
vt 0.1797 0.5110
vt 0.1821 0.5107
vt 0.1852 0.5386
vt 0.3114 0.6089
vt 0.4443 0.5110
vt 0.4468 0.5107
vt 0.3114 0.6089
vt 0.1815 0.6089
vt 0.1845 0.5920
vt 0.1826 0.5944
vt 0.1858 0.5650
vt 0.1829 0.5653
vt 0.1820 0.5390
vt 0.1852 0.5386
vt 0.1821 0.5107
vt 0.1797 0.5110
vt 0.1815 0.6089
vt 0.1855 0.5795
vt 0.1831 0.5797
vt 0.4477 0.5797
vt 0.4502 0.5795
vt 0.4499 0.5386
vt 0.4466 0.5390
vt 0.3119 0.5390
vt 0.3151 0.5386
vt 0.3120 0.5107
vt 0.3095 0.5110
vt 0.3127 0.5653
vt 0.3157 0.5650
vt 0.3129 0.5797
vt 0.3154 0.5795
vt 0.3151 0.5386
vt 0.3119 0.5390
vt 0.3120 0.5107
vt 0.3095 0.5110
vt 0.4462 0.6089
vt 0.1820 0.5390
vt 0.1852 0.5386
vt 0.1821 0.5107
vt 0.1797 0.5110
vt 0.3114 0.6089
vt 0.4468 0.5107
vt 0.4443 0.5110
vt 0.3114 0.6089
vn -0.7313 -0.6378 0.2416
vn -0.5814 -0.6092 0.5393
vn -0.5714 -0.6057 0.5537
vn -0.3163 -0.4138 0.8536
vn -0.3013 -0.3840 0.8728
vn -0.5301 0.0137 0.8478
vn -0.5525 0.0629 0.8311
vn -0.5332 0.0204 0.8457
vn -0.4122 0.3233 0.8517
vn -0.4569 0.1902 0.8689
vn -0.4855 0.0837 0.8702
vn -0.0143 0.0108 0.9998
vn -0.0137 -0.1625 0.9866
vn -0.0143 -0.1789 0.9838
vn -0.0149 -0.0364 0.9992
vn 0.0580 0.1044 0.9928
vn 0.0050 -0.0705 0.9975
vn 0.0948 0.2278 0.9691
vn 0.2592 0.5134 0.8180
vn 0.2201 0.4793 0.8496
vn -0.0254 0.8058 0.5916
vn -0.3372 0.2101 0.9177
vn -0.3425 0.1755 0.9230
vn -0.2432 0.4743 0.8461
vn -0.3535 0.0909 0.9310
vn -0.0105 0.2597 0.9656
vn -0.3389 -0.2264 0.9131
vn -0.4238 -0.1769 0.8883
vn -0.3339 -0.2292 0.9143
vn 0.0950 0.9117 0.3995
vn -0.0104 -0.0728 0.9973
vn 0.3237 0.5671 0.7573
vn 0.7313 0.6377 -0.2416
vn 0.5714 0.6056 -0.5538
vn 0.5814 0.6091 -0.5393
vn 0.3013 0.3840 -0.8728
vn 0.3163 0.4139 -0.8536
vn 0.5301 -0.0137 -0.8478
vn 0.5332 -0.0204 -0.8457
vn 0.5525 -0.0629 -0.8311
vn 0.4124 -0.3231 -0.8517
vn 0.4855 -0.0838 -0.8702
vn 0.4570 -0.1901 -0.8689
vn 0.0143 -0.0107 -0.9998
vn 0.0150 0.0363 -0.9992
vn 0.0143 0.1789 -0.9837
vn 0.0137 0.1625 -0.9866
vn -0.0580 -0.1045 -0.9928
vn -0.0948 -0.2277 -0.9691
vn -0.0049 0.0705 -0.9975
vn -0.2202 -0.4793 -0.8495
vn -0.2593 -0.5134 -0.8180
vn 0.0269 -0.8050 -0.5926
vn 0.2428 -0.4749 -0.8459
vn 0.3422 -0.1756 -0.9230
vn 0.3369 -0.2102 -0.9178
vn 0.3534 -0.0909 -0.9310
vn 0.0106 -0.2597 -0.9656
vn 0.3389 0.2264 -0.9131
vn 0.3339 0.2292 -0.9143
vn 0.4238 0.1769 -0.8883
vn -0.0932 -0.9115 -0.4005
vn 0.0104 0.0728 -0.9973
vn -0.3237 -0.5671 -0.7573
s 1
f 1/1/1 4/2/2 7/3/3
f 4/2/2 2/4/4 6/5/5 7/3/3
f 10/6/6 30/7/7 31/8/7 11/9/8
f 8/10/9 9/11/10 12/12/11
f 12/12/11 9/11/10 10/6/6 11/9/8
f 24/13/12 25/14/13 26/15/14 27/16/15
f 15/17/16 32/18/17 33/19/17 16/20/18
f 15/17/16 16/20/18 17/21/19 14/22/20
f 19/23/21 20/24/22 21/25/23 22/26/24
f 20/24/22 34/27/25 35/28/25 21/25/23
f 23/29/26 24/13/12 27/16/15
f 3/30/27 28/31/28 29/32/28 5/33/29
f 18/34/30 19/23/21 22/26/24
f 25/14/13 36/35/31 37/36/31 26/15/14
f 3/30/27 5/33/29 6/5/5 2/4/4
f 13/37/32 14/22/20 17/21/19
f 38/38/33 44/39/34 41/40/35
f 41/40/35 44/39/34 43/41/36 39/42/37
f 47/43/38 48/44/39 68/45/40 67/46/40
f 45/47/41 49/48/42 46/49/43
f 49/48/42 48/44/39 47/43/38 46/49/43
f 61/50/44 64/51/45 63/52/46 62/53/47
f 52/54/48 53/55/49 70/56/50 69/57/50
f 52/54/48 51/58/51 54/59/52 53/55/49
f 56/60/53 59/61/54 58/62/55 57/63/56
f 57/63/56 58/62/55 72/64/57 71/65/57
f 60/66/58 64/51/45 61/50/44
f 40/67/59 42/68/60 66/69/61 65/70/61
f 55/71/62 59/61/54 56/60/53
f 62/53/47 63/52/46 74/72/63 73/73/63
f 40/67/59 39/42/37 43/41/36 42/68/60
f 50/74/64 54/59/52 51/58/51
