# Blender v2.78 (sub 0) OBJ File: 'Low_Poly_Vegetation_Pack.blend'
# www.blender.org
g Grass_a_TwoS_05
v 0.277055 0.304386 -0.314070
v 0.291619 -0.016060 -0.153088
v 0.349900 -0.050128 -0.249840
v 0.195726 0.290494 -0.128402
v 0.239413 -0.022967 -0.106364
v 0.196981 0.290494 -0.215094
v 0.241288 -0.022967 -0.235858
v 0.087755 0.590364 -0.144009
v 0.305377 0.331857 -0.059915
v 0.229993 -0.017551 -0.027600
v 0.286615 -0.028384 -0.130532
v 0.161856 0.210664 0.061889
v 0.195848 -0.022967 0.075104
v 0.156568 0.210664 -0.002515
v 0.187948 -0.022967 -0.021098
v 0.080636 0.434166 0.058057
v 0.117877 0.262582 -0.054898
v 0.112261 -0.022967 -0.010679
v 0.192689 0.262582 -0.080221
v 0.224009 -0.022967 -0.048504
v 0.093308 0.535751 -0.126726
v -0.208514 0.232963 0.182077
v -0.289293 -0.016518 0.166098
v -0.216485 0.235951 0.242120
v -0.301864 -0.011806 0.260786
v -0.076510 0.461344 0.194347
v -0.390577 0.205113 0.099962
v -0.363669 -0.024759 0.148355
v -0.344241 0.208240 0.071291
v -0.290596 -0.019828 0.103140
v -0.450049 0.419696 0.016884
v -0.259243 0.274080 0.061587
v -0.305594 -0.011098 0.055196
v -0.210842 0.269691 0.107282
v -0.229265 -0.018019 0.127257
v -0.182013 0.550374 0.016036
v 0.276968 0.304361 -0.314113
v 0.291532 -0.016085 -0.153131
v 0.349814 -0.050153 -0.249883
v 0.195629 0.290470 -0.128404
v 0.239314 -0.022981 -0.106366
v 0.196884 0.290471 -0.215096
v 0.241189 -0.022981 -0.235860
v 0.087661 0.590330 -0.144010
v 0.305291 0.331871 -0.059963
v 0.229907 -0.017537 -0.027649
v 0.286529 -0.028370 -0.130581
v 0.161760 0.210640 0.061897
v 0.195749 -0.022981 0.075112
v 0.156471 0.210641 -0.002507
v 0.187850 -0.022981 -0.021090
v 0.080543 0.434132 0.058064
v 0.117846 0.262562 -0.054991
v 0.112229 -0.022981 -0.010773
v 0.192658 0.262563 -0.080314
v 0.223977 -0.022981 -0.048598
v 0.093277 0.535724 -0.126817
v -0.208424 0.232922 0.182091
v -0.289199 -0.016549 0.166112
v -0.216395 0.235911 0.242134
v -0.301770 -0.011837 0.260800
v -0.076424 0.461294 0.194361
v -0.390625 0.205080 0.099881
v -0.363719 -0.024782 0.148272
v -0.344289 0.208208 0.071209
v -0.290646 -0.019851 0.103057
v -0.450095 0.419653 0.016806
v -0.259176 0.274060 0.061515
v -0.305526 -0.011107 0.055123
v -0.210776 0.269672 0.107209
v -0.229197 -0.018029 0.127184
v -0.181949 0.550344 0.015965
vt 0.6869 0.6023
vt 0.6756 0.5267
vt 0.6869 0.5250
vt 0.5509 0.5630
vt 0.5509 0.5096
vt 0.5609 0.5096
vt 0.5609 0.5630
vt 0.5509 0.6178
vt 0.5679 0.6023
vt 0.5566 0.5267
vt 0.5679 0.5250
vt 0.5509 0.5630
vt 0.5509 0.5096
vt 0.5609 0.5096
vt 0.5609 0.5630
vt 0.5509 0.6178
vt 0.6700 0.5630
vt 0.6700 0.5096
vt 0.6799 0.5096
vt 0.6799 0.5630
vt 0.6700 0.6178
vt 0.6845 0.5581
vt 0.6845 0.5062
vt 0.6941 0.5062
vt 0.6941 0.5581
vt 0.6845 0.6113
vt 0.6845 0.5581
vt 0.6845 0.5062
vt 0.6941 0.5062
vt 0.6941 0.5581
vt 0.6845 0.6113
vt 0.5588 0.5581
vt 0.5588 0.5062
vt 0.5684 0.5062
vt 0.5684 0.5581
vt 0.5588 0.6113
vt 0.6869 0.6023
vt 0.6869 0.5250
vt 0.6756 0.5267
vt 0.5509 0.5630
vt 0.5609 0.5630
vt 0.5609 0.5096
vt 0.5509 0.5096
vt 0.5509 0.6178
vt 0.5679 0.6023
vt 0.5679 0.5250
vt 0.5566 0.5267
vt 0.5509 0.5630
vt 0.5609 0.5630
vt 0.5609 0.5096
vt 0.5509 0.5096
vt 0.5509 0.6178
vt 0.6700 0.5630
vt 0.6799 0.5630
vt 0.6799 0.5096
vt 0.6700 0.5096
vt 0.6700 0.6178
vt 0.6845 0.5581
vt 0.6941 0.5581
vt 0.6941 0.5062
vt 0.6845 0.5062
vt 0.6845 0.6113
vt 0.6845 0.5581
vt 0.6941 0.5581
vt 0.6941 0.5062
vt 0.6845 0.5062
vt 0.6845 0.6113
vt 0.5588 0.5581
vt 0.5684 0.5581
vt 0.5684 0.5062
vt 0.5588 0.5062
vt 0.5588 0.6113
vn 0.8653 0.2559 0.4311
vn 0.9714 0.2369 0.0140
vn 0.9902 0.1390 0.0143
vn 0.9729 0.2306 0.0141
vn 0.9405 0.3393 0.0136
vn 0.8612 -0.1406 0.4885
vn 0.9683 0.2369 -0.0795
vn 0.9870 0.1390 -0.0810
vn 0.9698 0.2306 -0.0796
vn 0.9375 0.3393 -0.0770
vn 0.3140 0.2025 0.9276
vn 0.3175 0.1390 0.9380
vn 0.3144 0.1963 0.9288
vn 0.3089 0.2677 0.9126
vn -0.9028 0.4067 -0.1401
vn -0.9393 0.3131 -0.1403
vn -0.9054 0.4008 -0.1401
vn -0.8542 0.5011 -0.1383
vn 0.4804 0.3302 0.8125
vn 0.5001 0.2340 0.8337
vn 0.4818 0.3241 0.8141
vn 0.4544 0.4283 0.7811
vn -0.6642 0.1932 0.7221
vn -0.6789 0.0940 0.7281
vn -0.6654 0.1869 0.7227
vn -0.6414 0.2960 0.7078
vn -0.8653 -0.2559 -0.4311
vn -0.9714 -0.2369 -0.0140
vn -0.9729 -0.2306 -0.0141
vn -0.9902 -0.1390 -0.0143
vn -0.9405 -0.3394 -0.0136
vn -0.8612 0.1406 -0.4885
vn -0.9683 -0.2369 0.0795
vn -0.9698 -0.2306 0.0796
vn -0.9870 -0.1390 0.0810
vn -0.9375 -0.3394 0.0770
vn -0.3140 -0.2025 -0.9276
vn -0.3144 -0.1963 -0.9288
vn -0.3175 -0.1390 -0.9380
vn -0.3089 -0.2677 -0.9126
vn 0.9028 -0.4067 0.1401
vn 0.9054 -0.4008 0.1401
vn 0.9393 -0.3131 0.1403
vn 0.8542 -0.5011 0.1383
vn -0.4804 -0.3302 -0.8125
vn -0.4818 -0.3241 -0.8141
vn -0.5001 -0.2340 -0.8337
vn -0.4544 -0.4283 -0.7811
vn 0.6642 -0.1932 -0.7221
vn 0.6654 -0.1869 -0.7227
vn 0.6789 -0.0940 -0.7281
vn 0.6414 -0.2960 -0.7078
s off
f 1/1/1 2/2/1 3/3/1
s 1
f 4/4/2 5/5/3 7/6/3 6/7/4
f 4/4/2 6/7/4 8/8/5
s off
f 9/9/6 10/10/6 11/11/6
s 1
f 12/12/7 13/13/8 15/14/8 14/15/9
f 12/12/7 14/15/9 16/16/10
f 17/17/11 18/18/12 20/19/12 19/20/13
f 17/17/11 19/20/13 21/21/14
f 22/22/15 23/23/16 25/24/16 24/25/17
f 22/22/15 24/25/17 26/26/18
f 27/27/19 28/28/20 30/29/20 29/30/21
f 27/27/19 29/30/21 31/31/22
f 32/32/23 33/33/24 35/34/24 34/35/25
f 32/32/23 34/35/25 36/36/26
s off
f 37/37/27 39/38/27 38/39/27
s 1
f 40/40/28 42/41/29 43/42/30 41/43/30
f 40/40/28 44/44/31 42/41/29
s off
f 45/45/32 47/46/32 46/47/32
s 1
f 48/48/33 50/49/34 51/50/35 49/51/35
f 48/48/33 52/52/36 50/49/34
f 53/53/37 55/54/38 56/55/39 54/56/39
f 53/53/37 57/57/40 55/54/38
f 58/58/41 60/59/42 61/60/43 59/61/43
f 58/58/41 62/62/44 60/59/42
f 63/63/45 65/64/46 66/65/47 64/66/47
f 63/63/45 67/67/48 65/64/46
f 68/68/49 70/69/50 71/70/51 69/71/51
f 68/68/49 72/72/52 70/69/50
