# Blender v2.78 (sub 0) OBJ File: 'Low_Poly_Vegetation_Pack.blend'
# www.blender.org
g Grass_e_TwoS_03
v 0.160400 0.359014 -0.235443
v 0.102400 0.194422 -0.037478
v 0.104875 0.315767 -0.166587
v 0.148000 0.190129 -0.037233
v 0.125761 0.305371 -0.171666
v -0.268264 0.223303 0.139641
v -0.020205 0.082453 0.021865
v -0.068032 0.079888 -0.004287
v -0.128488 0.201802 0.029909
v -0.218325 0.228166 0.084906
v -0.101462 0.222780 0.036130
v -0.213781 0.245336 0.092087
v -0.160669 0.394068 -0.274413
v -0.083472 0.255206 -0.136589
v -0.043345 0.246748 -0.122757
v 0.076284 0.407567 0.231623
v 0.053766 0.082477 0.032845
v 0.006010 0.079881 0.006691
v -0.010601 0.263147 0.049671
v 0.039006 0.384547 0.113328
v 0.022255 0.250982 0.043926
v 0.051017 0.370717 0.121065
v 0.044569 0.315897 -0.201037
v 0.002214 0.195514 -0.046124
v 0.047166 0.191238 -0.045880
v -0.309375 0.336786 -0.098132
v -0.160707 0.306544 -0.023096
v -0.065072 0.174233 0.001695
v -0.010801 0.170798 0.002335
v -0.130607 0.325310 -0.022845
v 0.239052 0.191806 -0.221843
v 0.138064 0.241990 -0.149180
v 0.039806 0.184810 -0.070449
v 0.089007 0.176699 -0.070427
v 0.157164 0.222918 -0.140041
v 0.034541 -0.034019 0.000258
v 0.099330 -0.035041 0.000280
v -0.081416 -0.034098 0.002114
v -0.027697 -0.034098 0.038566
v -0.069548 -0.034098 -0.045993
v -0.015829 -0.034098 -0.009542
v 0.000523 -0.034098 0.013092
v 0.054242 -0.034098 0.049544
v -0.012720 -0.034018 -0.008389
v 0.051958 -0.035036 -0.008366
v -0.035518 -0.035798 -0.000001
v 0.033689 -0.034740 -0.000001
v -0.027722 -0.034587 -0.032344
v 0.037138 -0.035191 -0.032344
v 0.160356 0.358959 -0.235513
v 0.102389 0.194375 -0.037566
v 0.104843 0.315701 -0.166655
v 0.147989 0.190082 -0.037321
v 0.125728 0.305305 -0.171735
v -0.268333 0.223346 0.139582
v -0.020162 0.082460 0.021775
v -0.067991 0.079898 -0.004377
v -0.128491 0.201848 0.029820
v -0.218374 0.228216 0.084834
v -0.101458 0.222823 0.036040
v -0.213832 0.245386 0.092016
v -0.160657 0.394001 -0.274486
v -0.083449 0.255152 -0.136669
v -0.043309 0.246709 -0.122842
v 0.076363 0.407617 0.231588
v 0.053807 0.082480 0.032754
v 0.006050 0.079885 0.006599
v -0.010574 0.263179 0.049580
v 0.039061 0.384596 0.113260
v 0.022282 0.251009 0.043833
v 0.051075 0.370766 0.121000
v 0.044562 0.315819 -0.201099
v 0.002210 0.195465 -0.046211
v 0.047162 0.191189 -0.045967
v -0.309343 0.336737 -0.098214
v -0.160686 0.306508 -0.023187
v -0.065070 0.174225 0.001596
v -0.010800 0.170794 0.002235
v -0.130594 0.325284 -0.022941
v 0.238993 0.191732 -0.221874
v 0.138029 0.241916 -0.149237
v 0.039798 0.184773 -0.070542
v 0.088995 0.176649 -0.070512
v 0.157122 0.222843 -0.140091
v 0.034541 -0.034036 0.000159
v 0.099329 -0.035057 0.000181
v -0.081363 -0.034112 0.002030
v -0.027644 -0.034112 0.038481
v -0.069504 -0.034126 -0.046079
v -0.015785 -0.034126 -0.009628
v 0.000576 -0.034108 0.013008
v 0.054295 -0.034108 0.049459
v -0.012720 -0.034034 -0.008487
v 0.051957 -0.035053 -0.008465
v -0.035518 -0.035797 -0.000101
v 0.033689 -0.034739 -0.000101
v -0.027723 -0.034604 -0.032443
v 0.037136 -0.035208 -0.032443
vt 0.3190 0.5251
vt 0.3178 0.5094
vt 0.3205 0.5091
vt 0.3226 0.5246
vt 0.1963 0.5542
vt 0.1997 0.5538
vt 0.1994 0.5841
vt 0.1968 0.5843
vt 0.3199 0.6161
vt 0.3210 0.6003
vt 0.3228 0.6004
vt 0.4229 0.5686
vt 0.4194 0.5094
vt 0.4221 0.5091
vt 0.4261 0.5682
vt 0.3199 0.6161
vt 0.3210 0.6003
vt 0.3228 0.6004
vt 0.3213 0.5686
vt 0.3245 0.5682
vt 0.1942 0.5251
vt 0.1931 0.5094
vt 0.1958 0.5091
vt 0.1978 0.5246
vt 0.4214 0.6161
vt 0.1962 0.6003
vt 0.1965 0.5686
vt 0.1997 0.5682
vt 0.1975 0.5983
vt 0.1951 0.6161
vt 0.0618 0.6161
vt 0.0630 0.5542
vt 0.0664 0.5538
vt 0.0623 0.5400
vt 0.0658 0.5396
vt 0.0661 0.5841
vt 0.0634 0.5843
vt 0.1967 0.6043
vt 0.0597 0.5094
vt 0.0624 0.5091
vt 0.0618 0.6161
vt 0.3211 0.5542
vt 0.3245 0.5538
vt 0.3178 0.5094
vt 0.3205 0.5091
vt 0.0597 0.5094
vt 0.0624 0.5091
vt 0.1931 0.5094
vt 0.1958 0.5091
vt 0.3190 0.5251
vt 0.3226 0.5246
vt 0.3205 0.5091
vt 0.3178 0.5094
vt 0.1963 0.5542
vt 0.1968 0.5843
vt 0.1994 0.5841
vt 0.1997 0.5538
vt 0.3199 0.6161
vt 0.3228 0.6004
vt 0.3210 0.6003
vt 0.4229 0.5686
vt 0.4261 0.5682
vt 0.4221 0.5091
vt 0.4194 0.5094
vt 0.3199 0.6161
vt 0.3228 0.6004
vt 0.3210 0.6003
vt 0.3245 0.5682
vt 0.3213 0.5686
vt 0.1942 0.5251
vt 0.1978 0.5246
vt 0.1958 0.5091
vt 0.1931 0.5094
vt 0.4214 0.6161
vt 0.1962 0.6003
vt 0.1975 0.5983
vt 0.1997 0.5682
vt 0.1965 0.5686
vt 0.1951 0.6161
vt 0.0618 0.6161
vt 0.0664 0.5538
vt 0.0630 0.5542
vt 0.0623 0.5400
vt 0.0634 0.5843
vt 0.0661 0.5841
vt 0.0658 0.5396
vt 0.1967 0.6043
vt 0.0624 0.5091
vt 0.0597 0.5094
vt 0.0618 0.6161
vt 0.3211 0.5542
vt 0.3245 0.5538
vt 0.3205 0.5091
vt 0.3178 0.5094
vt 0.0624 0.5091
vt 0.0597 0.5094
vt 0.1958 0.5091
vt 0.1931 0.5094
vn -0.4162 -0.1054 0.9031
vn -0.5226 0.1317 0.8423
vn -0.4339 -0.0705 0.8982
vn 0.0749 0.3670 0.9272
vn 0.1200 0.5061 0.8541
vn 0.4255 0.7521 0.5033
vn 0.3506 0.7421 0.5713
vn 0.4458 0.5509 0.7055
vn 0.3156 0.6630 0.6788
vn 0.3314 0.6509 0.6830
vn -0.2324 0.5479 0.8036
vn -0.4347 0.2749 0.8575
vn -0.3604 0.3876 0.8484
vn 0.6863 -0.4277 0.5882
vn 0.4924 -0.4956 0.7154
vn 0.5028 -0.4929 0.7100
vn 0.0241 -0.4554 0.8900
vn -0.0385 -0.4329 0.9006
vn -0.4069 -0.0371 0.9127
vn -0.5244 0.0961 0.8460
vn -0.4056 -0.0385 0.9132
vn -0.1129 0.6676 0.7359
vn -0.5526 -0.4860 0.6771
vn -0.2739 -0.3225 0.9061
vn -0.2704 -0.2759 0.9223
vn -0.5799 -0.4906 0.6504
vn -0.7955 -0.4965 0.3473
vn 0.0706 0.7782 0.6240
vn 0.0393 0.4906 0.8704
vn 0.0386 0.4840 0.8742
vn -0.0249 0.0862 0.9959
vn -0.0153 0.0385 0.9991
vn -0.1223 0.2543 0.9593
vn -0.2083 0.3623 0.9085
vn 0.5929 0.7428 0.3110
vn -0.0054 -0.0107 0.9999
vn -0.3117 0.4891 0.8146
vn 0.1101 0.4665 0.8776
vn 0.1118 0.4710 0.8750
vn 0.0054 0.1623 0.9867
vn 0.0054 0.1628 0.9866
vn 0.0128 0.1705 0.9853
vn 0.4162 0.1054 -0.9031
vn 0.4339 0.0705 -0.8982
vn 0.5226 -0.1317 -0.8423
vn -0.0749 -0.3670 -0.9272
vn -0.3507 -0.7420 -0.5713
vn -0.4256 -0.7520 -0.5033
vn -0.1200 -0.5061 -0.8541
vn -0.4458 -0.5509 -0.7055
vn -0.3314 -0.6509 -0.6830
vn -0.3156 -0.6630 -0.6788
vn 0.2326 -0.5478 -0.8036
vn 0.3604 -0.3877 -0.8484
vn 0.4346 -0.2749 -0.8576
vn -0.6863 0.4277 -0.5882
vn -0.5028 0.4929 -0.7100
vn -0.4924 0.4956 -0.7154
vn 0.0385 0.4329 -0.9006
vn -0.0241 0.4554 -0.8899
vn 0.4069 0.0371 -0.9127
vn 0.4056 0.0385 -0.9132
vn 0.5244 -0.0961 -0.8460
vn 0.1131 -0.6675 -0.7359
vn 0.5525 0.4860 -0.6771
vn 0.5799 0.4906 -0.6503
vn 0.2704 0.2759 -0.9223
vn 0.2739 0.3225 -0.9060
vn 0.7954 0.4966 -0.3474
vn -0.0706 -0.7782 -0.6240
vn -0.0386 -0.4840 -0.8742
vn -0.0393 -0.4906 -0.8704
vn 0.0249 -0.0862 -0.9959
vn 0.2083 -0.3622 -0.9085
vn 0.1223 -0.2543 -0.9593
vn 0.0153 -0.0385 -0.9991
vn -0.5929 -0.7427 -0.3110
vn 0.0054 0.0107 -0.9999
vn 0.3117 -0.4889 -0.8147
vn -0.1101 -0.4665 -0.8776
vn -0.1118 -0.4710 -0.8750
vn -0.0054 -0.1623 -0.9867
vn -0.0054 -0.1627 -0.9866
vn -0.0128 -0.1705 -0.9853
s 1
f 8/1/1 38/2/2 39/3/2 7/4/3
f 33/5/4 34/6/5 35/7/6 32/8/7
f 1/9/8 3/10/9 5/11/10
f 14/12/11 40/13/12 41/14/12 15/15/13
f 6/16/14 10/17/15 12/18/16
f 10/17/15 9/19/17 11/20/18 12/18/16
f 18/21/19 42/22/20 43/23/20 17/24/21
f 13/25/22 14/12/11 15/15/13
f 20/26/23 19/27/24 21/28/25 22/29/26
f 16/30/27 20/26/23 22/29/26
f 23/31/28 24/32/29 25/33/30
f 28/34/31 29/35/32 30/36/33 27/37/34
f 31/38/35 32/8/7 35/7/6
f 9/19/17 8/1/1 7/4/3 11/20/18
f 28/34/31 46/39/36 47/40/36 29/35/32
f 26/41/37 27/37/34 30/36/33
f 19/27/24 18/21/19 17/24/21 21/28/25
f 2/42/38 4/43/39 5/11/10 3/10/9
f 2/42/38 36/44/40 37/45/40 4/43/39
f 24/32/29 44/46/41 45/47/41 25/33/30
f 33/5/4 48/48/42 49/49/42 34/6/5
f 57/50/43 56/51/44 88/52/45 87/53/45
f 82/54/46 81/55/47 84/56/48 83/57/49
f 50/58/50 54/59/51 52/60/52
f 63/61/53 64/62/54 90/63/55 89/64/55
f 55/65/56 61/66/57 59/67/58
f 59/67/58 61/66/57 60/68/59 58/69/60
f 67/70/61 66/71/62 92/72/63 91/73/63
f 62/74/64 64/62/54 63/61/53
f 69/75/65 71/76/66 70/77/67 68/78/68
f 65/79/69 71/76/66 69/75/65
f 72/80/70 74/81/71 73/82/72
f 77/83/73 76/84/74 79/85/75 78/86/76
f 80/87/77 84/56/48 81/55/47
f 58/69/60 60/68/59 56/51/44 57/50/43
f 77/83/73 78/86/76 96/88/78 95/89/78
f 75/90/79 79/85/75 76/84/74
f 68/78/68 70/77/67 66/71/62 67/70/61
f 51/91/80 52/60/52 54/59/51 53/92/81
f 51/91/80 53/92/81 86/93/82 85/94/82
f 73/82/72 74/81/71 94/95/83 93/96/83
f 82/54/46 83/57/49 98/97/84 97/98/84
