# Blender v2.78 (sub 0) OBJ File: 'Low_Poly_Vegetation_Pack.blend'
# www.blender.org
g Grass_g_TwoS_04
v -0.024829 0.384713 0.171513
v -0.002987 -0.025253 0.032030
v 0.071934 -0.025253 0.032030
v -0.036268 0.218214 0.058514
v -0.006097 0.220443 0.058791
v -0.331902 0.151408 -0.040986
v -0.081967 -0.025680 -0.015076
v -0.007786 -0.025603 -0.015076
v -0.186605 0.169450 -0.045585
v -0.179589 0.202561 -0.053363
v 0.343286 0.215188 -0.234809
v 0.006556 -0.025680 0.000000
v 0.080924 -0.025603 0.000000
v 0.166909 0.269559 -0.115429
v 0.180791 0.243745 -0.103720
v -0.155644 0.442405 -0.098132
v -0.057366 -0.025253 0.000000
v 0.017555 -0.025253 0.000000
v -0.164237 0.305755 -0.023109
v -0.127975 0.301426 -0.022832
v 0.252022 0.381107 -0.278929
v -0.053352 -0.025680 -0.044120
v 0.021013 -0.025603 -0.044120
v 0.068950 0.380087 -0.169856
v 0.094175 0.364019 -0.171533
v -0.024833 0.384769 0.171430
v -0.002987 -0.025242 0.031931
v 0.071934 -0.025242 0.031931
v -0.036270 0.218249 0.058420
v -0.006098 0.220475 0.058696
v -0.331902 0.151386 -0.041083
v -0.081970 -0.025698 -0.015174
v -0.007788 -0.025620 -0.015174
v -0.186607 0.169430 -0.045683
v -0.179590 0.202540 -0.053460
v 0.343229 0.215131 -0.234868
v 0.006557 -0.025717 -0.000093
v 0.080925 -0.025639 -0.000093
v 0.166875 0.269507 -0.115508
v 0.180765 0.243696 -0.103803
v -0.155649 0.442358 -0.098220
v -0.057366 -0.025260 -0.000100
v 0.017555 -0.025260 -0.000100
v -0.164240 0.305723 -0.023203
v -0.127977 0.301403 -0.022930
v 0.251980 0.381049 -0.278999
v -0.053358 -0.025709 -0.044215
v 0.021006 -0.025631 -0.044215
v 0.068931 0.380047 -0.169945
v 0.094148 0.363972 -0.171617
vt 0.3015 0.6131
vt 0.3030 0.5835
vt 0.3055 0.5834
vt 0.1840 0.5139
vt 0.1876 0.5687
vt 0.1847 0.5690
vt 0.1814 0.5142
vt 0.1841 0.5863
vt 0.4255 0.6131
vt 0.4271 0.5835
vt 0.4295 0.5817
vt 0.1833 0.6131
vt 0.1849 0.5835
vt 0.1874 0.5834
vt 0.2996 0.5142
vt 0.3021 0.5139
vt 0.0515 0.6131
vt 0.0530 0.5835
vt 0.0555 0.5834
vt 0.4236 0.5142
vt 0.4261 0.5139
vt 0.0521 0.5139
vt 0.0496 0.5142
vt 0.1840 0.5139
vt 0.1814 0.5142
vt 0.3015 0.6131
vt 0.3055 0.5834
vt 0.3030 0.5835
vt 0.1840 0.5139
vt 0.1814 0.5142
vt 0.1847 0.5690
vt 0.1876 0.5687
vt 0.1841 0.5863
vt 0.4255 0.6131
vt 0.4295 0.5817
vt 0.4271 0.5835
vt 0.1833 0.6131
vt 0.1874 0.5834
vt 0.1849 0.5835
vt 0.3021 0.5139
vt 0.2996 0.5142
vt 0.0515 0.6131
vt 0.0555 0.5834
vt 0.0530 0.5835
vt 0.4261 0.5139
vt 0.4236 0.5142
vt 0.0521 0.5139
vt 0.0496 0.5142
vt 0.1840 0.5139
vt 0.1814 0.5142
vn 0.0340 -0.5628 0.8259
vn 0.0170 -0.3410 0.9399
vn 0.0160 -0.3277 0.9446
vn 0.0228 0.1749 0.9843
vn 0.0116 0.2043 0.9788
vn 0.0139 0.1982 0.9800
vn 0.0025 0.2282 0.9736
vn 0.5730 0.5736 0.5853
vn 0.3396 0.5179 0.7851
vn 0.2552 0.4885 0.8344
vn 0.4151 0.5784 0.7022
vn 0.1931 0.4038 0.8942
vn 0.2645 0.4632 0.8459
vn -0.0003 -0.1083 0.9941
vn 0.0504 0.4782 0.8768
vn 0.0304 0.3168 0.9480
vn 0.0197 0.2300 0.9730
vn -0.0160 0.3682 0.9296
vn 0.0002 0.0698 0.9976
vn 0.0624 0.2887 0.9554
vn -0.0340 0.5628 -0.8259
vn -0.0160 0.3277 -0.9446
vn -0.0170 0.3410 -0.9399
vn -0.0228 -0.1749 -0.9843
vn -0.0139 -0.1982 -0.9800
vn -0.0116 -0.2043 -0.9788
vn -0.0025 -0.2282 -0.9736
vn -0.5730 -0.5737 -0.5852
vn -0.2553 -0.4885 -0.8343
vn -0.3395 -0.5180 -0.7851
vn -0.4152 -0.5783 -0.7022
vn -0.2645 -0.4631 -0.8459
vn -0.1932 -0.4038 -0.8942
vn 0.0003 0.1083 -0.9941
vn -0.0504 -0.4782 -0.8768
vn -0.0197 -0.2300 -0.9730
vn -0.0304 -0.3168 -0.9480
vn 0.0159 -0.3681 -0.9296
vn -0.0002 -0.0698 -0.9976
vn -0.0624 -0.2887 -0.9554
s 1
f 1/1/1 4/2/2 5/3/3
f 8/4/4 10/5/5 9/6/6 7/7/4
f 6/8/7 9/6/6 10/5/5
f 11/9/8 14/10/9 15/11/10
f 21/12/11 24/13/12 25/14/13
f 4/2/2 2/15/14 3/16/14 5/3/3
f 16/17/15 19/18/16 20/19/17
f 14/10/9 12/20/18 13/21/18 15/11/10
f 18/22/19 20/19/17 19/18/16 17/23/19
f 23/24/20 25/14/13 24/13/12 22/25/20
f 26/26/21 30/27/22 29/28/23
f 33/29/24 32/30/24 34/31/25 35/32/26
f 31/33/27 35/32/26 34/31/25
f 36/34/28 40/35/29 39/36/30
f 46/37/31 50/38/32 49/39/33
f 29/28/23 30/27/22 28/40/34 27/41/34
f 41/42/35 45/43/36 44/44/37
f 39/36/30 40/35/29 38/45/38 37/46/38
f 43/47/39 42/48/39 44/44/37 45/43/36
f 48/49/40 47/50/40 49/39/33 50/38/32
