# Blender v2.78 (sub 0) OBJ File: 'Low_Poly_Vegetation_Pack.blend'
# www.blender.org
g Grass_a_TwoS_02
v 0.074844 0.232963 0.061499
v -0.005935 -0.016518 0.045520
v 0.066873 0.235951 0.121542
v -0.018506 -0.011806 0.140208
v 0.206848 0.461344 0.073769
v -0.107219 0.205113 -0.020616
v -0.080311 -0.024759 0.027777
v -0.060883 0.208240 -0.049287
v -0.007238 -0.019828 -0.017438
v -0.166691 0.419696 -0.103694
v 0.024115 0.274080 -0.058991
v -0.022236 -0.011098 -0.065382
v 0.072516 0.269691 -0.013296
v 0.054093 -0.018019 0.006679
v 0.101345 0.550374 -0.104542
v 0.074934 0.232922 0.061513
v -0.005841 -0.016549 0.045534
v 0.066963 0.235911 0.121556
v -0.018412 -0.011837 0.140222
v 0.206934 0.461294 0.073783
v -0.107267 0.205080 -0.020697
v -0.080361 -0.024782 0.027694
v -0.060931 0.208208 -0.049368
v -0.007288 -0.019851 -0.017521
v -0.166737 0.419653 -0.103772
v 0.024181 0.274060 -0.059063
v -0.022168 -0.011107 -0.065455
v 0.072582 0.269672 -0.013369
v 0.054161 -0.018029 0.006606
v 0.101409 0.550344 -0.104613
vt 0.6845 0.5581
vt 0.6845 0.5062
vt 0.6941 0.5062
vt 0.6941 0.5581
vt 0.6845 0.6113
vt 0.6845 0.5581
vt 0.6845 0.5062
vt 0.6941 0.5062
vt 0.6941 0.5581
vt 0.6845 0.6113
vt 0.5588 0.5581
vt 0.5588 0.5062
vt 0.5684 0.5062
vt 0.5684 0.5581
vt 0.5588 0.6113
vt 0.6845 0.5581
vt 0.6941 0.5581
vt 0.6941 0.5062
vt 0.6845 0.5062
vt 0.6845 0.6113
vt 0.6845 0.5581
vt 0.6941 0.5581
vt 0.6941 0.5062
vt 0.6845 0.5062
vt 0.6845 0.6113
vt 0.5588 0.5581
vt 0.5684 0.5581
vt 0.5684 0.5062
vt 0.5588 0.5062
vt 0.5588 0.6113
vn -0.9028 0.4067 -0.1401
vn -0.9393 0.3131 -0.1403
vn -0.9054 0.4008 -0.1401
vn -0.8542 0.5011 -0.1383
vn 0.4804 0.3302 0.8125
vn 0.5001 0.2340 0.8337
vn 0.4818 0.3241 0.8141
vn 0.4544 0.4283 0.7811
vn -0.6642 0.1932 0.7221
vn -0.6789 0.0940 0.7281
vn -0.6654 0.1869 0.7227
vn -0.6414 0.2960 0.7078
vn 0.9028 -0.4067 0.1401
vn 0.9054 -0.4008 0.1401
vn 0.9393 -0.3131 0.1403
vn 0.8542 -0.5011 0.1383
vn -0.4804 -0.3302 -0.8125
vn -0.4818 -0.3241 -0.8141
vn -0.5001 -0.2340 -0.8337
vn -0.4544 -0.4283 -0.7811
vn 0.6642 -0.1932 -0.7221
vn 0.6654 -0.1869 -0.7227
vn 0.6789 -0.0940 -0.7281
vn 0.6414 -0.2960 -0.7078
s 1
f 1/1/1 2/2/2 4/3/2 3/4/3
f 1/1/1 3/4/3 5/5/4
f 6/6/5 7/7/6 9/8/6 8/9/7
f 6/6/5 8/9/7 10/10/8
f 11/11/9 12/12/10 14/13/10 13/14/11
f 11/11/9 13/14/11 15/15/12
f 16/16/13 18/17/14 19/18/15 17/19/15
f 16/16/13 20/20/16 18/17/14
f 21/21/17 23/22/18 24/23/19 22/24/19
f 21/21/17 25/25/20 23/22/18
f 26/26/21 28/27/22 29/28/23 27/29/23
f 26/26/21 30/30/24 28/27/22
