# Blender v2.78 (sub 0) OBJ File: 'Low_Poly_Vegetation_Pack.blend'
# www.blender.org
g Grass_b_TwoS_05
v 0.281226 0.230596 -0.203528
v 0.256090 -0.019230 -0.102112
v 0.288851 -0.030912 -0.122769
v 0.167896 0.220071 -0.114991
v 0.197455 -0.017399 -0.099583
v 0.188423 0.220071 -0.154369
v 0.217982 -0.017399 -0.138961
v 0.095219 0.447245 -0.152877
v 0.213873 0.251407 -0.021879
v 0.171932 -0.015542 -0.039463
v 0.205137 -0.019257 -0.062268
v 0.078248 0.159594 0.004346
v 0.101282 -0.017399 0.013657
v 0.090651 0.159594 -0.026340
v 0.113686 -0.017399 -0.017029
v 0.021613 0.328913 -0.018546
v 0.094866 0.198926 -0.080965
v 0.090638 -0.017399 -0.050894
v 0.134925 0.198926 -0.075333
v 0.130697 -0.017399 -0.045262
v 0.093093 0.405872 -0.139289
v -0.084484 0.176713 0.116273
v -0.147143 -0.011635 0.122281
v -0.086414 0.178525 0.152953
v -0.149073 -0.009823 0.158961
v 0.016182 0.349503 0.113034
v -0.221240 0.155625 0.084732
v -0.188412 -0.017837 0.112611
v -0.194608 0.157521 0.065171
v -0.161781 -0.015941 0.093049
v -0.274465 0.317951 0.028005
v -0.141542 0.207304 0.076881
v -0.165591 -0.009699 0.083957
v -0.110085 0.204643 0.102175
v -0.134134 -0.012360 0.109251
v -0.089877 0.416950 0.034687
v 0.281168 0.230570 -0.203605
v 0.256033 -0.019256 -0.102190
v 0.288793 -0.030937 -0.122846
v 0.167810 0.220047 -0.115036
v 0.197368 -0.017413 -0.099628
v 0.188337 0.220048 -0.154414
v 0.217895 -0.017413 -0.139006
v 0.095135 0.447211 -0.152920
v 0.213818 0.251421 -0.021962
v 0.171877 -0.015528 -0.039545
v 0.205082 -0.019243 -0.062351
v 0.078158 0.159570 0.004309
v 0.101190 -0.017413 0.013619
v 0.090561 0.159571 -0.026376
v 0.113594 -0.017413 -0.017066
v 0.021526 0.328879 -0.018581
v 0.094879 0.198905 -0.081062
v 0.090652 -0.017413 -0.050992
v 0.134938 0.198906 -0.075430
v 0.130711 -0.017413 -0.045360
v 0.093107 0.405845 -0.139385
v -0.084393 0.176672 0.116280
v -0.147049 -0.011666 0.122287
v -0.086323 0.178484 0.152960
v -0.148979 -0.009854 0.158967
v 0.016268 0.349453 0.113041
v -0.221294 0.155592 0.084655
v -0.188468 -0.017860 0.112531
v -0.194663 0.157489 0.065094
v -0.161837 -0.015964 0.092970
v -0.274516 0.317908 0.027931
v -0.141481 0.207285 0.076803
v -0.165530 -0.009708 0.083879
v -0.110024 0.204624 0.102097
v -0.134072 -0.012369 0.109173
v -0.089818 0.416920 0.034611
vt 0.6869 0.6023
vt 0.6756 0.5267
vt 0.6869 0.5250
vt 0.5509 0.5630
vt 0.5509 0.5096
vt 0.5609 0.5096
vt 0.5609 0.5630
vt 0.5509 0.6178
vt 0.5679 0.6023
vt 0.5566 0.5267
vt 0.5679 0.5250
vt 0.5509 0.5630
vt 0.5509 0.5096
vt 0.5609 0.5096
vt 0.5609 0.5630
vt 0.5509 0.6178
vt 0.6700 0.5630
vt 0.6700 0.5096
vt 0.6799 0.5096
vt 0.6799 0.5630
vt 0.6700 0.6178
vt 0.6845 0.5581
vt 0.6845 0.5062
vt 0.6941 0.5062
vt 0.6941 0.5581
vt 0.6845 0.6113
vt 0.6845 0.5581
vt 0.6845 0.5062
vt 0.6941 0.5062
vt 0.6941 0.5581
vt 0.6845 0.6113
vt 0.5588 0.5581
vt 0.5588 0.5062
vt 0.5684 0.5062
vt 0.5684 0.5581
vt 0.5588 0.6113
vt 0.6869 0.6023
vt 0.6869 0.5250
vt 0.6756 0.5267
vt 0.5509 0.5630
vt 0.5609 0.5630
vt 0.5609 0.5096
vt 0.5509 0.5096
vt 0.5509 0.6178
vt 0.5679 0.6023
vt 0.5679 0.5250
vt 0.5566 0.5267
vt 0.5509 0.5630
vt 0.5609 0.5630
vt 0.5609 0.5096
vt 0.5509 0.5096
vt 0.5509 0.6178
vt 0.6700 0.5630
vt 0.6799 0.5630
vt 0.6799 0.5096
vt 0.6700 0.5096
vt 0.6700 0.6178
vt 0.6845 0.5581
vt 0.6941 0.5581
vt 0.6941 0.5062
vt 0.6845 0.5062
vt 0.6845 0.6113
vt 0.6845 0.5581
vt 0.6941 0.5581
vt 0.6941 0.5062
vt 0.6845 0.5062
vt 0.6845 0.6113
vt 0.5588 0.5581
vt 0.5684 0.5581
vt 0.5684 0.5062
vt 0.5588 0.5062
vt 0.5588 0.6113
vn 0.5792 0.2559 0.7739
vn 0.8607 0.2405 0.4487
vn 0.8781 0.1390 0.4577
vn 0.8621 0.2343 0.4494
vn 0.8341 0.3393 0.4348
vn 0.5498 -0.1406 0.8234
vn 0.8999 0.2405 0.3638
vn 0.9181 0.1390 0.3711
vn 0.9013 0.2343 0.3643
vn 0.8721 0.3393 0.3525
vn -0.1363 0.2047 0.9693
vn -0.1379 0.1390 0.9806
vn -0.1364 0.1987 0.9705
vn -0.1341 0.2677 0.9541
vn -0.9098 0.4093 -0.0681
vn -0.9474 0.3131 -0.0653
vn -0.9124 0.4035 -0.0679
vn -0.8625 0.5011 -0.0701
vn 0.5427 0.3330 0.7711
vn 0.5647 0.2340 0.7914
vn 0.5442 0.3269 0.7726
vn 0.5149 0.4283 0.7425
vn -0.6043 0.1960 0.7722
vn -0.6190 0.0940 0.7797
vn -0.6054 0.1898 0.7729
vn -0.5832 0.2960 0.7565
vn -0.5792 -0.2559 -0.7739
vn -0.8607 -0.2405 -0.4487
vn -0.8621 -0.2343 -0.4494
vn -0.8781 -0.1390 -0.4577
vn -0.8341 -0.3394 -0.4348
vn -0.5498 0.1406 -0.8234
vn -0.8999 -0.2405 -0.3638
vn -0.9013 -0.2343 -0.3643
vn -0.9181 -0.1390 -0.3711
vn -0.8721 -0.3394 -0.3525
vn 0.1363 -0.2047 -0.9693
vn 0.1364 -0.1987 -0.9705
vn 0.1379 -0.1390 -0.9806
vn 0.1341 -0.2677 -0.9541
vn 0.9098 -0.4093 0.0681
vn 0.9124 -0.4035 0.0679
vn 0.9474 -0.3131 0.0653
vn 0.8625 -0.5011 0.0701
vn -0.5427 -0.3330 -0.7711
vn -0.5442 -0.3269 -0.7726
vn -0.5647 -0.2340 -0.7914
vn -0.5149 -0.4283 -0.7425
vn 0.6043 -0.1960 -0.7722
vn 0.6054 -0.1898 -0.7729
vn 0.6190 -0.0940 -0.7797
vn 0.5832 -0.2960 -0.7565
s off
f 1/1/1 2/2/1 3/3/1
s 1
f 4/4/2 5/5/3 7/6/3 6/7/4
f 4/4/2 6/7/4 8/8/5
s off
f 9/9/6 10/10/6 11/11/6
s 1
f 12/12/7 13/13/8 15/14/8 14/15/9
f 12/12/7 14/15/9 16/16/10
f 17/17/11 18/18/12 20/19/12 19/20/13
f 17/17/11 19/20/13 21/21/14
f 22/22/15 23/23/16 25/24/16 24/25/17
f 22/22/15 24/25/17 26/26/18
f 27/27/19 28/28/20 30/29/20 29/30/21
f 27/27/19 29/30/21 31/31/22
f 32/32/23 33/33/24 35/34/24 34/35/25
f 32/32/23 34/35/25 36/36/26
s off
f 37/37/27 39/38/27 38/39/27
s 1
f 40/40/28 42/41/29 43/42/30 41/43/30
f 40/40/28 44/44/31 42/41/29
s off
f 45/45/32 47/46/32 46/47/32
s 1
f 48/48/33 50/49/34 51/50/35 49/51/35
f 48/48/33 52/52/36 50/49/34
f 53/53/37 55/54/38 56/55/39 54/56/39
f 53/53/37 57/57/40 55/54/38
f 58/58/41 60/59/42 61/60/43 59/61/43
f 58/58/41 62/62/44 60/59/42
f 63/63/45 65/64/46 66/65/47 64/66/47
f 63/63/45 67/67/48 65/64/46
f 68/68/49 70/69/50 71/70/51 69/71/51
f 68/68/49 72/72/52 70/69/50
