# Blender v2.78 (sub 0) OBJ File: 'Low_Poly_Vegetation_Pack.blend'
# www.blender.org
g Grass_b_TwoS_06
v -0.121891 0.184383 -0.110666
v -0.096140 -0.011389 -0.101068
v -0.109105 0.184383 -0.144970
v -0.083355 -0.011389 -0.135372
v -0.185204 0.371666 -0.134263
v -0.082001 0.227888 -0.174464
v -0.085765 -0.011389 -0.141087
v -0.037538 0.227888 -0.169449
v -0.041302 -0.011389 -0.136073
v -0.072746 0.456789 -0.256526
v 0.150591 0.166697 -0.058154
v 0.158364 -0.010296 -0.034556
v 0.182027 0.166697 -0.068509
v 0.189800 -0.010296 -0.044911
v 0.131478 0.336017 -0.116173
v 0.218157 0.206029 -0.066040
v 0.192472 -0.010296 -0.049841
v 0.239737 0.206029 -0.031824
v 0.214052 -0.010296 -0.015625
v 0.281308 0.412975 -0.105868
v -0.083781 0.176713 0.150445
v -0.146720 -0.011635 0.151462
v -0.088615 0.178525 0.186856
v -0.151554 -0.009823 0.187873
v 0.016825 0.349503 0.155202
v -0.217603 0.155625 0.108153
v -0.187091 -0.017837 0.138548
v -0.189504 0.157521 0.090767
v -0.158992 -0.015941 0.121162
v -0.266160 0.317951 0.047382
v -0.137534 0.207304 0.106650
v -0.162069 -0.009699 0.111795
v -0.108183 0.204643 0.134360
v -0.132718 -0.012360 0.139505
v -0.082684 0.416950 0.068688
v -0.121982 0.184359 -0.110700
v -0.096233 -0.011402 -0.101103
v -0.109196 0.184359 -0.145004
v -0.083447 -0.011402 -0.135407
v -0.185292 0.371632 -0.134296
v -0.081990 0.227863 -0.174560
v -0.085754 -0.011402 -0.141186
v -0.037527 0.227864 -0.169546
v -0.041291 -0.011402 -0.136171
v -0.072736 0.456755 -0.256619
v 0.150560 0.166673 -0.058246
v 0.158333 -0.010310 -0.034650
v 0.181996 0.166674 -0.068602
v 0.189769 -0.010310 -0.045005
v 0.131449 0.335983 -0.116262
v 0.218239 0.206005 -0.066092
v 0.192556 -0.010310 -0.049894
v 0.239819 0.206006 -0.031876
v 0.214136 -0.010310 -0.015678
v 0.281387 0.412941 -0.105919
v -0.083691 0.176672 0.150459
v -0.146626 -0.011666 0.151476
v -0.088525 0.178484 0.186870
v -0.151460 -0.009854 0.187887
v 0.016910 0.349453 0.155216
v -0.217651 0.155592 0.108072
v -0.187141 -0.017860 0.138465
v -0.189552 0.157489 0.090685
v -0.159042 -0.015964 0.121078
v -0.266205 0.317908 0.047304
v -0.137467 0.207285 0.106577
v -0.162001 -0.009708 0.111722
v -0.108116 0.204624 0.134287
v -0.132650 -0.012369 0.139432
v -0.082620 0.416920 0.068617
vt 0.5603 0.5586
vt 0.5603 0.5077
vt 0.5697 0.5077
vt 0.5697 0.5586
vt 0.5603 0.6109
vt 0.5603 0.5586
vt 0.5603 0.5077
vt 0.5697 0.5077
vt 0.5697 0.5586
vt 0.5603 0.6109
vt 0.5603 0.5586
vt 0.5603 0.5077
vt 0.5697 0.5077
vt 0.5697 0.5586
vt 0.5603 0.6109
vt 0.5603 0.5586
vt 0.5603 0.5077
vt 0.5697 0.5077
vt 0.5697 0.5586
vt 0.5603 0.6109
vt 0.6845 0.5581
vt 0.6845 0.5062
vt 0.6941 0.5062
vt 0.6941 0.5581
vt 0.6845 0.6113
vt 0.6845 0.5581
vt 0.6845 0.5062
vt 0.6941 0.5062
vt 0.6941 0.5581
vt 0.6845 0.6113
vt 0.5588 0.5581
vt 0.5588 0.5062
vt 0.5684 0.5062
vt 0.5684 0.5581
vt 0.5588 0.6113
vt 0.5603 0.5586
vt 0.5697 0.5586
vt 0.5697 0.5077
vt 0.5603 0.5077
vt 0.5603 0.6109
vt 0.5603 0.5586
vt 0.5697 0.5586
vt 0.5697 0.5077
vt 0.5603 0.5077
vt 0.5603 0.6109
vt 0.5603 0.5586
vt 0.5697 0.5586
vt 0.5697 0.5077
vt 0.5603 0.5077
vt 0.5603 0.6109
vt 0.5603 0.5586
vt 0.5697 0.5586
vt 0.5697 0.5077
vt 0.5603 0.5077
vt 0.5603 0.6109
vt 0.6845 0.5581
vt 0.6941 0.5581
vt 0.6941 0.5062
vt 0.6845 0.5062
vt 0.6845 0.6113
vt 0.6845 0.5581
vt 0.6941 0.5581
vt 0.6941 0.5062
vt 0.6845 0.5062
vt 0.6845 0.6113
vt 0.5588 0.5581
vt 0.5684 0.5581
vt 0.5684 0.5062
vt 0.5588 0.5062
vt 0.5588 0.6113
vn 0.9095 0.2405 0.3390
vn 0.9279 0.1390 0.3458
vn 0.9109 0.2343 0.3395
vn 0.8814 0.3393 0.3285
vn -0.1088 0.2405 0.9645
vn -0.1110 0.1390 0.9840
vn -0.1089 0.2343 0.9660
vn -0.1054 0.3394 0.9347
vn 0.3037 0.2405 0.9219
vn 0.3098 0.1390 0.9405
vn 0.3041 0.2343 0.9233
vn 0.2943 0.3393 0.8934
vn -0.8210 0.2405 0.5178
vn -0.8376 0.1390 0.5282
vn -0.8223 0.2343 0.5186
vn -0.7956 0.3393 0.5018
vn -0.9015 0.4093 -0.1400
vn -0.9393 0.3131 -0.1403
vn -0.9042 0.4035 -0.1401
vn -0.8542 0.5011 -0.1383
vn 0.4798 0.3330 0.8117
vn 0.5001 0.2340 0.8337
vn 0.4812 0.3269 0.8133
vn 0.4544 0.4283 0.7811
vn -0.6637 0.1960 0.7218
vn -0.6789 0.0940 0.7281
vn -0.6648 0.1898 0.7224
vn -0.6414 0.2960 0.7078
vn -0.9095 -0.2405 -0.3390
vn -0.9109 -0.2343 -0.3395
vn -0.9279 -0.1390 -0.3458
vn -0.8814 -0.3394 -0.3285
vn 0.1088 -0.2405 -0.9645
vn 0.1089 -0.2343 -0.9660
vn 0.1110 -0.1390 -0.9840
vn 0.1054 -0.3394 -0.9347
vn -0.3037 -0.2405 -0.9219
vn -0.3041 -0.2343 -0.9233
vn -0.3098 -0.1390 -0.9405
vn -0.2943 -0.3394 -0.8934
vn 0.8210 -0.2405 -0.5178
vn 0.8223 -0.2343 -0.5186
vn 0.8376 -0.1390 -0.5282
vn 0.7956 -0.3394 -0.5018
vn 0.9015 -0.4093 0.1400
vn 0.9042 -0.4035 0.1401
vn 0.9393 -0.3131 0.1403
vn 0.8542 -0.5011 0.1383
vn -0.4798 -0.3330 -0.8117
vn -0.4812 -0.3269 -0.8133
vn -0.5001 -0.2340 -0.8337
vn -0.4544 -0.4283 -0.7811
vn 0.6637 -0.1960 -0.7218
vn 0.6648 -0.1898 -0.7224
vn 0.6789 -0.0940 -0.7281
vn 0.6414 -0.2960 -0.7078
s 1
f 1/1/1 2/2/2 4/3/2 3/4/3
f 1/1/1 3/4/3 5/5/4
f 6/6/5 7/7/6 9/8/6 8/9/7
f 6/6/5 8/9/7 10/10/8
f 11/11/9 12/12/10 14/13/10 13/14/11
f 11/11/9 13/14/11 15/15/12
f 16/16/13 17/17/14 19/18/14 18/19/15
f 16/16/13 18/19/15 20/20/16
f 21/21/17 22/22/18 24/23/18 23/24/19
f 21/21/17 23/24/19 25/25/20
f 26/26/21 27/27/22 29/28/22 28/29/23
f 26/26/21 28/29/23 30/30/24
f 31/31/25 32/32/26 34/33/26 33/34/27
f 31/31/25 33/34/27 35/35/28
f 36/36/29 38/37/30 39/38/31 37/39/31
f 36/36/29 40/40/32 38/37/30
f 41/41/33 43/42/34 44/43/35 42/44/35
f 41/41/33 45/45/36 43/42/34
f 46/46/37 48/47/38 49/48/39 47/49/39
f 46/46/37 50/50/40 48/47/38
f 51/51/41 53/52/42 54/53/43 52/54/43
f 51/51/41 55/55/44 53/52/42
f 56/56/45 58/57/46 59/58/47 57/59/47
f 56/56/45 60/60/48 58/57/46
f 61/61/49 63/62/50 64/63/51 62/64/51
f 61/61/49 65/65/52 63/62/50
f 66/66/53 68/67/54 69/68/55 67/69/55
f 66/66/53 70/70/56 68/67/54
