# Blender v2.78 (sub 0) OBJ File: 'Low_Poly_Vegetation_Pack.blend'
# www.blender.org
g Grass_a_TwoS_06
v -0.119716 0.304386 -0.021810
v -0.105152 -0.016060 0.139171
v -0.046870 -0.050128 0.042419
v -0.201044 0.290494 0.163857
v -0.157357 -0.022967 0.185895
v -0.199789 0.290494 0.077165
v -0.155482 -0.022967 0.056401
v -0.309016 0.590364 0.148251
v -0.091394 0.331857 0.232345
v -0.166778 -0.017551 0.264659
v -0.110156 -0.028384 0.161727
v -0.234914 0.210664 0.354148
v -0.200923 -0.022967 0.367363
v -0.240202 0.210664 0.289744
v -0.208822 -0.022967 0.271161
v -0.316134 0.434166 0.350316
v -0.278893 0.262582 0.237361
v -0.284510 -0.022967 0.281580
v -0.204081 0.262582 0.212039
v -0.172762 -0.022967 0.243755
v -0.303462 0.535751 0.165534
v 0.139826 0.248390 -0.038008
v 0.109722 -0.015342 -0.010609
v 0.199960 0.248390 -0.012327
v 0.200983 -0.015342 0.028366
v 0.182965 0.500687 -0.118561
v 0.270743 0.306997 0.025957
v 0.229345 -0.015342 -0.001638
v 0.258076 0.306997 0.104866
v 0.210121 -0.015342 0.118117
v 0.379030 0.615360 0.053287
v -0.152750 0.220040 -0.196756
v -0.152612 -0.013591 -0.160697
v -0.100160 0.220040 -0.221041
v -0.072800 -0.013591 -0.197551
v -0.180092 0.443542 -0.272947
v -0.032964 0.271958 -0.244843
v -0.075685 -0.013591 -0.234012
v 0.011391 0.271958 -0.189662
v -0.008371 -0.013591 -0.150268
v 0.049301 0.545127 -0.299805
v -0.119802 0.304361 -0.021854
v -0.105238 -0.016085 0.139128
v -0.046956 -0.050153 0.042376
v -0.201141 0.290470 0.163856
v -0.157456 -0.022981 0.185894
v -0.199887 0.290471 0.077164
v -0.155581 -0.022981 0.056399
v -0.309110 0.590330 0.148249
v -0.091480 0.331871 0.232296
v -0.166864 -0.017537 0.264610
v -0.110242 -0.028370 0.161678
v -0.235011 0.210640 0.354156
v -0.201022 -0.022981 0.367371
v -0.240299 0.210641 0.289752
v -0.208921 -0.022981 0.271169
v -0.316228 0.434132 0.350324
v -0.278924 0.262562 0.237269
v -0.284541 -0.022981 0.281486
v -0.204113 0.262563 0.211946
v -0.172794 -0.022981 0.243661
v -0.303493 0.535724 0.165442
v 0.139864 0.248366 -0.038097
v 0.109761 -0.015356 -0.010700
v 0.199998 0.248367 -0.012416
v 0.201022 -0.015356 0.028275
v 0.183002 0.500653 -0.118647
v 0.270838 0.306973 0.025972
v 0.229443 -0.015356 -0.001622
v 0.258172 0.306974 0.104881
v 0.210219 -0.015356 0.118133
v 0.379123 0.615326 0.053301
v -0.152790 0.220017 -0.196845
v -0.152653 -0.013605 -0.160787
v -0.100201 0.220017 -0.221129
v -0.072842 -0.013605 -0.197641
v -0.180131 0.443508 -0.273032
v -0.032888 0.271935 -0.244904
v -0.075608 -0.013605 -0.234075
v 0.011467 0.271935 -0.189723
v -0.008294 -0.013605 -0.150330
v 0.049374 0.545093 -0.299864
vt 0.6869 0.6023
vt 0.6756 0.5267
vt 0.6869 0.5250
vt 0.5509 0.5630
vt 0.5509 0.5096
vt 0.5609 0.5096
vt 0.5609 0.5630
vt 0.5509 0.6178
vt 0.5679 0.6023
vt 0.5566 0.5267
vt 0.5679 0.5250
vt 0.5509 0.5630
vt 0.5509 0.5096
vt 0.5609 0.5096
vt 0.5609 0.5630
vt 0.5509 0.6178
vt 0.6700 0.5630
vt 0.6700 0.5096
vt 0.6799 0.5096
vt 0.6799 0.5630
vt 0.6700 0.6178
vt 0.5603 0.5586
vt 0.5603 0.5077
vt 0.5697 0.5077
vt 0.5697 0.5586
vt 0.5603 0.6109
vt 0.5603 0.5586
vt 0.5603 0.5077
vt 0.5697 0.5077
vt 0.5697 0.5586
vt 0.5603 0.6109
vt 0.5603 0.5586
vt 0.5603 0.5077
vt 0.5697 0.5077
vt 0.5697 0.5586
vt 0.5603 0.6109
vt 0.5603 0.5586
vt 0.5603 0.5077
vt 0.5697 0.5077
vt 0.5697 0.5586
vt 0.5603 0.6109
vt 0.6869 0.6023
vt 0.6869 0.5250
vt 0.6756 0.5267
vt 0.5509 0.5630
vt 0.5609 0.5630
vt 0.5609 0.5096
vt 0.5509 0.5096
vt 0.5509 0.6178
vt 0.5679 0.6023
vt 0.5679 0.5250
vt 0.5566 0.5267
vt 0.5509 0.5630
vt 0.5609 0.5630
vt 0.5609 0.5096
vt 0.5509 0.5096
vt 0.5509 0.6178
vt 0.6700 0.5630
vt 0.6799 0.5630
vt 0.6799 0.5096
vt 0.6700 0.5096
vt 0.6700 0.6178
vt 0.5603 0.5586
vt 0.5697 0.5586
vt 0.5697 0.5077
vt 0.5603 0.5077
vt 0.5603 0.6109
vt 0.5603 0.5586
vt 0.5697 0.5586
vt 0.5697 0.5077
vt 0.5603 0.5077
vt 0.5603 0.6109
vt 0.5603 0.5586
vt 0.5697 0.5586
vt 0.5697 0.5077
vt 0.5603 0.5077
vt 0.5603 0.6109
vt 0.5603 0.5586
vt 0.5697 0.5586
vt 0.5697 0.5077
vt 0.5603 0.5077
vt 0.5603 0.6109
vn 0.8653 0.2559 0.4311
vn 0.9714 0.2369 0.0140
vn 0.9902 0.1390 0.0143
vn 0.9729 0.2306 0.0141
vn 0.9405 0.3394 0.0136
vn 0.8612 -0.1406 0.4885
vn 0.9683 0.2369 -0.0795
vn 0.9870 0.1390 -0.0810
vn 0.9698 0.2306 -0.0796
vn 0.9375 0.3393 -0.0770
vn 0.3140 0.2025 0.9276
vn 0.3175 0.1390 0.9380
vn 0.3144 0.1963 0.9288
vn 0.3089 0.2677 0.9126
vn -0.3815 0.2375 0.8933
vn -0.3889 0.1390 0.9107
vn -0.3821 0.2312 0.8947
vn -0.3694 0.3393 0.8650
vn -0.9591 0.2375 -0.1539
vn -0.9778 0.1390 -0.1570
vn -0.9606 0.2312 -0.1542
vn -0.9287 0.3393 -0.1491
vn 0.4072 0.2375 0.8819
vn 0.4151 0.1390 0.8990
vn 0.4078 0.2312 0.8833
vn 0.3943 0.3393 0.8540
vn -0.7571 0.2375 0.6086
vn -0.7718 0.1390 0.6204
vn -0.7583 0.2312 0.6095
vn -0.7331 0.3393 0.5893
vn -0.8653 -0.2559 -0.4311
vn -0.9714 -0.2369 -0.0140
vn -0.9729 -0.2306 -0.0141
vn -0.9902 -0.1390 -0.0143
vn -0.9405 -0.3394 -0.0136
vn -0.8612 0.1406 -0.4885
vn -0.9683 -0.2369 0.0795
vn -0.9698 -0.2306 0.0796
vn -0.9870 -0.1390 0.0810
vn -0.9375 -0.3394 0.0770
vn -0.3140 -0.2025 -0.9276
vn -0.3144 -0.1963 -0.9288
vn -0.3175 -0.1390 -0.9380
vn -0.3089 -0.2677 -0.9126
vn 0.3815 -0.2375 -0.8933
vn 0.3821 -0.2312 -0.8947
vn 0.3889 -0.1390 -0.9107
vn 0.3694 -0.3394 -0.8650
vn 0.9591 -0.2375 0.1539
vn 0.9606 -0.2312 0.1542
vn 0.9778 -0.1390 0.1570
vn 0.9287 -0.3394 0.1491
vn -0.4072 -0.2375 -0.8819
vn -0.4078 -0.2312 -0.8833
vn -0.4151 -0.1390 -0.8990
vn -0.3943 -0.3394 -0.8540
vn 0.7571 -0.2375 -0.6086
vn 0.7583 -0.2312 -0.6095
vn 0.7718 -0.1390 -0.6204
vn 0.7331 -0.3394 -0.5893
s off
f 1/1/1 2/2/1 3/3/1
s 1
f 4/4/2 5/5/3 7/6/3 6/7/4
f 4/4/2 6/7/4 8/8/5
s off
f 9/9/6 10/10/6 11/11/6
s 1
f 12/12/7 13/13/8 15/14/8 14/15/9
f 12/12/7 14/15/9 16/16/10
f 17/17/11 18/18/12 20/19/12 19/20/13
f 17/17/11 19/20/13 21/21/14
f 22/22/15 23/23/16 25/24/16 24/25/17
f 22/22/15 24/25/17 26/26/18
f 27/27/19 28/28/20 30/29/20 29/30/21
f 27/27/19 29/30/21 31/31/22
f 32/32/23 33/33/24 35/34/24 34/35/25
f 32/32/23 34/35/25 36/36/26
f 37/37/27 38/38/28 40/39/28 39/40/29
f 37/37/27 39/40/29 41/41/30
s off
f 42/42/31 44/43/31 43/44/31
s 1
f 45/45/32 47/46/33 48/47/34 46/48/34
f 45/45/32 49/49/35 47/46/33
s off
f 50/50/36 52/51/36 51/52/36
s 1
f 53/53/37 55/54/38 56/55/39 54/56/39
f 53/53/37 57/57/40 55/54/38
f 58/58/41 60/59/42 61/60/43 59/61/43
f 58/58/41 62/62/44 60/59/42
f 63/63/45 65/64/46 66/65/47 64/66/47
f 63/63/45 67/67/48 65/64/46
f 68/68/49 70/69/50 71/70/51 69/71/51
f 68/68/49 72/72/52 70/69/50
f 73/73/53 75/74/54 76/75/55 74/76/55
f 73/73/53 77/77/56 75/74/54
f 78/78/57 80/79/58 81/80/59 79/81/59
f 78/78/57 82/82/60 80/79/58
