# Blender v2.78 (sub 0) OBJ File: 'Low_Poly_Vegetation_Pack.blend'
# www.blender.org
g Grass_d_TwoS_03
v 0.007054 -0.036192 0.058177
v -0.014101 -0.031234 0.028508
v -0.085774 0.327721 0.185187
v -0.000760 -0.033713 -0.024408
v 0.036016 -0.033713 -0.024408
v -0.000760 0.351079 -0.119888
v 0.112667 0.339427 0.077965
v 0.024719 -0.033713 0.022864
v 0.074263 -0.033713 -0.003386
v -0.160836 0.331087 0.016392
v -0.087863 -0.033713 -0.006498
v -0.044730 -0.033713 -0.042318
v 0.006976 -0.036230 0.058227
v -0.014180 -0.031271 0.028558
v -0.085853 0.327683 0.185236
v -0.000760 -0.033737 -0.024505
v 0.036016 -0.033737 -0.024505
v -0.000760 0.351055 -0.119985
v 0.112621 0.339450 0.077879
v 0.024674 -0.033690 0.022778
v 0.074217 -0.033690 -0.003471
v -0.160899 0.331079 0.016316
v -0.087927 -0.033721 -0.006575
v -0.044793 -0.033721 -0.042395
vt 0.6860 0.5119
vt 0.6767 0.6130
vt 0.6767 0.5119
vt 0.5748 0.5986
vt 0.5643 0.5279
vt 0.5748 0.5263
vt 0.6926 0.5986
vt 0.6820 0.5279
vt 0.6926 0.5263
vt 0.5682 0.5119
vt 0.5590 0.6130
vt 0.5590 0.5119
vt 0.6860 0.5119
vt 0.6767 0.5119
vt 0.6767 0.6130
vt 0.5748 0.5986
vt 0.5748 0.5263
vt 0.5643 0.5279
vt 0.6926 0.5986
vt 0.6926 0.5263
vt 0.6820 0.5279
vt 0.5682 0.5119
vt 0.5590 0.5119
vt 0.5590 0.6130
vn 0.0000 0.2408 0.9705
vn 0.4552 -0.2341 0.8591
vn 0.6369 0.0793 0.7669
vn 0.7837 0.3732 -0.4964
vn 0.0000 -0.2408 -0.9705
vn -0.4552 0.2341 -0.8591
vn -0.6369 -0.0793 -0.7669
vn -0.7837 -0.3732 0.4964
s 1
f 5/1/1 6/2/1 4/3/1
s off
f 7/4/2 8/5/2 9/6/2
f 10/7/3 11/8/3 12/9/3
s 1
f 2/10/4 3/11/4 1/12/4
f 17/13/5 16/14/5 18/15/5
s off
f 19/16/6 21/17/6 20/18/6
f 22/19/7 24/20/7 23/21/7
s 1
f 14/22/8 13/23/8 15/24/8
