# Blender v2.78 (sub 0) OBJ File: 'Low_Poly_Vegetation_Pack.blend'
# www.blender.org
g Plant_a_TwoS_03
v -0.000000 -0.000000 -0.000000
v -0.561012 0.483133 -0.609583
v -0.430033 0.423852 -0.357475
v -0.271627 0.263318 -0.077721
v -0.124454 0.074236 0.061484
v 0.071583 0.074236 -0.118933
v -0.054951 0.263318 -0.277132
v -0.320621 0.423852 -0.458169
v 0.000000 -0.000000 -0.000000
v 0.497840 0.380108 -0.420693
v 0.312255 0.333468 -0.306076
v 0.098030 0.207167 -0.177915
v -0.033452 0.058406 -0.087171
v 0.080370 0.058406 0.047524
v 0.191774 0.207167 -0.066980
v 0.353873 0.333468 -0.256826
v -0.000599 -0.000465 -0.000651
v -0.561155 0.482155 -0.609739
v -0.430273 0.422917 -0.357736
v -0.272021 0.262504 -0.078149
v -0.124957 0.073567 0.060937
v 0.071080 0.073567 -0.119479
v -0.055345 0.262504 -0.277560
v -0.320862 0.422917 -0.458430
v 0.000676 -0.000465 -0.000571
v 0.498002 0.379131 -0.420829
v 0.312521 0.332531 -0.306300
v 0.098476 0.206355 -0.178292
v -0.032877 0.057747 -0.087657
v 0.080945 0.057747 0.047038
v 0.192220 0.206355 -0.067357
v 0.354139 0.332531 -0.257050
vt 0.1857 0.8349
vt 0.1994 0.8356
vt 0.1912 0.8610
vt 0.1959 0.7700
vt 0.2077 0.7783
vt 0.1833 0.7771
vt 0.2077 0.8037
vt 0.1807 0.8023
vt 0.1664 0.8211
vt 0.1723 0.8215
vt 0.1679 0.8415
vt 0.1730 0.7700
vt 0.1807 0.7766
vt 0.1645 0.7754
vt 0.1778 0.7964
vt 0.1645 0.7955
vt 0.1857 0.8349
vt 0.1912 0.8610
vt 0.1994 0.8356
vt 0.1959 0.7700
vt 0.1833 0.7771
vt 0.2077 0.7783
vt 0.1807 0.8023
vt 0.2077 0.8037
vt 0.1664 0.8211
vt 0.1679 0.8415
vt 0.1723 0.8215
vt 0.1730 0.7700
vt 0.1645 0.7754
vt 0.1807 0.7766
vt 0.1645 0.7955
vt 0.1778 0.7964
vn 0.1431 0.9774 0.1555
vn 0.5994 0.4654 0.6513
vn 0.4627 0.7302 0.5027
vn 0.3090 0.8899 0.3357
vn -0.1614 0.9774 0.1364
vn -0.6760 0.4654 0.5713
vn -0.5218 0.7302 0.4410
vn -0.3485 0.8899 0.2945
vn -0.1431 -0.9774 -0.1555
vn -0.5995 -0.4651 -0.6514
vn -0.4627 -0.7302 -0.5027
vn -0.3089 -0.8899 -0.3357
vn 0.1614 -0.9774 -0.1364
vn 0.6762 -0.4651 -0.5714
vn 0.5218 -0.7302 -0.4410
vn 0.3485 -0.8899 -0.2945
s off
f 3/1/1 8/2/1 2/3/1
f 1/4/2 6/5/2 5/6/2
f 5/6/3 6/5/3 7/7/3 4/8/3
f 4/8/4 7/7/4 8/2/4 3/1/4
f 11/9/5 16/10/5 10/11/5
f 9/12/6 14/13/6 13/14/6
f 13/14/7 14/13/7 15/15/7 12/16/7
f 12/16/8 15/15/8 16/10/8 11/9/8
f 19/17/9 18/18/9 24/19/9
f 17/20/10 21/21/10 22/22/10
f 21/21/11 20/23/11 23/24/11 22/22/11
f 20/23/12 19/17/12 24/19/12 23/24/12
f 27/25/13 26/26/13 32/27/13
f 25/28/14 29/29/14 30/30/14
f 29/29/15 28/31/15 31/32/15 30/30/15
f 28/31/16 27/25/16 32/27/16 31/32/16
