# Blender v2.78 (sub 0) OBJ File: 'Low_Poly_Vegetation_Pack.blend'
# www.blender.org
g Plant_b_TwoS_05
v -0.000000 -0.000000 -0.000000
v 0.034764 0.398899 -0.546828
v -0.070436 0.367162 -0.278323
v -0.082606 0.204827 -0.091367
v 0.096680 0.202860 -0.081404
v 0.108850 0.365195 -0.268359
v -0.002521 -0.002454 0.006970
v 0.081520 0.165507 0.374683
v 0.097674 0.180793 0.199342
v 0.068186 0.107906 0.070399
v -0.038477 0.108047 0.094712
v -0.008989 0.180934 0.223655
v -0.001387 -0.000000 0.001324
v -0.448511 0.273307 0.069030
v -0.232619 0.248175 0.131627
v -0.078373 0.135024 0.104104
v -0.080620 0.165210 -0.032584
v -0.234865 0.278361 -0.005061
v 0.033391 -0.000000 0.020246
v 0.478294 0.273307 -0.060775
v 0.260630 0.248175 -0.116901
v 0.107274 0.135024 -0.084785
v 0.113600 0.165210 0.051775
v 0.266955 0.278361 0.019660
v 0.000009 -0.000078 -0.000184
v 0.034763 0.398700 -0.546852
v -0.070433 0.366982 -0.278410
v -0.082599 0.204704 -0.091524
v 0.096687 0.202737 -0.081561
v 0.108853 0.365015 -0.268447
v -0.002485 -0.002569 0.007130
v 0.081516 0.165308 0.374665
v 0.097685 0.180599 0.199388
v 0.068214 0.107753 0.070524
v -0.038449 0.107894 0.094838
v -0.008978 0.180740 0.223701
v -0.001566 -0.000089 0.001308
v -0.448522 0.273112 0.068987
v -0.232693 0.247994 0.131589
v -0.078522 0.134893 0.104078
v -0.080769 0.165079 -0.032611
v -0.234940 0.278180 -0.005100
v 0.033570 -0.000089 0.020258
v 0.478306 0.273112 -0.060733
v 0.260705 0.247994 -0.116864
v 0.107424 0.134893 -0.084763
v 0.113750 0.165079 0.051797
v 0.267031 0.278180 0.019697
vt 0.4187 0.8266
vt 0.4442 0.8266
vt 0.4315 0.8657
vt 0.4315 0.7600
vt 0.4442 0.7915
vt 0.4187 0.7915
vt 0.4187 0.8266
vt 0.4442 0.8266
vt 0.4315 0.8657
vt 0.4315 0.7600
vt 0.4442 0.7915
vt 0.4187 0.7915
vt 0.2967 0.8266
vt 0.3221 0.8266
vt 0.3094 0.8657
vt 0.3094 0.7600
vt 0.3221 0.7915
vt 0.2967 0.7915
vt 0.2967 0.8266
vt 0.3221 0.8266
vt 0.3094 0.8657
vt 0.3094 0.7600
vt 0.3221 0.7915
vt 0.2967 0.7915
vt 0.4187 0.8266
vt 0.4315 0.8657
vt 0.4442 0.8266
vt 0.4315 0.7600
vt 0.4187 0.7915
vt 0.4442 0.7915
vt 0.4187 0.8266
vt 0.4315 0.8657
vt 0.4442 0.8266
vt 0.4315 0.7600
vt 0.4187 0.7915
vt 0.4442 0.7915
vt 0.2967 0.8266
vt 0.3094 0.8657
vt 0.3221 0.8266
vt 0.3094 0.7600
vt 0.2967 0.7915
vt 0.3221 0.7915
vt 0.2967 0.8266
vt 0.3094 0.8657
vt 0.3221 0.8266
vt 0.3094 0.7600
vt 0.2967 0.7915
vt 0.3221 0.7915
vn 0.0043 0.9929 0.1190
vn -0.0468 0.3911 0.9191
vn -0.0281 0.7557 0.6543
vn 0.0216 0.9958 0.0888
vn -0.1811 0.5747 -0.7980
vn -0.1062 0.8758 -0.4708
vn 0.0513 0.9754 0.2146
vn 0.8917 0.4448 0.0836
vn 0.6023 0.7815 0.1627
vn -0.0577 0.9754 -0.2129
vn -0.8938 0.4448 -0.0569
vn -0.6069 0.7815 -0.1446
vn -0.0043 -0.9929 -0.1190
vn 0.0468 -0.3911 -0.9192
vn 0.0281 -0.7557 -0.6543
vn -0.0216 -0.9958 -0.0889
vn 0.1812 -0.5747 0.7981
vn 0.1062 -0.8758 0.4708
vn -0.0513 -0.9754 -0.2146
vn -0.8917 -0.4448 -0.0836
vn -0.6023 -0.7815 -0.1627
vn 0.0577 -0.9754 0.2129
vn 0.8938 -0.4448 0.0569
vn 0.6069 -0.7815 0.1446
s off
f 3/1/1 6/2/1 2/3/1
f 1/4/2 5/5/2 4/6/2
f 4/6/3 5/5/3 6/2/3 3/1/3
f 9/7/4 12/8/4 8/9/4
f 7/10/5 11/11/5 10/12/5
f 10/12/6 11/11/6 12/8/6 9/7/6
f 15/13/7 18/14/7 14/15/7
f 13/16/8 17/17/8 16/18/8
f 16/18/9 17/17/9 18/14/9 15/13/9
f 21/19/10 24/20/10 20/21/10
f 19/22/11 23/23/11 22/24/11
f 22/24/12 23/23/12 24/20/12 21/19/12
f 27/25/13 26/26/13 30/27/13
f 25/28/14 28/29/14 29/30/14
f 28/29/15 27/25/15 30/27/15 29/30/15
f 33/31/16 32/32/16 36/33/16
f 31/34/17 34/35/17 35/36/17
f 34/35/18 33/31/18 36/33/18 35/36/18
f 39/37/19 38/38/19 42/39/19
f 37/40/20 40/41/20 41/42/20
f 40/41/21 39/37/21 42/39/21 41/42/21
f 45/43/22 44/44/22 48/45/22
f 43/46/23 46/47/23 47/48/23
f 46/47/24 45/43/24 48/45/24 47/48/24
