# Blender v2.78 (sub 0) OBJ File: 'Low_Poly_Vegetation_Pack.blend'
# www.blender.org
g Plant_j_TwoS_09
v -0.037653 0.111335 -0.004202
v -0.153271 0.215765 -0.017566
v -0.129749 0.215765 -0.075367
v -0.180471 0.231756 -0.062322
v -0.094537 0.163321 0.016518
v -0.063906 0.163321 -0.058755
v -0.083785 0.159131 -0.022976
v -0.147358 0.209812 -0.048846
v 0.011884 0.109019 -0.035137
v 0.048795 0.211278 -0.142962
v 0.099186 0.211278 -0.108397
v 0.097288 0.226936 -0.159645
v 0.003931 0.159924 -0.093882
v 0.069553 0.159924 -0.048870
v 0.039471 0.155821 -0.075354
v 0.077487 0.205448 -0.130777
v -0.031736 0.143540 -0.037125
v -0.128800 0.278179 -0.151559
v -0.055738 0.278179 -0.185249
v -0.114978 0.298795 -0.217651
v -0.103537 0.210564 -0.067733
v -0.008391 0.210564 -0.111606
v -0.058624 0.205162 -0.095437
v -0.095677 0.270503 -0.175795
v -0.008205 0.081415 0.026471
v -0.033713 0.157781 0.107669
v -0.071989 0.157781 0.082822
v -0.069599 0.169475 0.121045
v -0.001152 0.119431 0.070176
v -0.050997 0.119431 0.037819
v -0.028036 0.116367 0.057019
v -0.055364 0.153428 0.099117
v -0.037781 0.111190 -0.004255
v -0.153394 0.215607 -0.017568
v -0.129838 0.215607 -0.075451
v -0.180568 0.231586 -0.062361
v -0.094669 0.163171 0.016504
v -0.064010 0.163171 -0.058837
v -0.083906 0.158980 -0.023025
v -0.147463 0.209647 -0.048889
v 0.011963 0.108875 -0.035251
v 0.048823 0.211120 -0.143081
v 0.099287 0.211120 -0.108466
v 0.097348 0.226766 -0.159732
v 0.003973 0.159774 -0.094008
v 0.069656 0.159774 -0.048955
v 0.039545 0.155670 -0.075462
v 0.077551 0.205283 -0.130871
v -0.031794 0.143396 -0.037251
v -0.128889 0.278020 -0.151644
v -0.055746 0.278020 -0.185371
v -0.115022 0.298625 -0.217746
v -0.103624 0.210414 -0.067833
v -0.008411 0.210414 -0.111737
v -0.058678 0.205011 -0.095556
v -0.095725 0.270338 -0.175898
v -0.008280 0.081271 0.026587
v -0.033737 0.157623 0.107789
v -0.072088 0.157623 0.082893
v -0.069656 0.169305 0.121133
v -0.001190 0.119281 0.070303
v -0.051097 0.119281 0.037905
v -0.028107 0.116215 0.057129
v -0.055426 0.153263 0.099213
v -0.038576 0.112784 -0.005899
v -0.037701 0.111225 -0.004242
v -0.039120 0.112612 -0.003659
v -0.003604 -0.000048 -0.001628
v 0.002313 -0.000048 -0.002665
v 0.000015 -0.000048 0.003166
v 0.013693 0.110438 -0.035675
v 0.011925 0.108912 -0.035183
v 0.011664 0.110269 -0.036663
v 0.002310 -0.000047 -0.003109
v 0.002067 -0.000047 0.002769
v -0.003032 -0.000047 -0.000646
v -0.031117 0.145409 -0.039537
v -0.031753 0.143399 -0.037205
v -0.033602 0.145186 -0.037907
v -0.001959 -0.000062 -0.004708
v 0.004525 -0.000062 -0.000472
v -0.002775 -0.000062 0.002994
v -0.009545 0.082475 0.026894
v -0.008234 0.081335 0.026493
v -0.008011 0.082349 0.027592
v -0.001665 -0.000035 0.002365
v -0.001596 -0.000035 -0.002028
v 0.002276 -0.000035 0.000425
vt 0.4592 0.7161
vt 0.4734 0.7159
vt 0.4592 0.7348
vt 0.4450 0.7159
vt 0.4592 0.6462
vt 0.4777 0.6773
vt 0.4592 0.6776
vt 0.4407 0.6773
vt 0.3306 0.7161
vt 0.3448 0.7159
vt 0.3306 0.7348
vt 0.3164 0.7159
vt 0.3306 0.6462
vt 0.3491 0.6773
vt 0.3306 0.6776
vt 0.3121 0.6773
vt 0.4592 0.7161
vt 0.4734 0.7159
vt 0.4592 0.7348
vt 0.4450 0.7159
vt 0.4592 0.6462
vt 0.4777 0.6773
vt 0.4592 0.6776
vt 0.4407 0.6773
vt 0.3306 0.7161
vt 0.3448 0.7159
vt 0.3306 0.7348
vt 0.3164 0.7159
vt 0.3306 0.6462
vt 0.3491 0.6773
vt 0.3306 0.6776
vt 0.3121 0.6773
vt 0.4592 0.7161
vt 0.4592 0.7348
vt 0.4734 0.7159
vt 0.4450 0.7159
vt 0.4592 0.6462
vt 0.4592 0.6776
vt 0.4777 0.6773
vt 0.4407 0.6773
vt 0.3306 0.7161
vt 0.3306 0.7348
vt 0.3448 0.7159
vt 0.3164 0.7159
vt 0.3306 0.6462
vt 0.3306 0.6776
vt 0.3491 0.6773
vt 0.3121 0.6773
vt 0.4592 0.7161
vt 0.4592 0.7348
vt 0.4734 0.7159
vt 0.4450 0.7159
vt 0.4592 0.6462
vt 0.4592 0.6776
vt 0.4777 0.6773
vt 0.4407 0.6773
vt 0.3306 0.7161
vt 0.3306 0.7348
vt 0.3448 0.7159
vt 0.3164 0.7159
vt 0.3306 0.6462
vt 0.3306 0.6776
vt 0.3491 0.6773
vt 0.3121 0.6773
vt 0.4240 0.6393
vt 0.4240 0.7371
vt 0.4127 0.7371
vt 0.4127 0.6393
vt 0.4014 0.7371
vt 0.4014 0.6393
vt 0.4353 0.6393
vt 0.4353 0.7371
vt 0.2954 0.6393
vt 0.2954 0.7371
vt 0.2841 0.7371
vt 0.2841 0.6393
vt 0.2728 0.7371
vt 0.2728 0.6393
vt 0.3067 0.6393
vt 0.3067 0.7371
vt 0.4240 0.6393
vt 0.4240 0.7371
vt 0.4127 0.7371
vt 0.4127 0.6393
vt 0.4014 0.7371
vt 0.4014 0.6393
vt 0.4353 0.6393
vt 0.4353 0.7371
vt 0.2954 0.6393
vt 0.2954 0.7371
vt 0.2841 0.7371
vt 0.2841 0.6393
vt 0.2728 0.7371
vt 0.2728 0.6393
vt 0.3067 0.6393
vt 0.3067 0.7371
vn 0.3703 0.8231 0.4306
vn 0.5657 0.8231 -0.0497
vn 0.5745 0.7126 0.4026
vn 0.4799 0.7731 0.4147
vn 0.6331 0.7731 0.0383
vn 0.6924 0.7126 0.1129
vn -0.4996 0.8231 0.2700
vn -0.0720 0.8231 0.5633
vn -0.5158 0.7126 0.4755
vn -0.5074 0.7731 0.3806
vn -0.1723 0.7731 0.6104
vn -0.2579 0.7126 0.6524
vn -0.0239 0.8231 0.5674
vn 0.4470 0.8231 0.3502
vn 0.1443 0.7126 0.6865
vn 0.0671 0.7731 0.6307
vn 0.4361 0.7731 0.4605
vn 0.4284 0.7126 0.5556
vn 0.4926 0.8231 -0.2826
vn 0.0576 0.8231 -0.5650
vn 0.5036 0.7126 -0.4885
vn 0.4976 0.7731 -0.3933
vn 0.1567 0.7731 -0.6146
vn 0.2412 0.7126 -0.6588
vn -0.3703 -0.8232 -0.4304
vn -0.5657 -0.8232 0.0495
vn -0.5745 -0.7126 -0.4026
vn -0.4800 -0.7731 -0.4146
vn -0.6331 -0.7731 -0.0384
vn -0.6924 -0.7126 -0.1130
vn 0.4995 -0.8232 -0.2701
vn 0.0722 -0.8232 -0.5632
vn 0.5158 -0.7126 -0.4755
vn 0.5073 -0.7731 -0.3806
vn 0.1724 -0.7731 -0.6103
vn 0.2579 -0.7126 -0.6524
vn 0.0237 -0.8231 -0.5673
vn -0.4469 -0.8231 -0.3503
vn -0.1444 -0.7126 -0.6865
vn -0.0672 -0.7731 -0.6307
vn -0.4360 -0.7731 -0.4606
vn -0.4284 -0.7126 -0.5556
vn -0.4924 -0.8232 0.2828
vn -0.0579 -0.8232 0.5648
vn -0.5035 -0.7126 0.4885
vn -0.4974 -0.7732 0.3934
vn -0.1569 -0.7732 0.6145
vn -0.2413 -0.7126 0.6587
vn 0.0921 0.0048 -0.9957
vn 0.8489 0.3159 0.4237
vn -0.8841 -0.2719 0.3800
vn 0.9532 0.0048 0.3022
vn -0.5948 0.3159 0.7392
vn -0.1828 -0.2719 -0.9448
vn 0.7476 0.0048 -0.6641
vn 0.3304 0.3159 0.8894
vn -0.9052 -0.2719 -0.3267
vn -0.9606 0.0048 -0.2778
vn 0.5758 0.3159 -0.7540
vn 0.2068 -0.2719 0.9398
s off
f 8/1/1 3/2/1 4/3/1
f 2/4/2 8/1/2 4/3/2
f 1/5/3 6/6/3 7/7/3
f 7/7/4 6/6/4 3/2/4 8/1/4
f 5/8/5 7/7/5 8/1/5 2/4/5
f 5/8/6 1/5/6 7/7/6
f 16/9/7 11/10/7 12/11/7
f 10/12/8 16/9/8 12/11/8
f 9/13/9 14/14/9 15/15/9
f 15/15/10 14/14/10 11/10/10 16/9/10
f 13/16/11 15/15/11 16/9/11 10/12/11
f 13/16/12 9/13/12 15/15/12
f 24/17/13 19/18/13 20/19/13
f 18/20/14 24/17/14 20/19/14
f 17/21/15 22/22/15 23/23/15
f 23/23/16 22/22/16 19/18/16 24/17/16
f 21/24/17 23/23/17 24/17/17 18/20/17
f 21/24/18 17/21/18 23/23/18
f 32/25/19 27/26/19 28/27/19
f 26/28/20 32/25/20 28/27/20
f 25/29/21 30/30/21 31/31/21
f 31/31/22 30/30/22 27/26/22 32/25/22
f 29/32/23 31/31/23 32/25/23 26/28/23
f 29/32/24 25/29/24 31/31/24
f 40/33/25 36/34/25 35/35/25
f 34/36/26 36/34/26 40/33/26
f 33/37/27 39/38/27 38/39/27
f 39/38/28 40/33/28 35/35/28 38/39/28
f 37/40/29 34/36/29 40/33/29 39/38/29
f 37/40/30 39/38/30 33/37/30
f 48/41/31 44/42/31 43/43/31
f 42/44/32 44/42/32 48/41/32
f 41/45/33 47/46/33 46/47/33
f 47/46/34 48/41/34 43/43/34 46/47/34
f 45/48/35 42/44/35 48/41/35 47/46/35
f 45/48/36 47/46/36 41/45/36
f 56/49/37 52/50/37 51/51/37
f 50/52/38 52/50/38 56/49/38
f 49/53/39 55/54/39 54/55/39
f 55/54/40 56/49/40 51/51/40 54/55/40
f 53/56/41 50/52/41 56/49/41 55/54/41
f 53/56/42 55/54/42 49/53/42
f 64/57/43 60/58/43 59/59/43
f 58/60/44 60/58/44 64/57/44
f 57/61/45 63/62/45 62/63/45
f 63/62/46 64/57/46 59/59/46 62/63/46
f 61/64/47 58/60/47 64/57/47 63/62/47
f 61/64/48 63/62/48 57/61/48
f 68/65/49 65/66/49 66/67/49 69/68/49
f 69/68/50 66/67/50 67/69/50 70/70/50
f 70/71/51 67/72/51 65/66/51 68/65/51
f 74/73/52 71/74/52 72/75/52 75/76/52
f 75/76/53 72/75/53 73/77/53 76/78/53
f 76/79/54 73/80/54 71/74/54 74/73/54
f 80/81/55 77/82/55 78/83/55 81/84/55
f 81/84/56 78/83/56 79/85/56 82/86/56
f 82/87/57 79/88/57 77/82/57 80/81/57
f 86/89/58 83/90/58 84/91/58 87/92/58
f 87/92/59 84/91/59 85/93/59 88/94/59
f 88/95/60 85/96/60 83/90/60 86/89/60
