# Blender v2.78 (sub 0) OBJ File: 'Low_Poly_Vegetation_Pack.blend'
# www.blender.org
g Plant_f_TwoS_01
v -0.091237 0.317323 -0.081240
v 0.036171 0.317537 -0.115967
v -0.064529 0.388446 -0.166675
v -0.028536 0.388090 -0.175693
v -0.063373 0.432354 -0.201993
v -0.065527 0.265251 -0.015448
v 0.047565 0.265442 -0.046273
v -0.029357 0.309391 -0.105347
v -0.044018 0.367245 -0.158779
v -0.004848 0.244774 -0.015827
v -0.091302 0.317173 -0.081355
v 0.036169 0.317387 -0.116099
v -0.064596 0.388323 -0.166818
v -0.028552 0.387968 -0.175851
v -0.063415 0.432237 -0.202150
v -0.065584 0.265090 -0.015551
v 0.047563 0.265281 -0.046391
v -0.029392 0.309241 -0.105475
v -0.044058 0.367113 -0.158924
v -0.004878 0.244611 -0.015938
v -0.007390 0.000000 -0.001949
v -0.008797 0.252529 -0.027226
v 0.005742 0.000000 -0.005523
v -0.000993 0.253767 -0.029447
v 0.002270 0.000000 0.007636
v -0.002580 0.246628 -0.019526
v -0.005006 0.130912 -0.005079
v 0.004768 0.131461 -0.007739
v 0.002184 0.126831 0.002055
vt 0.0773 0.6898
vt 0.0998 0.6884
vt 0.0859 0.7247
vt 0.0795 0.7164
vt 0.0837 0.7420
vt 0.0550 0.6920
vt 0.0550 0.6621
vt 0.0743 0.6526
vt 0.0949 0.6589
vt 0.0745 0.7257
vt 0.0773 0.6898
vt 0.0795 0.7164
vt 0.0859 0.7247
vt 0.0998 0.6884
vt 0.0837 0.7420
vt 0.0743 0.6526
vt 0.0550 0.6621
vt 0.0550 0.6920
vt 0.0949 0.6589
vt 0.0745 0.7257
vt 0.0549 0.6422
vt 0.0998 0.6422
vt 0.0998 0.6474
vt 0.0549 0.6474
vt 0.0998 0.6526
vt 0.0549 0.6526
vt 0.0549 0.6370
vt 0.0998 0.6370
vt 0.0101 0.6370
vt 0.0101 0.6422
vt 0.0101 0.6474
vt 0.0101 0.6526
vn 0.0150 0.6663 0.7456
vn 0.1152 0.5729 0.8115
vn 0.2898 0.8078 0.5132
vn 0.0082 0.8074 0.5900
vn 0.3637 0.6666 0.6507
vn 0.3224 0.5881 0.7417
vn -0.0150 -0.6663 -0.7455
vn -0.1153 -0.5729 -0.8115
vn -0.2898 -0.8078 -0.5133
vn -0.0082 -0.8074 -0.5900
vn -0.3637 -0.6666 -0.6507
vn -0.3223 -0.5881 -0.7418
vn -0.2460 -0.1808 -0.9523
vn 0.9627 0.0876 0.2560
vn -0.7027 0.1026 0.7041
vn -0.7003 0.0303 0.7132
vn 0.9663 0.0117 0.2573
vn -0.2621 -0.0182 -0.9649
s off
f 8/1/1 2/2/1 4/3/1 9/4/1
f 9/4/2 4/3/2 5/5/2
f 8/1/3 1/6/3 6/7/3 10/8/3
f 2/2/4 8/1/4 10/8/4 7/9/4
f 1/6/5 8/1/5 9/4/5 3/10/5
f 3/10/6 9/4/6 5/5/6
f 18/11/7 19/12/7 14/13/7 12/14/7
f 19/12/8 15/15/8 14/13/8
f 18/11/9 20/16/9 16/17/9 11/18/9
f 12/14/10 17/19/10 20/16/10 18/11/10
f 11/18/11 13/20/11 19/12/11 18/11/11
f 13/20/12 15/15/12 19/12/12
f 27/21/13 22/22/13 24/23/13 28/24/13
f 28/24/14 24/23/14 26/25/14 29/26/14
f 29/27/15 26/28/15 22/22/15 27/21/15
f 25/29/16 29/27/16 27/21/16 21/30/16
f 23/31/17 28/24/17 29/26/17 25/32/17
f 21/30/18 27/21/18 28/24/18 23/31/18
