# Blender v2.78 (sub 0) OBJ File: 'Low_Poly_Vegetation_Pack.blend'
# www.blender.org
g Plant_b_TwoS_03
v 0.029900 -0.000000 0.004726
v 0.246406 0.209483 -0.143240
v 0.108739 0.182949 -0.111843
v 0.035817 0.098540 -0.060577
v 0.080465 0.106430 0.015924
v 0.153388 0.190840 -0.035342
v -0.054350 -0.000000 0.018904
v -0.321087 0.245328 -0.237403
v -0.221489 0.237221 -0.075795
v -0.130878 0.136449 0.013612
v -0.055763 0.124415 -0.076078
v -0.146374 0.225187 -0.165485
v 0.000000 -0.000000 -0.000000
v 0.004786 0.301266 -0.434070
v -0.075185 0.276059 -0.224001
v -0.075606 0.152865 -0.075086
v 0.063929 0.161452 -0.067588
v 0.064350 0.284647 -0.216502
v 0.030065 -0.000069 0.004637
v 0.246443 0.209286 -0.143241
v 0.108830 0.182774 -0.111878
v 0.035963 0.098425 -0.060650
v 0.080612 0.106315 0.015851
v 0.153478 0.190665 -0.035377
v -0.054495 -0.000085 0.018795
v -0.321112 0.245129 -0.237398
v -0.221562 0.237038 -0.075832
v -0.131004 0.136320 0.013524
v -0.055888 0.124287 -0.076166
v -0.146447 0.225005 -0.165522
v 0.000015 -0.000082 -0.000182
v 0.004799 0.301068 -0.434088
v -0.075170 0.275877 -0.224083
v -0.075590 0.152739 -0.075241
v 0.063945 0.161326 -0.067742
v 0.064365 0.284465 -0.216585
vt 0.4282 0.8264
vt 0.4541 0.8264
vt 0.4411 0.8661
vt 0.4411 0.7589
vt 0.4541 0.7908
vt 0.4282 0.7908
vt 0.3010 0.8264
vt 0.3268 0.8264
vt 0.3139 0.8661
vt 0.3139 0.7589
vt 0.3268 0.7908
vt 0.3010 0.7908
vt 0.3010 0.8264
vt 0.3268 0.8264
vt 0.3139 0.8661
vt 0.3139 0.7589
vt 0.3268 0.7908
vt 0.3010 0.7908
vt 0.4282 0.8264
vt 0.4411 0.8661
vt 0.4541 0.8264
vt 0.4411 0.7589
vt 0.4282 0.7908
vt 0.4541 0.7908
vt 0.3010 0.8264
vt 0.3139 0.8661
vt 0.3268 0.8264
vt 0.3139 0.7589
vt 0.3010 0.7908
vt 0.3268 0.7908
vt 0.3010 0.8264
vt 0.3139 0.8661
vt 0.3268 0.8264
vt 0.3139 0.7589
vt 0.3010 0.7908
vt 0.3268 0.7908
vn -0.1875 0.9822 0.0081
vn -0.8256 0.3453 0.4462
vn -0.6285 0.7207 0.2925
vn 0.1257 0.9917 -0.0277
vn 0.7210 0.4256 0.5468
vn 0.5297 0.7774 0.3393
vn -0.0662 0.9934 0.0940
vn -0.0741 0.4099 0.9091
vn -0.0814 0.7681 0.6352
vn 0.1874 -0.9823 -0.0081
vn 0.8256 -0.3452 -0.4463
vn 0.6286 -0.7207 -0.2925
vn -0.1257 -0.9917 0.0278
vn -0.7211 -0.4256 -0.5468
vn -0.5297 -0.7773 -0.3393
vn 0.0662 -0.9934 -0.0940
vn 0.0741 -0.4099 -0.9091
vn 0.0814 -0.7681 -0.6352
s off
f 3/1/1 6/2/1 2/3/1
f 1/4/2 5/5/2 4/6/2
f 4/6/3 5/5/3 6/2/3 3/1/3
f 9/7/4 12/8/4 8/9/4
f 7/10/5 11/11/5 10/12/5
f 10/12/6 11/11/6 12/8/6 9/7/6
f 15/13/7 18/14/7 14/15/7
f 13/16/8 17/17/8 16/18/8
f 16/18/9 17/17/9 18/14/9 15/13/9
f 21/19/10 20/20/10 24/21/10
f 19/22/11 22/23/11 23/24/11
f 22/23/12 21/19/12 24/21/12 23/24/12
f 27/25/13 26/26/13 30/27/13
f 25/28/14 28/29/14 29/30/14
f 28/29/15 27/25/15 30/27/15 29/30/15
f 33/31/16 32/32/16 36/33/16
f 31/34/17 34/35/17 35/36/17
f 34/35/18 33/31/18 36/33/18 35/36/18
