# Blender v2.78 (sub 0) OBJ File: 'Low_Poly_Vegetation_Pack.blend'
# www.blender.org
g Plant_k_TwoS_03
v 0.001490 -0.001430 0.000356
v 0.110998 0.122301 -0.012598
v 0.092734 0.120724 0.046721
v 0.144228 0.127487 0.030264
v 0.046460 0.059784 -0.032633
v 0.028450 0.060851 0.046182
v 0.040963 0.058199 0.006973
v 0.106292 0.115463 0.017689
v 0.000664 -0.002007 0.001547
v 0.094308 0.119183 0.121392
v 0.022987 0.119183 0.151992
v 0.079710 0.135864 0.185784
v 0.070614 0.059146 0.036419
v -0.022265 0.059146 0.076269
v 0.026461 0.053574 0.061674
v 0.061560 0.111316 0.143481
v -0.001507 -0.001430 -0.000275
v -0.110153 0.122301 0.018590
v -0.095128 0.120724 -0.041631
v -0.145655 0.127487 -0.022409
v -0.044624 0.059784 0.035101
v -0.030909 0.060851 -0.044573
v -0.041281 0.058199 -0.004745
v -0.107094 0.115464 -0.011907
v -0.000747 -0.002007 -0.001509
v -0.100743 0.119183 -0.116106
v -0.031184 0.119183 -0.150524
v -0.089654 0.135864 -0.181195
v -0.072482 0.059146 -0.032542
v 0.018102 0.059146 -0.077362
v -0.029762 0.053574 -0.060150
v -0.069240 0.111316 -0.139937
v 0.001651 -0.001542 0.000395
v 0.111112 0.122136 -0.012608
v 0.092833 0.120562 0.046783
v 0.144284 0.127295 0.030276
v 0.046609 0.059651 -0.032624
v 0.028589 0.060721 0.046243
v 0.041111 0.058068 0.007009
v 0.106388 0.115290 0.017711
v 0.000715 -0.002160 0.001666
v 0.094390 0.119018 0.121470
v 0.022987 0.119018 0.152105
v 0.079747 0.135688 0.185871
v 0.070694 0.058989 0.036513
v -0.022252 0.058989 0.076392
v 0.026509 0.053414 0.061785
v 0.061601 0.111145 0.143576
v -0.001670 -0.001542 -0.000305
v -0.110266 0.122136 0.018606
v -0.095230 0.120562 -0.041687
v -0.145712 0.127295 -0.022418
v -0.044774 0.059651 0.035100
v -0.031051 0.060721 -0.044627
v -0.041430 0.058068 -0.004773
v -0.107191 0.115290 -0.011924
v -0.000804 -0.002160 -0.001625
v -0.100829 0.119018 -0.116180
v -0.031190 0.119018 -0.150637
v -0.089696 0.135688 -0.181279
v -0.072568 0.058989 -0.032631
v 0.018083 0.058989 -0.077485
v -0.029816 0.053414 -0.060259
v -0.069286 0.111145 -0.140030
vt 0.3004 0.8403
vt 0.3152 0.8400
vt 0.3004 0.8598
vt 0.2855 0.8400
vt 0.3004 0.7670
vt 0.3197 0.7996
vt 0.3004 0.7999
vt 0.2810 0.7996
vt 0.4376 0.8403
vt 0.4525 0.8400
vt 0.4376 0.8598
vt 0.4227 0.8400
vt 0.4376 0.7670
vt 0.4570 0.7996
vt 0.4376 0.7999
vt 0.4182 0.7996
vt 0.3004 0.8403
vt 0.3152 0.8400
vt 0.3004 0.8598
vt 0.2855 0.8400
vt 0.3004 0.7670
vt 0.3197 0.7996
vt 0.3004 0.7999
vt 0.2810 0.7996
vt 0.3004 0.8403
vt 0.3152 0.8400
vt 0.3004 0.8598
vt 0.2855 0.8400
vt 0.3004 0.7670
vt 0.3197 0.7996
vt 0.3004 0.7999
vt 0.2810 0.7996
vt 0.3004 0.8403
vt 0.3004 0.8598
vt 0.3152 0.8400
vt 0.2855 0.8400
vt 0.3004 0.7670
vt 0.3004 0.7999
vt 0.3197 0.7996
vt 0.2810 0.7996
vt 0.4376 0.8403
vt 0.4376 0.8598
vt 0.4525 0.8400
vt 0.4227 0.8400
vt 0.4376 0.7670
vt 0.4376 0.7999
vt 0.4570 0.7996
vt 0.4182 0.7996
vt 0.3004 0.8403
vt 0.3004 0.8598
vt 0.3152 0.8400
vt 0.2855 0.8400
vt 0.3004 0.7670
vt 0.3004 0.7999
vt 0.3197 0.7996
vt 0.2810 0.7996
vt 0.3004 0.8403
vt 0.3004 0.8598
vt 0.3152 0.8400
vt 0.2855 0.8400
vt 0.3004 0.7670
vt 0.3004 0.7999
vt 0.3197 0.7996
vt 0.2810 0.7996
vn -0.2092 0.9404 -0.2681
vn -0.3449 0.9257 0.1554
vn -0.7837 0.5507 -0.2874
vn -0.6198 0.7166 -0.3199
vn -0.6767 0.7362 -0.0101
vn -0.8255 0.5567 -0.0923
vn 0.0591 0.8522 -0.5199
vn -0.4175 0.8522 -0.3154
vn -0.1084 0.7527 -0.6493
vn -0.0313 0.8081 -0.5882
vn -0.4047 0.8081 -0.4280
vn -0.3959 0.7527 -0.5260
vn 0.2234 0.9404 0.2564
vn 0.3360 0.9257 -0.1738
vn 0.7981 0.5507 0.2445
vn 0.6362 0.7166 0.2859
vn 0.6762 0.7362 -0.0266
vn 0.8293 0.5567 0.0474
vn -0.0308 0.8522 0.5223
vn 0.4339 0.8522 0.2923
vn 0.1434 0.7527 0.6425
vn 0.0631 0.8081 0.5857
vn 0.4273 0.8081 0.4055
vn 0.4238 0.7527 0.5038
vn 0.2091 -0.9405 0.2680
vn 0.3448 -0.9257 -0.1553
vn 0.7837 -0.5507 0.2874
vn 0.6199 -0.7166 0.3198
vn 0.6767 -0.7362 0.0102
vn 0.8256 -0.5567 0.0923
vn -0.0589 -0.8522 0.5198
vn 0.4173 -0.8522 0.3155
vn 0.1085 -0.7527 0.6493
vn 0.0314 -0.8081 0.5882
vn 0.4046 -0.8081 0.4280
vn 0.3958 -0.7527 0.5260
vn -0.2233 -0.9405 -0.2563
vn -0.3359 -0.9257 0.1738
vn -0.7981 -0.5507 -0.2445
vn -0.6363 -0.7166 -0.2857
vn -0.6762 -0.7362 0.0265
vn -0.8293 -0.5567 -0.0475
vn 0.0307 -0.8522 -0.5223
vn -0.4338 -0.8522 -0.2924
vn -0.1435 -0.7527 -0.6425
vn -0.0632 -0.8081 -0.5856
vn -0.4272 -0.8081 -0.4055
vn -0.4237 -0.7527 -0.5038
s off
f 8/1/1 3/2/1 4/3/1
f 2/4/2 8/1/2 4/3/2
f 1/5/3 6/6/3 7/7/3
f 7/7/4 6/6/4 3/2/4 8/1/4
f 5/8/5 7/7/5 8/1/5 2/4/5
f 5/8/6 1/5/6 7/7/6
f 16/9/7 11/10/7 12/11/7
f 10/12/8 16/9/8 12/11/8
f 9/13/9 14/14/9 15/15/9
f 15/15/10 14/14/10 11/10/10 16/9/10
f 13/16/11 15/15/11 16/9/11 10/12/11
f 13/16/12 9/13/12 15/15/12
f 24/17/13 19/18/13 20/19/13
f 18/20/14 24/17/14 20/19/14
f 17/21/15 22/22/15 23/23/15
f 23/23/16 22/22/16 19/18/16 24/17/16
f 21/24/17 23/23/17 24/17/17 18/20/17
f 21/24/18 17/21/18 23/23/18
f 32/25/19 27/26/19 28/27/19
f 26/28/20 32/25/20 28/27/20
f 25/29/21 30/30/21 31/31/21
f 31/31/22 30/30/22 27/26/22 32/25/22
f 29/32/23 31/31/23 32/25/23 26/28/23
f 29/32/24 25/29/24 31/31/24
f 40/33/25 36/34/25 35/35/25
f 34/36/26 36/34/26 40/33/26
f 33/37/27 39/38/27 38/39/27
f 39/38/28 40/33/28 35/35/28 38/39/28
f 37/40/29 34/36/29 40/33/29 39/38/29
f 37/40/30 39/38/30 33/37/30
f 48/41/31 44/42/31 43/43/31
f 42/44/32 44/42/32 48/41/32
f 41/45/33 47/46/33 46/47/33
f 47/46/34 48/41/34 43/43/34 46/47/34
f 45/48/35 42/44/35 48/41/35 47/46/35
f 45/48/36 47/46/36 41/45/36
f 56/49/37 52/50/37 51/51/37
f 50/52/38 52/50/38 56/49/38
f 49/53/39 55/54/39 54/55/39
f 55/54/40 56/49/40 51/51/40 54/55/40
f 53/56/41 50/52/41 56/49/41 55/54/41
f 53/56/42 55/54/42 49/53/42
f 64/57/43 60/58/43 59/59/43
f 58/60/44 60/58/44 64/57/44
f 57/61/45 63/62/45 62/63/45
f 63/62/46 64/57/46 59/59/46 62/63/46
f 61/64/47 58/60/47 64/57/47 63/62/47
f 61/64/48 63/62/48 57/61/48
