# Blender v2.78 (sub 0) OBJ File: 'Low_Poly_Vegetation_Pack.blend'
# www.blender.org
g Plant_j_TwoS_08
v -0.024838 0.081415 0.012287
v -0.101273 0.157781 0.049724
v -0.109624 0.157781 0.004861
v -0.135688 0.169475 0.032921
v -0.051664 0.119431 0.047505
v -0.062540 0.119431 -0.010919
v -0.060644 0.116367 0.018952
v -0.109987 0.153428 0.028137
v -0.025717 0.116307 -0.030081
v -0.104366 0.225402 -0.122804
v -0.045165 0.225402 -0.150102
v -0.093166 0.242107 -0.176356
v -0.083896 0.170615 -0.054881
v -0.006801 0.170615 -0.090430
v -0.047503 0.166238 -0.077329
v -0.077527 0.219182 -0.142441
v 0.022331 0.101582 -0.026378
v 0.091239 0.196864 -0.107178
v 0.123071 0.196864 -0.059970
v 0.138975 0.211454 -0.105030
v 0.035555 0.149014 -0.080009
v 0.077008 0.149014 -0.018532
v 0.060009 0.145191 -0.051784
v 0.111930 0.191432 -0.086794
v -0.024974 0.081271 0.012312
v -0.101377 0.157623 0.049789
v -0.109744 0.157623 0.004838
v -0.135791 0.169305 0.032941
v -0.051783 0.119281 0.047564
v -0.062672 0.119281 -0.010932
v -0.060772 0.116215 0.018976
v -0.110098 0.153263 0.028158
v -0.025775 0.116163 -0.030206
v -0.104454 0.225244 -0.122888
v -0.045173 0.225244 -0.150224
v -0.093210 0.241937 -0.176452
v -0.083983 0.170466 -0.054982
v -0.006821 0.170466 -0.090561
v -0.047558 0.166087 -0.077448
v -0.077575 0.219018 -0.142544
v 0.022446 0.101437 -0.026456
v 0.091308 0.196706 -0.107279
v 0.123190 0.196706 -0.059997
v 0.139062 0.211284 -0.105089
v 0.035640 0.148864 -0.080111
v 0.077135 0.148864 -0.018573
v 0.060117 0.145040 -0.051857
v 0.112025 0.191267 -0.086858
v -0.026071 0.082475 0.011604
v -0.024878 0.081335 0.012279
v -0.025521 0.082349 0.013198
v -0.002861 -0.000035 0.000422
v 0.000371 -0.000035 -0.002554
v 0.001260 -0.000035 0.001942
v -0.025213 0.117821 -0.032036
v -0.025729 0.116193 -0.030146
v -0.027227 0.117641 -0.030715
v -0.001587 -0.000051 -0.003815
v 0.003666 -0.000051 -0.000382
v -0.002248 -0.000051 0.002426
v 0.024083 0.102904 -0.026226
v 0.022381 0.101482 -0.026406
v 0.022662 0.102747 -0.027777
v 0.003066 -0.000044 -0.001903
v 0.000843 -0.000044 0.003107
v -0.002406 -0.000044 -0.001598
vt 0.3371 0.7141
vt 0.3526 0.7138
vt 0.3371 0.7344
vt 0.3217 0.7138
vt 0.3371 0.6379
vt 0.3573 0.6718
vt 0.3371 0.6721
vt 0.3170 0.6718
vt 0.4580 0.7141
vt 0.4734 0.7138
vt 0.4580 0.7344
vt 0.4425 0.7138
vt 0.4580 0.6379
vt 0.4781 0.6718
vt 0.4580 0.6721
vt 0.4379 0.6718
vt 0.4598 0.7141
vt 0.4753 0.7138
vt 0.4598 0.7344
vt 0.4444 0.7138
vt 0.4598 0.6379
vt 0.4800 0.6718
vt 0.4598 0.6721
vt 0.4397 0.6718
vt 0.3371 0.7141
vt 0.3371 0.7344
vt 0.3526 0.7138
vt 0.3217 0.7138
vt 0.3371 0.6379
vt 0.3371 0.6721
vt 0.3573 0.6718
vt 0.3170 0.6718
vt 0.4580 0.7141
vt 0.4580 0.7344
vt 0.4734 0.7138
vt 0.4425 0.7138
vt 0.4580 0.6379
vt 0.4580 0.6721
vt 0.4781 0.6718
vt 0.4379 0.6718
vt 0.4598 0.7141
vt 0.4598 0.7344
vt 0.4753 0.7138
vt 0.4444 0.7138
vt 0.4598 0.6379
vt 0.4598 0.6721
vt 0.4800 0.6718
vt 0.4397 0.6718
vt 0.2990 0.6354
vt 0.2990 0.7360
vt 0.2874 0.7360
vt 0.2874 0.6354
vt 0.2758 0.7360
vt 0.2758 0.6354
vt 0.3107 0.6354
vt 0.3107 0.7360
vt 0.4199 0.6354
vt 0.4199 0.7360
vt 0.4083 0.7360
vt 0.4083 0.6354
vt 0.3967 0.7360
vt 0.3967 0.6354
vt 0.4315 0.6354
vt 0.4315 0.7360
vt 0.4217 0.6354
vt 0.4217 0.7360
vt 0.4101 0.7360
vt 0.4101 0.6354
vt 0.3985 0.7360
vt 0.3985 0.6354
vt 0.4333 0.6354
vt 0.4333 0.7360
vn 0.5442 0.8231 0.1624
vn 0.4493 0.8231 -0.3474
vn 0.7010 0.7126 0.0286
vn 0.6279 0.7731 0.0898
vn 0.5535 0.7731 -0.3097
vn 0.6437 0.7126 -0.2789
vn -0.0239 0.8231 0.5674
vn 0.4470 0.8231 0.3502
vn 0.1443 0.7126 0.6865
vn 0.0671 0.7731 0.6307
vn 0.4361 0.7731 0.4605
vn 0.4284 0.7126 0.5556
vn -0.5639 0.8231 0.0675
vn -0.2740 0.8231 0.4974
vn -0.6545 0.7126 0.2527
vn -0.6118 0.7731 0.1675
vn -0.3846 0.7731 0.5044
vn -0.4796 0.7126 0.5120
vn -0.5441 -0.8232 -0.1622
vn -0.4493 -0.8232 0.3471
vn -0.7010 -0.7126 -0.0285
vn -0.6279 -0.7732 -0.0896
vn -0.5535 -0.7732 0.3095
vn -0.6437 -0.7126 0.2788
vn 0.0237 -0.8231 -0.5673
vn -0.4469 -0.8231 -0.3503
vn -0.1444 -0.7126 -0.6865
vn -0.0672 -0.7731 -0.6307
vn -0.4360 -0.7731 -0.4606
vn -0.4283 -0.7126 -0.5556
vn 0.5638 -0.8232 -0.0677
vn 0.2741 -0.8232 -0.4973
vn 0.6544 -0.7126 -0.2527
vn 0.6117 -0.7731 -0.1676
vn 0.3847 -0.7731 -0.5043
vn 0.4796 -0.7126 -0.5120
vn -0.4603 0.0048 -0.8878
vn 0.9433 0.3159 -0.1019
vn -0.5389 -0.2719 0.7973
vn 0.7476 0.0048 -0.6641
vn 0.3304 0.3159 0.8894
vn -0.9052 -0.2719 -0.3267
vn 0.7755 0.0048 0.6313
vn -0.8248 0.3159 0.4688
vn 0.1772 -0.2719 -0.9459
s off
f 8/1/1 3/2/1 4/3/1
f 2/4/2 8/1/2 4/3/2
f 1/5/3 6/6/3 7/7/3
f 7/7/4 6/6/4 3/2/4 8/1/4
f 5/8/5 7/7/5 8/1/5 2/4/5
f 5/8/6 1/5/6 7/7/6
f 16/9/7 11/10/7 12/11/7
f 10/12/8 16/9/8 12/11/8
f 9/13/9 14/14/9 15/15/9
f 15/15/10 14/14/10 11/10/10 16/9/10
f 13/16/11 15/15/11 16/9/11 10/12/11
f 13/16/12 9/13/12 15/15/12
f 24/17/13 19/18/13 20/19/13
f 18/20/14 24/17/14 20/19/14
f 17/21/15 22/22/15 23/23/15
f 23/23/16 22/22/16 19/18/16 24/17/16
f 21/24/17 23/23/17 24/17/17 18/20/17
f 21/24/18 17/21/18 23/23/18
f 32/25/19 28/26/19 27/27/19
f 26/28/20 28/26/20 32/25/20
f 25/29/21 31/30/21 30/31/21
f 31/30/22 32/25/22 27/27/22 30/31/22
f 29/32/23 26/28/23 32/25/23 31/30/23
f 29/32/24 31/30/24 25/29/24
f 40/33/25 36/34/25 35/35/25
f 34/36/26 36/34/26 40/33/26
f 33/37/27 39/38/27 38/39/27
f 39/38/28 40/33/28 35/35/28 38/39/28
f 37/40/29 34/36/29 40/33/29 39/38/29
f 37/40/30 39/38/30 33/37/30
f 48/41/31 44/42/31 43/43/31
f 42/44/32 44/42/32 48/41/32
f 41/45/33 47/46/33 46/47/33
f 47/46/34 48/41/34 43/43/34 46/47/34
f 45/48/35 42/44/35 48/41/35 47/46/35
f 45/48/36 47/46/36 41/45/36
f 52/49/37 49/50/37 50/51/37 53/52/37
f 53/52/38 50/51/38 51/53/38 54/54/38
f 54/55/39 51/56/39 49/50/39 52/49/39
f 58/57/40 55/58/40 56/59/40 59/60/40
f 59/60/41 56/59/41 57/61/41 60/62/41
f 60/63/42 57/64/42 55/58/42 58/57/42
f 64/65/43 61/66/43 62/67/43 65/68/43
f 65/68/44 62/67/44 63/69/44 66/70/44
f 66/71/45 63/72/45 61/66/45 64/65/45
