# Blender v2.78 (sub 0) OBJ File: 'Low_Poly_Vegetation_Pack.blend'
# www.blender.org
g Plant_g_TwoS_03
v 0.034222 0.173886 -0.040027
v 0.042693 0.174178 -0.032295
v 0.141279 0.452306 -0.153863
v 0.069694 0.363164 -0.130243
v 0.029160 0.259712 -0.093466
v 0.098137 0.262089 -0.030505
v 0.125859 0.365099 -0.078977
v 0.005948 -0.000136 -0.003054
v 0.011448 -0.000015 0.001951
v 0.015479 0.088886 -0.016380
v 0.022202 0.089076 -0.010245
v -0.009803 0.208192 -0.056317
v 0.003929 0.208541 -0.056441
v -0.008709 0.541541 -0.243413
v -0.052233 0.434812 -0.164347
v -0.057802 0.310950 -0.099055
v 0.054010 0.313796 -0.100066
v 0.038810 0.437129 -0.165171
v -0.004459 -0.000163 -0.000846
v 0.004443 -0.000018 -0.000940
v -0.006964 0.106423 -0.020302
v 0.003934 0.106650 -0.020402
v -0.051302 0.148144 -0.022323
v -0.044229 0.148932 -0.029202
v -0.145268 0.373032 -0.104399
v -0.138785 0.290669 -0.058516
v -0.111026 0.219017 -0.028840
v -0.053478 0.225434 -0.084903
v -0.091927 0.295894 -0.104165
v -0.010507 -0.000284 0.001507
v -0.006603 0.000108 -0.002296
v 0.034349 0.173814 -0.040164
v 0.042820 0.174106 -0.032431
v 0.141389 0.452187 -0.153980
v 0.069811 0.363059 -0.130367
v 0.029283 0.259626 -0.093598
v 0.098260 0.262003 -0.030637
v 0.125976 0.364994 -0.079101
v 0.006081 -0.000172 -0.003199
v 0.011581 -0.000051 0.001806
v 0.015610 0.088835 -0.016522
v 0.022333 0.089025 -0.010387
v -0.009803 0.208120 -0.056503
v 0.003929 0.208469 -0.056627
v -0.008708 0.541421 -0.243573
v -0.052232 0.434707 -0.164518
v -0.057801 0.310864 -0.099235
v 0.054011 0.313710 -0.100246
v 0.038811 0.437024 -0.165341
v -0.004461 -0.000199 -0.001043
v 0.004442 -0.000054 -0.001137
v -0.006965 0.106371 -0.020495
v 0.003933 0.106599 -0.020595
v -0.051423 0.148059 -0.022457
v -0.044350 0.148846 -0.029336
v -0.145390 0.372948 -0.104533
v -0.138904 0.290576 -0.058648
v -0.111140 0.218915 -0.028969
v -0.053592 0.225332 -0.085031
v -0.092045 0.295802 -0.104297
v -0.010637 -0.000343 0.001367
v -0.006733 0.000049 -0.002436
vt 0.0602 0.8604
vt 0.0531 0.8398
vt 0.0673 0.8399
vt 0.0611 0.8004
vt 0.0590 0.8004
vt 0.0591 0.7793
vt 0.0609 0.7793
vt 0.0592 0.7588
vt 0.0606 0.7588
vt 0.0693 0.8181
vt 0.0518 0.8179
vt 0.1888 0.8604
vt 0.1817 0.8398
vt 0.1959 0.8399
vt 0.1897 0.8004
vt 0.1876 0.8004
vt 0.1877 0.7793
vt 0.1895 0.7793
vt 0.1878 0.7588
vt 0.1892 0.7588
vt 0.1979 0.8181
vt 0.1804 0.8179
vt 0.0590 0.8604
vt 0.0509 0.8386
vt 0.0670 0.8388
vt 0.0600 0.7971
vt 0.0576 0.7971
vt 0.0581 0.7588
vt 0.0594 0.7588
vt 0.0693 0.8186
vt 0.0494 0.8184
vt 0.0602 0.8604
vt 0.0673 0.8399
vt 0.0531 0.8398
vt 0.0611 0.8004
vt 0.0609 0.7793
vt 0.0591 0.7793
vt 0.0590 0.8004
vt 0.0606 0.7588
vt 0.0592 0.7588
vt 0.0518 0.8179
vt 0.0693 0.8181
vt 0.1888 0.8604
vt 0.1959 0.8399
vt 0.1817 0.8398
vt 0.1897 0.8004
vt 0.1895 0.7793
vt 0.1877 0.7793
vt 0.1876 0.8004
vt 0.1892 0.7588
vt 0.1878 0.7588
vt 0.1804 0.8179
vt 0.1979 0.8181
vt 0.0590 0.8604
vt 0.0670 0.8388
vt 0.0509 0.8386
vt 0.0600 0.7971
vt 0.0594 0.7588
vt 0.0581 0.7588
vt 0.0576 0.7971
vt 0.0494 0.8184
vt 0.0693 0.8186
vn -0.5518 0.5973 0.5820
vn -0.6413 0.3335 0.6910
vn -0.6652 0.1796 0.7248
vn -0.6298 0.3835 0.6755
vn -0.6050 0.4665 0.6452
vn -0.0080 0.5973 0.8020
vn 0.0007 0.3335 0.9427
vn 0.0062 0.1796 0.9837
vn -0.0014 0.3835 0.9236
vn -0.0039 0.4665 0.8845
vn 0.6079 0.4224 0.6723
vn 0.6509 0.2914 0.7010
vn 0.5603 0.5307 0.6360
vn 0.5782 0.4932 0.6500
vn 0.5518 -0.5973 -0.5820
vn 0.6413 -0.3336 -0.6910
vn 0.6652 -0.1796 -0.7248
vn 0.6298 -0.3835 -0.6755
vn 0.6050 -0.4665 -0.6452
vn 0.0080 -0.5973 -0.8020
vn -0.0007 -0.3336 -0.9427
vn -0.0062 -0.1796 -0.9837
vn 0.0014 -0.3835 -0.9236
vn 0.0039 -0.4665 -0.8845
vn -0.6079 -0.4224 -0.6723
vn -0.6509 -0.2914 -0.7010
vn -0.5603 -0.5307 -0.6360
vn -0.5782 -0.4932 -0.6500
s off
f 3/1/1 4/2/1 7/3/1
f 2/4/2 1/5/2 10/6/2 11/7/2
f 11/7/3 10/6/3 8/8/3 9/9/3
f 1/5/4 2/4/4 6/10/4 5/11/4
f 4/2/5 5/11/5 6/10/5 7/3/5
f 14/12/6 15/13/6 18/14/6
f 13/15/7 12/16/7 21/17/7 22/18/7
f 22/18/8 21/17/8 19/19/8 20/20/8
f 12/16/9 13/15/9 17/21/9 16/22/9
f 15/13/10 16/22/10 17/21/10 18/14/10
f 25/23/11 26/24/11 29/25/11
f 24/26/12 23/27/12 30/28/12 31/29/12
f 23/27/13 24/26/13 28/30/13 27/31/13
f 26/24/14 27/31/14 28/30/14 29/25/14
f 34/32/15 38/33/15 35/34/15
f 33/35/16 42/36/16 41/37/16 32/38/16
f 42/36/17 40/39/17 39/40/17 41/37/17
f 32/38/18 36/41/18 37/42/18 33/35/18
f 35/34/19 38/33/19 37/42/19 36/41/19
f 45/43/20 49/44/20 46/45/20
f 44/46/21 53/47/21 52/48/21 43/49/21
f 53/47/22 51/50/22 50/51/22 52/48/22
f 43/49/23 47/52/23 48/53/23 44/46/23
f 46/45/24 49/44/24 48/53/24 47/52/24
f 56/54/25 60/55/25 57/56/25
f 55/57/26 62/58/26 61/59/26 54/60/26
f 54/60/27 58/61/27 59/62/27 55/57/27
f 57/56/28 60/55/28 59/62/28 58/61/28
