# Blender v2.78 (sub 0) OBJ File: 'Low_Poly_Vegetation_Pack.blend'
# www.blender.org
g Plant_j_TwoS_04
v -0.026809 0.272170 0.100074
v -0.070543 0.381142 0.273086
v -0.143201 0.384909 0.232225
v -0.134229 0.403858 0.304495
v -0.012197 0.327482 0.190145
v -0.106816 0.332388 0.136932
v -0.062462 0.323264 0.168180
v -0.110623 0.373708 0.258466
v 0.052568 0.280570 -0.053108
v 0.146821 0.412981 -0.166726
v 0.193958 0.417955 -0.101394
v 0.222962 0.426838 -0.178466
v 0.075542 0.347810 -0.127967
v 0.129335 0.347810 -0.037663
v 0.107913 0.342391 -0.086076
v 0.177356 0.407875 -0.138508
v 0.094929 0.217386 0.022904
v 0.219499 0.314573 0.052065
v 0.196326 0.305398 0.111140
v 0.249022 0.321298 0.099485
v 0.155799 0.270716 0.009751
v 0.125622 0.258769 0.086682
v 0.145192 0.259942 0.049229
v 0.213623 0.303243 0.082796
v -0.008508 0.258981 -0.068449
v -0.028144 0.383661 -0.206011
v 0.045735 0.383661 -0.196381
v 0.014473 0.411253 -0.249065
v -0.049687 0.321048 -0.127851
v 0.046523 0.321048 -0.115310
v -0.000822 0.316046 -0.127413
v 0.009770 0.376553 -0.208669
v -0.072384 0.323727 -0.046850
v -0.222936 0.476505 -0.126516
v -0.160259 0.482244 -0.195160
v -0.254148 0.492493 -0.209748
v -0.162352 0.401310 -0.055147
v -0.073040 0.401310 -0.137197
v -0.122670 0.395057 -0.101586
v -0.198264 0.470613 -0.167658
v -0.027114 0.271339 0.100539
v -0.070609 0.380277 0.273584
v -0.143660 0.384065 0.232502
v -0.134509 0.402996 0.304917
v -0.012312 0.326625 0.190647
v -0.107252 0.331547 0.137254
v -0.062746 0.322404 0.168605
v -0.110896 0.372834 0.258869
v 0.053163 0.279849 -0.053462
v 0.147135 0.412133 -0.167153
v 0.194531 0.417139 -0.101474
v 0.223239 0.425886 -0.178602
v 0.075991 0.347059 -0.128451
v 0.129987 0.347072 -0.037840
v 0.108480 0.341638 -0.086409
v 0.177768 0.406990 -0.138727
v 0.095535 0.216599 0.023020
v 0.220067 0.313762 0.051921
v 0.196734 0.304525 0.111406
v 0.249463 0.320401 0.099519
v 0.156418 0.269935 0.009673
v 0.126109 0.257935 0.086943
v 0.145760 0.259124 0.049325
v 0.214108 0.302370 0.082850
v -0.008419 0.258260 -0.069136
v -0.028289 0.382901 -0.206644
v 0.046038 0.382902 -0.196957
v 0.014555 0.410492 -0.249709
v -0.049787 0.320299 -0.128506
v 0.046787 0.320299 -0.115918
v -0.000738 0.315289 -0.128061
v 0.009852 0.375778 -0.209296
v -0.072852 0.323005 -0.047359
v -0.223418 0.475656 -0.126736
v -0.160454 0.481428 -0.195705
v -0.254337 0.491542 -0.209990
v -0.162917 0.400559 -0.055488
v -0.073346 0.400572 -0.137798
v -0.123112 0.394304 -0.102074
v -0.198562 0.469729 -0.168016
v -0.002467 0.000000 0.004163
v -0.029294 0.273797 0.101318
v -0.002372 0.000000 -0.004217
v -0.026851 0.272014 0.100101
v 0.004838 0.000000 0.000055
v -0.026406 0.273513 0.102381
v -0.015387 0.140011 0.046997
v -0.015498 0.141676 0.038965
v -0.008288 0.141676 0.043237
v 0.003992 0.000000 -0.002441
v 0.055033 0.282445 -0.052747
v 0.000115 0.000000 0.004678
v 0.052639 0.280428 -0.053136
v -0.004112 0.000000 -0.002239
v 0.053145 0.282222 -0.055055
v 0.023356 0.135431 -0.019988
v 0.019813 0.137041 -0.013073
v 0.015586 0.137041 -0.019991
v 0.001690 -0.000180 0.003306
v 0.095985 0.218500 0.024844
v -0.003609 0.000871 -0.000198
v 0.094974 0.217267 0.022912
v 0.001918 -0.000691 -0.003109
v 0.096496 0.218700 0.022534
v 0.000510 0.000000 -0.004290
v -0.006836 0.260712 -0.070032
v 0.003460 0.000000 0.002587
v -0.008485 0.258851 -0.068518
v -0.003970 0.000000 0.001703
v -0.009588 0.260506 -0.069980
v -0.003698 0.000000 -0.003934
v -0.072552 0.325890 -0.049722
v 0.005257 0.000000 -0.001233
v -0.072427 0.323563 -0.046926
v -0.001560 0.000000 0.005172
v -0.074714 0.325632 -0.047045
v -0.028083 0.156262 -0.021667
v -0.019438 0.158121 -0.019296
v -0.026254 0.158121 -0.012891
vt 0.3279 0.7138
vt 0.3438 0.7136
vt 0.3279 0.7348
vt 0.3119 0.7136
vt 0.3279 0.6352
vt 0.3487 0.6701
vt 0.3279 0.6705
vt 0.3071 0.6701
vt 0.4551 0.7160
vt 0.4710 0.7157
vt 0.4551 0.7370
vt 0.4391 0.7157
vt 0.4551 0.6373
vt 0.4759 0.6723
vt 0.4551 0.6727
vt 0.4343 0.6723
vt 0.3279 0.7138
vt 0.3438 0.7136
vt 0.3279 0.7348
vt 0.3119 0.7136
vt 0.3279 0.6352
vt 0.3487 0.6701
vt 0.3279 0.6705
vt 0.3071 0.6701
vt 0.3279 0.7138
vt 0.3438 0.7136
vt 0.3279 0.7348
vt 0.3119 0.7136
vt 0.3279 0.6352
vt 0.3487 0.6701
vt 0.3279 0.6705
vt 0.3071 0.6701
vt 0.4551 0.7160
vt 0.4710 0.7157
vt 0.4551 0.7370
vt 0.4391 0.7157
vt 0.4551 0.6373
vt 0.4759 0.6723
vt 0.4551 0.6727
vt 0.4343 0.6723
vt 0.3279 0.7138
vt 0.3279 0.7348
vt 0.3438 0.7136
vt 0.3119 0.7136
vt 0.3279 0.6352
vt 0.3279 0.6705
vt 0.3487 0.6701
vt 0.3071 0.6701
vt 0.4551 0.7160
vt 0.4551 0.7370
vt 0.4710 0.7157
vt 0.4391 0.7157
vt 0.4551 0.6373
vt 0.4551 0.6727
vt 0.4759 0.6723
vt 0.4343 0.6723
vt 0.3279 0.7138
vt 0.3279 0.7348
vt 0.3438 0.7136
vt 0.3119 0.7136
vt 0.3279 0.6352
vt 0.3279 0.6705
vt 0.3487 0.6701
vt 0.3071 0.6701
vt 0.3279 0.7138
vt 0.3279 0.7348
vt 0.3438 0.7136
vt 0.3119 0.7136
vt 0.3279 0.6352
vt 0.3279 0.6705
vt 0.3487 0.6701
vt 0.3071 0.6701
vt 0.4551 0.7160
vt 0.4551 0.7370
vt 0.4710 0.7157
vt 0.4391 0.7157
vt 0.4551 0.6373
vt 0.4551 0.6727
vt 0.4759 0.6723
vt 0.4343 0.6723
vt 0.2929 0.6853
vt 0.2929 0.7376
vt 0.2869 0.7376
vt 0.2869 0.6853
vt 0.2809 0.7376
vt 0.2809 0.6853
vt 0.2990 0.6853
vt 0.2990 0.7376
vt 0.2990 0.6330
vt 0.2929 0.6330
vt 0.2869 0.6330
vt 0.2809 0.6330
vt 0.4201 0.6875
vt 0.4201 0.7398
vt 0.4141 0.7398
vt 0.4141 0.6875
vt 0.4081 0.7398
vt 0.4081 0.6875
vt 0.4262 0.6875
vt 0.4262 0.7398
vt 0.4262 0.6352
vt 0.4201 0.6352
vt 0.4141 0.6352
vt 0.4081 0.6352
vt 0.2929 0.6330
vt 0.2929 0.7376
vt 0.2869 0.7376
vt 0.2869 0.6330
vt 0.2809 0.7376
vt 0.2809 0.6330
vt 0.2929 0.6330
vt 0.2929 0.7376
vt 0.2869 0.7376
vt 0.2869 0.6330
vt 0.2809 0.7376
vt 0.2809 0.6330
vt 0.4201 0.6875
vt 0.4201 0.7398
vt 0.4141 0.7398
vt 0.4141 0.6875
vt 0.4081 0.7398
vt 0.4081 0.6875
vt 0.4262 0.6875
vt 0.4262 0.7398
vt 0.4262 0.6352
vt 0.4201 0.6352
vt 0.4141 0.6352
vt 0.4081 0.6352
vt 0.2990 0.6330
vt 0.2990 0.7376
vt 0.2990 0.6330
vt 0.2990 0.7376
vn 0.5043 0.8178 -0.2771
vn 0.0380 0.8447 -0.5338
vn 0.4368 0.8143 -0.3822
vn 0.4340 0.8570 -0.2778
vn 0.0802 0.8754 -0.4768
vn 0.1644 0.8284 -0.5354
vn -0.4245 0.9037 -0.0556
vn -0.1247 0.9439 0.3057
vn -0.6676 0.7126 0.2156
vn -0.6379 0.7561 0.1466
vn -0.4076 0.7755 0.4821
vn -0.5075 0.7126 0.4844
vn -0.3326 0.9031 -0.2716
vn -0.5200 0.8289 0.2062
vn -0.5420 0.7998 -0.2581
vn -0.4445 0.8567 -0.2618
vn -0.5914 0.7985 0.1126
vn -0.6550 0.7550 0.0301
vn -0.3455 0.7314 0.5880
vn 0.1836 0.7350 0.6527
vn -0.2435 0.7126 0.6579
vn -0.2791 0.7731 0.5695
vn 0.1238 0.7731 0.6221
vn 0.0667 0.7126 0.6984
vn 0.0323 0.9037 0.4269
vn 0.3247 0.9439 0.0596
vn 0.3475 0.7126 0.6094
vn 0.2738 0.7561 0.5945
vn 0.5553 0.7755 0.3005
vn 0.5778 0.7126 0.3978
vn -0.5037 -0.8181 0.2775
vn -0.0388 -0.8449 0.5335
vn -0.4366 -0.8143 0.3824
vn -0.4336 -0.8571 0.2780
vn -0.0805 -0.8754 0.4766
vn -0.1646 -0.8284 0.5353
vn 0.4242 -0.9039 0.0554
vn 0.1247 -0.9441 -0.3052
vn 0.6675 -0.7127 -0.2158
vn 0.6377 -0.7561 -0.1471
vn 0.4080 -0.7755 -0.4817
vn 0.5076 -0.7126 -0.4842
vn 0.3330 -0.9032 0.2707
vn 0.5197 -0.8293 -0.2053
vn 0.5421 -0.7998 0.2579
vn 0.4447 -0.8567 0.2613
vn 0.5912 -0.7987 -0.1121
vn 0.6549 -0.7551 -0.0298
vn 0.3446 -0.7315 -0.5883
vn -0.1827 -0.7352 -0.6528
vn 0.2433 -0.7126 -0.6580
vn 0.2787 -0.7732 -0.5696
vn -0.1233 -0.7732 -0.6220
vn -0.0665 -0.7126 -0.6984
vn -0.0325 -0.9039 -0.4266
vn -0.3243 -0.9441 -0.0597
vn -0.3476 -0.7126 -0.6093
vn -0.2742 -0.7561 -0.5942
vn -0.5550 -0.7755 -0.3009
vn -0.5777 -0.7126 -0.3980
vn -0.9695 0.0142 -0.2446
vn 0.5501 0.3985 -0.7339
vn 0.2889 -0.3464 0.8925
vn 0.4872 -0.2135 0.8468
vn 0.4870 0.2956 -0.8219
vn -0.9959 -0.0896 -0.0081
vn 0.7395 0.0045 0.6731
vn -0.8494 0.3170 0.4220
vn 0.1883 -0.2642 -0.9459
vn -0.0251 -0.1249 -0.9919
vn -0.8383 0.1868 0.5122
vn 0.8791 -0.0648 0.4723
vn -0.6418 0.2088 0.7379
vn -0.4022 0.2759 -0.8730
vn 0.9881 -0.0039 -0.1540
vn -0.2107 0.2525 0.9444
vn 0.5078 0.0045 -0.8615
vn 0.5866 0.3170 0.7452
vn -0.9644 -0.2642 0.0089
vn -0.9658 -0.1249 0.2273
vn 0.6727 0.1868 0.7159
vn 0.2827 -0.0648 -0.9570
vn -0.6228 -0.2139 -0.7525
vn 0.9108 -0.4026 0.0915
s off
f 8/1/1 3/2/1 4/3/1
f 2/4/2 8/1/2 4/3/2
f 1/5/3 6/6/3 7/7/3
f 7/7/4 6/6/4 3/2/4 8/1/4
f 5/8/5 7/7/5 8/1/5 2/4/5
f 5/8/6 1/5/6 7/7/6
f 16/9/7 11/10/7 12/11/7
f 10/12/8 16/9/8 12/11/8
f 9/13/9 14/14/9 15/15/9
f 15/15/10 14/14/10 11/10/10 16/9/10
f 13/16/11 15/15/11 16/9/11 10/12/11
f 13/16/12 9/13/12 15/15/12
f 24/17/13 19/18/13 20/19/13
f 18/20/14 24/17/14 20/19/14
f 17/21/15 22/22/15 23/23/15
f 23/23/16 22/22/16 19/18/16 24/17/16
f 21/24/17 23/23/17 24/17/17 18/20/17
f 21/24/18 17/21/18 23/23/18
f 32/25/19 27/26/19 28/27/19
f 26/28/20 32/25/20 28/27/20
f 25/29/21 30/30/21 31/31/21
f 31/31/22 30/30/22 27/26/22 32/25/22
f 29/32/23 31/31/23 32/25/23 26/28/23
f 29/32/24 25/29/24 31/31/24
f 40/33/25 35/34/25 36/35/25
f 34/36/26 40/33/26 36/35/26
f 33/37/27 38/38/27 39/39/27
f 39/39/28 38/38/28 35/34/28 40/33/28
f 37/40/29 39/39/29 40/33/29 34/36/29
f 37/40/30 33/37/30 39/39/30
f 48/41/31 44/42/31 43/43/31
f 42/44/32 44/42/32 48/41/32
f 41/45/33 47/46/33 46/47/33
f 47/46/34 48/41/34 43/43/34 46/47/34
f 45/48/35 42/44/35 48/41/35 47/46/35
f 45/48/36 47/46/36 41/45/36
f 56/49/37 52/50/37 51/51/37
f 50/52/38 52/50/38 56/49/38
f 49/53/39 55/54/39 54/55/39
f 55/54/40 56/49/40 51/51/40 54/55/40
f 53/56/41 50/52/41 56/49/41 55/54/41
f 53/56/42 55/54/42 49/53/42
f 64/57/43 60/58/43 59/59/43
f 58/60/44 60/58/44 64/57/44
f 57/61/45 63/62/45 62/63/45
f 63/62/46 64/57/46 59/59/46 62/63/46
f 61/64/47 58/60/47 64/57/47 63/62/47
f 61/64/48 63/62/48 57/61/48
f 72/65/49 68/66/49 67/67/49
f 66/68/50 68/66/50 72/65/50
f 65/69/51 71/70/51 70/71/51
f 71/70/52 72/65/52 67/67/52 70/71/52
f 69/72/53 66/68/53 72/65/53 71/70/53
f 69/72/54 71/70/54 65/69/54
f 80/73/55 76/74/55 75/75/55
f 74/76/56 76/74/56 80/73/56
f 73/77/57 79/78/57 78/79/57
f 79/78/58 80/73/58 75/75/58 78/79/58
f 77/80/59 74/76/59 80/73/59 79/78/59
f 77/80/60 79/78/60 73/77/60
f 87/81/61 82/82/61 84/83/61 88/84/61
f 88/84/62 84/83/62 86/85/62 89/86/62
f 89/87/63 86/88/63 82/82/63 87/81/63
f 85/89/64 89/87/64 87/81/64 81/90/64
f 83/91/65 88/84/65 89/86/65 85/92/65
f 81/90/66 87/81/66 88/84/66 83/91/66
f 96/93/67 91/94/67 93/95/67 97/96/67
f 97/96/68 93/95/68 95/97/68 98/98/68
f 98/99/69 95/100/69 91/94/69 96/93/69
f 94/101/70 98/99/70 96/93/70 90/102/70
f 92/103/71 97/96/71 98/98/71 94/104/71
f 90/102/72 96/93/72 97/96/72 92/103/72
f 99/105/73 100/106/73 102/107/73 101/108/73
f 101/108/74 102/107/74 104/109/74 103/110/74
f 105/111/75 106/112/75 108/113/75 107/114/75
f 107/114/76 108/113/76 110/115/76 109/116/76
f 117/117/77 112/118/77 114/119/77 118/120/77
f 118/120/78 114/119/78 116/121/78 119/122/78
f 119/123/79 116/124/79 112/118/79 117/117/79
f 115/125/80 119/123/80 117/117/80 111/126/80
f 113/127/81 118/120/81 119/122/81 115/128/81
f 111/126/82 117/117/82 118/120/82 113/127/82
f 109/129/83 110/130/83 106/112/83 105/111/83
f 103/131/84 104/132/84 100/106/84 99/105/84
