# Blender v2.78 (sub 0) OBJ File: 'Low_Poly_Vegetation_Pack.blend'
# www.blender.org
g Plant_i_TwoS_02
v -0.038323 0.268284 -0.033502
v 0.008283 0.264523 -0.182497
v -0.022903 0.274299 -0.127691
v 0.004767 0.264294 -0.118784
v -0.191461 0.280492 -0.005475
v -0.122774 0.274298 -0.000437
v -0.127961 0.283307 -0.032706
v -0.218339 0.308963 -0.094569
v -0.143237 0.291120 -0.048610
v -0.129258 0.298535 -0.083705
v -0.074187 0.297439 -0.222323
v -0.075275 0.294554 -0.135352
v -0.039734 0.283398 -0.144180
v -0.175016 0.319342 -0.192346
v -0.126510 0.302194 -0.100998
v -0.091819 0.299420 -0.131743
v -0.055983 0.346856 -0.053410
v 0.006577 0.419364 -0.159489
v -0.031455 0.383406 -0.121673
v -0.006243 0.382286 -0.108086
v 0.092500 0.415187 -0.094731
v 0.010746 0.380037 -0.095596
v 0.022866 0.377296 -0.057078
v 0.044526 0.366722 -0.011967
v 0.003703 0.364374 -0.042347
v -0.003745 0.353396 -0.021311
v -0.066417 0.411597 -0.171755
v -0.075177 0.375009 -0.122138
v -0.049259 0.380156 -0.120820
v -0.143137 0.225722 -0.032437
v -0.050637 0.214187 0.043572
v -0.116387 0.222657 0.005934
v -0.100880 0.218111 -0.013625
v 0.089458 0.217562 0.063126
v 0.031765 0.211620 0.038585
v 0.027100 0.217123 0.071898
v -0.244503 0.265303 0.060766
v -0.169860 0.244295 0.075831
v -0.174758 0.241441 0.033827
v 0.062860 0.252096 0.188556
v 0.036169 0.233671 0.124581
v 0.005231 0.237604 0.147557
v -0.009425 0.279334 0.310143
v 0.004020 0.244319 0.194968
v -0.056158 0.236951 0.203493
v -0.234738 0.281831 0.182581
v -0.135655 0.236690 0.143386
v -0.165011 0.246394 0.100713
v -0.154972 0.290482 0.289878
v -0.081316 0.239524 0.194471
v -0.138493 0.241664 0.169588
v 0.045471 0.249674 0.003727
v 0.130636 0.285040 0.127258
v 0.109769 0.272562 0.064883
v 0.083201 0.268039 0.083182
v 0.083958 0.279881 -0.146456
v 0.051150 0.262871 -0.088211
v 0.083407 0.268012 -0.078507
v 0.220215 0.303393 -0.139936
v 0.127613 0.276591 -0.093385
v 0.157636 0.270308 -0.057483
v 0.254261 0.306426 0.088851
v 0.173977 0.273104 0.030668
v 0.155879 0.279775 0.073348
v 0.292572 0.314002 -0.033897
v 0.174070 0.272333 -0.043854
v 0.182263 0.273063 0.011205
v -0.038370 0.268093 -0.033539
v 0.008216 0.264335 -0.182501
v -0.022967 0.274110 -0.127705
v 0.004703 0.264105 -0.118797
v -0.191474 0.280299 -0.005527
v -0.122797 0.274106 -0.000487
v -0.127985 0.283115 -0.032756
v -0.218356 0.308769 -0.094617
v -0.143262 0.290928 -0.048660
v -0.129283 0.298343 -0.083756
v -0.074248 0.297248 -0.222331
v -0.075338 0.294365 -0.135368
v -0.039797 0.283209 -0.144196
v -0.175049 0.319146 -0.192366
v -0.126550 0.302000 -0.101025
v -0.091859 0.299226 -0.131770
v -0.055928 0.346675 -0.053475
v 0.006626 0.419201 -0.159594
v -0.031412 0.383235 -0.121767
v -0.006200 0.382115 -0.108180
v 0.092578 0.415007 -0.094768
v 0.010820 0.379855 -0.095633
v 0.022940 0.377114 -0.057114
v 0.044589 0.366545 -0.012037
v 0.003766 0.364198 -0.042417
v -0.003682 0.353220 -0.021381
v -0.066379 0.411436 -0.171867
v -0.075138 0.374839 -0.122236
v -0.049220 0.379986 -0.120918
v -0.143178 0.225526 -0.032424
v -0.050655 0.213989 0.043595
v -0.116425 0.222461 0.005950
v -0.100918 0.217915 -0.013610
v 0.089464 0.217365 0.063160
v 0.031765 0.211423 0.038618
v 0.027100 0.216926 0.071931
v -0.244560 0.265113 0.060785
v -0.169910 0.244102 0.075850
v -0.174809 0.241249 0.033846
v 0.062873 0.251903 0.188606
v 0.036178 0.233477 0.124626
v 0.005240 0.237410 0.147602
v -0.009394 0.279146 0.310204
v 0.004050 0.244127 0.195013
v -0.056128 0.236759 0.203537
v -0.234817 0.281647 0.182594
v -0.135723 0.236502 0.143389
v -0.165078 0.246206 0.100716
v -0.155010 0.290299 0.289948
v -0.081344 0.239333 0.194520
v -0.138521 0.241472 0.169637
v 0.045503 0.249477 0.003725
v 0.130684 0.284847 0.127280
v 0.109817 0.272369 0.064905
v 0.083249 0.267846 0.083204
v 0.083998 0.279688 -0.146490
v 0.051190 0.262677 -0.088240
v 0.083447 0.267819 -0.078537
v 0.220242 0.303203 -0.139992
v 0.127632 0.276399 -0.093435
v 0.157655 0.270115 -0.057533
v 0.254305 0.306237 0.088900
v 0.174012 0.272912 0.030712
v 0.155914 0.279583 0.073393
v 0.292639 0.313814 -0.033905
v 0.174120 0.272139 -0.043859
v 0.182313 0.272869 0.011200
v -0.004500 0.000000 -0.002158
v -0.020790 0.169786 -0.011028
v 0.004118 0.000000 -0.002818
v -0.014226 0.169786 -0.011531
v 0.000381 0.000000 0.004976
v -0.017072 0.169786 -0.005594
v -0.056621 0.347054 -0.053516
v -0.055952 0.346986 -0.054032
v -0.056052 0.346844 -0.053400
v -0.015847 0.177608 -0.013395
v 0.046003 0.249717 0.003666
v 0.045905 0.249760 0.004075
v 0.045501 0.249686 0.003486
v -0.018589 0.176680 -0.007455
v -0.050916 0.214230 0.044292
v -0.051527 0.214289 0.043741
v -0.050687 0.214199 0.043468
vt 0.7898 0.8228
vt 0.8071 0.8228
vt 0.7985 0.8618
vt 0.7903 0.8195
vt 0.7985 0.7623
vt 0.8066 0.8195
vt 0.7985 0.8618
vt 0.7906 0.8171
vt 0.8063 0.8171
vt 0.7985 0.8618
vt 0.7904 0.8188
vt 0.8065 0.8188
vt 0.7985 0.8618
vt 0.7909 0.8150
vt 0.8060 0.8150
vt 0.7985 0.8618
vt 0.8263 0.8150
vt 0.8338 0.7623
vt 0.8414 0.8150
vt 0.8338 0.8618
vt 0.8258 0.8188
vt 0.8419 0.8188
vt 0.8338 0.8618
vt 0.8252 0.8228
vt 0.8425 0.8228
vt 0.8338 0.8618
vt 0.8260 0.8171
vt 0.8417 0.8171
vt 0.8338 0.8618
vt 0.9580 0.8243
vt 0.9754 0.8243
vt 0.9667 0.8606
vt 0.9580 0.8243
vt 0.9754 0.8243
vt 0.9667 0.8606
vt 0.9667 0.7635
vt 0.9580 0.8243
vt 0.9754 0.8243
vt 0.9667 0.8606
vt 0.9580 0.8243
vt 0.9754 0.8243
vt 0.9667 0.8606
vt 0.9580 0.8243
vt 0.9754 0.8243
vt 0.9667 0.8606
vt 0.9592 0.8160
vt 0.9742 0.8160
vt 0.9667 0.8606
vt 0.9590 0.8172
vt 0.9743 0.8172
vt 0.9667 0.8606
vt 0.9583 0.8225
vt 0.9751 0.8225
vt 0.9667 0.8606
vt 0.9587 0.8194
vt 0.9667 0.7635
vt 0.9747 0.8194
vt 0.9667 0.8606
vt 0.9590 0.8170
vt 0.9743 0.8170
vt 0.9667 0.8606
vt 0.9588 0.8187
vt 0.9746 0.8187
vt 0.9667 0.8606
vt 0.9593 0.8150
vt 0.9740 0.8150
vt 0.9667 0.8606
vt 0.7898 0.8228
vt 0.7985 0.8618
vt 0.8071 0.8228
vt 0.7903 0.8195
vt 0.8066 0.8195
vt 0.7985 0.7623
vt 0.7985 0.8618
vt 0.7906 0.8171
vt 0.8063 0.8171
vt 0.7985 0.8618
vt 0.7904 0.8188
vt 0.8065 0.8188
vt 0.7985 0.8618
vt 0.7909 0.8150
vt 0.8060 0.8150
vt 0.7985 0.8618
vt 0.8263 0.8150
vt 0.8414 0.8150
vt 0.8338 0.7623
vt 0.8338 0.8618
vt 0.8258 0.8188
vt 0.8419 0.8188
vt 0.8338 0.8618
vt 0.8252 0.8228
vt 0.8338 0.8618
vt 0.8425 0.8228
vt 0.8260 0.8171
vt 0.8417 0.8171
vt 0.8338 0.8618
vt 0.9580 0.8243
vt 0.9667 0.8606
vt 0.9754 0.8243
vt 0.9580 0.8243
vt 0.9667 0.8606
vt 0.9754 0.8243
vt 0.9667 0.7635
vt 0.9580 0.8243
vt 0.9667 0.8606
vt 0.9754 0.8243
vt 0.9580 0.8243
vt 0.9754 0.8243
vt 0.9667 0.8606
vt 0.9580 0.8243
vt 0.9754 0.8243
vt 0.9667 0.8606
vt 0.9592 0.8160
vt 0.9742 0.8160
vt 0.9667 0.8606
vt 0.9590 0.8172
vt 0.9743 0.8172
vt 0.9667 0.8606
vt 0.9583 0.8225
vt 0.9667 0.8606
vt 0.9751 0.8225
vt 0.9587 0.8194
vt 0.9747 0.8194
vt 0.9667 0.7635
vt 0.9667 0.8606
vt 0.9590 0.8170
vt 0.9743 0.8170
vt 0.9667 0.8606
vt 0.9588 0.8187
vt 0.9746 0.8187
vt 0.9667 0.8606
vt 0.9593 0.8150
vt 0.9740 0.8150
vt 0.9667 0.8606
vt 0.9204 0.7607
vt 0.9203 0.8083
vt 0.9185 0.8082
vt 0.9180 0.7604
vt 0.9166 0.8082
vt 0.9156 0.7605
vt 0.9228 0.7604
vt 0.9221 0.8082
vt 0.9221 0.8097
vt 0.9254 0.8594
vt 0.9245 0.8600
vt 0.9166 0.8081
vt 0.9187 0.8104
vt 0.9168 0.8102
vt 0.9236 0.8601
vt 0.9272 0.7618
vt 0.9299 0.7605
vt 0.9263 0.7882
vt 0.9259 0.7880
vt 0.9254 0.7604
vt 0.9254 0.7885
vt 0.9316 0.7610
vt 0.9268 0.7882
vt 0.9459 0.7932
vt 0.9475 0.7949
vt 0.9254 0.7949
vt 0.9316 0.7941
vt 0.9228 0.8601
vt 0.9314 0.7939
vt 0.9467 0.7904
vt 0.9469 0.7885
vn 0.3337 0.9424 0.0218
vn 0.1625 0.9568 0.2410
vn 0.0680 0.9637 0.2581
vn 0.1680 0.9488 0.2674
vn 0.0842 0.9676 0.2380
vn 0.3251 0.9375 0.1239
vn 0.3073 0.9510 0.0354
vn 0.2328 0.9564 0.1764
vn 0.1644 0.9816 0.0970
vn 0.3063 0.9455 0.1105
vn -0.1826 0.8926 0.4123
vn -0.2471 0.8141 0.5256
vn -0.3475 0.9212 0.1749
vn -0.3897 0.9018 0.1868
vn -0.3117 0.8832 0.3505
vn -0.3227 0.8812 0.3456
vn -0.1974 0.8866 0.4183
vn -0.1886 0.8060 0.5611
vn 0.2047 0.9767 -0.0647
vn -0.0304 0.9855 -0.1670
vn 0.1766 0.9804 -0.0879
vn 0.2880 0.9526 -0.0983
vn -0.0281 0.9783 -0.2052
vn -0.0640 0.9658 -0.2514
vn -0.1404 0.9795 -0.1443
vn -0.1581 0.9394 -0.3041
vn 0.2821 0.9591 0.0240
vn 0.3934 0.9173 -0.0620
vn 0.0999 0.9844 -0.1450
vn 0.1856 0.9191 -0.3476
vn 0.0211 0.9869 -0.1601
vn 0.2204 0.9711 -0.0917
vn -0.2413 0.9640 -0.1121
vn -0.1934 0.9728 0.1277
vn -0.2039 0.9647 0.1668
vn -0.0591 0.9737 0.2199
vn -0.1348 0.9507 0.2792
vn -0.1331 0.9691 -0.2079
vn -0.2183 0.9458 -0.2404
vn -0.1692 0.9855 0.0121
vn -0.3343 0.9417 0.0373
vn -0.2395 0.9647 -0.1093
vn -0.3337 -0.9424 -0.0218
vn -0.1625 -0.9568 -0.2410
vn -0.0680 -0.9637 -0.2581
vn -0.1680 -0.9488 -0.2674
vn -0.0842 -0.9676 -0.2380
vn -0.3251 -0.9375 -0.1239
vn -0.3073 -0.9510 -0.0354
vn -0.2328 -0.9564 -0.1764
vn -0.1644 -0.9816 -0.0970
vn -0.3063 -0.9455 -0.1105
vn 0.1826 -0.8926 -0.4123
vn 0.2471 -0.8141 -0.5256
vn 0.3475 -0.9212 -0.1749
vn 0.3897 -0.9018 -0.1868
vn 0.3117 -0.8832 -0.3505
vn 0.3227 -0.8812 -0.3456
vn 0.1974 -0.8866 -0.4183
vn 0.1886 -0.8060 -0.5610
vn -0.2047 -0.9767 0.0647
vn 0.0304 -0.9855 0.1670
vn -0.1766 -0.9804 0.0879
vn -0.2880 -0.9526 0.0983
vn 0.0280 -0.9783 0.2052
vn 0.0640 -0.9658 0.2514
vn 0.1404 -0.9795 0.1443
vn 0.1581 -0.9394 0.3041
vn -0.2821 -0.9591 -0.0241
vn -0.3934 -0.9173 0.0620
vn -0.0999 -0.9844 0.1450
vn -0.1856 -0.9191 0.3476
vn -0.0211 -0.9869 0.1601
vn -0.2204 -0.9711 0.0917
vn 0.2413 -0.9640 0.1121
vn 0.1934 -0.9728 -0.1277
vn 0.2039 -0.9647 -0.1668
vn 0.0591 -0.9737 -0.2198
vn 0.1348 -0.9507 -0.2791
vn 0.1331 -0.9691 0.2079
vn 0.2183 -0.9458 0.2404
vn 0.1692 -0.9855 -0.0121
vn 0.3343 -0.9417 -0.0373
vn 0.2395 -0.9647 0.1093
vn -0.0763 -0.0593 -0.9953
vn 0.8953 0.1188 0.4293
vn -0.8243 -0.0496 0.5640
vn -0.7902 -0.0107 0.6128
vn 0.8458 0.3044 0.4381
vn -0.0741 -0.2457 -0.9665
vn -0.1339 -0.2587 -0.9566
vn -0.7378 0.5304 0.4175
vn 0.4005 -0.1289 -0.9072
vn 0.7194 -0.6068 0.3380
vn -0.4629 0.5456 -0.6986
vn 0.8559 0.3025 0.4195
vn 0.1041 0.9945 -0.0084
vn 0.8916 0.3001 0.3392
vn -0.5043 -0.7863 0.3570
s off
f 3/1/1 4/2/1 2/3/1
f 6/4/2 1/5/2 7/6/2
f 6/4/3 7/6/3 5/7/3
f 9/8/4 1/5/4 10/9/4
f 9/8/5 10/9/5 8/10/5
f 12/11/6 1/5/6 13/12/6
f 12/11/7 13/12/7 11/13/7
f 15/14/8 1/5/8 16/15/8
f 15/14/9 16/15/9 14/16/9
f 3/1/10 1/5/10 4/2/10
f 19/17/11 17/18/11 20/19/11
f 19/17/12 20/19/12 18/20/12
f 22/21/13 17/18/13 23/22/13
f 22/21/14 23/22/14 21/23/14
f 25/24/15 26/25/15 24/26/15
f 25/24/16 17/18/16 26/25/16
f 28/27/17 17/18/17 29/28/17
f 28/27/18 29/28/18 27/29/18
f 32/30/19 33/31/19 30/32/19
f 35/33/20 36/34/20 34/35/20
f 32/30/21 31/36/21 33/31/21
f 38/37/22 39/38/22 37/39/22
f 41/40/23 31/36/23 42/41/23
f 41/40/24 42/41/24 40/42/24
f 44/43/25 31/36/25 45/44/25
f 44/43/26 45/44/26 43/45/26
f 47/46/27 31/36/27 48/47/27
f 47/46/28 48/47/28 46/48/28
f 50/49/29 31/36/29 51/50/29
f 50/49/30 51/50/30 49/51/30
f 35/33/31 31/36/31 36/34/31
f 38/37/32 31/36/32 39/38/32
f 54/52/33 55/53/33 53/54/33
f 57/55/34 52/56/34 58/57/34
f 57/55/35 58/57/35 56/58/35
f 60/59/36 52/56/36 61/60/36
f 60/59/37 61/60/37 59/61/37
f 63/62/38 52/56/38 64/63/38
f 63/62/39 64/63/39 62/64/39
f 66/65/40 52/56/40 67/66/40
f 66/65/41 67/66/41 65/67/41
f 54/52/42 52/56/42 55/53/42
f 70/68/43 69/69/43 71/70/43
f 73/71/44 74/72/44 68/73/44
f 73/71/45 72/74/45 74/72/45
f 76/75/46 77/76/46 68/73/46
f 76/75/47 75/77/47 77/76/47
f 79/78/48 80/79/48 68/73/48
f 79/78/49 78/80/49 80/79/49
f 82/81/50 83/82/50 68/73/50
f 82/81/51 81/83/51 83/82/51
f 70/68/52 71/70/52 68/73/52
f 86/84/53 87/85/53 84/86/53
f 86/84/54 85/87/54 87/85/54
f 89/88/55 90/89/55 84/86/55
f 89/88/56 88/90/56 90/89/56
f 92/91/57 91/92/57 93/93/57
f 92/91/58 93/93/58 84/86/58
f 95/94/59 96/95/59 84/86/59
f 95/94/60 94/96/60 96/95/60
f 99/97/61 97/98/61 100/99/61
f 102/100/62 101/101/62 103/102/62
f 99/97/63 100/99/63 98/103/63
f 105/104/64 104/105/64 106/106/64
f 108/107/65 109/108/65 98/103/65
f 108/107/66 107/109/66 109/108/66
f 111/110/67 112/111/67 98/103/67
f 111/110/68 110/112/68 112/111/68
f 114/113/69 115/114/69 98/103/69
f 114/113/70 113/115/70 115/114/70
f 117/116/71 118/117/71 98/103/71
f 117/116/72 116/118/72 118/117/72
f 102/100/73 103/102/73 98/103/73
f 105/104/74 106/106/74 98/103/74
f 121/119/75 120/120/75 122/121/75
f 124/122/76 125/123/76 119/124/76
f 124/122/77 123/125/77 125/123/77
f 127/126/78 128/127/78 119/124/78
f 127/126/79 126/128/79 128/127/79
f 130/129/80 131/130/80 119/124/80
f 130/129/81 129/131/81 131/130/81
f 133/132/82 134/133/82 119/124/82
f 133/132/83 132/134/83 134/133/83
f 121/119/84 122/121/84 119/124/84
f 135/135/85 136/136/85 138/137/85 137/138/85
f 137/138/86 138/137/86 140/139/86 139/140/86
f 139/141/87 140/142/87 136/136/87 135/135/87
f 136/136/88 148/143/88 143/144/88 141/145/88
f 140/146/89 144/147/89 148/148/89
f 138/137/90 136/136/90 144/147/90
f 144/147/91 136/136/91 141/145/91 142/149/91
f 144/150/92 140/151/92 146/152/92 147/153/92
f 138/154/93 144/150/93 147/153/93 145/155/93
f 140/151/94 138/156/94 145/157/94 146/152/94
f 148/158/95 136/159/95 150/160/95 151/161/95
f 148/148/96 144/147/96 142/149/96 143/162/96
f 151/161/97 150/160/97 149/163/97
f 140/164/98 148/158/98 151/161/98 149/163/98
f 136/165/99 140/164/99 149/163/99 150/160/99
