# Blender v2.78 (sub 0) OBJ File: 'Low_Poly_Vegetation_Pack.blend'
# www.blender.org
g Plant_h_TwoS_02
v -0.001090 -0.004121 -0.000944
v -0.154899 0.049150 -0.099623
v -0.052880 0.040291 -0.178646
v -0.135074 0.050618 -0.180055
v -0.112481 0.026960 -0.010377
v 0.020374 0.015423 -0.113285
v -0.044580 0.028714 -0.060772
v -0.103326 0.050120 -0.139013
v 0.003207 -0.004815 -0.002624
v 0.051518 0.124698 -0.214761
v 0.162451 0.149552 -0.124779
v 0.142515 0.168031 -0.222110
v -0.025426 0.046467 -0.133598
v 0.119037 0.078834 -0.016419
v 0.041584 0.071820 -0.071104
v 0.103842 0.144069 -0.167815
v -0.001150 -0.004304 -0.001001
v -0.154915 0.048953 -0.099651
v -0.052924 0.040096 -0.178652
v -0.135086 0.050419 -0.180048
v -0.112512 0.026768 -0.010425
v 0.020314 0.015233 -0.113311
v -0.044629 0.028525 -0.060813
v -0.103351 0.049922 -0.139022
v 0.003315 -0.004954 -0.002719
v 0.051619 0.124530 -0.214803
v 0.162517 0.149377 -0.124849
v 0.142583 0.167846 -0.222143
v -0.025311 0.046315 -0.133661
v 0.119117 0.078674 -0.016510
v 0.041684 0.071667 -0.071185
v 0.103922 0.143892 -0.167865
vt 0.0598 0.7146
vt 0.0862 0.7141
vt 0.0598 0.7348
vt 0.0333 0.7141
vt 0.0598 0.6409
vt 0.0942 0.6736
vt 0.0598 0.6739
vt 0.0253 0.6736
vt 0.1832 0.7146
vt 0.2097 0.7141
vt 0.1832 0.7348
vt 0.1567 0.7141
vt 0.1832 0.6409
vt 0.2177 0.6736
vt 0.1832 0.6739
vt 0.1487 0.6736
vt 0.0598 0.7146
vt 0.0598 0.7348
vt 0.0862 0.7141
vt 0.0333 0.7141
vt 0.0598 0.6409
vt 0.0598 0.6739
vt 0.0942 0.6736
vt 0.0253 0.6736
vt 0.1832 0.7146
vt 0.1832 0.7348
vt 0.2097 0.7141
vt 0.1567 0.7141
vt 0.1832 0.6409
vt 0.1832 0.6739
vt 0.2177 0.6736
vt 0.1487 0.6736
vn 0.1257 0.9884 -0.0852
vn -0.0060 0.9998 0.0168
vn 0.3682 0.9016 0.2272
vn 0.2544 0.9640 0.0768
vn 0.1160 0.9761 0.1840
vn 0.2265 0.9139 0.3369
vn -0.2573 0.9383 0.2309
vn -0.4214 0.9016 0.0977
vn -0.4480 0.7099 0.5434
vn -0.3640 0.8416 0.3991
vn -0.5377 0.8026 0.2583
vn -0.6258 0.6701 0.3992
vn -0.1256 -0.9884 0.0852
vn 0.0060 -0.9998 -0.0168
vn -0.3682 -0.9016 -0.2272
vn -0.2545 -0.9640 -0.0768
vn -0.1160 -0.9761 -0.1840
vn -0.2265 -0.9139 -0.3370
vn 0.2573 -0.9384 -0.2308
vn 0.4214 -0.9016 -0.0977
vn 0.4480 -0.7099 -0.5434
vn 0.3639 -0.8416 -0.3992
vn 0.5377 -0.8026 -0.2582
vn 0.6258 -0.6701 -0.3992
s off
f 8/1/1 3/2/1 4/3/1
f 2/4/2 8/1/2 4/3/2
f 1/5/3 6/6/3 7/7/3
f 7/7/4 6/6/4 3/2/4 8/1/4
f 5/8/5 7/7/5 8/1/5 2/4/5
f 5/8/6 1/5/6 7/7/6
f 16/9/7 11/10/7 12/11/7
f 10/12/8 16/9/8 12/11/8
f 9/13/9 14/14/9 15/15/9
f 15/15/10 14/14/10 11/10/10 16/9/10
f 13/16/11 15/15/11 16/9/11 10/12/11
f 13/16/12 9/13/12 15/15/12
f 24/17/13 20/18/13 19/19/13
f 18/20/14 20/18/14 24/17/14
f 17/21/15 23/22/15 22/23/15
f 23/22/16 24/17/16 19/19/16 22/23/16
f 21/24/17 18/20/17 24/17/17 23/22/17
f 21/24/18 23/22/18 17/21/18
f 32/25/19 28/26/19 27/27/19
f 26/28/20 28/26/20 32/25/20
f 25/29/21 31/30/21 30/31/21
f 31/30/22 32/25/22 27/27/22 30/31/22
f 29/32/23 26/28/23 32/25/23 31/30/23
f 29/32/24 31/30/24 25/29/24
