# Blender v2.78 (sub 0) OBJ File: 'Low_Poly_Vegetation_Pack.blend'
# www.blender.org
g Plant_d_TwoS_01
v 0.116877 0.088127 0.243093
v -0.167689 0.215621 -0.000469
v 0.045288 0.232646 -0.118215
v -0.060409 0.213776 -0.059409
v -0.132070 0.172253 0.103154
v -0.060049 0.133417 0.182324
v 0.152913 0.150441 0.064586
v 0.119224 0.192342 -0.035776
v 0.045301 0.133040 0.120123
v -0.007554 0.173408 0.030357
v -0.033229 0.235484 -0.121232
v -0.124107 0.225590 -0.066345
v 0.116789 0.087176 0.242797
v -0.167877 0.214686 -0.000772
v 0.045243 0.231724 -0.118599
v -0.060521 0.212847 -0.059760
v -0.132252 0.171318 0.102849
v -0.060219 0.132475 0.182033
v 0.152872 0.149510 0.064224
v 0.119175 0.191418 -0.036157
v 0.045200 0.132098 0.119803
v -0.007670 0.172476 0.030013
v -0.033288 0.234561 -0.121611
v -0.124280 0.224657 -0.066659
v -0.004396 0.000000 -0.007298
v -0.013335 0.177299 0.020462
v 0.009399 0.000000 0.000329
v -0.003392 0.174124 0.025829
v -0.004103 0.000000 0.008463
v -0.013639 0.173304 0.031494
vt 0.5769 0.8083
vt 0.5785 0.7706
vt 0.6085 0.7777
vt 0.6183 0.7957
vt 0.5752 0.8460
vt 0.6159 0.8235
vt 0.6057 0.8416
vt 0.5088 0.8053
vt 0.5477 0.8070
vt 0.5463 0.8389
vt 0.5491 0.7751
vt 0.6061 0.8096
vt 0.5769 0.8083
vt 0.6183 0.7957
vt 0.6085 0.7777
vt 0.5785 0.7706
vt 0.5752 0.8460
vt 0.6057 0.8416
vt 0.6159 0.8235
vt 0.5088 0.8053
vt 0.5463 0.8389
vt 0.5477 0.8070
vt 0.5491 0.7751
vt 0.6061 0.8096
vt 0.5436 0.8500
vt 0.5972 0.8513
vt 0.5967 0.8532
vt 0.5439 0.8526
vt 0.5967 0.8551
vt 0.5439 0.8551
vt 0.5440 0.8475
vt 0.5968 0.8494
vn 0.0457 0.9222 0.3840
vn 0.1880 0.9343 0.3028
vn 0.1556 0.9536 0.2577
vn 0.1773 0.9350 0.3073
vn 0.0194 0.9427 0.3330
vn 0.0521 0.9249 0.3765
vn 0.0888 0.9269 0.3645
vn 0.1358 0.9310 0.3387
vn -0.0458 -0.9222 -0.3840
vn -0.1880 -0.9343 -0.3028
vn -0.1556 -0.9536 -0.2577
vn -0.1773 -0.9350 -0.3073
vn -0.0194 -0.9427 -0.3330
vn -0.0521 -0.9249 -0.3765
vn -0.0888 -0.9269 -0.3645
vn -0.1358 -0.9310 -0.3387
vn 0.4904 0.1602 -0.8567
vn 0.5027 -0.0878 0.8600
vn -0.9986 -0.0515 -0.0081
s off
f 10/1/1 8/2/1 3/3/1 11/4/1
f 5/5/2 10/1/2 12/6/2 2/7/2
f 1/8/3 9/9/3 6/10/3
f 6/10/4 9/9/4 10/1/4 5/5/4
f 1/8/5 7/11/5 9/9/5
f 9/9/6 7/11/6 8/2/6 10/1/6
f 11/4/7 4/12/7 10/1/7
f 12/6/8 10/1/8 4/12/8
f 22/13/9 23/14/9 15/15/9 20/16/9
f 17/17/10 14/18/10 24/19/10 22/13/10
f 13/20/11 18/21/11 21/22/11
f 18/21/12 17/17/12 22/13/12 21/22/12
f 13/20/13 21/22/13 19/23/13
f 21/22/14 22/13/14 20/16/14 19/23/14
f 23/14/15 22/13/15 16/24/15
f 24/19/16 16/24/16 22/13/16
f 25/25/17 26/26/17 28/27/17 27/28/17
f 27/28/18 28/27/18 30/29/18 29/30/18
f 29/31/19 30/32/19 26/26/19 25/25/19
