# Blender v2.78 (sub 0) OBJ File: 'Low_Poly_Vegetation_Pack.blend'
# www.blender.org
g Plant_b_TwoS_04
v -0.013949 -0.000000 -0.013100
v -0.465432 0.273307 -0.038917
v -0.267056 0.248175 0.066795
v -0.110449 0.135024 0.071624
v -0.084500 0.165210 -0.062597
v -0.241108 0.278361 -0.067426
v 0.000000 -0.000000 -0.000000
v 0.246923 0.377041 -0.275808
v 0.057060 0.316748 -0.168680
v -0.025149 0.167877 -0.076854
v 0.079157 0.167877 0.016528
v 0.161366 0.316748 -0.075297
v -0.011336 -0.003442 -0.007310
v 0.033879 0.162913 0.492172
v 0.109205 0.183672 0.279911
v 0.089083 0.108020 0.103207
v -0.046872 0.141406 0.104395
v -0.026751 0.217058 0.281099
v -0.014120 -0.000089 -0.013153
v -0.465433 0.273112 -0.038961
v -0.267122 0.247994 0.066742
v -0.110589 0.134893 0.071568
v -0.084641 0.165079 -0.062654
v -0.241173 0.278180 -0.067480
v 0.000130 -0.000047 -0.000145
v 0.246960 0.376849 -0.275849
v 0.057137 0.316585 -0.168766
v -0.025031 0.167782 -0.076985
v 0.079275 0.167782 0.016397
v 0.161443 0.316585 -0.075383
v -0.011365 -0.003568 -0.007157
v 0.033831 0.162722 0.492137
v 0.109158 0.183480 0.279942
v 0.089045 0.107861 0.103322
v -0.046910 0.141247 0.104509
v -0.026798 0.216866 0.281129
vt 0.2977 0.8240
vt 0.3237 0.8240
vt 0.3107 0.8640
vt 0.3107 0.7558
vt 0.3237 0.7880
vt 0.2977 0.7880
vt 0.4213 0.8240
vt 0.4473 0.8240
vt 0.4343 0.8640
vt 0.4343 0.7558
vt 0.4473 0.7880
vt 0.4213 0.7880
vt 0.2977 0.8240
vt 0.3237 0.8240
vt 0.3107 0.8640
vt 0.3107 0.7558
vt 0.3237 0.7880
vt 0.2977 0.7880
vt 0.2977 0.8240
vt 0.3107 0.8640
vt 0.3237 0.8240
vt 0.3107 0.7558
vt 0.2977 0.7880
vt 0.3237 0.7880
vt 0.4213 0.8240
vt 0.4343 0.8640
vt 0.4473 0.8240
vt 0.4343 0.7558
vt 0.4213 0.7880
vt 0.4473 0.7880
vt 0.2977 0.8240
vt 0.3107 0.8640
vt 0.3237 0.8240
vt 0.3107 0.7558
vt 0.2977 0.7880
vt 0.3237 0.7880
vn 0.0061 0.9754 0.2205
vn 0.8554 0.4448 0.2654
vn 0.5559 0.7815 0.2832
vn -0.1870 0.9599 0.2089
vn -0.6484 0.2344 0.7243
vn -0.5138 0.6377 0.5739
vn 0.2362 0.9554 0.1772
vn 0.1471 0.6264 -0.7655
vn 0.2147 0.8888 -0.4050
vn -0.0060 -0.9754 -0.2205
vn -0.8554 -0.4448 -0.2654
vn -0.5559 -0.7815 -0.2832
vn 0.1870 -0.9599 -0.2088
vn 0.6484 -0.2344 -0.7243
vn 0.5138 -0.6377 -0.5739
vn -0.2362 -0.9554 -0.1773
vn -0.1471 -0.6264 0.7655
vn -0.2147 -0.8888 0.4050
s off
f 3/1/1 6/2/1 2/3/1
f 1/4/2 5/5/2 4/6/2
f 4/6/3 5/5/3 6/2/3 3/1/3
f 9/7/4 12/8/4 8/9/4
f 7/10/5 11/11/5 10/12/5
f 10/12/6 11/11/6 12/8/6 9/7/6
f 15/13/7 18/14/7 14/15/7
f 13/16/8 17/17/8 16/18/8
f 16/18/9 17/17/9 18/14/9 15/13/9
f 21/19/10 20/20/10 24/21/10
f 19/22/11 22/23/11 23/24/11
f 22/23/12 21/19/12 24/21/12 23/24/12
f 27/25/13 26/26/13 30/27/13
f 25/28/14 28/29/14 29/30/14
f 28/29/15 27/25/15 30/27/15 29/30/15
f 33/31/16 32/32/16 36/33/16
f 31/34/17 34/35/17 35/36/17
f 34/35/18 33/31/18 36/33/18 35/36/18
