# Blender v2.78 (sub 0) OBJ File: 'Low_Poly_Vegetation_Pack.blend'
# www.blender.org
g Plant_f_TwoS_05
v -0.094312 0.411461 -0.038713
v 0.044256 0.411686 -0.107603
v -0.090440 0.472725 -0.160290
v -0.055170 0.472783 -0.177825
v -0.087754 0.507111 -0.215295
v -0.047704 0.355138 0.035322
v 0.075294 0.355338 -0.025827
v -0.027594 0.400520 -0.078354
v -0.062742 0.451523 -0.148887
v 0.021129 0.329820 0.019416
v -0.047768 0.230057 0.083904
v -0.108261 0.216426 -0.032232
v -0.129829 0.260654 0.076609
v -0.156930 0.252951 0.016985
v -0.220597 0.282441 0.077668
v 0.009213 0.171452 0.052717
v -0.044482 0.159353 -0.050369
v -0.084470 0.215942 0.030055
v -0.145338 0.252245 0.048909
v -0.004537 0.143666 -0.003097
v -0.037079 0.246352 -0.229753
v 0.101763 0.227834 -0.188494
v 0.048821 0.257556 -0.326647
v 0.084447 0.253726 -0.316773
v 0.089063 0.272474 -0.370364
v -0.057555 0.241684 -0.134882
v 0.064619 0.222962 -0.095860
v 0.030850 0.225413 -0.209346
v 0.058350 0.242822 -0.296794
v -0.005943 0.223543 -0.089918
v 0.169859 0.444252 0.019974
v 0.051572 0.444552 0.162060
v 0.207785 0.543825 0.139415
v 0.173733 0.543326 0.178645
v 0.234802 0.605295 0.180858
v 0.087567 0.371352 -0.034865
v -0.017429 0.371619 0.091255
v 0.118221 0.433148 0.097289
v 0.177919 0.514143 0.146817
v 0.018263 0.342684 0.014265
v -0.094391 0.411296 -0.038794
v 0.044239 0.411521 -0.107715
v -0.090518 0.472567 -0.160385
v -0.055192 0.472624 -0.177944
v -0.087808 0.506953 -0.215407
v -0.047781 0.354972 0.035242
v 0.075277 0.355172 -0.025937
v -0.027642 0.400352 -0.078452
v -0.062793 0.451358 -0.148989
v 0.021081 0.329651 0.019320
v -0.047852 0.229903 0.084000
v -0.108371 0.216264 -0.032191
v -0.129888 0.260483 0.076695
v -0.157014 0.252772 0.017013
v -0.220653 0.282255 0.077717
v 0.009119 0.171305 0.052816
v -0.044603 0.159200 -0.050322
v -0.084565 0.215781 0.030124
v -0.145408 0.252066 0.048965
v -0.004645 0.143515 -0.003023
v -0.037130 0.246162 -0.229790
v 0.101776 0.227636 -0.188513
v 0.048790 0.257373 -0.326722
v 0.084477 0.253537 -0.316829
v 0.089065 0.272288 -0.370439
v -0.057607 0.241492 -0.134902
v 0.064622 0.222762 -0.095865
v 0.030832 0.225216 -0.209376
v 0.058342 0.242629 -0.296848
v -0.005968 0.223345 -0.089930
v 0.169978 0.444102 0.020032
v 0.051650 0.444402 0.162167
v 0.207922 0.543702 0.139494
v 0.173836 0.543204 0.178766
v 0.234926 0.605179 0.180962
v 0.087673 0.371190 -0.034814
v -0.017360 0.371457 0.091350
v 0.118322 0.432998 0.097374
v 0.178035 0.514011 0.146914
v 0.018351 0.342520 0.014339
v 0.010042 0.000000 -0.003695
v 0.031941 0.353541 0.024173
v -0.002154 0.000000 0.010943
v 0.024771 0.355274 0.032983
v -0.008733 0.000000 -0.006938
v 0.018630 0.345280 0.020328
v 0.000091 0.183276 -0.012097
v -0.008987 0.184046 -0.001202
v -0.013883 0.177564 -0.014511
v -0.010919 0.192856 -0.011334
v 0.001118 0.220791 -0.101883
v -0.005475 0.221218 -0.104051
v -0.005141 0.221723 -0.093240
vt 0.0571 0.6814
vt 0.0592 0.6605
vt 0.0906 0.6788
vt 0.0820 0.6834
vt 0.1061 0.6834
vt 0.0558 0.7023
vt 0.0283 0.6978
vt 0.0225 0.6786
vt 0.0313 0.6605
vt 0.0897 0.6894
vt 0.0571 0.6814
vt 0.0592 0.6605
vt 0.0906 0.6788
vt 0.0820 0.6834
vt 0.1061 0.6834
vt 0.0558 0.7023
vt 0.0283 0.6978
vt 0.0225 0.6786
vt 0.0313 0.6605
vt 0.0897 0.6894
vt 0.1935 0.6667
vt 0.1956 0.6459
vt 0.2270 0.6641
vt 0.2184 0.6688
vt 0.2425 0.6688
vt 0.1922 0.6877
vt 0.1647 0.6831
vt 0.1589 0.6639
vt 0.1677 0.6459
vt 0.2261 0.6748
vt 0.1935 0.6667
vt 0.1956 0.6459
vt 0.2270 0.6641
vt 0.2184 0.6688
vt 0.2425 0.6688
vt 0.1922 0.6877
vt 0.1647 0.6831
vt 0.1589 0.6639
vt 0.1677 0.6459
vt 0.2261 0.6748
vt 0.0571 0.6814
vt 0.0820 0.6834
vt 0.0906 0.6788
vt 0.0592 0.6605
vt 0.1061 0.6834
vt 0.0225 0.6786
vt 0.0283 0.6978
vt 0.0558 0.7023
vt 0.0313 0.6605
vt 0.0897 0.6894
vt 0.0571 0.6814
vt 0.0820 0.6834
vt 0.0906 0.6788
vt 0.0592 0.6605
vt 0.1061 0.6834
vt 0.0225 0.6786
vt 0.0283 0.6978
vt 0.0558 0.7023
vt 0.0313 0.6605
vt 0.0897 0.6894
vt 0.1935 0.6667
vt 0.2184 0.6688
vt 0.2270 0.6641
vt 0.1956 0.6459
vt 0.2425 0.6688
vt 0.1589 0.6639
vt 0.1647 0.6831
vt 0.1922 0.6877
vt 0.1677 0.6459
vt 0.2261 0.6748
vt 0.1935 0.6667
vt 0.2184 0.6688
vt 0.2270 0.6641
vt 0.1956 0.6459
vt 0.2425 0.6688
vt 0.1589 0.6639
vt 0.1647 0.6831
vt 0.1922 0.6877
vt 0.1677 0.6459
vt 0.2261 0.6748
vt 0.1535 0.6877
vt 0.1535 0.7295
vt 0.1486 0.7295
vt 0.1486 0.6877
vt 0.1438 0.6915
vt 0.1438 0.6877
vt 0.1583 0.6915
vt 0.1535 0.6877
vt 0.1583 0.6915
vt 0.1583 0.6459
vt 0.1583 0.6877
vt 0.1535 0.6459
vt 0.1486 0.6459
vt 0.1438 0.6459
vt 0.1583 0.6877
vt 0.1438 0.7295
vt 0.1583 0.7295
vt 0.1438 0.6915
vt 0.1438 0.6877
vn 0.0842 0.8171 0.5703
vn 0.1257 0.7835 0.6085
vn 0.3863 0.8311 0.4001
vn 0.0837 0.8306 0.5506
vn 0.4017 0.8176 0.4124
vn 0.3855 0.7738 0.5026
vn 0.4722 0.8657 -0.1664
vn 0.3368 0.9361 -0.1016
vn 0.4676 0.7324 -0.4949
vn 0.6017 0.7626 -0.2375
vn 0.3484 0.8222 -0.4502
vn 0.2106 0.8964 -0.3900
vn -0.1353 0.9726 0.1888
vn -0.1505 0.9371 0.3149
vn 0.2600 0.9605 0.0988
vn -0.0158 0.9995 0.0263
vn 0.2383 0.9267 0.2905
vn 0.1112 0.9048 0.4111
vn -0.4396 0.6663 -0.6023
vn -0.5596 0.5729 -0.5989
vn -0.5317 0.8078 -0.2544
vn -0.3449 0.8074 -0.4787
vn -0.6710 0.6666 -0.3247
vn -0.6893 0.5881 -0.4230
vn -0.0842 -0.8171 -0.5702
vn -0.1258 -0.7835 -0.6085
vn -0.3862 -0.8311 -0.4001
vn -0.0837 -0.8306 -0.5505
vn -0.4017 -0.8177 -0.4124
vn -0.3854 -0.7739 -0.5026
vn -0.4721 -0.8657 0.1664
vn -0.3367 -0.9361 0.1016
vn -0.4676 -0.7324 0.4949
vn -0.6017 -0.7626 0.2375
vn -0.3484 -0.8222 0.4501
vn -0.2106 -0.8964 0.3900
vn 0.1352 -0.9727 -0.1888
vn 0.1503 -0.9371 -0.3149
vn -0.2600 -0.9606 -0.0988
vn 0.0157 -0.9995 -0.0263
vn -0.2383 -0.9268 -0.2904
vn -0.1111 -0.9048 -0.4110
vn 0.4397 -0.6663 0.6023
vn 0.5596 -0.5729 0.5988
vn 0.5317 -0.8078 0.2545
vn 0.3449 -0.8074 0.4787
vn 0.6710 -0.6666 0.3247
vn 0.6893 -0.5881 0.4230
vn 0.7258 -0.2700 0.6327
vn -0.9493 0.1240 0.2888
vn 0.6111 0.7298 0.3064
vn 0.1762 -0.0362 -0.9837
vn -0.9376 -0.0121 0.3475
vn 0.7674 0.0707 0.6373
vn 0.0806 0.9955 -0.0490
vn -0.9380 0.1171 0.3262
vn 0.1333 0.1798 -0.9746
vn 0.3086 -0.8725 -0.3787
vn -0.9796 0.2010 0.0040
s off
f 8/1/1 2/2/1 4/3/1 9/4/1
f 9/4/2 4/3/2 5/5/2
f 8/1/3 1/6/3 6/7/3 10/8/3
f 2/2/4 8/1/4 10/8/4 7/9/4
f 1/6/5 8/1/5 9/4/5 3/10/5
f 3/10/6 9/4/6 5/5/6
f 18/11/7 12/12/7 14/13/7 19/14/7
f 19/14/8 14/13/8 15/15/8
f 18/11/9 11/16/9 16/17/9 20/18/9
f 12/12/10 18/11/10 20/18/10 17/19/10
f 11/16/11 18/11/11 19/14/11 13/20/11
f 13/20/12 19/14/12 15/15/12
f 28/21/13 22/22/13 24/23/13 29/24/13
f 29/24/14 24/23/14 25/25/14
f 28/21/15 21/26/15 26/27/15 30/28/15
f 22/22/16 28/21/16 30/28/16 27/29/16
f 21/26/17 28/21/17 29/24/17 23/30/17
f 23/30/18 29/24/18 25/25/18
f 38/31/19 32/32/19 34/33/19 39/34/19
f 39/34/20 34/33/20 35/35/20
f 38/31/21 31/36/21 36/37/21 40/38/21
f 32/32/22 38/31/22 40/38/22 37/39/22
f 31/36/23 38/31/23 39/34/23 33/40/23
f 33/40/24 39/34/24 35/35/24
f 48/41/25 49/42/25 44/43/25 42/44/25
f 49/42/26 45/45/26 44/43/26
f 48/41/27 50/46/27 46/47/27 41/48/27
f 42/44/28 47/49/28 50/46/28 48/41/28
f 41/48/29 43/50/29 49/42/29 48/41/29
f 43/50/30 45/45/30 49/42/30
f 58/51/31 59/52/31 54/53/31 52/54/31
f 59/52/32 55/55/32 54/53/32
f 58/51/33 60/56/33 56/57/33 51/58/33
f 52/54/34 57/59/34 60/56/34 58/51/34
f 51/58/35 53/60/35 59/52/35 58/51/35
f 53/60/36 55/55/36 59/52/36
f 68/61/37 69/62/37 64/63/37 62/64/37
f 69/62/38 65/65/38 64/63/38
f 68/61/39 70/66/39 66/67/39 61/68/39
f 62/64/40 67/69/40 70/66/40 68/61/40
f 61/68/41 63/70/41 69/62/41 68/61/41
f 63/70/42 65/65/42 69/62/42
f 78/71/43 79/72/43 74/73/43 72/74/43
f 79/72/44 75/75/44 74/73/44
f 78/71/45 80/76/45 76/77/45 71/78/45
f 72/74/46 77/79/46 80/76/46 78/71/46
f 71/78/47 73/80/47 79/72/47 78/71/47
f 73/80/48 75/75/48 79/72/48
f 87/81/49 82/82/49 84/83/49 88/84/49
f 88/84/50 90/85/50 89/86/50
f 90/87/51 87/81/51 91/88/51 93/89/51
f 85/90/52 89/91/52 87/81/52 81/92/52
f 83/93/53 88/84/53 89/86/53 85/94/53
f 81/92/54 87/81/54 88/84/54 83/93/54
f 92/95/55 93/89/55 91/88/55
f 90/85/56 88/84/56 84/83/56 86/96/56
f 87/81/57 90/87/57 86/97/57 82/82/57
f 87/81/58 89/91/58 92/95/58 91/88/58
f 89/86/59 90/85/59 93/98/59 92/99/59
