# Blender v2.78 (sub 0) OBJ File: 'Low_Poly_Vegetation_Pack.blend'
# www.blender.org
g Plant_d_TwoS_02
v -0.258543 0.163932 0.222614
v -0.111497 0.595892 -0.141327
v 0.112961 0.595892 0.140164
v 0.004346 0.581276 -0.003464
v -0.233158 0.484741 -0.085738
v -0.293635 0.363697 0.007129
v -0.069193 0.363697 0.288600
v 0.031682 0.484741 0.246396
v -0.174239 0.352981 0.142142
v -0.093562 0.474026 0.074607
v 0.092773 0.626231 0.029997
v -0.008718 0.620810 -0.090136
v -0.257875 0.163409 0.222084
v -0.111046 0.595132 -0.141794
v 0.113516 0.595133 0.139825
v 0.004859 0.580516 -0.003864
v -0.232661 0.484029 -0.086233
v -0.293069 0.363078 0.006584
v -0.068534 0.363083 0.288166
v 0.032276 0.484031 0.246020
v -0.173610 0.352387 0.141640
v -0.093014 0.473312 0.074170
v 0.093321 0.625471 0.029646
v -0.008253 0.620050 -0.090590
v 0.009831 0.000000 -0.007839
v -0.082582 0.485057 0.065849
v 0.001330 0.000000 0.013816
v -0.086160 0.475405 0.079778
v -0.013173 0.000000 -0.004373
v -0.096959 0.475405 0.066236
v -0.022555 0.246219 0.017985
v -0.028234 0.242787 0.033590
v -0.039033 0.242787 0.020048
vt 0.7004 0.8051
vt 0.7011 0.7698
vt 0.7293 0.7756
vt 0.7390 0.7923
vt 0.6997 0.8404
vt 0.7373 0.8184
vt 0.7282 0.8356
vt 0.6366 0.8039
vt 0.6731 0.8046
vt 0.6725 0.8345
vt 0.6736 0.7746
vt 0.7278 0.8056
vt 0.7004 0.8051
vt 0.7390 0.7923
vt 0.7293 0.7756
vt 0.7011 0.7698
vt 0.6997 0.8404
vt 0.7282 0.8356
vt 0.7373 0.8184
vt 0.6366 0.8039
vt 0.6725 0.8345
vt 0.6731 0.8046
vt 0.6736 0.7746
vt 0.7278 0.8056
vt 0.6884 0.8447
vt 0.7135 0.8451
vt 0.7131 0.8469
vt 0.6883 0.8464
vt 0.7130 0.8486
vt 0.6883 0.8481
vt 0.6884 0.8430
vt 0.7131 0.8433
vt 0.6637 0.8415
vt 0.6633 0.8439
vt 0.6636 0.8463
vt 0.6636 0.8486
vn -0.5556 0.7590 0.3394
vn -0.4518 0.7603 0.4666
vn -0.6166 0.5248 0.5869
vn -0.5401 0.6605 0.5215
vn -0.7122 0.5189 0.4728
vn -0.6298 0.6588 0.4114
vn -0.5293 0.7591 0.3790
vn -0.4960 0.7594 0.4211
vn 0.5556 -0.7590 -0.3394
vn 0.4518 -0.7604 -0.4666
vn 0.6166 -0.5248 -0.5869
vn 0.5401 -0.6605 -0.5215
vn 0.7122 -0.5188 -0.4728
vn 0.6298 -0.6588 -0.4114
vn 0.5293 -0.7591 -0.3790
vn 0.4960 -0.7594 -0.4211
vn 0.9199 0.1586 0.3586
vn -0.7450 -0.3035 0.5940
vn -0.1448 0.1586 -0.9767
vn -0.1453 0.0840 -0.9858
vn -0.7737 -0.1445 0.6169
vn 0.9287 0.0840 0.3612
s off
f 10/1/1 8/2/1 3/3/1 11/4/1
f 5/5/2 10/1/2 12/6/2 2/7/2
f 1/8/3 9/9/3 6/10/3
f 6/10/4 9/9/4 10/1/4 5/5/4
f 1/8/5 7/11/5 9/9/5
f 9/9/6 7/11/6 8/2/6 10/1/6
f 11/4/7 4/12/7 10/1/7
f 12/6/8 10/1/8 4/12/8
f 22/13/9 23/14/9 15/15/9 20/16/9
f 17/17/10 14/18/10 24/19/10 22/13/10
f 13/20/11 18/21/11 21/22/11
f 18/21/12 17/17/12 22/13/12 21/22/12
f 13/20/13 21/22/13 19/23/13
f 21/22/14 22/13/14 20/16/14 19/23/14
f 23/14/15 22/13/15 16/24/15
f 24/19/16 16/24/16 22/13/16
f 31/25/17 26/26/17 28/27/17 32/28/17
f 32/28/18 28/27/18 30/29/18 33/30/18
f 33/31/19 30/32/19 26/26/19 31/25/19
f 29/33/20 33/31/20 31/25/20 25/34/20
f 27/35/21 32/28/21 33/30/21 29/36/21
f 25/34/22 31/25/22 32/28/22 27/35/22
