# Blender v2.78 (sub 0) OBJ File: 'Low_Poly_Vegetation_Pack.blend'
# www.blender.org
g Plant_e_TwoS_03
v -0.008332 0.001375 -0.006252
v 0.008332 -0.001375 0.006252
v 0.308911 0.228316 -0.248759
v 0.141654 0.218160 -0.166747
v 0.036608 0.144771 -0.085070
v 0.093005 0.127837 -0.033922
v 0.181503 0.201041 -0.124740
v -0.012813 -0.000134 0.000394
v 0.012813 0.000134 -0.000394
v -0.017728 0.387696 -0.444099
v -0.047608 0.300564 -0.247147
v -0.052324 0.159104 -0.099115
v 0.042792 0.160099 -0.102044
v 0.026024 0.301334 -0.249413
v -0.006628 -0.000935 0.009218
v 0.006628 0.000935 -0.009218
v -0.354445 0.183386 -0.275862
v -0.240479 0.205008 -0.119883
v -0.111267 0.142814 -0.010789
v -0.062068 0.149754 -0.079214
v -0.202393 0.210380 -0.172852
v -0.008237 0.001269 -0.006393
v 0.008426 -0.001481 0.006111
v 0.308893 0.228126 -0.248819
v 0.141666 0.217978 -0.166831
v 0.036674 0.144627 -0.085192
v 0.093074 0.127696 -0.034046
v 0.181515 0.200859 -0.124823
v -0.012817 -0.000241 0.000225
v 0.012809 0.000027 -0.000564
v -0.017729 0.387513 -0.444180
v -0.047609 0.300399 -0.247260
v -0.052327 0.158976 -0.099269
v 0.042788 0.159971 -0.102198
v 0.026022 0.301169 -0.249527
v -0.006758 -0.001044 0.009113
v 0.006497 0.000825 -0.009322
v -0.354412 0.183188 -0.275858
v -0.240492 0.204810 -0.119912
v -0.111359 0.142657 -0.010871
v -0.062159 0.149595 -0.079295
v -0.202401 0.210182 -0.172878
vt 0.8048 0.8266
vt 0.8167 0.8266
vt 0.8107 0.8612
vt 0.8087 0.7632
vt 0.8128 0.7632
vt 0.8184 0.7936
vt 0.8031 0.7936
vt 0.9265 0.8266
vt 0.9384 0.8266
vt 0.9325 0.8612
vt 0.9304 0.7632
vt 0.9346 0.7632
vt 0.9402 0.7936
vt 0.9248 0.7936
vt 0.8048 0.8266
vt 0.8167 0.8266
vt 0.8107 0.8612
vt 0.8087 0.7632
vt 0.8128 0.7632
vt 0.8184 0.7936
vt 0.8031 0.7936
vt 0.8048 0.8266
vt 0.8107 0.8612
vt 0.8167 0.8266
vt 0.8087 0.7632
vt 0.8031 0.7936
vt 0.8184 0.7936
vt 0.8128 0.7632
vt 0.9265 0.8266
vt 0.9325 0.8612
vt 0.9384 0.8266
vt 0.9304 0.7632
vt 0.9248 0.7936
vt 0.9402 0.7936
vt 0.9346 0.7632
vt 0.8048 0.8266
vt 0.8107 0.8612
vt 0.8167 0.8266
vt 0.8087 0.7632
vt 0.8031 0.7936
vt 0.8184 0.7936
vt 0.8128 0.7632
vn 0.0901 0.9492 0.3014
vn -0.4706 0.5313 0.7045
vn -0.1894 0.8428 0.5038
vn 0.0029 0.9143 0.4049
vn 0.0205 0.5335 0.8456
vn 0.0137 0.7227 0.6910
vn -0.1633 0.9864 -0.0174
vn 0.6520 0.5476 0.5244
vn 0.2308 0.9373 0.2610
vn -0.0901 -0.9492 -0.3013
vn 0.4706 -0.5312 -0.7045
vn 0.1894 -0.8428 -0.5038
vn -0.0029 -0.9143 -0.4049
vn -0.0205 -0.5335 -0.8456
vn -0.0137 -0.7227 -0.6910
vn 0.1633 -0.9864 0.0174
vn -0.6521 -0.5476 -0.5244
vn -0.2308 -0.9373 -0.2610
s off
f 4/1/1 7/2/1 3/3/1
f 1/4/2 2/5/2 6/6/2 5/7/2
f 5/7/3 6/6/3 7/2/3 4/1/3
f 11/8/4 14/9/4 10/10/4
f 8/11/5 9/12/5 13/13/5 12/14/5
f 12/14/6 13/13/6 14/9/6 11/8/6
f 18/15/7 21/16/7 17/17/7
f 15/18/8 16/19/8 20/20/8 19/21/8
f 19/21/9 20/20/9 21/16/9 18/15/9
f 25/22/10 24/23/10 28/24/10
f 22/25/11 26/26/11 27/27/11 23/28/11
f 26/26/12 25/22/12 28/24/12 27/27/12
f 32/29/13 31/30/13 35/31/13
f 29/32/14 33/33/14 34/34/14 30/35/14
f 33/33/15 32/29/15 35/31/15 34/34/15
f 39/36/16 38/37/16 42/38/16
f 36/39/17 40/40/17 41/41/17 37/42/17
f 40/40/18 39/36/18 42/38/18 41/41/18
