# Blender v2.78 (sub 0) OBJ File: 'Low_Poly_Vegetation_Pack.blend'
# www.blender.org
g Plant_i_TwoS_04
v 0.011299 0.256878 -0.011084
v -0.037002 0.291202 0.097458
v -0.000974 0.276955 0.050912
v -0.023940 0.282482 0.038884
v -0.089621 0.291419 0.042049
v -0.030759 0.281277 0.027600
v -0.044603 0.274257 0.005599
v -0.071143 0.265918 -0.021230
v -0.035746 0.267465 -0.007922
v -0.033742 0.261232 -0.024647
v 0.030994 0.262012 0.087435
v 0.032596 0.259723 0.040285
v 0.014847 0.267720 0.043416
v 0.012686 0.132793 -0.007959
v -0.057965 0.132065 0.115672
v -0.019584 0.140247 0.072712
v -0.042344 0.130392 0.059647
v 0.154380 0.146137 -0.003302
v 0.094287 0.139074 -0.021046
v 0.092462 0.148158 0.008447
v 0.160474 0.174732 0.080485
v 0.102844 0.155949 0.025376
v 0.083419 0.163285 0.053682
v 0.007227 0.164577 0.166347
v 0.025280 0.159879 0.089214
v -0.007950 0.149253 0.090431
v 0.102596 0.185723 0.158773
v 0.077535 0.166984 0.068439
v 0.040655 0.164540 0.089102
v 0.009896 0.308966 -0.010389
v 0.054915 0.347359 -0.057566
v 0.030755 0.328319 -0.042640
v 0.042121 0.327727 -0.032601
v 0.091433 0.345147 -0.013839
v 0.049380 0.326536 -0.024118
v 0.050997 0.325084 -0.002797
v 0.056741 0.319485 0.023070
v 0.039344 0.318242 0.002494
v 0.032973 0.312429 0.012445
v 0.018750 0.343247 -0.072670
v 0.008265 0.323873 -0.048138
v 0.021471 0.326598 -0.044341
v 0.004119 0.080932 -0.005761
v 0.027421 0.112616 -0.138146
v 0.001526 0.101437 -0.085216
v 0.029988 0.097385 -0.080193
v -0.114860 0.107994 0.065901
v -0.057303 0.092755 0.049350
v -0.071792 0.097361 0.022877
v -0.197729 0.129058 -0.023920
v -0.109360 0.105047 0.004583
v -0.105953 0.099418 -0.037206
v -0.075630 0.131775 -0.191351
v -0.060965 0.101922 -0.103743
v -0.022582 0.107899 -0.119607
v -0.177250 0.138563 -0.137089
v -0.107873 0.101232 -0.056237
v -0.078490 0.101886 -0.096530
v 0.014108 0.169391 -0.012453
v 0.119805 0.186778 -0.065240
v 0.072566 0.186289 -0.053016
v 0.083488 0.178447 -0.033732
v -0.083367 0.170491 -0.081431
v -0.049097 0.167231 -0.041291
v -0.035379 0.177944 -0.060505
v -0.052531 0.202409 -0.141170
v -0.035718 0.185388 -0.076770
v -0.010162 0.195828 -0.086997
v 0.094095 0.214163 -0.129486
v 0.046770 0.200963 -0.084597
v 0.071579 0.194729 -0.070361
v 0.022130 0.223880 -0.167930
v 0.000241 0.200853 -0.094321
v 0.035528 0.203682 -0.091509
v 0.008495 0.354553 -0.009595
v -0.045064 0.386446 -0.019598
v -0.020764 0.371477 -0.007709
v -0.016162 0.375350 -0.019832
v -0.022216 0.386582 -0.051217
v -0.011321 0.374376 -0.024448
v -0.002447 0.370233 -0.034094
v -0.037692 0.364379 0.010602
v -0.014647 0.358661 0.006393
v -0.016783 0.364655 -0.001406
v 0.011246 0.256695 -0.011025
v -0.037057 0.291010 0.097474
v -0.001036 0.276768 0.050943
v -0.024001 0.282294 0.038915
v -0.089636 0.291232 0.042119
v -0.030784 0.281093 0.027674
v -0.044628 0.274073 0.005673
v -0.071160 0.265731 -0.021162
v -0.035773 0.267278 -0.007856
v -0.033770 0.261045 -0.024581
v 0.030913 0.261830 0.087441
v 0.032518 0.259541 0.040309
v 0.014769 0.267537 0.043440
v 0.012727 0.132604 -0.007906
v -0.057898 0.131878 0.115697
v -0.019522 0.140060 0.072744
v -0.042282 0.130205 0.059679
v 0.154385 0.145946 -0.003243
v 0.094302 0.138884 -0.020987
v 0.092477 0.147967 0.008506
v 0.160484 0.174540 0.080541
v 0.102860 0.155759 0.025437
v 0.083436 0.163095 0.053743
v 0.007289 0.164388 0.166373
v 0.025341 0.159692 0.089249
v -0.007889 0.149066 0.090466
v 0.102627 0.185528 0.158805
v 0.077570 0.166791 0.068480
v 0.040691 0.164347 0.089143
v 0.009965 0.308785 -0.010441
v 0.054987 0.347196 -0.057657
v 0.030818 0.328148 -0.042722
v 0.042185 0.327555 -0.032683
v 0.091518 0.344967 -0.013857
v 0.049460 0.326353 -0.024136
v 0.051077 0.324902 -0.002816
v 0.056817 0.319308 0.023016
v 0.039421 0.318065 0.002440
v 0.033051 0.312253 0.012392
v 0.018812 0.343085 -0.072771
v 0.008325 0.323703 -0.048225
v 0.021531 0.326428 -0.044428
v 0.004095 0.080735 -0.005782
v 0.027402 0.112423 -0.138196
v 0.001507 0.101244 -0.085266
v 0.029969 0.097192 -0.080243
v -0.114913 0.107801 0.065896
v -0.057352 0.092561 0.049343
v -0.071841 0.097167 0.022870
v -0.197788 0.128868 -0.023900
v -0.109409 0.104854 0.004605
v -0.106001 0.099225 -0.037184
v -0.075627 0.131586 -0.191416
v -0.060959 0.101731 -0.103800
v -0.022576 0.107707 -0.119663
v -0.177302 0.138374 -0.137131
v -0.107913 0.101038 -0.056268
v -0.078529 0.101692 -0.096561
v 0.014130 0.169207 -0.012529
v 0.119789 0.186590 -0.065308
v 0.072559 0.186103 -0.053088
v 0.083481 0.178260 -0.033804
v -0.083312 0.170309 -0.081493
v -0.049050 0.167049 -0.041359
v -0.035332 0.177762 -0.060573
v -0.052481 0.202226 -0.141232
v -0.035672 0.185206 -0.076839
v -0.010116 0.195646 -0.087067
v 0.094086 0.213974 -0.129552
v 0.046765 0.200777 -0.084671
v 0.071574 0.194543 -0.070434
v 0.022150 0.223689 -0.167984
v 0.000262 0.200665 -0.094385
v 0.035548 0.203494 -0.091573
v 0.008392 0.354398 -0.009668
v -0.045131 0.386275 -0.019678
v -0.020845 0.371314 -0.007792
v -0.016242 0.375187 -0.019914
v -0.022325 0.386418 -0.051247
v -0.011436 0.374217 -0.024485
v -0.002562 0.370074 -0.034132
v -0.037751 0.364220 0.010496
v -0.014722 0.358505 0.006294
v -0.016858 0.364499 -0.001506
v -0.005400 0.000000 -0.002589
v 0.011357 0.166420 -0.013267
v 0.004942 0.000000 -0.003382
v 0.018262 0.171113 -0.014989
v 0.000458 0.000000 0.005971
v 0.014908 0.170556 -0.007863
v 0.008202 0.354674 -0.009614
v 0.008449 0.354643 -0.009758
v 0.008389 0.354545 -0.009552
vt 0.8329 0.8156
vt 0.8412 0.7576
vt 0.8495 0.8156
vt 0.8412 0.8671
vt 0.8323 0.8198
vt 0.8501 0.8198
vt 0.8412 0.8671
vt 0.8317 0.8241
vt 0.8507 0.8241
vt 0.8412 0.8671
vt 0.8326 0.8179
vt 0.8498 0.8179
vt 0.8412 0.8671
vt 0.8317 0.8241
vt 0.8507 0.8241
vt 0.8412 0.8671
vt 0.8322 0.8205
vt 0.8412 0.7576
vt 0.8502 0.8205
vt 0.8412 0.8671
vt 0.8326 0.8179
vt 0.8498 0.8179
vt 0.8412 0.8671
vt 0.8323 0.8198
vt 0.8501 0.8198
vt 0.8412 0.8671
vt 0.8329 0.8156
vt 0.8495 0.8156
vt 0.8412 0.8671
vt 0.9334 0.8155
vt 0.9415 0.7593
vt 0.9495 0.8155
vt 0.9415 0.8653
vt 0.9329 0.8195
vt 0.9501 0.8195
vt 0.9415 0.8653
vt 0.9323 0.8237
vt 0.9507 0.8237
vt 0.9415 0.8653
vt 0.9331 0.8177
vt 0.9498 0.8177
vt 0.9415 0.8653
vt 0.8317 0.8241
vt 0.8507 0.8241
vt 0.8412 0.8671
vt 0.8322 0.8205
vt 0.8412 0.7576
vt 0.8502 0.8205
vt 0.8412 0.8671
vt 0.8326 0.8179
vt 0.8498 0.8179
vt 0.8412 0.8671
vt 0.8323 0.8198
vt 0.8501 0.8198
vt 0.8412 0.8671
vt 0.8329 0.8156
vt 0.8495 0.8156
vt 0.8412 0.8671
vt 0.9323 0.8237
vt 0.9507 0.8237
vt 0.9415 0.8653
vt 0.9328 0.8203
vt 0.9415 0.7593
vt 0.9502 0.8203
vt 0.9415 0.8653
vt 0.9331 0.8177
vt 0.9498 0.8177
vt 0.9415 0.8653
vt 0.9329 0.8195
vt 0.9501 0.8195
vt 0.9415 0.8653
vt 0.9334 0.8155
vt 0.9495 0.8155
vt 0.9415 0.8653
vt 0.8329 0.8156
vt 0.8412 0.7576
vt 0.8495 0.8156
vt 0.8412 0.8671
vt 0.8323 0.8198
vt 0.8501 0.8198
vt 0.8412 0.8671
vt 0.8326 0.8179
vt 0.8498 0.8179
vt 0.8412 0.8671
vt 0.8329 0.8156
vt 0.8495 0.8156
vt 0.8412 0.7576
vt 0.8412 0.8671
vt 0.8323 0.8198
vt 0.8501 0.8198
vt 0.8412 0.8671
vt 0.8317 0.8241
vt 0.8412 0.8671
vt 0.8507 0.8241
vt 0.8326 0.8179
vt 0.8498 0.8179
vt 0.8412 0.8671
vt 0.8317 0.8241
vt 0.8412 0.8671
vt 0.8507 0.8241
vt 0.8322 0.8205
vt 0.8502 0.8205
vt 0.8412 0.7576
vt 0.8412 0.8671
vt 0.8326 0.8179
vt 0.8498 0.8179
vt 0.8412 0.8671
vt 0.8323 0.8198
vt 0.8501 0.8198
vt 0.8412 0.8671
vt 0.8329 0.8156
vt 0.8495 0.8156
vt 0.8412 0.8671
vt 0.9334 0.8155
vt 0.9495 0.8155
vt 0.9415 0.7593
vt 0.9415 0.8653
vt 0.9329 0.8195
vt 0.9501 0.8195
vt 0.9415 0.8653
vt 0.9323 0.8237
vt 0.9415 0.8653
vt 0.9507 0.8237
vt 0.9331 0.8177
vt 0.9498 0.8177
vt 0.9415 0.8653
vt 0.8317 0.8241
vt 0.8412 0.8671
vt 0.8507 0.8241
vt 0.8322 0.8205
vt 0.8502 0.8205
vt 0.8412 0.7576
vt 0.8412 0.8671
vt 0.8326 0.8179
vt 0.8498 0.8179
vt 0.8412 0.8671
vt 0.8323 0.8198
vt 0.8501 0.8198
vt 0.8412 0.8671
vt 0.8329 0.8156
vt 0.8495 0.8156
vt 0.8412 0.8671
vt 0.9323 0.8237
vt 0.9415 0.8653
vt 0.9507 0.8237
vt 0.9328 0.8203
vt 0.9502 0.8203
vt 0.9415 0.7593
vt 0.9415 0.8653
vt 0.9331 0.8177
vt 0.9498 0.8177
vt 0.9415 0.8653
vt 0.9329 0.8195
vt 0.9501 0.8195
vt 0.9415 0.8653
vt 0.9334 0.8155
vt 0.9495 0.8155
vt 0.9415 0.8653
vt 0.8329 0.8156
vt 0.8495 0.8156
vt 0.8412 0.7576
vt 0.8412 0.8671
vt 0.8323 0.8198
vt 0.8501 0.8198
vt 0.8412 0.8671
vt 0.8326 0.8179
vt 0.8498 0.8179
vt 0.8412 0.8671
vt 0.8089 0.7759
vt 0.8089 0.8573
vt 0.8042 0.8573
vt 0.8042 0.7759
vt 0.7995 0.8573
vt 0.7995 0.7759
vt 0.8136 0.7759
vt 0.8136 0.8573
vt 0.8136 0.8573
vt 0.8082 0.8573
vt 0.8042 0.8573
vt 0.7995 0.8573
vn 0.3392 0.9126 -0.2284
vn 0.2734 0.9584 -0.0817
vn 0.1643 0.9051 -0.3922
vn 0.0761 0.9350 -0.3463
vn 0.0864 0.9369 -0.3388
vn 0.1870 0.9276 -0.3233
vn 0.3719 0.9055 -0.2043
vn 0.4061 0.9133 -0.0305
vn -0.3349 0.9344 -0.1213
vn -0.1208 0.9466 -0.2990
vn -0.0249 0.9550 -0.2957
vn -0.1204 0.9378 -0.3257
vn -0.0452 0.9590 -0.2796
vn -0.3045 0.9270 -0.2189
vn -0.3063 0.9431 -0.1291
vn -0.2033 0.9464 -0.2510
vn -0.1540 0.9751 -0.1596
vn -0.2891 0.9357 -0.2021
vn -0.2714 0.8926 0.3601
vn -0.3600 0.8141 0.4557
vn -0.3781 0.9212 0.0914
vn -0.4219 0.9018 0.0934
vn -0.3831 0.8832 0.2706
vn -0.3927 0.8812 0.2633
vn -0.2872 0.8866 0.3625
vn -0.3111 0.8060 0.5036
vn 0.0932 0.9640 0.2492
vn 0.2274 0.9728 0.0448
vn 0.2624 0.9647 0.0242
vn 0.1964 0.9737 -0.1151
vn 0.2920 0.9507 -0.1043
vn -0.0511 0.9691 0.2415
vn -0.0132 0.9458 0.3245
vn 0.1290 0.9855 0.1101
vn 0.2643 0.9417 0.2080
vn 0.0939 0.9647 0.2459
vn 0.0776 0.9381 0.3375
vn -0.1980 0.9094 0.3658
vn -0.2764 0.9097 0.3099
vn -0.2117 0.8974 0.3872
vn -0.2515 0.9175 0.3082
vn 0.0001 0.9161 0.4010
vn 0.0485 0.9433 0.3285
vn -0.1036 0.9224 0.3720
vn -0.0983 0.9577 0.2704
vn -0.0046 0.9254 0.3789
vn 0.4734 0.7709 0.4261
vn 0.3314 0.8549 0.3990
vn 0.6008 0.7677 0.2230
vn 0.5486 0.8222 0.1516
vn 0.4541 0.7622 0.4614
vn 0.2941 0.7951 0.5305
vn -0.3392 -0.9126 0.2284
vn -0.2734 -0.9584 0.0817
vn -0.1643 -0.9051 0.3922
vn -0.0761 -0.9350 0.3463
vn -0.0864 -0.9369 0.3388
vn -0.1870 -0.9276 0.3233
vn -0.3719 -0.9055 0.2043
vn -0.4061 -0.9133 0.0305
vn 0.3349 -0.9344 0.1213
vn 0.1208 -0.9466 0.2990
vn 0.0249 -0.9550 0.2957
vn 0.1204 -0.9378 0.3257
vn 0.0452 -0.9590 0.2796
vn 0.3045 -0.9270 0.2189
vn 0.3063 -0.9431 0.1291
vn 0.2033 -0.9464 0.2510
vn 0.1540 -0.9751 0.1595
vn 0.2891 -0.9357 0.2021
vn 0.2714 -0.8926 -0.3600
vn 0.3600 -0.8141 -0.4557
vn 0.3781 -0.9212 -0.0914
vn 0.4219 -0.9018 -0.0934
vn 0.3831 -0.8832 -0.2706
vn 0.3927 -0.8812 -0.2633
vn 0.2872 -0.8866 -0.3625
vn 0.3111 -0.8060 -0.5035
vn -0.0932 -0.9640 -0.2492
vn -0.2274 -0.9728 -0.0448
vn -0.2624 -0.9647 -0.0242
vn -0.1964 -0.9737 0.1152
vn -0.2920 -0.9507 0.1043
vn 0.0511 -0.9691 -0.2415
vn 0.0132 -0.9458 -0.3245
vn -0.1290 -0.9855 -0.1101
vn -0.2643 -0.9417 -0.2080
vn -0.0939 -0.9647 -0.2459
vn -0.0776 -0.9381 -0.3375
vn 0.1980 -0.9094 -0.3658
vn 0.2764 -0.9097 -0.3099
vn 0.2117 -0.8974 -0.3872
vn 0.2515 -0.9175 -0.3081
vn -0.0001 -0.9161 -0.4010
vn -0.0485 -0.9433 -0.3285
vn 0.1036 -0.9224 -0.3720
vn 0.0983 -0.9577 -0.2704
vn 0.0046 -0.9254 -0.3789
vn -0.4734 -0.7709 -0.4261
vn -0.3314 -0.8550 -0.3990
vn -0.6008 -0.7677 -0.2229
vn -0.5486 -0.8222 -0.1516
vn -0.4541 -0.7622 -0.4614
vn -0.2941 -0.7951 -0.5305
vn -0.1297 -0.0538 -0.9901
vn 0.9028 -0.0415 0.4280
vn -0.8393 0.1164 0.5311
vn -0.8167 -0.0243 0.5765
vn -0.2610 0.0140 -0.9652
vn 0.9047 0.0361 0.4244
s off
f 3/1/1 1/2/1 4/3/1
f 3/1/2 4/3/2 2/4/2
f 6/5/3 1/2/3 7/6/3
f 6/5/4 7/6/4 5/7/4
f 9/8/5 10/9/5 8/10/5
f 9/8/6 1/2/6 10/9/6
f 12/11/7 1/2/7 13/12/7
f 12/11/8 13/12/8 11/13/8
f 16/14/9 17/15/9 15/16/9
f 19/17/10 14/18/10 20/19/10
f 19/17/11 20/19/11 18/20/11
f 22/21/12 14/18/12 23/22/12
f 22/21/13 23/22/13 21/23/13
f 25/24/14 14/18/14 26/25/14
f 25/24/15 26/25/15 24/26/15
f 28/27/16 14/18/16 29/28/16
f 28/27/17 29/28/17 27/29/17
f 16/14/18 14/18/18 17/15/18
f 32/30/19 30/31/19 33/32/19
f 32/30/20 33/32/20 31/33/20
f 35/34/21 30/31/21 36/35/21
f 35/34/22 36/35/22 34/36/22
f 38/37/23 39/38/23 37/39/23
f 38/37/24 30/31/24 39/38/24
f 41/40/25 30/31/25 42/41/25
f 41/40/26 42/41/26 40/42/26
f 45/43/27 46/44/27 44/45/27
f 48/46/28 43/47/28 49/48/28
f 48/46/29 49/48/29 47/49/29
f 51/50/30 43/47/30 52/51/30
f 51/50/31 52/51/31 50/52/31
f 54/53/32 43/47/32 55/54/32
f 54/53/33 55/54/33 53/55/33
f 57/56/34 43/47/34 58/57/34
f 57/56/35 58/57/35 56/58/35
f 45/43/36 43/47/36 46/44/36
f 61/59/37 62/60/37 60/61/37
f 64/62/38 59/63/38 65/64/38
f 64/62/39 65/64/39 63/65/39
f 67/66/40 59/63/40 68/67/40
f 67/66/41 68/67/41 66/68/41
f 70/69/42 59/63/42 71/70/42
f 70/69/43 71/70/43 69/71/43
f 73/72/44 59/63/44 74/73/44
f 73/72/45 74/73/45 72/74/45
f 61/59/46 59/63/46 62/60/46
f 77/75/47 75/76/47 78/77/47
f 77/75/48 78/77/48 76/78/48
f 80/79/49 75/76/49 81/80/49
f 80/79/50 81/80/50 79/81/50
f 83/82/51 75/76/51 84/83/51
f 83/82/52 84/83/52 82/84/52
f 87/85/53 88/86/53 85/87/53
f 87/85/54 86/88/54 88/86/54
f 90/89/55 91/90/55 85/87/55
f 90/89/56 89/91/56 91/90/56
f 93/92/57 92/93/57 94/94/57
f 93/92/58 94/94/58 85/87/58
f 96/95/59 97/96/59 85/87/59
f 96/95/60 95/97/60 97/96/60
f 100/98/61 99/99/61 101/100/61
f 103/101/62 104/102/62 98/103/62
f 103/101/63 102/104/63 104/102/63
f 106/105/64 107/106/64 98/103/64
f 106/105/65 105/107/65 107/106/65
f 109/108/66 110/109/66 98/103/66
f 109/108/67 108/110/67 110/109/67
f 112/111/68 113/112/68 98/103/68
f 112/111/69 111/113/69 113/112/69
f 100/98/70 101/100/70 98/103/70
f 116/114/71 117/115/71 114/116/71
f 116/114/72 115/117/72 117/115/72
f 119/118/73 120/119/73 114/116/73
f 119/118/74 118/120/74 120/119/74
f 122/121/75 121/122/75 123/123/75
f 122/121/76 123/123/76 114/116/76
f 125/124/77 126/125/77 114/116/77
f 125/124/78 124/126/78 126/125/78
f 129/127/79 128/128/79 130/129/79
f 132/130/80 133/131/80 127/132/80
f 132/130/81 131/133/81 133/131/81
f 135/134/82 136/135/82 127/132/82
f 135/134/83 134/136/83 136/135/83
f 138/137/84 139/138/84 127/132/84
f 138/137/85 137/139/85 139/138/85
f 141/140/86 142/141/86 127/132/86
f 141/140/87 140/142/87 142/141/87
f 129/127/88 130/129/88 127/132/88
f 145/143/89 144/144/89 146/145/89
f 148/146/90 149/147/90 143/148/90
f 148/146/91 147/149/91 149/147/91
f 151/150/92 152/151/92 143/148/92
f 151/150/93 150/152/93 152/151/93
f 154/153/94 155/154/94 143/148/94
f 154/153/95 153/155/95 155/154/95
f 157/156/96 158/157/96 143/148/96
f 157/156/97 156/158/97 158/157/97
f 145/143/98 146/145/98 143/148/98
f 161/159/99 162/160/99 159/161/99
f 161/159/100 160/162/100 162/160/100
f 164/163/101 165/164/101 159/161/101
f 164/163/102 163/165/102 165/164/102
f 167/166/103 168/167/103 159/161/103
f 167/166/104 166/168/104 168/167/104
f 169/169/105 170/170/105 172/171/105 171/172/105
f 171/172/106 172/171/106 174/173/106 173/174/106
f 173/175/107 174/176/107 170/170/107 169/169/107
f 170/170/108 174/176/108 177/177/108 175/178/108
f 172/171/109 170/170/109 175/178/109 176/179/109
f 174/173/110 172/171/110 176/179/110 177/180/110
