# Blender v2.78 (sub 0) OBJ File: 'Low_Poly_Vegetation_Pack.blend'
# www.blender.org
g Plant_a_TwoS_01
v -0.000000 -0.000000 -0.000000
v 0.000000 0.593029 -1.016893
v -0.091259 0.520264 -0.680320
v -0.180727 0.323214 -0.295979
v -0.163512 0.091122 -0.047917
v 0.163512 0.091122 -0.047917
v 0.180727 0.323214 -0.295979
v 0.091259 0.520264 -0.680320
v -0.000000 -0.000465 -0.000885
v 0.000000 0.592052 -1.017105
v -0.091259 0.519329 -0.680675
v -0.180727 0.322400 -0.296560
v -0.163512 0.090453 -0.048660
v 0.163512 0.090453 -0.048660
v 0.180727 0.322400 -0.296560
v 0.091259 0.519329 -0.680675
vt 0.0546 0.8310
vt 0.0698 0.8317
vt 0.0607 0.8601
vt 0.0659 0.7583
vt 0.0791 0.7676
vt 0.0518 0.7662
vt 0.0791 0.7961
vt 0.0489 0.7945
vt 0.0546 0.8310
vt 0.0607 0.8601
vt 0.0698 0.8317
vt 0.0659 0.7583
vt 0.0518 0.7662
vt 0.0791 0.7676
vt 0.0489 0.7945
vt 0.0791 0.7961
vn 0.0000 0.9774 0.2113
vn 0.0000 0.4654 0.8851
vn 0.0000 0.7302 0.6832
vn 0.0000 0.8899 0.4562
vn 0.0000 -0.9774 -0.2113
vn 0.0000 -0.4652 -0.8852
vn 0.0000 -0.7302 -0.6832
vn 0.0000 -0.8899 -0.4562
s off
f 3/1/1 8/2/1 2/3/1
f 1/4/2 6/5/2 5/6/2
f 5/6/3 6/5/3 7/7/3 4/8/3
f 4/8/4 7/7/4 8/2/4 3/1/4
f 11/9/5 10/10/5 16/11/5
f 9/12/6 13/13/6 14/14/6
f 13/13/7 12/15/7 15/16/7 14/14/7
f 12/15/8 11/9/8 16/11/8 15/16/8
