# Blender v2.78 (sub 0) OBJ File: 'Low_Poly_Vegetation_Pack.blend'
# www.blender.org
g Plant_a_TwoS_04
v -0.043020 -0.000000 0.003381
v -0.808097 0.464168 0.668331
v -0.506880 0.426988 0.520978
v -0.164030 0.277122 0.335246
v 0.018078 0.081487 0.155417
v -0.185142 0.081346 -0.078305
v -0.388645 0.276966 0.076917
v -0.620300 0.426910 0.390534
v -0.026885 -0.000000 -0.044808
v -0.205501 0.880055 -0.986078
v -0.238890 0.685913 -0.603150
v -0.292591 0.441987 -0.269827
v -0.232750 0.110151 -0.051349
v 0.149948 0.110151 -0.150417
v 0.130399 0.441987 -0.379324
v -0.024516 0.674157 -0.653979
v 0.027908 -0.000000 0.028915
v 0.824172 0.398907 0.382254
v 0.599759 0.366955 0.201457
v 0.330307 0.238159 0.002232
v 0.123999 0.070030 -0.074021
v 0.016089 0.069909 0.169294
v 0.211037 0.238026 0.271165
v 0.539532 0.366887 0.337256
v -0.043650 -0.000550 0.003929
v -0.808183 0.463175 0.668406
v -0.507077 0.426023 0.521150
v -0.164405 0.276255 0.335573
v 0.017570 0.080748 0.155859
v -0.185650 0.080607 -0.077862
v -0.389021 0.276100 0.077245
v -0.620497 0.425944 0.390706
v -0.027106 -0.000465 -0.045665
v -0.205657 0.879179 -0.986535
v -0.239051 0.685086 -0.603688
v -0.292781 0.441316 -0.270543
v -0.232961 0.109612 -0.052165
v 0.149738 0.109611 -0.151232
v 0.130211 0.441307 -0.380033
v -0.024677 0.673329 -0.654516
v 0.028672 -0.000550 0.029253
v 0.824276 0.397914 0.382300
v 0.599998 0.365990 0.201563
v 0.330763 0.237293 0.002434
v 0.124615 0.069291 -0.073748
v 0.016705 0.069170 0.169567
v 0.211492 0.237159 0.271366
v 0.539772 0.365922 0.337361
vt 0.1743 0.8235
vt 0.1873 0.8241
vt 0.1796 0.8482
vt 0.1840 0.7617
vt 0.1952 0.7696
vt 0.1720 0.7684
vt 0.1952 0.7938
vt 0.1695 0.7925
vt 0.0780 0.8300
vt 0.0946 0.8308
vt 0.0848 0.8616
vt 0.0895 0.7617
vt 0.1034 0.7724
vt 0.0738 0.7696
vt 0.1034 0.8027
vt 0.0707 0.7996
vt 0.0271 0.8148
vt 0.0382 0.8154
vt 0.0316 0.8361
vt 0.0353 0.7617
vt 0.0450 0.7685
vt 0.0251 0.7675
vt 0.0450 0.7893
vt 0.0230 0.7882
vt 0.1743 0.8235
vt 0.1796 0.8482
vt 0.1873 0.8241
vt 0.1840 0.7617
vt 0.1720 0.7684
vt 0.1952 0.7696
vt 0.1695 0.7925
vt 0.1952 0.7938
vt 0.0780 0.8300
vt 0.0848 0.8616
vt 0.0946 0.8308
vt 0.0895 0.7617
vt 0.0738 0.7696
vt 0.1034 0.7724
vt 0.0707 0.7996
vt 0.1034 0.8027
vt 0.0271 0.8148
vt 0.0316 0.8361
vt 0.0382 0.8154
vt 0.0353 0.7617
vt 0.0251 0.7675
vt 0.0450 0.7685
vt 0.0230 0.7882
vt 0.0450 0.7893
vn 0.0858 0.9935 -0.0752
vn 0.6300 0.5502 -0.5481
vn 0.4586 0.7939 -0.3992
vn 0.2763 0.9304 -0.2408
vn 0.1565 0.8754 0.4574
vn 0.2218 0.4654 0.8568
vn 0.2070 0.5638 0.7996
vn 0.1633 0.7898 0.5913
vn -0.1045 0.9935 -0.0459
vn -0.7634 0.5502 -0.3383
vn -0.5560 0.7939 -0.2462
vn -0.3352 0.9304 -0.1482
vn -0.0858 -0.9935 0.0752
vn -0.6301 -0.5500 0.5482
vn -0.4586 -0.7939 0.3993
vn -0.2763 -0.9304 0.2408
vn -0.1565 -0.8754 -0.4574
vn -0.2218 -0.4654 -0.8569
vn -0.2070 -0.5637 -0.7996
vn -0.1633 -0.7898 -0.5912
vn 0.1045 -0.9935 0.0458
vn 0.7636 -0.5499 0.3384
vn 0.5560 -0.7939 0.2462
vn 0.3352 -0.9304 0.1482
s off
f 3/1/1 8/2/1 2/3/1
f 1/4/2 6/5/2 5/6/2
f 5/6/3 6/5/3 7/7/3 4/8/3
f 4/8/4 7/7/4 8/2/4 3/1/4
f 11/9/5 16/10/5 10/11/5
f 9/12/6 14/13/6 13/14/6
f 13/14/7 14/13/7 15/15/7 12/16/7
f 12/16/8 15/15/8 16/10/8 11/9/8
f 19/17/9 24/18/9 18/19/9
f 17/20/10 22/21/10 21/22/10
f 21/22/11 22/21/11 23/23/11 20/24/11
f 20/24/12 23/23/12 24/18/12 19/17/12
f 27/25/13 26/26/13 32/27/13
f 25/28/14 29/29/14 30/30/14
f 29/29/15 28/31/15 31/32/15 30/30/15
f 28/31/16 27/25/16 32/27/16 31/32/16
f 35/33/17 34/34/17 40/35/17
f 33/36/18 37/37/18 38/38/18
f 37/37/19 36/39/19 39/40/19 38/38/19
f 36/39/20 35/33/20 40/35/20 39/40/20
f 43/41/21 42/42/21 48/43/21
f 41/44/22 45/45/22 46/46/22
f 45/45/23 44/47/23 47/48/23 46/46/23
f 44/47/24 43/41/24 48/43/24 47/48/24
