# Blender v2.78 (sub 0) OBJ File: 'Low_Poly_Vegetation_Pack.blend'
# www.blender.org
g Plant_h_TwoS_04
v -0.003374 -0.003927 -0.000238
v -0.150788 0.101713 0.098568
v -0.166227 0.121986 -0.016914
v -0.208886 0.137058 0.051988
v -0.059706 0.037902 0.093492
v -0.079812 0.064302 -0.056896
v -0.064476 0.058582 0.018905
v -0.155549 0.117513 0.041426
v 0.003205 -0.004815 -0.002623
v 0.051516 0.124698 -0.214760
v 0.162449 0.149552 -0.124778
v 0.142513 0.168031 -0.222109
v -0.025428 0.046467 -0.133598
v 0.119035 0.078834 -0.016418
v 0.041582 0.071820 -0.071104
v 0.103840 0.144069 -0.167814
v 0.000081 0.001544 0.001194
v 0.123932 0.121391 0.089422
v 0.015961 0.107855 0.159349
v 0.095411 0.130168 0.166713
v 0.097797 0.067977 0.005507
v -0.041604 0.050077 0.098354
v 0.024502 0.069227 0.047737
v 0.068564 0.121186 0.123225
v -0.001142 -0.004047 -0.001177
v -0.144985 0.057840 -0.109398
v -0.037421 0.048193 -0.180585
v -0.118883 0.061384 -0.187951
v -0.110413 0.031154 -0.018024
v 0.029664 0.018591 -0.110728
v -0.038752 0.032299 -0.062930
v -0.090480 0.058386 -0.144628
v -0.003517 -0.004066 -0.000243
v -0.150890 0.101545 0.098529
v -0.166324 0.121811 -0.016909
v -0.208958 0.136873 0.051965
v -0.059833 0.037750 0.093458
v -0.079933 0.064143 -0.056884
v -0.064604 0.058429 0.018895
v -0.155642 0.117337 0.041407
v 0.003313 -0.004954 -0.002718
v 0.051617 0.124530 -0.214802
v 0.162515 0.149377 -0.124848
v 0.142581 0.167846 -0.222142
v -0.025313 0.046315 -0.133660
v 0.119115 0.078674 -0.016509
v 0.041682 0.071667 -0.071184
v 0.103920 0.143892 -0.167864
v 0.000180 0.001423 0.001318
v 0.123975 0.121211 0.089496
v 0.016044 0.107680 0.159399
v 0.095448 0.129972 0.166731
v 0.097859 0.067821 0.005617
v -0.041500 0.049927 0.098436
v 0.024588 0.069079 0.047839
v 0.068619 0.121000 0.123274
v -0.001203 -0.004225 -0.001244
v -0.145006 0.057644 -0.109434
v -0.037470 0.048000 -0.180602
v -0.118902 0.061185 -0.187953
v -0.110447 0.030965 -0.018081
v 0.029601 0.018405 -0.110766
v -0.038803 0.032113 -0.062982
v -0.090511 0.058189 -0.144646
vt 0.1872 0.7135
vt 0.2146 0.7129
vt 0.1872 0.7343
vt 0.1598 0.7129
vt 0.1872 0.6372
vt 0.2229 0.6710
vt 0.1872 0.6713
vt 0.1515 0.6710
vt 0.1872 0.7135
vt 0.2146 0.7129
vt 0.1872 0.7343
vt 0.1598 0.7129
vt 0.1872 0.6372
vt 0.2229 0.6710
vt 0.1872 0.6713
vt 0.1515 0.6710
vt 0.0557 0.7135
vt 0.0831 0.7129
vt 0.0557 0.7343
vt 0.0283 0.7129
vt 0.0557 0.6372
vt 0.0914 0.6710
vt 0.0557 0.6713
vt 0.0200 0.6710
vt 0.0557 0.7135
vt 0.0831 0.7129
vt 0.0557 0.7343
vt 0.0283 0.7129
vt 0.0557 0.6372
vt 0.0914 0.6710
vt 0.0557 0.6713
vt 0.0200 0.6710
vt 0.1872 0.7135
vt 0.1872 0.7343
vt 0.2146 0.7129
vt 0.1598 0.7129
vt 0.1872 0.6372
vt 0.1872 0.6713
vt 0.2229 0.6710
vt 0.1515 0.6710
vt 0.1872 0.7135
vt 0.1872 0.7343
vt 0.2146 0.7129
vt 0.1598 0.7129
vt 0.1872 0.6372
vt 0.1872 0.6713
vt 0.2229 0.6710
vt 0.1515 0.6710
vt 0.0557 0.7135
vt 0.0557 0.7343
vt 0.0831 0.7129
vt 0.0283 0.7129
vt 0.0557 0.6372
vt 0.0557 0.6713
vt 0.0914 0.6710
vt 0.0200 0.6710
vt 0.0557 0.7135
vt 0.0557 0.7343
vt 0.0831 0.7129
vt 0.0283 0.7129
vt 0.0557 0.6372
vt 0.0557 0.6713
vt 0.0914 0.6710
vt 0.0200 0.6710
vn 0.3456 0.9384 0.0087
vn 0.3736 0.9016 0.2182
vn 0.6988 0.7099 -0.0878
vn 0.5387 0.8416 -0.0405
vn 0.5683 0.8026 0.1812
vn 0.7291 0.6701 0.1392
vn -0.2573 0.9383 0.2309
vn -0.4214 0.9016 0.0977
vn -0.4480 0.7099 0.5434
vn -0.3640 0.8416 0.3991
vn -0.5377 0.8026 0.2583
vn -0.6258 0.6701 0.3992
vn -0.2673 0.9630 -0.0339
vn -0.0929 0.9849 -0.1461
vn -0.5914 0.5908 -0.5488
vn -0.4612 0.8270 -0.3215
vn -0.2593 0.8543 -0.4505
vn -0.3865 0.6132 -0.6889
vn 0.1631 0.9858 -0.0387
vn 0.0243 0.9983 0.0531
vn 0.3776 0.8800 0.2880
vn 0.2780 0.9515 0.1317
vn 0.1321 0.9646 0.2283
vn 0.2282 0.8934 0.3869
vn -0.3456 -0.9384 -0.0087
vn -0.3736 -0.9016 -0.2182
vn -0.6988 -0.7099 0.0878
vn -0.5386 -0.8416 0.0405
vn -0.5683 -0.8026 -0.1812
vn -0.7291 -0.6701 -0.1392
vn 0.2573 -0.9384 -0.2308
vn 0.4214 -0.9016 -0.0977
vn 0.4480 -0.7099 -0.5434
vn 0.3639 -0.8416 -0.3992
vn 0.5377 -0.8026 -0.2582
vn 0.6258 -0.6701 -0.3992
vn 0.2672 -0.9630 0.0339
vn 0.0929 -0.9849 0.1460
vn 0.5914 -0.5908 0.5489
vn 0.4612 -0.8270 0.3215
vn 0.2593 -0.8543 0.4505
vn 0.3865 -0.6132 0.6890
vn -0.1631 -0.9858 0.0387
vn -0.0243 -0.9983 -0.0531
vn -0.3776 -0.8800 -0.2880
vn -0.2780 -0.9515 -0.1317
vn -0.1320 -0.9646 -0.2283
vn -0.2282 -0.8934 -0.3869
s off
f 8/1/1 3/2/1 4/3/1
f 2/4/2 8/1/2 4/3/2
f 1/5/3 6/6/3 7/7/3
f 7/7/4 6/6/4 3/2/4 8/1/4
f 5/8/5 7/7/5 8/1/5 2/4/5
f 5/8/6 1/5/6 7/7/6
f 16/9/7 11/10/7 12/11/7
f 10/12/8 16/9/8 12/11/8
f 9/13/9 14/14/9 15/15/9
f 15/15/10 14/14/10 11/10/10 16/9/10
f 13/16/11 15/15/11 16/9/11 10/12/11
f 13/16/12 9/13/12 15/15/12
f 24/17/13 19/18/13 20/19/13
f 18/20/14 24/17/14 20/19/14
f 17/21/15 22/22/15 23/23/15
f 23/23/16 22/22/16 19/18/16 24/17/16
f 21/24/17 23/23/17 24/17/17 18/20/17
f 21/24/18 17/21/18 23/23/18
f 32/25/19 27/26/19 28/27/19
f 26/28/20 32/25/20 28/27/20
f 25/29/21 30/30/21 31/31/21
f 31/31/22 30/30/22 27/26/22 32/25/22
f 29/32/23 31/31/23 32/25/23 26/28/23
f 29/32/24 25/29/24 31/31/24
f 40/33/25 36/34/25 35/35/25
f 34/36/26 36/34/26 40/33/26
f 33/37/27 39/38/27 38/39/27
f 39/38/28 40/33/28 35/35/28 38/39/28
f 37/40/29 34/36/29 40/33/29 39/38/29
f 37/40/30 39/38/30 33/37/30
f 48/41/31 44/42/31 43/43/31
f 42/44/32 44/42/32 48/41/32
f 41/45/33 47/46/33 46/47/33
f 47/46/34 48/41/34 43/43/34 46/47/34
f 45/48/35 42/44/35 48/41/35 47/46/35
f 45/48/36 47/46/36 41/45/36
f 56/49/37 52/50/37 51/51/37
f 50/52/38 52/50/38 56/49/38
f 49/53/39 55/54/39 54/55/39
f 55/54/40 56/49/40 51/51/40 54/55/40
f 53/56/41 50/52/41 56/49/41 55/54/41
f 53/56/42 55/54/42 49/53/42
f 64/57/43 60/58/43 59/59/43
f 58/60/44 60/58/44 64/57/44
f 57/61/45 63/62/45 62/63/45
f 63/62/46 64/57/46 59/59/46 62/63/46
f 61/64/47 58/60/47 64/57/47 63/62/47
f 61/64/48 63/62/48 57/61/48
