# Blender v2.78 (sub 0) OBJ File: 'Low_Poly_Vegetation_Pack.blend'
# www.blender.org
g Plant_d_TwoS_07
v 0.047462 0.094254 -0.264055
v 0.121222 0.396537 -0.027609
v -0.116625 0.396537 -0.085464
v 0.005051 0.395209 -0.064663
v 0.170362 0.324802 -0.117767
v 0.156028 0.235757 -0.190796
v -0.065900 0.235757 -0.244778
v -0.110275 0.324802 -0.186030
v 0.040194 0.233245 -0.213279
v 0.025174 0.322290 -0.147391
v -0.056410 0.425774 -0.045833
v 0.048159 0.422089 -0.023514
v -0.357866 0.511966 -0.145239
v 0.194915 0.700121 -0.143485
v 0.068054 0.725247 0.192512
v 0.130658 0.697398 0.025344
v 0.055799 0.636118 -0.225926
v -0.100861 0.578804 -0.246074
v -0.227713 0.603929 0.089899
v -0.093885 0.665765 0.170519
v -0.159830 0.578248 -0.075424
v -0.014586 0.637823 -0.025040
v 0.159210 0.729435 0.120834
v 0.208901 0.714834 -0.027757
v 0.273265 0.181541 0.242846
v -0.092966 0.595892 0.227694
v 0.103285 0.595892 -0.074141
v 0.001284 0.581276 0.074256
v -0.001816 0.484741 0.325588
v 0.102096 0.356399 0.350625
v 0.298332 0.356399 0.048812
v 0.229741 0.484741 -0.030551
v 0.192520 0.345683 0.194716
v 0.106268 0.474026 0.142516
v 0.005122 0.626231 -0.020211
v -0.076834 0.620810 0.114011
v 0.047238 0.093909 -0.263143
v 0.121068 0.395757 -0.027003
v -0.116764 0.395760 -0.084850
v 0.004891 0.394450 -0.064032
v 0.170213 0.324102 -0.117069
v 0.155873 0.235228 -0.189962
v -0.066150 0.235235 -0.243963
v -0.110461 0.324102 -0.185341
v 0.039986 0.232762 -0.212429
v 0.025005 0.321592 -0.146694
v -0.056563 0.425002 -0.045216
v 0.048011 0.421314 -0.022899
v -0.357607 0.511015 -0.145070
v 0.195254 0.699186 -0.143376
v 0.068337 0.724325 0.192774
v 0.130972 0.696469 0.025540
v 0.056136 0.635184 -0.225812
v -0.100543 0.577863 -0.245962
v -0.227447 0.602998 0.090148
v -0.093602 0.664842 0.170777
v -0.159546 0.577306 -0.075246
v -0.014275 0.636891 -0.024852
v 0.159500 0.728512 0.121085
v 0.209236 0.713900 -0.027631
v 0.272538 0.181045 0.242372
v -0.093551 0.595132 0.227413
v 0.102787 0.595133 -0.074561
v 0.000742 0.580516 0.073896
v -0.002457 0.484046 0.325264
v 0.101381 0.355814 0.350245
v 0.297692 0.355817 0.048310
v 0.229182 0.484048 -0.031005
v 0.191826 0.345123 0.194265
v 0.105666 0.473330 0.142125
v 0.004616 0.625471 -0.020621
v -0.077411 0.620050 0.113713
v 0.003925 -0.000000 -0.060029
v 0.022919 0.329790 -0.138112
v -0.000522 -0.000000 -0.075207
v 0.019043 0.323228 -0.147089
v 0.014847 -0.000000 -0.071469
v 0.030486 0.323228 -0.144306
v 0.010581 0.167404 -0.087393
v 0.007137 0.165071 -0.098145
v 0.018580 0.165071 -0.095362
v 0.017864 -0.000000 0.020310
v 0.001373 0.643566 -0.019445
v -0.004937 -0.000000 0.024925
v -0.014936 0.638879 -0.015973
v 0.002467 -0.000000 0.002872
v -0.008833 0.637670 -0.032137
v 0.025779 0.329691 -0.004077
v 0.009591 0.326258 -0.000377
v 0.015103 0.326258 -0.016797
v 0.011543 -0.000000 0.073498
v -0.041085 0.260801 0.109118
v 0.006078 -0.000000 0.084749
v -0.043588 0.255612 0.116435
v -0.000933 -0.000000 0.074390
v -0.048808 0.255612 0.108723
v -0.006900 0.132385 0.085981
v -0.010599 0.130540 0.094107
v -0.015819 0.130540 0.086395
v -0.141131 0.093970 0.181980
v -0.047890 0.320395 -0.003149
v 0.060613 0.320395 0.157159
v 0.008420 0.312536 0.075612
v -0.115437 0.260632 0.021543
v -0.154145 0.192888 0.070278
v -0.045649 0.192888 0.230574
v 0.012587 0.260632 0.210692
v -0.095811 0.187127 0.147660
v -0.047338 0.254870 0.113351
v 0.054415 0.336707 0.097259
v 0.005055 0.333792 0.028604
v -0.004596 -0.000000 0.070433
v 0.094494 0.485057 0.134861
v 0.018635 -0.000000 0.071663
v 0.108841 0.475405 0.133860
v 0.005954 -0.000000 0.091166
v 0.099400 0.475405 0.148381
v 0.030131 0.246219 0.093012
v 0.046730 0.242787 0.093475
v 0.037289 0.242787 0.107996
vt 0.6971 0.8074
vt 0.6970 0.7725
vt 0.7250 0.7778
vt 0.7348 0.7940
vt 0.6970 0.8422
vt 0.7337 0.8198
vt 0.7250 0.8369
vt 0.6341 0.8074
vt 0.6701 0.8074
vt 0.6701 0.8369
vt 0.6700 0.7779
vt 0.7241 0.8074
vt 0.5783 0.8074
vt 0.5782 0.7725
vt 0.6062 0.7778
vt 0.6160 0.7940
vt 0.5782 0.8422
vt 0.6149 0.8198
vt 0.6062 0.8369
vt 0.5153 0.8074
vt 0.5513 0.8074
vt 0.5513 0.8369
vt 0.5512 0.7779
vt 0.6052 0.8074
vt 0.5783 0.8074
vt 0.5782 0.7725
vt 0.6062 0.7778
vt 0.6160 0.7940
vt 0.5782 0.8422
vt 0.6149 0.8198
vt 0.6062 0.8369
vt 0.5153 0.8074
vt 0.5513 0.8074
vt 0.5513 0.8369
vt 0.5512 0.7779
vt 0.6052 0.8074
vt 0.6971 0.8074
vt 0.7348 0.7940
vt 0.7250 0.7778
vt 0.6970 0.7725
vt 0.6970 0.8422
vt 0.7250 0.8369
vt 0.7337 0.8198
vt 0.6341 0.8074
vt 0.6701 0.8369
vt 0.6701 0.8074
vt 0.6700 0.7779
vt 0.7241 0.8074
vt 0.5783 0.8074
vt 0.6160 0.7940
vt 0.6062 0.7778
vt 0.5782 0.7725
vt 0.5782 0.8422
vt 0.6062 0.8369
vt 0.6149 0.8198
vt 0.5153 0.8074
vt 0.5513 0.8369
vt 0.5513 0.8074
vt 0.5512 0.7779
vt 0.6052 0.8074
vt 0.5783 0.8074
vt 0.6160 0.7940
vt 0.6062 0.7778
vt 0.5782 0.7725
vt 0.5782 0.8422
vt 0.6062 0.8369
vt 0.6149 0.8198
vt 0.5153 0.8074
vt 0.5513 0.8369
vt 0.5513 0.8074
vt 0.5512 0.7779
vt 0.6052 0.8074
vt 0.5687 0.8483
vt 0.5935 0.8488
vt 0.5930 0.8505
vt 0.5686 0.8500
vt 0.5930 0.8522
vt 0.5686 0.8517
vt 0.5687 0.8467
vt 0.5931 0.8470
vt 0.5443 0.8452
vt 0.5439 0.8476
vt 0.5442 0.8500
vt 0.5442 0.8522
vt 0.5687 0.8483
vt 0.5935 0.8488
vt 0.5930 0.8505
vt 0.5686 0.8500
vt 0.5930 0.8522
vt 0.5686 0.8517
vt 0.5687 0.8467
vt 0.5931 0.8470
vt 0.5443 0.8452
vt 0.5439 0.8476
vt 0.5442 0.8500
vt 0.5442 0.8522
vt 0.5687 0.8483
vt 0.5935 0.8488
vt 0.5930 0.8505
vt 0.5686 0.8500
vt 0.5930 0.8522
vt 0.5686 0.8517
vt 0.5687 0.8467
vt 0.5931 0.8470
vt 0.5443 0.8452
vt 0.5439 0.8476
vt 0.5442 0.8500
vt 0.5442 0.8522
vt 0.6971 0.8074
vt 0.6970 0.7725
vt 0.7250 0.7778
vt 0.7348 0.7940
vt 0.6970 0.8422
vt 0.7337 0.8198
vt 0.7250 0.8369
vt 0.6341 0.8074
vt 0.6701 0.8074
vt 0.6701 0.8369
vt 0.6700 0.7779
vt 0.7241 0.8074
vt 0.5687 0.8483
vt 0.5935 0.8488
vt 0.5930 0.8505
vt 0.5686 0.8500
vt 0.5930 0.8522
vt 0.5686 0.8517
vt 0.5687 0.8467
vt 0.5931 0.8470
vt 0.5443 0.8452
vt 0.5439 0.8476
vt 0.5442 0.8500
vt 0.5442 0.8522
vn 0.1392 0.7774 -0.6134
vn 0.1533 0.7802 -0.6065
vn 0.1715 0.3459 -0.9224
vn 0.1440 0.6090 -0.7800
vn 0.2748 0.3426 -0.8984
vn 0.2329 0.6086 -0.7586
vn 0.1864 0.7591 -0.6237
vn 0.1342 0.7594 -0.6367
vn -0.2836 0.9222 -0.2629
vn -0.3394 0.9343 -0.1089
vn -0.2855 0.9536 -0.0955
vn -0.3341 0.9350 -0.1192
vn -0.2305 0.9427 -0.2411
vn -0.2836 0.9249 -0.2531
vn -0.3038 0.9269 -0.2201
vn -0.3229 0.9310 -0.1701
vn 0.4974 0.7590 0.4201
vn 0.5854 0.7603 0.2814
vn 0.7652 0.4966 0.4097
vn 0.6918 0.6226 0.3658
vn 0.6862 0.4941 0.5339
vn 0.6165 0.6204 0.4848
vn 0.5267 0.7591 0.3826
vn 0.5562 0.7594 0.3377
vn -0.1392 -0.7775 0.6134
vn -0.1533 -0.7802 0.6065
vn -0.1715 -0.3459 0.9225
vn -0.1440 -0.6090 0.7800
vn -0.2749 -0.3425 0.8984
vn -0.2329 -0.6086 0.7586
vn -0.1864 -0.7591 0.6237
vn -0.1342 -0.7594 0.6367
vn 0.2836 -0.9222 0.2629
vn 0.3394 -0.9343 0.1089
vn 0.2855 -0.9536 0.0956
vn 0.3341 -0.9350 0.1192
vn 0.2305 -0.9427 0.2411
vn 0.2836 -0.9249 0.2531
vn 0.3038 -0.9269 0.2201
vn 0.3229 -0.9310 0.1701
vn -0.4974 -0.7590 -0.4201
vn -0.5854 -0.7604 -0.2814
vn -0.7652 -0.4966 -0.4097
vn -0.6918 -0.6226 -0.3658
vn -0.6862 -0.4941 -0.5339
vn -0.6165 -0.6204 -0.4848
vn -0.5266 -0.7591 -0.3826
vn -0.5562 -0.7594 -0.3377
vn -0.9469 0.1586 0.2798
vn 0.2252 -0.3035 -0.9258
vn 0.7125 0.1586 0.6835
vn 0.7186 0.0840 0.6904
vn 0.2339 -0.1445 -0.9615
vn -0.9554 0.0840 0.2832
vn 0.1998 0.0639 0.9777
vn -0.9392 -0.0894 -0.3315
vn 0.7673 0.0279 -0.6407
vn 0.7585 -0.0673 -0.6481
vn -0.9479 0.0175 -0.3182
vn 0.2025 0.0671 0.9770
vn 0.8891 0.1586 0.4293
vn -0.7891 -0.3035 0.5341
vn -0.0681 0.1586 -0.9850
vn -0.0680 0.0840 -0.9941
vn -0.8195 -0.1445 0.5546
vn 0.8977 0.0840 0.4325
vn -0.5804 0.7590 0.2950
vn -0.4869 0.7603 0.4299
vn -0.6627 0.5207 0.5383
vn -0.5771 0.6633 0.4764
vn -0.7477 0.5172 0.4164
vn -0.6578 0.6619 0.3594
vn -0.5573 0.7591 0.3365
vn -0.5274 0.7594 0.3811
vn 0.0499 0.1586 -0.9861
vn 0.7988 -0.3035 0.5194
vn -0.8810 0.1586 0.4457
vn -0.8895 0.0840 0.4491
vn 0.8296 -0.1445 0.5394
vn 0.0495 0.0840 -0.9952
s off
f 10/1/1 8/2/1 3/3/1 11/4/1
f 5/5/2 10/1/2 12/6/2 2/7/2
f 1/8/3 9/9/3 6/10/3
f 6/10/4 9/9/4 10/1/4 5/5/4
f 1/8/5 7/11/5 9/9/5
f 9/9/6 7/11/6 8/2/6 10/1/6
f 11/4/7 4/12/7 10/1/7
f 12/6/8 10/1/8 4/12/8
f 22/13/9 20/14/9 15/15/9 23/16/9
f 17/17/10 22/13/10 24/18/10 14/19/10
f 13/20/11 21/21/11 18/22/11
f 18/22/12 21/21/12 22/13/12 17/17/12
f 13/20/13 19/23/13 21/21/13
f 21/21/14 19/23/14 20/14/14 22/13/14
f 23/16/15 16/24/15 22/13/15
f 24/18/16 22/13/16 16/24/16
f 34/25/17 32/26/17 27/27/17 35/28/17
f 29/29/18 34/25/18 36/30/18 26/31/18
f 25/32/19 33/33/19 30/34/19
f 30/34/20 33/33/20 34/25/20 29/29/20
f 25/32/21 31/35/21 33/33/21
f 33/33/22 31/35/22 32/26/22 34/25/22
f 35/28/23 28/36/23 34/25/23
f 36/30/24 34/25/24 28/36/24
f 46/37/25 47/38/25 39/39/25 44/40/25
f 41/41/26 38/42/26 48/43/26 46/37/26
f 37/44/27 42/45/27 45/46/27
f 42/45/28 41/41/28 46/37/28 45/46/28
f 37/44/29 45/46/29 43/47/29
f 45/46/30 46/37/30 44/40/30 43/47/30
f 47/38/31 46/37/31 40/48/31
f 48/43/32 40/48/32 46/37/32
f 58/49/33 59/50/33 51/51/33 56/52/33
f 53/53/34 50/54/34 60/55/34 58/49/34
f 49/56/35 54/57/35 57/58/35
f 54/57/36 53/53/36 58/49/36 57/58/36
f 49/56/37 57/58/37 55/59/37
f 57/58/38 58/49/38 56/52/38 55/59/38
f 59/50/39 58/49/39 52/60/39
f 60/55/40 52/60/40 58/49/40
f 70/61/41 71/62/41 63/63/41 68/64/41
f 65/65/42 62/66/42 72/67/42 70/61/42
f 61/68/43 66/69/43 69/70/43
f 66/69/44 65/65/44 70/61/44 69/70/44
f 61/68/45 69/70/45 67/71/45
f 69/70/46 70/61/46 68/64/46 67/71/46
f 71/62/47 70/61/47 64/72/47
f 72/67/48 64/72/48 70/61/48
f 79/73/49 74/74/49 76/75/49 80/76/49
f 80/76/50 76/75/50 78/77/50 81/78/50
f 81/79/51 78/80/51 74/74/51 79/73/51
f 77/81/52 81/79/52 79/73/52 73/82/52
f 75/83/53 80/76/53 81/78/53 77/84/53
f 73/82/54 79/73/54 80/76/54 75/83/54
f 88/85/55 83/86/55 85/87/55 89/88/55
f 89/88/56 85/87/56 87/89/56 90/90/56
f 90/91/57 87/92/57 83/86/57 88/85/57
f 86/93/58 90/91/58 88/85/58 82/94/58
f 84/95/59 89/88/59 90/90/59 86/96/59
f 82/94/60 88/85/60 89/88/60 84/95/60
f 97/97/61 92/98/61 94/99/61 98/100/61
f 98/100/62 94/99/62 96/101/62 99/102/62
f 99/103/63 96/104/63 92/98/63 97/97/63
f 95/105/64 99/103/64 97/97/64 91/106/64
f 93/107/65 98/100/65 99/102/65 95/108/65
f 91/106/66 97/97/66 98/100/66 93/107/66
f 109/109/67 107/110/67 102/111/67 110/112/67
f 104/113/68 109/109/68 111/114/68 101/115/68
f 100/116/69 108/117/69 105/118/69
f 105/118/70 108/117/70 109/109/70 104/113/70
f 100/116/71 106/119/71 108/117/71
f 108/117/72 106/119/72 107/110/72 109/109/72
f 110/112/73 103/120/73 109/109/73
f 111/114/74 109/109/74 103/120/74
f 118/121/75 113/122/75 115/123/75 119/124/75
f 119/124/76 115/123/76 117/125/76 120/126/76
f 120/127/77 117/128/77 113/122/77 118/121/77
f 116/129/78 120/127/78 118/121/78 112/130/78
f 114/131/79 119/124/79 120/126/79 116/132/79
f 112/130/80 118/121/80 119/124/80 114/131/80
