# Blender v2.78 (sub 0) OBJ File: 'Low_Poly_Vegetation_Pack.blend'
# www.blender.org
g Plant_j_TwoS_07
v 0.017897 0.081415 -0.021148
v 0.073125 0.157781 -0.085907
v 0.098637 0.157781 -0.048071
v 0.111384 0.169475 -0.084185
v 0.028495 0.119431 -0.064132
v 0.061719 0.119431 -0.014859
v 0.048094 0.116367 -0.041510
v 0.089708 0.153428 -0.069569
v -0.000273 0.116307 -0.039579
v -0.000651 0.225402 -0.161165
v 0.062208 0.225402 -0.143883
v 0.042427 0.242107 -0.194894
v -0.028774 0.170615 -0.096037
v 0.053085 0.170615 -0.073533
v 0.013520 0.166238 -0.089747
v 0.032527 0.219182 -0.158883
v 0.018012 0.081271 -0.021225
v 0.073194 0.157623 -0.086007
v 0.098756 0.157623 -0.048097
v 0.111471 0.169305 -0.084244
v 0.028580 0.119281 -0.064233
v 0.061845 0.119281 -0.014900
v 0.048203 0.116215 -0.041583
v 0.089802 0.153263 -0.069633
v -0.000236 0.116163 -0.039712
v -0.000664 0.225244 -0.161286
v 0.062281 0.225244 -0.143982
v 0.042455 0.241937 -0.194995
v -0.028776 0.170466 -0.096170
v 0.053154 0.170466 -0.073646
v 0.013554 0.166087 -0.089873
v 0.032557 0.219018 -0.158992
v 0.019301 0.082475 -0.021020
v 0.017937 0.081335 -0.021164
v 0.018162 0.082349 -0.022263
v 0.002457 -0.000035 -0.001525
v 0.000675 -0.000035 0.002490
v -0.001929 -0.000035 -0.001281
v 0.001368 0.117821 -0.040745
v -0.000244 0.116193 -0.039632
v -0.001023 0.117641 -0.041033
v 0.001245 -0.000051 -0.003940
v 0.003050 -0.000051 0.002071
v -0.003282 -0.000051 0.000406
vt 0.3308 0.7148
vt 0.3455 0.7146
vt 0.3308 0.7341
vt 0.3161 0.7146
vt 0.3308 0.6423
vt 0.3500 0.6746
vt 0.3308 0.6749
vt 0.3117 0.6746
vt 0.4617 0.7148
vt 0.4765 0.7146
vt 0.4617 0.7341
vt 0.4470 0.7146
vt 0.4617 0.6423
vt 0.4809 0.6746
vt 0.4617 0.6749
vt 0.4426 0.6746
vt 0.3308 0.7148
vt 0.3308 0.7341
vt 0.3455 0.7146
vt 0.3161 0.7146
vt 0.3308 0.6423
vt 0.3308 0.6749
vt 0.3500 0.6746
vt 0.3117 0.6746
vt 0.4617 0.7148
vt 0.4617 0.7341
vt 0.4765 0.7146
vt 0.4470 0.7146
vt 0.4617 0.6423
vt 0.4617 0.6749
vt 0.4809 0.6746
vt 0.4426 0.6746
vt 0.2957 0.6376
vt 0.2957 0.7389
vt 0.2840 0.7389
vt 0.2840 0.6376
vt 0.2723 0.7389
vt 0.2723 0.6376
vt 0.3074 0.6376
vt 0.3074 0.7389
vt 0.4266 0.6376
vt 0.4266 0.7389
vt 0.4149 0.7389
vt 0.4149 0.6376
vt 0.4032 0.7389
vt 0.4032 0.6376
vt 0.4383 0.6376
vt 0.4383 0.7389
vn -0.5639 0.8231 0.0675
vn -0.2740 0.8231 0.4974
vn -0.6545 0.7126 0.2527
vn -0.6118 0.7731 0.1675
vn -0.3846 0.7731 0.5044
vn -0.4796 0.7126 0.5120
vn -0.3839 0.8231 0.4184
vn 0.1161 0.8231 0.5559
vn -0.3321 0.7126 0.6180
vn -0.3552 0.7731 0.5255
vn 0.0366 0.7731 0.6332
vn -0.0305 0.7126 0.7009
vn 0.5637 -0.8232 -0.0677
vn 0.2741 -0.8232 -0.4972
vn 0.6544 -0.7126 -0.2527
vn 0.6117 -0.7732 -0.1676
vn 0.3847 -0.7732 -0.5042
vn 0.4796 -0.7126 -0.5120
vn 0.3838 -0.8231 -0.4185
vn -0.1159 -0.8231 -0.5559
vn 0.3320 -0.7126 -0.6180
vn 0.3551 -0.7731 -0.5255
vn -0.0365 -0.7731 -0.6332
vn 0.0305 -0.7126 -0.7009
vn 0.7755 0.0048 0.6313
vn -0.8248 0.3159 0.4688
vn 0.1772 -0.2719 -0.9459
vn 0.9997 0.0048 -0.0259
vn -0.3206 0.3159 0.8930
vn -0.4816 -0.2719 -0.8332
s off
f 8/1/1 3/2/1 4/3/1
f 2/4/2 8/1/2 4/3/2
f 1/5/3 6/6/3 7/7/3
f 7/7/4 6/6/4 3/2/4 8/1/4
f 5/8/5 7/7/5 8/1/5 2/4/5
f 5/8/6 1/5/6 7/7/6
f 16/9/7 11/10/7 12/11/7
f 10/12/8 16/9/8 12/11/8
f 9/13/9 14/14/9 15/15/9
f 15/15/10 14/14/10 11/10/10 16/9/10
f 13/16/11 15/15/11 16/9/11 10/12/11
f 13/16/12 9/13/12 15/15/12
f 24/17/13 20/18/13 19/19/13
f 18/20/14 20/18/14 24/17/14
f 17/21/15 23/22/15 22/23/15
f 23/22/16 24/17/16 19/19/16 22/23/16
f 21/24/17 18/20/17 24/17/17 23/22/17
f 21/24/18 23/22/18 17/21/18
f 32/25/19 28/26/19 27/27/19
f 26/28/20 28/26/20 32/25/20
f 25/29/21 31/30/21 30/31/21
f 31/30/22 32/25/22 27/27/22 30/31/22
f 29/32/23 26/28/23 32/25/23 31/30/23
f 29/32/24 31/30/24 25/29/24
f 36/33/25 33/34/25 34/35/25 37/36/25
f 37/36/26 34/35/26 35/37/26 38/38/26
f 38/39/27 35/40/27 33/34/27 36/33/27
f 42/41/28 39/42/28 40/43/28 43/44/28
f 43/44/29 40/43/29 41/45/29 44/46/29
f 44/47/30 41/48/30 39/42/30 42/41/30
