# Blender v2.78 (sub 0) OBJ File: 'Low_Poly_Vegetation_Pack.blend'
# www.blender.org
g Plant_j_TwoS_01
v -0.072382 0.323727 -0.046855
v -0.219883 0.479576 -0.138581
v -0.151301 0.479576 -0.201587
v -0.228061 0.503441 -0.216311
v -0.162350 0.401310 -0.055152
v -0.073038 0.401310 -0.137202
v -0.122668 0.395057 -0.101591
v -0.191965 0.470691 -0.177022
v -0.072851 0.323005 -0.047365
v -0.220432 0.478785 -0.138850
v -0.151522 0.478785 -0.202157
v -0.228414 0.502589 -0.216697
v -0.162916 0.400561 -0.055497
v -0.073334 0.400561 -0.137795
v -0.123110 0.394300 -0.102072
v -0.192350 0.469868 -0.177440
v -0.003698 0.000000 -0.003935
v -0.072552 0.325890 -0.049723
v 0.005257 0.000000 -0.001235
v -0.072427 0.323563 -0.046928
v -0.001559 0.000000 0.005170
v -0.074713 0.325632 -0.047047
v -0.028083 0.156262 -0.021669
v -0.019437 0.158121 -0.019297
v -0.026254 0.158121 -0.012893
vt 0.3217 0.7132
vt 0.3360 0.7130
vt 0.3217 0.7320
vt 0.3074 0.7130
vt 0.3217 0.6427
vt 0.3404 0.6740
vt 0.3217 0.6744
vt 0.3031 0.6740
vt 0.3217 0.7132
vt 0.3217 0.7320
vt 0.3360 0.7130
vt 0.3074 0.7130
vt 0.3217 0.6427
vt 0.3217 0.6744
vt 0.3404 0.6740
vt 0.3031 0.6740
vt 0.2916 0.6874
vt 0.2916 0.7345
vt 0.2861 0.7345
vt 0.2861 0.6874
vt 0.2807 0.7345
vt 0.2807 0.6874
vt 0.2970 0.6874
vt 0.2970 0.7345
vt 0.2970 0.6402
vt 0.2916 0.6402
vt 0.2861 0.6402
vt 0.2807 0.6402
vn 0.1509 0.8231 0.5475
vn 0.5328 0.8231 0.1967
vn 0.3475 0.7126 0.6094
vn 0.2569 0.7731 0.5799
vn 0.5561 0.7731 0.3050
vn 0.5778 0.7126 0.3978
vn -0.1514 -0.8233 -0.5471
vn -0.5323 -0.8233 -0.1971
vn -0.3477 -0.7126 -0.6093
vn -0.2572 -0.7732 -0.5797
vn -0.5558 -0.7732 -0.3053
vn -0.5777 -0.7126 -0.3980
vn 0.5078 0.0045 -0.8615
vn 0.5866 0.3170 0.7452
vn -0.9644 -0.2642 0.0089
vn -0.9658 -0.1249 0.2273
vn 0.6727 0.1868 0.7159
vn 0.2827 -0.0648 -0.9570
s off
f 8/1/1 3/2/1 4/3/1
f 2/4/2 8/1/2 4/3/2
f 1/5/3 6/6/3 7/7/3
f 7/7/4 6/6/4 3/2/4 8/1/4
f 5/8/5 7/7/5 8/1/5 2/4/5
f 5/8/6 1/5/6 7/7/6
f 16/9/7 12/10/7 11/11/7
f 10/12/8 12/10/8 16/9/8
f 9/13/9 15/14/9 14/15/9
f 15/14/10 16/9/10 11/11/10 14/15/10
f 13/16/11 10/12/11 16/9/11 15/14/11
f 13/16/12 15/14/12 9/13/12
f 23/17/13 18/18/13 20/19/13 24/20/13
f 24/20/14 20/19/14 22/21/14 25/22/14
f 25/23/15 22/24/15 18/18/15 23/17/15
f 21/25/16 25/23/16 23/17/16 17/26/16
f 19/27/17 24/20/17 25/22/17 21/28/17
f 17/26/18 23/17/18 24/20/18 19/27/18
