# Blender v2.78 (sub 0) OBJ File: 'Low_Poly_Vegetation_Pack.blend'
# www.blender.org
g Plant_e_TwoS_06
v 0.004412 0.002066 0.008809
v -0.004413 -0.002066 -0.008808
v -0.373012 0.166569 0.140456
v -0.207104 0.175608 0.093217
v -0.084540 0.113039 0.058537
v -0.117296 0.097704 -0.006851
v -0.232461 0.163737 0.042599
v 0.009819 0.000427 0.003698
v -0.009819 -0.000427 -0.003698
v -0.110752 0.399601 0.247909
v -0.030052 0.291278 0.131825
v 0.014477 0.148916 0.055038
v -0.058416 0.145744 0.027587
v -0.086480 0.288823 0.110574
v 0.004961 0.002655 -0.010453
v -0.004962 -0.002655 0.010455
v 0.330405 0.302821 0.242326
v 0.175814 0.265565 0.114962
v 0.080227 0.158875 0.028383
v 0.043396 0.139167 0.105986
v 0.147302 0.250308 0.175036
v 0.003452 -0.003122 -0.012662
v -0.003454 0.003121 0.012664
v 0.376031 0.493425 -0.019084
v 0.205167 0.350653 -0.071787
v 0.085207 0.171589 -0.072411
v 0.059572 0.194760 0.021588
v 0.185322 0.368590 0.000980
v -0.011516 0.002655 -0.001142
v 0.011514 -0.002655 0.001143
v 0.116614 0.302821 -0.392797
v 0.048888 0.265565 -0.204295
v -0.000357 0.158875 -0.085099
v 0.085123 0.139167 -0.076615
v 0.115060 0.250308 -0.197728
v -0.007671 -0.001948 0.002868
v 0.007670 0.001947 -0.002866
v -0.146735 0.307846 -0.183440
v -0.111136 0.218771 -0.077714
v -0.067725 0.107054 -0.016747
v -0.010786 0.121510 -0.038031
v -0.067058 0.229962 -0.094191
v 0.004295 0.001931 0.008899
v -0.004530 -0.002200 -0.008718
v -0.372991 0.166373 0.140492
v -0.207132 0.175419 0.093275
v -0.084633 0.112882 0.058620
v -0.117389 0.097547 -0.006767
v -0.232488 0.163547 0.042657
v 0.009754 0.000367 0.003877
v -0.009884 -0.000487 -0.003519
v -0.110790 0.399445 0.248028
v -0.030100 0.291148 0.131969
v 0.014416 0.148832 0.055209
v -0.058477 0.145660 0.027758
v -0.086528 0.288692 0.110718
v 0.005129 0.002561 -0.010397
v -0.004794 -0.002749 0.010511
v 0.330466 0.302631 0.242307
v 0.175919 0.265395 0.114969
v 0.080380 0.158754 0.028424
v 0.043549 0.139045 0.106027
v 0.147406 0.250137 0.175042
v 0.003632 -0.003183 -0.012598
v -0.003275 0.003060 0.012728
v 0.376139 0.493271 -0.019017
v 0.205302 0.350523 -0.071718
v 0.085375 0.171504 -0.072345
v 0.059740 0.194676 0.021655
v 0.185458 0.368461 0.001049
v -0.011520 0.002561 -0.001319
v 0.011510 -0.002749 0.000967
v 0.116575 0.302631 -0.392849
v 0.048859 0.265395 -0.204396
v -0.000369 0.158754 -0.085257
v 0.085110 0.139045 -0.076773
v 0.115030 0.250137 -0.197828
v -0.007724 -0.002009 0.002685
v 0.007617 0.001886 -0.003049
v -0.146743 0.307692 -0.183567
v -0.111160 0.218641 -0.077865
v -0.067769 0.106969 -0.016922
v -0.010830 0.121425 -0.038207
v -0.067082 0.229833 -0.094342
vt 0.8100 0.8268
vt 0.8223 0.8268
vt 0.8161 0.8626
vt 0.8140 0.7610
vt 0.8183 0.7610
vt 0.8241 0.7925
vt 0.8082 0.7925
vt 0.9269 0.8268
vt 0.9393 0.8268
vt 0.9331 0.8626
vt 0.9310 0.7610
vt 0.9353 0.7610
vt 0.9411 0.7925
vt 0.9251 0.7925
vt 0.8100 0.8268
vt 0.8223 0.8268
vt 0.8161 0.8626
vt 0.8140 0.7610
vt 0.8183 0.7610
vt 0.8241 0.7925
vt 0.8082 0.7925
vt 0.9269 0.8268
vt 0.9393 0.8268
vt 0.9331 0.8626
vt 0.9310 0.7610
vt 0.9353 0.7610
vt 0.9411 0.7925
vt 0.9251 0.7925
vt 0.8100 0.8268
vt 0.8223 0.8268
vt 0.8161 0.8626
vt 0.8140 0.7610
vt 0.8183 0.7610
vt 0.8241 0.7925
vt 0.8082 0.7925
vt 0.9269 0.8268
vt 0.9393 0.8268
vt 0.9331 0.8626
vt 0.9310 0.7610
vt 0.9353 0.7610
vt 0.9411 0.7925
vt 0.9251 0.7925
vt 0.8100 0.8268
vt 0.8161 0.8626
vt 0.8223 0.8268
vt 0.8140 0.7610
vt 0.8082 0.7925
vt 0.8241 0.7925
vt 0.8183 0.7610
vt 0.9269 0.8268
vt 0.9331 0.8626
vt 0.9393 0.8268
vt 0.9310 0.7610
vt 0.9251 0.7925
vt 0.9411 0.7925
vt 0.9353 0.7610
vt 0.8100 0.8268
vt 0.8161 0.8626
vt 0.8223 0.8268
vt 0.8140 0.7610
vt 0.8082 0.7925
vt 0.8241 0.7925
vt 0.8183 0.7610
vt 0.9269 0.8268
vt 0.9331 0.8626
vt 0.9393 0.8268
vt 0.9310 0.7610
vt 0.9251 0.7925
vt 0.9411 0.7925
vt 0.9353 0.7610
vt 0.8100 0.8268
vt 0.8161 0.8626
vt 0.8223 0.8268
vt 0.8140 0.7610
vt 0.8082 0.7925
vt 0.8241 0.7925
vt 0.8183 0.7610
vt 0.9269 0.8268
vt 0.9331 0.8626
vt 0.9393 0.8268
vt 0.9310 0.7610
vt 0.9251 0.7925
vt 0.9411 0.7925
vt 0.9353 0.7610
vn -0.1039 0.9786 -0.1775
vn 0.5865 0.6724 -0.4515
vn 0.3366 0.8653 -0.3715
vn 0.1904 0.7803 -0.5957
vn 0.3248 0.2999 -0.8970
vn 0.2806 0.5222 -0.8054
vn -0.3065 0.9471 0.0950
vn -0.8368 0.4721 -0.2773
vn -0.6788 0.7210 -0.1391
vn -0.5402 0.7710 -0.3374
vn -0.8953 0.3094 -0.3204
vn -0.7802 0.5239 -0.3419
vn 0.1929 0.9471 0.2565
vn 0.0214 0.4721 0.8813
vn 0.0982 0.7210 0.6859
vn 0.0418 0.7710 0.6355
vn 0.2631 0.3094 0.9138
vn 0.1784 0.5239 0.8329
vn 0.1039 -0.9786 0.1775
vn -0.5865 -0.6724 0.4515
vn -0.3366 -0.8652 0.3715
vn -0.1904 -0.7803 0.5957
vn -0.3248 -0.2999 0.8970
vn -0.2806 -0.5222 0.8054
vn 0.3065 -0.9471 -0.0951
vn 0.8368 -0.4721 0.2773
vn 0.6788 -0.7210 0.1391
vn 0.5402 -0.7710 0.3374
vn 0.8953 -0.3094 0.3204
vn 0.7802 -0.5239 0.3419
vn -0.1929 -0.9471 -0.2565
vn -0.0214 -0.4721 -0.8813
vn -0.0982 -0.7210 -0.6859
vn -0.0418 -0.7710 -0.6355
vn -0.2631 -0.3094 -0.9138
vn -0.1784 -0.5238 -0.8329
s off
f 4/1/1 7/2/1 3/3/1
f 1/4/2 2/5/2 6/6/2 5/7/2
f 5/7/3 6/6/3 7/2/3 4/1/3
f 11/8/4 14/9/4 10/10/4
f 8/11/5 9/12/5 13/13/5 12/14/5
f 12/14/6 13/13/6 14/9/6 11/8/6
f 18/15/7 21/16/7 17/17/7
f 15/18/8 16/19/8 20/20/8 19/21/8
f 19/21/9 20/20/9 21/16/9 18/15/9
f 25/22/10 28/23/10 24/24/10
f 22/25/11 23/26/11 27/27/11 26/28/11
f 26/28/12 27/27/12 28/23/12 25/22/12
f 32/29/13 35/30/13 31/31/13
f 29/32/14 30/33/14 34/34/14 33/35/14
f 33/35/15 34/34/15 35/30/15 32/29/15
f 39/36/16 42/37/16 38/38/16
f 36/39/17 37/40/17 41/41/17 40/42/17
f 40/42/18 41/41/18 42/37/18 39/36/18
f 46/43/19 45/44/19 49/45/19
f 43/46/20 47/47/20 48/48/20 44/49/20
f 47/47/21 46/43/21 49/45/21 48/48/21
f 53/50/22 52/51/22 56/52/22
f 50/53/23 54/54/23 55/55/23 51/56/23
f 54/54/24 53/50/24 56/52/24 55/55/24
f 60/57/25 59/58/25 63/59/25
f 57/60/26 61/61/26 62/62/26 58/63/26
f 61/61/27 60/57/27 63/59/27 62/62/27
f 67/64/28 66/65/28 70/66/28
f 64/67/29 68/68/29 69/69/29 65/70/29
f 68/68/30 67/64/30 70/66/30 69/69/30
f 74/71/31 73/72/31 77/73/31
f 71/74/32 75/75/32 76/76/32 72/77/32
f 75/75/33 74/71/33 77/73/33 76/76/33
f 81/78/34 80/79/34 84/80/34
f 78/81/35 82/82/35 83/83/35 79/84/35
f 82/82/36 81/78/36 84/80/36 83/83/36
