# Blender v2.78 (sub 0) OBJ File: 'Low_Poly_Vegetation_Pack.blend'
# www.blender.org
g Plant_g_TwoS_04
v 0.043987 0.208192 0.036508
v 0.033615 0.208541 0.045509
v 0.208951 0.483114 0.215202
v 0.171522 0.404115 0.113266
v 0.108240 0.310950 0.037908
v 0.023789 0.313796 0.111195
v 0.096042 0.409565 0.163941
v 0.003943 -0.000163 -0.002248
v -0.002772 -0.000018 0.003598
v 0.018468 0.106423 0.010936
v 0.010238 0.106650 0.018080
v -0.055456 0.138567 0.033842
v -0.059702 0.138413 0.025251
v -0.205132 0.350599 0.095255
v -0.132300 0.285770 0.096952
v -0.077758 0.206722 0.078655
v -0.112336 0.205466 0.008705
v -0.160456 0.284747 0.039996
v -0.001922 -0.000070 0.010227
v -0.004676 -0.000227 0.004660
v -0.023832 0.071707 0.019470
v -0.027198 0.071550 0.012652
v -0.059076 0.171486 -0.025838
v -0.050888 0.172398 -0.033802
v -0.167848 0.431808 -0.120847
v -0.160343 0.336467 -0.067735
v -0.128210 0.253525 -0.033383
v -0.061595 0.260954 -0.098279
v -0.106102 0.342516 -0.120576
v -0.011853 -0.000329 0.001746
v -0.007334 0.000125 -0.002656
v -0.031710 0.208192 -0.048195
v -0.019085 0.208541 -0.053599
v -0.102762 0.541541 -0.221278
v -0.112476 0.434812 -0.131549
v -0.092467 0.310950 -0.069149
v 0.010330 0.313796 -0.113147
v -0.028774 0.437129 -0.167375
v -0.005414 -0.000163 0.000938
v 0.002766 -0.000018 -0.002578
v -0.015219 0.106423 -0.016052
v -0.005200 0.106650 -0.020342
v 0.028956 0.145255 -0.033434
v 0.036032 0.145498 -0.026975
v 0.118386 0.377831 -0.128527
v 0.058587 0.303366 -0.108796
v 0.024727 0.216949 -0.078074
v 0.082348 0.218935 -0.025480
v 0.105505 0.304983 -0.065971
v 0.005338 -0.000114 -0.002549
v 0.009932 -0.000013 0.001632
v 0.013300 0.074251 -0.013681
v 0.018916 0.074409 -0.008556
v 0.044108 0.208120 0.036650
v 0.033736 0.208469 0.045651
v 0.209009 0.482953 0.215305
v 0.171594 0.403965 0.113377
v 0.108341 0.310836 0.038038
v 0.023890 0.313683 0.111325
v 0.096116 0.409416 0.164053
v 0.004072 -0.000199 -0.002099
v -0.002644 -0.000054 0.003746
v 0.018594 0.106371 0.011083
v 0.010364 0.106599 0.018227
v -0.055612 0.138470 0.033921
v -0.059858 0.138315 0.025330
v -0.205259 0.350458 0.095320
v -0.132438 0.285643 0.097022
v -0.077906 0.206612 0.078730
v -0.112485 0.205356 0.008781
v -0.160593 0.284620 0.040066
v -0.002092 -0.000133 0.010312
v -0.004846 -0.000290 0.004746
v -0.023997 0.071629 0.019553
v -0.027363 0.071472 0.012735
v -0.059197 0.171401 -0.025972
v -0.051009 0.172312 -0.033936
v -0.167969 0.431723 -0.120981
v -0.160461 0.336374 -0.067867
v -0.128324 0.253423 -0.033511
v -0.061709 0.260852 -0.098407
v -0.106220 0.342423 -0.120708
v -0.011983 -0.000387 0.001606
v -0.007464 0.000066 -0.002796
v -0.031782 0.208120 -0.048367
v -0.019157 0.208469 -0.053771
v -0.102823 0.541421 -0.221426
v -0.112540 0.434707 -0.131706
v -0.092536 0.310864 -0.069315
v 0.010261 0.313710 -0.113314
v -0.028838 0.437024 -0.167532
v -0.005491 -0.000199 0.000757
v 0.002689 -0.000054 -0.002759
v -0.015294 0.106371 -0.016230
v -0.005275 0.106599 -0.020520
v 0.029083 0.145182 -0.033571
v 0.036159 0.145426 -0.027112
v 0.118496 0.377712 -0.128643
v 0.058704 0.303262 -0.108920
v 0.024851 0.216863 -0.078206
v 0.082471 0.218848 -0.025612
v 0.105621 0.304878 -0.066095
v 0.005471 -0.000150 -0.002694
v 0.010065 -0.000049 0.001487
v 0.013431 0.074199 -0.013823
v 0.019047 0.074358 -0.008698
vt 0.1856 0.8637
vt 0.1780 0.8417
vt 0.1931 0.8419
vt 0.1866 0.7998
vt 0.1843 0.7998
vt 0.1844 0.7773
vt 0.1863 0.7773
vt 0.1845 0.7554
vt 0.1860 0.7554
vt 0.1952 0.8186
vt 0.1766 0.8185
vt 0.0832 0.8637
vt 0.0755 0.8417
vt 0.0907 0.8419
vt 0.0841 0.7998
vt 0.0818 0.7998
vt 0.0820 0.7773
vt 0.0838 0.7773
vt 0.0821 0.7554
vt 0.0835 0.7554
vt 0.0928 0.8186
vt 0.0742 0.8185
vt 0.0601 0.8637
vt 0.0514 0.8405
vt 0.0686 0.8407
vt 0.0612 0.7963
vt 0.0586 0.7963
vt 0.0591 0.7555
vt 0.0605 0.7555
vt 0.0710 0.8192
vt 0.0499 0.8190
vt 0.1856 0.8637
vt 0.1780 0.8417
vt 0.1931 0.8419
vt 0.1866 0.7998
vt 0.1843 0.7998
vt 0.1844 0.7773
vt 0.1863 0.7773
vt 0.1845 0.7554
vt 0.1860 0.7554
vt 0.1952 0.8186
vt 0.1766 0.8185
vt 0.0614 0.8637
vt 0.0537 0.8417
vt 0.0689 0.8419
vt 0.0623 0.7998
vt 0.0600 0.7998
vt 0.0602 0.7773
vt 0.0620 0.7773
vt 0.0603 0.7554
vt 0.0617 0.7554
vt 0.0710 0.8186
vt 0.0524 0.8185
vt 0.1856 0.8637
vt 0.1931 0.8419
vt 0.1780 0.8417
vt 0.1866 0.7998
vt 0.1863 0.7773
vt 0.1844 0.7773
vt 0.1843 0.7998
vt 0.1860 0.7554
vt 0.1845 0.7554
vt 0.1766 0.8185
vt 0.1952 0.8186
vt 0.0832 0.8637
vt 0.0907 0.8419
vt 0.0755 0.8417
vt 0.0841 0.7998
vt 0.0838 0.7773
vt 0.0820 0.7773
vt 0.0818 0.7998
vt 0.0835 0.7554
vt 0.0821 0.7554
vt 0.0742 0.8185
vt 0.0928 0.8186
vt 0.0601 0.8637
vt 0.0686 0.8407
vt 0.0514 0.8405
vt 0.0612 0.7963
vt 0.0605 0.7555
vt 0.0591 0.7555
vt 0.0586 0.7963
vt 0.0499 0.8190
vt 0.0710 0.8192
vt 0.1856 0.8637
vt 0.1931 0.8419
vt 0.1780 0.8417
vt 0.1866 0.7998
vt 0.1863 0.7773
vt 0.1844 0.7773
vt 0.1843 0.7998
vt 0.1860 0.7554
vt 0.1845 0.7554
vt 0.1766 0.8185
vt 0.1952 0.8186
vt 0.0614 0.8637
vt 0.0689 0.8419
vt 0.0537 0.8417
vt 0.0623 0.7998
vt 0.0620 0.7773
vt 0.0602 0.7773
vt 0.0600 0.7998
vt 0.0617 0.7554
vt 0.0603 0.7554
vt 0.0524 0.8185
vt 0.0710 0.8186
vn -0.2894 0.8051 -0.5177
vn -0.6120 0.3335 -0.7171
vn -0.6428 0.1796 -0.7447
vn -0.5979 0.3835 -0.7039
vn -0.4172 0.6957 -0.5848
vn 0.6329 0.7025 -0.3255
vn 0.7920 0.4606 -0.4006
vn 0.8481 0.3138 -0.4270
vn 0.7688 0.5074 -0.3892
vn 0.7233 0.5843 -0.3680
vn 0.6079 0.4224 0.6723
vn 0.6509 0.2914 0.7010
vn 0.5603 0.5307 0.6360
vn 0.5782 0.4932 0.6500
vn 0.3015 0.5973 0.7431
vn 0.3638 0.3335 0.8697
vn 0.3847 0.1796 0.9054
vn 0.3544 0.3835 0.8528
vn 0.3371 0.4665 0.8178
vn -0.5518 0.5973 0.5820
vn -0.6413 0.3335 0.6910
vn -0.6652 0.1796 0.7248
vn -0.6298 0.3835 0.6755
vn -0.6050 0.4665 0.6452
vn 0.2894 -0.8051 0.5177
vn 0.6120 -0.3336 0.7171
vn 0.6428 -0.1796 0.7447
vn 0.5979 -0.3834 0.7039
vn 0.4171 -0.6957 0.5847
vn -0.6329 -0.7025 0.3255
vn -0.7920 -0.4606 0.4006
vn -0.8481 -0.3138 0.4270
vn -0.7688 -0.5074 0.3892
vn -0.7233 -0.5843 0.3680
vn -0.6079 -0.4224 -0.6723
vn -0.6509 -0.2914 -0.7010
vn -0.5603 -0.5307 -0.6360
vn -0.5782 -0.4932 -0.6500
vn -0.3015 -0.5973 -0.7431
vn -0.3638 -0.3336 -0.8697
vn -0.3847 -0.1796 -0.9054
vn -0.3544 -0.3835 -0.8528
vn -0.3371 -0.4665 -0.8178
vn 0.5518 -0.5973 -0.5820
vn 0.6413 -0.3336 -0.6910
vn 0.6652 -0.1796 -0.7248
vn 0.6298 -0.3835 -0.6755
vn 0.6050 -0.4664 -0.6452
s off
f 3/1/1 4/2/1 7/3/1
f 2/4/2 1/5/2 10/6/2 11/7/2
f 11/7/3 10/6/3 8/8/3 9/9/3
f 1/5/4 2/4/4 6/10/4 5/11/4
f 4/2/5 5/11/5 6/10/5 7/3/5
f 14/12/6 15/13/6 18/14/6
f 13/15/7 12/16/7 21/17/7 22/18/7
f 22/18/8 21/17/8 19/19/8 20/20/8
f 12/16/9 13/15/9 17/21/9 16/22/9
f 15/13/10 16/22/10 17/21/10 18/14/10
f 25/23/11 26/24/11 29/25/11
f 24/26/12 23/27/12 30/28/12 31/29/12
f 23/27/13 24/26/13 28/30/13 27/31/13
f 26/24/14 27/31/14 28/30/14 29/25/14
f 34/32/15 35/33/15 38/34/15
f 33/35/16 32/36/16 41/37/16 42/38/16
f 42/38/17 41/37/17 39/39/17 40/40/17
f 32/36/18 33/35/18 37/41/18 36/42/18
f 35/33/19 36/42/19 37/41/19 38/34/19
f 45/43/20 46/44/20 49/45/20
f 44/46/21 43/47/21 52/48/21 53/49/21
f 53/49/22 52/48/22 50/50/22 51/51/22
f 43/47/23 44/46/23 48/52/23 47/53/23
f 46/44/24 47/53/24 48/52/24 49/45/24
f 56/54/25 60/55/25 57/56/25
f 55/57/26 64/58/26 63/59/26 54/60/26
f 64/58/27 62/61/27 61/62/27 63/59/27
f 54/60/28 58/63/28 59/64/28 55/57/28
f 57/56/29 60/55/29 59/64/29 58/63/29
f 67/65/30 71/66/30 68/67/30
f 66/68/31 75/69/31 74/70/31 65/71/31
f 75/69/32 73/72/32 72/73/32 74/70/32
f 65/71/33 69/74/33 70/75/33 66/68/33
f 68/67/34 71/66/34 70/75/34 69/74/34
f 78/76/35 82/77/35 79/78/35
f 77/79/36 84/80/36 83/81/36 76/82/36
f 76/82/37 80/83/37 81/84/37 77/79/37
f 79/78/38 82/77/38 81/84/38 80/83/38
f 87/85/39 91/86/39 88/87/39
f 86/88/40 95/89/40 94/90/40 85/91/40
f 95/89/41 93/92/41 92/93/41 94/90/41
f 85/91/42 89/94/42 90/95/42 86/88/42
f 88/87/43 91/86/43 90/95/43 89/94/43
f 98/96/44 102/97/44 99/98/44
f 97/99/45 106/100/45 105/101/45 96/102/45
f 106/100/46 104/103/46 103/104/46 105/101/46
f 96/102/47 100/105/47 101/106/47 97/99/47
f 99/98/48 102/97/48 101/106/48 100/105/48
