# Blender v2.78 (sub 0) OBJ File: 'Low_Poly_Vegetation_Pack.blend'
# www.blender.org
g Plant_a_TwoS_05
v 0.000000 -0.000000 -0.000000
v -1.126110 0.311285 0.143992
v -0.773190 0.328997 0.189144
v -0.342815 0.238891 0.223923
v -0.047888 0.078220 0.170070
v -0.090726 0.073201 -0.154097
v -0.390163 0.233344 -0.134374
v -0.797099 0.326196 0.008221
v -0.000000 -0.000000 -0.000000
v -0.015094 0.593029 -1.016781
v -0.060392 0.520264 -0.679498
v -0.117679 0.323214 -0.294265
v -0.138261 0.091122 -0.045870
v 0.136838 0.091122 -0.049954
v 0.108893 0.323214 -0.297628
v 0.040196 0.520264 -0.680991
v -0.000000 -0.000000 0.042340
v 0.878124 0.350058 -0.356258
v 0.693559 0.357223 -0.313283
v 0.259046 0.252315 -0.256920
v 0.004003 0.080471 -0.109422
v 0.118699 0.075994 0.140620
v 0.399190 0.246844 0.048600
v 0.726807 0.355926 -0.240801
v -0.000728 -0.000678 0.000107
v -1.126061 0.310286 0.144001
v -0.773290 0.328003 0.189173
v -0.343163 0.237955 0.223983
v -0.048428 0.077382 0.170154
v -0.091265 0.072363 -0.154013
v -0.390511 0.232408 -0.134313
v -0.797198 0.325201 0.008249
v -0.000013 -0.000465 -0.000885
v -0.015097 0.592052 -1.016992
v -0.060397 0.519327 -0.679846
v -0.117688 0.322401 -0.294848
v -0.138272 0.090464 -0.046623
v 0.136827 0.090464 -0.050706
v 0.108884 0.322401 -0.298211
v 0.040191 0.519327 -0.681339
v 0.000686 -0.000650 0.042014
v 0.878086 0.349058 -0.356258
v 0.693669 0.356232 -0.313351
v 0.259393 0.251394 -0.257095
v 0.004526 0.079658 -0.109677
v 0.119223 0.075181 0.140365
v 0.399537 0.245923 0.048424
v 0.726918 0.354934 -0.240869
vt 0.0736 0.8325
vt 0.0880 0.8332
vt 0.0794 0.8601
vt 0.0843 0.7637
vt 0.0968 0.7725
vt 0.0710 0.7712
vt 0.0968 0.7994
vt 0.0683 0.7980
vt 0.1909 0.8325
vt 0.1989 0.8330
vt 0.1930 0.8599
vt 0.1999 0.7637
vt 0.2101 0.7726
vt 0.1884 0.7710
vt 0.2063 0.7993
vt 0.1884 0.7980
vt 0.0488 0.8324
vt 0.0551 0.8329
vt 0.0504 0.8473
vt 0.0581 0.7637
vt 0.0682 0.7728
vt 0.0465 0.7708
vt 0.0682 0.7998
vt 0.0417 0.7974
vt 0.0736 0.8325
vt 0.0794 0.8601
vt 0.0880 0.8332
vt 0.0843 0.7637
vt 0.0710 0.7712
vt 0.0968 0.7725
vt 0.0683 0.7980
vt 0.0968 0.7994
vt 0.1909 0.8325
vt 0.1930 0.8599
vt 0.1989 0.8330
vt 0.1999 0.7637
vt 0.1884 0.7710
vt 0.2101 0.7726
vt 0.1884 0.7980
vt 0.2063 0.7993
vt 0.0488 0.8324
vt 0.0504 0.8473
vt 0.0551 0.8329
vt 0.0581 0.7637
vt 0.0465 0.7708
vt 0.0682 0.7728
vt 0.0417 0.7974
vt 0.0682 0.7998
vn -0.0490 0.9988 -0.0090
vn 0.7278 0.6775 -0.1067
vn 0.4664 0.8814 -0.0753
vn 0.2080 0.9772 -0.0426
vn 0.0031 0.9774 0.2113
vn 0.0131 0.4654 0.8850
vn 0.0101 0.7302 0.6831
vn 0.0068 0.8899 0.4562
vn 0.0388 0.9992 0.0001
vn -0.6864 0.6499 0.3265
vn -0.4527 0.8633 0.2231
vn -0.2186 0.9687 0.1176
vn 0.0490 -0.9988 0.0090
vn -0.7280 -0.6773 0.1067
vn -0.4664 -0.8814 0.0753
vn -0.2080 -0.9772 0.0426
vn -0.0031 -0.9774 -0.2113
vn -0.0131 -0.4652 -0.8851
vn -0.0101 -0.7302 -0.6831
vn -0.0068 -0.8899 -0.4562
vn -0.0389 -0.9992 -0.0001
vn 0.6865 -0.6496 -0.3266
vn 0.4527 -0.8633 -0.2231
vn 0.2186 -0.9687 -0.1176
s off
f 3/1/1 8/2/1 2/3/1
f 1/4/2 6/5/2 5/6/2
f 5/6/3 6/5/3 7/7/3 4/8/3
f 4/8/4 7/7/4 8/2/4 3/1/4
f 11/9/5 16/10/5 10/11/5
f 9/12/6 14/13/6 13/14/6
f 13/14/7 14/13/7 15/15/7 12/16/7
f 12/16/8 15/15/8 16/10/8 11/9/8
f 19/17/9 24/18/9 18/19/9
f 17/20/10 22/21/10 21/22/10
f 21/22/11 22/21/11 23/23/11 20/24/11
f 20/24/12 23/23/12 24/18/12 19/17/12
f 27/25/13 26/26/13 32/27/13
f 25/28/14 29/29/14 30/30/14
f 29/29/15 28/31/15 31/32/15 30/30/15
f 28/31/16 27/25/16 32/27/16 31/32/16
f 35/33/17 34/34/17 40/35/17
f 33/36/18 37/37/18 38/38/18
f 37/37/19 36/39/19 39/40/19 38/38/19
f 36/39/20 35/33/20 40/35/20 39/40/20
f 43/41/21 42/42/21 48/43/21
f 41/44/22 45/45/22 46/46/22
f 45/45/23 44/47/23 47/48/23 46/46/23
f 44/47/24 43/41/24 48/43/24 47/48/24
