# Blender v2.78 (sub 0) OBJ File: 'Low_Poly_Vegetation_Pack.blend'
# www.blender.org
g Plant_j_TwoS_06
v -0.000271 0.116307 -0.039579
v -0.000649 0.225402 -0.161165
v 0.062210 0.225402 -0.143883
v 0.042429 0.242107 -0.194894
v -0.028772 0.170615 -0.096037
v 0.053087 0.170615 -0.073533
v 0.013522 0.166238 -0.089747
v 0.032529 0.219182 -0.158883
v -0.000234 0.116163 -0.039712
v -0.000662 0.225244 -0.161286
v 0.062283 0.225244 -0.143982
v 0.042456 0.241937 -0.194995
v -0.028774 0.170466 -0.096170
v 0.053156 0.170466 -0.073646
v 0.013556 0.166087 -0.089873
v 0.032559 0.219018 -0.158992
v 0.001368 0.117821 -0.040745
v -0.000244 0.116193 -0.039632
v -0.001023 0.117641 -0.041033
v 0.001245 -0.000051 -0.003940
v 0.003050 -0.000051 0.002071
v -0.003282 -0.000051 0.000406
vt 0.3347 0.7102
vt 0.3494 0.7100
vt 0.3347 0.7294
vt 0.3201 0.7100
vt 0.3347 0.6381
vt 0.3538 0.6701
vt 0.3347 0.6704
vt 0.3157 0.6701
vt 0.3347 0.7102
vt 0.3347 0.7294
vt 0.3494 0.7100
vt 0.3201 0.7100
vt 0.3347 0.6381
vt 0.3347 0.6704
vt 0.3538 0.6701
vt 0.3157 0.6701
vt 0.2981 0.6360
vt 0.2981 0.7369
vt 0.2864 0.7369
vt 0.2864 0.6360
vt 0.2748 0.7369
vt 0.2748 0.6360
vt 0.3097 0.6360
vt 0.3097 0.7369
vn -0.3839 0.8231 0.4184
vn 0.1161 0.8231 0.5559
vn -0.3321 0.7126 0.6180
vn -0.3552 0.7731 0.5255
vn 0.0366 0.7731 0.6332
vn -0.0305 0.7126 0.7009
vn 0.3838 -0.8231 -0.4185
vn -0.1159 -0.8231 -0.5559
vn 0.3320 -0.7126 -0.6180
vn 0.3551 -0.7731 -0.5255
vn -0.0365 -0.7731 -0.6332
vn 0.0305 -0.7126 -0.7009
vn 0.9997 0.0048 -0.0259
vn -0.3206 0.3159 0.8930
vn -0.4816 -0.2719 -0.8332
s off
f 8/1/1 3/2/1 4/3/1
f 2/4/2 8/1/2 4/3/2
f 1/5/3 6/6/3 7/7/3
f 7/7/4 6/6/4 3/2/4 8/1/4
f 5/8/5 7/7/5 8/1/5 2/4/5
f 5/8/6 1/5/6 7/7/6
f 16/9/7 12/10/7 11/11/7
f 10/12/8 12/10/8 16/9/8
f 9/13/9 15/14/9 14/15/9
f 15/14/10 16/9/10 11/11/10 14/15/10
f 13/16/11 10/12/11 16/9/11 15/14/11
f 13/16/12 15/14/12 9/13/12
f 20/17/13 17/18/13 18/19/13 21/20/13
f 21/20/14 18/19/14 19/21/14 22/22/14
f 22/23/15 19/24/15 17/18/15 20/17/15
