# Blender v2.78 (sub 0) OBJ File: 'Low_Poly_Vegetation_Pack.blend'
# www.blender.org
g Plant_i_TwoS_06
v 0.006765 0.183459 0.017236
v -0.107942 0.178168 0.195545
v -0.046779 0.190338 0.135367
v -0.080490 0.179286 0.113353
v 0.217985 0.188204 0.035756
v 0.129516 0.185578 0.004356
v 0.125365 0.196493 0.048893
v 0.223206 0.222188 0.163376
v 0.140197 0.205401 0.075543
v 0.109850 0.215651 0.116867
v -0.012012 0.214944 0.278693
v 0.020423 0.213290 0.165051
v -0.030031 0.200845 0.163399
v 0.132195 0.237172 0.276457
v 0.100313 0.220370 0.138707
v 0.043707 0.218627 0.166459
v -0.048827 0.245832 -0.051782
v -0.207596 0.305024 -0.151609
v -0.149279 0.271293 -0.093669
v -0.128375 0.272763 -0.127083
v -0.111597 0.315501 -0.263989
v -0.109361 0.272831 -0.149219
v -0.055895 0.280909 -0.162567
v 0.009777 0.280108 -0.187873
v -0.033938 0.269463 -0.134116
v -0.003064 0.261993 -0.121382
v -0.228464 0.294785 -0.051867
v -0.151396 0.262374 -0.033090
v -0.148803 0.268224 -0.068930
v 0.022188 0.296733 0.018531
v -0.067837 0.334561 0.098627
v -0.022534 0.312983 0.075732
v -0.037404 0.321459 0.054533
v -0.146574 0.373659 0.031377
v -0.070789 0.335820 0.043711
v -0.073731 0.333572 0.006135
v -0.059884 0.368739 -0.131942
v -0.042097 0.333448 -0.058231
v -0.009627 0.333530 -0.076891
v -0.140448 0.387324 -0.070524
v -0.077316 0.336948 -0.010290
v -0.056454 0.335764 -0.049594
v 0.034145 0.354465 0.017375
v 0.106746 0.440124 -0.071364
v 0.066778 0.397765 -0.043260
v 0.088857 0.398670 -0.024941
v 0.178459 0.441710 0.009147
v 0.103274 0.397590 -0.009386
v 0.107959 0.393859 0.030701
v 0.121630 0.383023 0.078860
v 0.088018 0.377943 0.040821
v 0.078034 0.364896 0.059540
v 0.060788 0.112148 0.111754
v 0.003043 0.100613 0.006877
v 0.050164 0.109083 0.066202
v 0.028512 0.104537 0.078621
v -0.119828 0.103989 -0.063205
v -0.075338 0.098047 -0.019030
v -0.058659 0.103549 -0.048242
v 0.189477 0.151730 0.062755
v 0.125732 0.130721 0.021099
v 0.114716 0.127867 0.061927
v -0.048640 0.138523 -0.169845
v -0.047559 0.120098 -0.100534
v -0.010309 0.124031 -0.110409
v 0.063559 0.165761 -0.255985
v 0.008387 0.130746 -0.153995
v 0.067439 0.123378 -0.139611
v 0.225553 0.168257 -0.054005
v 0.119000 0.123117 -0.054321
v 0.130450 0.132820 -0.003808
v 0.191232 0.176909 -0.183223
v 0.087461 0.125951 -0.121907
v 0.131345 0.128090 -0.077606
v 0.006790 0.183265 0.017278
v -0.107889 0.177976 0.195560
v -0.046731 0.190145 0.135390
v -0.080442 0.179094 0.113376
v 0.217974 0.188010 0.035803
v 0.129515 0.185384 0.004404
v 0.125364 0.196299 0.048941
v 0.223199 0.221993 0.163419
v 0.140198 0.205207 0.075591
v 0.109851 0.215457 0.116916
v -0.011964 0.214751 0.278709
v 0.020469 0.213098 0.165076
v -0.029984 0.200653 0.163424
v 0.132212 0.236974 0.276477
v 0.100334 0.220173 0.138737
v 0.043727 0.218430 0.166489
v -0.048845 0.245639 -0.051830
v -0.207657 0.304839 -0.151655
v -0.149328 0.271103 -0.093707
v -0.128424 0.272573 -0.127121
v -0.111586 0.315314 -0.264059
v -0.109349 0.272642 -0.149285
v -0.055883 0.280720 -0.162632
v 0.009754 0.279917 -0.187930
v -0.033961 0.269273 -0.134173
v -0.003086 0.261802 -0.121439
v -0.228533 0.294600 -0.051902
v -0.151449 0.262184 -0.033125
v -0.148856 0.268034 -0.068965
v 0.022122 0.296545 0.018509
v -0.067927 0.334382 0.098619
v -0.022621 0.312803 0.075721
v -0.037491 0.321279 0.054522
v -0.146665 0.373482 0.031395
v -0.070872 0.335638 0.043728
v -0.073813 0.333390 0.006153
v -0.059927 0.368559 -0.132018
v -0.042136 0.333264 -0.058299
v -0.009666 0.333346 -0.076960
v -0.140542 0.387153 -0.070569
v -0.077396 0.336769 -0.010327
v -0.056534 0.335585 -0.049631
v 0.034236 0.354296 0.017321
v 0.106834 0.439975 -0.071463
v 0.066860 0.397606 -0.043350
v 0.088938 0.398511 -0.025031
v 0.178564 0.441542 0.009119
v 0.103375 0.397420 -0.009413
v 0.108060 0.393689 0.030674
v 0.121726 0.382859 0.078797
v 0.088114 0.377780 0.040759
v 0.078131 0.364732 0.059477
v 0.060831 0.111953 0.111757
v 0.003069 0.100416 0.006862
v 0.050205 0.108887 0.066201
v 0.028553 0.104341 0.078621
v -0.119821 0.103792 -0.063238
v -0.075327 0.097849 -0.019060
v -0.058648 0.103352 -0.048272
v 0.189538 0.151539 0.062758
v 0.125786 0.130528 0.021100
v 0.114770 0.127675 0.061928
v -0.048633 0.138329 -0.169897
v -0.047550 0.119903 -0.100580
v -0.010300 0.123836 -0.110454
v 0.063552 0.165573 -0.256054
v 0.008375 0.130553 -0.154048
v 0.067428 0.123185 -0.139663
v 0.225631 0.168074 -0.053988
v 0.119064 0.122928 -0.054300
v 0.130514 0.132632 -0.003786
v 0.191292 0.176725 -0.183274
v 0.087506 0.125759 -0.121942
v 0.131390 0.127898 -0.077641
v 0.003192 0.000000 0.006454
v 0.010659 0.216928 0.022698
v -0.007185 0.000000 -0.000463
v 0.002882 0.216928 0.017514
v 0.003994 0.000000 -0.005991
v 0.011260 0.216928 0.013371
v 0.035084 0.354092 0.017433
v 0.033785 0.354471 0.017317
v 0.034525 0.354483 0.016767
v 0.003062 0.228032 0.021016
v -0.049188 0.245939 -0.052167
v -0.048815 0.245866 -0.052379
v -0.049007 0.245843 -0.051737
vt 0.8205 0.8210
vt 0.8372 0.8210
vt 0.8289 0.8589
vt 0.8209 0.8178
vt 0.8289 0.7623
vt 0.8368 0.8178
vt 0.8289 0.8589
vt 0.8212 0.8155
vt 0.8365 0.8155
vt 0.8289 0.8589
vt 0.8210 0.8172
vt 0.8367 0.8172
vt 0.8289 0.8589
vt 0.8215 0.8135
vt 0.8362 0.8135
vt 0.8289 0.8589
vt 0.8215 0.8135
vt 0.8289 0.7623
vt 0.8362 0.8135
vt 0.8289 0.8589
vt 0.8210 0.8172
vt 0.8367 0.8172
vt 0.8289 0.8589
vt 0.8205 0.8210
vt 0.8372 0.8210
vt 0.8289 0.8589
vt 0.8212 0.8155
vt 0.8365 0.8155
vt 0.8289 0.8589
vt 0.8209 0.8178
vt 0.8289 0.7623
vt 0.8368 0.8178
vt 0.8289 0.8589
vt 0.8212 0.8155
vt 0.8365 0.8155
vt 0.8289 0.8589
vt 0.8210 0.8172
vt 0.8367 0.8172
vt 0.8289 0.8589
vt 0.8215 0.8135
vt 0.8362 0.8135
vt 0.8289 0.8589
vt 0.8215 0.8135
vt 0.8289 0.7623
vt 0.8362 0.8135
vt 0.8289 0.8589
vt 0.8210 0.8172
vt 0.8367 0.8172
vt 0.8289 0.8589
vt 0.8205 0.8210
vt 0.8372 0.8210
vt 0.8289 0.8589
vt 0.8202 0.8228
vt 0.8375 0.8228
vt 0.8289 0.8589
vt 0.8202 0.8228
vt 0.8375 0.8228
vt 0.8289 0.8589
vt 0.8289 0.7623
vt 0.8202 0.8228
vt 0.8375 0.8228
vt 0.8289 0.8589
vt 0.8202 0.8228
vt 0.8375 0.8228
vt 0.8289 0.8589
vt 0.8202 0.8228
vt 0.8375 0.8228
vt 0.8289 0.8589
vt 0.8214 0.8144
vt 0.8363 0.8144
vt 0.8289 0.8589
vt 0.8212 0.8157
vt 0.8365 0.8157
vt 0.8289 0.8589
vt 0.8205 0.8210
vt 0.8289 0.8589
vt 0.8372 0.8210
vt 0.8209 0.8178
vt 0.8368 0.8178
vt 0.8289 0.7623
vt 0.8289 0.8589
vt 0.8212 0.8155
vt 0.8365 0.8155
vt 0.8289 0.8589
vt 0.8210 0.8172
vt 0.8367 0.8172
vt 0.8289 0.8589
vt 0.8215 0.8135
vt 0.8362 0.8135
vt 0.8289 0.8589
vt 0.8215 0.8135
vt 0.8362 0.8135
vt 0.8289 0.7623
vt 0.8289 0.8589
vt 0.8210 0.8172
vt 0.8367 0.8172
vt 0.8289 0.8589
vt 0.8205 0.8210
vt 0.8289 0.8589
vt 0.8372 0.8210
vt 0.8212 0.8155
vt 0.8365 0.8155
vt 0.8289 0.8589
vt 0.8209 0.8178
vt 0.8368 0.8178
vt 0.8289 0.7623
vt 0.8289 0.8589
vt 0.8212 0.8155
vt 0.8365 0.8155
vt 0.8289 0.8589
vt 0.8210 0.8172
vt 0.8367 0.8172
vt 0.8289 0.8589
vt 0.8215 0.8135
vt 0.8362 0.8135
vt 0.8289 0.8589
vt 0.8215 0.8135
vt 0.8362 0.8135
vt 0.8289 0.7623
vt 0.8289 0.8589
vt 0.8210 0.8172
vt 0.8367 0.8172
vt 0.8289 0.8589
vt 0.8205 0.8210
vt 0.8289 0.8589
vt 0.8372 0.8210
vt 0.8202 0.8228
vt 0.8289 0.8589
vt 0.8375 0.8228
vt 0.8202 0.8228
vt 0.8289 0.8589
vt 0.8375 0.8228
vt 0.8289 0.7623
vt 0.8202 0.8228
vt 0.8289 0.8589
vt 0.8375 0.8228
vt 0.8202 0.8228
vt 0.8375 0.8228
vt 0.8289 0.8589
vt 0.8202 0.8228
vt 0.8375 0.8228
vt 0.8289 0.8589
vt 0.8214 0.8144
vt 0.8363 0.8144
vt 0.8289 0.8589
vt 0.8212 0.8157
vt 0.8365 0.8157
vt 0.8289 0.8589
vt 0.7964 0.7618
vt 0.7962 0.8151
vt 0.7939 0.8147
vt 0.7934 0.7615
vt 0.7916 0.8147
vt 0.7904 0.7616
vt 0.7995 0.7615
vt 0.7984 0.8147
vt 0.7926 0.8602
vt 0.7918 0.8600
vt 0.7917 0.8142
vt 0.7938 0.8175
vt 0.7911 0.8601
vt 0.7904 0.8599
vt 0.8018 0.7633
vt 0.8051 0.7615
vt 0.8027 0.7859
vt 0.8023 0.7858
vt 0.7995 0.7619
vt 0.8019 0.7859
vt 0.8073 0.7622
vt 0.8031 0.7859
vn -0.2657 0.9611 -0.0757
vn -0.0421 0.9695 -0.2415
vn 0.0539 0.9710 -0.2329
vn -0.0408 0.9624 -0.2687
vn 0.0331 0.9755 -0.2177
vn -0.2306 0.9577 -0.1720
vn -0.2362 0.9683 -0.0815
vn -0.1268 0.9720 -0.1977
vn -0.0807 0.9915 -0.1023
vn -0.2156 0.9643 -0.1539
vn 0.1811 0.9710 0.1560
vn 0.3047 0.9240 0.2312
vn -0.0674 0.9499 0.3051
vn -0.0543 0.9356 0.3489
vn 0.1144 0.9527 0.2816
vn 0.1093 0.9500 0.2924
vn 0.1872 0.9672 0.1714
vn 0.3450 0.9220 0.1755
vn 0.4177 0.9059 0.0692
vn 0.4474 0.8933 0.0433
vn 0.3667 0.9265 -0.0841
vn 0.4565 0.8853 -0.0887
vn 0.1723 0.9370 0.3039
vn 0.2155 0.9000 0.3789
vn 0.3332 0.9310 0.1488
vn 0.4690 0.8546 0.2232
vn -0.3674 0.8390 0.4014
vn -0.4425 0.7469 0.4964
vn -0.4855 0.8634 0.1371
vn -0.5265 0.8386 0.1396
vn -0.4800 0.8189 0.3148
vn -0.4895 0.8159 0.3077
vn -0.2141 0.9767 -0.0158
vn -0.0336 0.9855 0.1664
vn -0.1966 0.9804 0.0162
vn -0.3039 0.9526 -0.0154
vn -0.0500 0.9783 0.2010
vn -0.0338 0.9658 0.2573
vn 0.0769 0.9795 0.1860
vn 0.0342 0.9394 0.3410
vn -0.2531 0.9591 -0.1269
vn -0.3883 0.9173 -0.0882
vn -0.1465 0.9844 0.0976
vn -0.3012 0.9191 0.2540
vn -0.0789 0.9869 0.1409
vn -0.2387 0.9711 0.0035
vn 0.2657 -0.9611 0.0757
vn 0.0421 -0.9695 0.2415
vn -0.0539 -0.9710 0.2329
vn 0.0408 -0.9624 0.2687
vn -0.0331 -0.9755 0.2177
vn 0.2306 -0.9577 0.1720
vn 0.2362 -0.9683 0.0815
vn 0.1268 -0.9720 0.1977
vn 0.0807 -0.9915 0.1023
vn 0.2156 -0.9643 0.1539
vn -0.1811 -0.9710 -0.1560
vn -0.3047 -0.9240 -0.2312
vn 0.0674 -0.9500 -0.3050
vn 0.0543 -0.9356 -0.3489
vn -0.1144 -0.9527 -0.2816
vn -0.1093 -0.9500 -0.2924
vn -0.1872 -0.9672 -0.1714
vn -0.3450 -0.9221 -0.1755
vn -0.4177 -0.9059 -0.0692
vn -0.4474 -0.8933 -0.0433
vn -0.3667 -0.9265 0.0841
vn -0.4565 -0.8853 0.0887
vn -0.1722 -0.9370 -0.3038
vn -0.2155 -0.9000 -0.3789
vn -0.3332 -0.9310 -0.1488
vn -0.4689 -0.8546 -0.2232
vn 0.3674 -0.8390 -0.4014
vn 0.4425 -0.7469 -0.4964
vn 0.4855 -0.8634 -0.1371
vn 0.5265 -0.8386 -0.1396
vn 0.4800 -0.8189 -0.3148
vn 0.4895 -0.8159 -0.3077
vn 0.2141 -0.9767 0.0158
vn 0.0336 -0.9855 -0.1664
vn 0.1966 -0.9804 -0.0162
vn 0.3039 -0.9526 0.0154
vn 0.0500 -0.9783 -0.2010
vn 0.0338 -0.9658 -0.2572
vn -0.0769 -0.9795 -0.1860
vn -0.0342 -0.9394 -0.3410
vn 0.2531 -0.9591 0.1269
vn 0.3883 -0.9173 0.0882
vn 0.1465 -0.9844 -0.0976
vn 0.3012 -0.9191 -0.2540
vn 0.0789 -0.9869 -0.1409
vn 0.2387 -0.9711 -0.0035
vn -0.5541 -0.0432 0.8313
vn -0.4413 0.0944 -0.8924
vn 0.9972 -0.0391 0.0643
vn 0.9853 -0.1711 -0.0026
vn -0.5867 0.1191 -0.8010
vn -0.5377 -0.2457 0.8066
vn -0.1235 0.0595 0.9906
vn 0.6483 0.7053 -0.2868
vn -0.8213 -0.1679 0.5453
vn -0.1485 -0.9477 -0.2825
s off
f 3/1/1 4/2/1 2/3/1
f 6/4/2 1/5/2 7/6/2
f 6/4/3 7/6/3 5/7/3
f 9/8/4 1/5/4 10/9/4
f 9/8/5 10/9/5 8/10/5
f 12/11/6 1/5/6 13/12/6
f 12/11/7 13/12/7 11/13/7
f 15/14/8 1/5/8 16/15/8
f 15/14/9 16/15/9 14/16/9
f 3/1/10 1/5/10 4/2/10
f 19/17/11 17/18/11 20/19/11
f 19/17/12 20/19/12 18/20/12
f 22/21/13 17/18/13 23/22/13
f 22/21/14 23/22/14 21/23/14
f 25/24/15 26/25/15 24/26/15
f 25/24/16 17/18/16 26/25/16
f 28/27/17 17/18/17 29/28/17
f 28/27/18 29/28/18 27/29/18
f 32/30/19 30/31/19 33/32/19
f 32/30/20 33/32/20 31/33/20
f 35/34/21 30/31/21 36/35/21
f 35/34/22 36/35/22 34/36/22
f 38/37/23 30/31/23 39/38/23
f 38/37/24 39/38/24 37/39/24
f 41/40/25 30/31/25 42/41/25
f 41/40/26 42/41/26 40/42/26
f 45/43/27 43/44/27 46/45/27
f 45/43/28 46/45/28 44/46/28
f 48/47/29 43/44/29 49/48/29
f 48/47/30 49/48/30 47/49/30
f 51/50/31 52/51/31 50/52/31
f 51/50/32 43/44/32 52/51/32
f 55/53/33 56/54/33 53/55/33
f 58/56/34 59/57/34 57/58/34
f 55/53/35 54/59/35 56/54/35
f 61/60/36 62/61/36 60/62/36
f 64/63/37 54/59/37 65/64/37
f 64/63/38 65/64/38 63/65/38
f 67/66/39 54/59/39 68/67/39
f 67/66/40 68/67/40 66/68/40
f 70/69/41 54/59/41 71/70/41
f 70/69/42 71/70/42 69/71/42
f 73/72/43 54/59/43 74/73/43
f 73/72/44 74/73/44 72/74/44
f 58/56/45 54/59/45 59/57/45
f 61/60/46 54/59/46 62/61/46
f 77/75/47 76/76/47 78/77/47
f 80/78/48 81/79/48 75/80/48
f 80/78/49 79/81/49 81/79/49
f 83/82/50 84/83/50 75/80/50
f 83/82/51 82/84/51 84/83/51
f 86/85/52 87/86/52 75/80/52
f 86/85/53 85/87/53 87/86/53
f 89/88/54 90/89/54 75/80/54
f 89/88/55 88/90/55 90/89/55
f 77/75/56 78/77/56 75/80/56
f 93/91/57 94/92/57 91/93/57
f 93/91/58 92/94/58 94/92/58
f 96/95/59 97/96/59 91/93/59
f 96/95/60 95/97/60 97/96/60
f 99/98/61 98/99/61 100/100/61
f 99/98/62 100/100/62 91/93/62
f 102/101/63 103/102/63 91/93/63
f 102/101/64 101/103/64 103/102/64
f 106/104/65 107/105/65 104/106/65
f 106/104/66 105/107/66 107/105/66
f 109/108/67 110/109/67 104/106/67
f 109/108/68 108/110/68 110/109/68
f 112/111/69 113/112/69 104/106/69
f 112/111/70 111/113/70 113/112/70
f 115/114/71 116/115/71 104/106/71
f 115/114/72 114/116/72 116/115/72
f 119/117/73 120/118/73 117/119/73
f 119/117/74 118/120/74 120/118/74
f 122/121/75 123/122/75 117/119/75
f 122/121/76 121/123/76 123/122/76
f 125/124/77 124/125/77 126/126/77
f 125/124/78 126/126/78 117/119/78
f 129/127/79 127/128/79 130/129/79
f 132/130/80 131/131/80 133/132/80
f 129/127/81 130/129/81 128/133/81
f 135/134/82 134/135/82 136/136/82
f 138/137/83 139/138/83 128/133/83
f 138/137/84 137/139/84 139/138/84
f 141/140/85 142/141/85 128/133/85
f 141/140/86 140/142/86 142/141/86
f 144/143/87 145/144/87 128/133/87
f 144/143/88 143/145/88 145/144/88
f 147/146/89 148/147/89 128/133/89
f 147/146/90 146/148/90 148/147/90
f 132/130/91 133/132/91 128/133/91
f 135/134/92 136/136/92 128/133/92
f 149/149/93 150/150/93 152/151/93 151/152/93
f 151/152/94 152/151/94 154/153/94 153/154/94
f 153/155/95 154/156/95 150/150/95 149/149/95
f 150/150/96 154/156/96 157/157/96 155/158/96
f 154/159/97 158/160/97 156/161/97 157/162/97
f 152/151/98 150/150/98 158/160/98
f 158/160/99 150/150/99 155/158/99 156/161/99
f 158/163/100 154/164/100 160/165/100 161/166/100
f 152/167/101 158/163/101 161/166/101 159/168/101
f 154/164/102 152/169/102 159/170/102 160/165/102
