# Blender v2.78 (sub 0) OBJ File: 'Low_Poly_Vegetation_Pack.blend'
# www.blender.org
g Plant_h_TwoS_01
v -0.002172 -0.003088 -0.002970
v -0.173133 0.116687 -0.019334
v -0.080561 0.150279 -0.122030
v -0.166302 0.166190 -0.095549
v -0.116257 0.038637 0.036197
v 0.004296 0.082382 -0.097539
v -0.052686 0.066593 -0.025711
v -0.125125 0.138276 -0.067562
v -0.000398 -0.003842 -0.002035
v -0.036164 0.078074 -0.170092
v 0.090964 0.058039 -0.157136
v 0.034500 0.081013 -0.213247
v -0.070426 0.044572 -0.080872
v 0.095128 0.018481 -0.064000
v 0.013181 0.038659 -0.069550
v 0.028094 0.073288 -0.162336
v -0.002273 -0.003203 -0.003098
v -0.173190 0.116540 -0.019458
v -0.080641 0.150124 -0.122128
v -0.166350 0.166022 -0.095647
v -0.116330 0.038507 0.036064
v 0.004199 0.082245 -0.097647
v -0.052775 0.066463 -0.025834
v -0.125187 0.138119 -0.067669
v -0.000413 -0.004010 -0.002144
v -0.036170 0.077883 -0.170153
v 0.090924 0.057854 -0.157200
v 0.034473 0.080818 -0.213280
v -0.070428 0.044390 -0.080956
v 0.095091 0.018305 -0.064087
v 0.013162 0.038482 -0.069641
v 0.028069 0.073097 -0.162390
vt 0.0598 0.7149
vt 0.0852 0.7144
vt 0.0598 0.7343
vt 0.0344 0.7144
vt 0.0598 0.6441
vt 0.0929 0.6755
vt 0.0598 0.6758
vt 0.0267 0.6755
vt 0.0598 0.7149
vt 0.0852 0.7144
vt 0.0598 0.7343
vt 0.0344 0.7144
vt 0.0598 0.6441
vt 0.0929 0.6755
vt 0.0598 0.6758
vt 0.0267 0.6755
vt 0.0598 0.7149
vt 0.0598 0.7343
vt 0.0852 0.7144
vt 0.0344 0.7144
vt 0.0598 0.6441
vt 0.0598 0.6758
vt 0.0929 0.6755
vt 0.0267 0.6755
vt 0.0598 0.7149
vt 0.0598 0.7343
vt 0.0852 0.7144
vt 0.0344 0.7144
vt 0.0598 0.6441
vt 0.0598 0.6758
vt 0.0929 0.6755
vt 0.0267 0.6755
vn 0.2907 0.8565 0.4266
vn 0.1821 0.8171 0.5470
vn 0.5611 0.5947 0.5758
vn 0.4377 0.7376 0.5142
vn 0.3235 0.6962 0.6409
vn 0.4442 0.5522 0.7055
vn 0.2186 0.9603 0.1732
vn 0.0546 0.9862 0.1565
vn 0.1646 0.8195 0.5490
vn 0.1942 0.9072 0.3732
vn 0.0217 0.9344 0.3556
vn -0.0120 0.8473 0.5310
vn -0.2907 -0.8565 -0.4266
vn -0.1821 -0.8171 -0.5470
vn -0.5611 -0.5947 -0.5758
vn -0.4377 -0.7376 -0.5142
vn -0.3234 -0.6962 -0.6409
vn -0.4442 -0.5522 -0.7055
vn -0.2186 -0.9603 -0.1732
vn -0.0546 -0.9862 -0.1565
vn -0.1646 -0.8195 -0.5490
vn -0.1942 -0.9072 -0.3732
vn -0.0217 -0.9344 -0.3556
vn 0.0120 -0.8473 -0.5310
s off
f 8/1/1 3/2/1 4/3/1
f 2/4/2 8/1/2 4/3/2
f 1/5/3 6/6/3 7/7/3
f 7/7/4 6/6/4 3/2/4 8/1/4
f 5/8/5 7/7/5 8/1/5 2/4/5
f 5/8/6 1/5/6 7/7/6
f 16/9/7 11/10/7 12/11/7
f 10/12/8 16/9/8 12/11/8
f 9/13/9 14/14/9 15/15/9
f 15/15/10 14/14/10 11/10/10 16/9/10
f 13/16/11 15/15/11 16/9/11 10/12/11
f 13/16/12 9/13/12 15/15/12
f 24/17/13 20/18/13 19/19/13
f 18/20/14 20/18/14 24/17/14
f 17/21/15 23/22/15 22/23/15
f 23/22/16 24/17/16 19/19/16 22/23/16
f 21/24/17 18/20/17 24/17/17 23/22/17
f 21/24/18 23/22/18 17/21/18
f 32/25/19 28/26/19 27/27/19
f 26/28/20 28/26/20 32/25/20
f 25/29/21 31/30/21 30/31/21
f 31/30/22 32/25/22 27/27/22 30/31/22
f 29/32/23 26/28/23 32/25/23 31/30/23
f 29/32/24 31/30/24 25/29/24
