# Blender v2.78 (sub 0) OBJ File: 'Low_Poly_Vegetation_Pack.blend'
# www.blender.org
g Plant_k_TwoS_02
v 0.001480 -0.002007 -0.000800
v 0.112407 0.119182 -0.104854
v 0.149304 0.119182 -0.036577
v 0.177852 0.135864 -0.096113
v 0.029913 0.059146 -0.073605
v 0.077963 0.059146 0.015309
v 0.059040 0.053573 -0.031906
v 0.137355 0.111316 -0.074228
v -0.001352 -0.001573 -0.001006
v -0.117670 0.134531 -0.035407
v -0.073480 0.132797 -0.087450
v -0.132672 0.140235 -0.093147
v -0.061119 0.065763 0.012838
v -0.008730 0.066936 -0.059023
v -0.038385 0.064019 -0.024816
v -0.099777 0.127010 -0.063982
v 0.000081 -0.002926 -0.001817
v -0.063349 0.106548 -0.234879
v 0.038095 0.112283 -0.244791
v -0.030411 0.092608 -0.333585
v -0.069638 0.066008 -0.092015
v 0.063226 0.070513 -0.093292
v -0.002949 0.062060 -0.098636
v -0.014267 0.093633 -0.249641
v 0.001594 -0.002160 -0.000861
v 0.112477 0.119018 -0.104942
v 0.149417 0.119018 -0.036588
v 0.177935 0.135688 -0.096158
v 0.029999 0.058989 -0.073694
v 0.078084 0.058989 0.015285
v 0.059147 0.053414 -0.031963
v 0.137446 0.111145 -0.074277
v -0.001485 -0.001685 -0.001105
v -0.117779 0.134366 -0.035443
v -0.073546 0.132634 -0.087546
v -0.132719 0.140044 -0.093181
v -0.061252 0.065629 0.012771
v -0.008833 0.066806 -0.059135
v -0.038506 0.063888 -0.024907
v -0.099857 0.126836 -0.064040
v 0.000086 -0.003092 -0.001929
v -0.063390 0.106354 -0.234906
v 0.038150 0.112094 -0.244829
v -0.030403 0.092409 -0.333584
v -0.069668 0.065825 -0.092090
v 0.063266 0.070334 -0.093371
v -0.002943 0.061878 -0.098717
v -0.014257 0.093434 -0.249664
vt 0.3004 0.8341
vt 0.3125 0.8340
vt 0.3004 0.8501
vt 0.2882 0.8340
vt 0.3004 0.7744
vt 0.3162 0.8010
vt 0.3004 0.8012
vt 0.2846 0.8010
vt 0.3004 0.8341
vt 0.3125 0.8340
vt 0.3004 0.8501
vt 0.2882 0.8340
vt 0.3004 0.7744
vt 0.3162 0.8010
vt 0.3004 0.8012
vt 0.2846 0.8010
vt 0.4355 0.8341
vt 0.4476 0.8340
vt 0.4355 0.8501
vt 0.4234 0.8340
vt 0.4355 0.7744
vt 0.4513 0.8010
vt 0.4355 0.8012
vt 0.4197 0.8010
vt 0.3004 0.8341
vt 0.3004 0.8501
vt 0.3125 0.8340
vt 0.2882 0.8340
vt 0.3004 0.7744
vt 0.3004 0.8012
vt 0.3162 0.8010
vt 0.2846 0.8010
vt 0.3004 0.8341
vt 0.3004 0.8501
vt 0.3125 0.8340
vt 0.2882 0.8340
vt 0.3004 0.7744
vt 0.3004 0.8012
vt 0.3162 0.8010
vt 0.2846 0.8010
vt 0.4355 0.8341
vt 0.4355 0.8501
vt 0.4476 0.8340
vt 0.4234 0.8340
vt 0.4355 0.7744
vt 0.4355 0.8012
vt 0.4513 0.8010
vt 0.4197 0.8010
vn -0.5231 0.8522 -0.0120
vn -0.2765 0.8522 0.4442
vn -0.6369 0.7527 0.1664
vn -0.5830 0.8081 0.0841
vn -0.3898 0.8081 0.4416
vn -0.4882 0.7527 0.4416
vn 0.0865 0.9404 0.3288
vn 0.3782 0.9257 -0.0068
vn 0.6069 0.5507 0.5731
vn 0.4435 0.7166 0.5384
vn 0.6179 0.7362 0.2760
vn 0.7223 0.5567 0.4103
vn -0.3395 0.9391 0.0538
vn 0.2378 0.9696 -0.0576
vn -0.1494 0.8188 0.5543
vn -0.2363 0.9374 0.2557
vn 0.1819 0.9557 0.2314
vn 0.1038 0.8273 0.5521
vn 0.5230 -0.8522 0.0119
vn 0.2766 -0.8522 -0.4440
vn 0.6369 -0.7527 -0.1665
vn 0.5830 -0.8081 -0.0842
vn 0.3899 -0.8081 -0.4415
vn 0.4882 -0.7527 -0.4416
vn -0.0865 -0.9404 -0.3288
vn -0.3781 -0.9257 0.0068
vn -0.6069 -0.5507 -0.5731
vn -0.4436 -0.7166 -0.5383
vn -0.6178 -0.7362 -0.2761
vn -0.7223 -0.5567 -0.4103
vn 0.3393 -0.9391 -0.0538
vn -0.2377 -0.9696 0.0576
vn 0.1493 -0.8188 -0.5543
vn 0.2362 -0.9374 -0.2557
vn -0.1818 -0.9557 -0.2314
vn -0.1038 -0.8273 -0.5521
s off
f 8/1/1 3/2/1 4/3/1
f 2/4/2 8/1/2 4/3/2
f 1/5/3 6/6/3 7/7/3
f 7/7/4 6/6/4 3/2/4 8/1/4
f 5/8/5 7/7/5 8/1/5 2/4/5
f 5/8/6 1/5/6 7/7/6
f 16/9/7 11/10/7 12/11/7
f 10/12/8 16/9/8 12/11/8
f 9/13/9 14/14/9 15/15/9
f 15/15/10 14/14/10 11/10/10 16/9/10
f 13/16/11 15/15/11 16/9/11 10/12/11
f 13/16/12 9/13/12 15/15/12
f 24/17/13 19/18/13 20/19/13
f 18/20/14 24/17/14 20/19/14
f 17/21/15 22/22/15 23/23/15
f 23/23/16 22/22/16 19/18/16 24/17/16
f 21/24/17 23/23/17 24/17/17 18/20/17
f 21/24/18 17/21/18 23/23/18
f 32/25/19 28/26/19 27/27/19
f 26/28/20 28/26/20 32/25/20
f 25/29/21 31/30/21 30/31/21
f 31/30/22 32/25/22 27/27/22 30/31/22
f 29/32/23 26/28/23 32/25/23 31/30/23
f 29/32/24 31/30/24 25/29/24
f 40/33/25 36/34/25 35/35/25
f 34/36/26 36/34/26 40/33/26
f 33/37/27 39/38/27 38/39/27
f 39/38/28 40/33/28 35/35/28 38/39/28
f 37/40/29 34/36/29 40/33/29 39/38/29
f 37/40/30 39/38/30 33/37/30
f 48/41/31 44/42/31 43/43/31
f 42/44/32 44/42/32 48/41/32
f 41/45/33 47/46/33 46/47/33
f 47/46/34 48/41/34 43/43/34 46/47/34
f 45/48/35 42/44/35 48/41/35 47/46/35
f 45/48/36 47/46/36 41/45/36
