# Blender v2.78 (sub 0) OBJ File: 'Low_Poly_Vegetation_Pack.blend'
# www.blender.org
g GrassPlanes_a_TwoS_11
v -0.111012 -0.019189 0.349853
v -0.173110 0.392481 0.339210
v -0.016107 -0.020811 -0.336073
v -0.078205 0.390859 -0.346717
v -0.052877 0.395598 -0.108311
v -0.083436 0.396218 0.120515
v -0.021338 -0.015452 0.131159
v 0.009222 -0.016072 -0.097668
v -0.122056 0.135058 0.347960
v -0.027151 0.133436 -0.337966
v -0.032382 0.138795 0.129266
v -0.001822 0.138175 -0.099561
v -0.300419 -0.019189 0.210874
v -0.343344 0.392481 0.164754
v 0.190985 -0.020811 -0.277004
v 0.148061 0.390859 -0.323123
v 0.023634 0.395598 -0.118192
v -0.139424 0.396218 0.045233
v -0.096499 -0.015452 0.091352
v 0.066559 -0.016072 -0.072072
v -0.308053 0.135058 0.202672
v 0.183351 0.133436 -0.285206
v -0.104133 0.138795 0.083150
v 0.058925 0.138175 -0.080274
v -0.327220 -0.017270 -0.045286
v -0.327220 0.353233 -0.101990
v 0.295670 -0.018730 -0.065388
v 0.295670 0.351773 -0.122091
v 0.088040 0.356038 -0.063376
v -0.119590 0.356596 -0.055693
v -0.119590 -0.013907 0.001010
v 0.088040 -0.014465 -0.006672
v -0.327220 0.121552 -0.055371
v 0.295670 0.120092 -0.075472
v -0.119590 0.124915 -0.009074
v 0.088040 0.124357 -0.016757
v -0.157308 -0.019712 -0.342676
v -0.102744 0.403192 -0.377488
v 0.244444 -0.021379 0.244373
v 0.299008 0.401525 0.209561
v 0.115038 0.406394 0.045811
v -0.019824 0.407031 -0.149269
v -0.074388 -0.015874 -0.114457
v 0.060474 -0.016511 0.080623
v -0.147604 0.138744 -0.348867
v 0.254147 0.137077 0.238182
v -0.064684 0.142582 -0.120648
v 0.070178 0.141945 0.074432
v -0.111104 -0.019196 0.349815
v -0.173201 0.392462 0.339172
v -0.016206 -0.020818 -0.336063
v -0.078303 0.390840 -0.346706
v -0.052975 0.395578 -0.108312
v -0.083531 0.396198 0.120490
v -0.021434 -0.015459 0.131133
v 0.009122 -0.016079 -0.097669
v -0.122147 0.135045 0.347922
v -0.027249 0.133423 -0.337956
v -0.032477 0.138781 0.129240
v -0.001921 0.138161 -0.099562
v -0.300469 -0.019196 0.210787
v -0.343393 0.392462 0.164670
v 0.190900 -0.020818 -0.277055
v 0.147976 0.390840 -0.323174
v 0.023557 0.395578 -0.118252
v -0.139483 0.396198 0.045155
v -0.096560 -0.015459 0.091273
v 0.066480 -0.016079 -0.072134
v -0.308103 0.135045 0.202586
v 0.183266 0.133423 -0.285257
v -0.104194 0.138781 0.083072
v 0.058847 0.138161 -0.080335
v -0.327199 -0.017277 -0.045384
v -0.327199 0.353214 -0.102085
v 0.295643 -0.018737 -0.065484
v 0.295643 0.351754 -0.122185
v 0.088024 0.356019 -0.063473
v -0.119581 0.356577 -0.055791
v -0.119581 -0.013914 0.000911
v 0.088024 -0.014472 -0.006771
v -0.327199 0.121539 -0.055467
v 0.295643 0.120079 -0.075567
v -0.119581 0.124902 -0.009173
v 0.088025 0.124344 -0.016855
v -0.157214 -0.019719 -0.342710
v -0.102651 0.403173 -0.377521
v 0.244510 -0.021386 0.244298
v 0.299073 0.401506 0.209487
v 0.115112 0.406374 0.045746
v -0.019737 0.407011 -0.149314
v -0.074299 -0.015881 -0.114503
v 0.060549 -0.016518 0.080557
v -0.147511 0.138731 -0.348901
v 0.254213 0.137064 0.238108
v -0.064596 0.142569 -0.120694
v 0.070252 0.141932 0.074366
vt 0.6199 0.3782
vt 0.9028 0.3782
vt 0.9028 0.9968
vt 0.6199 0.9968
vt 0.0542 0.3782
vt 0.3371 0.3782
vt 0.3371 0.9968
vt 0.0542 0.9968
vt 0.3371 0.0002
vt 0.6199 0.0002
vt 0.0542 0.0000
vt 0.9028 0.0002
vt 0.6199 0.3782
vt 0.9028 0.3782
vt 0.9028 0.9968
vt 0.6199 0.9968
vt 0.0542 0.3782
vt 0.3371 0.3782
vt 0.3371 0.9968
vt 0.0542 0.9968
vt 0.3371 0.0002
vt 0.6199 0.0002
vt 0.0542 0.0000
vt 0.9028 0.0002
vt 0.6199 0.3782
vt 0.9028 0.3782
vt 0.9028 0.9968
vt 0.6199 0.9968
vt 0.0542 0.3782
vt 0.3371 0.3782
vt 0.3371 0.9968
vt 0.0542 0.9968
vt 0.3371 0.0002
vt 0.6199 0.0002
vt 0.0542 0.0000
vt 0.9028 0.0002
vt 0.6199 0.3782
vt 0.9028 0.3782
vt 0.9028 0.9968
vt 0.6199 0.9968
vt 0.0542 0.3782
vt 0.3371 0.3782
vt 0.3371 0.9968
vt 0.0542 0.9968
vt 0.3371 0.0002
vt 0.6199 0.0002
vt 0.0542 0.0000
vt 0.9028 0.0002
vt 0.6199 0.3782
vt 0.6199 0.9968
vt 0.9028 0.9968
vt 0.9028 0.3782
vt 0.0542 0.3782
vt 0.0542 0.9968
vt 0.3371 0.9968
vt 0.3371 0.3782
vt 0.3371 0.0002
vt 0.6199 0.0002
vt 0.0542 0.0000
vt 0.9028 0.0002
vt 0.6199 0.3782
vt 0.6199 0.9968
vt 0.9028 0.9968
vt 0.9028 0.3782
vt 0.0542 0.3782
vt 0.0542 0.9968
vt 0.3371 0.9968
vt 0.3371 0.3782
vt 0.3371 0.0002
vt 0.6199 0.0002
vt 0.0542 0.0000
vt 0.9028 0.0002
vt 0.6199 0.3782
vt 0.6199 0.9968
vt 0.9028 0.9968
vt 0.9028 0.3782
vt 0.0542 0.3782
vt 0.0542 0.9968
vt 0.3371 0.9968
vt 0.3371 0.3782
vt 0.3371 0.0002
vt 0.6199 0.0002
vt 0.0542 0.0000
vt 0.9028 0.0002
vt 0.6199 0.3782
vt 0.6199 0.9968
vt 0.9028 0.9968
vt 0.9028 0.3782
vt 0.0542 0.3782
vt 0.0542 0.9968
vt 0.3371 0.9968
vt 0.3371 0.3782
vt 0.3371 0.0002
vt 0.6199 0.0002
vt 0.0542 0.0000
vt 0.9028 0.0002
vn 0.9910 0.1332 0.0125
vn 0.9856 0.1307 -0.1073
vn 0.9759 0.1899 -0.1075
vn 0.9808 0.1948 0.0095
vn 0.9163 0.1324 0.3780
vn 0.9573 0.1343 0.2561
vn 0.9467 0.1964 0.2551
vn 0.9067 0.1926 0.3751
vn 0.9635 0.0721 0.2578
vn 0.9973 0.0715 0.0126
vn 0.9225 0.0707 0.3795
vn 0.9918 0.0697 -0.1068
vn 0.7804 0.1332 0.6109
vn 0.8488 0.1307 0.5123
vn 0.8412 0.1899 0.5063
vn 0.7741 0.1948 0.6023
vn 0.4994 0.1324 0.8562
vn 0.6059 0.1343 0.7841
vn 0.5981 0.1964 0.7769
vn 0.4935 0.1926 0.8481
vn 0.6098 0.0721 0.7892
vn 0.7854 0.0715 0.6148
vn 0.5034 0.0707 0.8611
vn 0.8534 0.0697 0.5165
vn 0.1550 0.1332 0.9789
vn 0.2723 0.1307 0.9533
vn 0.2708 0.1899 0.9437
vn 0.1563 0.1948 0.9683
vn -0.2177 0.1324 0.9669
vn -0.0907 0.1343 0.9868
vn -0.0915 0.1964 0.9762
vn -0.2165 0.1926 0.9571
vn -0.0913 0.0721 0.9932
vn 0.1560 0.0715 0.9851
vn -0.2182 0.0707 0.9733
vn 0.2728 0.0697 0.9595
vn -0.7418 0.1332 0.6572
vn -0.6572 0.1307 0.7422
vn -0.6500 0.1899 0.7358
vn -0.7322 0.1948 0.6526
vn -0.9323 0.1324 0.3365
vn -0.8806 0.1343 0.4543
vn -0.8722 0.1964 0.4479
vn -0.9233 0.1926 0.3322
vn -0.8864 0.0721 0.4572
vn -0.7466 0.0715 0.6614
vn -0.9379 0.0707 0.3396
vn -0.6622 0.0697 0.7461
vn -0.9910 -0.1332 -0.0125
vn -0.9808 -0.1948 -0.0095
vn -0.9759 -0.1899 0.1075
vn -0.9856 -0.1307 0.1073
vn -0.9163 -0.1324 -0.3780
vn -0.9067 -0.1926 -0.3751
vn -0.9467 -0.1964 -0.2551
vn -0.9573 -0.1343 -0.2561
vn -0.9635 -0.0721 -0.2578
vn -0.9973 -0.0715 -0.0126
vn -0.9225 -0.0707 -0.3795
vn -0.9918 -0.0697 0.1068
vn -0.7804 -0.1332 -0.6109
vn -0.7741 -0.1948 -0.6023
vn -0.8412 -0.1899 -0.5063
vn -0.8488 -0.1307 -0.5123
vn -0.4994 -0.1324 -0.8562
vn -0.4935 -0.1926 -0.8481
vn -0.5981 -0.1964 -0.7769
vn -0.6059 -0.1343 -0.7841
vn -0.6098 -0.0721 -0.7892
vn -0.7854 -0.0715 -0.6148
vn -0.5034 -0.0707 -0.8611
vn -0.8534 -0.0697 -0.5165
vn -0.1550 -0.1332 -0.9789
vn -0.1563 -0.1948 -0.9683
vn -0.2708 -0.1899 -0.9437
vn -0.2723 -0.1307 -0.9533
vn 0.2177 -0.1324 -0.9669
vn 0.2165 -0.1926 -0.9571
vn 0.0915 -0.1964 -0.9762
vn 0.0907 -0.1343 -0.9868
vn 0.0913 -0.0721 -0.9932
vn -0.1560 -0.0715 -0.9851
vn 0.2182 -0.0707 -0.9733
vn -0.2728 -0.0697 -0.9595
vn 0.7418 -0.1332 -0.6572
vn 0.7322 -0.1948 -0.6526
vn 0.6500 -0.1899 -0.7359
vn 0.6572 -0.1307 -0.7423
vn 0.9323 -0.1324 -0.3365
vn 0.9233 -0.1926 -0.3322
vn 0.8722 -0.1964 -0.4479
vn 0.8806 -0.1343 -0.4543
vn 0.8864 -0.0721 -0.4572
vn 0.7466 -0.0715 -0.6614
vn 0.9379 -0.0707 -0.3396
vn 0.6622 -0.0697 -0.7461
s 1
f 12/1/1 10/2/2 4/3/3 5/4/4
f 9/5/5 11/6/6 6/7/7 2/8/8
f 11/6/6 12/1/1 5/4/4 6/7/7
f 7/9/9 8/10/10 12/1/1 11/6/6
f 1/11/11 7/9/9 11/6/6 9/5/5
f 8/10/10 3/12/12 10/2/2 12/1/1
f 24/13/13 22/14/14 16/15/15 17/16/16
f 21/17/17 23/18/18 18/19/19 14/20/20
f 23/18/18 24/13/13 17/16/16 18/19/19
f 19/21/21 20/22/22 24/13/13 23/18/18
f 13/23/23 19/21/21 23/18/18 21/17/17
f 20/22/22 15/24/24 22/14/14 24/13/13
f 36/25/25 34/26/26 28/27/27 29/28/28
f 33/29/29 35/30/30 30/31/31 26/32/32
f 35/30/30 36/25/25 29/28/28 30/31/31
f 31/33/33 32/34/34 36/25/25 35/30/30
f 25/35/35 31/33/33 35/30/30 33/29/29
f 32/34/34 27/36/36 34/26/26 36/25/25
f 48/37/37 46/38/38 40/39/39 41/40/40
f 45/41/41 47/42/42 42/43/43 38/44/44
f 47/42/42 48/37/37 41/40/40 42/43/43
f 43/45/45 44/46/46 48/37/37 47/42/42
f 37/47/47 43/45/45 47/42/42 45/41/41
f 44/46/46 39/48/48 46/38/38 48/37/37
f 60/49/49 53/50/50 52/51/51 58/52/52
f 57/53/53 50/54/54 54/55/55 59/56/56
f 59/56/56 54/55/55 53/50/50 60/49/49
f 55/57/57 59/56/56 60/49/49 56/58/58
f 49/59/59 57/53/53 59/56/56 55/57/57
f 56/58/58 60/49/49 58/52/52 51/60/60
f 72/61/61 65/62/62 64/63/63 70/64/64
f 69/65/65 62/66/66 66/67/67 71/68/68
f 71/68/68 66/67/67 65/62/62 72/61/61
f 67/69/69 71/68/68 72/61/61 68/70/70
f 61/71/71 69/65/65 71/68/68 67/69/69
f 68/70/70 72/61/61 70/64/64 63/72/72
f 84/73/73 77/74/74 76/75/75 82/76/76
f 81/77/77 74/78/78 78/79/79 83/80/80
f 83/80/80 78/79/79 77/74/74 84/73/73
f 79/81/81 83/80/80 84/73/73 80/82/82
f 73/83/83 81/77/77 83/80/80 79/81/81
f 80/82/82 84/73/73 82/76/76 75/84/84
f 96/85/85 89/86/86 88/87/87 94/88/88
f 93/89/89 86/90/90 90/91/91 95/92/92
f 95/92/92 90/91/91 89/86/86 96/85/85
f 91/93/93 95/92/92 96/85/85 92/94/94
f 85/95/95 93/89/89 95/92/92 91/93/93
f 92/94/94 96/85/85 94/88/88 87/96/96
