# Blender v2.78 (sub 0) OBJ File: 'Low_Poly_Vegetation_Pack.blend'
# www.blender.org
g GrassPlane_a_TwoS_03
v 0.000000 -0.016989 -0.000000
v -0.000000 0.407222 -0.090169
v -0.000000 0.217659 -0.028880
v -0.165099 0.407222 -0.118489
v -0.165099 0.217659 -0.057201
v -0.165099 -0.016989 -0.028320
v 0.174013 -0.016989 -0.028320
v 0.174013 0.407222 -0.118489
v 0.174013 0.217659 -0.057201
v 0.000000 -0.017001 -0.000099
v 0.000000 0.407191 -0.090264
v 0.000000 0.217637 -0.028978
v -0.165083 0.407192 -0.118583
v -0.165083 0.217637 -0.057297
v -0.165082 -0.017001 -0.028418
v 0.173997 -0.017001 -0.028418
v 0.173998 0.407192 -0.118583
v 0.173998 0.217637 -0.057297
vt 0.1568 0.0005
vt 0.5000 0.0005
vt 0.5000 0.5000
vt 0.1568 0.5000
vt 0.5000 0.9811
vt 0.1568 0.9811
vt 0.8618 0.0005
vt 0.8618 0.5000
vt 0.8618 0.9811
vt 0.1568 0.0005
vt 0.1568 0.5000
vt 0.5000 0.5000
vt 0.5000 0.0005
vt 0.1568 0.9811
vt 0.5000 0.9811
vt 0.8618 0.5000
vt 0.8618 0.0005
vt 0.8618 0.9811
vn -0.1678 0.1204 0.9784
vn -0.0042 0.1221 0.9925
vn -0.0041 0.2138 0.9769
vn -0.1651 0.2151 0.9625
vn -0.0042 0.3076 0.9515
vn -0.1611 0.3036 0.9391
vn 0.1595 0.1206 0.9798
vn 0.1569 0.2152 0.9639
vn 0.1530 0.3040 0.9403
vn 0.1678 -0.1204 -0.9784
vn 0.1651 -0.2151 -0.9625
vn 0.0041 -0.2138 -0.9769
vn 0.0042 -0.1221 -0.9925
vn 0.1611 -0.3036 -0.9391
vn 0.0042 -0.3076 -0.9515
vn -0.1569 -0.2152 -0.9639
vn -0.1595 -0.1206 -0.9798
vn -0.1530 -0.3040 -0.9403
s 1
f 6/1/1 1/2/2 3/3/3 5/4/4
f 5/4/4 3/3/3 2/5/5 4/6/6
f 1/2/2 7/7/7 9/8/8 3/3/3
f 3/3/3 9/8/8 8/9/9 2/5/5
f 15/10/10 14/11/11 12/12/12 10/13/13
f 14/11/11 13/14/14 11/15/15 12/12/12
f 10/13/13 12/12/12 18/16/16 16/17/17
f 12/12/12 11/15/15 17/18/18 18/16/16
