# Blender v2.78 (sub 0) OBJ File: 'Low_Poly_Vegetation_Pack.blend'
# www.blender.org
g GrassPlanes_a_TwoS_06
v -0.005599 -0.019790 0.123168
v -0.051157 0.441299 0.120501
v 0.008451 -0.019790 -0.116887
v -0.037106 0.441299 -0.119553
v -0.015232 0.441299 0.023891
v 0.030326 -0.019790 0.026558
v -0.012854 0.186452 0.122743
v 0.001197 0.186452 -0.117311
v 0.023071 0.186452 0.026133
v -0.153259 -0.019790 -0.030216
v -0.153259 0.441299 -0.075852
v 0.087206 -0.019790 -0.030216
v 0.087206 0.441299 -0.075852
v -0.054715 0.441299 -0.045633
v -0.054715 -0.019790 0.000002
v -0.153259 0.186452 -0.037483
v 0.087206 0.186452 -0.037483
v -0.054715 0.186452 -0.007265
v -0.066488 -0.020770 -0.117631
v -0.031488 0.463162 -0.150327
v 0.105799 -0.020770 0.066792
v 0.140799 0.463162 0.034095
v 0.015940 0.463162 -0.053099
v -0.019060 -0.020770 -0.020402
v -0.060915 0.195689 -0.122838
v 0.111373 0.195689 0.061585
v -0.013486 0.195689 -0.025609
v -0.005693 -0.019793 0.123133
v -0.051249 0.441284 0.120467
v 0.008353 -0.019793 -0.116872
v -0.037204 0.441284 -0.119538
v -0.015330 0.441284 0.023881
v 0.030226 -0.019793 0.026547
v -0.012947 0.186443 0.122708
v 0.001098 0.186442 -0.117296
v 0.022972 0.186442 0.026123
v -0.153230 -0.019793 -0.030312
v -0.153230 0.441284 -0.075946
v 0.087185 -0.019793 -0.030314
v 0.087186 0.441284 -0.075948
v -0.054710 0.441284 -0.045732
v -0.054711 -0.019793 -0.000097
v -0.153230 0.186443 -0.037579
v 0.087185 0.186442 -0.037581
v -0.054711 0.186442 -0.007364
v -0.066398 -0.020773 -0.117675
v -0.031399 0.463148 -0.150371
v 0.105857 -0.020773 0.066710
v 0.140856 0.463147 0.034014
v 0.016015 0.463147 -0.053163
v -0.018984 -0.020773 -0.020467
v -0.060825 0.195680 -0.122881
v 0.111430 0.195680 0.061504
v -0.013410 0.195680 -0.025674
vt 0.4299 0.4257
vt 0.4299 0.9920
vt 0.0864 0.9920
vt 0.0864 0.4257
vt 0.9344 0.4257
vt 0.9344 0.9920
vt 0.9344 0.0005
vt 0.4299 0.0005
vt 0.0864 0.0005
vt 0.4299 0.4257
vt 0.4299 0.9920
vt 0.0864 0.9920
vt 0.0864 0.4257
vt 0.9344 0.4257
vt 0.9344 0.9920
vt 0.9344 0.0005
vt 0.4299 0.0005
vt 0.0864 0.0005
vt 0.4299 0.4257
vt 0.4299 0.9920
vt 0.0864 0.9920
vt 0.0864 0.4257
vt 0.9344 0.4257
vt 0.9344 0.9920
vt 0.9344 0.0005
vt 0.4299 0.0005
vt 0.0864 0.0005
vt 0.4299 0.4257
vt 0.0864 0.4257
vt 0.0864 0.9920
vt 0.4299 0.9920
vt 0.9344 0.4257
vt 0.9344 0.9920
vt 0.9344 0.0005
vt 0.4299 0.0005
vt 0.0864 0.0005
vt 0.4299 0.4257
vt 0.0864 0.4257
vt 0.0864 0.9920
vt 0.4299 0.9920
vt 0.9344 0.4257
vt 0.9344 0.9920
vt 0.9344 0.0005
vt 0.4299 0.0005
vt 0.0864 0.0005
vt 0.4299 0.4257
vt 0.0864 0.4257
vt 0.0864 0.9920
vt 0.4299 0.9920
vt 0.9344 0.4257
vt 0.9344 0.9920
vt 0.9344 0.0005
vt 0.4299 0.0005
vt 0.0864 0.0005
vn 0.9906 0.0913 0.1014
vn 0.9836 0.1487 0.1021
vn 0.9277 0.1425 0.3450
vn 0.9336 0.0891 0.3471
vn 0.9845 0.0909 -0.1501
vn 0.9780 0.1457 -0.1491
vn 0.9880 0.0344 -0.1506
vn 0.9942 0.0352 0.1018
vn 0.9367 0.0337 0.3483
vn -0.0433 0.0913 0.9949
vn -0.0444 0.1487 0.9879
vn -0.2902 0.1425 0.9463
vn -0.2920 0.0891 0.9522
vn 0.2074 0.0909 0.9740
vn 0.2060 0.1457 0.9676
vn 0.2081 0.0344 0.9775
vn -0.0436 0.0352 0.9984
vn -0.2930 0.0337 0.9555
vn -0.7566 0.0913 0.6475
vn -0.7522 0.1487 0.6419
vn -0.8896 0.1425 0.4339
vn -0.8952 0.0891 0.4367
vn -0.5702 0.0909 0.8165
vn -0.5664 0.1457 0.8111
vn -0.5722 0.0344 0.8194
vn -0.7593 0.0352 0.6497
vn -0.8983 0.0337 0.4382
vn -0.9906 -0.0913 -0.1014
vn -0.9335 -0.0891 -0.3472
vn -0.9277 -0.1425 -0.3450
vn -0.9836 -0.1487 -0.1021
vn -0.9845 -0.0909 0.1501
vn -0.9780 -0.1457 0.1491
vn -0.9880 -0.0344 0.1507
vn -0.9942 -0.0352 -0.1018
vn -0.9367 -0.0337 -0.3484
vn 0.0433 -0.0913 -0.9949
vn 0.2920 -0.0891 -0.9522
vn 0.2902 -0.1425 -0.9463
vn 0.0444 -0.1487 -0.9879
vn -0.2074 -0.0909 -0.9740
vn -0.2060 -0.1457 -0.9676
vn -0.2081 -0.0344 -0.9775
vn 0.0436 -0.0352 -0.9984
vn 0.2930 -0.0337 -0.9555
vn 0.7566 -0.0913 -0.6475
vn 0.8952 -0.0891 -0.4366
vn 0.8896 -0.1425 -0.4339
vn 0.7522 -0.1487 -0.6419
vn 0.5701 -0.0909 -0.8165
vn 0.5664 -0.1457 -0.8111
vn 0.5722 -0.0344 -0.8194
vn 0.7593 -0.0352 -0.6497
vn 0.8983 -0.0337 -0.4381
s 1
f 9/1/1 5/2/2 2/3/3 7/4/4
f 8/5/5 4/6/6 5/2/2 9/1/1
f 3/7/7 8/5/5 9/1/1 6/8/8
f 6/8/8 9/1/1 7/4/4 1/9/9
f 18/10/10 14/11/11 11/12/12 16/13/13
f 17/14/14 13/15/15 14/11/11 18/10/10
f 12/16/16 17/14/14 18/10/10 15/17/17
f 15/17/17 18/10/10 16/13/13 10/18/18
f 27/19/19 23/20/20 20/21/21 25/22/22
f 26/23/23 22/24/24 23/20/20 27/19/19
f 21/25/25 26/23/23 27/19/19 24/26/26
f 24/26/26 27/19/19 25/22/22 19/27/27
f 36/28/28 34/29/29 29/30/30 32/31/31
f 35/32/32 36/28/28 32/31/31 31/33/33
f 30/34/34 33/35/35 36/28/28 35/32/32
f 33/35/35 28/36/36 34/29/29 36/28/28
f 45/37/37 43/38/38 38/39/39 41/40/40
f 44/41/41 45/37/37 41/40/40 40/42/42
f 39/43/43 42/44/44 45/37/37 44/41/41
f 42/44/44 37/45/45 43/38/38 45/37/37
f 54/46/46 52/47/47 47/48/48 50/49/49
f 53/50/50 54/46/46 50/49/49 49/51/51
f 48/52/52 51/53/53 54/46/46 53/50/50
f 51/53/53 46/54/54 52/47/47 54/46/46
