# Blender v2.78 (sub 0) OBJ File: 'Low_Poly_Vegetation_Pack.blend'
# www.blender.org
g GrassPlanes_a_TwoS_02
v -0.015856 -0.024015 -0.119576
v 0.004293 0.456915 -0.117586
v -0.015856 0.216450 -0.119576
v 0.046893 -0.024015 0.112557
v 0.067042 0.456915 0.114547
v 0.046893 0.216450 0.112557
v 0.020322 0.456915 0.002629
v 0.000173 0.216450 0.000639
v 0.000173 -0.024015 0.000639
v -0.119571 -0.024015 -0.015896
v -0.112392 0.456915 -0.034828
v -0.119571 0.216450 -0.015896
v 0.120894 -0.024015 -0.015896
v 0.128073 0.456915 -0.034828
v 0.120894 0.216450 -0.015896
v 0.007840 0.456915 -0.018932
v 0.000662 0.216450 0.000000
v 0.000662 -0.024015 -0.000000
v -0.015757 -0.024015 -0.119589
v 0.004392 0.456907 -0.117600
v -0.015757 0.216446 -0.119589
v 0.046985 -0.024015 0.112519
v 0.067134 0.456908 0.114509
v 0.046985 0.216446 0.112519
v 0.020418 0.456907 0.002602
v 0.000269 0.216446 0.000613
v 0.000269 -0.024015 0.000613
v -0.119558 -0.024015 -0.015995
v -0.112379 0.456907 -0.034927
v -0.119558 0.216446 -0.015995
v 0.120881 -0.024015 -0.015995
v 0.128060 0.456908 -0.034927
v 0.120881 0.216446 -0.015995
v 0.007840 0.456907 -0.019031
v 0.000662 0.216446 -0.000100
v 0.000662 -0.024015 -0.000100
vt 0.4826 0.0005
vt 0.9795 0.0005
vt 0.9795 0.5000
vt 0.4826 0.5000
vt 0.9795 0.9937
vt 0.4826 0.9937
vt 0.0292 0.5000
vt 0.0292 0.9937
vt 0.0292 0.0005
vt 0.4826 0.0005
vt 0.9795 0.0005
vt 0.9795 0.5000
vt 0.4826 0.5000
vt 0.9795 0.9937
vt 0.4826 0.9937
vt 0.0292 0.5000
vt 0.0292 0.9937
vt 0.0292 0.0005
vt 0.4826 0.0005
vt 0.4826 0.5000
vt 0.9795 0.5000
vt 0.9795 0.0005
vt 0.4826 0.9937
vt 0.9795 0.9937
vt 0.0292 0.5000
vt 0.0292 0.9937
vt 0.0292 0.0005
vt 0.4826 0.0005
vt 0.4826 0.5000
vt 0.9795 0.5000
vt 0.9795 0.0005
vt 0.4826 0.9937
vt 0.9795 0.9937
vt 0.0292 0.5000
vt 0.0292 0.9937
vt 0.0292 0.0005
vn -0.9653 0.0000 0.2609
vn -0.9228 0.0000 0.3852
vn -0.9221 0.0374 0.3849
vn -0.9649 0.0392 0.2596
vn -0.9203 0.0739 0.3842
vn -0.9617 0.0784 0.2626
vn -0.9904 0.0406 0.1321
vn -0.9879 0.0817 0.1317
vn -0.9912 0.0000 0.1321
vn 0.0000 0.0000 1.0000
vn 0.1310 0.0000 0.9914
vn 0.1310 0.0374 0.9907
vn -0.0012 0.0392 0.9992
vn 0.1307 0.0739 0.9886
vn 0.0025 0.0784 0.9969
vn -0.1310 0.0406 0.9905
vn -0.1306 0.0817 0.9880
vn -0.1310 0.0000 0.9914
vn 0.9653 0.0000 -0.2609
vn 0.9649 -0.0392 -0.2596
vn 0.9221 -0.0374 -0.3850
vn 0.9228 0.0000 -0.3852
vn 0.9617 -0.0784 -0.2626
vn 0.9203 -0.0739 -0.3842
vn 0.9904 -0.0406 -0.1320
vn 0.9879 -0.0817 -0.1317
vn 0.9912 0.0000 -0.1321
vn 0.0000 0.0000 -1.0000
vn 0.0012 -0.0392 -0.9992
vn -0.1310 -0.0374 -0.9907
vn -0.1311 0.0000 -0.9914
vn -0.0025 -0.0784 -0.9969
vn -0.1307 -0.0739 -0.9886
vn 0.1310 -0.0406 -0.9905
vn 0.1306 -0.0817 -0.9880
vn 0.1311 0.0000 -0.9914
s 1
f 9/1/1 4/2/2 6/3/3 8/4/4
f 8/4/4 6/3/3 5/5/5 7/6/6
f 3/7/7 8/4/4 7/6/6 2/8/8
f 1/9/9 9/1/1 8/4/4 3/7/7
f 18/10/10 13/11/11 15/12/12 17/13/13
f 17/13/13 15/12/12 14/14/14 16/15/15
f 12/16/16 17/13/13 16/15/15 11/17/17
f 10/18/18 18/10/10 17/13/13 12/16/16
f 27/19/19 26/20/20 24/21/21 22/22/22
f 26/20/20 25/23/23 23/24/24 24/21/21
f 21/25/25 20/26/26 25/23/23 26/20/20
f 19/27/27 21/25/25 26/20/20 27/19/19
f 36/28/28 35/29/29 33/30/30 31/31/31
f 35/29/29 34/32/32 32/33/33 33/30/30
f 30/34/34 29/35/35 34/32/32 35/29/29
f 28/36/36 30/34/34 35/29/29 36/28/28
