# Blender v2.78 (sub 0) OBJ File: 'Low_Poly_Vegetation_Pack.blend'
# www.blender.org
g GrassPlane_a_TwoS_05
v -0.363578 -0.019189 -0.050318
v -0.363578 0.392481 -0.113322
v 0.328523 -0.020811 -0.072653
v 0.328523 0.390859 -0.135657
v 0.097822 0.395598 -0.070418
v -0.132878 0.396218 -0.061881
v -0.132878 -0.015452 0.001122
v 0.097822 -0.016072 -0.007414
v -0.363578 0.135058 -0.061523
v 0.328523 0.133436 -0.083858
v -0.132878 0.138795 -0.010082
v 0.097822 0.138175 -0.018619
v -0.363556 -0.019196 -0.050415
v -0.363557 0.392462 -0.113418
v 0.328495 -0.020818 -0.072749
v 0.328495 0.390840 -0.135751
v 0.097807 0.395578 -0.070515
v -0.132869 0.396198 -0.061979
v -0.132869 -0.015459 0.001023
v 0.097807 -0.016079 -0.007512
v -0.363556 0.135045 -0.061619
v 0.328495 0.133423 -0.083953
v -0.132869 0.138781 -0.010181
v 0.097807 0.138161 -0.018717
vt 0.6199 0.3782
vt 0.9028 0.3782
vt 0.9028 0.9968
vt 0.6199 0.9968
vt 0.0542 0.3782
vt 0.3371 0.3782
vt 0.3371 0.9968
vt 0.0542 0.9968
vt 0.3371 0.0002
vt 0.6199 0.0002
vt 0.0542 0.0000
vt 0.9028 0.0002
vt 0.6199 0.3782
vt 0.6199 0.9968
vt 0.9028 0.9968
vt 0.9028 0.3782
vt 0.0542 0.3782
vt 0.0542 0.9968
vt 0.3371 0.9968
vt 0.3371 0.3782
vt 0.3371 0.0002
vt 0.6199 0.0002
vt 0.0542 0.0000
vt 0.9028 0.0002
vn 0.1550 0.1332 0.9789
vn 0.2723 0.1307 0.9533
vn 0.2708 0.1899 0.9437
vn 0.1563 0.1948 0.9683
vn -0.2177 0.1324 0.9669
vn -0.0907 0.1343 0.9868
vn -0.0915 0.1964 0.9762
vn -0.2165 0.1926 0.9571
vn -0.0913 0.0721 0.9932
vn 0.1560 0.0715 0.9851
vn -0.2182 0.0707 0.9733
vn 0.2728 0.0697 0.9595
vn -0.1550 -0.1332 -0.9789
vn -0.1563 -0.1948 -0.9683
vn -0.2708 -0.1899 -0.9437
vn -0.2723 -0.1307 -0.9533
vn 0.2177 -0.1324 -0.9669
vn 0.2165 -0.1926 -0.9571
vn 0.0915 -0.1964 -0.9762
vn 0.0907 -0.1343 -0.9868
vn 0.0913 -0.0721 -0.9932
vn -0.1560 -0.0715 -0.9851
vn 0.2182 -0.0707 -0.9733
vn -0.2728 -0.0697 -0.9595
s 1
f 12/1/1 10/2/2 4/3/3 5/4/4
f 9/5/5 11/6/6 6/7/7 2/8/8
f 11/6/6 12/1/1 5/4/4 6/7/7
f 7/9/9 8/10/10 12/1/1 11/6/6
f 1/11/11 7/9/9 11/6/6 9/5/5
f 8/10/10 3/12/12 10/2/2 12/1/1
f 24/13/13 17/14/14 16/15/15 22/16/16
f 21/17/17 14/18/18 18/19/19 23/20/20
f 23/20/20 18/19/19 17/14/14 24/13/13
f 19/21/21 23/20/20 24/13/13 20/22/22
f 13/23/23 21/17/17 23/20/20 19/21/21
f 20/22/22 24/13/13 22/16/16 15/24/24
