# Blender v2.78 (sub 0) OBJ File: 'Low_Poly_Vegetation_Pack.blend'
# www.blender.org
g GrassPlanes_a_TwoS_10
v 0.058621 -0.020701 0.391620
v -0.006588 0.423425 0.410802
v -0.175214 -0.022452 -0.317897
v -0.240423 0.421675 -0.298715
v -0.102661 0.426788 -0.079806
v -0.023587 0.427457 0.156368
v 0.041621 -0.016670 0.137186
v -0.037453 -0.017339 -0.098988
v 0.047024 0.145706 0.395031
v -0.186811 0.143956 -0.314486
v 0.030025 0.149738 0.140597
v -0.049050 0.149069 -0.095576
v -0.327220 -0.017270 -0.045286
v -0.327220 0.353233 -0.101990
v 0.295670 -0.018730 -0.065388
v 0.295670 0.351773 -0.122091
v 0.088040 0.356038 -0.063376
v -0.119590 0.356596 -0.055693
v -0.119590 -0.013907 0.001010
v 0.088040 -0.014465 -0.006672
v -0.327220 0.121552 -0.055371
v 0.295670 0.120092 -0.075472
v -0.119590 0.124915 -0.009074
v 0.088040 0.124357 -0.016757
v -0.300419 -0.019189 0.210873
v -0.343344 0.392481 0.164754
v 0.190985 -0.020811 -0.277005
v 0.148061 0.390859 -0.323124
v 0.023634 0.395598 -0.118192
v -0.139424 0.396218 0.045232
v -0.096499 -0.015452 0.091351
v 0.066559 -0.016072 -0.072073
v -0.308053 0.135058 0.202671
v 0.183351 0.133436 -0.285207
v -0.104133 0.138795 0.083149
v 0.058925 0.138175 -0.080275
v 0.058521 -0.020709 0.391626
v -0.006686 0.423406 0.410808
v -0.175299 -0.022459 -0.317844
v -0.240506 0.421656 -0.298663
v -0.102750 0.426768 -0.079763
v -0.023683 0.427437 0.156387
v 0.041524 -0.016677 0.137205
v -0.037543 -0.017346 -0.098945
v 0.046925 0.145693 0.395037
v -0.186895 0.143943 -0.314433
v 0.029927 0.149724 0.140616
v -0.049139 0.149055 -0.095534
v -0.327199 -0.017277 -0.045384
v -0.327199 0.353214 -0.102085
v 0.295643 -0.018737 -0.065484
v 0.295643 0.351754 -0.122185
v 0.088024 0.356019 -0.063473
v -0.119581 0.356577 -0.055791
v -0.119581 -0.013914 0.000911
v 0.088024 -0.014472 -0.006771
v -0.327199 0.121539 -0.055467
v 0.295643 0.120079 -0.075567
v -0.119581 0.124902 -0.009173
v 0.088025 0.124344 -0.016855
v -0.300469 -0.019196 0.210787
v -0.343393 0.392462 0.164669
v 0.190900 -0.020818 -0.277056
v 0.147976 0.390840 -0.323174
v 0.023557 0.395578 -0.118253
v -0.139483 0.396198 0.045155
v -0.096560 -0.015459 0.091272
v 0.066480 -0.016079 -0.072135
v -0.308103 0.135045 0.202585
v 0.183266 0.133423 -0.285258
v -0.104194 0.138781 0.083071
v 0.058847 0.138161 -0.080336
vt 0.6199 0.3782
vt 0.9028 0.3782
vt 0.9028 0.9968
vt 0.6199 0.9968
vt 0.0542 0.3782
vt 0.3371 0.3782
vt 0.3371 0.9968
vt 0.0542 0.9968
vt 0.3371 0.0002
vt 0.6199 0.0002
vt 0.0542 0.0000
vt 0.9028 0.0002
vt 0.6199 0.3782
vt 0.9028 0.3782
vt 0.9028 0.9968
vt 0.6199 0.9968
vt 0.0542 0.3782
vt 0.3371 0.3782
vt 0.3371 0.9968
vt 0.0542 0.9968
vt 0.3371 0.0002
vt 0.6199 0.0002
vt 0.0542 0.0000
vt 0.9028 0.0002
vt 0.6199 0.3782
vt 0.9028 0.3782
vt 0.9028 0.9968
vt 0.6199 0.9968
vt 0.0542 0.3782
vt 0.3371 0.3782
vt 0.3371 0.9968
vt 0.0542 0.9968
vt 0.3371 0.0002
vt 0.6199 0.0002
vt 0.0542 0.0000
vt 0.9028 0.0002
vt 0.6199 0.3782
vt 0.6199 0.9968
vt 0.9028 0.9968
vt 0.9028 0.3782
vt 0.0542 0.3782
vt 0.0542 0.9968
vt 0.3371 0.9968
vt 0.3371 0.3782
vt 0.3371 0.0002
vt 0.6199 0.0002
vt 0.0542 0.0000
vt 0.9028 0.0002
vt 0.6199 0.3782
vt 0.6199 0.9968
vt 0.9028 0.9968
vt 0.9028 0.3782
vt 0.0542 0.3782
vt 0.0542 0.9968
vt 0.3371 0.9968
vt 0.3371 0.3782
vt 0.3371 0.0002
vt 0.6199 0.0002
vt 0.0542 0.0000
vt 0.9028 0.0002
vt 0.6199 0.3782
vt 0.6199 0.9968
vt 0.9028 0.9968
vt 0.9028 0.3782
vt 0.0542 0.3782
vt 0.0542 0.9968
vt 0.3371 0.9968
vt 0.3371 0.3782
vt 0.3371 0.0002
vt 0.6199 0.0002
vt 0.0542 0.0000
vt 0.9028 0.0002
vn 0.8953 0.1332 -0.4250
vn 0.8377 0.1307 -0.5302
vn 0.8289 0.1899 -0.5261
vn 0.8848 0.1948 -0.4232
vn 0.9891 0.1324 -0.0640
vn 0.9723 0.1343 -0.1915
vn 0.9624 0.1964 -0.1877
vn 0.9793 0.1926 -0.0623
vn 0.9786 0.0721 -0.1927
vn 0.9011 0.0715 -0.4277
vn 0.9953 0.0707 -0.0654
vn 0.8436 0.0697 -0.5325
vn 0.1550 0.1332 0.9789
vn 0.2723 0.1307 0.9533
vn 0.2708 0.1899 0.9437
vn 0.1563 0.1948 0.9683
vn -0.2177 0.1324 0.9669
vn -0.0907 0.1343 0.9868
vn -0.0915 0.1964 0.9762
vn -0.2165 0.1926 0.9571
vn -0.0913 0.0721 0.9932
vn 0.1560 0.0715 0.9851
vn -0.2182 0.0707 0.9733
vn 0.2728 0.0697 0.9595
vn 0.7804 0.1332 0.6109
vn 0.8488 0.1307 0.5123
vn 0.8412 0.1899 0.5063
vn 0.7741 0.1948 0.6023
vn 0.4994 0.1324 0.8562
vn 0.6059 0.1343 0.7841
vn 0.5981 0.1964 0.7769
vn 0.4935 0.1926 0.8481
vn 0.6098 0.0721 0.7892
vn 0.7854 0.0715 0.6148
vn 0.5034 0.0707 0.8611
vn 0.8534 0.0697 0.5165
vn -0.8953 -0.1332 0.4250
vn -0.8848 -0.1948 0.4232
vn -0.8289 -0.1899 0.5261
vn -0.8377 -0.1307 0.5302
vn -0.9891 -0.1324 0.0640
vn -0.9793 -0.1926 0.0623
vn -0.9624 -0.1964 0.1877
vn -0.9723 -0.1343 0.1915
vn -0.9786 -0.0721 0.1927
vn -0.9011 -0.0715 0.4277
vn -0.9953 -0.0707 0.0654
vn -0.8435 -0.0697 0.5325
vn -0.1550 -0.1332 -0.9789
vn -0.1563 -0.1948 -0.9683
vn -0.2708 -0.1899 -0.9437
vn -0.2723 -0.1307 -0.9533
vn 0.2177 -0.1324 -0.9669
vn 0.2165 -0.1926 -0.9571
vn 0.0915 -0.1964 -0.9762
vn 0.0907 -0.1343 -0.9868
vn 0.0913 -0.0721 -0.9932
vn -0.1560 -0.0715 -0.9851
vn 0.2182 -0.0707 -0.9733
vn -0.2728 -0.0697 -0.9595
vn -0.7804 -0.1332 -0.6109
vn -0.7741 -0.1948 -0.6023
vn -0.8412 -0.1899 -0.5063
vn -0.8488 -0.1307 -0.5123
vn -0.4994 -0.1324 -0.8562
vn -0.4935 -0.1926 -0.8481
vn -0.5981 -0.1964 -0.7769
vn -0.6059 -0.1343 -0.7841
vn -0.6098 -0.0721 -0.7892
vn -0.7854 -0.0715 -0.6148
vn -0.5034 -0.0707 -0.8611
vn -0.8534 -0.0697 -0.5165
s 1
f 12/1/1 10/2/2 4/3/3 5/4/4
f 9/5/5 11/6/6 6/7/7 2/8/8
f 11/6/6 12/1/1 5/4/4 6/7/7
f 7/9/9 8/10/10 12/1/1 11/6/6
f 1/11/11 7/9/9 11/6/6 9/5/5
f 8/10/10 3/12/12 10/2/2 12/1/1
f 24/13/13 22/14/14 16/15/15 17/16/16
f 21/17/17 23/18/18 18/19/19 14/20/20
f 23/18/18 24/13/13 17/16/16 18/19/19
f 19/21/21 20/22/22 24/13/13 23/18/18
f 13/23/23 19/21/21 23/18/18 21/17/17
f 20/22/22 15/24/24 22/14/14 24/13/13
f 36/25/25 34/26/26 28/27/27 29/28/28
f 33/29/29 35/30/30 30/31/31 26/32/32
f 35/30/30 36/25/25 29/28/28 30/31/31
f 31/33/33 32/34/34 36/25/25 35/30/30
f 25/35/35 31/33/33 35/30/30 33/29/29
f 32/34/34 27/36/36 34/26/26 36/25/25
f 48/37/37 41/38/38 40/39/39 46/40/40
f 45/41/41 38/42/42 42/43/43 47/44/44
f 47/44/44 42/43/43 41/38/38 48/37/37
f 43/45/45 47/44/44 48/37/37 44/46/46
f 37/47/47 45/41/41 47/44/44 43/45/45
f 44/46/46 48/37/37 46/40/40 39/48/48
f 60/49/49 53/50/50 52/51/51 58/52/52
f 57/53/53 50/54/54 54/55/55 59/56/56
f 59/56/56 54/55/55 53/50/50 60/49/49
f 55/57/57 59/56/56 60/49/49 56/58/58
f 49/59/59 57/53/53 59/56/56 55/57/57
f 56/58/58 60/49/49 58/52/52 51/60/60
f 72/61/61 65/62/62 64/63/63 70/64/64
f 69/65/65 62/66/66 66/67/67 71/68/68
f 71/68/68 66/67/67 65/62/62 72/61/61
f 67/69/69 71/68/68 72/61/61 68/70/70
f 61/71/71 69/65/65 71/68/68 67/69/69
f 68/70/70 72/61/61 70/64/64 63/72/72
