# Blender v2.78 (sub 0) OBJ File: 'Low_Poly_Vegetation_Pack.blend'
# www.blender.org
g GrassPlanes_b_TwoS_01
v 0.028300 -0.031281 -0.248350
v -0.028300 -0.031281 0.248350
v 0.253911 0.381258 -0.222641
v 0.197310 0.381258 0.274059
v 0.082231 0.196311 -0.242205
v 0.025630 0.196311 0.254496
v -0.249962 -0.031281 0.059603
v 0.249954 -0.031281 0.059603
v -0.249962 0.381258 -0.167467
v 0.249954 0.381258 -0.167467
v -0.249962 0.196311 0.005324
v 0.249954 0.196311 0.005324
v 0.028397 -0.031304 -0.248339
v -0.028204 -0.031304 0.248361
v 0.253983 0.381190 -0.222633
v 0.197383 0.381190 0.274068
v 0.082318 0.196264 -0.242195
v 0.025717 0.196264 0.254506
v -0.249962 -0.031304 0.059506
v 0.249954 -0.031304 0.059506
v -0.249962 0.381190 -0.167540
v 0.249954 0.381190 -0.167540
v -0.249962 0.196264 0.005236
v 0.249954 0.196264 0.005236
vt 0.0078 0.5000
vt 0.9922 0.5000
vt 0.9922 0.9922
vt 0.0078 0.9922
vt 0.0078 0.0078
vt 0.9922 0.0078
vt 0.0078 0.5000
vt 0.9922 0.5000
vt 0.9922 0.9922
vt 0.0078 0.9922
vt 0.0078 0.0078
vt 0.9922 0.0078
vt 0.0078 0.5000
vt 0.0078 0.9922
vt 0.9922 0.9922
vt 0.9922 0.5000
vt 0.0078 0.0078
vt 0.9922 0.0078
vt 0.0078 0.5000
vt 0.0078 0.9922
vt 0.9922 0.9922
vt 0.9922 0.5000
vt 0.0078 0.0078
vt 0.9922 0.0078
vn -0.8753 0.4731 -0.0997
vn -0.7260 0.6827 -0.0827
vn -0.9665 0.2320 -0.1101
vn 0.0000 0.4731 0.8810
vn 0.0000 0.6827 0.7307
vn 0.0000 0.2320 0.9727
vn 0.8753 -0.4731 0.0997
vn 0.7260 -0.6827 0.0827
vn 0.9665 -0.2320 0.1101
vn 0.0000 -0.4731 -0.8810
vn 0.0000 -0.6827 -0.7307
vn 0.0000 -0.2320 -0.9727
s 1
f 5/1/1 6/2/1 4/3/2 3/4/2
f 1/5/3 2/6/3 6/2/1 5/1/1
f 11/7/4 12/8/4 10/9/5 9/10/5
f 7/11/6 8/12/6 12/8/4 11/7/4
f 17/13/7 15/14/8 16/15/8 18/16/7
f 13/17/9 17/13/7 18/16/7 14/18/9
f 23/19/10 21/20/11 22/21/11 24/22/10
f 19/23/12 23/19/10 24/22/10 20/24/12
