# Blender v2.78 (sub 0) OBJ File: 'Low_Poly_Vegetation_Pack.blend'
# www.blender.org
g GrassPlane_a_TwoS_01
v -0.125146 -0.019790 -0.030219
v -0.125146 0.441299 -0.075854
v 0.115319 -0.019790 -0.030219
v 0.115319 0.441299 -0.075854
v -0.026602 0.441299 -0.045635
v -0.026602 -0.019790 -0.000000
v -0.125146 0.186452 -0.037486
v 0.115319 0.186452 -0.037486
v -0.026602 0.186452 -0.007267
v -0.125117 -0.019793 -0.030314
v -0.125117 0.441284 -0.075949
v 0.115298 -0.019793 -0.030316
v 0.115298 0.441284 -0.075951
v -0.026598 0.441284 -0.045734
v -0.026598 -0.019793 -0.000100
v -0.125117 0.186443 -0.037581
v 0.115298 0.186442 -0.037583
v -0.026598 0.186442 -0.007367
vt 0.4299 0.4257
vt 0.4299 0.9920
vt 0.0864 0.9920
vt 0.0864 0.4257
vt 0.9344 0.4257
vt 0.9344 0.9920
vt 0.9344 0.0005
vt 0.4299 0.0005
vt 0.0864 0.0005
vt 0.4299 0.4257
vt 0.0864 0.4257
vt 0.0864 0.9920
vt 0.4299 0.9920
vt 0.9344 0.4257
vt 0.9344 0.9920
vt 0.9344 0.0005
vt 0.4299 0.0005
vt 0.0864 0.0005
vn -0.0433 0.0913 0.9949
vn -0.0444 0.1487 0.9879
vn -0.2902 0.1425 0.9463
vn -0.2920 0.0891 0.9522
vn 0.2074 0.0909 0.9740
vn 0.2060 0.1457 0.9676
vn 0.2081 0.0344 0.9775
vn -0.0436 0.0352 0.9984
vn -0.2930 0.0337 0.9555
vn 0.0433 -0.0913 -0.9949
vn 0.2920 -0.0891 -0.9522
vn 0.2902 -0.1425 -0.9463
vn 0.0444 -0.1487 -0.9879
vn -0.2074 -0.0909 -0.9740
vn -0.2060 -0.1457 -0.9676
vn -0.2081 -0.0344 -0.9775
vn 0.0436 -0.0352 -0.9984
vn 0.2930 -0.0337 -0.9555
s 1
f 9/1/1 5/2/2 2/3/3 7/4/4
f 8/5/5 4/6/6 5/2/2 9/1/1
f 3/7/7 8/5/5 9/1/1 6/8/8
f 6/8/8 9/1/1 7/4/4 1/9/9
f 18/10/10 16/11/11 11/12/12 14/13/13
f 17/14/14 18/10/10 14/13/13 13/15/15
f 12/16/16 15/17/17 18/10/10 17/14/14
f 15/17/17 10/18/18 16/11/11 18/10/10
