# Blender v2.78 (sub 0) OBJ File: 'Low_Poly_Vegetation_Pack.blend'
# www.blender.org
g GrassPlane_b_TwoS_03
v -0.330261 -0.022606 -0.032845
v 0.295330 -0.022606 -0.107291
v -0.330261 0.382997 -0.176791
v 0.295330 0.382997 -0.251237
v 0.000000 -0.022606 0.000000
v -0.000000 0.382997 -0.143946
v -0.330261 0.178578 -0.053119
v 0.295330 0.178578 -0.127565
v -0.000000 0.178578 -0.020274
v -0.330252 -0.022616 -0.032944
v 0.295296 -0.022616 -0.107385
v -0.330253 0.382946 -0.176876
v 0.295301 0.382948 -0.251319
v -0.000012 -0.022616 -0.000099
v -0.000012 0.382946 -0.144031
v -0.330252 0.178546 -0.053213
v 0.295298 0.178547 -0.127655
v -0.000012 0.178548 -0.020369
vt 0.5000 0.2935
vt 0.9922 0.2935
vt 0.9922 0.6707
vt 0.5000 0.6707
vt 0.0078 0.2935
vt 0.0078 0.6707
vt 0.0078 0.0078
vt 0.5000 0.0078
vt 0.9922 0.0078
vt 0.5000 0.2935
vt 0.5000 0.6707
vt 0.9922 0.6707
vt 0.9922 0.2935
vt 0.0078 0.2935
vt 0.0078 0.6707
vt 0.0078 0.0078
vt 0.5000 0.0078
vt 0.9922 0.0078
vn 0.1159 0.3060 0.9449
vn 0.3242 0.3142 0.8923
vn 0.2968 0.4943 0.8170
vn 0.1153 0.5142 0.8499
vn -0.0938 0.3195 0.9429
vn -0.0848 0.5158 0.8525
vn -0.0985 0.0998 0.9901
vn 0.1220 0.0995 0.9875
vn 0.3399 0.0943 0.9357
vn -0.1159 -0.3060 -0.9449
vn -0.1153 -0.5142 -0.8499
vn -0.2968 -0.4943 -0.8170
vn -0.3242 -0.3142 -0.8923
vn 0.0938 -0.3195 -0.9429
vn 0.0848 -0.5158 -0.8525
vn 0.0985 -0.0998 -0.9901
vn -0.1220 -0.0995 -0.9875
vn -0.3399 -0.0943 -0.9357
s 1
f 9/1/1 8/2/2 4/3/3 6/4/4
f 7/5/5 9/1/1 6/4/4 3/6/6
f 1/7/7 5/8/8 9/1/1 7/5/5
f 5/8/8 2/9/9 8/2/2 9/1/1
f 18/10/10 15/11/11 13/12/12 17/13/13
f 16/14/14 12/15/15 15/11/11 18/10/10
f 10/16/16 16/14/14 18/10/10 14/17/17
f 14/17/17 18/10/10 17/13/13 11/18/18
