# Blender v2.78 (sub 0) OBJ File: 'Low_Poly_Vegetation_Pack.blend'
# www.blender.org
g GrassPlane_b_TwoS_04
v -0.420184 -0.036231 0.000000
v 0.372987 -0.036231 -0.133990
v -0.420184 0.392141 -0.162318
v 0.372987 0.392141 -0.296308
v 0.000000 -0.036231 0.000000
v -0.000000 0.392141 -0.162318
v -0.420184 0.222509 -0.030636
v 0.372987 0.195082 -0.161789
v -0.000000 0.222509 -0.030636
v -0.420184 -0.036243 -0.000099
v 0.372954 -0.036242 -0.134083
v -0.420184 0.392079 -0.162397
v 0.372958 0.392084 -0.296385
v -0.000017 -0.036242 -0.000098
v -0.000016 0.392081 -0.162397
v -0.420184 0.222471 -0.030728
v 0.372955 0.195046 -0.161876
v -0.000016 0.222472 -0.030728
vt 0.5000 0.3107
vt 0.9922 0.3107
vt 0.9922 0.6136
vt 0.5000 0.6136
vt 0.0078 0.3107
vt 0.0078 0.6136
vt 0.0078 0.0078
vt 0.5000 0.0078
vt 0.9922 0.0078
vt 0.5000 0.3107
vt 0.5000 0.6136
vt 0.9922 0.6136
vt 0.9922 0.3107
vt 0.0078 0.3107
vt 0.0078 0.6136
vt 0.0078 0.0078
vt 0.5000 0.0078
vt 0.9922 0.0078
vn 0.1612 0.3638 0.9174
vn 0.3248 0.3535 0.8772
vn 0.2954 0.5612 0.7731
vn 0.1587 0.5923 0.7899
vn 0.0000 0.3792 0.9253
vn 0.0000 0.6132 0.7899
vn 0.0000 0.1176 0.9930
vn 0.1685 0.1163 0.9788
vn 0.3364 0.1115 0.9351
vn -0.1612 -0.3638 -0.9174
vn -0.1587 -0.5923 -0.7899
vn -0.2954 -0.5612 -0.7731
vn -0.3248 -0.3535 -0.8772
vn 0.0000 -0.3792 -0.9253
vn 0.0000 -0.6132 -0.7899
vn 0.0000 -0.1176 -0.9930
vn -0.1685 -0.1162 -0.9788
vn -0.3364 -0.1115 -0.9351
s 1
f 9/1/1 8/2/2 4/3/3 6/4/4
f 7/5/5 9/1/1 6/4/4 3/6/6
f 1/7/7 5/8/8 9/1/1 7/5/5
f 5/8/8 2/9/9 8/2/2 9/1/1
f 18/10/10 15/11/11 13/12/12 17/13/13
f 16/14/14 12/15/15 15/11/11 18/10/10
f 10/16/16 16/14/14 18/10/10 14/17/17
f 14/17/17 18/10/10 17/13/13 11/18/18
