# Blender v2.78 (sub 0) OBJ File: 'Low_Poly_Vegetation_Pack.blend'
# www.blender.org
g GrassPlanes_a_TwoS_01
v -0.014189 -0.020770 -0.134374
v 0.030931 0.463162 -0.150443
v 0.070484 -0.020770 0.103377
v 0.115604 0.463162 0.087308
v 0.035753 0.463162 -0.042371
v -0.009367 -0.020770 -0.026302
v -0.007004 0.195689 -0.136933
v 0.077669 0.195689 0.100818
v -0.002182 0.195689 -0.028861
v -0.153259 -0.019790 -0.030217
v -0.153259 0.441299 -0.075853
v 0.087206 -0.019790 -0.030217
v 0.087206 0.441299 -0.075853
v -0.054715 0.441299 -0.045634
v -0.054715 -0.019790 0.000001
v -0.153259 0.186452 -0.037484
v 0.087206 0.186452 -0.037484
v -0.054715 0.186452 -0.007266
v -0.014089 -0.020773 -0.134378
v 0.031030 0.463148 -0.150447
v 0.070569 -0.020773 0.103324
v 0.115688 0.463147 0.087256
v 0.035848 0.463147 -0.042400
v -0.009272 -0.020773 -0.026331
v -0.006904 0.195680 -0.136937
v 0.077754 0.195680 0.100766
v -0.002087 0.195680 -0.028890
v -0.153230 -0.019793 -0.030313
v -0.153230 0.441284 -0.075947
v 0.087185 -0.019793 -0.030315
v 0.087185 0.441284 -0.075949
v -0.054711 0.441284 -0.045733
v -0.054711 -0.019793 -0.000098
v -0.153230 0.186443 -0.037580
v 0.087185 0.186442 -0.037582
v -0.054711 0.186442 -0.007365
vt 0.4299 0.4257
vt 0.4299 0.9920
vt 0.0864 0.9920
vt 0.0864 0.4257
vt 0.9344 0.4257
vt 0.9344 0.9920
vt 0.9344 0.0005
vt 0.4299 0.0005
vt 0.0864 0.0005
vt 0.4299 0.4257
vt 0.4299 0.9920
vt 0.0864 0.9920
vt 0.0864 0.4257
vt 0.9344 0.4257
vt 0.9344 0.9920
vt 0.9344 0.0005
vt 0.4299 0.0005
vt 0.0864 0.0005
vt 0.4299 0.4257
vt 0.0864 0.4257
vt 0.0864 0.9920
vt 0.4299 0.9920
vt 0.9344 0.4257
vt 0.9344 0.9920
vt 0.9344 0.0005
vt 0.4299 0.0005
vt 0.0864 0.0005
vt 0.4299 0.4257
vt 0.0864 0.4257
vt 0.0864 0.9920
vt 0.4299 0.9920
vt 0.9344 0.4257
vt 0.9344 0.9920
vt 0.9344 0.0005
vt 0.4299 0.0005
vt 0.0864 0.0005
vn -0.9518 0.0913 0.2930
vn -0.9455 0.1487 0.2896
vn -0.9888 0.1425 0.0441
vn -0.9950 0.0891 0.0444
vn -0.8480 0.0909 0.5221
vn -0.8424 0.1457 0.5187
vn -0.8510 0.0344 0.5240
vn -0.9552 0.0352 0.2939
vn -0.9984 0.0337 0.0445
vn -0.0433 0.0913 0.9949
vn -0.0444 0.1487 0.9879
vn -0.2902 0.1425 0.9463
vn -0.2920 0.0891 0.9522
vn 0.2074 0.0909 0.9740
vn 0.2060 0.1457 0.9676
vn 0.2081 0.0344 0.9775
vn -0.0436 0.0352 0.9984
vn -0.2930 0.0337 0.9555
vn 0.9518 -0.0913 -0.2929
vn 0.9950 -0.0891 -0.0443
vn 0.9888 -0.1425 -0.0441
vn 0.9455 -0.1487 -0.2896
vn 0.8480 -0.0909 -0.5222
vn 0.8424 -0.1457 -0.5187
vn 0.8510 -0.0344 -0.5240
vn 0.9552 -0.0352 -0.2939
vn 0.9984 -0.0337 -0.0445
vn 0.0433 -0.0913 -0.9949
vn 0.2920 -0.0891 -0.9522
vn 0.2902 -0.1425 -0.9463
vn 0.0444 -0.1487 -0.9879
vn -0.2074 -0.0909 -0.9740
vn -0.2060 -0.1457 -0.9676
vn -0.2081 -0.0344 -0.9775
vn 0.0436 -0.0352 -0.9984
vn 0.2930 -0.0337 -0.9555
s 1
f 9/1/1 5/2/2 2/3/3 7/4/4
f 8/5/5 4/6/6 5/2/2 9/1/1
f 3/7/7 8/5/5 9/1/1 6/8/8
f 6/8/8 9/1/1 7/4/4 1/9/9
f 18/10/10 14/11/11 11/12/12 16/13/13
f 17/14/14 13/15/15 14/11/11 18/10/10
f 12/16/16 17/14/14 18/10/10 15/17/17
f 15/17/17 18/10/10 16/13/13 10/18/18
f 27/19/19 25/20/20 20/21/21 23/22/22
f 26/23/23 27/19/19 23/22/22 22/24/24
f 21/25/25 24/26/26 27/19/19 26/23/23
f 24/26/26 19/27/27 25/20/20 27/19/19
f 36/28/28 34/29/29 29/30/30 32/31/31
f 35/32/32 36/28/28 32/31/31 31/33/33
f 30/34/34 33/35/35 36/28/28 35/32/32
f 33/35/35 28/36/36 34/29/29 36/28/28
