# Blender v2.78 (sub 0) OBJ File: 'Low_Poly_Vegetation_Pack.blend'
# www.blender.org
g GrassPlanes_a_TwoS_05
v -0.080946 -0.019189 -0.358007
v -0.021978 0.392481 -0.380195
v 0.183693 -0.020811 0.281891
v 0.242661 0.390859 0.259703
v 0.100356 0.395598 0.066757
v 0.011122 0.396218 -0.146158
v -0.047846 -0.015452 -0.123970
v 0.041389 -0.016072 0.088945
v -0.070459 0.135058 -0.361953
v 0.194180 0.133436 0.277945
v -0.037359 0.138795 -0.127916
v 0.051876 0.138175 0.084999
v -0.363578 -0.019189 -0.050318
v -0.363578 0.392481 -0.113322
v 0.328523 -0.020811 -0.072653
v 0.328523 0.390859 -0.135657
v 0.097822 0.395598 -0.070418
v -0.132878 0.396218 -0.061881
v -0.132878 -0.015452 0.001122
v 0.097822 -0.016072 -0.007414
v -0.363578 0.135058 -0.061523
v 0.328523 0.133436 -0.083858
v -0.132878 0.138795 -0.010082
v 0.097822 0.138175 -0.018619
v -0.080847 -0.019196 -0.358021
v -0.021881 0.392462 -0.380208
v 0.183773 -0.020818 0.281831
v 0.242740 0.390840 0.259644
v 0.100441 0.395578 0.066708
v 0.011217 0.396198 -0.146184
v -0.047750 -0.015459 -0.123997
v 0.041475 -0.016079 0.088895
v -0.070360 0.135045 -0.361966
v 0.194260 0.133423 0.277886
v -0.037263 0.138781 -0.127942
v 0.051962 0.138161 0.084950
v -0.363556 -0.019196 -0.050415
v -0.363557 0.392462 -0.113418
v 0.328495 -0.020818 -0.072749
v 0.328495 0.390840 -0.135751
v 0.097807 0.395578 -0.070515
v -0.132869 0.396198 -0.061979
v -0.132869 -0.015459 0.001023
v 0.097807 -0.016079 -0.007512
v -0.363556 0.135045 -0.061619
v 0.328495 0.133423 -0.083953
v -0.132869 0.138781 -0.010181
v 0.097807 0.138161 -0.018717
vt 0.6199 0.3782
vt 0.9028 0.3782
vt 0.9028 0.9968
vt 0.6199 0.9968
vt 0.0542 0.3782
vt 0.3371 0.3782
vt 0.3371 0.9968
vt 0.0542 0.9968
vt 0.3371 0.0002
vt 0.6199 0.0002
vt 0.0542 0.0000
vt 0.9028 0.0002
vt 0.6199 0.3782
vt 0.9028 0.3782
vt 0.9028 0.9968
vt 0.6199 0.9968
vt 0.0542 0.3782
vt 0.3371 0.3782
vt 0.3371 0.9968
vt 0.0542 0.9968
vt 0.3371 0.0002
vt 0.6199 0.0002
vt 0.0542 0.0000
vt 0.9028 0.0002
vt 0.6199 0.3782
vt 0.6199 0.9968
vt 0.9028 0.9968
vt 0.9028 0.3782
vt 0.0542 0.3782
vt 0.0542 0.9968
vt 0.3371 0.9968
vt 0.3371 0.3782
vt 0.3371 0.0002
vt 0.6199 0.0002
vt 0.0542 0.0000
vt 0.9028 0.0002
vt 0.6199 0.3782
vt 0.6199 0.9968
vt 0.9028 0.9968
vt 0.9028 0.3782
vt 0.0542 0.3782
vt 0.0542 0.9968
vt 0.3371 0.9968
vt 0.3371 0.3782
vt 0.3371 0.0002
vt 0.6199 0.0002
vt 0.0542 0.0000
vt 0.9028 0.0002
vn -0.8616 0.1332 0.4898
vn -0.7964 0.1307 0.5905
vn -0.7879 0.1899 0.5858
vn -0.8512 0.1948 0.4873
vn -0.9817 0.1324 0.1367
vn -0.9555 0.1343 0.2626
vn -0.9459 0.1964 0.2581
vn -0.9720 0.1926 0.1344
vn -0.9617 0.0721 0.2643
vn -0.8671 0.0715 0.4930
vn -0.9878 0.0707 0.1386
vn -0.8020 0.0697 0.5932
vn 0.1550 0.1332 0.9789
vn 0.2723 0.1307 0.9533
vn 0.2708 0.1899 0.9437
vn 0.1563 0.1948 0.9683
vn -0.2177 0.1324 0.9669
vn -0.0907 0.1343 0.9868
vn -0.0915 0.1964 0.9762
vn -0.2165 0.1926 0.9571
vn -0.0913 0.0721 0.9932
vn 0.1560 0.0715 0.9851
vn -0.2182 0.0707 0.9733
vn 0.2728 0.0697 0.9595
vn 0.8616 -0.1332 -0.4898
vn 0.8512 -0.1948 -0.4873
vn 0.7879 -0.1899 -0.5858
vn 0.7963 -0.1307 -0.5905
vn 0.9817 -0.1324 -0.1367
vn 0.9720 -0.1926 -0.1344
vn 0.9459 -0.1964 -0.2581
vn 0.9555 -0.1343 -0.2626
vn 0.9617 -0.0721 -0.2643
vn 0.8671 -0.0715 -0.4930
vn 0.9878 -0.0707 -0.1386
vn 0.8020 -0.0697 -0.5932
vn -0.1550 -0.1332 -0.9789
vn -0.1563 -0.1948 -0.9683
vn -0.2708 -0.1899 -0.9437
vn -0.2723 -0.1307 -0.9533
vn 0.2177 -0.1324 -0.9669
vn 0.2165 -0.1926 -0.9571
vn 0.0915 -0.1964 -0.9762
vn 0.0907 -0.1343 -0.9868
vn 0.0913 -0.0721 -0.9932
vn -0.1560 -0.0715 -0.9851
vn 0.2182 -0.0707 -0.9733
vn -0.2728 -0.0697 -0.9595
s 1
f 12/1/1 10/2/2 4/3/3 5/4/4
f 9/5/5 11/6/6 6/7/7 2/8/8
f 11/6/6 12/1/1 5/4/4 6/7/7
f 7/9/9 8/10/10 12/1/1 11/6/6
f 1/11/11 7/9/9 11/6/6 9/5/5
f 8/10/10 3/12/12 10/2/2 12/1/1
f 24/13/13 22/14/14 16/15/15 17/16/16
f 21/17/17 23/18/18 18/19/19 14/20/20
f 23/18/18 24/13/13 17/16/16 18/19/19
f 19/21/21 20/22/22 24/13/13 23/18/18
f 13/23/23 19/21/21 23/18/18 21/17/17
f 20/22/22 15/24/24 22/14/14 24/13/13
f 36/25/25 29/26/26 28/27/27 34/28/28
f 33/29/29 26/30/30 30/31/31 35/32/32
f 35/32/32 30/31/31 29/26/26 36/25/25
f 31/33/33 35/32/32 36/25/25 32/34/34
f 25/35/35 33/29/29 35/32/32 31/33/33
f 32/34/34 36/25/25 34/28/28 27/36/36
f 48/37/37 41/38/38 40/39/39 46/40/40
f 45/41/41 38/42/42 42/43/43 47/44/44
f 47/44/44 42/43/43 41/38/38 48/37/37
f 43/45/45 47/44/44 48/37/37 44/46/46
f 37/47/47 45/41/41 47/44/44 43/45/45
f 44/46/46 48/37/37 46/40/40 39/48/48
