# Blender v2.78 (sub 0) OBJ File: 'Low_Poly_Vegetation_Pack.blend'
# www.blender.org
g GrassPlanes_b_TwoS_02
v 0.042596 -0.037889 -0.325943
v 0.128491 -0.037889 0.284542
v 0.142000 0.420447 -0.335418
v 0.227895 0.420447 0.275066
v -0.000000 -0.037889 0.000000
v 0.099404 0.420447 -0.009475
v 0.061619 0.177695 -0.330546
v 0.147513 0.177695 0.279939
v 0.019023 0.177695 -0.004603
v -0.306781 -0.037889 -0.118063
v 0.306781 -0.037889 -0.057962
v -0.292611 0.420447 -0.216907
v 0.320951 0.420447 -0.156806
v 0.000000 -0.037889 0.000000
v 0.014170 0.420447 -0.098844
v -0.306781 0.177695 -0.137634
v 0.306781 0.177695 -0.077534
v 0.000000 0.177695 -0.019572
v 0.042695 -0.037897 -0.325930
v 0.128581 -0.037898 0.284501
v 0.142094 0.420416 -0.335406
v 0.227982 0.420417 0.275027
v 0.000098 -0.037898 -0.000015
v 0.099498 0.420415 -0.009490
v 0.061716 0.177675 -0.330533
v 0.147602 0.177675 0.279898
v 0.019120 0.177675 -0.004617
v -0.306745 -0.037897 -0.118156
v 0.306762 -0.037898 -0.058060
v -0.292576 0.420416 -0.216995
v 0.320933 0.420417 -0.156900
v 0.000009 -0.037898 -0.000099
v 0.014178 0.420415 -0.098939
v -0.306745 0.177675 -0.137726
v 0.306762 0.177675 -0.077630
v 0.000009 0.177675 -0.019669
vt 0.5000 0.3090
vt 0.9922 0.3090
vt 0.9922 0.7998
vt 0.5000 0.7998
vt 0.0078 0.3090
vt 0.0078 0.7998
vt 0.0078 0.0078
vt 0.5000 0.0078
vt 0.9922 0.0078
vt 0.5000 0.3090
vt 0.9922 0.3090
vt 0.9922 0.7998
vt 0.5000 0.7998
vt 0.0078 0.3090
vt 0.0078 0.7998
vt 0.0078 0.0078
vt 0.5000 0.0078
vt 0.9922 0.0078
vt 0.5000 0.3090
vt 0.5000 0.7998
vt 0.9922 0.7998
vt 0.9922 0.3090
vt 0.0078 0.3090
vt 0.0078 0.7998
vt 0.0078 0.0078
vt 0.5000 0.0078
vt 0.9922 0.0078
vt 0.5000 0.3090
vt 0.5000 0.7998
vt 0.9922 0.7998
vt 0.9922 0.3090
vt 0.0078 0.3090
vt 0.0078 0.7998
vt 0.0078 0.0078
vt 0.5000 0.0078
vt 0.9922 0.0078
vn -0.9697 0.1994 0.1409
vn -0.8934 0.1977 0.4034
vn -0.8705 0.2961 0.3931
vn -0.9385 0.3136 0.1440
vn -0.9712 0.2017 -0.1269
vn -0.9428 0.3097 -0.1232
vn -0.9880 0.0844 -0.1291
vn -0.9850 0.0900 0.1473
vn -0.9078 0.0888 0.4099
vn -0.0911 0.1994 0.9756
vn 0.1820 0.1977 0.9632
vn 0.1773 0.2961 0.9385
vn -0.0808 0.3136 0.9461
vn -0.3518 0.2017 0.9141
vn -0.3415 0.3097 0.8874
vn -0.3579 0.0844 0.9299
vn -0.0884 0.0900 0.9920
vn 0.1849 0.0888 0.9787
vn 0.9697 -0.1994 -0.1409
vn 0.9385 -0.3137 -0.1440
vn 0.8705 -0.2961 -0.3931
vn 0.8934 -0.1977 -0.4034
vn 0.9712 -0.2017 0.1269
vn 0.9428 -0.3097 0.1232
vn 0.9880 -0.0844 0.1291
vn 0.9850 -0.0900 -0.1473
vn 0.9078 -0.0888 -0.4099
vn 0.0911 -0.1994 -0.9756
vn 0.0808 -0.3137 -0.9461
vn -0.1773 -0.2961 -0.9385
vn -0.1820 -0.1977 -0.9632
vn 0.3518 -0.2017 -0.9141
vn 0.3415 -0.3097 -0.8874
vn 0.3579 -0.0844 -0.9299
vn 0.0884 -0.0900 -0.9920
vn -0.1849 -0.0888 -0.9787
s 1
f 9/1/1 8/2/2 4/3/3 6/4/4
f 7/5/5 9/1/1 6/4/4 3/6/6
f 1/7/7 5/8/8 9/1/1 7/5/5
f 5/8/8 2/9/9 8/2/2 9/1/1
f 18/10/10 17/11/11 13/12/12 15/13/13
f 16/14/14 18/10/10 15/13/13 12/15/15
f 10/16/16 14/17/17 18/10/10 16/14/14
f 14/17/17 11/18/18 17/11/11 18/10/10
f 27/19/19 24/20/20 22/21/21 26/22/22
f 25/23/23 21/24/24 24/20/20 27/19/19
f 19/25/25 25/23/23 27/19/19 23/26/26
f 23/26/26 27/19/19 26/22/22 20/27/27
f 36/28/28 33/29/29 31/30/30 35/31/31
f 34/32/32 30/33/33 33/29/29 36/28/28
f 28/34/34 34/32/32 36/28/28 32/35/35
f 32/35/35 36/28/28 35/31/31 29/36/36
