# Blender v2.78 (sub 0) OBJ File: 'Low_Poly_Vegetation_Pack.blend'
# www.blender.org
g GrassPlanes_b_TwoS_07
v 0.194870 -0.022606 0.262255
v -0.221313 -0.022606 -0.210713
v 0.113547 0.386379 0.311942
v -0.302636 0.386379 -0.161026
v 0.034575 -0.022606 -0.028359
v -0.046748 0.386379 0.021328
v 0.178174 0.178578 0.273756
v -0.238009 0.178578 -0.199212
v 0.017878 0.178578 -0.016859
v -0.318847 -0.022606 0.092129
v 0.234381 -0.022606 -0.209277
v -0.372294 0.382997 -0.041527
v 0.180934 0.382997 -0.342933
v 0.000000 -0.022606 0.000000
v -0.053447 0.382997 -0.133656
v -0.326375 0.178578 0.073304
v 0.226853 0.178578 -0.228102
v -0.007528 0.178578 -0.018825
v -0.144299 -0.022606 0.252544
v 0.043979 -0.022606 -0.348670
v -0.275621 0.382997 0.193594
v -0.087343 0.382997 -0.407620
v 0.020915 -0.022606 -0.035302
v -0.110407 0.382997 -0.094252
v -0.162795 0.178578 0.244241
v 0.025483 0.178578 -0.356973
v 0.002419 0.178578 -0.043605
v 0.194783 -0.022616 0.262303
v -0.221371 -0.022616 -0.210632
v 0.113465 0.386345 0.311988
v -0.302691 0.386347 -0.160949
v 0.034500 -0.022616 -0.028293
v -0.046818 0.386345 0.021391
v 0.178088 0.178556 0.273803
v -0.238066 0.178557 -0.199133
v 0.017805 0.178557 -0.016794
v -0.318875 -0.022616 0.092033
v 0.234315 -0.022616 -0.209351
v -0.372318 0.382946 -0.041609
v 0.180876 0.382948 -0.342998
v -0.000048 -0.022616 -0.000087
v -0.053489 0.382946 -0.133731
v -0.326402 0.178546 0.073213
v 0.226790 0.178547 -0.228173
v -0.007574 0.178548 -0.018908
v -0.144386 -0.022616 0.252494
v 0.043880 -0.022616 -0.348678
v -0.275696 0.382946 0.193552
v -0.087430 0.382948 -0.407627
v 0.020820 -0.022616 -0.035332
v -0.110489 0.382946 -0.094276
v -0.162878 0.178546 0.244194
v 0.025388 0.178547 -0.356980
v 0.002328 0.178548 -0.043633
vt 0.5000 0.2935
vt 0.9922 0.2935
vt 0.9922 0.6707
vt 0.5000 0.6707
vt 0.0078 0.2935
vt 0.0078 0.6707
vt 0.0078 0.0078
vt 0.5000 0.0078
vt 0.9922 0.0078
vt 0.5000 0.2935
vt 0.9922 0.2935
vt 0.9922 0.6707
vt 0.5000 0.6707
vt 0.0078 0.2935
vt 0.0078 0.6707
vt 0.0078 0.0078
vt 0.5000 0.0078
vt 0.9922 0.0078
vt 0.5000 0.2935
vt 0.9922 0.2935
vt 0.9922 0.6707
vt 0.5000 0.6707
vt 0.0078 0.2935
vt 0.0078 0.6707
vt 0.0078 0.0078
vt 0.5000 0.0078
vt 0.9922 0.0078
vt 0.5000 0.2935
vt 0.5000 0.6707
vt 0.9922 0.6707
vt 0.9922 0.2935
vt 0.0078 0.2935
vt 0.0078 0.6707
vt 0.0078 0.0078
vt 0.5000 0.0078
vt 0.9922 0.0078
vt 0.5000 0.2935
vt 0.5000 0.6707
vt 0.9922 0.6707
vt 0.9922 0.2935
vt 0.0078 0.2935
vt 0.0078 0.6707
vt 0.0078 0.0078
vt 0.5000 0.0078
vt 0.9922 0.0078
vt 0.5000 0.2935
vt 0.5000 0.6707
vt 0.9922 0.6707
vt 0.9922 0.2935
vt 0.0078 0.2935
vt 0.0078 0.6707
vt 0.0078 0.0078
vt 0.5000 0.0078
vt 0.9922 0.0078
vn 0.7312 0.2151 -0.6474
vn 0.5672 0.2110 -0.7960
vn 0.5511 0.3135 -0.7733
vn 0.6976 0.3335 -0.6341
vn 0.8537 0.2221 -0.4709
vn 0.8236 0.3396 -0.4543
vn 0.8712 0.0998 -0.4805
vn 0.7440 0.0995 -0.6607
vn 0.5777 0.0943 -0.8107
vn 0.4584 0.3060 0.8343
vn 0.6323 0.3142 0.7082
vn 0.5790 0.4943 0.6484
vn 0.4226 0.5142 0.7463
vn 0.2630 0.3195 0.9103
vn 0.2378 0.5158 0.8231
vn 0.2762 0.0998 0.9559
vn 0.4800 0.0995 0.8716
vn 0.6630 0.0943 0.7426
vn 0.9095 0.3060 0.2812
vn 0.9468 0.3142 0.0697
vn 0.8669 0.4943 0.0638
vn 0.8226 0.5142 0.2428
vn 0.8218 0.3195 0.4717
vn 0.7430 0.5158 0.4265
vn 0.8629 0.0998 0.4953
vn 0.9509 0.0995 0.2931
vn 0.9929 0.0943 0.0731
vn -0.7312 -0.2151 0.6474
vn -0.6976 -0.3335 0.6341
vn -0.5511 -0.3135 0.7733
vn -0.5672 -0.2110 0.7960
vn -0.8538 -0.2221 0.4709
vn -0.8236 -0.3396 0.4542
vn -0.8712 -0.0998 0.4805
vn -0.7440 -0.0995 0.6607
vn -0.5777 -0.0943 0.8107
vn -0.4584 -0.3060 -0.8343
vn -0.4226 -0.5142 -0.7463
vn -0.5790 -0.4943 -0.6484
vn -0.6323 -0.3142 -0.7082
vn -0.2630 -0.3195 -0.9103
vn -0.2378 -0.5158 -0.8231
vn -0.2762 -0.0998 -0.9559
vn -0.4800 -0.0995 -0.8716
vn -0.6630 -0.0943 -0.7426
vn -0.9095 -0.3060 -0.2812
vn -0.8226 -0.5142 -0.2428
vn -0.8669 -0.4943 -0.0638
vn -0.9468 -0.3142 -0.0697
vn -0.8218 -0.3195 -0.4717
vn -0.7430 -0.5158 -0.4265
vn -0.8629 -0.0998 -0.4953
vn -0.9509 -0.0995 -0.2931
vn -0.9929 -0.0943 -0.0731
s 1
f 9/1/1 8/2/2 4/3/3 6/4/4
f 7/5/5 9/1/1 6/4/4 3/6/6
f 1/7/7 5/8/8 9/1/1 7/5/5
f 5/8/8 2/9/9 8/2/2 9/1/1
f 18/10/10 17/11/11 13/12/12 15/13/13
f 16/14/14 18/10/10 15/13/13 12/15/15
f 10/16/16 14/17/17 18/10/10 16/14/14
f 14/17/17 11/18/18 17/11/11 18/10/10
f 27/19/19 26/20/20 22/21/21 24/22/22
f 25/23/23 27/19/19 24/22/22 21/24/24
f 19/25/25 23/26/26 27/19/19 25/23/23
f 23/26/26 20/27/27 26/20/20 27/19/19
f 36/28/28 33/29/29 31/30/30 35/31/31
f 34/32/32 30/33/33 33/29/29 36/28/28
f 28/34/34 34/32/32 36/28/28 32/35/35
f 32/35/35 36/28/28 35/31/31 29/36/36
f 45/37/37 42/38/38 40/39/39 44/40/40
f 43/41/41 39/42/42 42/38/38 45/37/37
f 37/43/43 43/41/41 45/37/37 41/44/44
f 41/44/44 45/37/37 44/40/40 38/45/45
f 54/46/46 51/47/47 49/48/48 53/49/49
f 52/50/50 48/51/51 51/47/47 54/46/46
f 46/52/52 52/50/50 54/46/46 50/53/53
f 50/53/53 54/46/46 53/49/49 47/54/54
