# Blender v2.78 (sub 0) OBJ File: 'Low_Poly_Vegetation_Pack.blend'
# www.blender.org
g GrassPlane_a_TwoS_04
v -0.240465 -0.022387 -0.027196
v 0.240465 -0.022387 -0.027196
v -0.240465 0.426982 -0.108553
v 0.240465 0.426982 -0.108553
v -0.240465 0.137513 -0.040820
v 0.240465 0.137513 -0.040820
v 0.000000 -0.022387 -0.000000
v 0.000000 0.426982 -0.081357
v 0.000000 0.137513 -0.013624
v -0.240454 -0.022395 -0.027295
v 0.240454 -0.022395 -0.027295
v -0.240454 0.426959 -0.108650
v 0.240454 0.426959 -0.108650
v -0.240454 0.137497 -0.040918
v 0.240454 0.137497 -0.040918
v 0.000000 -0.022395 -0.000100
v 0.000000 0.426959 -0.081455
v 0.000000 0.137497 -0.013722
vt 0.5000 0.3326
vt 0.9999 0.3326
vt 0.9999 0.9061
vt 0.5000 0.9061
vt 0.5000 0.0005
vt 0.9999 0.0005
vt 0.0001 0.0005
vt 0.0001 0.3326
vt 0.0001 0.9061
vt 0.5000 0.3326
vt 0.5000 0.9061
vt 0.9999 0.9061
vt 0.9999 0.3326
vt 0.5000 0.0005
vt 0.9999 0.0005
vt 0.0001 0.0005
vt 0.0001 0.3326
vt 0.0001 0.9061
vn 0.0000 0.1560 0.9877
vn 0.1110 0.1566 0.9814
vn 0.1094 0.2264 0.9678
vn 0.0000 0.2278 0.9737
vn 0.0000 0.0849 0.9964
vn 0.1120 0.0844 0.9901
vn -0.1120 0.0844 0.9901
vn -0.1110 0.1566 0.9814
vn -0.1094 0.2264 0.9678
vn 0.0000 -0.1560 -0.9877
vn 0.0000 -0.2278 -0.9737
vn -0.1094 -0.2264 -0.9678
vn -0.1110 -0.1566 -0.9814
vn 0.0000 -0.0849 -0.9964
vn -0.1120 -0.0844 -0.9901
vn 0.1120 -0.0844 -0.9901
vn 0.1110 -0.1566 -0.9814
vn 0.1094 -0.2264 -0.9678
s 1
f 9/1/1 6/2/2 4/3/3 8/4/4
f 7/5/5 2/6/6 6/2/2 9/1/1
f 1/7/7 7/5/5 9/1/1 5/8/8
f 5/8/8 9/1/1 8/4/4 3/9/9
f 18/10/10 17/11/11 13/12/12 15/13/13
f 16/14/14 18/10/10 15/13/13 11/15/15
f 10/16/16 14/17/17 18/10/10 16/14/14
f 14/17/17 12/18/18 17/11/11 18/10/10
