# Blender v2.78 (sub 0) OBJ File: 'Low_Poly_Vegetation_Pack.blend'
# www.blender.org
g Bush_a_m_07
v 0.402239 0.482034 0.664103
v 0.642871 0.410221 0.118072
v 0.404003 0.728568 0.657945
v 0.414479 1.007390 0.487049
v 0.499756 0.290791 0.472723
v 0.208527 -0.005056 0.380331
v 0.578323 0.529425 0.478098
v 0.612532 0.894176 0.352081
v 0.132127 0.589710 0.734326
v 0.140182 0.882918 0.668754
v 0.171476 0.180729 0.590728
v -0.075215 0.253220 0.695875
v -0.623449 0.326311 0.462628
v -0.370767 0.302991 0.629346
v -0.592843 0.797639 0.397899
v -0.826754 0.323571 0.186804
v -0.876967 0.351026 -0.002250
v -0.482639 0.069931 0.458865
v -0.355834 -0.076246 0.368672
v -0.195907 0.068211 0.599198
v -0.264228 0.597875 0.635404
v -0.759412 0.750700 0.253641
v -0.757744 0.923577 0.028902
v -0.739714 0.089400 0.022565
v -0.450577 0.346873 -0.533723
v -0.706214 0.476496 -0.361216
v -0.472959 0.623075 -0.549831
v -0.140990 0.287329 -0.586068
v 0.038161 0.478288 -0.703522
v -0.324919 0.025648 -0.390570
v -0.668600 0.158745 -0.278657
v 0.035781 0.723431 -0.681343
v 0.129965 0.282297 -0.665325
v 0.557423 0.393255 -0.369566
v 0.400826 0.341045 -0.573046
v 0.624970 0.866524 -0.184102
v 0.460755 0.106381 -0.222923
v 0.327796 0.101542 -0.451103
v 0.378768 0.597187 -0.623063
v 0.323926 0.862920 -0.538859
v 0.673907 0.623001 -0.090518
v 0.709236 0.856242 0.124086
v -0.090487 -0.161556 0.235629
v 0.122141 -0.109664 0.177587
v -0.042177 -0.042259 0.497875
v -0.488222 -0.056823 0.056165
v -0.164464 -0.097324 -0.189192
v 0.093777 0.006847 -0.415152
v 0.296821 -0.040094 -0.170445
v 0.350248 1.223487 0.196851
v 0.363321 1.181825 -0.177830
v -0.569191 1.022467 0.236566
v -0.576101 1.081683 -0.052651
v 0.175533 1.022177 0.548527
v -0.254503 1.134189 0.239263
v 0.317169 1.260120 0.009133
v 0.593434 1.078849 -0.055247
v -0.086931 1.155678 -0.318763
v 0.135692 0.953704 -0.550371
v 0.575831 1.070932 0.235385
v -0.222156 0.939022 0.487156
v -0.421114 -0.070912 -0.204141
v -0.370529 0.982254 -0.495999
v 0.441814 0.119077 0.266556
v 0.116777 0.107185 -0.545823
v -0.710119 0.920779 -0.168187
vt 0.5561 0.8930
vt 0.5537 0.8992
vt 0.5472 0.8973
vt 0.5595 0.8966
vt 0.5628 0.8823
vt 0.5493 0.8887
vt 0.5472 0.8837
vt 0.5620 0.8909
vt 0.5480 0.9044
vt 0.5408 0.9036
vt 0.5523 0.9045
vt 0.5425 0.9748
vt 0.5520 0.9746
vt 0.5475 0.9870
vt 0.5343 0.9720
vt 0.5389 0.9838
vt 0.5385 0.9670
vt 0.5445 0.9635
vt 0.5489 0.9675
vt 0.5479 0.9549
vt 0.5384 0.9571
vt 0.5440 0.9477
vt 0.5518 0.9585
vt 0.5417 0.9155
vt 0.5519 0.9124
vt 0.5427 0.9294
vt 0.5552 0.9258
vt 0.5544 0.9366
vt 0.5608 0.9230
vt 0.5621 0.9387
vt 0.5650 0.9233
vt 0.5513 0.9210
vt 0.5576 0.9176
vt 0.5611 0.9479
vt 0.5551 0.9413
vt 0.5674 0.9548
vt 0.5602 0.9544
vt 0.5702 0.9464
vt 0.5740 0.9559
vt 0.5832 0.9301
vt 0.5728 0.9332
vt 0.5780 0.9253
vt 0.5716 0.9174
vt 0.5891 0.9227
vt 0.5900 0.9094
vt 0.5817 0.9469
vt 0.5851 0.9579
vt 0.5924 0.9662
vt 0.5873 0.9700
vt 0.5722 0.9819
vt 0.5687 0.9754
vt 0.5786 0.9762
vt 0.5759 0.9685
vt 0.5805 0.9695
vt 0.5811 0.8876
vt 0.5832 0.8987
vt 0.5697 0.8933
vt 0.5916 0.9009
vt 0.5817 0.9095
vt 0.5766 0.9022
vt 0.5695 0.8869
vt 0.5733 0.9946
vt 0.5606 0.9928
vt 0.5806 0.9884
vt 0.5555 0.9824
vt 0.5562 0.9648
vt 0.5582 0.9715
vt 0.5684 0.9617
vt 0.5589 0.9108
vt 0.5625 0.9179
vt 0.5680 0.9104
vt 0.5639 0.9029
vt 0.5599 0.9026
vt 0.5673 0.9019
vt 0.5654 0.8969
vt 0.5752 0.9073
vt 0.5416 0.8935
vt 0.5359 0.9192
vt 0.5339 0.9107
vt 0.5736 0.9395
vt 0.5865 0.9810
vt 0.5884 0.8933
vn 0.6588 0.3750 0.6522
vn 0.6643 0.5030 0.5529
vn 0.9140 -0.3069 0.2655
vn 0.8716 0.3830 0.3060
vn 0.1630 0.2111 0.9638
vn 0.2339 0.6007 0.7645
vn 0.4410 -0.6328 0.6365
vn 0.1174 -0.3189 0.9405
vn 0.1599 -0.5371 0.8282
vn -0.5434 -0.3099 0.7802
vn -0.2582 -0.3098 0.9151
vn -0.1637 -0.7808 0.6029
vn -0.3575 0.4090 0.8396
vn -0.8047 0.0341 0.5928
vn -0.9706 0.1944 0.1423
vn -0.9496 0.2104 -0.2324
vn -0.6457 0.4888 0.5866
vn -0.7349 0.5402 0.4101
vn -0.8793 -0.4453 0.1689
vn -0.4930 -0.8663 -0.0802
vn -0.8317 -0.4651 -0.3034
vn -0.4514 -0.6756 -0.5829
vn -0.5894 -0.0945 -0.8023
vn -0.7035 0.2780 -0.6540
vn -0.6906 0.2959 -0.6599
vn -0.1797 -0.0718 -0.9811
vn -0.3411 -0.2391 -0.9091
vn -0.2344 -0.4707 -0.8506
vn -0.2725 -0.3055 -0.9124
vn 0.5731 -0.7553 -0.3179
vn 0.2330 -0.7907 -0.5661
vn 0.8456 0.0858 -0.5269
vn 0.2524 -0.0699 -0.9651
vn 0.2783 0.3419 -0.8976
vn 0.9140 0.0281 -0.4047
vn 0.9443 -0.2901 -0.1554
vn 0.6736 -0.7377 0.0452
vn -0.0771 -0.9021 0.4246
vn 0.3078 -0.8926 0.3294
vn -0.2059 -0.9722 -0.1112
vn -0.1039 -0.9942 0.0270
vn -0.2788 -0.9586 0.0585
vn 0.1281 -0.9771 -0.1700
vn 0.5337 -0.8224 0.1970
vn 0.5567 -0.8227 0.1150
vn -0.3295 0.9234 0.1969
vn -0.3219 0.8809 -0.3468
vn -0.1282 0.9689 0.2117
vn 0.1935 0.8069 0.5580
vn -0.2511 0.7443 0.6188
vn -0.2679 0.7397 0.6173
vn 0.5695 0.5843 -0.5782
vn 0.4964 0.8376 -0.2282
vn 0.5513 0.8317 0.0652
vn 0.0628 0.9260 -0.3723
vn -0.0307 0.7385 -0.6735
vn 0.1333 0.8069 -0.5755
vn 0.3657 0.6774 -0.6383
vn 0.8497 -0.4973 0.1754
vn 0.5775 -0.6998 0.4205
vn 0.7337 -0.2558 0.6294
vn -0.5223 0.1577 0.8381
vn 0.9224 0.0460 0.3836
vn 0.9641 -0.1464 0.2213
vn 0.2599 0.0223 0.9654
vn 0.3181 0.4867 0.8136
vn 0.4376 -0.5147 0.7373
vn 0.3992 -0.6512 0.6454
vn 0.3019 -0.2898 0.9082
vn 0.1955 -0.5307 0.8247
vn -0.4037 -0.4060 0.8199
vn -0.3239 -0.6842 0.6534
vn -0.3903 0.5635 0.7281
vn -0.2287 0.0452 0.9724
vn -0.3581 0.4089 0.8394
vn -0.7331 -0.4988 0.4622
vn -0.2321 0.2184 0.9479
vn -0.6707 0.1435 0.7277
vn -0.9567 0.1086 0.2699
vn -0.5673 -0.7832 0.2544
vn -0.3167 -0.6146 -0.7225
vn -0.6280 -0.2645 -0.7319
vn -0.8469 -0.2254 -0.4816
vn -0.4375 -0.5032 -0.7452
vn -0.5945 -0.7415 -0.3111
vn -0.9120 0.1567 -0.3791
vn -0.2649 0.0843 -0.9606
vn -0.2847 0.2210 -0.9328
vn -0.0629 0.5139 -0.8555
vn -0.0736 -0.5632 -0.8231
vn 0.7594 -0.4729 -0.4469
vn 0.3577 -0.5244 -0.7727
vn -0.1945 0.9807 -0.0206
vn 0.2886 -0.8672 -0.4058
vn 0.7975 -0.0487 -0.6013
vn 0.7151 0.3410 -0.6103
vn 0.3479 -0.1507 -0.9253
vn 0.1990 0.0902 -0.9758
vn 0.2454 0.3966 -0.8846
vn 0.9891 -0.1471 -0.0029
vn 0.9612 0.0934 -0.2597
vn 0.6777 0.4524 -0.5797
vn 0.9268 0.2857 -0.2439
vn 0.9123 -0.3823 -0.1466
vn 0.7644 0.0930 0.6380
vn 0.8329 -0.5515 0.0465
vn 0.2959 -0.8888 0.3498
vn -0.0616 -0.8729 -0.4839
vn 0.1294 -0.9484 -0.2893
vn -0.0675 -0.8745 -0.4803
vn 0.2136 -0.9730 -0.0873
vn -0.6009 0.7801 0.1741
vn -0.5321 0.7394 -0.4125
vn -0.6902 0.7017 -0.1767
vn -0.0985 0.8840 0.4571
vn -0.2480 0.6684 0.7013
vn 0.5569 0.8287 0.0563
vn 0.4366 0.7652 0.4731
vn 0.8625 0.5018 0.0659
s off
f 8/1/1 4/2/1 3/3/1
f 8/1/2 60/4/2 4/2/2
f 2/5/3 7/6/3 5/7/3
f 8/1/4 42/8/4 60/4/4
f 3/3/5 10/9/5 9/10/5
f 4/2/6 54/11/6 10/9/6
f 11/12/7 6/13/7 5/14/7
f 9/15/8 11/12/8 1/16/8
f 12/17/9 20/18/9 45/19/9
f 18/20/10 14/21/10 13/22/10
f 14/21/11 20/18/11 12/17/11
f 19/23/12 45/19/12 20/18/12
f 21/24/13 10/9/13 61/25/13
f 13/26/14 22/27/14 16/28/14
f 23/29/15 17/30/15 22/27/15
f 23/29/16 66/31/16 17/30/16
f 15/32/17 52/33/17 22/27/17
f 52/33/18 23/29/18 22/27/18
f 17/30/19 24/34/19 16/35/19
f 24/34/20 62/36/20 46/37/20
f 31/38/21 24/34/21 17/30/21
f 30/39/22 62/36/22 31/38/22
f 25/40/23 26/41/23 27/42/23
f 26/41/24 66/31/24 27/42/24
f 27/42/25 66/31/25 63/43/25
f 27/42/26 28/44/26 25/40/26
f 27/42/27 29/45/27 28/44/27
f 25/46/28 28/47/28 30/39/28
f 29/48/29 33/49/29 28/47/29
f 37/50/30 49/51/30 38/52/30
f 38/52/31 48/53/31 65/54/31
f 34/55/32 39/56/32 36/57/32
f 33/58/33 29/45/33 39/56/33
f 39/56/34 32/59/34 40/60/34
f 36/57/35 41/61/35 34/55/35
f 41/62/36 2/63/36 34/64/36
f 37/50/37 64/65/37 49/51/37
f 45/19/38 19/23/38 43/66/38
f 44/67/39 6/13/39 43/66/39
f 43/66/40 46/37/40 47/68/40
f 46/37/41 62/36/41 47/68/41
f 19/23/42 46/37/42 43/66/42
f 43/66/43 47/68/43 49/51/43
f 64/65/44 6/13/44 44/67/44
f 44/67/45 49/51/45 64/65/45
f 55/69/46 53/70/46 52/33/46
f 58/71/47 63/43/47 53/70/47
f 56/72/48 55/69/48 50/73/48
f 54/11/49 4/2/49 50/73/49
f 55/69/50 61/25/50 54/11/50
f 52/33/51 61/25/51 55/69/51
f 51/74/52 57/75/52 40/60/52
f 56/72/53 57/75/53 51/74/53
f 50/73/54 60/4/54 56/72/54
f 56/72/55 51/74/55 58/71/55
f 58/71/56 59/76/56 63/43/56
f 51/74/57 59/76/57 58/71/57
f 40/60/58 59/76/58 51/74/58
f 5/14/59 64/65/59 2/63/59
f 5/14/60 6/13/60 64/65/60
f 5/7/61 7/6/61 1/77/61
f 15/32/62 13/26/62 14/78/62 21/24/62
f 7/6/63 42/8/63 8/1/63
f 7/6/64 2/5/64 42/8/64
f 1/77/65 3/3/65 9/10/65
f 3/3/66 4/2/66 10/9/66
f 1/16/67 11/12/67 5/14/67
f 11/12/68 45/19/68 6/13/68
f 9/15/69 12/17/69 11/12/69
f 11/12/70 12/17/70 45/19/70
f 14/21/71 18/20/71 20/18/71
f 18/20/72 19/23/72 20/18/72
f 15/32/73 61/25/73 52/33/73
f 21/24/74 14/78/74 12/79/74 9/10/74
f 21/24/75 61/25/75 15/32/75
f 24/34/76 18/20/76 13/22/76 16/35/76
f 21/24/77 9/10/77 10/9/77
f 13/26/78 15/32/78 22/27/78
f 16/28/79 22/27/79 17/30/79
f 46/37/80 19/23/80 18/20/80 24/34/80
f 65/54/81 48/53/81 28/47/81 33/49/81
f 25/46/82 31/38/82 26/80/82
f 26/80/83 31/38/83 17/30/83
f 25/46/84 30/39/84 31/38/84
f 31/38/85 62/36/85 24/34/85
f 26/41/86 17/30/86 66/31/86
f 27/42/87 32/59/87 29/45/87
f 27/42/88 63/43/88 32/59/88
f 63/43/89 59/76/89 32/59/89
f 30/39/90 28/47/90 48/53/90
f 38/52/91 35/81/91 34/64/91 37/50/91
f 65/54/92 33/49/92 35/81/92 38/52/92
f 53/70/93 55/69/93 56/72/93 58/71/93
f 38/52/94 49/51/94 48/53/94
f 34/55/95 35/82/95 39/56/95
f 36/57/96 39/56/96 40/60/96
f 35/82/97 33/58/97 39/56/97
f 39/56/98 29/45/98 32/59/98
f 40/60/99 32/59/99 59/76/99
f 2/5/100 41/61/100 42/8/100
f 41/61/101 36/57/101 42/8/101
f 40/60/102 57/75/102 36/57/102
f 36/57/103 57/75/103 42/8/103
f 34/64/104 2/63/104 37/50/104
f 3/3/105 1/77/105 7/6/105 8/1/105
f 37/50/106 2/63/106 64/65/106
f 43/66/107 6/13/107 45/19/107
f 47/68/108 62/36/108 30/39/108
f 47/68/109 48/53/109 49/51/109
f 47/68/110 30/39/110 48/53/110
f 43/66/111 49/51/111 44/67/111
f 52/33/112 53/70/112 23/29/112
f 53/70/113 63/43/113 66/31/113
f 53/70/114 66/31/114 23/29/114
f 50/73/115 55/69/115 54/11/115
f 54/11/116 61/25/116 10/9/116
f 56/72/117 60/4/117 57/75/117
f 50/73/118 4/2/118 60/4/118
f 57/75/119 60/4/119 42/8/119
