# Blender v2.78 (sub 0) OBJ File: 'Low_Poly_Vegetation_Pack.blend'
# www.blender.org
g Bush_c_m_02
v -0.900436 0.336900 0.440100
v -0.819475 0.611241 0.358439
v -0.874632 0.132271 0.346534
v -0.606076 0.489038 0.657476
v -0.866301 0.134386 0.117646
v -0.598836 0.387759 -0.311688
v -0.619225 0.121009 -0.321594
v -0.608598 -0.081694 -0.164724
v -0.367412 0.806618 -0.180183
v -0.287329 0.260789 -0.431988
v 0.177122 0.266208 0.047464
v -0.086013 0.343829 -0.316388
v 0.260217 0.230511 0.311169
v 0.178412 0.038395 0.151754
v 0.196155 0.463278 0.208327
v -0.007967 0.703553 -0.065905
v -0.178443 0.233065 0.703039
v -0.178920 -0.054047 0.597075
v 0.117513 0.139646 0.594913
v 0.009445 0.450304 0.610749
v -0.404109 -0.183419 -0.044250
v -0.009627 -0.113432 0.065405
v -0.195163 -0.173771 0.328332
v -0.707287 0.029745 0.502478
v -0.320153 0.943653 0.153726
v -0.145843 0.798404 -0.122940
v -0.542071 0.861751 0.312293
v -0.296459 0.774900 0.496571
v -0.710212 -0.076567 0.286866
v -0.310993 -0.048195 -0.311934
v -0.628395 0.779566 -0.065212
v -0.050781 0.092669 -0.258989
v 0.182206 0.451384 0.446522
v 0.132911 -0.036935 0.425535
v -0.657994 0.186016 0.640525
v -0.891876 0.391391 0.050665
v -0.065743 0.825588 0.251207
v 0.560273 0.418058 -0.737633
v 0.434409 0.750023 -0.652735
v 0.588329 0.164134 -0.620506
v 0.110141 0.606846 -0.797341
v 0.601595 0.747600 -0.487554
v 0.716495 0.166759 -0.366830
v 0.731383 0.432267 0.184726
v 0.594819 0.579962 0.317406
v 0.648669 0.150981 0.345662
v 0.605784 -0.101374 0.094451
v 0.746526 0.192762 0.112458
v 0.353007 1.000931 0.255835
v 0.416954 0.323613 0.577425
v -0.375089 0.330337 0.334945
v 0.128928 0.426657 0.572516
v -0.623460 0.286041 0.098250
v -0.492205 0.574881 0.171582
v -0.211740 0.872107 0.253364
v -0.308203 0.467995 -0.602012
v -0.385074 0.184042 -0.574196
v -0.317745 -0.067067 -0.475640
v -0.638517 0.173286 -0.295582
v -0.530598 0.558782 -0.377573
v 0.311387 -0.227605 0.086148
v 0.036006 -0.127407 0.305277
v -0.080509 -0.219701 -0.095850
v -0.161405 -0.190333 -0.318056
v -0.431022 -0.023986 0.179134
v 0.313025 0.036910 -0.689614
v 0.101486 1.170978 -0.078618
v 0.077961 0.990738 0.326471
v 0.247535 1.069345 -0.383937
v -0.129790 0.961572 -0.436908
v 0.445461 -0.095012 -0.457110
v 0.370693 -0.059805 0.432803
v 0.567636 0.967362 -0.025536
v 0.056238 0.114992 0.531275
v -0.027315 0.770234 0.423246
v -0.619845 0.560121 -0.095575
v -0.553706 -0.045832 -0.102325
v 0.176711 0.230827 -0.810048
v 0.784435 0.485676 -0.309387
v -0.233365 1.024471 -0.032013
vt 0.6380 0.9537
vt 0.6429 0.9640
vt 0.6302 0.9576
vt 0.6367 0.9722
vt 0.7195 0.8822
vt 0.7336 0.8949
vt 0.7166 0.8941
vt 0.7006 0.8893
vt 0.7056 0.9085
vt 0.6605 0.9254
vt 0.6638 0.9349
vt 0.6368 0.9391
vt 0.6610 0.9449
vt 0.6434 0.9446
vt 0.6876 0.9105
vt 0.7060 0.9180
vt 0.6841 0.9314
vt 0.6814 0.9340
vt 0.6733 0.9458
vt 0.6834 0.9509
vt 0.6941 0.9696
vt 0.6988 0.9569
vt 0.6926 0.9430
vt 0.6819 0.9702
vt 0.6748 0.9632
vt 0.6948 0.9407
vt 0.7100 0.9241
vt 0.7143 0.9313
vt 0.7214 0.9504
vt 0.7293 0.9403
vt 0.7338 0.9463
vt 0.7234 0.9221
vt 0.6733 0.9758
vt 0.6859 0.9813
vt 0.6705 0.9859
vt 0.6547 0.9883
vt 0.6600 0.9766
vt 0.7499 0.9294
vt 0.7392 0.9336
vt 0.7446 0.9232
vt 0.7281 0.9122
vt 0.6656 0.9531
vt 0.6641 0.9672
vt 0.6495 0.9564
vt 0.7163 0.9157
vt 0.7193 0.9075
vt 0.7346 0.8841
vt 0.6814 0.9908
vt 0.7489 0.9085
vt 0.6347 0.9811
vt 0.6380 0.9537
vt 0.6429 0.9640
vt 0.6302 0.9576
vt 0.6367 0.9722
vt 0.7199 0.8938
vt 0.7193 0.9075
vt 0.7121 0.8945
vt 0.7195 0.8822
vt 0.7336 0.8949
vt 0.7006 0.8893
vt 0.7056 0.9085
vt 0.6605 0.9254
vt 0.6579 0.9348
vt 0.6368 0.9391
vt 0.6677 0.9350
vt 0.6610 0.9449
vt 0.6434 0.9446
vt 0.6853 0.9067
vt 0.6908 0.9160
vt 0.6841 0.9314
vt 0.7060 0.9180
vt 0.6814 0.9340
vt 0.6733 0.9458
vt 0.6834 0.9509
vt 0.6941 0.9696
vt 0.6988 0.9569
vt 0.6926 0.9430
vt 0.6796 0.9694
vt 0.6743 0.9566
vt 0.6948 0.9407
vt 0.7100 0.9241
vt 0.7105 0.9325
vt 0.7214 0.9504
vt 0.7293 0.9403
vt 0.7338 0.9463
vt 0.7179 0.9301
vt 0.7234 0.9221
vt 0.6859 0.9813
vt 0.6733 0.9758
vt 0.6705 0.9859
vt 0.6570 0.9856
vt 0.6600 0.9766
vt 0.7499 0.9294
vt 0.7392 0.9336
vt 0.7446 0.9232
vt 0.7281 0.9122
vt 0.6504 0.9932
vt 0.6656 0.9531
vt 0.6659 0.9651
vt 0.6621 0.9696
vt 0.6495 0.9564
vt 0.7163 0.9157
vt 0.7346 0.8841
vt 0.6814 0.9908
vt 0.7489 0.9085
vt 0.6651 0.9962
vt 0.6651 0.9962
vt 0.6347 0.9811
vn -0.7444 -0.3530 0.5668
vn -0.7143 -0.3231 0.6208
vn -0.6688 0.3864 0.6352
vn -0.9574 0.2883 0.0193
vn -0.8382 0.5174 -0.1724
vn -0.7745 0.0825 -0.6272
vn -0.8091 -0.3856 -0.4434
vn -0.1901 0.3881 -0.9018
vn -0.3380 0.0607 -0.9392
vn -0.3023 -0.5933 -0.7461
vn 0.3696 -0.3610 -0.8562
vn 0.7505 0.1508 -0.6435
vn 0.9317 0.0485 -0.3599
vn 0.6766 -0.5797 -0.4541
vn 0.5662 0.3847 -0.7290
vn 0.9499 0.1374 -0.2807
vn 0.8032 0.5902 -0.0808
vn 0.6521 -0.7517 -0.0984
vn 0.9083 -0.4168 0.0363
vn 0.8922 -0.2697 0.3623
vn 0.2272 -0.3375 0.9135
vn 0.4061 -0.6139 0.6769
vn 0.6746 0.1984 0.7110
vn 0.0946 0.4085 0.9078
vn -0.9934 -0.1084 -0.0371
vn 0.1970 -0.9767 -0.0852
vn 0.2595 -0.8953 -0.3620
vn 0.2579 -0.8883 0.3801
vn -0.2007 -0.8776 0.4354
vn -0.2138 -0.8875 0.4083
vn 0.1351 0.9098 -0.3925
vn -0.4089 0.9067 -0.1039
vn -0.6709 0.7415 -0.0080
vn -0.2720 0.6786 0.6823
vn 0.4777 0.6558 0.5846
vn -0.6956 -0.6406 0.3253
vn -0.6131 0.0610 0.7876
vn -0.4775 0.6397 0.6022
vn -0.7900 -0.6121 -0.0344
vn -0.7297 -0.6656 -0.1566
vn -0.8551 -0.2088 -0.4746
vn -0.7350 0.3205 -0.5976
vn 0.2403 0.4355 -0.8675
vn 0.3232 0.4063 -0.8547
vn -0.3966 0.4672 -0.7902
vn -0.1613 -0.3467 -0.9240
vn 0.5305 -0.1174 -0.8395
vn 0.8384 -0.2229 -0.4973
vn 0.8696 0.2591 -0.4203
vn 0.9533 0.2935 0.0705
vn 0.8123 0.5782 0.0764
vn 0.9390 -0.1387 -0.3147
vn 0.8885 0.0334 0.4576
vn 0.5269 0.6406 0.5585
vn 0.0918 0.3211 0.9426
vn -0.0880 -0.3448 0.9346
vn -0.4053 -0.9106 -0.0809
vn -0.1430 -0.8625 -0.4855
vn 0.4872 -0.7078 -0.5115
vn 0.3719 -0.9269 0.0497
vn -0.2322 -0.6018 0.7641
vn 0.4660 0.8696 -0.1630
vn 0.6080 0.7718 -0.1862
vn -0.2434 0.9089 -0.3386
vn -0.0148 0.8967 0.4424
vn 0.2478 0.8759 0.4140
vn -0.1259 -0.0339 0.9915
vn -0.1942 -0.9718 0.1341
vn 0.3780 -0.3530 -0.8559
vn 0.3255 -0.3231 -0.8886
vn 0.5001 0.7100 -0.4958
vn 0.2589 0.3303 -0.9077
vn 0.8384 0.2589 -0.4797
vn 0.8583 0.4851 -0.1676
vn 0.9935 0.0297 0.1099
vn 0.8582 -0.4280 0.2834
vn 0.9023 -0.4297 -0.0332
vn 0.7892 0.5958 0.1491
vn 0.7574 0.1246 0.6409
vn 0.5160 0.4067 0.7539
vn 0.7520 0.1466 0.6427
vn 0.6168 -0.6055 0.5029
vn 0.0900 -0.3610 0.9282
vn -0.3679 0.1054 0.9239
vn -0.6352 0.0461 0.7710
vn -0.3295 -0.6290 0.7041
vn 0.0044 0.4001 0.9164
vn -0.6961 0.1374 0.7047
vn -0.5492 0.3040 0.7785
vn -0.7250 0.5833 0.3663
vn -0.8242 -0.4096 0.3911
vn -0.9562 -0.2697 0.1138
vn -0.6629 -0.4208 -0.6193
vn -0.6826 -0.6139 -0.3965
vn -0.9342 0.1984 -0.2966
vn -0.5214 0.4085 -0.7491
vn -0.3881 0.0148 -0.9215
vn -0.1403 -0.9552 0.2605
vn 0.0169 -0.9011 0.4333
vn -0.4464 -0.8640 -0.2330
vn 0.6442 0.4095 -0.6460
vn -0.0975 -0.8884 -0.4486
vn -0.0613 -0.8148 -0.5765
vn 0.0713 0.9098 0.4089
vn 0.4082 0.9067 -0.1066
vn 0.5873 0.7468 -0.3120
vn -0.0915 0.6786 -0.7288
vn -0.7007 0.6558 -0.2811
vn 0.4519 -0.6406 -0.6209
vn 0.1563 0.0610 -0.9858
vn 0.0443 0.6584 -0.7513
vn 0.7083 -0.6121 -0.3515
vn 0.7146 -0.6656 -0.2154
vn 0.9786 -0.1994 -0.0505
vn 0.9242 -0.0556 0.3779
vn 0.9303 0.2775 0.2397
vn 0.2087 0.4355 0.8757
vn 0.1299 0.4063 0.9045
vn 0.7217 0.4866 0.4924
vn 0.5146 -0.3563 0.7799
vn -0.0589 -0.1174 0.9913
vn -0.5094 -0.2777 0.8145
vn -0.5437 0.2704 0.7945
vn -0.8688 0.2935 0.3989
vn -0.7482 0.5782 0.3255
vn -0.6531 -0.2161 0.7258
vn -0.9990 0.0334 0.0286
vn -0.7312 0.6406 -0.2344
vn -0.4970 0.5129 -0.7000
vn -0.3215 -0.4194 -0.8490
vn -0.2813 -0.9141 0.2920
vn 0.3940 -0.9106 -0.1250
vn 0.3598 -0.8625 0.3559
vn -0.1431 -0.6685 0.7298
vn -0.3449 -0.9386 0.0015
vn -0.3392 -0.9149 0.2189
vn 0.2734 -0.9357 -0.2232
vn -0.1658 -0.6018 -0.7813
vn -0.3293 0.8696 0.3678
vn -0.4333 0.7810 0.4498
vn -0.4035 0.5223 0.7512
vn 0.3767 0.9089 0.1789
vn -0.2007 0.8967 -0.3945
vn -0.4170 0.8759 -0.2427
vn 0.8877 -0.1084 -0.4475
vn 0.3641 0.0793 0.9280
vn -0.7171 0.0845 -0.6918
vn -0.4112 -0.0420 -0.9106
vn 0.0813 -0.9727 -0.2173
s off
f 3/1/1 24/2/1 1/3/1
f 1/3/2 24/2/2 35/4/2
f 1/5/3 4/6/3 2/7/3
f 1/5/4 2/7/4 36/8/4
f 2/7/5 31/9/5 36/8/5
f 6/10/6 7/11/6 36/12/6
f 7/11/7 8/13/7 5/14/7
f 6/15/8 9/16/8 10/17/8
f 10/18/9 7/11/9 6/10/9
f 7/11/10 30/19/10 8/13/10
f 10/17/11 32/20/11 30/19/11
f 11/21/12 32/20/12 16/22/12
f 32/20/13 12/23/13 16/22/13
f 14/24/14 22/25/14 32/20/14
f 12/26/15 26/27/15 16/28/15
f 11/29/16 15/30/16 13/31/16
f 16/28/17 37/32/17 15/30/17
f 14/24/18 34/33/18 22/25/18
f 13/34/19 34/33/19 14/24/19
f 19/35/20 34/33/20 13/34/20
f 17/36/21 18/37/21 19/35/21
f 18/37/22 34/33/22 19/35/22
f 19/38/23 33/39/23 20/40/23
f 20/40/24 28/41/24 4/6/24
f 3/1/25 1/3/25 36/12/25 5/14/25
f 21/42/26 22/25/26 23/43/26
f 21/42/27 30/19/27 22/25/27
f 34/33/28 18/37/28 23/43/28
f 23/43/29 24/2/29 29/44/29
f 23/43/30 18/37/30 24/2/30
f 25/45/31 26/27/31 9/16/31
f 25/45/32 31/9/32 27/46/32
f 27/46/33 31/9/33 2/7/33
f 27/46/34 4/6/34 28/41/34
f 28/41/35 20/40/35 37/32/35
f 3/1/36 29/44/36 24/2/36
f 1/5/37 35/47/37 4/6/37
f 2/7/38 4/6/38 27/46/38
f 3/1/39 5/14/39 29/44/39
f 29/44/40 5/14/40 8/13/40
f 36/12/41 7/11/41 5/14/41
f 6/15/42 36/8/42 31/9/42
f 10/17/43 9/16/43 26/27/43
f 10/17/44 26/27/44 12/26/44
f 6/15/45 31/9/45 9/16/45
f 7/11/46 10/17/46 30/19/46
f 10/17/47 12/26/47 32/20/47
f 11/21/48 14/24/48 32/20/48
f 11/29/49 16/28/49 15/30/49
f 13/31/50 15/30/50 33/39/50
f 15/30/51 37/32/51 33/39/51
f 11/21/52 13/34/52 14/24/52
f 33/48/53 19/35/53 13/34/53
f 20/40/54 33/39/54 37/32/54
f 20/40/55 4/6/55 17/49/55
f 17/36/56 35/4/56 18/37/56
f 21/42/57 29/44/57 8/13/57
f 8/13/58 30/19/58 21/42/58
f 22/25/59 30/19/59 32/20/59
f 23/43/60 22/25/60 34/33/60
f 24/2/61 18/37/61 35/4/61
f 25/45/62 37/32/62 26/27/62
f 37/32/63 16/28/63 26/27/63
f 25/45/64 9/16/64 31/9/64
f 25/45/65 27/46/65 28/41/65
f 25/45/66 28/41/66 37/32/66
f 35/4/67 17/36/67 4/50/67
f 21/42/68 23/43/68 29/44/68
f 40/51/69 66/52/69 38/53/69
f 38/53/70 66/52/70 78/54/70
f 39/55/71 69/56/71 42/57/71
f 38/58/72 41/59/72 39/55/72
f 38/58/73 42/57/73 79/60/73
f 42/57/74 73/61/74 79/60/74
f 44/62/75 48/63/75 79/64/75
f 46/65/76 47/66/76 48/63/76
f 48/63/77 47/66/77 43/67/77
f 44/68/78 79/60/78 45/69/78
f 44/68/79 45/69/79 50/70/79
f 45/69/80 49/71/80 50/70/80
f 50/72/81 46/65/81 44/62/81
f 46/65/82 72/73/82 47/66/82
f 50/70/83 74/74/83 72/73/83
f 51/75/84 74/74/84 75/76/84
f 74/74/85 52/77/85 75/76/85
f 65/78/86 62/79/86 74/74/86
f 52/80/87 68/81/87 75/82/87
f 51/83/88 54/84/88 53/85/88
f 75/82/89 55/86/89 54/84/89
f 55/86/90 80/87/90 54/84/90
f 53/88/91 77/89/91 65/78/91
f 59/90/92 77/89/92 53/88/92
f 57/91/93 58/92/93 59/90/93
f 58/92/94 77/89/94 59/90/94
f 59/93/95 76/94/95 60/95/95
f 60/95/96 70/96/96 41/59/96
f 56/97/97 78/54/97 57/91/97
f 61/98/98 62/79/98 63/99/98
f 61/98/99 72/73/99 62/79/99
f 77/89/100 58/92/100 64/100/100
f 38/58/101 39/55/101 42/57/101
f 63/99/102 66/52/102 71/101/102
f 64/100/103 58/92/103 66/52/103
f 67/102/104 68/81/104 49/71/104
f 67/102/105 73/61/105 69/56/105
f 69/56/106 73/61/106 42/57/106
f 69/56/107 41/59/107 70/96/107
f 70/96/108 60/95/108 80/87/108
f 40/51/109 71/101/109 66/52/109
f 38/58/110 78/103/110 41/59/110
f 39/55/111 41/59/111 69/56/111
f 40/51/112 43/67/112 71/101/112
f 71/101/113 43/67/113 47/66/113
f 79/64/114 48/63/114 43/67/114
f 44/62/115 46/65/115 48/63/115
f 45/69/116 79/60/116 73/61/116
f 50/70/117 49/71/117 68/81/117
f 50/70/118 68/81/118 52/80/118
f 45/69/119 73/61/119 49/71/119
f 46/65/120 50/70/120 72/73/120
f 50/70/121 52/80/121 74/74/121
f 51/75/122 65/78/122 74/74/122
f 51/83/123 75/82/123 54/84/123
f 53/85/124 54/84/124 76/94/124
f 54/84/125 80/87/125 76/94/125
f 51/75/126 53/88/126 65/78/126
f 76/104/127 59/90/127 53/88/127
f 60/95/128 76/94/128 80/87/128
f 60/95/129 41/59/129 56/105/129
f 57/91/130 78/54/130 58/92/130
f 63/99/131 62/79/131 65/78/131
f 61/98/132 71/101/132 47/66/132
f 47/66/133 72/73/133 61/98/133
f 62/79/134 72/73/134 74/74/134
f 63/99/135 77/89/135 64/100/135
f 63/99/136 65/78/136 77/89/136
f 63/99/137 64/100/137 66/52/137
f 66/52/138 58/92/138 78/54/138
f 67/102/139 80/87/139 68/81/139
f 80/87/140 55/86/140 68/81/140
f 68/81/141 55/86/141 75/82/141
f 67/102/142 49/71/142 73/61/142
f 67/102/143 69/56/143 70/96/143
f 67/102/144 70/96/144 80/87/144
f 38/53/145 79/64/145 43/67/145 40/51/145
f 17/36/146 19/35/146 20/106/146
f 57/91/147 59/90/147 60/107/147 56/97/147
f 78/54/148 56/97/148 41/108/148
f 61/98/149 63/99/149 71/101/149
