# Blender v2.78 (sub 0) OBJ File: 'Low_Poly_Vegetation_Pack.blend'
# www.blender.org
g Bush_a_m_02
v -0.733757 1.205693 0.052860
v -0.624232 0.605966 0.265558
v -0.657200 1.731284 -0.067602
v -0.699730 1.043788 -0.240510
v -0.540732 0.684311 -0.453714
v -0.489287 0.124294 0.157660
v -0.634939 1.712964 0.209472
v -0.644352 1.116754 0.367535
v -0.536915 1.388357 0.513854
v -0.557059 1.662791 -0.409472
v -0.604749 0.383204 -0.105767
v -0.052860 1.205693 -0.733757
v -0.265558 0.605966 -0.624232
v 0.067602 1.731284 -0.657200
v 0.240510 1.043788 -0.699730
v 0.453714 0.684311 -0.540732
v -0.157660 0.124294 -0.489287
v -0.209472 1.712964 -0.634939
v -0.367535 1.116754 -0.644352
v -0.513854 1.388358 -0.536915
v 0.409472 1.662791 -0.557059
v 0.105767 0.383204 -0.604749
v 0.733757 1.205693 -0.052860
v 0.624232 0.605966 -0.265558
v 0.657200 1.731284 0.067602
v 0.699730 1.043788 0.240510
v 0.561206 1.041583 0.492169
v 0.489287 0.124294 -0.157660
v 0.634939 1.712964 -0.209472
v 0.644352 1.116754 -0.367535
v 0.536915 1.388358 -0.513854
v 0.604749 0.383204 0.105767
v 0.052860 1.205693 0.733757
v 0.265558 0.605966 0.624232
v -0.067602 1.731284 0.657200
v -0.240510 1.043788 0.699730
v 0.157660 0.124294 0.489287
v 0.301673 1.548197 0.650708
v 0.367535 1.116754 0.644352
v -0.409472 1.662791 0.557059
v -0.105767 0.383204 0.604749
v 0.000000 -0.238615 0.000000
v -0.089141 -0.097998 -0.314245
v -0.294329 -0.085930 -0.161330
v 0.314245 -0.097998 -0.089141
v 0.161330 -0.085930 -0.294329
v 0.089141 -0.097998 0.314245
v 0.294329 -0.085930 0.161330
v -0.314245 -0.097998 0.089141
v -0.161330 -0.085930 0.294329
v 0.129517 2.002117 -0.133908
v 0.073182 1.922796 -0.499316
v -0.465223 1.948398 -0.076192
v -0.076192 1.948398 0.465223
v 0.453527 1.945206 0.170648
v 0.426575 1.887481 -0.361649
v -0.361649 1.887481 -0.426575
v -0.426575 1.887481 0.361649
v 0.568004 1.760237 0.321176
v -0.453714 0.684311 0.540732
v 0.501667 0.469271 0.405851
v 0.238908 1.827976 0.558745
v -0.258112 0.123368 0.437756
v -0.437756 0.123368 -0.258112
v 0.437756 0.123368 0.258112
v 0.513248 1.622752 0.471019
v 0.258112 0.123368 -0.437756
vt 0.7051 0.9088
vt 0.7140 0.9096
vt 0.7117 0.9185
vt 0.7029 0.9117
vt 0.6754 0.9729
vt 0.6835 0.9749
vt 0.6805 0.9830
vt 0.6925 0.9765
vt 0.6909 0.9866
vt 0.6753 0.8947
vt 0.6838 0.8982
vt 0.6801 0.9025
vt 0.6762 0.8862
vt 0.6827 0.8881
vt 0.6881 0.8910
vt 0.6689 0.9006
vt 0.6718 0.9117
vt 0.6643 0.9091
vt 0.6762 0.9087
vt 0.6694 0.9818
vt 0.6671 0.9735
vt 0.6675 0.9644
vt 0.6812 0.9488
vt 0.6792 0.9570
vt 0.6711 0.9540
vt 0.6776 0.9660
vt 0.6755 0.9245
vt 0.6790 0.9160
vt 0.6832 0.9198
vt 0.6670 0.9237
vt 0.6689 0.9171
vt 0.6814 0.9309
vt 0.6925 0.9280
vt 0.6898 0.9404
vt 0.6895 0.9237
vt 0.6723 0.9428
vt 0.6806 0.9406
vt 0.7053 0.9547
vt 0.6971 0.9527
vt 0.7001 0.9446
vt 0.6881 0.9511
vt 0.7053 0.9243
vt 0.6968 0.9208
vt 0.7006 0.9166
vt 0.7045 0.9329
vt 0.6979 0.9310
vt 0.7113 0.9458
vt 0.7136 0.9541
vt 0.7095 0.9633
vt 0.7095 0.9736
vt 0.7166 0.9632
vt 0.6994 0.9788
vt 0.7015 0.9706
vt 0.7031 0.9616
vt 0.7051 0.8945
vt 0.7045 0.9033
vt 0.6974 0.8993
vt 0.7137 0.8954
vt 0.7118 0.9019
vt 0.6993 0.8881
vt 0.6907 0.8835
vt 0.6912 0.8954
vt 0.7084 0.9848
vt 0.7000 0.9870
vt 0.6901 0.9639
vt 0.6825 0.9653
vt 0.6841 0.9596
vt 0.6888 0.9560
vt 0.6945 0.9576
vt 0.6982 0.9623
vt 0.6965 0.9680
vt 0.6919 0.9716
vt 0.6862 0.9700
vt 0.6905 0.9118
vt 0.6917 0.9188
vt 0.6863 0.9161
vt 0.6843 0.9059
vt 0.6889 0.9002
vt 0.6939 0.9035
vt 0.6970 0.9119
vt 0.7001 0.9048
vt 0.6833 0.9902
vt 0.6640 0.9568
vt 0.6973 0.9374
vt 0.7167 0.9708
vt 0.6810 0.9109
vn 0.8822 0.1011 0.4599
vn -0.9475 -0.2938 0.1265
vn -0.7201 -0.3600 0.5932
vn -0.9824 0.1637 0.0898
vn -0.9645 -0.0877 0.2492
vn -0.8969 0.1265 0.4237
vn -0.8282 -0.0345 -0.5594
vn -0.9798 0.1036 -0.1708
vn -0.8824 0.0767 -0.4642
vn -0.9883 -0.1487 -0.0325
vn -0.9172 -0.2019 -0.3435
vn -0.1265 -0.2938 -0.9475
vn -0.5932 -0.3600 -0.7201
vn -0.0898 0.1637 -0.9824
vn -0.2492 -0.0877 -0.9645
vn -0.4237 0.1265 -0.8969
vn 0.5594 -0.0345 -0.8282
vn 0.1708 0.1036 -0.9798
vn 0.4642 0.0767 -0.8824
vn 0.0325 -0.1487 -0.9883
vn 0.3435 -0.2019 -0.9172
vn 0.9475 -0.2938 -0.1265
vn 0.7201 -0.3600 -0.5932
vn 0.9824 0.1637 -0.0898
vn 0.9645 -0.0877 -0.2492
vn 0.8969 0.1265 -0.4237
vn 0.9798 0.1036 0.1708
vn 0.9883 -0.1487 0.0325
vn 0.9059 -0.2058 0.3702
vn 0.6098 -0.1799 0.7719
vn 0.1265 -0.2938 0.9475
vn 0.5803 -0.4082 0.7047
vn 0.0994 0.1657 0.9812
vn 0.2492 -0.0877 0.9645
vn 0.6359 0.0858 0.7669
vn -0.5594 -0.0345 0.8282
vn -0.1708 0.1036 0.9798
vn -0.4642 0.0767 0.8824
vn -0.0325 -0.1487 0.9883
vn -0.3435 -0.2019 0.9172
vn -0.2918 -0.9012 -0.3205
vn -0.4920 -0.6199 -0.6113
vn -0.4948 -0.6266 -0.6021
vn 0.3205 -0.9012 -0.2918
vn 0.6113 -0.6199 -0.4920
vn 0.6021 -0.6266 -0.4948
vn 0.2918 -0.9012 0.3205
vn 0.4920 -0.6199 0.6113
vn 0.4948 -0.6266 0.6021
vn -0.3205 -0.9012 0.2918
vn -0.6113 -0.6199 0.4920
vn -0.6021 -0.6266 0.4948
vn 0.1872 0.9536 -0.2359
vn -0.2130 0.9650 0.1531
vn 0.7555 0.6257 0.1943
vn 0.2241 0.8917 0.3933
vn 0.5748 0.4874 0.6573
vn -0.9854 -0.1635 0.0464
vn -0.8227 -0.1423 0.5503
vn -0.7541 -0.3375 0.5634
vn -0.9504 0.0936 0.2965
vn -0.7868 0.2787 0.5506
vn -0.7453 -0.0627 0.6637
vn -0.9433 0.1346 -0.3033
vn -0.8636 -0.4929 -0.1059
vn -0.8553 -0.3035 -0.4200
vn -0.0464 -0.1635 -0.9854
vn -0.5503 -0.1423 -0.8227
vn -0.5634 -0.3375 -0.7541
vn -0.2965 0.0936 -0.9504
vn -0.5506 0.2787 -0.7868
vn -0.6637 -0.0627 -0.7453
vn 0.3033 0.1346 -0.9433
vn 0.1059 -0.4929 -0.8636
vn 0.4200 -0.3035 -0.8553
vn 0.9854 -0.1635 -0.0464
vn 0.8227 -0.1423 -0.5503
vn 0.7541 -0.3375 -0.5634
vn 0.9504 0.0936 -0.2965
vn 0.7868 0.2787 -0.5506
vn 0.7453 -0.0627 -0.6637
vn 0.9392 0.1373 0.3147
vn -0.7980 -0.5951 -0.0955
vn 0.8636 -0.4929 0.1059
vn 0.8651 -0.1616 0.4748
vn 0.8617 -0.3255 0.3893
vn 0.0464 -0.1635 0.9854
vn 0.5754 -0.1466 0.8046
vn 0.5269 -0.3367 0.7804
vn 0.1869 0.3443 0.9200
vn 0.2807 0.0287 0.9594
vn 0.5223 0.3698 0.7684
vn 0.6287 0.0800 0.7735
vn -0.3033 0.1346 0.9433
vn -0.1059 -0.4929 0.8636
vn -0.4200 -0.3035 0.8553
vn -0.4254 -0.9017 -0.0773
vn 0.0955 -0.5951 -0.7980
vn 0.0773 -0.9017 -0.4254
vn 0.7980 -0.5951 0.0955
vn 0.4254 -0.9017 0.0773
vn -0.0955 -0.5951 0.7980
vn -0.0773 -0.9017 0.4254
vn 0.3378 0.5983 -0.7266
vn 0.2779 0.9534 -0.1175
vn 0.6887 0.7168 -0.1092
vn -0.1093 0.9741 -0.1981
vn 0.7366 0.4111 -0.5371
vn -0.7200 0.6124 -0.3264
vn -0.1476 0.6694 -0.7281
vn -0.3264 0.6124 0.7200
vn -0.5371 0.4111 -0.7366
vn -0.0840 0.9946 0.0603
vn -0.7174 0.6831 0.1368
vn -0.7366 0.4111 0.5371
vn 0.0685 0.9913 0.1124
vn 0.5018 0.7112 0.4923
vn 0.0312 0.6628 0.7482
s off
f 66/1/1 27/2/1 26/3/1 59/4/1
f 11/5/2 6/6/2 2/7/2
f 6/6/3 63/8/3 60/9/3
f 1/10/4 7/11/4 3/12/4
f 2/13/5 8/14/5 1/10/5
f 8/14/6 9/15/6 7/11/6
f 4/16/7 20/17/7 5/18/7
f 1/10/8 3/12/8 4/16/8
f 4/16/9 10/19/9 20/17/9
f 1/20/10 4/21/10 11/5/10
f 4/21/11 5/22/11 11/5/11
f 22/23/12 17/24/12 13/25/12
f 17/24/13 64/26/13 5/22/13
f 12/27/14 18/28/14 14/29/14
f 13/30/15 19/31/15 12/27/15
f 19/31/16 20/17/16 18/28/16
f 15/32/17 31/33/17 16/34/17
f 12/27/18 14/29/18 15/32/18
f 15/32/19 21/35/19 31/33/19
f 12/36/20 15/37/20 22/23/20
f 15/37/21 16/34/21 22/23/21
f 32/38/22 28/39/22 24/40/22
f 28/39/23 67/41/23 16/34/23
f 23/42/24 29/43/24 25/44/24
f 24/45/25 30/46/25 23/42/25
f 30/46/26 31/33/26 29/43/26
f 23/42/27 25/44/27 26/3/27
f 23/47/28 26/48/28 32/38/28
f 26/48/29 61/49/29 32/38/29
f 34/50/30 61/49/30 27/51/30
f 41/52/31 37/53/31 34/50/31
f 37/53/32 65/54/32 61/49/32
f 33/55/33 38/56/33 35/57/33
f 34/58/34 39/59/34 33/55/34
f 39/59/35 27/2/35 38/56/35
f 36/60/36 9/15/36 60/61/36
f 33/55/37 35/57/37 36/60/37
f 36/60/38 40/62/38 9/15/38
f 33/63/39 36/64/39 41/52/39
f 36/64/40 60/9/40 41/52/40
f 42/65/41 44/66/41 43/67/41
f 44/66/42 64/26/42 43/67/42
f 64/26/43 17/24/43 43/67/43
f 42/65/44 46/68/44 45/69/44
f 46/68/45 67/41/45 45/69/45
f 67/41/46 28/39/46 45/69/46
f 42/65/47 48/70/47 47/71/47
f 48/70/48 65/54/48 47/71/48
f 65/54/49 37/53/49 47/71/49
f 42/65/50 50/72/50 49/73/50
f 50/72/51 63/8/51 49/73/51
f 63/8/52 6/6/52 49/73/52
f 51/74/53 56/75/53 52/76/53
f 53/77/54 58/78/54 54/79/54
f 55/80/55 59/4/55 25/44/55
f 54/79/56 62/81/56 55/80/56
f 62/81/57 66/1/57 59/4/57
f 1/20/58 11/5/58 2/7/58
f 8/82/59 2/7/59 60/9/59
f 2/7/60 6/6/60 60/9/60
f 1/10/61 8/14/61 7/11/61
f 9/15/62 40/62/62 7/11/62
f 8/14/63 60/61/63 9/15/63
f 4/16/64 3/12/64 10/19/64
f 6/6/65 11/5/65 64/26/65
f 11/5/66 5/22/66 64/26/66
f 12/36/67 22/23/67 13/25/67
f 19/83/68 13/25/68 5/22/68
f 13/25/69 17/24/69 5/22/69
f 12/27/70 19/31/70 18/28/70
f 20/17/71 10/19/71 18/28/71
f 19/31/72 5/18/72 20/17/72
f 15/32/73 14/29/73 21/35/73
f 17/24/74 22/23/74 67/41/74
f 22/23/75 16/34/75 67/41/75
f 23/47/76 32/38/76 24/40/76
f 30/84/77 24/40/77 16/34/77
f 24/40/78 28/39/78 16/34/78
f 23/42/79 30/46/79 29/43/79
f 31/33/80 21/35/80 29/43/80
f 30/46/81 16/34/81 31/33/81
f 26/3/82 25/44/82 59/4/82
f 44/66/83 49/73/83 6/6/83 64/26/83
f 28/39/84 32/38/84 65/54/84
f 26/48/85 27/51/85 61/49/85
f 32/38/86 61/49/86 65/54/86
f 33/63/87 41/52/87 34/50/87
f 39/85/88 34/50/88 27/51/88
f 34/50/89 37/53/89 61/49/89
f 38/56/90 62/81/90 35/57/90
f 33/55/91 39/59/91 38/56/91
f 38/56/92 66/1/92 62/81/92
f 38/56/93 27/2/93 66/1/93
f 36/60/94 35/57/94 40/62/94
f 37/53/95 41/52/95 63/8/95
f 41/52/96 60/9/96 63/8/96
f 42/65/97 49/73/97 44/66/97
f 46/68/98 43/67/98 17/24/98 67/41/98
f 42/65/99 43/67/99 46/68/99
f 48/70/100 45/69/100 28/39/100 65/54/100
f 42/65/101 45/69/101 48/70/101
f 50/72/102 47/71/102 37/53/102 63/8/102
f 42/65/103 47/71/103 50/72/103
f 21/35/104 14/29/104 52/76/104 56/75/104
f 51/74/105 55/80/105 56/75/105
f 29/43/106 56/75/106 55/80/106 25/44/106
f 57/86/107 53/77/107 51/74/107 52/76/107
f 56/75/108 29/43/108 21/35/108
f 10/19/109 3/12/109 53/77/109 57/86/109
f 18/28/110 57/86/110 52/76/110 14/29/110
f 40/62/111 35/57/111 54/79/111 58/78/111
f 57/86/112 18/28/112 10/19/112
f 51/74/113 53/77/113 54/79/113
f 7/11/114 58/78/114 53/77/114 3/12/114
f 58/78/115 7/11/115 40/62/115
f 51/74/116 54/79/116 55/80/116
f 55/80/117 62/81/117 59/4/117
f 54/79/118 35/57/118 62/81/118
