# Blender v2.78 (sub 0) OBJ File: 'Low_Poly_Vegetation_Pack.blend'
# www.blender.org
g Bush_g_m_04
v 0.582919 0.123200 0.394896
v -0.266282 0.216185 0.747452
v -0.454789 0.126274 -0.133743
v -0.068456 0.332582 -0.609319
v 0.526034 0.125404 -0.136866
v 0.253211 0.709364 0.626516
v -0.476344 0.606735 0.573874
v 0.151734 0.722280 -0.619298
v -0.156856 0.961620 -0.109374
v -0.002753 -0.141307 0.138845
v 0.283093 0.041357 0.626589
v 0.290440 -0.110917 0.002216
v -0.371575 -0.008170 0.159391
v -0.086959 -0.038860 -0.278701
v 0.151839 0.142560 -0.476285
v 0.678759 0.464711 0.057628
v 0.090568 0.312244 0.840892
v 0.518868 0.368344 0.623317
v -0.577554 0.362559 0.347945
v -0.348773 0.461414 -0.433448
v -0.559874 0.432001 -0.090476
v 0.341549 0.447082 -0.536117
v 0.456147 0.831195 0.282750
v -0.139947 0.692608 0.701757
v -0.546028 0.721519 -0.051290
v -0.180951 0.762891 -0.508534
v 0.476071 0.804195 -0.256185
v 0.160654 0.979827 -0.249460
v -0.082512 0.958348 0.277337
vt 0.1911 0.9163
vt 0.2062 0.9192
vt 0.2023 0.9294
vt 0.2095 0.9104
vt 0.2161 0.9022
vt 0.2191 0.9178
vt 0.1862 0.9333
vt 0.2050 0.8857
vt 0.1950 0.9050
vt 0.1879 0.8896
vt 0.2274 0.9061
vt 0.2266 0.8842
vt 0.2320 0.9318
vt 0.2437 0.9193
vt 0.2189 0.9298
vt 0.2156 0.9464
vt 0.1783 0.9077
vt 0.2409 0.8989
vt 0.1567 0.9394
vt 0.1687 0.9396
vt 0.1593 0.9533
vt 0.1456 0.9602
vt 0.1495 0.9489
vt 0.1832 0.9668
vt 0.1735 0.9737
vt 0.1729 0.9566
vt 0.1820 0.9501
vt 0.1647 0.9617
vt 0.1573 0.9737
vt 0.1982 0.9632
vt 0.1886 0.9813
vt 0.1701 0.9903
vt 0.1499 0.9868
vt 0.1356 0.9720
vt 0.1328 0.9516
vt 0.1424 0.9335
vt 0.1609 0.9245
vn 0.6834 -0.7261 -0.0761
vn -0.3430 -0.9259 -0.1580
vn -0.0095 -0.9716 -0.2365
vn 0.9276 -0.3598 -0.1007
vn -0.0317 -0.6339 0.7728
vn -0.8695 -0.4935 0.0205
vn -0.6125 -0.4104 -0.6756
vn 0.5744 -0.4871 -0.6579
vn 0.9624 -0.0017 0.2717
vn -0.9458 -0.3127 -0.0877
vn 0.8657 -0.1097 -0.4884
vn 0.2032 0.8790 0.4314
vn -0.3785 0.8067 0.4539
vn -0.0891 0.8184 -0.5677
vn 0.4041 0.7460 -0.5293
vn -0.2362 0.8755 -0.4216
vn -0.5289 0.7720 -0.3524
vn -0.5107 0.8533 0.1054
vn -0.5586 0.8025 0.2096
vn 0.0667 0.8416 0.5360
vn -0.0493 0.9986 0.0179
vn 0.2260 0.9635 0.1436
vn 0.4859 0.8736 -0.0258
vn 0.8672 0.0608 -0.4943
vn 0.6870 0.2700 -0.6746
vn -0.2968 0.1435 -0.9441
vn -0.5074 0.0685 -0.8590
vn -0.7626 0.2791 -0.5836
vn -0.9981 0.0521 -0.0320
vn -0.9550 0.2542 0.1531
vn -0.3909 0.1900 0.9006
vn -0.2917 0.1677 0.9417
vn 0.1533 0.4201 0.8945
vn 0.6537 0.5040 0.5645
vn 0.8851 0.3476 0.3094
vn 0.8562 0.5166 0.0058
vn 0.2130 -0.1451 -0.9662
vn 0.2560 -0.3374 -0.9059
vn -0.8506 0.1103 -0.5141
vn -0.8247 -0.2091 -0.5255
vn -0.8069 -0.1847 0.5611
vn -0.7295 -0.5853 0.3539
vn 0.3997 0.3033 0.8650
vn 0.4618 -0.3247 0.8254
vn 0.6210 -0.4413 0.6478
vn 0.4348 -0.7376 -0.5167
vn 0.2166 -0.8354 -0.5052
vn -0.1170 -0.6570 -0.7447
vn -0.5089 -0.5581 -0.6555
vn -0.4770 -0.8423 -0.2509
vn -0.2941 -0.8743 0.3862
vn -0.1839 -0.8803 0.4374
vn 0.2075 -0.9498 0.2341
vn 0.4118 -0.8842 0.2205
s off
f 1/1/1 12/2/1 5/3/1
f 10/4/2 13/5/2 14/6/2
f 10/4/3 14/6/3 12/2/3
f 1/1/4 5/3/4 16/7/4
f 2/8/5 11/9/5 17/10/5
f 3/11/6 13/5/6 19/12/6
f 4/13/7 3/11/7 20/14/7
f 5/3/8 15/15/8 22/16/8
f 1/1/9 16/7/9 18/17/9
f 3/11/10 19/12/10 21/18/10
f 5/3/11 22/16/11 16/7/11
f 6/19/12 23/20/12 29/21/12
f 7/22/13 24/23/13 29/21/13
f 8/24/14 26/25/14 28/26/14
f 27/27/15 8/24/15 28/26/15
f 28/26/16 26/25/16 9/28/16
f 26/25/17 25/29/17 9/28/17
f 9/28/18 25/29/18 29/21/18
f 25/29/19 7/22/19 29/21/19
f 24/23/20 6/19/20 29/21/20
f 29/21/21 28/26/21 9/28/21
f 29/21/22 23/20/22 28/26/22
f 23/20/23 27/27/23 28/26/23
f 16/7/24 22/30/24 27/27/24
f 22/30/25 8/24/25 27/27/25
f 4/31/26 26/25/26 8/24/26
f 4/31/27 20/32/27 26/25/27
f 20/32/28 25/29/28 26/25/28
f 21/33/29 19/34/29 25/29/29
f 19/34/30 7/22/30 25/29/30
f 2/35/31 24/23/31 7/22/31
f 2/35/32 17/36/32 24/23/32
f 17/36/33 6/19/33 24/23/33
f 18/37/34 23/20/34 6/19/34
f 18/37/35 16/7/35 23/20/35
f 16/7/36 27/27/36 23/20/36
f 22/30/37 4/31/37 8/24/37
f 22/16/38 15/15/38 4/13/38
f 20/32/39 21/33/39 25/29/39
f 20/14/40 3/11/40 21/18/40
f 19/34/41 2/35/41 7/22/41
f 19/12/42 13/5/42 2/8/42
f 17/36/43 18/37/43 6/19/43
f 17/10/44 11/9/44 18/17/44
f 11/9/45 1/1/45 18/17/45
f 12/2/46 15/15/46 5/3/46
f 12/2/47 14/6/47 15/15/47
f 14/6/48 4/13/48 15/15/48
f 14/6/49 3/11/49 4/13/49
f 14/6/50 13/5/50 3/11/50
f 10/4/51 2/8/51 13/5/51
f 10/4/52 11/9/52 2/8/52
f 10/4/53 12/2/53 11/9/53
f 12/2/54 1/1/54 11/9/54
