# Blender v2.78 (sub 0) OBJ File: 'Low_Poly_Vegetation_Pack.blend'
# www.blender.org
g Bush_b_l_01
v -1.535647 -0.032424 -0.004168
v -1.289804 -0.032424 0.530403
v -1.120808 -0.032424 1.114318
v -1.326584 0.400071 0.501641
v -1.505392 -0.032424 -0.347478
v -1.052414 -0.032424 -0.976304
v -1.159439 0.848353 0.431471
v -1.187930 0.626100 0.808173
v -1.424504 0.432433 -0.355676
v -1.324129 0.385299 -0.763992
v -1.248398 0.726568 -0.479818
v -0.043012 -0.032424 -1.446196
v 0.339142 -0.032424 -1.531230
v 0.668920 -0.032424 -1.503158
v 0.929563 -0.032424 -1.316540
v -0.494267 0.378290 -1.469939
v -0.399287 0.857163 -1.199432
v -0.779153 -0.032424 -1.271780
v -0.816273 0.531090 -1.207954
v 0.067591 0.482839 -1.366086
v 0.647289 0.223448 -1.408989
v 0.890888 0.278487 -1.194799
v 1.635902 -0.032424 -0.008061
v 1.563477 -0.032424 -0.341635
v 1.176276 -0.032424 -0.789459
v 1.398830 0.705925 0.074967
v 1.552829 -0.032424 0.307533
v 1.160122 -0.032424 0.787292
v 1.176327 0.730828 -0.368008
v 1.069255 0.274076 -0.892252
v 1.454000 0.428175 0.287791
v 1.259265 0.530352 0.649669
v 1.335675 0.811201 0.343722
v 0.124988 -0.032424 1.446144
v 0.728448 -0.032424 1.212818
v -0.073507 0.300080 1.520360
v 0.157582 0.475889 1.488379
v -0.147584 0.910703 1.256276
v -0.282824 -0.032424 1.420985
v -0.898881 -0.032424 1.367747
v 0.548807 0.337117 1.396726
v 0.526450 0.937643 1.080033
v -0.290636 0.439642 1.403900
v -0.061197 1.469580 -0.045035
v 0.265922 1.433383 -0.167018
v 0.091205 1.136507 -0.982669
v -0.911635 1.145639 0.184160
v 0.115330 1.393903 0.340115
v -0.594046 1.271187 0.472837
v 0.295571 1.175353 0.883989
v -0.293858 1.249967 -0.834387
v -0.535549 1.283389 -0.110257
v -0.553554 1.159901 -0.766682
v -0.635714 1.066927 0.829234
v 0.724562 1.169441 0.665074
v 0.735586 1.083779 0.834279
v -0.846046 0.628583 1.141114
v -1.017066 0.335338 -1.025666
v 1.132157 0.989065 -0.077625
v -0.959490 0.733137 -0.825352
v 0.761275 0.838738 1.010068
v 0.700354 0.940010 -0.738425
vt 0.0107 0.9312
vt 0.0155 0.9101
vt 0.0241 0.9335
vt 0.0314 0.9256
vt 0.0363 0.9343
vt 0.0369 0.9157
vt 0.0121 0.9521
vt 0.0303 0.9560
vt 0.0175 0.9631
vt 0.0359 0.9654
vt 0.0362 0.9821
vt 0.0393 0.9552
vt 0.0477 0.9613
vt 0.0442 0.9726
vt 0.0455 0.9380
vt 0.0773 0.9890
vt 0.0625 0.9769
vt 0.0768 0.9714
vt 0.0632 0.9638
vt 0.0713 0.9543
vt 0.0531 0.9709
vt 0.0499 0.9885
vt 0.0914 0.9850
vt 0.0958 0.9714
vt 0.1181 0.9300
vt 0.0937 0.9244
vt 0.1154 0.9188
vt 0.0936 0.9360
vt 0.0870 0.9303
vt 0.1032 0.9527
vt 0.0840 0.9473
vt 0.0889 0.9104
vt 0.0940 0.8944
vt 0.1098 0.9088
vt 0.0759 0.8850
vt 0.0889 0.9201
vt 0.0978 0.9166
vt 0.0664 0.8955
vt 0.0570 0.9000
vt 0.0502 0.8966
vt 0.0537 0.9122
vt 0.0677 0.9113
vt 0.0643 0.9183
vt 0.0534 0.8850
vt 0.0734 0.9100
vt 0.0401 0.8899
vt 0.0457 0.9033
vt 0.0222 0.8998
vt 0.0695 0.9378
vt 0.0633 0.9528
vt 0.0580 0.9538
vt 0.0546 0.9414
vt 0.0506 0.9309
vt 0.0467 0.9237
vt 0.0631 0.9374
vt 0.0641 0.9298
vt 0.0734 0.9201
vt 0.0729 0.9163
vt 0.1016 0.9784
vt 0.1087 0.9692
vt 0.1000 0.9626
vt 0.1141 0.9504
vn -0.9587 -0.0631 0.2775
vn -0.9192 0.3656 0.1462
vn -0.6759 0.2529 0.6922
vn -0.9818 0.1693 -0.0865
vn -0.7906 -0.2248 -0.5695
vn -0.8727 0.4119 -0.2621
vn -0.5401 0.4396 -0.7177
vn -0.7720 0.6355 -0.0096
vn 0.1592 0.1182 -0.9801
vn 0.0947 0.5011 -0.8602
vn -0.3836 0.5107 -0.7694
vn -0.6909 0.0363 -0.7221
vn -0.2130 0.1946 -0.9575
vn 0.1584 0.4953 -0.8542
vn 0.9259 0.3199 -0.2010
vn 0.7684 0.5318 -0.3561
vn 0.7834 0.3804 -0.4914
vn 0.6318 0.6244 -0.4592
vn 0.7737 0.0186 0.6333
vn 0.7011 0.0504 0.7113
vn 0.9537 0.2778 0.1153
vn 0.8843 0.2124 0.4159
vn 0.1990 -0.0839 0.9764
vn 0.1508 0.7120 0.6857
vn 0.3465 -0.2775 0.8961
vn 0.3513 0.4469 0.8227
vn 0.4205 0.4354 0.7960
vn -0.0596 -0.2512 0.9661
vn -0.2905 0.3049 0.9070
vn -0.2007 0.3480 0.9158
vn 0.4203 0.8200 -0.3885
vn -0.3609 0.9183 -0.1628
vn 0.1316 0.9221 -0.3638
vn -0.5980 0.6359 -0.4879
vn -0.3966 0.6798 -0.6169
vn -0.1292 0.8668 0.4817
vn -0.3633 0.9315 -0.0170
vn -0.3549 0.9348 -0.0160
vn 0.1540 0.9805 0.1221
vn 0.4535 0.8907 0.0326
vn -0.0842 0.9146 0.3954
vn 0.2257 0.7409 0.6326
vn -0.9074 -0.0494 0.4173
vn -0.9281 0.0749 0.3646
vn -0.9539 0.1615 -0.2531
vn -0.6518 -0.0390 -0.7574
vn -0.9414 0.3154 0.1194
vn 0.0834 0.3460 -0.9345
vn -0.6340 0.5731 -0.5192
vn -0.8979 0.4342 0.0729
vn 0.0724 0.4796 -0.8745
vn -0.2202 -0.2957 -0.9295
vn -0.6164 0.0484 -0.7859
vn -0.5103 0.6668 -0.5431
vn -0.7340 -0.0206 -0.6788
vn -0.7948 0.3608 -0.4880
vn 0.5603 0.3463 -0.7524
vn 0.4561 0.5898 -0.6664
vn 0.8258 0.2917 -0.4826
vn 0.9488 0.2561 0.1847
vn 0.8258 0.4054 -0.3920
vn 0.7557 0.0447 -0.6534
vn 0.8086 0.3517 -0.4716
vn 0.8923 0.1715 -0.4177
vn 0.6500 0.5494 -0.5250
vn 0.6652 0.5442 0.5113
vn 0.8847 0.2077 0.4174
vn 0.7473 0.6593 -0.0827
vn 0.6999 0.1368 0.7010
vn 0.6897 0.4684 0.5522
vn 0.1995 -0.0985 0.9749
vn 0.1881 0.5620 0.8055
vn -0.5407 0.8192 -0.1913
vn -0.0837 -0.2366 0.9680
vn -0.7233 0.2750 0.6334
vn -0.2007 0.4245 0.8829
vn -0.3095 0.3304 0.8916
vn -0.5296 0.3959 0.7502
vn -0.1528 0.6206 0.7691
vn -0.1293 0.8744 0.4677
vn 0.4551 0.8153 -0.3579
vn 0.0060 0.9629 -0.2697
vn -0.3421 0.9265 -0.1569
vn 0.1875 0.9206 0.3425
vn -0.0743 0.6895 -0.7205
vn -0.5343 0.5913 -0.6041
vn -0.1207 0.9621 0.2444
vn -0.5356 0.6449 0.5452
vn 0.2684 0.9510 0.1537
vn 0.5394 0.8369 0.0928
vn 0.4431 0.5528 0.7058
vn -0.5830 0.7486 0.3158
vn -0.5816 0.7261 0.3668
s off
f 2/1/1 3/2/1 4/3/1
f 4/3/2 8/4/2 7/5/2
f 3/2/3 57/6/3 8/4/3
f 1/7/4 9/8/4 5/9/4
f 10/10/5 6/11/5 5/9/5
f 9/8/6 11/12/6 10/10/6
f 60/13/7 58/14/7 10/10/7
f 7/5/8 47/15/8 11/12/8
f 12/16/9 16/17/9 20/18/9
f 20/18/10 17/19/10 46/20/10
f 16/17/11 19/21/11 17/19/11
f 58/14/12 19/21/12 18/22/12
f 12/16/13 20/18/13 13/23/13
f 20/18/14 46/20/14 21/24/14
f 24/25/15 26/26/15 23/27/15
f 29/28/16 59/29/16 26/26/16
f 30/30/17 29/28/17 24/25/17
f 29/28/18 62/31/18 59/29/18
f 32/32/19 28/33/19 27/34/19
f 32/32/20 35/35/20 28/33/20
f 26/26/21 33/36/21 31/37/21
f 31/37/22 33/36/22 32/32/22
f 41/38/23 37/39/23 36/40/23
f 38/41/24 42/42/24 50/43/24
f 35/35/25 41/38/25 34/44/25
f 41/38/26 42/42/26 37/39/26
f 61/45/27 42/42/27 41/38/27
f 34/44/28 36/40/28 39/46/28
f 36/40/29 43/47/29 40/48/29
f 38/41/30 43/47/30 37/39/30
f 45/49/31 62/31/31 46/20/31
f 51/50/32 53/51/32 52/52/32
f 46/20/33 51/50/33 45/49/33
f 53/51/34 60/13/34 11/12/34
f 51/50/35 17/19/35 53/51/35
f 49/53/36 54/54/36 50/43/36
f 52/52/37 49/53/37 44/55/37
f 47/15/38 49/53/38 52/52/38
f 44/55/39 48/56/39 45/49/39
f 55/57/40 59/29/40 45/49/40
f 50/43/41 48/56/41 49/53/41
f 50/43/42 42/42/42 56/58/42
f 2/1/43 4/3/43 1/7/43
f 4/3/44 3/2/44 8/4/44
f 9/8/45 10/10/45 5/9/45
f 10/10/46 58/14/46 6/11/46
f 1/7/47 4/3/47 9/8/47
f 21/24/48 14/59/48 13/23/48 20/18/48
f 10/10/49 11/12/49 60/13/49
f 11/12/50 9/8/50 4/3/50 7/5/50
f 20/18/51 16/17/51 17/19/51
f 12/16/52 18/22/52 16/17/52
f 16/17/53 18/22/53 19/21/53
f 19/21/54 60/13/54 17/19/54
f 18/22/55 6/11/55 58/14/55
f 58/14/56 60/13/56 19/21/56
f 15/60/57 14/59/57 21/24/57 22/61/57
f 62/31/58 22/61/58 21/24/58 46/20/58
f 22/61/59 30/30/59 15/60/59
f 27/34/60 23/27/60 26/26/60 31/37/60
f 24/25/61 29/28/61 26/26/61
f 25/62/62 30/30/62 24/25/62
f 30/30/63 22/61/63 29/28/63
f 25/62/64 15/60/64 30/30/64
f 29/28/65 22/61/65 62/31/65
f 32/32/66 33/36/66 55/57/66 56/58/66
f 31/37/67 32/32/67 27/34/67
f 26/26/68 59/29/68 33/36/68
f 32/32/69 61/45/69 41/38/69 35/35/69
f 32/32/70 56/58/70 61/45/70
f 34/44/71 41/38/71 36/40/71
f 37/39/72 42/42/72 38/41/72
f 47/15/73 52/52/73 53/51/73 11/12/73
f 36/40/74 40/48/74 39/46/74
f 40/48/75 57/6/75 3/2/75
f 36/40/76 37/39/76 43/47/76
f 40/48/77 43/47/77 57/6/77
f 38/41/78 54/54/78 43/47/78
f 43/47/79 54/54/79 57/6/79
f 50/43/80 54/54/80 38/41/80
f 45/49/81 59/29/81 62/31/81
f 44/55/82 45/49/82 51/50/82
f 44/55/83 51/50/83 52/52/83
f 55/57/84 48/56/84 50/43/84 56/58/84
f 46/20/85 17/19/85 51/50/85
f 53/51/86 17/19/86 60/13/86
f 44/55/87 49/53/87 48/56/87
f 54/54/88 8/4/88 57/6/88
f 45/49/89 48/56/89 55/57/89
f 55/57/90 33/36/90 59/29/90
f 56/58/91 42/42/91 61/45/91
f 47/15/92 7/5/92 49/53/92
f 7/5/93 8/4/93 54/54/93 49/53/93
