# Blender v2.78 (sub 0) OBJ File: 'Low_Poly_Vegetation_Pack.blend'
# www.blender.org
g Bush_a_m_06
v -0.733757 0.753558 0.052860
v -0.624232 0.378729 0.265558
v -0.657200 1.082053 -0.067602
v -0.699730 0.652368 -0.240510
v -0.540732 0.427695 -0.453714
v -0.489287 0.077684 0.157660
v -0.634939 1.070602 0.209472
v -0.644352 0.697971 0.367535
v -0.536915 0.867723 0.513854
v -0.557059 1.039245 -0.409472
v -0.604749 0.239502 -0.105767
v -0.052860 0.753558 -0.733757
v -0.265558 0.378729 -0.624232
v 0.067602 1.082053 -0.657200
v 0.240510 0.652368 -0.699730
v 0.453714 0.427695 -0.540732
v -0.157660 0.077684 -0.489287
v -0.209472 1.070602 -0.634939
v -0.367535 0.697971 -0.644352
v -0.513854 0.867723 -0.536915
v 0.409472 1.039245 -0.557059
v 0.105767 0.239502 -0.604749
v 0.733757 0.753558 -0.052860
v 0.624232 0.378729 -0.265558
v 0.657200 1.082053 0.067602
v 0.699730 0.652368 0.240510
v 0.561206 0.650990 0.492169
v 0.489287 0.077684 -0.157660
v 0.634939 1.070602 -0.209472
v 0.644352 0.697971 -0.367535
v 0.536915 0.867723 -0.513854
v 0.604749 0.239502 0.105767
v 0.052860 0.753558 0.733757
v 0.265558 0.378729 0.624232
v -0.067602 1.082053 0.657200
v -0.240510 0.652368 0.699730
v 0.157660 0.077684 0.489287
v 0.301673 0.967623 0.650708
v 0.367535 0.697971 0.644352
v -0.409472 1.039245 0.557059
v -0.105767 0.239502 0.604749
v 0.000000 -0.149134 0.000000
v -0.089141 -0.061249 -0.314245
v -0.294329 -0.053706 -0.161330
v 0.314245 -0.061249 -0.089141
v 0.161330 -0.053706 -0.294329
v 0.089141 -0.061249 0.314245
v 0.294329 -0.053706 0.161330
v -0.314245 -0.061249 0.089141
v -0.161330 -0.053706 0.294329
v 0.129517 1.251323 -0.133908
v 0.073182 1.201748 -0.499316
v -0.465223 1.217749 -0.076192
v -0.076192 1.217749 0.465223
v 0.453527 1.215754 0.170648
v 0.426575 1.179675 -0.361649
v -0.361649 1.179675 -0.426575
v -0.426575 1.179675 0.361649
v 0.568004 1.100148 0.321176
v -0.453714 0.427694 0.540732
v 0.501667 0.293294 0.405851
v 0.238908 1.142485 0.558745
v -0.258112 0.077105 0.437756
v -0.437756 0.077105 -0.258112
v 0.437756 0.077105 0.258112
v 0.513248 1.014220 0.471019
v 0.258112 0.077105 -0.437756
vt 0.7087 0.9108
vt 0.7178 0.9116
vt 0.7155 0.9208
vt 0.7064 0.9138
vt 0.6781 0.9767
vt 0.6865 0.9787
vt 0.6834 0.9870
vt 0.6958 0.9804
vt 0.6941 0.9907
vt 0.6781 0.8964
vt 0.6868 0.8999
vt 0.6830 0.9043
vt 0.6790 0.8876
vt 0.6857 0.8895
vt 0.6913 0.8926
vt 0.6715 0.9024
vt 0.6745 0.9138
vt 0.6668 0.9112
vt 0.6790 0.9107
vt 0.6720 0.9858
vt 0.6696 0.9773
vt 0.6701 0.9679
vt 0.6841 0.9519
vt 0.6821 0.9603
vt 0.6738 0.9572
vt 0.6804 0.9695
vt 0.6783 0.9270
vt 0.6819 0.9182
vt 0.6862 0.9221
vt 0.6695 0.9261
vt 0.6715 0.9194
vt 0.6843 0.9336
vt 0.6957 0.9306
vt 0.6930 0.9433
vt 0.6927 0.9261
vt 0.6750 0.9458
vt 0.6836 0.9434
vt 0.7089 0.9579
vt 0.7005 0.9559
vt 0.7036 0.9476
vt 0.6913 0.9542
vt 0.7089 0.9268
vt 0.7002 0.9232
vt 0.7040 0.9188
vt 0.7081 0.9355
vt 0.7013 0.9336
vt 0.7150 0.9488
vt 0.7174 0.9573
vt 0.7132 0.9667
vt 0.7132 0.9774
vt 0.7205 0.9667
vt 0.7029 0.9827
vt 0.7049 0.9743
vt 0.7066 0.9651
vt 0.7087 0.8962
vt 0.7081 0.9052
vt 0.7008 0.9010
vt 0.7175 0.8970
vt 0.7155 0.9038
vt 0.7027 0.8896
vt 0.6939 0.8848
vt 0.6944 0.8970
vt 0.7120 0.9888
vt 0.7035 0.9912
vt 0.6933 0.9674
vt 0.6855 0.9689
vt 0.6871 0.9630
vt 0.6919 0.9592
vt 0.6978 0.9609
vt 0.7016 0.9657
vt 0.6999 0.9716
vt 0.6951 0.9754
vt 0.6892 0.9737
vt 0.6937 0.9139
vt 0.6950 0.9211
vt 0.6893 0.9183
vt 0.6873 0.9079
vt 0.6921 0.9020
vt 0.6972 0.9053
vt 0.7003 0.9140
vt 0.7035 0.9067
vt 0.6863 0.9944
vt 0.6664 0.9601
vt 0.7007 0.9402
vt 0.7206 0.9745
vt 0.6839 0.9130
vn 0.8753 0.1604 0.4562
vn -0.8895 -0.4413 0.1188
vn -0.6568 -0.5253 0.5410
vn -0.9625 0.2566 0.0879
vn -0.9587 -0.1396 0.2477
vn -0.8859 0.1999 0.4186
vn -0.8274 -0.0551 -0.5589
vn -0.9717 0.1643 -0.1694
vn -0.8784 0.1221 -0.4621
vn -0.9717 -0.2340 -0.0320
vn -0.8893 -0.3133 -0.3331
vn -0.1188 -0.4413 -0.8895
vn -0.5410 -0.5253 -0.6568
vn -0.0879 0.2566 -0.9625
vn -0.2477 -0.1396 -0.9587
vn -0.4186 0.1999 -0.8859
vn 0.5589 -0.0551 -0.8274
vn 0.1694 0.1643 -0.9717
vn 0.4621 0.1221 -0.8784
vn 0.0320 -0.2340 -0.9717
vn 0.3331 -0.3133 -0.8893
vn 0.8895 -0.4413 -0.1188
vn 0.6568 -0.5253 -0.5410
vn 0.9625 0.2566 -0.0879
vn 0.9587 -0.1396 -0.2477
vn 0.8859 0.1999 -0.4186
vn 0.9717 0.1643 0.1694
vn 0.9717 -0.2340 0.0320
vn 0.8774 -0.3189 0.3585
vn 0.5950 -0.2808 0.7531
vn 0.1188 -0.4413 0.8895
vn 0.5170 -0.5819 0.6278
vn 0.0973 0.2596 0.9608
vn 0.2477 -0.1396 0.9587
vn 0.6323 0.1365 0.7626
vn -0.5589 -0.0551 0.8274
vn -0.1694 0.1643 0.9717
vn -0.4621 0.1221 0.8784
vn -0.0320 -0.2340 0.9717
vn -0.3331 -0.3133 0.8893
vn -0.1938 -0.9577 -0.2129
vn -0.3891 -0.7842 -0.4834
vn -0.3897 -0.7895 -0.4741
vn 0.2129 -0.9577 -0.1938
vn 0.4834 -0.7842 -0.3891
vn 0.4741 -0.7895 -0.3897
vn 0.1938 -0.9577 0.2129
vn 0.3891 -0.7842 0.4834
vn 0.3897 -0.7895 0.4741
vn -0.2129 -0.9577 0.1938
vn -0.4834 -0.7842 0.3891
vn -0.4741 -0.7895 0.3897
vn 0.1204 0.9811 -0.1517
vn -0.1360 0.9859 0.0977
vn 0.5953 0.7888 0.1531
vn 0.1497 0.9532 0.2627
vn 0.4910 0.6661 0.5614
vn -0.9655 -0.2563 0.0455
vn -0.8100 -0.2241 0.5418
vn -0.6949 -0.4976 0.5192
vn -0.9440 0.1488 0.2945
vn -0.7431 0.4212 0.5200
vn -0.7431 -0.1001 0.6617
vn -0.9303 0.2124 -0.2991
vn -0.7354 -0.6716 -0.0902
vn -0.7998 -0.4540 -0.3927
vn -0.0455 -0.2563 -0.9655
vn -0.5418 -0.2241 -0.8100
vn -0.5192 -0.4976 -0.6949
vn -0.2945 0.1488 -0.9440
vn -0.5200 0.4212 -0.7431
vn -0.6617 -0.1001 -0.7431
vn 0.2991 0.2124 -0.9303
vn 0.0902 -0.6716 -0.7354
vn 0.3927 -0.4540 -0.7998
vn 0.9655 -0.2563 -0.0455
vn 0.8100 -0.2241 -0.5418
vn 0.6949 -0.4976 -0.5192
vn 0.9440 0.1488 -0.2945
vn 0.7431 0.4212 -0.5200
vn 0.7431 -0.1001 -0.6617
vn 0.9257 0.2164 0.3102
vn -0.6404 -0.7642 -0.0767
vn 0.7354 -0.6716 0.0902
vn 0.8480 -0.2535 0.4654
vn 0.7982 -0.4825 0.3607
vn 0.0455 -0.2563 0.9655
vn 0.5660 -0.2307 0.7915
vn 0.4857 -0.4966 0.7194
vn 0.1717 0.5061 0.8452
vn 0.2805 0.0459 0.9588
vn 0.4742 0.5371 0.6976
vn 0.6256 0.1274 0.7697
vn -0.2991 0.2124 0.9303
vn -0.0902 -0.6716 0.7354
vn -0.3927 -0.4540 0.7998
vn -0.2825 -0.9579 -0.0513
vn 0.0767 -0.7642 -0.6404
vn 0.0513 -0.9579 -0.2825
vn 0.6404 -0.7642 0.0767
vn 0.2825 -0.9579 0.0513
vn -0.0767 -0.7642 0.6404
vn -0.0513 -0.9579 0.2825
vn 0.2706 0.7668 -0.5820
vn 0.1787 0.9810 -0.0755
vn 0.5131 0.8544 -0.0814
vn -0.0694 0.9896 -0.1258
vn 0.6553 0.5851 -0.4778
vn -0.5719 0.7783 -0.2592
vn -0.1132 0.8217 -0.5586
vn -0.2592 0.7783 0.5719
vn -0.4778 0.5851 -0.6553
vn -0.0527 0.9979 0.0378
vn -0.5457 0.8315 0.1041
vn -0.6553 0.5851 0.4778
vn 0.0430 0.9966 0.0706
vn 0.3752 0.8508 0.3681
vn 0.0241 0.8169 0.5763
s off
f 66/1/1 27/2/1 26/3/1 59/4/1
f 11/5/2 6/6/2 2/7/2
f 6/6/3 63/8/3 60/9/3
f 1/10/4 7/11/4 3/12/4
f 2/13/5 8/14/5 1/10/5
f 8/14/6 9/15/6 7/11/6
f 4/16/7 20/17/7 5/18/7
f 1/10/8 3/12/8 4/16/8
f 4/16/9 10/19/9 20/17/9
f 1/20/10 4/21/10 11/5/10
f 4/21/11 5/22/11 11/5/11
f 22/23/12 17/24/12 13/25/12
f 17/24/13 64/26/13 5/22/13
f 12/27/14 18/28/14 14/29/14
f 13/30/15 19/31/15 12/27/15
f 19/31/16 20/17/16 18/28/16
f 15/32/17 31/33/17 16/34/17
f 12/27/18 14/29/18 15/32/18
f 15/32/19 21/35/19 31/33/19
f 12/36/20 15/37/20 22/23/20
f 15/37/21 16/34/21 22/23/21
f 32/38/22 28/39/22 24/40/22
f 28/39/23 67/41/23 16/34/23
f 23/42/24 29/43/24 25/44/24
f 24/45/25 30/46/25 23/42/25
f 30/46/26 31/33/26 29/43/26
f 23/42/27 25/44/27 26/3/27
f 23/47/28 26/48/28 32/38/28
f 26/48/29 61/49/29 32/38/29
f 34/50/30 61/49/30 27/51/30
f 41/52/31 37/53/31 34/50/31
f 37/53/32 65/54/32 61/49/32
f 33/55/33 38/56/33 35/57/33
f 34/58/34 39/59/34 33/55/34
f 39/59/35 27/2/35 38/56/35
f 36/60/36 9/15/36 60/61/36
f 33/55/37 35/57/37 36/60/37
f 36/60/38 40/62/38 9/15/38
f 33/63/39 36/64/39 41/52/39
f 36/64/40 60/9/40 41/52/40
f 42/65/41 44/66/41 43/67/41
f 44/66/42 64/26/42 43/67/42
f 64/26/43 17/24/43 43/67/43
f 42/65/44 46/68/44 45/69/44
f 46/68/45 67/41/45 45/69/45
f 67/41/46 28/39/46 45/69/46
f 42/65/47 48/70/47 47/71/47
f 48/70/48 65/54/48 47/71/48
f 65/54/49 37/53/49 47/71/49
f 42/65/50 50/72/50 49/73/50
f 50/72/51 63/8/51 49/73/51
f 63/8/52 6/6/52 49/73/52
f 51/74/53 56/75/53 52/76/53
f 53/77/54 58/78/54 54/79/54
f 55/80/55 59/4/55 25/44/55
f 54/79/56 62/81/56 55/80/56
f 62/81/57 66/1/57 59/4/57
f 1/20/58 11/5/58 2/7/58
f 8/82/59 2/7/59 60/9/59
f 2/7/60 6/6/60 60/9/60
f 1/10/61 8/14/61 7/11/61
f 9/15/62 40/62/62 7/11/62
f 8/14/63 60/61/63 9/15/63
f 4/16/64 3/12/64 10/19/64
f 6/6/65 11/5/65 64/26/65
f 11/5/66 5/22/66 64/26/66
f 12/36/67 22/23/67 13/25/67
f 19/83/68 13/25/68 5/22/68
f 13/25/69 17/24/69 5/22/69
f 12/27/70 19/31/70 18/28/70
f 20/17/71 10/19/71 18/28/71
f 19/31/72 5/18/72 20/17/72
f 15/32/73 14/29/73 21/35/73
f 17/24/74 22/23/74 67/41/74
f 22/23/75 16/34/75 67/41/75
f 23/47/76 32/38/76 24/40/76
f 30/84/77 24/40/77 16/34/77
f 24/40/78 28/39/78 16/34/78
f 23/42/79 30/46/79 29/43/79
f 31/33/80 21/35/80 29/43/80
f 30/46/81 16/34/81 31/33/81
f 26/3/82 25/44/82 59/4/82
f 44/66/83 49/73/83 6/6/83 64/26/83
f 28/39/84 32/38/84 65/54/84
f 26/48/85 27/51/85 61/49/85
f 32/38/86 61/49/86 65/54/86
f 33/63/87 41/52/87 34/50/87
f 39/85/88 34/50/88 27/51/88
f 34/50/89 37/53/89 61/49/89
f 38/56/90 62/81/90 35/57/90
f 33/55/91 39/59/91 38/56/91
f 38/56/92 66/1/92 62/81/92
f 38/56/93 27/2/93 66/1/93
f 36/60/94 35/57/94 40/62/94
f 37/53/95 41/52/95 63/8/95
f 41/52/96 60/9/96 63/8/96
f 42/65/97 49/73/97 44/66/97
f 46/68/98 43/67/98 17/24/98 67/41/98
f 42/65/99 43/67/99 46/68/99
f 48/70/100 45/69/100 28/39/100 65/54/100
f 42/65/101 45/69/101 48/70/101
f 50/72/102 47/71/102 37/53/102 63/8/102
f 42/65/103 47/71/103 50/72/103
f 21/35/104 14/29/104 52/76/104 56/75/104
f 51/74/105 55/80/105 56/75/105
f 29/43/106 56/75/106 55/80/106 25/44/106
f 57/86/107 53/77/107 51/74/107 52/76/107
f 56/75/108 29/43/108 21/35/108
f 10/19/109 3/12/109 53/77/109 57/86/109
f 18/28/110 57/86/110 52/76/110 14/29/110
f 40/62/111 35/57/111 54/79/111 58/78/111
f 57/86/112 18/28/112 10/19/112
f 51/74/113 53/77/113 54/79/113
f 7/11/114 58/78/114 53/77/114 3/12/114
f 58/78/115 7/11/115 40/62/115
f 51/74/116 54/79/116 55/80/116
f 55/80/117 62/81/117 59/4/117
f 54/79/118 35/57/118 62/81/118
