# Blender v2.78 (sub 0) OBJ File: 'Low_Poly_Vegetation_Pack.blend'
# www.blender.org
g Bush_g_m_03
v -0.303601 0.336780 0.637743
v -0.406778 0.026329 0.005256
v -0.138622 0.033044 -0.393047
v 0.463455 0.133733 -0.165768
v -0.178830 1.308866 -0.144363
v -0.054430 -0.122921 0.129556
v 0.383014 0.053429 0.295148
v 0.216127 0.014053 -0.344017
v 0.615308 0.488054 0.014838
v 0.114003 0.266003 0.674591
v 0.406912 0.437282 0.533218
v -0.565755 0.312877 0.319605
v -0.453496 0.302800 -0.431544
v -0.653656 0.636802 -0.277544
v 0.341465 0.447103 -0.536140
v 0.079482 0.606908 -0.683878
v 0.362030 0.866379 0.416024
v -0.396702 0.801851 0.570179
v -0.630737 0.833064 0.064901
v -0.260195 0.830170 -0.558971
v 0.470164 0.873564 -0.250177
v 0.157162 1.281252 0.057729
v -0.324457 1.137232 0.215498
v 0.038136 1.111006 -0.417010
vt 0.0825 0.9071
vt 0.0940 0.9000
vt 0.0980 0.9165
vt 0.0888 0.9237
vt 0.0683 0.9142
vt 0.0772 0.9286
vt 0.0608 0.9346
vt 0.0922 0.9453
vt 0.0493 0.9071
vt 0.0940 0.8833
vt 0.1152 0.8927
vt 0.1124 0.9106
vt 0.1111 0.9342
vt 0.0320 0.9876
vt 0.0268 0.9756
vt 0.0394 0.9639
vt 0.0625 0.9765
vt 0.0495 0.9778
vt 0.0487 0.9650
vt 0.0403 0.9532
vt 0.0566 0.9519
vt 0.0302 0.9632
vt 0.0200 0.9609
vt 0.0360 0.9422
vt 0.0750 0.9646
vt 0.0473 0.9958
vt 0.0091 0.9791
vt 0.0044 0.9576
vt 0.0132 0.9375
vt 0.0321 0.9264
vt 0.0622 0.8945
vt 0.0759 0.8816
vn -0.3115 -0.9231 -0.2253
vn -0.0120 -0.9587 -0.2842
vn 0.9001 -0.4278 0.0825
vn 0.6549 -0.4567 -0.6021
vn 0.9033 -0.2653 0.3371
vn -0.9087 -0.4081 -0.0876
vn -0.2122 -0.3764 -0.9018
vn 0.8884 -0.1618 -0.4295
vn -0.7544 0.5900 -0.2877
vn -0.0185 0.4666 -0.8843
vn 0.3050 0.8696 -0.3883
vn 0.5553 0.7288 -0.4006
vn 0.5216 0.4322 -0.7356
vn -0.2831 0.6549 -0.7006
vn -0.6462 0.5594 -0.5191
vn -0.7147 0.6980 0.0437
vn -0.7394 0.5579 0.3769
vn -0.1506 0.9146 0.3753
vn 0.0083 0.7257 0.6879
vn 0.0910 0.6763 0.7310
vn 0.8339 0.5336 0.1411
vn 0.8942 0.0296 -0.4466
vn 0.6035 0.3104 -0.7345
vn -0.3894 -0.0790 -0.9177
vn -0.5882 0.0203 -0.8085
vn -0.9917 -0.0714 0.1073
vn -0.9011 0.0947 0.4232
vn -0.0651 0.1307 0.9893
vn 0.1603 0.3338 0.9289
vn 0.9024 0.1988 0.3823
vn 0.8874 0.4364 0.1487
vn 0.2163 -0.4476 -0.8677
vn 0.0950 -0.4785 -0.8729
vn -0.8782 -0.4409 -0.1852
vn -0.7680 -0.0611 0.6375
vn 0.2795 0.2801 0.9184
vn 0.5881 -0.4524 0.6704
vn -0.5692 -0.7209 -0.3954
vn -0.4780 -0.7559 0.4473
vn -0.4767 -0.7554 0.4496
vn 0.4749 -0.8772 -0.0700
vn 0.3880 -0.9206 -0.0446
vn -0.1845 -0.7722 0.6080
vn 0.1243 -0.8255 0.5506
s off
f 6/1/1 2/2/1 3/3/1
f 6/1/2 3/3/2 8/4/2
f 7/5/3 4/6/3 9/7/3
f 4/6/4 8/4/4 15/8/4
f 7/5/5 9/7/5 11/9/5
f 2/2/6 12/10/6 14/11/6
f 3/3/7 13/12/7 16/13/7
f 4/6/8 15/8/8 9/7/8
f 14/14/9 19/15/9 5/16/9
f 16/17/10 20/18/10 24/19/10
f 22/20/11 24/19/11 5/16/11
f 22/20/12 21/21/12 24/19/12
f 21/21/13 16/17/13 24/19/13
f 24/19/14 20/18/14 5/16/14
f 20/18/15 14/14/15 5/16/15
f 5/16/16 19/15/16 23/22/16
f 19/15/17 18/23/17 23/22/17
f 23/22/18 22/20/18 5/16/18
f 23/22/19 18/23/19 22/20/19
f 18/23/20 17/24/20 22/20/20
f 17/24/21 21/21/21 22/20/21
f 9/7/22 15/25/22 21/21/22
f 15/25/23 16/17/23 21/21/23
f 16/17/24 13/26/24 20/18/24
f 13/26/25 14/14/25 20/18/25
f 14/14/26 12/27/26 19/15/26
f 12/27/27 18/23/27 19/15/27
f 1/28/28 10/29/28 18/23/28
f 10/29/29 17/24/29 18/23/29
f 11/30/30 9/7/30 17/24/30
f 9/7/31 21/21/31 17/24/31
f 15/8/32 8/4/32 16/13/32
f 8/4/33 3/3/33 16/13/33
f 13/12/34 2/2/34 14/11/34
f 12/27/35 1/28/35 18/23/35
f 10/29/36 11/30/36 17/24/36
f 10/31/37 7/5/37 11/9/37
f 3/3/38 2/2/38 13/12/38
f 2/2/39 6/1/39 12/10/39
f 6/1/40 1/32/40 12/10/40
f 4/6/41 7/5/41 8/4/41
f 7/5/42 6/1/42 8/4/42
f 6/1/43 10/31/43 1/32/43
f 6/1/44 7/5/44 10/31/44
