# Blender v2.78 (sub 0) OBJ File: 'Low_Poly_Vegetation_Pack.blend'
# www.blender.org
g Bush_h_m_04
v 0.146534 0.480968 0.530539
v -0.468188 0.498399 0.327244
v -0.465044 0.492858 -0.320418
v 0.151621 0.472004 -0.517411
v 0.529602 0.464651 0.008512
v 0.000000 1.057685 0.000000
v 0.585852 -0.023808 0.190352
v 0.585852 -0.023808 -0.190352
v 0.000000 -0.023808 0.616000
v 0.362076 -0.023808 0.498354
v -0.585852 -0.023808 0.190352
v -0.362076 -0.023808 0.498354
v -0.362076 -0.023808 -0.498354
v -0.585852 -0.023808 -0.190352
v 0.362076 -0.023808 -0.498354
v 0.000000 -0.023808 -0.616000
v 0.403003 0.553895 0.316424
v -0.183513 0.575125 0.503529
v -0.542807 0.581669 0.003214
v -0.178354 0.564488 -0.493104
v 0.406191 0.547321 -0.299530
v 0.122301 0.913292 0.306991
v 0.340366 0.933974 -0.004392
v -0.239720 0.877016 0.194898
v -0.245401 0.875281 -0.185758
v 0.113109 0.910485 -0.308928
vt 0.4187 0.9438
vt 0.4211 0.9312
vt 0.4322 0.9383
vt 0.4393 0.9577
vt 0.4287 0.9515
vt 0.4387 0.9438
vt 0.4591 0.9436
vt 0.4496 0.9513
vt 0.4460 0.9387
vt 0.4523 0.9191
vt 0.4567 0.9313
vt 0.4430 0.9307
vt 0.4259 0.9188
vt 0.4391 0.9177
vt 0.4350 0.9309
vt 0.4390 0.9365
vt 0.4227 0.8843
vt 0.4557 0.8844
vt 0.4835 0.9052
vt 0.4931 0.9364
vt 0.4821 0.9688
vt 0.4559 0.9875
vt 0.4219 0.9875
vt 0.3957 0.9686
vt 0.3847 0.9361
vt 0.3946 0.9048
vn 0.5094 0.4176 0.7524
vn -0.5419 0.5493 0.6360
vn -0.7611 0.5552 -0.3353
vn 0.0550 0.4327 -0.8999
vn 0.8970 0.3544 -0.2642
vn 0.3214 0.8952 -0.3089
vn 0.6639 0.5219 -0.5357
vn 0.5234 0.4029 -0.7508
vn -0.2502 0.8353 -0.4896
vn -0.3060 0.6352 -0.7091
vn -0.5298 0.5358 -0.6574
vn -0.5991 0.8006 0.0053
vn -0.7002 0.7139 0.0072
vn -0.7573 0.5690 0.3206
vn -0.2355 0.8399 0.4889
vn -0.2818 0.6597 0.6967
vn 0.0591 0.4611 0.8854
vn 0.3301 0.8980 0.2908
vn 0.6728 0.5388 0.5070
vn 0.8929 0.3672 0.2607
vn 0.9229 0.2315 -0.3076
vn 0.8010 0.1407 -0.5819
vn 0.5950 0.2229 -0.7722
vn -0.0162 0.1998 -0.9797
vn -0.3073 0.1044 -0.9459
vn -0.5398 0.1759 -0.8232
vn -0.9503 0.1541 -0.2706
vn -0.9975 0.0709 0.0000
vn -0.9549 0.1476 0.2578
vn -0.5502 0.1569 0.8202
vn -0.3079 0.0836 0.9477
vn -0.0305 0.1754 0.9840
vn 0.5927 0.2034 0.7793
vn 0.8025 0.1268 0.5830
vn 0.9226 0.2234 0.3146
vn 0.3076 0.0942 -0.9468
vn -0.8083 0.0412 -0.5873
vn -0.8087 0.0282 0.5875
vn 0.3082 0.0711 0.9486
vn 0.9934 0.1144 0.0000
s off
f 1/1/1 17/2/1 22/3/1
f 2/4/2 18/5/2 24/6/2
f 3/7/3 19/8/3 25/9/3
f 4/10/4 20/11/4 26/12/4
f 5/13/5 21/14/5 23/15/5
f 23/15/6 26/12/6 6/16/6
f 23/15/7 21/14/7 26/12/7
f 21/14/8 4/10/8 26/12/8
f 26/12/9 25/9/9 6/16/9
f 26/12/10 20/11/10 25/9/10
f 20/11/11 3/7/11 25/9/11
f 25/9/12 24/6/12 6/16/12
f 25/9/13 19/8/13 24/6/13
f 19/8/14 2/4/14 24/6/14
f 24/6/15 22/3/15 6/16/15
f 24/6/16 18/5/16 22/3/16
f 18/5/17 1/1/17 22/3/17
f 22/3/18 23/15/18 6/16/18
f 22/3/19 17/2/19 23/15/19
f 17/2/20 5/13/20 23/15/20
f 8/17/21 21/14/21 5/13/21
f 8/17/22 15/18/22 21/14/22
f 15/18/23 4/10/23 21/14/23
f 16/19/24 20/11/24 4/10/24
f 16/19/25 13/20/25 20/11/25
f 13/20/26 3/7/26 20/11/26
f 14/21/27 19/8/27 3/7/27
f 14/21/28 11/22/28 19/8/28
f 11/22/29 2/4/29 19/8/29
f 12/23/30 18/5/30 2/4/30
f 12/23/31 9/24/31 18/5/31
f 9/24/32 1/1/32 18/5/32
f 10/25/33 17/2/33 1/1/33
f 10/25/34 7/26/34 17/2/34
f 7/26/35 5/13/35 17/2/35
f 15/18/36 16/19/36 4/10/36
f 13/20/37 14/21/37 3/7/37
f 11/22/38 12/23/38 2/4/38
f 9/24/39 10/25/39 1/1/39
f 7/26/40 8/17/40 5/13/40
