# Blender v2.78 (sub 0) OBJ File: 'Low_Poly_Vegetation_Pack.blend'
# www.blender.org
g Bush_b_l_04
v -1.506411 -0.030631 -0.034182
v -1.225598 -0.039142 0.482777
v -1.103981 -0.026756 1.095908
v -1.298830 0.442378 0.275279
v -1.517746 -0.028212 -0.417711
v -0.977548 -0.034889 -0.987089
v -1.195649 0.707283 0.723246
v -1.268934 0.472145 0.617739
v -1.201218 0.376088 -0.910229
v -1.362551 0.550540 -0.519165
v -1.215810 0.788622 -0.497450
v 0.068420 -0.031755 -1.482321
v -0.507763 -0.031538 -1.401593
v -0.780919 -0.037755 -1.253518
v 0.200377 0.600212 -1.342749
v 0.468337 -0.029500 -1.605958
v 0.758037 -0.031538 -1.563019
v 1.068568 -0.034486 -1.310011
v -0.439678 0.276538 -1.526458
v -0.372720 0.530547 -1.506361
v -0.325892 0.942017 -1.239367
v -0.779051 0.584647 -1.252619
v 0.725228 0.333455 -1.438812
v 1.040277 0.346481 -1.159399
v 0.582644 0.823812 -0.981744
v 1.751774 -0.031538 -0.026553
v 1.630094 -0.034235 -0.405410
v 1.175538 -0.031538 -0.773377
v 1.553061 0.556417 -0.054271
v 1.414229 0.849612 -0.140944
v 1.655424 -0.032581 0.310551
v 1.156017 -0.031538 0.731424
v 1.521396 0.228610 -0.465413
v 1.107091 0.391597 -0.711338
v 1.572507 0.225021 0.347540
v 1.510718 0.763172 0.274678
v 1.340806 0.615343 0.693155
v 0.055727 -0.031765 1.448236
v 0.458038 -0.030941 1.344178
v 0.856743 -0.035802 0.845645
v 0.215499 0.413338 1.558491
v -0.021643 0.772691 1.379868
v 0.490070 0.260645 1.431359
v 0.764219 0.723318 1.120027
v -0.194430 0.380915 1.487092
v -0.835318 -0.031480 1.379554
v -0.462585 0.780132 1.148973
v 0.076677 1.547092 0.087137
v 0.343470 1.504778 -0.203450
v 0.205526 1.192735 -1.035634
v -0.369280 1.420943 -0.025113
v -0.834440 1.249804 0.353370
v 0.634314 1.290338 0.771742
v -0.580557 1.150174 0.812822
v 0.668955 1.341237 0.031386
v 0.719582 1.219129 -0.287569
v -0.234169 1.324159 -0.869786
v -0.701556 1.091518 -0.258214
v -0.565849 1.197469 -0.745366
v -0.535857 1.348733 0.455121
v -0.950009 0.708738 1.000783
v -1.017954 1.028039 0.047957
v -0.966882 0.372024 -1.066258
v 0.717178 0.864284 -0.641413
v 1.067828 0.978787 -0.393193
v 1.299106 1.044925 0.102758
v 0.933514 1.158813 0.662375
v 0.540790 1.138762 1.023964
v -0.892757 0.722657 -0.931818
v 0.942275 0.830918 0.958127
vt 0.1620 0.9052
vt 0.1782 0.9055
vt 0.1714 0.9197
vt 0.1625 0.8882
vt 0.1713 0.9018
vt 0.1798 0.9196
vt 0.1817 0.8827
vt 0.1868 0.9036
vt 0.1463 0.9003
vt 0.1542 0.9223
vt 0.1389 0.9129
vt 0.1473 0.9316
vt 0.1574 0.9370
vt 0.1466 0.9392
vt 0.1604 0.9261
vt 0.1690 0.9384
vt 0.1692 0.9646
vt 0.1653 0.9489
vt 0.1770 0.9524
vt 0.1391 0.9598
vt 0.1357 0.9500
vt 0.1493 0.9580
vt 0.1570 0.9550
vt 0.1537 0.9450
vt 0.1616 0.9840
vt 0.1753 0.9763
vt 0.1718 0.9879
vt 0.1504 0.9749
vt 0.1812 0.9640
vt 0.1870 0.9781
vt 0.2224 0.9431
vt 0.2161 0.9321
vt 0.2416 0.9315
vt 0.2079 0.9566
vt 0.2065 0.9487
vt 0.2150 0.9507
vt 0.2093 0.9366
vt 0.2171 0.9251
vt 0.2066 0.9254
vt 0.2149 0.9082
vt 0.2332 0.9063
vt 0.2248 0.9114
vt 0.2229 0.8940
vt 0.2069 0.8998
vt 0.1943 0.8824
vt 0.1977 0.9068
vt 0.2047 0.9129
vt 0.1891 0.9417
vt 0.1944 0.9512
vt 0.1903 0.9612
vt 0.1993 0.9576
vt 0.1809 0.9317
vt 0.1719 0.9294
vt 0.1742 0.9437
vt 0.1855 0.9231
vt 0.2040 0.9323
vt 0.1891 0.9347
vt 0.1889 0.9156
vt 0.1993 0.9432
vt 0.1342 0.9381
vt 0.1847 0.9898
vt 0.2145 0.9605
vt 0.2295 0.9718
vt 0.2192 0.9805
vt 0.2117 0.9735
vt 0.1988 0.9754
vt 0.2018 0.9883
vt 0.2359 0.9619
vt 0.2275 0.9561
vt 0.2417 0.9420
vn -0.9068 0.4197 -0.0393
vn -0.9894 -0.1092 0.0959
vn -0.8101 0.5828 0.0636
vn -0.9715 -0.1339 0.1954
vn -0.7283 0.2357 0.6434
vn -0.9641 0.2638 0.0302
vn -0.8851 0.1608 -0.4368
vn -0.5031 0.4001 -0.7660
vn -0.5871 0.6122 -0.5296
vn 0.1229 0.4558 -0.8815
vn -0.4577 -0.2452 -0.8546
vn -0.3969 0.5310 -0.7487
vn -0.7061 0.0031 -0.7081
vn 0.1407 0.3303 -0.9333
vn -0.2863 0.2632 -0.9213
vn 0.2310 0.6985 -0.6773
vn 0.4772 0.6694 -0.5693
vn 0.4975 0.3958 -0.7719
vn 0.4853 -0.1595 0.8597
vn 0.8179 0.5709 -0.0712
vn 0.6499 0.5185 0.5556
vn 0.4159 0.4112 0.8111
vn 0.7522 -0.2633 0.6041
vn 0.8183 -0.1046 0.5652
vn -0.0761 -0.1391 0.9873
vn -0.4049 0.4171 0.8137
vn -0.1873 0.3353 0.9233
vn -0.4184 0.4068 0.8121
vn 0.5060 0.7767 -0.3751
vn 0.8471 0.3723 -0.3791
vn 0.2621 0.6805 -0.6842
vn -0.5449 0.7754 -0.3191
vn -0.4706 0.8240 -0.3155
vn -0.4061 0.8983 -0.1679
vn -0.6910 0.7220 -0.0354
vn 0.1363 0.9200 -0.3676
vn -0.4712 0.6690 -0.5748
vn -0.0607 0.9173 0.3935
vn -0.1355 0.6422 0.7545
vn -0.3236 0.9457 0.0300
vn -0.5620 0.6876 0.4597
vn 0.2856 0.9503 0.1238
vn 0.4158 0.9053 0.0874
vn 0.4260 0.9010 0.0819
vn -0.8681 0.4812 0.1223
vn -0.8759 0.0723 0.4770
vn -0.9603 0.2723 0.0602
vn -0.9054 0.0968 0.4133
vn -0.7024 -0.2582 -0.6633
vn -0.5501 -0.1456 -0.8223
vn -0.9356 0.3319 0.1202
vn -0.6639 0.5171 -0.5402
vn 0.2140 0.1265 -0.9686
vn -0.5899 0.0656 -0.8048
vn 0.1749 0.5218 -0.8349
vn -0.1302 -0.3476 -0.9286
vn 0.6117 0.3171 -0.7247
vn -0.5321 0.6928 -0.4867
vn -0.8015 -0.0939 -0.5905
vn -0.8283 0.3445 -0.4418
vn 0.9066 0.2966 -0.3001
vn 0.0344 0.3979 -0.9168
vn 0.6175 0.7145 -0.3291
vn 0.7108 0.3098 -0.6315
vn 0.5422 0.7618 -0.3544
vn 0.5657 0.6229 -0.5403
vn 0.5896 0.1546 -0.7928
vn 0.9700 0.1641 -0.1792
vn 0.4105 0.4555 -0.7900
vn 0.9233 0.3050 0.2333
vn 0.7465 0.6418 -0.1759
vn 0.7012 -0.0780 0.7087
vn 0.6851 0.6112 0.3963
vn 0.3568 -0.0467 0.9330
vn 0.9913 0.1208 0.0517
vn 0.8938 0.1594 0.4192
vn 0.9104 0.3928 -0.1297
vn 0.2443 -0.3099 0.9189
vn 0.4516 0.8422 -0.2947
vn 0.1793 0.5302 0.8287
vn 0.5165 0.2459 0.8202
vn 0.4545 0.4254 0.7826
vn 0.7150 -0.1589 0.6808
vn -0.1544 -0.1850 0.9705
vn -0.7039 0.2341 0.6706
vn -0.3197 0.3919 0.8627
vn -0.2400 0.8407 0.4854
vn -0.3134 0.5818 0.7505
vn 0.5590 0.8001 -0.2176
vn 0.6511 0.5971 -0.4685
vn -0.1581 0.9718 -0.1750
vn -0.4762 0.8753 -0.0845
vn 0.5262 0.5980 0.6046
vn -0.0584 0.7012 -0.7105
vn -0.5478 0.6043 -0.5786
vn -0.2826 0.9581 0.0460
vn -0.0849 0.8756 0.4754
vn -0.4087 0.8187 0.4034
vn -0.5557 0.6729 0.4883
vn 0.3999 0.9129 0.0815
vn -0.0835 0.8675 0.4904
s off
f 4/1/1 7/2/1 62/3/1
f 2/4/2 8/5/2 4/1/2
f 7/2/3 52/6/3 62/3/3
f 3/7/4 8/5/4 2/4/4
f 3/7/5 61/8/5 7/2/5
f 1/9/6 10/10/6 5/11/6
f 10/10/7 9/12/7 5/11/7
f 69/13/8 63/14/8 9/12/8
f 11/15/9 59/16/9 69/13/9
f 15/17/10 21/18/10 50/19/10
f 13/20/11 14/21/11 19/22/11
f 20/23/12 22/24/12 21/18/12
f 63/14/13 22/24/13 14/21/13
f 16/25/14 23/26/14 17/27/14
f 12/28/15 15/17/15 16/25/15
f 15/17/16 25/29/16 23/26/16
f 23/26/17 25/29/17 24/30/17
f 50/19/18 25/29/18 15/17/18
f 37/31/19 70/32/19 40/33/19
f 30/34/20 66/35/20 36/36/20
f 67/37/21 70/32/21 37/31/21
f 44/38/22 68/39/22 41/40/22
f 39/41/23 40/33/23 43/42/23
f 40/33/24 44/38/24 43/42/24
f 38/43/25 45/44/25 46/45/25
f 45/44/26 47/46/26 46/45/26
f 42/47/27 45/44/27 41/40/27
f 42/47/28 47/46/28 45/44/28
f 49/48/29 56/49/29 50/19/29
f 56/49/30 64/50/30 25/29/30
f 56/49/31 65/51/31 64/50/31
f 51/52/32 58/53/32 52/6/32
f 58/53/33 62/3/33 52/6/33
f 57/54/34 59/16/34 51/52/34
f 51/52/35 59/16/35 58/53/35
f 50/19/36 57/54/36 49/48/36
f 57/54/37 21/18/37 59/16/37
f 60/55/38 53/56/38 48/57/38
f 54/58/39 47/46/39 68/39/39
f 52/6/40 60/55/40 51/52/40
f 52/6/41 7/2/41 54/58/41
f 48/57/42 53/56/42 49/48/42
f 67/37/43 66/35/43 55/59/43
f 53/56/44 67/37/44 55/59/44
f 11/15/45 10/10/45 4/1/45 62/3/45
f 2/4/46 4/1/46 1/9/46
f 4/1/47 8/5/47 7/2/47
f 8/5/48 3/7/48 7/2/48
f 5/11/49 9/12/49 6/60/49
f 6/60/50 9/12/50 63/14/50
f 1/9/51 4/1/51 10/10/51
f 69/13/52 9/12/52 10/10/52 11/15/52
f 20/23/53 15/17/53 12/28/53 19/22/53
f 22/24/54 20/23/54 19/22/54 14/21/54
f 15/17/55 20/23/55 21/18/55
f 12/28/56 13/20/56 19/22/56
f 18/61/57 17/27/57 23/26/57 24/30/57
f 22/24/58 69/13/58 21/18/58
f 14/21/59 6/60/59 63/14/59
f 63/14/60 69/13/60 22/24/60
f 29/62/61 26/63/61 27/64/61 33/65/61
f 16/25/62 15/17/62 23/26/62
f 25/29/63 64/50/63 24/30/63
f 30/34/64 29/62/64 34/66/64 65/51/64
f 30/34/65 65/51/65 66/35/65
f 33/65/66 34/66/66 29/62/66
f 33/65/67 27/64/67 28/67/67 34/66/67
f 24/30/68 34/66/68 28/67/68 18/61/68
f 34/66/69 64/50/69 65/51/69
f 31/68/70 26/63/70 29/62/70 35/69/70
f 34/66/71 24/30/71 64/50/71
f 32/70/72 31/68/72 35/69/72 37/31/72
f 37/31/73 36/36/73 66/35/73 67/37/73
f 32/70/74 37/31/74 40/33/74
f 29/62/75 36/36/75 35/69/75
f 35/69/76 36/36/76 37/31/76
f 29/62/77 30/34/77 36/36/77
f 41/40/78 38/43/78 39/41/78 43/42/78
f 65/51/79 56/49/79 55/59/79 66/35/79
f 41/40/80 68/39/80 42/47/80
f 43/42/81 44/38/81 41/40/81
f 44/38/82 70/32/82 68/39/82
f 40/33/83 70/32/83 44/38/83
f 38/43/84 41/40/84 45/44/84
f 46/45/85 61/8/85 3/7/85
f 46/45/86 47/46/86 61/8/86
f 68/39/87 47/46/87 42/47/87
f 47/46/88 54/58/88 61/8/88
f 49/48/89 55/59/89 56/49/89
f 50/19/90 56/49/90 25/29/90
f 57/54/91 51/52/91 48/57/91 49/48/91
f 62/3/92 58/53/92 59/16/92 11/15/92
f 70/32/93 67/37/93 53/56/93 68/39/93
f 50/19/94 21/18/94 57/54/94
f 59/16/95 21/18/95 69/13/95
f 51/52/96 60/55/96 48/57/96
f 53/56/97 60/55/97 54/58/97
f 60/55/98 52/6/98 54/58/98
f 54/58/99 7/2/99 61/8/99
f 49/48/100 53/56/100 55/59/100
f 54/58/101 68/39/101 53/56/101
