# Blender v2.78 (sub 0) OBJ File: 'Low_Poly_Vegetation_Pack.blend'
# www.blender.org
g Bush_b_l_03
v -1.049263 -0.037739 0.096158
v -1.083204 -0.040774 0.628495
v -1.031831 0.327176 -0.045646
v -1.206538 -0.040264 -0.747398
v -1.026970 0.389506 -0.655330
v -0.231019 -0.036652 -1.407325
v -0.598792 -0.037423 -1.445524
v -0.879786 -0.039662 -1.354186
v 0.532653 -0.036738 -1.028052
v -0.358784 0.444232 -1.193864
v -0.839397 0.400041 -1.044239
v 0.241532 0.226053 -1.109145
v 0.870132 0.168412 -1.049537
v 1.206150 -0.039491 0.041439
v 1.250156 -0.048368 -0.270649
v 1.184501 -0.038070 -0.552055
v 1.062944 -0.038070 -0.768111
v 1.314008 0.366932 -0.246313
v 1.140975 0.724964 -0.123240
v 1.252739 -0.042007 0.704262
v 1.224251 0.089525 -0.715527
v 1.187264 0.451963 -0.773287
v 1.084876 0.463013 0.298734
v -0.216346 -0.036764 1.381006
v 0.249209 -0.031443 1.229712
v 0.754604 -0.039902 1.201799
v -0.217372 0.359764 1.288960
v -0.619245 -0.040255 1.314047
v -0.855398 -0.040055 1.167483
v 0.612946 0.406517 1.021434
v -0.791246 0.723406 0.804093
v -0.449049 0.762424 1.000886
v -0.158912 1.277098 -0.242975
v -0.072798 1.033162 -0.688965
v -0.433387 1.132091 -0.413078
v -0.002980 1.227253 0.224147
v 0.280384 1.230538 -0.211517
v 0.682301 1.015328 -0.187911
v 0.379567 0.956127 -0.678375
v 0.828250 0.835831 -0.723303
v -0.442592 0.747383 -0.768928
v -0.758315 1.005976 0.345401
v -0.482283 1.033039 0.685412
v 0.425511 1.087289 0.326385
v 0.413832 0.648790 0.847049
v -1.018858 -0.037111 0.948066
v -0.997273 0.657538 0.519657
v -1.028791 0.653656 0.173430
v -0.747947 0.753260 -0.421362
v -1.080204 -0.039589 -1.147210
v 0.170753 0.582592 -0.985005
v 0.672937 0.622867 -0.998183
v 0.881390 -0.038070 -0.920974
v 1.022294 0.820254 -0.475785
v 0.689387 0.770173 0.447815
v 1.077892 -0.039857 1.013733
v -0.069736 0.949506 0.855114
v 0.963109 0.407131 0.782382
vt 0.0236 0.8966
vt 0.0458 0.8846
vt 0.0443 0.9165
vt 0.0609 0.9091
vt 0.0528 0.9104
vt 0.0308 0.9123
vt 0.0073 0.9271
vt 0.0257 0.9311
vt 0.0386 0.9306
vt 0.0192 0.9736
vt 0.0323 0.9556
vt 0.0424 0.9596
vt 0.0386 0.9439
vt 0.0065 0.9415
vt 0.0265 0.9432
vt 0.0081 0.9516
vt 0.0623 0.9811
vt 0.0659 0.9926
vt 0.0498 0.9909
vt 0.0441 0.9750
vt 0.0593 0.9665
vt 0.0960 0.9820
vt 0.0862 0.9649
vt 0.1028 0.9705
vt 0.0737 0.9699
vt 0.0811 0.9560
vt 0.0761 0.9910
vt 0.0784 0.9801
vt 0.0861 0.9875
vt 0.0662 0.9604
vt 0.0731 0.9587
vt 0.0930 0.9511
vt 0.1165 0.9462
vt 0.0976 0.9376
vt 0.1170 0.9332
vt 0.0840 0.9397
vt 0.1063 0.9033
vt 0.0813 0.9057
vt 0.0917 0.8901
vt 0.0881 0.9269
vt 0.0737 0.9218
vt 0.0962 0.9255
vt 0.0783 0.8841
vt 0.0678 0.8821
vt 0.0576 0.8821
vt 0.0695 0.9138
vt 0.0597 0.9532
vt 0.0511 0.9475
vt 0.0705 0.9494
vt 0.0495 0.9368
vt 0.0560 0.9211
vt 0.0644 0.9197
vt 0.0655 0.9330
vt 0.0580 0.9374
vt 0.0738 0.9370
vt 0.0643 0.9431
vt 0.0116 0.9617
vt 0.1145 0.9202
vn -0.9973 0.0366 -0.0634
vn -0.8157 0.1858 0.5478
vn -0.9763 0.1172 0.1817
vn -0.9246 0.3796 0.0314
vn -0.8086 0.5859 0.0535
vn 0.2257 0.4447 -0.8668
vn 0.0152 0.8154 -0.5787
vn -0.6277 0.4862 -0.6080
vn 0.2522 -0.5015 -0.8276
vn 0.3407 0.3688 -0.8648
vn 0.1075 0.1576 -0.9816
vn 0.9770 -0.1586 0.1423
vn 0.8733 0.4683 -0.1345
vn 0.6479 -0.6689 -0.3645
vn 0.6231 0.6411 -0.4481
vn 0.6798 -0.0473 -0.7319
vn 0.4813 0.5401 -0.6904
vn 0.9616 0.2662 -0.0666
vn 0.7870 0.4307 0.4417
vn 0.8918 0.3216 0.3182
vn 0.6507 0.7181 0.2468
vn 0.2995 0.2165 0.9292
vn 0.3276 0.5053 0.7984
vn 0.3865 0.7266 0.5681
vn -0.4808 0.4094 0.7753
vn -0.7541 0.3329 0.5662
vn -0.4901 0.4050 0.7719
vn 0.1191 0.5894 -0.7990
vn 0.1344 0.7451 -0.6532
vn 0.3446 0.9144 -0.2126
vn -0.7488 0.6265 -0.2166
vn -0.7157 0.6604 -0.2273
vn -0.6300 0.5354 -0.5625
vn -0.4343 0.8094 -0.3952
vn 0.0188 0.9144 0.4045
vn -0.2798 0.9480 0.1517
vn -0.5663 0.7193 0.4025
vn -0.4286 0.6630 0.6138
vn -0.6837 0.6422 0.3465
vn 0.4643 0.8790 0.1088
vn 0.6076 0.6693 0.4275
vn 0.5213 0.6469 0.5565
vn 0.3965 0.7657 0.5065
vn -0.9988 0.0336 -0.0363
vn -0.9869 0.1352 0.0883
vn -0.9316 0.3136 0.1840
vn -0.8225 0.4697 -0.3207
vn -0.2807 0.5604 -0.7792
vn -0.8891 0.2607 -0.3762
vn -0.6556 0.6941 -0.2974
vn 0.0927 0.4244 -0.9007
vn 0.9856 -0.0411 -0.1642
vn -0.2552 0.7626 -0.5944
vn 0.4348 0.2115 -0.8754
vn 0.0720 -0.2204 -0.9728
vn -0.0505 0.3195 -0.9463
vn 0.8231 -0.5272 -0.2113
vn 0.5763 -0.4185 -0.7019
vn 0.8511 0.5029 -0.1506
vn 0.4704 0.4771 0.7424
vn 0.4635 0.2955 -0.8354
vn 0.9232 0.0265 0.3834
vn 0.8306 0.4894 0.2657
vn 0.6460 0.6071 0.4628
vn 0.4143 0.3680 0.8324
vn 0.0573 0.3896 0.9192
vn -0.1258 0.5094 0.8513
vn 0.1430 0.8728 -0.4666
vn -0.1617 0.2227 0.9614
vn -0.3493 0.4039 0.8455
vn 0.0198 0.5892 0.8077
vn 0.1891 0.9733 0.1303
vn 0.4542 0.8068 -0.3778
vn -0.0724 0.6567 -0.7507
vn 0.2267 0.9404 -0.2535
vn 0.5291 0.8471 0.0508
vn -0.1448 0.8561 -0.4962
vn -0.3476 0.6412 -0.6842
vn -0.1776 0.4715 -0.8638
vn -0.2197 0.9596 0.1757
vn -0.4460 0.8940 -0.0424
vn -0.1175 0.7476 0.6537
vn -0.8069 0.5868 0.0669
vn 0.5156 0.8455 0.1391
vn 0.1925 0.8905 0.4123
vn 0.4350 0.6839 0.5857
s off
f 1/1/1 2/2/1 48/3/1
f 2/2/2 31/4/2 47/5/2
f 1/1/3 3/6/3 4/7/3
f 3/6/4 5/8/4 4/7/4
f 3/6/5 49/9/5 5/8/5
f 6/10/6 10/11/6 51/12/6
f 10/11/7 41/13/7 51/12/7
f 50/14/8 11/15/8 8/16/8
f 13/17/9 53/18/9 9/19/9
f 51/12/10 12/20/10 6/10/10
f 12/20/11 52/21/11 13/17/11
f 15/22/12 18/23/12 14/24/12
f 18/23/13 22/25/13 19/26/13
f 17/27/14 21/28/14 16/29/14
f 22/25/15 40/30/15 54/31/15
f 13/17/16 22/25/16 21/28/16
f 22/25/17 52/21/17 40/30/17
f 14/24/18 23/32/18 20/33/18
f 20/33/19 58/34/19 56/35/19
f 19/26/20 23/32/20 18/23/20
f 23/32/21 55/36/21 58/34/21
f 25/37/22 27/38/22 24/39/22
f 45/40/23 57/41/23 27/38/23
f 30/42/24 58/34/24 45/40/24
f 28/43/25 31/4/25 29/44/25
f 31/4/26 46/45/26 29/44/26
f 32/46/27 31/4/27 28/43/27
f 39/47/28 51/12/28 34/48/28
f 40/30/29 52/21/29 39/47/29
f 54/31/30 40/30/30 38/49/30
f 35/50/31 49/9/31 42/51/31
f 42/51/32 49/9/32 48/3/32
f 35/50/33 41/13/33 49/9/33
f 41/13/34 11/15/34 49/9/34
f 43/52/35 57/41/35 36/53/35
f 42/51/36 43/52/36 33/54/36
f 42/51/37 31/4/37 43/52/37
f 43/52/38 31/4/38 32/46/38
f 42/51/39 47/5/39 31/4/39
f 44/55/40 38/49/40 37/56/40
f 44/55/41 55/36/41 19/26/41
f 44/55/42 45/40/42 55/36/42
f 45/40/43 58/34/43 55/36/43
f 3/6/44 1/1/44 48/3/44
f 48/3/45 2/2/45 47/5/45
f 2/2/46 46/45/46 31/4/46
f 11/15/47 50/14/47 4/7/47 5/8/47
f 11/15/48 10/11/48 7/57/48 8/16/48
f 3/6/49 48/3/49 49/9/49
f 5/8/50 49/9/50 11/15/50
f 6/10/51 7/57/51 10/11/51
f 18/23/52 15/22/52 21/28/52 22/25/52
f 10/11/53 11/15/53 41/13/53
f 6/10/54 12/20/54 9/19/54
f 12/20/55 13/17/55 9/19/55
f 51/12/56 52/21/56 12/20/56
f 16/29/57 21/28/57 15/22/57
f 13/17/58 21/28/58 17/27/58 53/18/58
f 19/26/59 22/25/59 54/31/59
f 58/34/60 30/42/60 26/58/60 56/35/60
f 13/17/61 52/21/61 22/25/61
f 14/24/62 18/23/62 23/32/62
f 20/33/63 23/32/63 58/34/63
f 19/26/64 55/36/64 23/32/64
f 25/37/65 45/40/65 27/38/65
f 25/37/66 26/58/66 30/42/66
f 25/37/67 30/42/67 45/40/67
f 39/47/68 34/48/68 33/54/68 37/56/68
f 24/39/69 27/38/69 28/43/69
f 27/38/70 32/46/70 28/43/70
f 27/38/71 57/41/71 32/46/71
f 37/56/72 33/54/72 36/53/72 44/55/72
f 37/56/73 38/49/73 39/47/73
f 39/47/74 52/21/74 51/12/74
f 38/49/75 40/30/75 39/47/75
f 19/26/76 54/31/76 38/49/76
f 33/54/77 34/48/77 35/50/77
f 35/50/78 34/48/78 41/13/78
f 34/48/79 51/12/79 41/13/79
f 36/53/80 33/54/80 43/52/80
f 35/50/81 42/51/81 33/54/81
f 57/41/82 43/52/82 32/46/82
f 48/3/83 47/5/83 42/51/83
f 38/49/84 44/55/84 19/26/84
f 36/53/85 57/41/85 44/55/85
f 44/55/86 57/41/86 45/40/86
