# Blender v2.78 (sub 0) OBJ File: 'Low_Poly_Vegetation_Pack.blend'
# www.blender.org
g Bush_f_m_04
v -0.584586 0.620983 -0.556664
v -0.790798 0.617305 -0.152549
v -0.315113 0.527430 -0.761234
v -0.002398 0.362463 -0.789975
v -0.777847 0.178617 -0.301353
v -0.690144 0.267033 -0.549610
v -0.551410 1.133183 -0.093921
v -0.234451 0.999725 -0.585297
v -0.379664 0.097517 -0.725677
v 0.633396 0.488988 -0.318737
v 0.216343 0.430345 -0.695275
v 0.449140 0.995175 -0.478297
v 0.613530 0.202570 -0.123340
v 0.514361 0.629233 0.677571
v 0.681208 0.464777 0.399823
v 0.451352 1.162010 0.329175
v 0.235591 0.609072 0.881075
v 0.509478 0.278253 0.658647
v 0.236725 0.963277 0.660577
v 0.231422 0.310216 0.877081
v 0.256718 0.046021 0.698523
v -0.610620 0.644112 0.373750
v -0.386569 0.377501 0.692679
v -0.532674 0.158595 0.342078
v -0.070345 0.247392 0.855402
v -0.338482 0.819105 0.651172
v -0.593222 1.006948 0.173678
v -0.764905 0.243060 0.040249
v -0.029060 -0.209199 -0.220899
v 0.369245 -0.037262 0.440871
v 0.095911 -0.106020 0.382239
v -0.329220 -0.182128 -0.001297
v 0.311066 -0.017429 -0.353328
v -0.160985 -0.190490 -0.452624
v 0.510970 0.042600 0.242880
v -0.523998 -0.149854 -0.322665
v -0.018097 1.488443 0.015982
v 0.301174 1.321571 -0.364784
v 0.011757 1.471518 -0.239081
v -0.376835 1.205006 -0.368552
v 0.278965 1.429860 0.104789
v 0.556594 1.198506 -0.172304
v -0.054954 1.295238 -0.473015
v -0.324579 1.373683 -0.066347
v 0.073018 1.346168 0.377454
v -0.337530 1.235144 0.356024
v -0.416571 -0.071797 -0.618634
v 0.719294 0.557161 -0.002081
v -0.088842 0.618750 0.878441
v -0.178156 0.009513 0.603515
v -0.590632 -0.062850 0.019881
v 0.169036 0.118736 -0.625584
v 0.142912 1.035366 -0.625642
v -0.098535 0.948872 0.683979
v 0.618842 1.058152 0.099324
vt 0.6321 0.9658
vt 0.6415 0.9684
vt 0.6400 0.9832
vt 0.6563 0.9476
vt 0.6504 0.9618
vt 0.6461 0.9588
vt 0.6451 0.9454
vt 0.6537 0.9674
vt 0.6470 0.9741
vt 0.6571 0.9740
vt 0.6517 0.9807
vt 0.7091 0.8812
vt 0.7179 0.9003
vt 0.7101 0.9000
vt 0.6968 0.8835
vt 0.6951 0.9033
vt 0.6845 0.8910
vt 0.7024 0.8962
vt 0.6359 0.9531
vt 0.6723 0.9350
vt 0.6522 0.9381
vt 0.6639 0.9513
vt 0.6919 0.9127
vt 0.6998 0.9195
vt 0.6799 0.9222
vt 0.6886 0.9380
vt 0.6760 0.9465
vt 0.6940 0.9546
vt 0.7054 0.9431
vt 0.7028 0.9267
vt 0.7106 0.9255
vt 0.7184 0.9421
vt 0.7206 0.9290
vt 0.7294 0.9372
vt 0.6907 0.9659
vt 0.6822 0.9710
vt 0.6800 0.9627
vt 0.6887 0.9763
vt 0.6816 0.9810
vt 0.7430 0.9211
vt 0.7366 0.9290
vt 0.7337 0.9164
vt 0.7399 0.9036
vt 0.7251 0.9026
vt 0.7262 0.8856
vt 0.6633 0.9812
vt 0.6624 0.9605
vt 0.6567 0.9596
vt 0.6802 0.9561
vt 0.6615 0.9683
vt 0.6736 0.9761
vt 0.6739 0.9674
vt 0.7118 0.9119
vt 0.7094 0.9172
vt 0.7080 0.9093
vt 0.7017 0.9118
vt 0.7043 0.9047
vt 0.7144 0.9066
vt 0.7218 0.9110
vt 0.7160 0.9179
vt 0.7267 0.9232
vt 0.6771 0.9066
vt 0.6996 0.9674
vt 0.6952 0.9794
vt 0.6876 0.9883
vt 0.6743 0.9886
vt 0.6629 0.9945
vn -0.8636 0.2488 -0.4384
vn 0.1740 -0.5006 -0.8480
vn -0.5960 -0.3323 -0.7310
vn -0.7346 -0.5411 -0.4093
vn -0.8583 -0.4974 0.1263
vn -0.8117 0.4196 -0.4063
vn 0.0322 0.2305 -0.9725
vn -0.4733 0.3774 -0.7960
vn -0.5191 0.4237 -0.7423
vn -0.5636 0.1519 -0.8119
vn -0.1244 -0.0632 -0.9902
vn 0.6672 -0.2576 -0.6989
vn 0.7076 -0.4111 -0.5747
vn 0.8824 0.1848 -0.4327
vn 0.9430 0.1621 -0.2907
vn 0.7230 -0.4229 -0.5463
vn 0.9558 -0.2930 0.0232
vn 0.8287 0.3197 0.4594
vn 0.5032 0.4556 0.7344
vn 0.6350 -0.6097 0.4744
vn 0.0560 -0.5554 0.8297
vn -0.6031 0.1395 0.7854
vn -0.9275 0.2136 0.3067
vn -0.7603 -0.4634 0.4553
vn 0.3825 -0.8777 -0.2886
vn 0.3861 -0.7286 -0.5658
vn 0.6511 -0.7454 -0.1433
vn -0.5802 -0.7235 0.3741
vn 0.1531 -0.9188 0.3638
vn -0.0213 -0.8968 0.4419
vn -0.1048 -0.9943 -0.0206
vn -0.2185 -0.9211 -0.3222
vn -0.4001 -0.9038 0.1517
vn 0.2051 0.9779 -0.0409
vn 0.6623 0.4956 -0.5619
vn -0.3785 0.7879 -0.4858
vn 0.1913 0.6013 -0.7758
vn -0.1357 0.4229 -0.8960
vn -0.4010 0.8740 0.2744
vn -0.7246 0.6611 0.1946
vn -0.4333 0.8168 -0.3810
vn 0.4227 0.7262 0.5422
vn 0.0298 0.6025 0.7976
vn -0.9484 0.0764 -0.3078
vn -0.9979 -0.0452 0.0463
vn -0.7398 -0.5073 -0.4420
vn -0.7912 -0.6115 0.0014
vn -0.8091 0.4219 -0.4090
vn -0.1330 0.3658 -0.9211
vn -0.4925 0.0020 -0.8703
vn 0.8254 -0.4899 0.2806
vn 0.4504 -0.2594 -0.8543
vn 0.6694 0.0095 -0.7429
vn 0.4448 0.1555 -0.8820
vn 0.3535 0.1492 -0.9235
vn 0.9700 0.2168 -0.1103
vn 0.9538 -0.2116 -0.2132
vn 0.8458 -0.0405 0.5320
vn 0.0232 0.5186 0.8547
vn 0.9134 -0.3987 0.0817
vn 0.8832 0.3254 0.3379
vn 0.9768 0.1692 0.1315
vn 0.5597 0.4989 0.6617
vn 0.6031 -0.0365 0.7969
vn -0.0353 -0.0410 0.9985
vn 0.5219 -0.4428 0.7291
vn 0.4610 -0.8857 -0.0559
vn -0.0949 -0.7032 0.7047
vn -0.4814 -0.0781 0.8730
vn -0.6399 -0.5032 0.5808
vn -0.5493 -0.4773 0.6859
vn -0.7500 0.1424 0.6459
vn -0.3620 0.4652 0.8078
vn -0.7696 0.3362 0.5428
vn -0.9081 0.4153 0.0540
vn -0.7395 0.3906 0.5482
vn -0.8675 -0.1698 0.4675
vn -0.8035 -0.1663 0.5717
vn -0.9430 0.0985 0.3178
vn 0.1959 -0.6296 -0.7518
vn 0.2178 -0.9685 0.1206
vn 0.4582 0.8706 -0.1791
vn -0.1290 -0.9356 0.3287
vn 0.0299 -0.9863 0.1625
vn -0.1206 -0.9923 -0.0266
vn -0.3001 -0.7601 0.5764
vn 0.7245 0.6596 0.2001
vn -0.3923 0.5252 -0.7551
vn 0.1313 0.7734 -0.6202
vn 0.4327 0.4648 -0.7725
vn -0.3251 0.9403 -0.1004
vn -0.7272 0.6577 0.1966
vn -0.6875 0.6782 -0.2597
vn 0.0804 0.9342 0.3475
vn 0.3987 0.6493 0.6476
vn -0.2580 0.8751 0.4095
vn -0.2145 0.6530 0.7263
vn -0.3909 0.5332 0.7503
s off
f 1/1/1 6/2/1 2/3/1
f 52/4/2 47/5/2 9/6/2 4/7/2
f 9/6/3 47/5/3 6/2/3
f 47/5/4 36/8/4 5/9/4
f 5/9/5 51/10/5 28/11/5
f 1/12/6 7/13/6 40/14/6
f 3/15/7 53/16/7 4/17/7
f 1/12/8 8/18/8 3/15/8
f 40/14/9 8/18/9 1/12/9
f 1/1/10 3/19/10 6/2/10
f 3/19/11 4/7/11 9/6/11
f 10/20/12 52/4/12 11/21/12
f 10/20/13 33/22/13 52/4/13
f 12/23/14 42/24/14 10/25/14
f 10/25/15 42/24/15 48/26/15
f 10/20/16 13/27/16 33/22/16
f 15/28/17 13/27/17 48/26/17
f 15/29/18 55/30/18 16/31/18
f 14/32/19 19/33/19 17/34/19
f 18/35/20 21/36/20 30/37/20
f 20/38/21 25/39/21 21/36/21
f 23/40/22 49/41/22 26/42/22
f 22/43/23 27/44/23 2/45/23
f 28/11/24 51/10/24 24/46/24
f 29/47/25 34/48/25 33/22/25
f 34/48/26 52/4/26 33/22/26
f 33/22/27 13/27/27 35/49/27
f 32/50/28 50/51/28 24/46/28
f 30/37/29 21/36/29 31/52/29
f 31/52/30 21/36/30 50/51/30
f 29/47/31 32/50/31 34/48/31
f 34/48/32 36/8/32 47/5/32
f 32/50/33 51/10/33 36/8/33
f 37/53/34 41/54/34 39/55/34
f 38/56/35 42/24/35 12/23/35
f 39/55/36 43/57/36 40/14/36
f 38/56/37 53/16/37 43/57/37
f 43/57/38 53/16/38 8/18/38
f 37/53/39 44/58/39 46/59/39
f 44/58/40 7/13/40 46/59/40
f 40/14/41 44/58/41 39/55/41
f 45/60/42 16/31/42 41/54/42
f 45/60/43 54/61/43 19/33/43
f 2/3/44 6/2/44 5/9/44
f 2/3/45 5/9/45 28/11/45
f 6/2/46 47/5/46 5/9/46
f 5/9/47 36/8/47 51/10/47
f 2/45/48 7/13/48 1/12/48
f 3/15/49 8/18/49 53/16/49
f 6/2/50 3/19/50 9/6/50
f 35/49/51 15/28/51 18/35/51 30/37/51
f 11/21/52 52/4/52 4/7/52
f 10/25/53 11/62/53 12/23/53
f 12/23/54 11/62/54 53/16/54
f 11/62/55 4/17/55 53/16/55
f 48/26/56 42/24/56 55/30/56
f 10/20/57 48/26/57 13/27/57
f 14/63/58 18/35/58 15/28/58
f 49/41/59 17/34/59 19/33/59 54/61/59
f 15/28/60 35/49/60 13/27/60
f 14/32/61 15/29/61 16/31/61
f 15/29/62 48/26/62 55/30/62
f 14/32/63 16/31/63 19/33/63
f 20/38/64 18/35/64 14/63/64 17/64/64
f 25/39/65 20/38/65 17/64/65 49/65/65
f 18/35/66 20/38/66 21/36/66
f 35/49/67 30/37/67 29/47/67 33/22/67
f 21/36/68 25/39/68 50/51/68
f 23/66/69 25/39/69 49/65/69
f 24/46/70 50/51/70 23/66/70
f 23/66/71 50/51/71 25/39/71
f 22/43/72 23/40/72 26/42/72
f 26/42/73 49/41/73 54/61/73
f 22/43/74 26/42/74 27/44/74
f 2/45/75 27/44/75 7/13/75
f 26/42/76 46/59/76 27/44/76
f 23/66/77 22/67/77 24/46/77
f 22/67/78 28/11/78 24/46/78
f 2/3/79 28/11/79 22/67/79
f 34/48/80 47/5/80 52/4/80
f 31/52/81 29/47/81 30/37/81
f 42/24/82 38/56/82 39/55/82 41/54/82
f 32/50/83 31/52/83 50/51/83
f 29/47/84 31/52/84 32/50/84
f 34/48/85 32/50/85 36/8/85
f 32/50/86 24/46/86 51/10/86
f 55/30/87 42/24/87 41/54/87 16/31/87
f 40/14/88 43/57/88 8/18/88
f 39/55/89 38/56/89 43/57/89
f 38/56/90 12/23/90 53/16/90
f 39/55/91 44/58/91 37/53/91
f 46/59/92 7/13/92 27/44/92
f 40/14/93 7/13/93 44/58/93
f 37/53/94 45/60/94 41/54/94
f 45/60/95 19/33/95 16/31/95
f 37/53/96 46/59/96 45/60/96
f 45/60/97 46/59/97 54/61/97
f 46/59/98 26/42/98 54/61/98
