# Blender v2.78 (sub 0) OBJ File: 'Low_Poly_Vegetation_Pack.blend'
# www.blender.org
g Bush_g_m_05
v -0.667892 0.141354 -0.149668
v -0.167713 0.147012 -0.500577
v -0.004181 0.786220 0.488863
v 0.749542 0.798874 -0.025080
v -0.054577 1.100456 -0.023261
v -0.133866 -0.118318 0.152945
v 0.528160 0.070357 0.268016
v 0.206162 0.144018 0.453047
v 0.671664 0.145761 -0.000397
v 0.396053 0.051408 -0.251031
v -0.457985 -0.037934 0.000000
v -0.548962 0.144018 0.279998
v -0.230526 -0.037936 -0.279997
v 0.841012 0.461907 0.167695
v 0.740382 0.479958 -0.182515
v -0.143229 0.301724 0.556214
v 0.530631 0.466499 0.446650
v -0.721702 0.438431 0.173047
v -0.468712 0.438431 0.453049
v -0.729795 0.438431 -0.173047
v 0.337305 0.471786 -0.460654
v -0.055778 0.568202 -0.565665
v 0.614417 0.851488 0.252948
v -0.665472 0.732843 0.000000
v -0.496896 0.578215 -0.470053
v 0.489074 0.870838 -0.311460
v 0.122514 1.038072 0.251892
v 0.418042 1.124836 -0.047888
v -0.541649 0.795868 0.246701
v -0.572124 0.791188 -0.240044
v 0.037112 1.017179 -0.303340
vt 0.0797 0.9115
vt 0.0880 0.9091
vt 0.0898 0.9193
vt 0.0799 0.9298
vt 0.0665 0.9182
vt 0.0697 0.9280
vt 0.0536 0.9305
vt 0.0971 0.9069
vt 0.0842 0.8981
vt 0.0958 0.8866
vt 0.0956 0.9266
vt 0.1135 0.9198
vt 0.0875 0.9469
vt 0.0502 0.9110
vt 0.1101 0.9003
vt 0.1049 0.9376
vt 0.0679 0.9442
vt 0.0271 0.9471
vt 0.0420 0.9420
vt 0.0355 0.9515
vt 0.0605 0.9761
vt 0.0462 0.9852
vt 0.0476 0.9631
vt 0.0530 0.9454
vt 0.0568 0.9562
vt 0.0458 0.9529
vt 0.0396 0.9593
vt 0.0375 0.9750
vt 0.0241 0.9621
vt 0.0275 0.9719
vt 0.0713 0.9637
vt 0.0257 0.9881
vt 0.0114 0.9744
vt 0.0080 0.9549
vt 0.0166 0.9371
vt 0.0340 0.9278
vt 0.0762 0.8839
vt 0.0663 0.8960
vt 0.0661 0.9078
vn -0.1747 -0.9743 -0.1419
vn 0.1476 -0.9660 -0.2123
vn 0.7855 -0.5604 0.2625
vn -0.8725 -0.4232 0.2441
vn -0.5345 -0.3537 -0.7676
vn 0.3175 -0.3873 -0.8656
vn 0.6301 -0.3225 0.7064
vn -0.9791 -0.2022 0.0229
vn -0.2129 -0.0937 -0.9726
vn 0.5438 -0.3124 -0.7789
vn 0.2275 0.6041 0.7637
vn -0.1692 0.5231 -0.8353
vn 0.6475 0.6284 -0.4310
vn -0.0649 0.9505 -0.3039
vn 0.2252 0.7312 -0.6439
vn 0.1392 0.4779 -0.8673
vn -0.3566 0.8572 -0.3716
vn -0.3116 0.6443 -0.6985
vn -0.5203 0.8536 0.0244
vn -0.4883 0.8724 0.0222
vn -0.3169 0.8604 0.3990
vn -0.2705 0.7284 0.6295
vn -0.0373 0.9691 0.2437
vn 0.3005 0.7953 0.5265
vn 0.6804 0.7058 0.1971
vn 0.7443 0.2783 -0.6071
vn 0.5643 0.0921 -0.8204
vn 0.3035 0.2303 -0.9246
vn -0.8983 0.3514 -0.2639
vn -0.9794 0.2005 0.0229
vn -0.8659 0.3659 0.3411
vn -0.3691 0.4070 0.8355
vn -0.2205 0.1961 0.9555
vn 0.2949 0.3775 0.8778
vn 0.6536 0.2218 0.7236
vn 0.8453 0.4191 0.3315
vn 0.2060 -0.2027 -0.9573
vn -0.8154 0.2669 -0.5138
vn -0.7221 -0.2025 -0.6615
vn -0.7222 0.2293 0.6525
vn -0.7287 -0.1884 0.6584
vn -0.4189 -0.3725 0.8281
vn 0.1363 0.0979 0.9858
vn 0.2013 -0.1835 0.9622
vn 0.3940 -0.3799 0.8369
vn 0.9572 0.1056 -0.2696
vn 0.9006 -0.3356 -0.2761
vn 0.6795 -0.4538 -0.5764
vn 0.1393 -0.7780 -0.6127
vn -0.4463 -0.6191 -0.6462
vn -0.4437 -0.8205 -0.3605
vn -0.7154 -0.6688 0.2022
vn -0.3960 -0.8234 0.4064
vn -0.2142 -0.6790 0.7022
vn 0.3725 -0.9260 -0.0610
vn 0.2797 -0.9594 -0.0362
vn -0.1000 -0.6902 0.7166
vn 0.1353 -0.8169 0.5607
s off
f 6/1/1 11/2/1 13/3/1
f 6/1/2 13/3/2 10/4/2
f 7/5/3 9/6/3 14/7/3
f 1/8/4 12/9/4 18/10/4
f 2/11/5 1/8/5 25/12/5
f 10/4/6 2/11/6 21/13/6
f 7/5/7 14/7/7 17/14/7
f 1/8/8 18/10/8 20/15/8
f 2/11/9 25/12/9 22/16/9
f 10/4/10 21/13/10 15/17/10
f 3/18/11 23/19/11 27/20/11
f 22/21/12 25/22/12 31/23/12
f 4/24/13 26/25/13 28/26/13
f 28/26/14 31/23/14 5/27/14
f 28/26/15 26/25/15 31/23/15
f 26/25/16 22/21/16 31/23/16
f 31/23/17 30/28/17 5/27/17
f 31/23/18 25/22/18 30/28/18
f 30/28/19 29/29/19 5/27/19
f 30/28/20 24/30/20 29/29/20
f 29/29/21 27/20/21 5/27/21
f 29/29/22 3/18/22 27/20/22
f 27/20/23 28/26/23 5/27/23
f 27/20/24 23/19/24 28/26/24
f 23/19/25 4/24/25 28/26/25
f 15/17/26 26/25/26 4/24/26
f 15/17/27 21/31/27 26/25/27
f 21/31/28 22/21/28 26/25/28
f 20/32/29 24/30/29 30/28/29
f 20/32/30 18/33/30 24/30/30
f 18/33/31 29/29/31 24/30/31
f 19/34/32 3/18/32 29/29/32
f 19/34/33 16/35/33 3/18/33
f 17/36/34 23/19/34 3/18/34
f 17/36/35 14/7/35 23/19/35
f 14/7/36 4/24/36 23/19/36
f 21/13/37 2/11/37 22/16/37
f 25/22/38 20/32/38 30/28/38
f 25/12/39 1/8/39 20/15/39
f 18/33/40 19/34/40 29/29/40
f 18/10/41 12/9/41 19/37/41
f 12/9/42 16/38/42 19/37/42
f 16/35/43 17/36/43 3/18/43
f 16/38/44 8/39/44 17/14/44
f 8/39/45 7/5/45 17/14/45
f 14/7/46 15/17/46 4/24/46
f 14/7/47 9/6/47 15/17/47
f 9/6/48 10/4/48 15/17/48
f 10/4/49 13/3/49 2/11/49
f 13/3/50 1/8/50 2/11/50
f 13/3/51 11/2/51 1/8/51
f 11/2/52 12/9/52 1/8/52
f 11/2/53 6/1/53 12/9/53
f 6/1/54 16/38/54 12/9/54
f 9/6/55 7/5/55 10/4/55
f 7/5/56 6/1/56 10/4/56
f 6/1/57 8/39/57 16/38/57
f 6/1/58 7/5/58 8/39/58
