# Blender v2.78 (sub 0) OBJ File: 'Low_Poly_Vegetation_Pack.blend'
# www.blender.org
g Bush_f_m_02
v -0.735180 0.450134 -0.072642
v -0.745114 0.421994 0.123306
v -0.619408 0.750023 0.089285
v -0.613809 0.411604 -0.356763
v -0.691033 0.164134 -0.050715
v -0.455346 -0.096828 0.040763
v -0.595703 0.067749 0.210188
v -0.573955 0.240975 0.408687
v -0.559853 0.654863 0.361904
v -0.595929 0.747600 -0.144563
v -0.574188 0.166759 -0.309801
v -0.154424 0.432267 -0.667896
v 0.034599 0.579962 -0.645003
v 0.318897 0.394171 -0.665136
v 0.022752 0.150981 -0.704651
v -0.038038 -0.085074 -0.553913
v -0.220163 0.192762 -0.634276
v -0.217089 -0.083497 -0.462346
v 0.138613 1.000931 -0.418189
v 0.365155 0.189755 -0.620305
v 0.657586 0.330337 0.098581
v 0.525773 0.426657 -0.442805
v 0.570849 0.542048 -0.111865
v 0.629471 0.286041 0.440519
v 0.610191 0.047644 0.219014
v 0.578957 0.213315 -0.246649
v 0.604064 0.574881 0.292331
v 0.491491 0.872107 0.022746
v -0.113402 0.467995 0.635181
v 0.275294 0.228838 0.716290
v -0.043467 0.184042 0.677513
v -0.009088 -0.067067 0.563212
v 0.392558 0.101379 0.642386
v 0.098097 0.749354 0.540026
v 0.217935 0.532041 0.679444
v -0.243006 0.760987 0.443743
v 0.032742 -0.227605 -0.279203
v 0.311486 -0.165018 -0.217897
v 0.442093 -0.064497 -0.115275
v 0.137352 -0.219701 0.140038
v 0.015294 -0.190333 0.342576
v 0.454299 -0.117323 0.195273
v -0.310730 -0.052584 0.310646
v 0.067858 1.132741 0.110535
v 0.042935 1.161045 -0.084502
v 0.356949 1.016646 -0.174889
v -0.327177 1.038665 -0.066854
v -0.253769 1.005154 -0.316966
v -0.097036 0.961572 0.392648
v -0.275112 1.061642 0.117358
v 0.279117 1.029982 0.234869
v -0.465472 -0.061958 -0.140223
v -0.440945 0.568249 0.491254
v -0.385730 0.001538 -0.331785
v 0.265186 -0.059805 -0.543127
v -0.158902 0.883216 -0.485221
v 0.347668 0.889359 -0.362322
v 0.509651 0.061900 -0.372165
v 0.504145 0.800026 -0.202606
v 0.476402 0.560121 0.559477
v 0.429598 -0.045832 0.512260
v -0.330864 0.148301 0.497601
v -0.490332 0.586758 -0.413277
v 0.410120 0.791615 0.325571
vt 0.6435 0.9554
vt 0.6479 0.9642
vt 0.6375 0.9635
vt 0.6439 0.9726
vt 0.6570 0.9669
vt 0.7140 0.8945
vt 0.7160 0.9073
vt 0.7069 0.8957
vt 0.7161 0.8841
vt 0.7230 0.8938
vt 0.7310 0.8954
vt 0.7267 0.8845
vt 0.7075 0.8835
vt 0.6956 0.8884
vt 0.7046 0.9080
vt 0.6964 0.8966
vt 0.6539 0.9536
vt 0.6544 0.9598
vt 0.6619 0.9279
vt 0.6603 0.9367
vt 0.6413 0.9422
vt 0.6692 0.9361
vt 0.6670 0.9443
vt 0.6614 0.9466
vt 0.6477 0.9467
vt 0.6833 0.9089
vt 0.6890 0.9170
vt 0.6857 0.9277
vt 0.7030 0.9177
vt 0.6822 0.9317
vt 0.6752 0.9455
vt 0.6807 0.9392
vt 0.6944 0.9393
vt 0.6829 0.9487
vt 0.6960 0.9658
vt 0.6901 0.9517
vt 0.6994 0.9538
vt 0.6926 0.9416
vt 0.6849 0.9673
vt 0.6802 0.9575
vt 0.7106 0.9406
vt 0.7081 0.9298
vt 0.7148 0.9279
vt 0.7031 0.9237
vt 0.7195 0.9462
vt 0.7261 0.9364
vt 0.7306 0.9416
vt 0.7240 0.9258
vt 0.6784 0.9656
vt 0.6774 0.9730
vt 0.6894 0.9771
vt 0.6741 0.9850
vt 0.6776 0.9791
vt 0.6859 0.9862
vt 0.6632 0.9832
vt 0.6653 0.9748
vt 0.7441 0.9249
vt 0.7346 0.9295
vt 0.7398 0.9201
vt 0.7312 0.9154
vt 0.7416 0.9058
vt 0.7267 0.9035
vt 0.7229 0.9108
vt 0.6578 0.9907
vt 0.6539 0.9765
vt 0.6557 0.9479
vt 0.6687 0.9528
vt 0.6751 0.9542
vt 0.6698 0.9638
vt 0.6667 0.9682
vt 0.7107 0.9148
vt 0.7091 0.9226
vt 0.7152 0.9149
vt 0.7105 0.9064
vt 0.6988 0.9103
vt 0.7192 0.9202
vt 0.6351 0.9532
vt 0.6714 0.9923
vt 0.6425 0.9808
vn -0.9180 -0.3353 0.2116
vn -0.8907 -0.2897 0.3504
vn -0.4811 -0.6337 0.6057
vn -0.6658 0.7424 -0.0745
vn -0.8734 0.3678 0.3192
vn -0.6965 0.1040 0.7099
vn -0.8605 0.3040 -0.4088
vn -0.6596 0.5018 -0.5596
vn -0.7228 -0.6849 -0.0915
vn -0.5615 0.0381 -0.8266
vn -0.3191 -0.4503 -0.8339
vn -0.5925 -0.4304 -0.6810
vn -0.3327 0.5450 -0.7696
vn 0.0164 0.1326 -0.9910
vn 0.2134 0.4220 -0.8811
vn 0.0170 0.1401 -0.9900
vn 0.0754 -0.5504 -0.8315
vn 0.2526 -0.1524 -0.9555
vn 0.7309 0.0157 -0.6824
vn 0.6513 -0.4499 -0.6111
vn 0.9561 0.1311 -0.2622
vn 0.9818 0.0922 -0.1659
vn 0.9211 -0.1129 -0.3725
vn 0.8213 -0.5178 -0.2393
vn 0.9698 0.2426 -0.0231
vn 0.9641 0.1809 -0.1944
vn 0.7578 0.3835 -0.5279
vn 0.9856 0.1374 0.0988
vn 0.9572 0.2712 -0.1007
vn 0.7236 0.5935 0.3522
vn 0.7296 -0.6689 -0.1425
vn 0.6955 -0.6874 0.2092
vn 0.8273 -0.4168 0.3766
vn 0.5672 0.0450 0.8224
vn 0.7472 -0.3246 0.5799
vn -0.0513 -0.4195 0.9063
vn 0.1191 -0.6406 0.7586
vn 0.3972 0.1844 0.8990
vn 0.2732 0.6216 0.7341
vn -0.2376 0.4555 0.8580
vn -0.2366 0.3980 0.8864
vn -0.3791 0.5692 0.7296
vn -0.5302 -0.0042 0.8478
vn -0.6594 -0.5874 -0.4692
vn 0.2269 -0.9732 -0.0383
vn 0.6817 -0.7114 -0.1708
vn 0.2755 -0.9025 -0.3312
vn 0.0992 -0.8640 0.4937
vn -0.9226 0.3826 -0.0488
vn -0.2397 -0.9294 0.2808
vn -0.3882 -0.8221 0.4164
vn 0.3116 0.8885 -0.3370
vn 0.7298 0.5482 -0.4084
vn -0.1970 0.9663 0.1654
vn -0.3158 0.9238 -0.2165
vn -0.6642 0.6901 -0.2874
vn -0.1559 0.7560 -0.6358
vn -0.4838 0.6742 0.5580
vn 0.7584 0.5499 0.3500
vn 0.1813 0.6679 0.7218
vn -0.9848 -0.1576 -0.0726
vn -0.7466 -0.6647 0.0272
vn -0.4706 -0.7951 0.3825
vn -0.4671 -0.6270 0.6234
vn -0.8276 0.0908 0.5540
vn -0.6389 0.6722 0.3742
vn -0.9033 -0.1923 -0.3834
vn -0.7667 0.3715 -0.5236
vn -0.1428 0.1018 0.9845
vn -0.7300 -0.5956 -0.3353
vn -0.6132 -0.6374 -0.4665
vn -0.6456 -0.2433 -0.7239
vn -0.2866 -0.0556 -0.9564
vn -0.4010 -0.4872 -0.7757
vn -0.6342 -0.6727 -0.3811
vn -0.3915 0.2209 -0.8933
vn -0.5600 0.1308 -0.8181
vn 0.4461 0.4479 -0.7748
vn 0.6537 0.3668 -0.6619
vn 0.0119 0.4720 -0.8815
vn 0.2616 -0.3793 -0.8875
vn 0.8214 -0.1432 -0.5521
vn 0.9641 -0.2230 -0.1440
vn 0.9013 -0.4326 0.0242
vn 0.9519 0.2889 -0.1017
vn 0.8561 0.2935 0.4253
vn 0.7185 0.5853 0.3757
vn 0.9883 -0.1387 0.0633
vn -0.4026 -0.0918 0.9107
vn 0.6382 0.0224 0.7695
vn 0.0291 -0.4812 0.8761
vn -0.2028 0.4471 0.8712
vn 0.3267 0.7164 0.6165
vn -0.2265 0.4606 0.8582
vn -0.4431 -0.4209 0.7915
vn -0.2555 -0.9668 0.0054
vn -0.2152 -0.8884 -0.4055
vn 0.4249 -0.9042 -0.0425
vn -0.3623 -0.9060 -0.2188
vn 0.0898 -0.8744 -0.4768
vn 0.5931 -0.7375 -0.3230
vn 0.2179 -0.9386 0.2674
vn 0.2622 -0.9368 0.2317
vn -0.3795 -0.9203 -0.0953
vn -0.5273 -0.6066 0.5950
vn 0.4296 0.9015 0.0523
vn 0.5079 0.7007 -0.5010
vn 0.6562 0.7479 0.1003
vn 0.8112 0.5687 -0.1363
vn -0.3151 0.9486 -0.0293
vn -0.7455 0.6539 0.1292
vn -0.1079 0.8839 -0.4551
vn -0.5715 0.4769 -0.6678
vn -0.1746 0.8838 0.4342
vn -0.3651 0.4703 0.8035
vn 0.3965 0.9144 0.0820
vn 0.0799 0.8308 0.5508
vn 0.4353 0.5191 0.7356
s off
f 5/1/1 7/2/1 2/3/1
f 2/3/2 7/2/2 8/4/2
f 7/2/3 43/5/3 8/4/3
f 3/6/4 50/7/4 10/8/4
f 2/9/5 9/10/5 3/6/5
f 53/11/6 9/10/6 8/12/6
f 1/13/7 10/8/7 4/14/7
f 10/8/8 48/15/8 63/16/8
f 5/1/9 52/17/9 6/18/9
f 12/19/10 17/20/10 4/21/10
f 15/22/11 16/23/11 17/20/11
f 17/20/12 18/24/12 11/25/12
f 12/26/13 63/16/13 13/27/13
f 12/26/14 13/27/14 14/28/14
f 13/27/15 19/29/15 14/28/15
f 14/30/16 15/22/16 12/19/16
f 15/22/17 55/31/17 16/23/17
f 14/30/18 20/32/18 15/22/18
f 14/28/19 22/33/19 20/32/19
f 20/32/20 58/34/20 55/31/20
f 21/35/21 26/36/21 23/37/21
f 26/36/22 22/38/22 23/37/22
f 26/36/23 58/34/23 22/33/23
f 25/39/24 39/40/24 26/36/24
f 23/41/25 59/42/25 28/43/25
f 23/41/26 22/33/26 59/42/26
f 22/33/27 57/44/27 59/42/27
f 21/45/28 27/46/28 24/47/28
f 23/41/29 28/43/29 27/46/29
f 28/43/30 64/48/30 27/46/30
f 25/39/31 42/49/31 39/40/31
f 25/39/32 61/50/32 42/49/32
f 24/51/33 61/50/33 25/39/33
f 30/52/34 33/53/34 60/54/34
f 33/53/35 61/50/35 24/51/35
f 31/55/36 32/56/36 30/52/36
f 32/56/37 61/50/37 33/53/37
f 30/57/38 60/58/38 35/59/38
f 35/59/39 60/58/39 34/60/39
f 29/61/40 36/62/40 53/11/40
f 34/60/41 49/63/41 36/62/41
f 36/62/42 9/10/42 53/11/42
f 29/64/43 62/65/43 31/55/43
f 52/17/44 54/66/44 18/24/44
f 37/67/45 38/68/45 40/69/45
f 38/68/46 58/34/46 39/40/46
f 37/67/47 55/31/47 38/68/47
f 61/50/48 32/56/48 41/70/48
f 10/8/49 1/13/49 2/9/49 3/6/49
f 40/69/50 43/5/50 6/18/50
f 41/70/51 32/56/51 43/5/51
f 45/71/52 46/72/52 19/29/52
f 46/72/53 59/42/53 57/44/53
f 44/73/54 45/71/54 50/7/54
f 45/71/55 48/15/55 47/74/55
f 47/74/56 48/15/56 10/8/56
f 56/75/57 48/15/57 19/29/57
f 50/7/58 9/10/58 49/63/58
f 51/76/59 64/48/59 28/43/59
f 49/63/60 34/60/60 51/76/60
f 1/77/61 5/1/61 2/3/61
f 5/1/62 6/18/62 7/2/62
f 7/2/63 6/18/63 43/5/63
f 8/4/64 43/5/64 62/65/64
f 2/9/65 8/12/65 9/10/65
f 3/6/66 9/10/66 50/7/66
f 11/25/67 5/1/67 1/77/67 4/21/67
f 4/14/68 10/8/68 63/16/68
f 35/78/69 29/64/69 31/55/69 30/52/69
f 5/1/70 11/25/70 52/17/70
f 52/17/71 11/25/71 54/66/71
f 4/21/72 17/20/72 11/25/72
f 12/19/73 15/22/73 17/20/73
f 17/20/74 16/23/74 18/24/74
f 11/25/75 18/24/75 54/66/75
f 13/27/76 63/16/76 56/75/76
f 12/26/77 4/14/77 63/16/77
f 14/28/78 19/29/78 57/44/78
f 14/28/79 57/44/79 22/33/79
f 13/27/80 56/75/80 19/29/80
f 15/22/81 20/32/81 55/31/81
f 20/32/82 22/33/82 58/34/82
f 21/35/83 25/39/83 26/36/83
f 26/36/84 39/40/84 58/34/84
f 21/45/85 23/41/85 27/46/85
f 24/47/86 27/46/86 60/58/86
f 27/46/87 64/48/87 60/58/87
f 21/35/88 24/51/88 25/39/88
f 8/4/89 62/65/89 29/64/89 53/79/89
f 60/54/90 33/53/90 24/51/90
f 30/52/91 32/56/91 33/53/91
f 29/61/92 35/59/92 34/60/92
f 34/60/93 60/58/93 64/48/93
f 34/60/94 36/62/94 29/61/94
f 31/55/95 62/65/95 32/56/95
f 52/17/96 37/67/96 40/69/96 6/18/96
f 37/67/97 18/24/97 16/23/97
f 40/69/98 38/68/98 39/40/98 42/49/98
f 37/67/99 52/17/99 18/24/99
f 16/23/100 55/31/100 37/67/100
f 38/68/101 55/31/101 58/34/101
f 40/69/102 61/50/102 41/70/102
f 40/69/103 42/49/103 61/50/103
f 40/69/104 41/70/104 43/5/104
f 43/5/105 32/56/105 62/65/105
f 45/71/106 51/76/106 46/72/106
f 19/29/107 46/72/107 57/44/107
f 51/76/108 28/43/108 46/72/108
f 46/72/109 28/43/109 59/42/109
f 50/7/110 45/71/110 47/74/110
f 50/7/111 47/74/111 10/8/111
f 45/71/112 19/29/112 48/15/112
f 48/15/113 56/75/113 63/16/113
f 44/73/114 50/7/114 49/63/114
f 49/63/115 9/10/115 36/62/115
f 45/71/116 44/73/116 51/76/116
f 44/73/117 49/63/117 51/76/117
f 51/76/118 34/60/118 64/48/118
