# Blender v2.78 (sub 0) OBJ File: 'Low_Poly_Vegetation_Pack.blend'
# www.blender.org
g Bush_g_m_01
v -0.154777 0.187988 -0.476364
v 0.049543 0.995225 -0.152482
v -0.049543 -0.118364 0.152482
v 0.238181 -0.037936 0.173046
v -0.002026 0.145107 0.499683
v 0.474601 0.145108 0.156338
v 0.238181 -0.037936 -0.173046
v -0.294409 -0.037934 0.000000
v -0.475854 0.145108 0.152482
v -0.090975 -0.037936 -0.279997
v -0.385386 0.144018 -0.279998
v 0.295348 0.145108 -0.403059
v 0.532592 0.438431 0.173047
v 0.532592 0.438431 -0.173047
v 0.000000 0.438431 0.560000
v 0.329160 0.438431 0.453049
v -0.532592 0.438431 0.173047
v -0.329160 0.438431 0.453049
v -0.329160 0.438431 -0.453049
v -0.532592 0.438431 -0.173047
v 0.329160 0.438431 -0.453049
v 0.000000 0.438431 -0.560000
v 0.385386 0.732843 0.279998
v -0.295348 0.731754 0.403059
v -0.474601 0.731753 -0.156338
v 0.002026 0.731755 -0.499683
v 0.475854 0.731754 -0.152482
v 0.131735 0.830842 0.405444
v 0.294409 0.914796 0.000000
v -0.238181 0.914797 0.173046
v -0.238181 0.914797 -0.173046
vt 0.0807 0.9089
vt 0.0893 0.9059
vt 0.0916 0.9166
vt 0.0822 0.9222
vt 0.1018 0.9210
vt 0.1011 0.9089
vt 0.1167 0.9161
vt 0.0671 0.9221
vt 0.0541 0.9301
vt 0.0495 0.9097
vt 0.0694 0.9006
vt 0.0578 0.8906
vt 0.0758 0.8800
vt 0.0906 0.8961
vt 0.0965 0.8820
vt 0.1122 0.8958
vt 0.1084 0.9353
vt 0.0869 0.9310
vt 0.0905 0.9459
vt 0.0697 0.9439
vt 0.0468 0.9541
vt 0.0564 0.9515
vt 0.0450 0.9630
vt 0.0546 0.9731
vt 0.0398 0.9704
vt 0.0335 0.9781
vt 0.0316 0.9631
vt 0.0223 0.9596
vt 0.0331 0.9484
vt 0.0424 0.9428
vt 0.0742 0.9643
vt 0.0659 0.9834
vt 0.0480 0.9940
vt 0.0272 0.9920
vt 0.0116 0.9783
vt 0.0071 0.9579
vt 0.0153 0.9388
vt 0.0333 0.9282
vt 0.0540 0.9301
vt 0.0740 0.9150
vn -0.2178 -0.9631 -0.1582
vn 0.0611 -0.9802 -0.1882
vn -0.5746 -0.3304 -0.7488
vn 0.7943 -0.1899 0.5771
vn -0.3034 -0.1899 0.9337
vn -0.9818 -0.1899 0.0000
vn -0.3066 -0.1256 -0.9435
vn 0.7943 -0.1899 -0.5771
vn 0.4889 0.7910 -0.3678
vn 0.4272 0.6912 -0.5829
vn -0.1809 0.7952 -0.5787
vn -0.4831 0.5628 -0.6707
vn -0.2692 0.9631 0.0000
vn -0.6122 0.7907 0.0000
vn -0.7872 0.5628 0.2522
vn 0.0443 0.9600 0.2763
vn -0.1867 0.7908 0.5829
vn 0.1523 0.9539 0.2586
vn 0.4857 0.7966 0.3598
vn 0.7640 0.6255 0.1582
vn 0.7937 0.1939 -0.5766
vn 0.5220 0.4689 -0.7124
vn -0.3031 0.1939 -0.9330
vn -0.5162 0.4689 -0.7166
vn -0.9810 0.1940 0.0000
vn -0.8411 0.4689 0.2695
vn -0.3031 0.1940 0.9330
vn -0.0962 0.3925 0.9147
vn 0.5212 0.3563 0.7755
vn 0.7947 0.1876 0.5773
vn 0.9041 0.3837 0.1882
vn 0.3034 0.1899 -0.9337
vn 0.3031 -0.1940 -0.9330
vn 0.1137 -0.3772 -0.9191
vn -0.7943 0.1899 -0.5771
vn -0.7947 -0.1876 -0.5773
vn -0.9041 -0.3837 -0.1882
vn -0.7943 0.1899 0.5771
vn -0.7937 -0.1939 0.5766
vn -0.5220 -0.4689 0.7124
vn 0.2983 0.2614 0.9180
vn 0.3031 -0.1939 0.9330
vn 0.5162 -0.4689 0.7166
vn 0.9818 0.1899 0.0000
vn 0.9810 -0.1940 0.0000
vn 0.8411 -0.4689 -0.2695
vn 0.1892 -0.7907 -0.5822
vn 0.0627 -0.6446 -0.7620
vn -0.4089 -0.6617 -0.6284
vn -0.4911 -0.7947 -0.3568
vn -0.7640 -0.6255 -0.1582
vn -0.4889 -0.7910 0.3678
vn -0.4272 -0.6912 0.5829
vn 0.7872 -0.5628 -0.2522
vn 0.6122 -0.7907 0.0000
vn 0.2692 -0.9631 0.0000
vn 0.1809 -0.7952 0.5787
vn 0.4831 -0.5628 0.6707
s off
f 3/1/1 8/2/1 10/3/1
f 3/1/2 10/3/2 7/4/2
f 1/5/3 11/6/3 19/7/3
f 6/8/4 13/9/4 16/10/4
f 5/11/5 15/12/5 18/13/5
f 9/14/6 17/15/6 20/16/6
f 1/5/7 19/7/7 22/17/7
f 12/18/8 21/19/8 14/20/8
f 29/21/9 27/22/9 2/23/9
f 27/22/10 26/24/10 2/23/10
f 2/23/11 26/24/11 31/25/11
f 26/24/12 25/26/12 31/25/12
f 31/25/13 30/27/13 2/23/13
f 31/25/14 25/26/14 30/27/14
f 25/26/15 24/28/15 30/27/15
f 30/27/16 28/29/16 2/23/16
f 30/27/17 24/28/17 28/29/17
f 28/29/18 29/21/18 2/23/18
f 28/29/19 23/30/19 29/21/19
f 23/30/20 27/22/20 29/21/20
f 14/20/21 21/31/21 27/22/21
f 21/31/22 26/24/22 27/22/22
f 22/32/23 19/33/23 26/24/23
f 19/33/24 25/26/24 26/24/24
f 20/34/25 17/35/25 25/26/25
f 17/35/26 24/28/26 25/26/26
f 18/36/27 15/37/27 24/28/27
f 15/37/28 28/29/28 24/28/28
f 16/38/29 23/30/29 28/29/29
f 16/38/30 13/39/30 23/30/30
f 13/39/31 27/22/31 23/30/31
f 21/31/32 22/32/32 26/24/32
f 21/19/33 12/18/33 22/17/33
f 12/18/34 1/5/34 22/17/34
f 19/33/35 20/34/35 25/26/35
f 19/7/36 11/6/36 20/16/36
f 11/6/37 9/14/37 20/16/37
f 17/35/38 18/36/38 24/28/38
f 17/15/39 9/14/39 18/13/39
f 9/14/40 5/11/40 18/13/40
f 15/37/41 16/38/41 28/29/41
f 15/12/42 5/11/42 16/10/42
f 5/11/43 6/8/43 16/10/43
f 13/39/44 14/20/44 27/22/44
f 13/9/45 6/8/45 14/20/45
f 6/8/46 12/18/46 14/20/46
f 7/4/47 10/3/47 12/18/47
f 10/3/48 1/5/48 12/18/48
f 10/3/49 11/6/49 1/5/49
f 10/3/50 8/2/50 11/6/50
f 8/2/51 9/14/51 11/6/51
f 8/2/52 3/1/52 9/14/52
f 3/1/53 5/11/53 9/14/53
f 6/8/54 7/4/54 12/18/54
f 6/8/55 4/40/55 7/4/55
f 4/40/56 3/1/56 7/4/56
f 3/1/57 4/40/57 5/11/57
f 4/40/58 6/8/58 5/11/58
