# Blender v2.78 (sub 0) OBJ File: 'Low_Poly_Vegetation_Pack.blend'
# www.blender.org
g Bush_a_l_03
v -1.191167 0.620194 -0.050302
v -1.212125 1.133733 0.202658
v -1.106495 1.678693 -0.177161
v -1.150867 0.801268 -0.703051
v -0.804746 0.426443 0.826505
v -0.891948 1.593908 0.465628
v -1.237512 1.180257 -0.484047
v -0.931130 0.333164 -0.630729
v -0.144098 0.875569 -1.528868
v -0.928268 0.829049 -1.037496
v -0.064677 1.621080 -1.426498
v 0.632990 0.667671 -1.365276
v -0.259977 0.376080 -1.281590
v -0.131100 0.046495 -1.106593
v -0.957222 1.336687 -1.007879
v 0.600836 1.453082 -1.382240
v 0.304783 2.022920 -1.153167
v 0.412805 0.017427 -1.069444
v 1.652928 1.010286 0.631618
v 1.763495 1.084767 0.006664
v 1.674256 0.841041 -0.392625
v 1.326139 1.790102 0.488437
v 1.235519 0.909018 1.182085
v 1.548762 0.342871 0.626613
v 1.227207 -0.168214 0.554775
v 1.618387 0.258481 -0.081296
v 1.102628 0.003217 -0.626265
v 1.005442 -0.365218 -0.062938
v 1.302898 1.848055 -0.334263
v 1.305807 1.558335 -0.808219
v 1.000455 1.411914 1.163269
v 0.916464 1.966085 0.690364
v 1.048187 0.254712 1.171375
v -0.053205 0.874692 1.344256
v 0.905954 0.886684 1.306430
v -0.734502 1.050134 0.991145
v -0.172909 0.541200 1.327256
v -0.168094 0.132157 1.144210
v -0.262939 1.537157 1.048130
v -0.910666 0.159963 -0.216718
v 0.297652 -0.509530 -0.129373
v 0.415297 -0.353763 -0.599761
v 0.638733 -0.499873 0.372385
v -0.678978 -0.023217 0.361074
v 0.310742 2.292192 -0.050139
v -0.704238 1.973375 -0.358129
v -0.196284 1.942076 -1.073518
v -0.614105 1.966408 0.261058
v 0.230922 2.277249 -0.679835
v 0.707694 2.223135 -0.603506
v -0.835259 1.787393 -0.763964
v 0.532783 2.081120 0.568280
v 0.842423 1.729700 0.991479
v -0.091103 -0.236033 -0.714132
v 1.382573 0.815126 -0.911445
v 0.724368 2.232698 0.132389
v -0.311631 -0.130367 0.741399
v 0.846450 -0.224941 0.856310
vt 0.5609 0.9849
vt 0.5619 0.9929
vt 0.5474 0.9888
vt 0.5501 0.9721
vt 0.5581 0.9750
vt 0.5439 0.9806
vt 0.5492 0.8926
vt 0.5577 0.8971
vt 0.5515 0.9028
vt 0.5433 0.9024
vt 0.5363 0.9050
vt 0.5390 0.8951
vt 0.5447 0.9113
vt 0.5364 0.9131
vt 0.5503 0.9101
vt 0.5362 0.9705
vt 0.5365 0.9629
vt 0.5443 0.9676
vt 0.5486 0.9507
vt 0.5460 0.9442
vt 0.5468 0.9303
vt 0.5530 0.9231
vt 0.5580 0.9305
vt 0.5660 0.9300
vt 0.5650 0.9388
vt 0.5586 0.9232
vt 0.5642 0.9223
vt 0.5792 0.9432
vt 0.5733 0.9476
vt 0.5729 0.9399
vt 0.5759 0.9560
vt 0.5691 0.9537
vt 0.5658 0.9479
vt 0.5700 0.9609
vt 0.5691 0.9254
vt 0.5765 0.9306
vt 0.5729 0.9359
vt 0.5873 0.9152
vt 0.5811 0.9115
vt 0.5876 0.9074
vt 0.5759 0.9639
vt 0.5808 0.9525
vt 0.5830 0.9639
vt 0.5794 0.9872
vt 0.5745 0.9849
vt 0.5896 0.9687
vt 0.5710 0.9793
vt 0.5778 0.8903
vt 0.5691 0.8977
vt 0.5639 0.8876
vt 0.5658 0.9750
vt 0.5562 0.9575
vt 0.5533 0.9527
vt 0.5644 0.9593
vt 0.5621 0.9535
vt 0.5547 0.9076
vt 0.5610 0.9186
vt 0.5548 0.9175
vt 0.5593 0.9033
vt 0.5650 0.9148
vt 0.5707 0.9120
vt 0.5690 0.9181
vt 0.5772 0.9110
vt 0.5743 0.9156
vt 0.5571 0.9404
vt 0.5588 0.9486
vt 0.5567 0.9383
vt 0.5850 0.9493
vt 0.5754 0.9207
vt 0.5829 0.9251
vt 0.5894 0.9603
vt 0.5705 0.8838
vn -0.8565 -0.0394 0.5146
vn -0.8184 -0.5540 0.1526
vn -0.8521 0.4002 0.3372
vn -0.9809 -0.1631 -0.1058
vn -0.8875 0.0610 -0.4567
vn -0.8318 -0.0151 -0.5549
vn -0.9732 0.2243 0.0512
vn -0.8561 0.4052 -0.3207
vn -0.7361 -0.4267 -0.5254
vn -0.4957 -0.2902 -0.8186
vn -0.4621 0.1688 -0.8706
vn 0.0973 0.1252 -0.9873
vn 0.6067 0.1705 -0.7764
vn 0.4979 0.6311 -0.5948
vn 0.9797 -0.1591 -0.1219
vn -0.8749 -0.4545 -0.1672
vn 0.7124 -0.7010 -0.0322
vn 0.6706 -0.6685 -0.3215
vn 0.4603 -0.8802 0.1155
vn 0.8744 0.4164 -0.2491
vn 0.8576 0.1566 -0.4899
vn 0.3351 0.1912 0.9226
vn 0.3859 -0.8634 0.3249
vn 0.6760 -0.5013 0.5401
vn 0.0401 -0.0652 0.9971
vn 0.0379 -0.5597 0.8278
vn -0.0443 0.3960 0.9172
vn -0.3869 0.2715 0.8813
vn -0.5425 -0.3484 0.7644
vn -0.6385 -0.6325 0.4385
vn -0.4756 -0.8754 -0.0868
vn -0.5290 -0.7134 -0.4596
vn -0.4796 -0.8729 -0.0894
vn -0.1387 -0.9293 -0.3424
vn 0.2162 -0.9417 -0.2578
vn -0.1211 -0.8399 0.5291
vn -0.3925 -0.9116 0.1223
vn -0.3895 0.8657 -0.3144
vn 0.1711 0.8788 -0.4455
vn -0.3148 0.9475 0.0565
vn -0.5615 0.8224 0.0910
vn -0.6269 0.7649 -0.1481
vn -0.3562 0.8877 -0.2918
vn -0.1918 0.9057 0.3780
vn -0.4723 0.6681 0.5750
vn -0.0076 0.9455 0.3255
vn 0.0363 0.7817 0.6226
vn -0.0928 0.7316 0.6754
vn -0.9107 -0.2118 0.3546
vn -0.8294 -0.4967 0.2558
vn -0.8113 0.2674 0.5198
vn -0.9978 -0.0570 0.0330
vn -0.8454 0.4230 -0.3261
vn -0.4831 0.5319 -0.6955
vn -0.5796 -0.5148 -0.6317
vn -0.5638 -0.5484 -0.6176
vn -0.5317 0.0191 -0.8467
vn 0.0566 -0.4424 -0.8950
vn 0.2027 -0.0129 -0.9792
vn 0.5175 0.0027 -0.8557
vn 0.1702 0.4424 -0.8805
vn 0.4858 0.5314 -0.6940
vn -0.2208 0.6792 -0.7000
vn 0.0513 -0.4526 -0.8902
vn -0.0244 -0.7972 -0.6033
vn 0.4995 -0.4620 -0.7328
vn 0.9762 -0.1712 0.1332
vn 0.3577 -0.7317 -0.5802
vn 0.8740 0.4762 0.0963
vn 0.8322 -0.3213 -0.4518
vn 0.8280 -0.5414 0.1460
vn 0.7469 -0.4344 -0.5034
vn 0.3970 -0.7980 -0.4534
vn 0.5600 0.8284 0.0114
vn 0.7138 0.3864 0.5841
vn 0.8988 0.2551 -0.3566
vn 0.6118 0.6766 -0.4098
vn 0.5452 0.5905 0.5951
vn 0.7692 -0.1769 0.6141
vn 0.4801 0.8443 0.2381
vn 0.1343 0.9906 -0.0273
vn 0.5466 -0.6081 0.5758
vn 0.3575 -0.1175 0.9265
vn 0.0801 -0.1910 0.9783
vn 0.0207 -0.4082 0.9127
vn -0.1230 -0.8108 0.5723
vn -0.0350 0.4617 0.8863
vn 0.0349 0.2570 0.9658
vn -0.4348 0.1105 0.8937
vn -0.5735 0.4774 0.6658
vn -0.5991 -0.1406 0.7882
vn -0.5621 -0.5869 0.5828
vn -0.5556 -0.7764 -0.2974
vn 0.2094 -0.9700 -0.1237
vn -0.2824 -0.9360 0.2100
vn -0.3040 0.9525 0.0159
vn -0.2141 0.8461 -0.4881
vn -0.2262 0.8092 0.5422
vn -0.6711 0.6722 0.3127
vn 0.1512 0.9112 0.3833
s off
f 5/1/1 36/2/1 2/3/1
f 40/4/2 44/5/2 1/6/2
f 2/7/3 6/8/3 3/9/3
f 7/10/4 4/11/4 1/12/4
f 7/10/5 15/13/5 4/11/5
f 15/13/6 10/14/6 4/11/6
f 2/7/7 3/9/7 7/10/7
f 3/9/8 51/15/8 15/13/8
f 4/16/9 10/17/9 8/18/9
f 13/19/10 10/17/10 9/20/10
f 9/21/11 15/13/11 11/22/11
f 11/22/12 16/23/12 9/21/12
f 16/23/13 30/24/13 55/25/13
f 17/26/14 50/27/14 30/24/14
f 20/28/15 26/29/15 21/30/15
f 8/18/16 40/4/16 1/6/16 4/16/16
f 25/31/17 28/32/17 26/29/17
f 28/32/18 27/33/18 26/29/18
f 43/34/19 28/32/19 25/31/19
f 30/24/20 29/35/20 20/36/20
f 55/25/21 30/24/21 21/37/21
f 23/38/22 31/39/22 35/40/22
f 25/31/23 58/41/23 43/34/23
f 24/42/24 33/43/24 25/31/24
f 34/44/25 37/45/25 35/46/25
f 38/47/26 58/41/26 33/43/26
f 34/48/27 31/39/27 39/49/27
f 39/49/28 36/50/28 34/48/28
f 37/45/29 5/1/29 38/47/29
f 5/1/30 44/5/30 57/51/30
f 40/4/31 54/52/31 44/5/31
f 8/18/32 14/53/32 54/52/32
f 44/5/33 54/52/33 41/54/33
f 54/52/34 42/55/34 41/54/34
f 41/54/35 42/55/35 28/32/35
f 43/34/36 58/41/36 57/51/36
f 41/54/37 57/51/37 44/5/37
f 46/56/38 49/57/38 47/58/38
f 49/57/39 50/27/39 17/26/39
f 46/56/40 48/59/40 45/60/40
f 46/56/41 3/9/41 48/59/41
f 46/56/42 51/15/42 3/9/42
f 47/58/43 51/15/43 46/56/43
f 45/60/44 48/59/44 52/61/44
f 48/59/45 6/8/45 39/49/45
f 52/61/46 56/62/46 45/60/46
f 53/63/47 32/64/47 52/61/47
f 39/49/48 53/63/48 52/61/48
f 2/3/49 1/6/49 5/1/49
f 1/6/50 44/5/50 5/1/50
f 2/7/51 36/50/51 6/8/51
f 2/7/52 7/10/52 1/12/52
f 7/10/53 3/9/53 15/13/53
f 51/15/54 47/58/54 11/22/54 15/13/54
f 13/19/55 8/18/55 10/17/55
f 13/19/56 14/53/56 8/18/56
f 9/21/57 10/14/57 15/13/57
f 14/53/58 9/20/58 12/65/58 18/66/58
f 9/21/59 16/23/59 12/67/59
f 12/65/60 16/23/60 55/25/60
f 11/22/61 17/26/61 16/23/61
f 16/23/62 17/26/62 30/24/62
f 47/58/63 17/26/63 11/22/63
f 9/20/64 14/53/64 13/19/64
f 54/52/65 14/53/65 18/66/65 42/55/65
f 27/33/66 18/66/66 12/65/66 55/25/66
f 26/29/67 20/28/67 19/68/67 24/42/67
f 18/66/68 27/33/68 42/55/68
f 22/69/69 19/70/69 20/36/69 29/35/69
f 21/30/70 26/29/70 55/25/70
f 24/42/71 25/31/71 26/29/71
f 26/29/72 27/33/72 55/25/72
f 28/32/73 42/55/73 27/33/73
f 56/62/74 22/69/74 29/35/74 50/27/74
f 31/39/75 23/38/75 19/70/75 22/69/75
f 21/37/76 30/24/76 20/36/76
f 29/35/77 30/24/77 50/27/77
f 53/63/78 31/39/78 22/69/78 32/64/78
f 24/42/79 19/68/79 23/71/79 33/43/79
f 22/69/80 56/62/80 32/64/80
f 50/27/81 49/57/81 45/60/81 56/62/81
f 25/31/82 33/43/82 58/41/82
f 23/71/83 35/46/83 33/43/83
f 35/46/84 37/45/84 33/43/84
f 37/45/85 38/47/85 33/43/85
f 38/47/86 57/51/86 58/41/86
f 39/49/87 31/39/87 53/63/87
f 34/48/88 35/40/88 31/39/88
f 34/48/89 36/50/89 37/72/89
f 36/50/90 39/49/90 6/8/90
f 37/45/91 36/2/91 5/1/91
f 38/47/92 5/1/92 57/51/92
f 40/4/93 8/18/93 54/52/93
f 43/34/94 41/54/94 28/32/94
f 41/54/95 43/34/95 57/51/95
f 46/56/96 45/60/96 49/57/96
f 47/58/97 49/57/97 17/26/97
f 52/61/98 48/59/98 39/49/98
f 48/59/99 3/9/99 6/8/99
f 52/61/100 32/64/100 56/62/100
