# Blender v2.78 (sub 0) OBJ File: 'Low_Poly_Vegetation_Pack.blend'
# www.blender.org
g Bush_a_m_01
v -0.612418 0.992510 0.333057
v -0.597172 1.557914 0.118197
v -0.611047 0.435301 0.034766
v -0.586844 0.287901 -0.157204
v -0.574654 0.397379 0.336472
v -0.567454 1.461935 0.379994
v -0.609226 1.335639 -0.246261
v -0.567644 1.524526 -0.334639
v -0.606080 0.725522 -0.391259
v -0.480486 0.292261 -0.441593
v -0.041678 1.537967 -0.618123
v 0.391379 1.015916 -0.618995
v 0.052234 0.358664 -0.619483
v -0.382010 0.880713 -0.623124
v -0.231597 0.382370 -0.602213
v -0.487889 0.546858 -0.538795
v -0.379779 1.285437 -0.601507
v 0.218860 1.525232 -0.600595
v 0.485023 1.383010 -0.533709
v 0.380842 0.609498 -0.601660
v 0.612418 0.992510 -0.333057
v 0.561092 0.866834 -0.505290
v 0.597172 1.557914 -0.118197
v 0.611047 0.435301 -0.034766
v 0.586844 0.287901 0.157204
v 0.574654 0.397379 -0.336472
v 0.567454 1.461935 -0.379994
v 0.609226 1.335639 0.246261
v 0.567644 1.524526 0.334639
v 0.606080 0.725522 0.391259
v 0.480486 0.292261 0.441593
v 0.041678 1.537967 0.618123
v -0.391379 1.015916 0.618995
v -0.052234 0.358664 0.619483
v 0.382010 0.880713 0.623124
v 0.231597 0.382370 0.602213
v 0.487889 0.546858 0.538795
v 0.379779 1.285437 0.601507
v -0.218860 1.525232 0.600595
v -0.485023 1.383010 0.533709
v -0.380842 0.609498 0.601660
v 0.058024 -0.200519 0.099792
v -0.072765 -0.154247 -0.251206
v 0.251551 -0.154135 -0.072726
v 0.069679 -0.115995 0.315898
v -0.251551 -0.154135 0.072726
v -0.193039 0.069345 -0.490047
v -0.389190 -0.058450 -0.152425
v -0.407039 0.070996 -0.335152
v 0.489048 0.071082 -0.194873
v 0.211801 -0.041776 -0.374688
v 0.447374 0.156302 -0.373799
v 0.193039 0.069345 0.490047
v 0.389190 -0.058450 0.152425
v 0.407039 0.070996 0.335152
v -0.489048 0.071082 0.194873
v -0.211801 -0.041776 0.374688
v -0.447374 0.156302 0.373799
v -0.298819 1.794121 -0.217541
v 0.225164 1.797324 -0.291362
v 0.376673 1.756792 -0.345803
v -0.346874 1.756782 -0.375819
v -0.225164 1.797324 0.291362
v -0.376673 1.756792 0.345803
v 0.291478 1.797310 0.224603
v 0.346874 1.756782 0.375819
v -0.525468 0.101722 -0.116440
v -0.561092 0.866835 0.505290
v -0.516671 1.745819 0.064034
v -0.493841 1.670971 -0.320996
v -0.493674 1.437825 -0.496229
v -0.561092 1.023166 -0.505290
v 0.321555 0.249995 -0.535581
v 0.032543 0.061668 -0.512920
v -0.065027 1.745645 -0.520969
v 0.419129 1.636924 -0.471160
v 0.488230 0.417741 -0.491351
v 0.525468 0.101722 0.116440
v 0.516671 1.745819 -0.064034
v 0.493841 1.670971 0.320996
v 0.493674 1.437825 0.496229
v 0.561092 1.023166 0.505290
v -0.321555 0.249995 0.535581
v -0.032543 0.061668 0.512920
v 0.065027 1.745645 0.520969
v -0.419129 1.636924 0.471160
v -0.488230 0.417741 0.491351
v -0.367321 1.591660 -0.529859
v 0.367321 1.591660 0.529859
vt 0.5520 0.9776
vt 0.5598 0.9809
vt 0.5544 0.9881
vt 0.5618 0.9906
vt 0.5542 0.8862
vt 0.5605 0.8924
vt 0.5554 0.8969
vt 0.5653 0.8951
vt 0.5581 0.9012
vt 0.5615 0.8816
vt 0.5656 0.8896
vt 0.5495 0.9061
vt 0.5478 0.9026
vt 0.5434 0.9696
vt 0.5519 0.9717
vt 0.5507 0.9644
vt 0.5554 0.9706
vt 0.5378 0.9650
vt 0.5457 0.9622
vt 0.5416 0.9561
vt 0.5561 0.9514
vt 0.5512 0.9571
vt 0.5395 0.9189
vt 0.5461 0.9154
vt 0.5539 0.9204
vt 0.5397 0.9092
vt 0.5476 0.9106
vt 0.5511 0.9131
vt 0.5608 0.9345
vt 0.5657 0.9288
vt 0.5695 0.9394
vt 0.5600 0.9243
vt 0.5576 0.9167
vt 0.5660 0.9233
vt 0.5605 0.9363
vt 0.5624 0.9447
vt 0.5634 0.9509
vt 0.5593 0.9564
vt 0.5670 0.9476
vt 0.5793 0.9524
vt 0.5714 0.9490
vt 0.5769 0.9419
vt 0.5771 0.9322
vt 0.5708 0.9260
vt 0.5759 0.9215
vt 0.5732 0.9172
vt 0.5697 0.9379
vt 0.5818 0.9123
vt 0.5835 0.9158
vt 0.5879 0.9604
vt 0.5794 0.9582
vt 0.5806 0.9656
vt 0.5759 0.9594
vt 0.5935 0.9650
vt 0.5856 0.9678
vt 0.5897 0.9739
vt 0.5752 0.9786
vt 0.5801 0.9729
vt 0.5918 0.8995
vt 0.5852 0.9030
vt 0.5774 0.8980
vt 0.5916 0.9092
vt 0.5836 0.9078
vt 0.5802 0.9053
vt 0.5705 0.8839
vt 0.5712 0.8941
vt 0.5737 0.9017
vt 0.5709 0.9924
vt 0.5689 0.9853
vt 0.5679 0.9791
vt 0.5720 0.9736
vt 0.5643 0.9824
vt 0.5617 0.9625
vt 0.5558 0.9600
vt 0.5632 0.9689
vt 0.5584 0.9677
vt 0.5549 0.9652
vt 0.5681 0.9611
vt 0.5706 0.9552
vt 0.5728 0.9623
vt 0.5640 0.9567
vt 0.5676 0.9524
vt 0.5704 0.9685
vt 0.5755 0.9700
vt 0.5674 0.9658
vt 0.5764 0.9648
vt 0.5607 0.9748
vt 0.5672 0.9733
vt 0.5637 0.9776
vt 0.5656 0.9163
vt 0.5668 0.9196
vt 0.5585 0.9092
vt 0.5552 0.9103
vt 0.5527 0.9073
vt 0.5657 0.9021
vt 0.5645 0.8988
vt 0.5727 0.9092
vt 0.5760 0.9081
vt 0.5785 0.9111
vt 0.5411 0.9015
vt 0.5485 0.8867
vt 0.5408 0.9786
vt 0.5902 0.9169
vt 0.5828 0.9317
vt 0.5904 0.9514
vn -0.9918 -0.0623 0.1118
vn -0.9678 -0.0600 0.2446
vn -0.9867 0.0804 0.1415
vn -0.7981 0.5063 0.3266
vn -0.8552 0.0980 0.5089
vn -0.9807 0.1798 -0.0772
vn -0.9246 0.3708 -0.0876
vn -0.9948 -0.0785 -0.0651
vn -0.8720 -0.3601 -0.3316
vn -0.8267 -0.0880 -0.5557
vn -0.5654 -0.0289 -0.8243
vn -0.0657 -0.0616 -0.9959
vn -0.0889 0.0536 -0.9946
vn -0.5219 0.0484 -0.8516
vn -0.4895 0.2175 -0.8444
vn 0.5806 0.0408 -0.8131
vn 0.0699 0.0597 -0.9958
vn 0.0815 0.4298 -0.8992
vn 0.3857 0.3138 -0.8676
vn 0.0881 -0.0447 -0.9951
vn 0.1506 -0.3427 -0.9273
vn 0.5253 -0.0499 -0.8494
vn 0.4620 -0.2335 -0.8556
vn 0.9918 -0.0623 -0.1118
vn 0.9678 -0.0600 -0.2446
vn 0.9867 0.0804 -0.1415
vn 0.7981 0.5063 -0.3266
vn 0.8552 0.0980 -0.5089
vn 0.9807 0.1798 0.0772
vn 0.9246 0.3708 0.0876
vn 0.9948 -0.0785 0.0651
vn 0.8720 -0.3601 0.3316
vn 0.8267 -0.0880 0.5557
vn 0.5654 -0.0289 0.8243
vn 0.0657 -0.0616 0.9959
vn 0.0889 0.0536 0.9946
vn 0.5219 0.0484 0.8516
vn 0.4895 0.2175 0.8444
vn -0.5806 0.0408 0.8131
vn -0.0699 0.0597 0.9958
vn -0.0815 0.4298 0.8992
vn -0.3857 0.3138 0.8676
vn -0.0881 -0.0447 0.9951
vn -0.1506 -0.3427 0.9273
vn -0.5253 -0.0499 0.8494
vn -0.4620 -0.2335 0.8556
vn -0.0920 -0.7496 -0.6554
vn -0.3374 -0.9228 -0.1859
vn -0.3758 -0.7731 -0.5110
vn -0.7545 -0.5681 -0.3287
vn 0.6613 -0.7450 -0.0877
vn 0.7587 -0.6510 -0.0247
vn 0.2010 -0.9091 -0.3648
vn 0.5733 -0.6798 -0.4573
vn 0.4694 -0.5552 -0.6866
vn 0.0946 -0.7144 0.6933
vn 0.3666 -0.9156 0.1650
vn 0.3277 -0.8857 0.3288
vn 0.3758 -0.7731 0.5110
vn 0.7545 -0.5681 0.3287
vn -0.6613 -0.7450 0.0877
vn -0.7587 -0.6510 0.0247
vn -0.5733 -0.6798 0.4573
vn -0.4694 -0.5552 0.6866
vn 0.1188 0.9259 -0.3586
vn -0.3515 0.9294 -0.1125
vn -0.9531 -0.2903 0.0860
vn -0.5625 0.6002 -0.5687
vn -0.1188 0.9259 0.3586
vn 0.3604 0.9256 0.1160
vn 0.5625 0.6002 0.5687
vn -0.8541 -0.1540 0.4968
vn -0.9606 -0.2652 0.0825
vn -0.9642 0.0646 -0.2571
vn -0.8411 -0.3853 0.3794
vn -0.7993 -0.3459 0.4915
vn -0.8583 0.4426 0.2597
vn -0.9443 0.0581 0.3238
vn -0.7478 0.3352 0.5731
vn -1.0000 0.0004 -0.0053
vn -0.9994 0.0321 0.0135
vn -0.7001 0.4287 -0.5710
vn -0.8656 0.1512 -0.4774
vn -0.8788 0.4560 -0.1407
vn -0.0946 -0.3386 -0.9362
vn -0.9999 -0.0021 -0.0131
vn -0.9117 -0.2243 -0.3444
vn -0.8682 -0.1988 -0.4547
vn -0.3192 -0.1357 -0.9379
vn -0.4181 -0.3440 -0.8408
vn 0.9531 -0.2903 -0.0860
vn -0.2189 0.2307 -0.9481
vn -0.1776 0.4005 -0.8989
vn -0.5885 0.1132 -0.8005
vn 0.0044 0.0053 -1.0000
vn 0.3107 0.1392 -0.9403
vn 0.2080 0.5581 -0.8033
vn 0.0057 -0.0022 -1.0000
vn 0.2124 -0.2104 -0.9543
vn 0.5973 -0.1215 -0.7927
vn 0.8541 -0.1540 -0.4968
vn 0.9606 -0.2652 -0.0825
vn 0.9642 0.0646 0.2571
vn 0.8411 -0.3853 -0.3794
vn 0.7993 -0.3459 -0.4915
vn 0.8583 0.4426 -0.2597
vn 0.9443 0.0581 -0.3238
vn 0.7478 0.3352 -0.5731
vn 1.0000 0.0004 0.0053
vn 0.9994 0.0321 -0.0135
vn 0.7001 0.4287 0.5710
vn 0.8656 0.1512 0.4774
vn 0.8788 0.4560 0.1407
vn 0.0946 -0.3386 0.9362
vn 0.9999 -0.0021 0.0131
vn 0.9117 -0.2243 0.3444
vn 0.8682 -0.1988 0.4547
vn 0.3192 -0.1357 0.9379
vn 0.4181 -0.3440 0.8408
vn -0.1673 -0.9160 0.3647
vn 0.2189 0.2307 0.9481
vn 0.1776 0.4005 0.8989
vn 0.5885 0.1132 0.8005
vn -0.0044 0.0053 1.0000
vn -0.3107 0.1392 0.9403
vn -0.2080 0.5581 0.8033
vn -0.0057 -0.0022 1.0000
vn -0.2124 -0.2104 0.9543
vn -0.5973 -0.1215 0.7927
vn -0.1411 -0.9870 -0.0775
vn -0.3917 -0.7618 -0.5159
vn -0.5088 -0.5045 -0.6976
vn -0.8104 -0.4497 -0.3756
vn 0.0901 -0.9825 -0.1631
vn 0.5407 -0.7627 -0.3550
vn 0.0351 -0.7778 -0.6276
vn 0.2927 -0.5438 -0.7865
vn 0.5928 -0.4055 -0.6958
vn 0.4014 -0.7547 0.5189
vn 0.5088 -0.5045 0.6976
vn 0.8104 -0.4497 0.3756
vn 0.2034 0.9783 -0.0391
vn -0.5407 -0.7627 0.3550
vn -0.0640 -0.7574 0.6498
vn -0.2927 -0.5438 0.7865
vn -0.5928 -0.4055 0.6958
vn -0.0060 1.0000 0.0008
vn 0.2313 0.7411 -0.6303
vn -0.0417 0.9811 -0.1888
vn 0.7216 0.6059 -0.3349
vn -0.5471 0.8150 -0.1909
vn -0.2018 0.9787 0.0370
vn -0.3201 0.6672 -0.6727
vn -0.2313 0.7411 0.6303
vn 0.0397 0.9788 0.2010
vn -0.7216 0.6059 0.3349
vn -0.0008 1.0000 -0.0062
vn 0.5471 0.8150 0.1909
vn 0.3201 0.6672 0.6727
s off
f 3/1/1 5/2/1 1/3/1
f 1/3/2 5/2/2 68/4/2
f 1/5/3 6/6/3 2/7/3
f 6/6/4 86/8/4 69/9/4
f 68/10/5 40/11/5 6/6/5
f 2/7/6 8/12/6 7/13/6
f 2/7/7 69/9/7 8/12/7
f 9/14/8 4/15/8 3/1/8
f 4/15/9 10/16/9 67/17/9
f 72/18/10 16/19/10 9/14/10
f 14/20/11 16/19/11 72/18/11
f 13/21/12 15/22/12 14/20/12
f 14/23/13 17/24/13 11/25/13
f 14/23/14 72/26/14 17/24/14
f 17/24/15 71/27/15 88/28/15
f 12/29/16 19/30/16 22/31/16
f 11/25/17 18/32/17 12/29/17
f 11/25/18 75/33/18 18/32/18
f 18/32/19 76/34/19 19/30/19
f 12/35/20 20/36/20 13/21/20
f 13/21/21 73/37/21 74/38/21
f 12/29/22 22/31/22 20/36/22
f 20/36/23 77/39/23 73/37/23
f 24/40/24 26/41/24 21/42/24
f 21/42/25 26/41/25 22/31/25
f 21/43/26 27/44/26 23/45/26
f 27/44/27 76/34/27 79/46/27
f 22/47/28 19/30/28 27/44/28
f 23/45/29 29/48/29 28/49/29
f 23/45/30 79/46/30 29/48/30
f 30/50/31 25/51/31 24/40/31
f 25/51/32 31/52/32 78/53/32
f 82/54/33 37/55/33 30/50/33
f 35/56/34 37/55/34 82/54/34
f 34/57/35 36/58/35 35/56/35
f 35/59/36 38/60/36 32/61/36
f 35/59/37 82/62/37 38/60/37
f 38/60/38 81/63/38 89/64/38
f 33/65/39 40/11/39 68/10/39
f 32/61/40 39/66/40 33/65/40
f 32/61/41 85/67/41 39/66/41
f 39/66/42 86/8/42 40/11/42
f 33/68/43 41/69/43 34/57/43
f 34/57/44 83/70/44 84/71/44
f 33/68/45 68/4/45 41/69/45
f 41/69/46 87/72/46 83/70/46
f 43/73/47 47/74/47 74/38/47
f 46/75/48 48/76/48 43/73/48
f 48/76/49 49/77/49 47/74/49
f 67/17/50 49/77/50 48/76/50
f 44/78/51 50/79/51 54/80/51
f 50/79/52 78/53/52 54/80/52
f 43/73/53 51/81/53 44/78/53
f 51/81/54 52/82/54 50/79/54
f 51/81/55 73/37/55 52/82/55
f 45/83/56 53/84/56 84/71/56
f 44/78/57 54/80/57 42/85/57
f 42/85/58 54/80/58 45/83/58
f 54/80/59 55/86/59 53/84/59
f 78/53/60 55/86/60 54/80/60
f 46/75/61 56/87/61 48/76/61
f 56/87/62 67/17/62 48/76/62
f 57/88/63 58/89/63 56/87/63
f 57/88/64 83/70/64 58/89/64
f 60/90/65 61/91/65 75/33/65
f 59/92/66 62/93/66 69/9/66
f 56/87/67 5/2/67 4/15/67 67/17/67
f 62/93/68 88/28/68 70/94/68
f 63/95/69 64/96/69 85/67/69
f 65/97/70 66/98/70 79/46/70
f 66/98/71 89/64/71 80/99/71
f 68/4/72 5/2/72 87/72/72
f 3/1/73 4/15/73 5/2/73
f 8/12/74 72/26/74 9/100/74 7/13/74
f 5/2/75 56/87/75 58/89/75
f 5/2/76 58/89/76 87/72/76
f 2/7/77 6/6/77 69/9/77
f 1/5/78 68/10/78 6/6/78
f 6/6/79 40/11/79 86/8/79
f 3/101/80 1/5/80 7/13/80
f 1/5/81 2/7/81 7/13/81
f 88/28/82 71/27/82 8/12/82 70/94/82
f 72/26/83 8/12/83 71/27/83
f 8/12/84 69/9/84 70/94/84
f 47/74/85 15/22/85 13/21/85 74/38/85
f 3/1/86 7/102/86 9/14/86
f 4/15/87 9/14/87 10/16/87
f 9/14/88 16/19/88 10/16/88
f 14/20/89 15/22/89 16/19/89
f 10/16/90 16/19/90 15/22/90 47/74/90
f 50/79/91 26/41/91 25/51/91 78/53/91
f 11/25/92 17/24/92 88/28/92
f 11/25/93 88/28/93 75/33/93
f 17/24/94 72/26/94 71/27/94
f 14/23/95 11/25/95 12/29/95
f 12/29/96 18/32/96 19/30/96
f 18/32/97 75/33/97 76/34/97
f 14/20/98 12/35/98 13/21/98
f 13/21/99 20/36/99 73/37/99
f 20/36/100 22/31/100 77/39/100
f 22/31/101 26/41/101 77/39/101
f 24/40/102 25/51/102 26/41/102
f 29/48/103 82/62/103 30/103/103 28/49/103
f 26/41/104 50/79/104 52/82/104
f 26/41/105 52/82/105 77/39/105
f 23/45/106 27/44/106 79/46/106
f 21/43/107 22/47/107 27/44/107
f 27/44/108 19/30/108 76/34/108
f 24/104/109 21/43/109 28/49/109
f 21/43/110 23/45/110 28/49/110
f 89/64/111 81/63/111 29/48/111 80/99/111
f 82/62/112 29/48/112 81/63/112
f 29/48/113 79/46/113 80/99/113
f 53/84/114 36/58/114 34/57/114 84/71/114
f 24/40/115 28/105/115 30/50/115
f 25/51/116 30/50/116 31/52/116
f 30/50/117 37/55/117 31/52/117
f 35/56/118 36/58/118 37/55/118
f 31/52/119 37/55/119 36/58/119 53/84/119
f 57/88/120 46/75/120 42/85/120 45/83/120
f 32/61/121 38/60/121 89/64/121
f 32/61/122 89/64/122 85/67/122
f 38/60/123 82/62/123 81/63/123
f 35/59/124 32/61/124 33/65/124
f 33/65/125 39/66/125 40/11/125
f 39/66/126 85/67/126 86/8/126
f 35/56/127 33/68/127 34/57/127
f 34/57/128 41/69/128 83/70/128
f 41/69/129 68/4/129 87/72/129
f 42/85/130 46/75/130 43/73/130
f 43/73/131 48/76/131 47/74/131
f 47/74/132 49/77/132 10/16/132
f 49/77/133 67/17/133 10/16/133
f 42/85/134 43/73/134 44/78/134
f 44/78/135 51/81/135 50/79/135
f 43/73/136 74/38/136 51/81/136
f 51/81/137 74/38/137 73/37/137
f 52/82/138 73/37/138 77/39/138
f 45/83/139 54/80/139 53/84/139
f 53/84/140 55/86/140 31/52/140
f 55/86/141 78/53/141 31/52/141
f 61/91/142 60/90/142 65/97/142 79/46/142
f 46/75/143 57/88/143 56/87/143
f 45/83/144 84/71/144 57/88/144
f 57/88/145 84/71/145 83/70/145
f 58/89/146 83/70/146 87/72/146
f 59/92/147 65/97/147 60/90/147
f 75/33/148 61/91/148 76/34/148
f 62/93/149 59/92/149 60/90/149 75/33/149
f 61/91/150 79/46/150 76/34/150
f 69/9/151 62/93/151 70/94/151
f 64/96/152 63/95/152 59/92/152 69/9/152
f 62/93/153 75/33/153 88/28/153
f 85/67/154 64/96/154 86/8/154
f 66/98/155 65/97/155 63/95/155 85/67/155
f 64/96/156 69/9/156 86/8/156
f 59/92/157 63/95/157 65/97/157
f 79/46/158 66/98/158 80/99/158
f 66/98/159 85/67/159 89/64/159
