# Blender v2.78 (sub 0) OBJ File: 'Low_Poly_Vegetation_Pack.blend'
# www.blender.org
g Bush_d_m_01
v -0.456825 0.035435 -0.350424
v -0.257419 0.766323 -0.072165
v -0.366415 -0.091140 0.263295
v -0.049918 -0.029210 0.285916
v -0.314146 0.111732 0.645216
v 0.210144 0.111733 0.267537
v -0.049918 -0.029210 -0.094786
v -0.635767 -0.029209 0.095565
v -0.835356 0.111733 0.263295
v -0.735842 0.110894 -0.212433
v 0.012966 0.111733 -0.347800
v 0.273934 0.337592 0.285917
v 0.273934 0.337592 -0.094787
v -0.311917 0.337592 0.711565
v 0.050159 0.337592 0.593919
v -0.897769 0.337592 0.285917
v -0.673993 0.337592 0.593919
v -0.673993 0.337592 -0.402789
v -0.897769 0.337592 -0.094787
v 0.050159 0.337592 -0.402789
v -0.311917 0.337592 -0.520435
v 0.112008 0.564289 0.403563
v -0.636800 0.563450 0.538930
v -0.833978 0.563450 -0.076407
v -0.309688 0.563451 -0.454086
v 0.211522 0.563450 -0.072166
v -0.167009 0.639749 0.541553
v 0.011932 0.704393 0.095565
v -0.569964 0.750530 0.095565
v -0.025897 0.336780 0.521286
v -0.129074 0.026329 -0.111201
v 0.139082 0.033044 -0.509503
v 0.741159 0.133733 -0.282225
v 0.098874 1.308866 -0.260819
v 0.223274 -0.122921 0.013100
v 0.660717 0.053429 0.178692
v 0.493831 0.014053 -0.460473
v 0.893012 0.488054 -0.101618
v 0.391707 0.266003 0.558134
v 0.684616 0.437282 0.416761
v -0.288051 0.312877 0.203148
v -0.175792 0.302800 -0.548000
v -0.375952 0.636802 -0.394000
v 0.619169 0.447103 -0.652597
v 0.357186 0.606908 -0.800334
v 0.639734 0.866379 0.299568
v -0.118998 0.801851 0.453722
v -0.353033 0.833064 -0.051555
v 0.017509 0.830170 -0.675428
v 0.747868 0.873564 -0.366634
v 0.434866 1.281252 -0.058727
v -0.046753 1.137232 0.099041
v 0.315840 1.111006 -0.533467
vt 0.3364 0.9171
vt 0.3433 0.9156
vt 0.3480 0.9262
vt 0.3365 0.9276
vt 0.3522 0.9189
vt 0.3637 0.9258
vt 0.3248 0.9262
vt 0.3140 0.9314
vt 0.3122 0.9152
vt 0.3284 0.9097
vt 0.3202 0.9010
vt 0.3350 0.8943
vt 0.3452 0.9081
vt 0.3509 0.8976
vt 0.3619 0.9096
vt 0.3557 0.9399
vt 0.3394 0.9348
vt 0.3409 0.9466
vt 0.3249 0.9434
vt 0.3063 0.9494
vt 0.3140 0.9482
vt 0.3042 0.9561
vt 0.3108 0.9647
vt 0.2966 0.9582
vt 0.2940 0.9668
vt 0.2868 0.9515
vt 0.2962 0.9438
vt 0.3038 0.9402
vt 0.3267 0.9595
vt 0.3187 0.9737
vt 0.3039 0.9804
vt 0.2879 0.9771
vt 0.2770 0.9651
vt 0.2752 0.9489
vt 0.2832 0.9348
vt 0.2980 0.9281
vt 0.3307 0.9213
vt 0.3367 0.9177
vt 0.3457 0.9134
vt 0.3474 0.9258
vt 0.3400 0.9304
vt 0.3257 0.9218
vt 0.3311 0.9331
vt 0.3185 0.9363
vt 0.3409 0.9466
vt 0.3122 0.9152
vt 0.3470 0.9010
vt 0.3619 0.9096
vt 0.3585 0.9226
vt 0.3557 0.9399
vt 0.2932 0.9732
vt 0.2903 0.9639
vt 0.3005 0.9563
vt 0.3166 0.9674
vt 0.3069 0.9673
vt 0.3073 0.9578
vt 0.3020 0.9485
vt 0.3141 0.9487
vt 0.2937 0.9551
vt 0.2865 0.9526
vt 0.2997 0.9400
vt 0.3267 0.9595
vt 0.3039 0.9804
vt 0.2770 0.9651
vt 0.2752 0.9489
vt 0.2832 0.9348
vt 0.2980 0.9281
vt 0.3227 0.9069
vt 0.3337 0.8984
vn -0.1091 -0.9766 -0.1853
vn -0.0316 -0.9798 -0.1974
vn -0.4898 -0.4784 -0.7289
vn 0.7798 -0.2663 0.5666
vn -0.2979 -0.2664 0.9167
vn -0.9639 -0.2664 0.0000
vn -0.2882 -0.3609 -0.8870
vn 0.7798 -0.2663 -0.5666
vn 0.3804 0.8794 -0.2862
vn 0.3491 0.8069 -0.4764
vn -0.2705 0.8651 -0.4225
vn -0.3139 0.8436 -0.4358
vn -0.6524 0.7285 0.2090
vn 0.0546 0.9795 0.1940
vn -0.1512 0.9187 0.3648
vn 0.1091 0.9766 0.1853
vn 0.3769 0.8831 0.2792
vn 0.6440 0.7533 0.1334
vn 0.7786 0.2718 -0.5657
vn 0.4709 0.6043 -0.6427
vn -0.2974 0.2718 -0.9153
vn -0.4657 0.6043 -0.6465
vn -0.9624 0.2718 0.0000
vn -0.7587 0.6043 0.2431
vn -0.2974 0.2718 0.9153
vn -0.0893 0.5206 0.8491
vn 0.4898 0.4784 0.7289
vn 0.7805 0.2632 0.5671
vn 0.8419 0.5104 0.1752
vn 0.2979 0.2664 -0.9167
vn 0.2974 -0.2718 -0.9153
vn 0.0893 -0.5206 -0.8491
vn -0.7798 0.2663 -0.5666
vn -0.7805 -0.2632 -0.5671
vn -0.8419 -0.5104 -0.1752
vn -0.7798 0.2663 0.5666
vn -0.7786 -0.2718 0.5657
vn -0.4709 -0.6043 0.6427
vn 0.2882 0.3609 0.8870
vn 0.2974 -0.2718 0.9153
vn 0.4657 -0.6043 0.6465
vn 0.9639 0.2664 0.0000
vn 0.9624 -0.2718 0.0000
vn 0.7587 -0.6043 -0.2431
vn 0.1453 -0.8792 -0.4537
vn -0.3769 -0.8831 -0.2792
vn -0.6440 -0.7533 -0.1334
vn -0.3804 -0.8794 0.2862
vn -0.3491 -0.8069 0.4764
vn 0.6826 -0.6972 -0.2187
vn 0.4765 -0.8792 0.0000
vn 0.1920 -0.9814 0.0000
vn 0.1405 -0.8822 0.4494
vn 0.4190 -0.6972 0.5816
vn -0.3115 -0.9231 -0.2253
vn -0.0120 -0.9587 -0.2842
vn 0.9001 -0.4278 0.0825
vn 0.6549 -0.4567 -0.6021
vn 0.9033 -0.2653 0.3371
vn -0.9087 -0.4081 -0.0876
vn -0.2122 -0.3764 -0.9018
vn 0.8884 -0.1618 -0.4295
vn -0.7544 0.5900 -0.2877
vn -0.0185 0.4666 -0.8843
vn 0.3050 0.8696 -0.3883
vn 0.5553 0.7288 -0.4006
vn 0.5216 0.4322 -0.7356
vn -0.2831 0.6549 -0.7006
vn -0.6462 0.5594 -0.5191
vn -0.7147 0.6980 0.0437
vn -0.7394 0.5579 0.3769
vn -0.1506 0.9146 0.3753
vn 0.0083 0.7257 0.6879
vn 0.0910 0.6763 0.7310
vn 0.8339 0.5336 0.1411
vn 0.8942 0.0296 -0.4466
vn 0.6035 0.3104 -0.7345
vn -0.3894 -0.0790 -0.9177
vn -0.5882 0.0203 -0.8085
vn -0.9917 -0.0714 0.1073
vn -0.9011 0.0947 0.4232
vn -0.0651 0.1307 0.9893
vn 0.1603 0.3338 0.9289
vn 0.9024 0.1988 0.3823
vn 0.8874 0.4364 0.1487
vn 0.2163 -0.4476 -0.8677
vn 0.0950 -0.4785 -0.8729
vn -0.8782 -0.4409 -0.1852
vn -0.7680 -0.0611 0.6375
vn 0.2795 0.2801 0.9184
vn 0.5881 -0.4524 0.6704
vn -0.5692 -0.7209 -0.3954
vn -0.4780 -0.7559 0.4473
vn -0.4767 -0.7554 0.4496
vn 0.4749 -0.8772 -0.0700
vn 0.3880 -0.9206 -0.0446
vn -0.1845 -0.7722 0.6080
vn 0.1243 -0.8255 0.5506
s off
f 3/1/1 8/2/1 1/3/1
f 3/1/2 1/3/2 7/4/2
f 1/3/3 10/5/3 18/6/3
f 6/7/4 12/8/4 15/9/4
f 5/10/5 14/11/5 17/12/5
f 9/13/6 16/14/6 19/15/6
f 1/3/7 18/6/7 21/16/7
f 11/17/8 20/18/8 13/19/8
f 28/20/9 26/21/9 2/22/9
f 26/21/10 25/23/10 2/22/10
f 2/22/11 25/23/11 29/24/11
f 25/23/12 24/25/12 29/24/12
f 24/25/13 23/26/13 29/24/13
f 29/24/14 27/27/14 2/22/14
f 29/24/15 23/26/15 27/27/15
f 27/27/16 28/20/16 2/22/16
f 27/27/17 22/28/17 28/20/17
f 22/28/18 26/21/18 28/20/18
f 13/19/19 20/29/19 26/21/19
f 20/29/20 25/23/20 26/21/20
f 21/30/21 18/31/21 25/23/21
f 18/31/22 24/25/22 25/23/22
f 19/32/23 16/33/23 24/25/23
f 16/33/24 23/26/24 24/25/24
f 17/34/25 14/35/25 23/26/25
f 14/35/26 27/27/26 23/26/26
f 15/36/27 22/28/27 27/27/27
f 15/36/28 12/8/28 22/28/28
f 12/8/29 26/21/29 22/28/29
f 20/29/30 21/30/30 25/23/30
f 20/18/31 11/17/31 21/16/31
f 11/17/32 1/3/32 21/16/32
f 18/31/33 19/32/33 24/25/33
f 18/6/34 10/5/34 19/15/34
f 10/5/35 9/13/35 19/15/35
f 16/33/36 17/34/36 23/26/36
f 16/14/37 9/13/37 17/12/37
f 9/13/38 5/10/38 17/12/38
f 14/35/39 15/36/39 27/27/39
f 14/11/40 5/10/40 15/9/40
f 5/10/41 6/7/41 15/9/41
f 12/8/42 13/19/42 26/21/42
f 12/8/43 6/7/43 13/19/43
f 6/7/44 11/17/44 13/19/44
f 7/4/45 1/3/45 11/17/45
f 1/3/46 8/2/46 10/5/46
f 8/2/47 9/13/47 10/5/47
f 8/2/48 3/1/48 9/13/48
f 3/1/49 5/10/49 9/13/49
f 6/7/50 7/4/50 11/17/50
f 6/7/51 4/37/51 7/4/51
f 4/37/52 3/1/52 7/4/52
f 3/1/53 4/37/53 5/10/53
f 4/37/54 6/7/54 5/10/54
f 35/38/55 31/39/55 32/40/55
f 35/38/56 32/40/56 37/41/56
f 36/42/57 33/43/57 38/44/57
f 33/43/58 37/41/58 44/45/58
f 36/42/59 38/44/59 40/46/59
f 31/39/60 41/47/60 43/48/60
f 32/40/61 42/49/61 45/50/61
f 33/43/62 44/45/62 38/44/62
f 43/51/63 48/52/63 34/53/63
f 45/54/64 49/55/64 53/56/64
f 51/57/65 53/56/65 34/53/65
f 51/57/66 50/58/66 53/56/66
f 50/58/67 45/54/67 53/56/67
f 53/56/68 49/55/68 34/53/68
f 49/55/69 43/51/69 34/53/69
f 34/53/70 48/52/70 52/59/70
f 48/52/71 47/60/71 52/59/71
f 52/59/72 51/57/72 34/53/72
f 52/59/73 47/60/73 51/57/73
f 47/60/74 46/61/74 51/57/74
f 46/61/75 50/58/75 51/57/75
f 38/44/76 44/62/76 50/58/76
f 44/62/77 45/54/77 50/58/77
f 45/54/78 42/63/78 49/55/78
f 42/63/79 43/51/79 49/55/79
f 43/51/80 41/64/80 48/52/80
f 41/64/81 47/60/81 48/52/81
f 30/65/82 39/66/82 47/60/82
f 39/66/83 46/61/83 47/60/83
f 40/67/84 38/44/84 46/61/84
f 38/44/85 50/58/85 46/61/85
f 44/45/86 37/41/86 45/50/86
f 37/41/87 32/40/87 45/50/87
f 42/49/88 31/39/88 43/48/88
f 41/64/89 30/65/89 47/60/89
f 39/66/90 40/67/90 46/61/90
f 39/68/91 36/42/91 40/46/91
f 32/40/92 31/39/92 42/49/92
f 31/39/93 35/38/93 41/47/93
f 35/38/94 30/69/94 41/47/94
f 33/43/95 36/42/95 37/41/95
f 36/42/96 35/38/96 37/41/96
f 35/38/97 39/68/97 30/69/97
f 35/38/98 36/42/98 39/68/98
