# Blender v2.78 (sub 0) OBJ File: 'Low_Poly_Vegetation_Pack.blend'
# www.blender.org
g Bush_c_m_01
v -0.204611 0.516735 -0.004872
v -0.221244 0.337311 0.255909
v -0.187379 0.619699 0.342754
v -0.174302 0.271242 -0.085659
v -0.121876 0.058389 0.225731
v -0.071246 0.812178 0.009086
v 0.494184 0.615640 -0.319572
v 0.189845 0.537874 -0.362074
v 0.197090 0.809017 -0.238236
v 0.520068 0.337911 -0.362644
v 0.133609 0.251832 -0.351949
v 0.579093 0.843180 -0.106655
v 0.824024 0.395325 0.343602
v 0.839541 0.405555 0.027167
v 0.809382 0.684737 0.125040
v 0.775574 0.123290 0.283314
v 0.738156 0.167977 -0.113641
v 0.696659 0.637712 0.507509
v 0.125230 0.296420 0.658301
v 0.428453 0.204992 0.645150
v 0.393450 0.476740 0.709610
v 0.095873 0.047682 0.528201
v 0.479728 -0.024163 0.462979
v 0.045081 0.610604 0.622339
v 0.186346 -0.057899 -0.105085
v 0.390604 0.088261 -0.292182
v 0.485704 -0.059807 -0.034349
v 0.628406 -0.041315 0.093638
v 0.338578 -0.125110 0.167131
v 0.221079 -0.116257 0.314184
v -0.052529 0.018739 0.031434
v 0.385378 0.886464 0.456454
v 0.382233 0.961287 0.158103
v 0.298772 0.957378 -0.015407
v 0.144126 0.931760 0.252643
v -0.014946 0.854826 0.318113
v 0.230673 0.712941 0.622371
v 0.646282 0.854808 0.286111
v -0.042901 0.129670 -0.167063
v -0.131937 0.305506 0.494009
v -0.045540 0.559691 -0.259735
v 0.750796 0.522364 -0.182973
v 0.664480 0.280495 0.574823
v 0.450551 0.658505 0.644510
v -0.601705 0.446665 0.153412
v -0.616083 0.291571 0.378830
v -0.586811 0.535666 0.453899
v -0.575507 0.234461 0.083580
v -0.530190 0.050471 0.352744
v -0.486425 0.702045 0.165478
v 0.002332 0.532158 -0.118614
v -0.260739 0.464937 -0.155353
v -0.254476 0.699312 -0.048307
v 0.024705 0.292090 -0.155845
v -0.309349 0.217683 -0.146601
v 0.075726 0.728843 0.065431
v 0.287445 0.341719 0.454632
v 0.300858 0.350561 0.181106
v 0.274787 0.591885 0.265707
v 0.245564 0.106572 0.402519
v 0.213220 0.145199 0.059392
v 0.177350 0.551237 0.596313
v -0.316592 0.256225 0.726657
v -0.054487 0.177194 0.715290
v -0.084743 0.412093 0.771008
v -0.341968 0.041216 0.614199
v -0.010164 -0.020886 0.557822
v -0.385872 0.527804 0.695572
v -0.263763 -0.050048 0.066788
v -0.087203 0.076293 -0.094938
v -0.004999 -0.051697 0.127932
v 0.118352 -0.035712 0.238564
v -0.132174 -0.108144 0.302091
v -0.233740 -0.100493 0.429203
v -0.481065 0.055582 0.090612
v -0.091720 0.766257 0.552182
v -0.094439 0.830935 0.294287
v -0.166582 0.827556 0.144305
v -0.300258 0.805412 0.376008
v -0.437760 0.738910 0.432600
v -0.128322 0.598126 0.723463
v 0.133804 0.738894 0.404937
v -0.538887 0.264079 0.584644
v -0.464205 0.483796 -0.066891
v 0.224146 0.451531 -0.000538
v 0.149535 0.242460 0.654499
v -0.766343 0.548414 -0.332382
v -0.747715 0.446679 0.014634
v -0.712050 0.784346 0.004229
v -0.730082 0.253405 -0.336298
v -0.625794 0.133952 0.068792
v -0.626488 0.874945 -0.438156
v -0.012635 0.548414 -0.791900
v -0.359652 0.446679 -0.773272
v -0.215826 0.770036 -0.756364
v -0.103635 0.240358 -0.756364
v -0.409596 0.139498 -0.654202
v -0.434104 0.791065 -0.689445
v 0.097722 0.871929 -0.653015
v 0.114643 0.219329 -0.689445
v 0.446882 0.548414 -0.038192
v 0.428254 0.446679 -0.385208
v 0.392589 0.784346 -0.374803
v 0.411347 0.240358 -0.129192
v 0.307787 0.137892 -0.440715
v 0.309920 0.869027 0.068316
v 0.344427 0.219329 0.089086
v -0.306826 0.548414 0.421325
v 0.040191 0.446679 0.402698
v -0.004423 0.764317 0.380263
v -0.215826 0.240358 0.385790
v 0.088068 0.133360 0.281031
v -0.415975 0.875934 0.280963
v -0.434104 0.219329 0.318870
v -0.295476 -0.108703 -0.190695
v -0.294926 -0.070750 -0.401651
v -0.103614 -0.014825 -0.562967
v 0.040191 -0.082788 -0.243806
v 0.215930 -0.016017 -0.129554
v -0.101212 -0.082788 0.014634
v -0.218434 -0.021535 0.184471
v -0.567233 0.022072 -0.135277
v -0.154323 1.119097 -0.049542
v -0.101212 1.093182 -0.385208
v -0.215463 1.026411 -0.560948
v -0.359651 1.093182 -0.243806
v -0.529489 1.031929 -0.126584
v -0.209741 0.988322 0.222215
v 0.056633 1.081144 -0.050092
v 0.217950 1.025219 -0.241403
v -0.583709 0.071665 -0.389963
v -0.617920 0.497791 0.272023
v -0.616413 0.505197 -0.641970
v 0.298460 0.497791 -0.642597
v 0.296952 0.505197 0.271396
v 0.044945 0.938729 0.238691
vt 0.5191 0.9531
vt 0.5247 0.9681
vt 0.5110 0.9676
vt 0.5283 0.9610
vt 0.5919 0.8935
vt 0.5766 0.8992
vt 0.5774 0.8842
vt 0.5877 0.9026
vt 0.5277 0.9530
vt 0.5483 0.9412
vt 0.5327 0.9445
vt 0.5331 0.9310
vt 0.5429 0.9496
vt 0.5666 0.9082
vt 0.5723 0.9236
vt 0.5572 0.9228
vt 0.5756 0.9126
vt 0.5594 0.9684
vt 0.5560 0.9526
vt 0.5697 0.9531
vt 0.5511 0.9629
vt 0.5813 0.9336
vt 0.5965 0.9280
vt 0.5958 0.9429
vt 0.5857 0.9246
vt 0.5323 0.9795
vt 0.5480 0.9761
vt 0.5476 0.9897
vt 0.5376 0.9710
vt 0.6087 0.9176
vt 0.6002 0.9189
vt 0.5984 0.9111
vt 0.6008 0.9035
vt 0.6159 0.9043
vt 0.5370 0.9575
vt 0.5456 0.9591
vt 0.5416 0.9656
vt 0.5816 0.9156
vt 0.5846 0.9086
vt 0.5903 0.9159
vt 0.5089 0.9506
vt 0.5942 0.8813
vt 0.6051 0.8889
vt 0.5197 0.9378
vt 0.5500 0.9289
vt 0.5544 0.9059
vt 0.5622 0.8949
vt 0.5681 0.9382
vt 0.5647 0.9392
vt 0.5718 0.9701
vt 0.5790 0.9458
vt 0.5609 0.9829
vt 0.5306 0.9918
vt 0.6188 0.9212
vt 0.6110 0.9322
vt 0.5177 0.9807
vt 0.5191 0.9531
vt 0.5247 0.9681
vt 0.5110 0.9676
vt 0.5280 0.9569
vt 0.5919 0.8935
vt 0.5766 0.8992
vt 0.5774 0.8842
vt 0.5877 0.9026
vt 0.5483 0.9412
vt 0.5327 0.9445
vt 0.5331 0.9310
vt 0.5429 0.9496
vt 0.5666 0.9082
vt 0.5723 0.9236
vt 0.5572 0.9228
vt 0.5756 0.9126
vt 0.5594 0.9684
vt 0.5560 0.9526
vt 0.5697 0.9531
vt 0.5511 0.9629
vt 0.5813 0.9336
vt 0.5965 0.9280
vt 0.5958 0.9429
vt 0.5857 0.9246
vt 0.5323 0.9795
vt 0.5480 0.9761
vt 0.5476 0.9897
vt 0.5376 0.9710
vt 0.6087 0.9176
vt 0.6008 0.9035
vt 0.6159 0.9043
vt 0.5993 0.9151
vt 0.5370 0.9575
vt 0.5456 0.9591
vt 0.5416 0.9656
vt 0.5816 0.9156
vt 0.5846 0.9086
vt 0.5903 0.9159
vt 0.5089 0.9506
vt 0.5942 0.8813
vt 0.6051 0.8889
vt 0.5197 0.9378
vt 0.5500 0.9289
vt 0.5544 0.9059
vt 0.5622 0.8949
vt 0.5681 0.9382
vt 0.5647 0.9392
vt 0.5718 0.9701
vt 0.5790 0.9458
vt 0.5609 0.9829
vt 0.5306 0.9918
vt 0.6188 0.9212
vt 0.6110 0.9322
vt 0.5177 0.9807
vt 0.5191 0.9531
vt 0.5247 0.9681
vt 0.5110 0.9676
vt 0.5283 0.9610
vt 0.5919 0.8935
vt 0.5766 0.8992
vt 0.5774 0.8842
vt 0.5877 0.9026
vt 0.5277 0.9530
vt 0.5440 0.9389
vt 0.5327 0.9445
vt 0.5331 0.9310
vt 0.5429 0.9496
vt 0.5544 0.9059
vt 0.5678 0.9047
vt 0.5648 0.9132
vt 0.5756 0.9126
vt 0.5723 0.9236
vt 0.5572 0.9228
vt 0.5500 0.9289
vt 0.5519 0.9431
vt 0.5618 0.9640
vt 0.5560 0.9526
vt 0.5697 0.9531
vt 0.5511 0.9629
vt 0.5813 0.9336
vt 0.5965 0.9280
vt 0.5958 0.9429
vt 0.5857 0.9246
vt 0.5718 0.9701
vt 0.5576 0.9719
vt 0.5366 0.9818
vt 0.5480 0.9761
vt 0.5476 0.9897
vt 0.5376 0.9710
vt 0.6087 0.9176
vt 0.6002 0.9189
vt 0.5984 0.9111
vt 0.6008 0.9035
vt 0.6159 0.9043
vt 0.5306 0.9918
vt 0.5288 0.9776
vt 0.5369 0.9541
vt 0.5456 0.9591
vt 0.5416 0.9656
vt 0.5370 0.9601
vt 0.5816 0.9156
vt 0.5846 0.9086
vt 0.5899 0.9133
vt 0.5909 0.9192
vt 0.5089 0.9506
vt 0.5942 0.8813
vt 0.6051 0.8889
vt 0.5197 0.9378
vt 0.5622 0.8949
vt 0.5681 0.9382
vt 0.5647 0.9392
vt 0.5790 0.9458
vt 0.5609 0.9829
vt 0.6188 0.9212
vt 0.6110 0.9322
vt 0.5177 0.9807
vn -0.9422 -0.3285 -0.0659
vn -0.8434 -0.4991 -0.1992
vn -0.9073 0.4132 -0.0774
vn -0.8015 0.5945 0.0640
vn -0.7789 -0.5307 -0.3343
vn -0.0207 -0.0313 -0.9993
vn 0.0381 -0.2897 -0.9564
vn 0.2028 0.6277 -0.7516
vn 0.1322 0.7962 -0.5904
vn 0.9371 -0.3258 -0.1250
vn 0.8129 -0.5652 -0.1403
vn 0.9126 0.2748 0.3027
vn 0.8145 0.4960 0.3010
vn 0.0173 -0.6198 0.7846
vn -0.0511 -0.8070 0.5883
vn -0.0105 0.3401 0.9403
vn -0.2229 0.0546 0.9733
vn -0.1413 0.2559 0.9563
vn -0.2286 -0.6303 -0.7420
vn 0.4868 -0.4617 -0.7415
vn 0.2439 -0.9606 -0.1332
vn 0.5523 -0.7924 0.2591
vn -0.2190 -0.9687 -0.1167
vn -0.4945 -0.8051 0.3275
vn 0.6492 0.7488 -0.1332
vn -0.1109 0.9934 0.0310
vn -0.3577 0.8443 -0.3989
vn -0.2265 0.8590 0.4591
vn -0.6436 0.5299 0.5523
vn 0.4545 0.6855 0.5688
vn -0.9893 -0.0827 -0.1200
vn -0.9933 0.1144 0.0154
vn -0.9361 0.0041 0.3517
vn -0.7548 0.1716 0.6331
vn -0.8514 0.0661 -0.5203
vn 0.0960 0.1613 -0.9822
vn 0.0210 0.4149 -0.9096
vn -0.3343 0.3989 -0.8539
vn -0.5466 0.5837 -0.6005
vn 0.5120 0.1780 -0.8403
vn 0.6842 -0.1635 -0.7108
vn 0.9820 -0.1842 0.0422
vn 0.9947 0.0893 0.0517
vn 0.9375 0.2009 -0.2842
vn 0.7598 0.5043 -0.4104
vn 0.8505 -0.2536 0.4609
vn 0.6148 -0.5721 0.5428
vn -0.0979 -0.4522 0.8866
vn -0.0285 -0.2342 0.9718
vn 0.3326 -0.1769 0.9263
vn -0.4932 -0.7490 -0.4425
vn -0.5132 -0.3495 0.7839
vn -0.6891 -0.5457 0.4768
vn 0.1192 -0.8414 -0.5271
vn -0.3170 -0.6236 -0.7146
vn 0.0576 -0.9613 -0.2695
vn 0.2650 0.9359 0.2319
vn -0.0236 0.9696 0.2434
vn 0.0843 0.6483 0.7567
vn 0.4118 0.6471 0.6416
vn -0.8684 -0.4652 -0.1718
vn -0.1614 0.2087 0.9646
vn -0.3753 -0.6159 -0.6926
vn 0.3809 0.6178 0.6879
vn -0.9305 -0.3386 0.1397
vn -0.8388 -0.5416 0.0562
vn -0.9260 0.3627 -0.1048
vn -0.8139 0.5797 -0.0387
vn -0.7868 -0.6134 -0.0685
vn -0.2012 -0.3254 -0.9239
vn -0.0669 -0.6027 -0.7952
vn -0.2737 0.1712 -0.9465
vn -0.1823 0.5962 -0.7819
vn 0.1974 0.3291 -0.9234
vn 0.0650 0.6049 -0.7937
vn 0.2711 -0.1890 -0.9438
vn 0.1830 -0.5938 -0.7835
vn 0.9244 -0.3246 -0.2005
vn 0.7937 -0.6049 -0.0649
vn -0.6512 -0.1637 -0.7410
vn 0.9266 0.3614 0.1038
vn 0.8202 0.5703 0.0440
vn 0.9438 -0.1890 0.2711
vn 0.7819 -0.5962 0.1823
vn 0.2029 -0.3274 0.9229
vn 0.0584 -0.6088 0.7912
vn 0.0694 0.6168 0.7841
vn -0.1273 0.3545 0.9263
vn -0.0558 0.5410 0.8392
vn -0.2711 -0.1890 0.9438
vn -0.1817 -0.5982 0.7805
vn -0.2360 -0.7968 -0.5562
vn 0.4294 -0.7051 -0.5643
vn 0.2670 -0.9526 0.1461
vn 0.5603 -0.7069 0.4317
vn -0.1373 -0.9582 0.2508
vn -0.4293 -0.7017 0.5686
vn 0.6031 0.6737 -0.4271
vn -0.1461 0.9526 -0.2670
vn -0.4286 0.7060 -0.5638
vn -0.2508 0.9582 0.1373
vn -0.6060 0.6719 0.4259
vn 0.5565 0.7965 0.2364
vn -0.9924 -0.1222 0.0174
vn -0.9906 0.1072 0.0846
vn -0.8961 0.1079 0.4305
vn -0.6945 0.3561 0.6252
vn -0.9007 -0.1051 -0.4215
vn -0.0216 -0.1083 -0.9939
vn -0.0788 0.0870 -0.9931
vn -0.4290 0.1250 -0.8946
vn -0.6911 0.3344 -0.6407
vn 0.4134 -0.1211 -0.9025
vn 0.6841 -0.3433 -0.6436
vn 0.9939 -0.1083 -0.0216
vn 0.9906 0.1072 -0.0846
vn 0.8961 0.1079 -0.4305
vn 0.6951 0.3556 -0.6248
vn 0.9001 -0.1180 0.4194
vn 0.6341 -0.3382 0.6954
vn 0.0216 -0.1083 0.9939
vn 0.0771 0.0810 0.9937
vn 0.4294 0.1235 0.8947
vn -0.4134 -0.1211 0.9025
vn -0.6848 -0.3440 0.6424
vn -0.4059 -0.7845 -0.4688
vn 0.0841 -0.9954 0.0460
vn -0.0460 0.9954 -0.0841
vn 0.4676 0.7851 0.4061
vn -0.8918 -0.3489 0.2879
vn -0.8102 0.3866 -0.4405
vn 0.5027 0.1268 0.8551
vn -0.3948 0.0451 -0.9177
vn 0.5417 0.4576 -0.7051
vn 0.8896 -0.1181 -0.4413
vn 0.8141 0.0359 0.5796
vn 0.3921 -0.5171 0.7608
vn 0.4716 -0.7064 -0.5279
vn -0.5389 -0.0412 0.8413
vn 0.2761 -0.9422 0.1898
vn -0.3995 -0.9153 -0.0504
vn 0.3800 0.9163 -0.1262
vn -0.3990 0.9120 -0.0949
vn -0.3101 0.7408 0.5958
vn -0.6434 -0.2418 -0.7263
vn 0.4683 0.1989 0.8609
vn -0.4372 -0.8945 -0.0929
vn -0.2725 0.7199 0.6383
vn -0.7145 -0.3911 -0.5801
vn -0.8446 -0.2470 0.4750
vn -0.8644 0.2245 -0.4499
vn 0.5795 0.3908 0.7151
vn -0.4852 -0.2463 -0.8390
vn 0.4509 0.2178 -0.8656
vn 0.8454 -0.2445 -0.4749
vn 0.8655 0.2203 0.4499
vn 0.4855 -0.2510 0.8374
vn -0.4476 -0.8815 -0.1504
vn -0.4510 0.2204 0.8649
vn 0.0650 -0.9750 -0.2124
vn 0.4442 -0.8330 -0.3298
vn 0.3302 -0.8340 0.4421
vn -0.3925 -0.8659 0.3101
vn 0.2124 0.9750 -0.0650
vn 0.3295 0.8334 -0.4438
vn -0.4419 0.8342 -0.3300
vn -0.3097 0.8662 0.3922
vn 0.1504 0.8815 0.4476
s off
f 4/1/1 5/2/1 2/3/1
f 4/1/2 31/4/2 5/2/2
f 3/5/3 6/6/3 1/7/3
f 3/5/4 36/8/4 6/6/4
f 4/1/5 39/9/5 31/4/5
f 10/10/6 11/11/6 8/12/6
f 10/10/7 26/13/7 11/11/7
f 9/14/8 12/15/8 7/16/8
f 9/14/9 34/17/9 12/15/9
f 16/18/10 17/19/10 14/20/10
f 16/18/11 28/21/11 17/19/11
f 15/22/12 18/23/12 13/24/12
f 15/22/13 38/25/13 18/23/13
f 22/26/14 23/27/14 20/28/14
f 22/26/15 30/29/15 23/27/15
f 21/30/16 44/31/16 37/32/16
f 21/30/17 24/33/17 19/34/17
f 21/30/18 37/32/18 24/33/18
f 25/35/19 11/11/19 26/13/19
f 26/13/20 10/10/20 17/19/20
f 27/36/21 28/21/21 29/37/21
f 28/21/22 16/18/22 23/27/22
f 29/37/23 30/29/23 25/35/23
f 30/29/24 22/26/24 5/2/24
f 38/25/25 15/22/25 12/15/25
f 33/38/26 34/17/26 35/39/26
f 34/17/27 9/14/27 6/6/27
f 35/39/28 36/8/28 32/40/28
f 36/8/29 3/5/29 24/33/29
f 32/40/30 18/23/30 38/25/30
f 1/41/31 4/1/31 2/3/31
f 1/7/32 2/42/32 3/5/32
f 2/42/33 40/43/33 3/5/33
f 3/5/34 40/43/34 24/33/34
f 1/41/35 41/44/35 4/1/35
f 7/45/36 10/10/36 8/12/36
f 7/16/37 8/46/37 9/14/37
f 8/46/38 41/47/38 9/14/38
f 9/14/39 41/47/39 6/6/39
f 7/45/40 42/48/40 10/10/40
f 10/10/41 42/49/41 17/19/41
f 13/50/42 16/18/42 14/20/42
f 13/24/43 14/51/43 15/22/43
f 14/51/44 42/48/44 15/22/44
f 15/22/45 42/48/45 12/15/45
f 13/50/46 43/52/46 16/18/46
f 16/18/47 43/52/47 23/27/47
f 19/53/48 22/26/48 20/28/48
f 19/34/49 20/54/49 21/30/49
f 20/54/50 43/55/50 21/30/50
f 25/35/51 31/4/51 39/9/51
f 19/53/52 40/56/52 22/26/52
f 22/26/53 40/56/53 5/2/53
f 27/36/54 25/35/54 26/13/54
f 25/35/55 39/9/55 11/11/55
f 25/35/56 27/36/56 29/37/56
f 33/38/57 32/40/57 38/25/57
f 32/40/58 33/38/58 35/39/58
f 32/40/59 37/32/59 44/31/59
f 32/40/60 44/31/60 18/23/60
f 48/57/1 49/58/1 46/59/1
f 48/57/61 75/60/61 49/58/61
f 47/61/3 50/62/3 45/63/3
f 47/61/4 80/64/4 50/62/4
f 54/65/6 55/66/6 52/67/6
f 54/65/7 70/68/7 55/66/7
f 53/69/8 56/70/8 51/71/8
f 53/69/9 78/72/9 56/70/9
f 60/73/10 61/74/10 58/75/10
f 60/73/11 72/76/11 61/74/11
f 59/77/12 62/78/12 57/79/12
f 59/77/13 82/80/13 62/78/13
f 66/81/14 67/82/14 64/83/14
f 66/81/15 74/84/15 67/82/15
f 65/85/17 68/86/17 63/87/17
f 65/85/62 81/88/62 68/86/62
f 69/89/19 55/66/19 70/68/19
f 70/68/20 54/65/20 61/74/20
f 71/90/21 72/76/21 73/91/21
f 72/76/22 60/73/22 67/82/22
f 73/91/23 74/84/23 69/89/23
f 74/84/24 66/81/24 49/58/24
f 82/80/25 59/77/25 56/70/25
f 77/92/26 78/72/26 79/93/26
f 78/72/27 53/69/27 50/62/27
f 79/93/28 80/64/28 76/94/28
f 80/64/29 47/61/29 68/86/29
f 76/94/30 62/78/30 82/80/30
f 45/95/31 48/57/31 46/59/31
f 45/63/32 46/96/32 47/61/32
f 46/96/33 83/97/33 47/61/33
f 47/61/34 83/97/34 68/86/34
f 45/95/35 84/98/35 48/57/35
f 51/99/36 54/65/36 52/67/36
f 51/71/37 52/100/37 53/69/37
f 52/100/38 84/101/38 53/69/38
f 53/69/39 84/101/39 50/62/39
f 51/99/40 85/102/40 54/65/40
f 54/65/41 85/103/41 61/74/41
f 57/104/42 60/73/42 58/75/42
f 57/79/43 58/105/43 59/77/43
f 58/105/44 85/102/44 59/77/44
f 59/77/45 85/102/45 56/70/45
f 57/104/46 86/106/46 60/73/46
f 60/73/47 86/106/47 67/82/47
f 63/107/48 66/81/48 64/83/48
f 63/87/49 64/108/49 65/85/49
f 64/108/50 86/109/50 65/85/50
f 63/107/52 83/110/52 66/81/52
f 66/81/53 83/110/53 49/58/53
f 71/90/54 69/89/54 70/68/54
f 69/89/63 75/60/63 55/66/63
f 69/89/56 71/90/56 73/91/56
f 77/92/57 76/94/57 82/80/57
f 76/94/58 77/92/58 79/93/58
f 76/94/64 81/88/64 62/78/64
f 90/111/65 91/112/65 88/113/65
f 90/111/66 122/114/66 91/112/66
f 89/115/67 92/116/67 87/117/67
f 89/115/68 127/118/68 92/116/68
f 90/111/69 131/119/69 122/114/69
f 96/120/70 97/121/70 94/122/70
f 96/120/71 117/123/71 97/121/71
f 94/124/72 98/125/72 95/126/72
f 95/126/73 98/125/73 125/127/73
f 95/126/74 99/128/74 93/129/74
f 95/126/75 125/127/75 99/128/75
f 93/130/76 100/131/76 96/120/76
f 96/120/77 100/131/77 117/123/77
f 104/132/78 105/133/78 102/134/78
f 104/132/79 119/135/79 105/133/79
f 4/1/80 41/44/80 11/11/80 39/9/80
f 103/136/81 106/137/81 101/138/81
f 103/136/82 130/139/82 106/137/82
f 101/140/83 107/141/83 104/132/83
f 104/132/84 107/141/84 119/135/84
f 111/142/85 112/143/85 109/144/85
f 111/142/86 121/145/86 112/143/86
f 110/146/87 136/147/87 128/148/87
f 110/146/88 113/149/88 108/150/88
f 110/146/89 128/148/89 113/149/89
f 108/151/90 114/152/90 111/142/90
f 111/142/91 114/152/91 121/145/91
f 116/153/92 97/121/92 117/123/92
f 117/123/93 100/131/93 105/133/93
f 118/154/94 119/135/94 120/155/94
f 119/135/95 107/141/95 112/143/95
f 120/155/96 121/145/96 115/156/96
f 121/145/97 114/152/97 91/112/97
f 130/139/98 103/136/98 99/128/98
f 124/157/99 125/127/99 126/158/99
f 125/127/100 98/125/100 92/116/100
f 126/158/101 127/118/101 123/159/101
f 127/118/102 89/115/102 113/149/102
f 129/160/103 106/137/103 130/139/103
f 87/161/104 90/111/104 88/113/104
f 87/117/105 88/162/105 89/115/105
f 88/162/106 132/163/106 89/115/106
f 89/115/107 132/163/107 113/149/107
f 87/161/108 133/164/108 90/111/108
f 93/130/109 96/120/109 94/122/109
f 93/129/110 94/124/110 95/126/110
f 94/124/111 133/165/111 98/125/111
f 98/125/112 133/165/112 92/116/112
f 93/130/113 134/166/113 100/131/113
f 100/131/114 134/167/114 105/133/114
f 101/140/115 104/132/115 102/134/115
f 101/138/116 102/168/116 103/136/116
f 102/168/117 134/166/117 103/136/117
f 103/136/118 134/166/118 99/128/118
f 101/140/119 135/169/119 107/141/119
f 107/141/120 135/169/120 112/143/120
f 108/151/121 111/142/121 109/144/121
f 108/150/122 109/170/122 110/146/122
f 109/170/123 135/171/123 110/146/123
f 108/151/124 132/172/124 114/152/124
f 114/152/125 132/172/125 91/112/125
f 116/153/126 131/119/126 97/121/126
f 115/156/127 118/154/127 120/155/127
f 123/159/128 124/157/128 126/158/128
f 129/160/129 136/147/129 106/137/129
f 40/56/130 2/3/130 5/2/130
f 41/47/131 1/7/131 6/6/131
f 21/30/132 43/55/132 18/23/132 44/31/132
f 41/44/133 8/12/133 11/11/133
f 42/48/134 7/16/134 12/15/134
f 42/49/135 14/20/135 17/19/135
f 43/55/136 13/24/136 18/23/136
f 43/52/137 20/28/137 23/27/137
f 27/36/138 26/13/138 17/19/138 28/21/138
f 40/43/139 19/34/139 24/33/139
f 29/37/140 28/21/140 23/27/140 30/29/140
f 30/29/141 5/2/141 31/4/141 25/35/141
f 33/38/142 38/25/142 12/15/142 34/17/142
f 35/39/143 34/17/143 6/6/143 36/8/143
f 36/8/144 24/33/144 37/32/144 32/40/144
f 48/57/145 84/98/145 55/66/145 75/60/145
f 83/110/130 46/59/130 49/58/130
f 84/101/131 45/63/131 50/62/131
f 65/85/146 86/109/146 62/78/146 81/88/146
f 84/98/133 52/67/133 55/66/133
f 85/102/134 51/71/134 56/70/134
f 85/103/135 58/75/135 61/74/135
f 86/109/136 57/79/136 62/78/136
f 86/106/137 64/83/137 67/82/137
f 71/90/138 70/68/138 61/74/138 72/76/138
f 83/97/139 63/87/139 68/86/139
f 73/91/140 72/76/140 67/82/140 74/84/140
f 74/84/147 49/58/147 75/60/147 69/89/147
f 77/92/142 82/80/142 56/70/142 78/72/142
f 79/93/143 78/72/143 50/62/143 80/64/143
f 80/64/148 68/86/148 81/88/148 76/94/148
f 90/111/149 133/164/149 97/121/149 131/119/149
f 132/172/150 88/113/150 91/112/150
f 133/165/151 87/117/151 92/116/151
f 110/146/152 135/171/152 106/137/152 136/147/152
f 133/164/153 94/122/153 97/121/153
f 134/166/154 93/129/154 99/128/154
f 134/167/155 102/134/155 105/133/155
f 135/171/156 101/138/156 106/137/156
f 135/169/157 109/144/157 112/143/157
f 122/114/158 131/119/158 116/153/158 115/156/158
f 132/163/159 108/150/159 113/149/159
f 116/153/160 117/123/160 118/154/160 115/156/160
f 118/154/161 117/123/161 105/133/161 119/135/161
f 120/155/162 119/135/162 112/143/162 121/145/162
f 121/145/163 91/112/163 122/114/163 115/156/163
f 129/160/164 130/139/164 124/157/164 123/159/164
f 124/157/165 130/139/165 99/128/165 125/127/165
f 126/158/166 125/127/166 92/116/166 127/118/166
f 127/118/167 113/149/167 128/148/167 123/159/167
f 128/148/168 136/147/168 129/160/168 123/159/168
