# Blender v2.78 (sub 0) OBJ File: 'Low_Poly_Vegetation_Pack.blend'
# www.blender.org
g Bush_a_l_05
v -1.663111 1.195872 -0.117407
v -1.435875 0.475512 0.517768
v -1.355567 1.559247 -0.082795
v -1.685336 0.668666 0.188998
v -1.252309 0.122479 -0.013785
v -1.478075 1.335892 0.665238
v -1.267773 1.683665 0.536142
v -1.264217 1.367933 -0.536898
v -1.515499 0.752296 -0.529485
v -0.684416 1.193472 -1.187713
v -0.000301 1.505355 -1.279012
v 0.572006 1.126234 -1.534346
v 1.077250 0.711962 -1.366400
v 0.542237 0.719234 -1.582989
v -0.516266 0.297503 -1.125636
v -0.391388 0.974965 -1.420572
v -0.959496 0.614329 -0.872554
v 0.829778 1.334050 -1.210588
v 1.673609 0.890738 -0.273227
v 1.495929 1.227440 0.426647
v 1.235920 0.985439 0.879560
v 1.586526 0.445136 -0.521355
v 1.476091 1.177632 -0.290746
v 1.678450 0.656831 0.378465
v 1.471169 0.671072 0.748378
v 1.197395 0.177849 0.627535
v 0.356424 0.389274 1.336661
v -0.251972 1.694347 1.174699
v -0.376354 1.069516 1.313375
v -0.103390 0.281499 1.355230
v 0.739643 0.495468 1.097024
v 0.365577 1.623369 0.956461
v -0.868011 1.582798 1.115872
v -0.672619 0.113686 1.003320
v -0.112443 -0.299957 0.126132
v 0.140093 -0.272014 0.730702
v -0.107573 -0.083288 -0.660151
v -0.928907 0.083857 -0.448071
v 1.078359 0.074013 -0.588558
v 0.742292 0.202778 -1.260176
v 0.444246 -0.050757 1.026595
v 1.295244 0.054100 0.159291
v -0.480624 -0.187129 0.663021
v -0.200700 2.078131 0.170468
v -0.777919 1.968019 0.195156
v 0.059788 1.994823 0.678183
v 0.525682 1.932698 0.058621
v 0.094214 1.922595 -0.446816
v -0.456093 1.808091 -0.524206
v -0.565436 1.996844 0.730360
v 0.577244 1.791659 0.546112
v -0.939817 1.027518 1.130192
v -0.121244 -0.000631 1.193880
v -0.945828 0.274959 0.736239
v -0.911338 1.222899 -0.857846
v 0.797345 1.710052 -0.336828
vt 0.5472 0.9805
vt 0.5472 0.9891
vt 0.5389 0.9814
vt 0.5591 0.9806
vt 0.5632 0.9913
vt 0.5538 0.9822
vt 0.5627 0.9736
vt 0.5547 0.8840
vt 0.5643 0.8864
vt 0.5533 0.8916
vt 0.5406 0.8960
vt 0.5420 0.9061
vt 0.5349 0.9045
vt 0.5525 0.9122
vt 0.5479 0.9008
vt 0.5402 0.9720
vt 0.5517 0.9739
vt 0.5409 0.9636
vt 0.5504 0.9676
vt 0.5343 0.9636
vt 0.5359 0.9562
vt 0.5481 0.9577
vt 0.5418 0.9504
vt 0.5528 0.9449
vt 0.5414 0.9295
vt 0.5392 0.9200
vt 0.5492 0.9248
vt 0.5398 0.9124
vt 0.5522 0.9345
vt 0.5592 0.9307
vt 0.5595 0.9406
vt 0.5599 0.9151
vt 0.5517 0.9399
vt 0.5577 0.9494
vt 0.5710 0.9475
vt 0.5768 0.9454
vt 0.5782 0.9323
vt 0.5738 0.9294
vt 0.5839 0.9204
vt 0.5717 0.9099
vt 0.5884 0.9112
vt 0.5800 0.9556
vt 0.5884 0.9649
vt 0.5823 0.9612
vt 0.5875 0.9554
vt 0.5810 0.9709
vt 0.5760 0.9635
vt 0.5822 0.8943
vt 0.5750 0.9037
vt 0.5693 0.8995
vt 0.5556 0.8978
vt 0.5879 0.9018
vt 0.5732 0.8899
vt 0.5643 0.8956
vt 0.5747 0.9890
vt 0.5707 0.9784
vt 0.5640 0.9787
vt 0.5555 0.9603
vt 0.5620 0.9674
vt 0.5668 0.9529
vt 0.5726 0.9585
vt 0.5669 0.9700
vt 0.5714 0.9707
vt 0.5683 0.9751
vt 0.5668 0.9138
vt 0.5619 0.9084
vt 0.5661 0.9206
vt 0.5632 0.9025
vt 0.5674 0.9059
vt 0.5573 0.9047
vt 0.5746 0.9288
vt 0.5759 0.9760
vn -0.9670 0.1573 0.2005
vn -0.5044 -0.3973 0.7666
vn -0.5171 -0.6149 0.5954
vn -0.6950 -0.1544 0.7022
vn -0.7498 0.2989 -0.5903
vn -0.4284 0.7987 -0.4227
vn -0.8017 -0.5418 -0.2526
vn -0.5337 -0.5469 -0.6450
vn -0.8181 0.0785 -0.5698
vn -0.2522 -0.3468 -0.9034
vn -0.5991 -0.2242 -0.7686
vn -0.3191 0.4569 -0.8303
vn -0.5628 0.6939 -0.4491
vn 0.5701 0.4057 -0.7144
vn 0.2157 0.8628 -0.4571
vn -0.1360 0.1274 -0.9825
vn 0.3749 0.0829 -0.9233
vn 0.3391 -0.4007 -0.8512
vn 0.8660 0.1032 -0.4893
vn 0.8239 0.5634 -0.0619
vn 0.4706 0.6370 0.6105
vn 0.9855 -0.1571 -0.0637
vn 0.7439 0.3095 0.5924
vn 0.4700 -0.4473 0.7609
vn 0.3483 0.2736 0.8966
vn -0.8047 0.5920 0.0450
vn 0.2266 0.1941 0.9545
vn 0.1429 0.1872 0.9719
vn -0.1353 0.2403 0.9612
vn -0.3050 -0.0551 0.9508
vn -0.7515 -0.3012 0.5869
vn -0.1217 -0.8179 -0.5623
vn -0.2562 -0.9315 -0.2583
vn 0.2449 -0.9647 -0.0967
vn 0.1363 -0.9553 -0.2624
vn 0.1462 -0.9555 -0.2563
vn 0.0852 -0.8380 0.5390
vn 0.2448 -0.9679 -0.0575
vn -0.3431 -0.9385 -0.0381
vn -0.1680 -0.8890 0.4261
vn 0.1693 0.9718 -0.1640
vn 0.3182 0.9027 -0.2897
vn 0.0477 0.8410 0.5389
vn -0.1865 0.9822 0.0211
vn 0.2042 0.9773 0.0556
vn 0.4238 0.7401 0.5221
vn -0.8258 -0.1344 0.5477
vn -0.7380 -0.6510 0.1775
vn -0.5736 -0.7597 0.3065
vn -0.6170 0.0999 0.7806
vn -0.5461 0.8329 -0.0900
vn -0.5992 0.2354 -0.7652
vn -0.6819 0.6149 -0.3962
vn -0.4118 0.8331 -0.3694
vn -0.3450 0.6529 -0.6743
vn -0.9658 -0.0986 -0.2398
vn -0.6520 -0.6245 -0.4300
vn -0.5131 0.0613 -0.8562
vn -0.6606 -0.0917 -0.7451
vn -0.6689 -0.4876 -0.5611
vn -0.4076 0.7356 -0.5411
vn -0.1657 0.3665 -0.9155
vn 0.2056 0.7410 -0.6393
vn -0.1296 -0.5612 -0.8175
vn 0.5952 -0.7800 -0.1934
vn 0.6381 -0.5352 -0.5535
vn 0.5707 -0.7052 -0.4208
vn 0.5317 0.8269 0.1830
vn 0.7634 0.4254 -0.4860
vn 0.6542 0.6729 -0.3453
vn 0.5278 0.6549 0.5408
vn 0.9502 0.2956 0.0990
vn 0.8359 -0.5472 0.0433
vn 0.8522 0.2330 0.4685
vn 0.4388 -0.0461 0.8974
vn 0.4597 0.2584 0.8497
vn -0.3129 0.0649 0.9476
vn 0.0258 0.0619 0.9977
vn -0.4542 -0.2515 0.8547
vn -0.1461 -0.9835 0.1065
vn -0.2872 -0.8494 -0.4427
vn -0.3257 -0.9319 -0.1597
vn 0.3976 -0.8632 0.3112
vn 0.3997 -0.8822 0.2489
vn -0.6621 -0.7063 0.2508
vn -0.3397 -0.7915 0.5080
vn 0.3212 0.8742 -0.3642
vn -0.1248 0.8926 -0.4333
vn 0.0160 0.9880 0.1539
vn -0.1955 0.7410 0.6424
vn -0.4324 0.8932 0.1236
vn -0.4646 0.7610 0.4528
vn 0.4039 0.8893 0.2146
vn 0.3037 0.7186 0.6256
vn 0.6083 0.7917 -0.0562
vn -0.6240 0.5741 0.5302
vn 0.7451 -0.5594 0.3633
vn 0.1803 -0.5254 0.8316
vn 0.5358 -0.3865 0.7507
vn -0.1728 0.9378 -0.3010
vn -0.3735 -0.4426 0.8152
s off
f 4/1/1 6/2/1 1/3/1
f 54/4/2 52/5/2 2/6/2
f 43/7/3 54/4/3 2/6/3
f 2/8/4 52/9/4 6/10/4
f 1/11/5 8/12/5 9/13/5
f 49/14/6 8/12/6 3/15/6
f 9/16/7 5/17/7 4/1/7
f 17/18/8 38/19/8 9/16/8
f 17/18/9 55/20/9 10/21/9
f 15/22/10 16/23/10 14/24/10
f 15/22/11 17/18/11 16/23/11
f 16/25/12 10/26/12 11/27/12
f 10/26/13 55/28/13 49/14/13
f 12/29/14 18/30/14 13/31/14
f 11/27/15 48/32/15 18/30/15
f 12/33/16 14/24/16 16/23/16
f 13/31/17 14/24/17 12/33/17
f 13/31/18 40/34/18 14/24/18
f 22/35/19 13/31/19 19/36/19
f 19/37/20 23/38/20 20/39/20
f 20/39/21 51/40/21 21/41/21
f 19/36/22 24/42/22 22/35/22
f 21/43/23 25/44/23 20/45/23
f 31/46/24 26/47/24 25/44/24
f 27/48/25 32/49/25 28/50/25
f 6/10/26 7/51/26 3/15/26 1/11/26
f 21/41/27 32/49/27 31/52/27
f 28/50/28 29/53/28 27/48/28
f 28/50/29 33/54/29 29/53/29
f 29/55/30 52/5/30 30/56/30
f 52/5/31 54/4/31 34/57/31
f 37/58/32 15/22/32 40/34/32
f 35/59/33 38/19/33 37/58/33
f 35/59/34 39/60/34 42/61/34
f 37/58/35 40/34/35 35/59/35
f 35/59/36 40/34/36 39/60/36
f 36/62/37 41/63/37 53/64/37
f 35/59/38 42/61/38 36/62/38
f 35/59/39 43/7/39 5/17/39
f 36/62/40 53/64/40 43/7/40
f 47/65/41 48/32/41 44/66/41
f 47/65/42 56/67/42 48/32/42
f 50/68/43 28/50/43 46/69/43
f 45/70/44 50/68/44 44/66/44
f 44/66/45 46/69/45 47/65/45
f 46/69/46 32/49/46 51/40/46
f 4/1/47 2/6/47 6/2/47
f 4/1/48 5/17/48 2/6/48
f 5/17/49 43/7/49 2/6/49
f 6/10/50 52/9/50 33/54/50
f 3/15/51 7/51/51 45/70/51
f 9/13/52 8/12/52 55/28/52
f 1/11/53 3/15/53 8/12/53
f 45/70/54 49/14/54 3/15/54
f 8/12/55 49/14/55 55/28/55
f 1/3/56 9/16/56 4/1/56
f 9/16/57 38/19/57 5/17/57
f 55/20/58 17/18/58 9/16/58
f 16/23/59 17/18/59 10/21/59
f 15/22/60 38/19/60 17/18/60
f 11/27/61 10/26/61 49/14/61
f 16/25/62 11/27/62 12/29/62
f 12/29/63 11/27/63 18/30/63
f 14/24/64 40/34/64 15/22/64
f 22/35/65 42/61/65 39/60/65
f 13/31/66 22/35/66 40/34/66
f 22/35/67 39/60/67 40/34/67
f 51/40/68 20/39/68 47/65/68
f 19/37/69 13/31/69 18/30/69
f 19/37/70 18/30/70 56/67/70 23/71/70
f 21/41/71 51/40/71 32/49/71
f 19/36/72 20/45/72 24/42/72
f 22/35/73 24/42/73 42/61/73
f 20/45/74 25/44/74 24/42/74
f 21/43/75 31/46/75 25/44/75
f 27/48/76 31/52/76 32/49/76
f 29/53/77 33/54/77 52/9/77
f 27/72/78 29/55/78 30/56/78
f 30/56/79 52/5/79 34/57/79
f 43/7/80 35/59/80 36/62/80
f 37/58/81 38/19/81 15/22/81
f 35/59/82 5/17/82 38/19/82
f 36/62/83 42/61/83 26/47/83
f 36/62/84 26/47/84 41/63/84
f 43/7/85 34/57/85 54/4/85
f 43/7/86 53/64/86 34/57/86
f 48/32/87 56/67/87 18/30/87
f 48/32/88 11/27/88 49/14/88
f 44/66/89 50/68/89 46/69/89
f 50/68/90 33/54/90 28/50/90
f 45/70/91 7/51/91 50/68/91
f 50/68/92 7/51/92 33/54/92
f 47/65/93 46/69/93 51/40/93
f 46/69/94 28/50/94 32/49/94
f 20/39/95 23/38/95 56/67/95 47/65/95
f 33/54/96 7/51/96 6/10/96
f 24/42/97 25/44/97 26/47/97 42/61/97
f 53/64/98 41/63/98 27/72/98 30/56/98
f 41/63/99 26/47/99 31/46/99 27/72/99
f 44/66/100 48/32/100 49/14/100 45/70/100
f 53/64/101 30/56/101 34/57/101
