# Blender v2.78 (sub 0) OBJ File: 'Low_Poly_Vegetation_Pack.blend'
# www.blender.org
g Bush_a_l_01
v -1.578723 0.769802 0.081800
v -1.347383 0.628327 0.519583
v -1.214591 0.670537 1.020473
v -1.542373 1.102492 -0.020041
v -1.288959 1.373135 0.078553
v -1.604368 0.864924 -0.334946
v -1.459259 0.651514 -0.601973
v -1.234805 0.873399 -0.864794
v -1.469045 0.430873 0.016992
v -1.050978 0.018539 -0.100627
v -1.245452 0.442786 0.813607
v -1.232946 0.253105 0.267551
v -1.015837 0.108194 0.692123
v -1.457066 1.082561 0.251647
v -1.265723 1.011047 0.601497
v -1.141143 1.224701 0.563864
v -1.469767 0.960754 -0.590395
v -1.413337 1.285101 -0.290295
v -1.321058 1.256064 -0.548104
v -1.100133 1.174270 -0.833959
v -1.482650 0.451162 -0.270388
v -1.219100 0.277402 -0.559585
v -1.069475 0.461668 -0.902088
v -0.982846 0.092196 -0.830786
v 0.245722 0.608263 -1.402075
v -0.556596 0.662733 -1.215040
v -0.000772 1.492825 -1.097101
v 0.618859 0.808721 -1.290500
v 0.306965 0.318216 -1.368236
v -0.166177 0.043616 -1.145814
v -0.814962 0.529991 -1.115093
v -0.572514 0.214782 -1.189125
v -0.786090 0.067612 -1.016236
v -0.183588 1.294096 -1.176665
v -0.378906 1.471471 -1.028125
v 0.248016 1.248167 -1.167045
v 0.647848 1.198118 -1.030790
v 0.485765 0.080565 -1.240900
v 0.627554 0.382869 -1.339323
v 0.879363 0.418701 -1.205691
v 0.806331 0.068142 -1.048366
v 1.522688 0.651811 -0.060182
v 1.240220 0.715739 -0.607193
v 1.428274 1.076504 -0.092922
v 1.252562 1.340308 0.145154
v 1.587218 0.624801 0.323150
v 1.530319 0.840453 0.619394
v 1.368098 0.647011 0.851262
v 1.354477 0.232435 0.159214
v 1.217720 0.287999 -0.340859
v 1.082451 0.277357 -0.887326
v 1.146503 1.025709 -0.606713
v 1.504169 1.068547 0.288427
v 1.250369 0.896196 0.939173
v 1.274858 1.219963 0.656207
v 1.458787 0.424612 0.569583
v 1.076518 0.270675 0.875565
v 0.413294 0.835086 1.263445
v 0.577243 0.593526 1.283304
v -0.149403 1.221514 1.156160
v -0.501958 0.797431 1.390726
v -0.937196 0.827651 1.253295
v -0.112927 0.361095 1.293631
v -0.259968 0.172011 1.171733
v 0.312550 0.397402 1.333276
v 0.596525 0.189418 1.233319
v 0.842044 0.236214 1.118142
v 0.240566 -0.047447 1.120123
v -0.591784 1.041020 1.276001
v -0.794165 1.198566 1.065812
v -0.381103 1.376412 0.998002
v -0.565319 0.425003 1.352248
v -0.677659 0.101803 1.062814
v -0.909496 0.422104 1.243949
v -0.063214 -0.236352 0.192482
v -0.218981 -0.314020 -0.284833
v -0.272769 -0.303849 -0.541277
v 0.183950 -0.185320 -0.787953
v 0.475112 -0.183382 -0.131827
v 0.930351 -0.006710 -0.206115
v 0.191221 -0.277961 0.480081
v 0.177305 -0.202478 0.850663
v -0.730040 -0.226233 -0.197913
v -0.471271 -0.214158 -0.857127
v -0.741353 -0.209112 -0.661881
v 0.567054 -0.168015 -0.700511
v 0.711023 -0.196690 0.462174
v 0.697090 -0.150232 0.794779
v -0.663506 -0.112665 0.255984
v -0.771508 -0.009236 0.688008
v -0.292148 -0.083399 0.806306
v 0.015041 1.873907 -0.205676
v 0.017924 1.788618 -0.753494
v -0.222089 1.779325 0.171408
v -0.698925 1.625141 0.147047
v 0.309269 1.784383 0.090845
v 0.579550 1.734926 -0.151671
v 0.964012 1.495585 -0.010887
v 0.312806 1.827225 -0.462391
v 0.379681 1.609351 -0.919511
v 0.658668 1.651353 -0.527404
v 0.757401 1.447177 -0.752173
v -0.427298 1.800800 -0.291835
v -0.798758 1.591641 -0.246104
v -0.407187 1.767105 -0.578105
v -0.805554 1.523791 -0.579122
v -0.378840 1.662880 -0.829958
v 0.911586 1.506935 0.352022
v 0.073462 1.690834 0.444588
v -1.044566 -0.019374 -0.381589
v -1.059285 0.281673 0.986521
v -1.085178 1.018231 1.000179
v -0.808835 1.352126 0.819949
v -1.095340 1.512797 0.024030
v 0.433056 -0.070413 -1.071697
v -0.426943 -0.082029 -1.049978
v 0.946189 0.860962 -1.073378
v 1.075854 0.653869 -0.996625
v 1.144308 0.117041 0.517878
v 0.869401 -0.041618 -0.708764
v 1.012115 1.384253 -0.357760
v 0.874621 1.205210 0.955274
v 0.877760 0.508168 1.143650
v 0.736619 -0.037478 0.999389
v 0.039476 1.448812 0.873361
v -0.808883 1.286139 -0.868716
v 0.808073 1.413386 0.719910
vt 0.5469 0.9798
vt 0.5532 0.9803
vt 0.5514 0.9885
vt 0.5568 0.9866
vt 0.5608 0.9845
vt 0.5589 0.9920
vt 0.5589 0.9803
vt 0.5424 0.8930
vt 0.5499 0.8962
vt 0.5471 0.8992
vt 0.5519 0.9020
vt 0.5558 0.8963
vt 0.5538 0.9046
vt 0.5588 0.8852
vt 0.5606 0.8908
vt 0.5536 0.8913
vt 0.5617 0.8979
vt 0.5405 0.9002
vt 0.5406 0.9054
vt 0.5360 0.9040
vt 0.5476 0.9042
vt 0.5459 0.9072
vt 0.5514 0.9114
vt 0.5441 0.9117
vt 0.5380 0.9797
vt 0.5379 0.9740
vt 0.5437 0.9766
vt 0.5458 0.9714
vt 0.5527 0.9738
vt 0.5510 0.9704
vt 0.5427 0.9660
vt 0.5477 0.9664
vt 0.5350 0.9694
vt 0.5401 0.9612
vt 0.5533 0.9505
vt 0.5526 0.9573
vt 0.5470 0.9592
vt 0.5482 0.9633
vt 0.5518 0.9608
vt 0.5388 0.9234
vt 0.5489 0.9223
vt 0.5475 0.9354
vt 0.5358 0.9189
vt 0.5379 0.9103
vt 0.5544 0.9265
vt 0.5587 0.9287
vt 0.5544 0.9369
vt 0.5612 0.9364
vt 0.5629 0.9248
vt 0.5542 0.9214
vt 0.5588 0.9219
vt 0.5492 0.9459
vt 0.5562 0.9473
vt 0.5569 0.9525
vt 0.5611 0.9520
vt 0.5581 0.9554
vt 0.5641 0.9414
vt 0.5599 0.9460
vt 0.5647 0.9491
vt 0.5804 0.9493
vt 0.5712 0.9520
vt 0.5712 0.9435
vt 0.5684 0.9581
vt 0.5760 0.9576
vt 0.5687 0.9233
vt 0.5701 0.9193
vt 0.5743 0.9201
vt 0.5765 0.9263
vt 0.5695 0.9318
vt 0.5863 0.9197
vt 0.5858 0.9123
vt 0.5893 0.9151
vt 0.5801 0.9221
vt 0.5792 0.9156
vt 0.5724 0.9157
vt 0.5750 0.9114
vt 0.5794 0.9092
vt 0.5841 0.9544
vt 0.5821 0.9602
vt 0.5883 0.9583
vt 0.5874 0.9637
vt 0.5787 0.9668
vt 0.5762 0.9630
vt 0.5841 0.9704
vt 0.5745 0.9699
vt 0.5779 0.9786
vt 0.5836 0.9769
vt 0.5823 0.9851
vt 0.5771 0.9735
vt 0.5789 0.9708
vt 0.5719 0.9741
vt 0.5822 0.8991
vt 0.5717 0.8982
vt 0.5702 0.9041
vt 0.5886 0.9051
vt 0.5720 0.8878
vt 0.5684 0.8922
vt 0.5640 0.8946
vt 0.5650 0.8869
vt 0.5668 0.8996
vt 0.5692 0.9793
vt 0.5661 0.9753
vt 0.5646 0.9807
vt 0.5652 0.9936
vt 0.5645 0.9873
vt 0.5558 0.9695
vt 0.5588 0.9657
vt 0.5633 0.9686
vt 0.5528 0.9663
vt 0.5567 0.9639
vt 0.5653 0.9630
vt 0.5580 0.9590
vt 0.5616 0.9575
vt 0.5502 0.8875
vt 0.5703 0.9655
vt 0.5724 0.9684
vt 0.5587 0.9731
vt 0.5666 0.9691
vt 0.5613 0.9777
vt 0.5610 0.9136
vt 0.5615 0.9172
vt 0.5576 0.9175
vt 0.5649 0.9133
vt 0.5654 0.9169
vt 0.5635 0.9204
vt 0.5575 0.9117
vt 0.5611 0.9090
vt 0.5576 0.9066
vt 0.5541 0.9088
vt 0.5541 0.9161
vt 0.5558 0.9139
vt 0.5661 0.9094
vt 0.5424 0.9856
vt 0.5469 0.9144
vt 0.5399 0.9555
vt 0.5513 0.9181
vt 0.5540 0.9403
vt 0.5639 0.9548
vt 0.5818 0.9314
vt 0.5720 0.9376
vt 0.5863 0.9254
vt 0.5893 0.9685
vt 0.5735 0.9818
vt 0.5725 0.9918
vt 0.5690 0.9861
vt 0.5868 0.9002
vt 0.5535 0.9631
vt 0.5689 0.9717
vn -0.7796 -0.4952 0.3833
vn -0.7826 -0.3571 0.5099
vn -0.7755 -0.6016 0.1912
vn -0.9314 0.1957 0.3068
vn -0.7496 0.6001 0.2794
vn -0.6726 0.6251 0.3960
vn -0.4659 0.7964 0.3855
vn -0.8584 0.3418 0.3826
vn -0.7830 0.5174 0.3453
vn -0.5595 0.7500 0.3528
vn -0.8827 -0.0124 -0.4698
vn -0.8953 0.4222 -0.1422
vn -0.5844 0.8115 0.0034
vn -0.4152 0.7379 -0.5321
vn -0.9172 -0.3090 -0.2514
vn -0.6642 -0.7285 -0.1676
vn -0.8728 -0.4859 0.0457
vn -0.6687 -0.4924 -0.5571
vn -0.7599 -0.5987 -0.2531
vn -0.6046 -0.1723 -0.7777
vn -0.1170 -0.4955 -0.8607
vn -0.5241 -0.2092 -0.8256
vn -0.1009 -0.4625 -0.8809
vn -0.2114 0.1832 -0.9601
vn -0.3680 0.2715 -0.8893
vn -0.4193 0.1410 -0.8968
vn 0.3343 0.5056 -0.7954
vn 0.4312 0.4782 -0.7651
vn 0.5069 0.5340 -0.6767
vn 0.2427 0.4867 -0.8392
vn 0.3383 0.4450 -0.8292
vn 0.1080 -0.0927 -0.9898
vn 0.3161 -0.7547 -0.5749
vn 0.6475 0.1270 -0.7514
vn 0.6721 -0.4152 -0.6131
vn 0.8219 -0.3316 -0.4632
vn 0.9225 -0.0926 -0.3747
vn 0.6318 -0.7323 -0.2541
vn 0.5422 0.8190 -0.1877
vn 0.6979 0.5662 -0.4387
vn 0.7397 0.5482 -0.3902
vn 0.7571 0.1320 0.6398
vn 0.8065 0.5147 0.2910
vn 0.7156 0.4282 0.5519
vn 0.7621 0.6325 -0.1385
vn 0.5159 0.8386 0.1750
vn 0.3828 0.7430 0.5490
vn 0.8552 -0.5177 0.0251
vn 0.8738 -0.2032 0.4418
vn 0.6030 -0.6852 0.4086
vn 0.5508 -0.3787 0.7438
vn 0.6922 -0.6062 0.3916
vn 0.0840 0.1381 0.9868
vn 0.2600 -0.1063 0.9597
vn 0.7211 -0.1580 0.6746
vn 0.1931 -0.6440 0.7403
vn 0.4446 -0.4951 0.7465
vn 0.6576 -0.4984 0.5649
vn 0.1751 0.4918 0.8529
vn 0.1605 0.7614 0.6281
vn 0.3471 0.1542 0.9251
vn 0.1090 0.4102 0.9055
vn -0.3770 0.5295 0.7599
vn -0.0676 0.6615 0.7469
vn -0.5392 0.6995 0.4690
vn -0.2635 0.8111 0.5223
vn -0.2813 -0.7747 0.5663
vn -0.0119 -0.8191 0.5735
vn -0.6214 -0.0604 0.7812
vn -0.4338 -0.6605 0.6128
vn -0.1325 -0.9706 0.2012
vn -0.5421 -0.8401 -0.0178
vn -0.5361 -0.6968 -0.4765
vn 0.2016 -0.9761 -0.0810
vn 0.1090 -0.9510 -0.2894
vn -0.8696 0.0777 0.4877
vn 0.5322 -0.8441 -0.0653
vn 0.5693 -0.8106 0.1371
vn -0.1680 -0.9502 0.2624
vn -0.1983 -0.9796 0.0337
vn -0.2229 -0.9181 0.3278
vn 0.0224 0.9879 -0.1537
vn 0.0739 0.7538 -0.6529
vn 0.2454 0.9664 0.0764
vn 0.5122 0.7356 -0.4432
vn 0.6414 0.7519 -0.1524
vn -0.1859 0.9743 0.1275
vn -0.3109 0.9330 0.1810
vn -0.2687 0.9631 -0.0138
vn -0.3989 0.9001 -0.1752
vn -0.2078 0.8953 -0.3939
vn 0.0411 0.9627 0.2673
vn -0.1787 0.8628 0.4729
vn -0.2148 0.8936 0.3942
vn -0.3458 0.8878 0.3037
vn 0.5153 0.8557 0.0477
vn 0.2383 0.8878 0.3936
vn 0.2360 0.9239 0.3013
vn -0.8706 -0.3482 0.3475
vn -0.9585 -0.1093 0.2633
vn -0.9307 -0.3516 0.1008
vn -0.6785 -0.7238 0.1258
vn -0.7549 -0.6076 0.2466
vn -0.8419 0.4381 -0.3151
vn -0.7117 0.5016 0.4918
vn -0.9584 0.1529 0.2412
vn -0.5834 0.7027 0.4073
vn -0.9865 0.1359 0.0917
vn -0.7598 -0.0015 -0.6501
vn -0.6530 0.3900 -0.6492
vn -0.4439 0.8699 -0.2152
vn -0.7434 0.6624 0.0926
vn -0.9558 -0.2939 0.0051
vn -0.3496 0.7262 -0.5919
vn -0.2093 -0.0917 -0.9735
vn -0.7045 -0.7095 -0.0167
vn -0.7605 -0.5306 -0.3743
vn -0.6567 -0.1978 -0.7278
vn -0.8108 -0.2884 -0.5094
vn -0.6297 -0.2387 -0.7393
vn -0.3415 -0.0422 -0.9389
vn -0.3997 0.4473 -0.8001
vn -0.2919 -0.5196 -0.8030
vn -0.1824 0.5054 -0.8434
vn 0.4963 0.1454 -0.8559
vn -0.3780 0.2602 -0.8885
vn 0.0575 0.3440 -0.9372
vn 0.0952 0.3429 -0.9345
vn 0.0558 0.3265 -0.9436
vn 0.5228 0.5231 -0.6731
vn -0.0938 -0.5241 -0.8465
vn -0.0567 -0.7361 -0.6745
vn 0.2271 0.1155 -0.9670
vn 0.1575 -0.3717 -0.9149
vn 0.4558 -0.4507 -0.7676
vn 0.7420 -0.6613 -0.1101
vn 0.8006 -0.1541 -0.5791
vn 0.6854 -0.6459 -0.3361
vn 0.8311 -0.4802 -0.2806
vn 0.9530 -0.1947 -0.2321
vn 0.8658 0.2016 -0.4580
vn 0.6763 0.6880 -0.2632
vn 0.8462 0.3006 -0.4400
vn 0.9681 0.1847 -0.1693
vn 0.7197 0.4973 -0.4845
vn 0.4138 -0.1110 0.9036
vn 0.9809 0.1876 0.0518
vn 0.4849 0.5544 0.6763
vn 0.6897 0.7110 0.1373
vn 0.4574 0.8884 0.0383
vn 0.3995 0.8553 0.3299
vn 0.8772 -0.4455 -0.1791
vn 0.9259 -0.1978 0.3218
vn 0.6757 -0.7186 0.1648
vn 0.6588 -0.4726 0.5853
vn 0.5225 -0.0533 0.8510
vn -0.1065 0.1805 0.9778
vn -0.0765 -0.4451 0.8922
vn 0.1321 -0.1017 0.9860
vn 0.0009 -0.4322 0.9018
vn 0.1442 0.7220 0.6767
vn 0.4768 0.3884 0.7885
vn 0.3179 0.3405 0.8849
vn -0.2634 0.3299 0.9066
vn -0.7073 0.3006 0.6398
vn 0.0612 0.4437 0.8941
vn -0.4877 0.5363 0.6889
vn -0.1841 0.6932 0.6968
vn 0.0624 0.7572 0.6502
vn -0.0412 -0.6128 0.7892
vn -0.3018 -0.0447 0.9523
vn 0.1176 -0.7993 -0.5893
vn -0.2351 -0.6018 0.7633
vn -0.7201 -0.3404 0.6047
vn -0.4549 -0.7950 0.4013
vn 0.0750 -0.9459 -0.3157
vn -0.1824 -0.9830 -0.0208
vn -0.3831 -0.7401 -0.5527
vn -0.1497 -0.9719 -0.1819
vn 0.3739 -0.9271 0.0277
vn -0.5852 -0.8052 0.0953
vn -0.6751 -0.6890 -0.2639
vn 0.1611 -0.9811 0.1071
vn 0.1595 -0.9872 -0.0009
vn 0.3487 -0.8693 -0.3503
vn 0.1043 -0.9580 -0.2673
vn -0.1117 -0.8831 -0.4557
vn 0.1376 -0.9750 0.1745
vn 0.0072 -0.9887 -0.1495
vn 0.1512 -0.9851 -0.0821
vn 0.1345 -0.8750 0.4651
vn -0.5220 -0.8093 0.2694
vn 0.3355 -0.9293 -0.1541
vn 0.5782 -0.8122 0.0775
vn 0.6158 -0.7343 0.2857
vn -0.5101 -0.8598 0.0233
vn -0.2303 -0.9579 0.1718
vn -0.1219 0.9821 -0.1435
vn -0.2579 -0.9486 0.1835
vn -0.2088 -0.9444 0.2539
vn -0.2554 -0.8109 0.5265
vn -0.4008 -0.8462 0.3511
vn 0.2187 0.9728 0.0767
vn 0.2627 0.8854 -0.3835
vn 0.4345 0.8942 -0.1074
vn 0.3698 0.8586 -0.3551
vn 0.5457 0.8350 -0.0708
vn 0.6643 0.6749 -0.3213
vn -0.4855 0.8729 0.0489
vn -0.5074 0.8485 -0.1500
vn -0.1339 0.7392 -0.6601
vn -0.4812 0.7895 -0.3809
vn -0.5147 0.6455 -0.5643
vn -0.0264 0.9006 0.4339
vn -0.3066 0.8984 0.3144
vn 0.0217 0.9629 0.2691
vn 0.3407 0.9204 0.1920
vn 0.1384 0.8577 0.4951
s off
f 9/1/1 12/2/1 2/3/1
f 11/4/2 111/5/2 3/6/2
f 12/2/3 13/7/3 11/4/3
f 1/8/4 14/9/4 4/10/4
f 14/9/5 5/11/5 4/10/5
f 14/9/6 16/12/6 5/11/6
f 16/12/7 114/13/7 5/11/7
f 3/14/8 112/15/8 15/16/8
f 15/16/9 112/15/9 16/12/9
f 16/12/10 113/17/10 114/13/10
f 6/18/11 17/19/11 7/20/11
f 4/10/12 18/21/12 6/18/12
f 5/11/13 114/13/13 18/21/13
f 19/22/14 106/23/14 20/24/14
f 6/25/15 7/26/15 21/27/15
f 21/27/16 22/28/16 10/29/16
f 22/28/17 110/30/17 10/29/17
f 7/26/18 23/31/18 22/28/18
f 22/28/19 24/32/19 110/30/19
f 8/33/20 31/34/20 23/31/20
f 29/35/21 30/36/21 32/37/21
f 32/37/22 33/38/22 31/34/22
f 30/36/23 116/39/23 32/37/23
f 26/40/24 34/41/24 25/42/24
f 26/40/25 20/24/25 34/41/25
f 31/43/26 8/44/26 26/40/26
f 36/45/27 37/46/27 28/47/27
f 28/47/28 37/46/28 117/48/28
f 37/46/29 102/49/29 117/48/29
f 27/50/30 100/51/30 36/45/30
f 36/45/31 100/51/31 37/46/31
f 25/52/32 39/53/32 29/35/32
f 38/54/33 41/55/33 115/56/33
f 117/48/34 118/57/34 40/58/34
f 40/58/35 51/59/35 41/55/35
f 42/60/36 50/61/36 43/62/36
f 51/59/37 118/57/37 43/62/37
f 80/63/38 50/61/38 49/64/38
f 121/65/39 98/66/39 45/67/39
f 44/68/40 52/69/40 121/65/40
f 52/69/41 102/49/41 121/65/41
f 47/70/42 54/71/42 48/72/42
f 53/73/43 55/74/43 47/70/43
f 47/70/44 55/74/44 54/71/44
f 44/68/45 45/67/45 53/73/45
f 45/67/46 108/75/46 55/74/46
f 55/74/47 127/76/47 122/77/47
f 46/78/48 56/79/48 49/64/48
f 47/80/49 48/81/49 56/79/49
f 56/79/50 57/82/50 119/83/50
f 48/81/51 123/84/51 57/82/51
f 57/82/52 124/85/52 119/83/52
f 65/86/53 59/87/53 58/88/53
f 65/86/54 66/89/54 59/87/54
f 67/90/55 57/82/55 123/84/55
f 68/91/56 124/85/56 66/89/56
f 66/89/57 124/85/57 67/90/57
f 67/90/58 124/85/58 57/82/58
f 58/92/59 122/77/59 60/93/59
f 122/77/60 127/76/60 125/94/60
f 123/95/61 54/71/61 58/92/61
f 58/92/62 60/93/62 61/96/62
f 69/97/63 70/98/63 62/99/63
f 60/93/64 71/100/64 69/97/64
f 70/98/65 113/17/65 112/15/65
f 71/100/66 113/17/66 70/98/66
f 64/101/67 91/102/67 68/91/67
f 64/101/68 73/103/68 91/102/68
f 62/104/69 3/6/69 74/105/69
f 74/105/70 111/5/70 73/103/70
f 83/106/71 76/107/71 75/108/71
f 83/106/72 110/30/72 85/109/72
f 85/109/73 24/32/73 33/38/73
f 76/107/74 77/110/74 79/111/74
f 78/112/75 115/56/75 86/113/75
f 15/16/76 14/9/76 1/8/76 2/114/76
f 80/63/77 49/64/77 87/115/77
f 87/115/78 119/83/78 88/116/78
f 75/108/79 89/117/79 83/106/79
f 75/108/80 81/118/80 89/117/80
f 91/102/81 73/103/81 90/119/81
f 92/120/82 99/121/82 93/122/82
f 93/122/83 100/51/83 27/50/83
f 96/123/84 97/124/84 99/121/84
f 101/125/85 102/49/85 100/51/85
f 98/66/86 121/65/86 101/125/86
f 92/120/87 103/126/87 94/127/87
f 94/127/88 103/126/88 95/128/88
f 104/129/89 114/13/89 95/128/89
f 104/129/90 106/23/90 114/13/90
f 93/122/91 107/130/91 105/131/91
f 94/127/92 109/132/92 92/120/92
f 109/132/93 94/127/93 125/94/93
f 94/127/94 113/17/94 71/100/94
f 95/128/95 114/13/95 113/17/95
f 97/124/96 108/75/96 98/66/96
f 96/123/97 109/132/97 108/75/97
f 109/132/98 127/76/98 108/75/98
f 1/133/99 9/1/99 2/3/99
f 2/3/100 11/4/100 3/6/100
f 2/3/101 12/2/101 11/4/101
f 9/1/102 10/29/102 12/2/102
f 11/4/103 13/7/103 111/5/103
f 19/22/104 17/19/104 6/18/104 18/21/104
f 14/9/105 15/16/105 16/12/105
f 2/114/106 3/14/106 15/16/106
f 16/12/107 112/15/107 113/17/107
f 1/8/108 4/10/108 6/18/108
f 7/20/109 17/19/109 8/44/109
f 20/24/110 8/44/110 17/19/110 19/22/110
f 106/23/111 19/22/111 18/21/111 114/13/111
f 4/10/112 5/11/112 18/21/112
f 21/27/113 9/1/113 1/133/113 6/25/113
f 20/24/114 106/23/114 126/134/114
f 32/37/115 26/135/115 25/52/115 29/35/115
f 9/1/116 21/27/116 10/29/116
f 21/27/117 7/26/117 22/28/117
f 7/26/118 8/33/118 23/31/118
f 22/28/119 23/31/119 24/32/119
f 24/32/120 23/31/120 31/34/120 33/38/120
f 26/135/121 32/37/121 31/34/121
f 126/134/122 35/136/122 34/41/122 20/24/122
f 32/37/123 116/39/123 33/38/123
f 27/50/124 34/41/124 35/136/124
f 40/58/125 39/53/125 28/137/125 117/48/125
f 26/40/126 8/44/126 20/24/126
f 25/42/127 34/41/127 36/45/127
f 25/42/128 36/45/128 28/47/128
f 34/41/129 27/50/129 36/45/129
f 37/46/130 100/51/130 102/49/130
f 29/35/131 38/54/131 30/36/131
f 30/36/132 38/54/132 115/56/132
f 28/137/133 39/53/133 25/52/133
f 29/35/134 39/53/134 38/54/134
f 41/55/135 38/54/135 39/53/135 40/58/135
f 120/138/136 51/59/136 50/61/136 80/63/136
f 40/58/137 118/57/137 51/59/137
f 41/55/138 51/59/138 120/138/138
f 42/60/139 49/64/139 50/61/139
f 50/61/140 51/59/140 43/62/140
f 52/69/141 44/68/141 42/139/141 43/140/141
f 44/68/142 121/65/142 45/67/142
f 117/48/143 52/69/143 43/140/143 118/57/143
f 53/73/144 46/141/144 42/139/144 44/68/144
f 52/69/145 117/48/145 102/49/145
f 67/90/146 123/84/146 59/87/146 66/89/146
f 46/141/147 53/73/147 47/70/147
f 55/74/148 122/77/148 54/71/148
f 53/73/149 45/67/149 55/74/149
f 45/67/150 98/66/150 108/75/150
f 55/74/151 108/75/151 127/76/151
f 42/60/152 46/78/152 49/64/152
f 46/78/153 47/80/153 56/79/153
f 49/64/154 56/79/154 119/83/154
f 56/79/155 48/81/155 57/82/155
f 48/81/156 54/142/156 123/84/156
f 63/143/157 65/86/157 58/88/157
f 65/86/158 63/143/158 64/101/158 68/91/158
f 63/143/159 58/88/159 61/144/159 72/145/159
f 65/86/160 68/91/160 66/89/160
f 60/93/161 122/77/161 125/94/161
f 59/146/162 123/95/162 58/92/162
f 58/92/163 54/71/163 122/77/163
f 61/96/164 69/97/164 62/99/164
f 62/99/165 112/15/165 3/14/165
f 61/96/166 60/93/166 69/97/166
f 62/99/167 70/98/167 112/15/167
f 69/97/168 71/100/168 70/98/168
f 60/93/169 125/94/169 71/100/169
f 73/103/170 64/101/170 63/143/170 72/145/170
f 74/105/171 72/145/171 61/144/171 62/104/171
f 116/39/172 30/36/172 78/112/172 84/147/172
f 72/145/173 74/105/173 73/103/173
f 74/105/174 3/6/174 111/5/174
f 73/103/175 111/5/175 13/7/175
f 77/110/176 84/147/176 78/112/176
f 85/109/177 77/110/177 76/107/177 83/106/177
f 33/38/178 116/39/178 84/147/178 85/109/178
f 77/110/179 85/109/179 84/147/179
f 120/138/180 80/63/180 79/111/180 86/113/180
f 83/106/181 10/29/181 110/30/181
f 85/109/182 110/30/182 24/32/182
f 75/108/183 76/107/183 79/111/183
f 79/111/184 77/110/184 86/113/184
f 41/55/185 120/138/185 86/113/185 115/56/185
f 77/110/186 78/112/186 86/113/186
f 30/36/187 115/56/187 78/112/187
f 88/116/188 82/148/188 81/118/188 87/115/188
f 79/111/189 81/118/189 75/108/189
f 79/111/190 87/115/190 81/118/190
f 124/85/191 68/91/191 82/148/191 88/116/191
f 10/29/192 83/106/192 89/117/192 12/2/192
f 79/111/193 80/63/193 87/115/193
f 87/115/194 49/64/194 119/83/194
f 88/116/195 119/83/195 124/85/195
f 13/7/196 12/2/196 89/117/196 90/119/196
f 89/117/197 81/118/197 90/119/197
f 105/131/198 103/126/198 92/120/198 93/122/198
f 81/118/199 82/148/199 91/102/199
f 81/118/200 91/102/200 90/119/200
f 82/148/201 68/91/201 91/102/201
f 90/119/202 73/103/202 13/7/202
f 92/120/203 96/123/203 99/121/203
f 93/122/204 99/121/204 100/51/204
f 99/121/205 97/124/205 101/125/205
f 99/121/206 101/125/206 100/51/206
f 97/124/207 98/66/207 101/125/207
f 101/125/208 121/65/208 102/49/208
f 95/128/209 103/126/209 104/129/209
f 106/23/210 104/129/210 103/126/210 105/131/210
f 107/130/211 93/122/211 27/50/211 35/136/211
f 105/131/212 107/130/212 106/23/212
f 126/134/213 106/23/213 107/130/213 35/136/213
f 94/127/214 71/100/214 125/94/214
f 94/127/215 95/128/215 113/17/215
f 92/120/216 109/132/216 96/123/216
f 96/123/217 108/75/217 97/124/217
f 109/132/218 125/94/218 127/76/218
