# Blender v2.78 (sub 0) OBJ File: 'Low_Poly_Vegetation_Pack.blend'
# www.blender.org
g GrassPlane_b_OneS_02
v -0.306781 -0.037889 -0.118063
v 0.306781 -0.037889 -0.057962
v -0.292611 0.420447 -0.216907
v 0.320951 0.420447 -0.156806
v 0.000000 -0.037889 0.000000
v 0.014170 0.420447 -0.098844
v -0.306781 0.177695 -0.137634
v 0.306781 0.177695 -0.077534
v 0.000000 0.177695 -0.019572
vt 0.5000 0.3090
vt 0.9922 0.3090
vt 0.9922 0.7998
vt 0.5000 0.7998
vt 0.0078 0.3090
vt 0.0078 0.7998
vt 0.0078 0.0078
vt 0.5000 0.0078
vt 0.9922 0.0078
vn -0.0911 0.1994 0.9756
vn 0.1820 0.1977 0.9632
vn 0.1773 0.2961 0.9385
vn -0.0808 0.3136 0.9461
vn -0.3518 0.2017 0.9141
vn -0.3415 0.3097 0.8874
vn -0.3579 0.0844 0.9299
vn -0.0884 0.0900 0.9920
vn 0.1849 0.0888 0.9787
s 1
f 9/1/1 8/2/2 4/3/3 6/4/4
f 7/5/5 9/1/1 6/4/4 3/6/6
f 1/7/7 5/8/8 9/1/1 7/5/5
f 5/8/8 2/9/9 8/2/2 9/1/1
