# Blender v2.78 (sub 0) OBJ File: 'Low_Poly_Vegetation_Pack.blend'
# www.blender.org
g GrassPlane_b_OneS_01
v -0.249958 -0.031281 0.000000
v 0.249958 -0.031281 0.000000
v -0.249958 0.381258 -0.227070
v 0.249958 0.381258 -0.227070
v -0.249958 0.196311 -0.054279
v 0.249958 0.196311 -0.054279
vt 0.0078 0.5000
vt 0.9922 0.5000
vt 0.9922 0.9922
vt 0.0078 0.9922
vt 0.0078 0.0078
vt 0.9922 0.0078
vn 0.0000 0.4731 0.8810
vn 0.0000 0.6827 0.7307
vn 0.0000 0.2320 0.9727
s 1
f 5/1/1 6/2/1 4/3/2 3/4/2
f 1/5/3 2/6/3 6/2/1 5/1/1
