# Blender v2.78 (sub 0) OBJ File: 'Low_Poly_Vegetation_Pack.blend'
# www.blender.org
g GrassPlane_a_OneS_03
v 0.000000 -0.016989 -0.000000
v -0.000000 0.407222 -0.090169
v -0.000000 0.217659 -0.028880
v -0.165099 0.407222 -0.118489
v -0.165099 0.217659 -0.057201
v -0.165099 -0.016989 -0.028320
v 0.174013 -0.016989 -0.028320
v 0.174013 0.407222 -0.118489
v 0.174013 0.217659 -0.057201
vt 0.1568 0.0005
vt 0.5000 0.0005
vt 0.5000 0.5000
vt 0.1568 0.5000
vt 0.5000 0.9811
vt 0.1568 0.9811
vt 0.8618 0.0005
vt 0.8618 0.5000
vt 0.8618 0.9811
vn -0.1678 0.1204 0.9784
vn -0.0042 0.1221 0.9925
vn -0.0041 0.2138 0.9769
vn -0.1651 0.2151 0.9625
vn -0.0042 0.3076 0.9515
vn -0.1611 0.3036 0.9391
vn 0.1595 0.1206 0.9798
vn 0.1569 0.2152 0.9639
vn 0.1530 0.3040 0.9403
s 1
f 6/1/1 1/2/2 3/3/3 5/4/4
f 5/4/4 3/3/3 2/5/5 4/6/6
f 1/2/2 7/7/7 9/8/8 3/3/3
f 3/3/3 9/8/8 8/9/9 2/5/5
