# Blender v2.78 (sub 0) OBJ File: 'Low_Poly_Vegetation_Pack.blend'
# www.blender.org
g Cactus_a_m_05
v -0.161043 0.644805 -0.064293
v -0.158837 0.621621 0.028905
v -0.087310 0.675178 0.061838
v -0.067090 0.719520 -0.046092
v -0.615500 1.151076 -0.036490
v -0.700258 1.073151 0.074036
v -0.672692 1.061569 0.231584
v -0.553620 1.125146 0.317532
v -0.432564 1.215786 0.267122
v -0.400674 1.265223 0.118310
v -0.793125 1.533229 0.047245
v -0.765732 1.509161 0.284896
v -0.589943 1.628575 0.204210
v -0.665875 1.598733 0.033057
v -0.740999 1.627582 0.166624
v -0.076851 -0.110223 -0.121748
v -0.143102 -0.110223 -0.015824
v -0.101595 -0.110223 0.102016
v 0.016416 -0.110223 0.143036
v 0.122065 -0.110223 0.076347
v 0.135797 -0.110223 -0.047833
v -0.133527 1.221246 -0.328666
v -0.258167 1.369482 -0.089928
v -0.158583 1.376902 0.190358
v 0.120580 1.356046 0.289324
v 0.350671 1.249491 0.151799
v 0.060219 1.880646 -0.346902
v -0.057233 1.916903 -0.156463
v 0.018749 1.925858 0.056899
v 0.230950 1.900767 0.132518
v 0.419578 1.860525 0.013450
v 0.442592 1.835434 -0.210643
v 0.281949 1.817065 -0.393862
v 0.224843 2.022592 -0.144150
v 0.398482 1.308951 -0.158729
v 0.038251 -0.110131 -0.138578
v 0.033800 0.573752 0.263241
v -0.261489 0.573896 -0.031869
v -0.184507 0.574140 0.186750
v 0.265179 1.029452 -0.179398
v 0.264813 0.971906 -0.221061
v 0.217063 1.037284 -0.234605
v 0.647051 1.184776 -0.412182
v 0.527346 1.145719 -0.541732
v 0.644128 1.406206 -0.495800
v 0.729697 1.310159 -0.503818
v 0.657507 1.286728 -0.619254
v 0.585075 1.364288 -0.591401
v 0.693272 1.363367 -0.570305
vt 0.4740 0.0818
vt 0.4562 0.1013
vt 0.4613 0.0790
vt 0.4432 0.0909
vt 0.4426 0.0765
vt 0.4512 0.0773
vt 0.4358 0.0904
vt 0.4260 0.0775
vt 0.4279 0.0948
vt 0.4159 0.0796
vt 0.4392 0.1048
vt 0.4202 0.1067
vt 0.4403 0.0866
vt 0.4307 0.0748
vt 0.4413 0.0237
vt 0.4209 0.0737
vt 0.4066 0.0802
vt 0.4157 0.0505
vt 0.4562 0.0745
vt 0.4475 0.0699
vt 0.4542 0.0491
vt 0.4439 0.0260
vt 0.4521 0.0253
vt 0.4457 0.0872
vt 0.4432 0.1012
vt 0.4349 0.0892
vt 0.4293 0.0935
vt 0.4238 0.1028
vt 0.4571 0.0928
vt 0.4512 0.0887
vt 0.4637 0.1028
vt 0.4467 0.0239
vt 0.4331 0.0910
vt 0.4260 0.0247
vt 0.4381 0.0260
vt 0.4577 0.0241
vt 0.4677 0.0805
vt 0.4491 0.0256
vt 0.4243 0.0956
vt 0.4202 0.1067
vt 0.4026 0.0838
vt 0.4433 0.0909
vt 0.4467 0.0769
vt 0.4392 0.1048
vt 0.4562 0.1013
vt 0.4329 0.0257
vt 0.4026 0.0838
vt 0.4222 0.0240
vt 0.4577 0.0241
vt 0.4620 0.0497
vt 0.4662 0.0762
vt 0.4711 0.0504
vt 0.4788 0.0789
vt 0.4522 0.0237
vt 0.4578 0.0231
vt 0.4634 0.0219
vt 0.4304 0.0223
vt 0.4359 0.0232
vt 0.4248 0.0209
vn -0.4990 -0.2040 0.8422
vn -0.7134 -0.1834 -0.6764
vn -0.1765 0.1317 -0.9754
vn 0.8707 0.3796 0.3127
vn 0.0406 0.9811 -0.1891
vn -0.1735 0.7138 0.6785
vn -0.9313 0.3357 0.1413
vn -0.4515 0.7853 -0.4236
vn 0.6692 -0.1801 -0.7209
vn 0.4828 -0.0826 0.8718
vn -0.8934 -0.0290 -0.4484
vn -0.6417 -0.7664 -0.0301
vn -0.1985 0.0312 -0.9796
vn 0.4767 0.7291 -0.4911
vn 0.4067 0.8394 0.3606
vn -0.3529 0.9317 0.0866
vn 0.0921 0.7791 -0.6202
vn 0.6484 0.7610 -0.0186
vn -0.0356 0.9143 0.4034
vn -0.3134 0.8785 -0.3606
vn -0.1427 -0.1579 -0.9771
vn -0.4010 0.7912 0.4618
vn -0.5064 -0.5134 -0.6928
vn -0.4379 -0.0877 -0.8947
vn 0.4403 0.3223 0.8380
vn 0.1726 0.4717 -0.8647
vn 0.8520 -0.0658 -0.5194
vn 0.7464 0.6554 0.1155
vn 0.0950 0.8888 -0.4484
vn 0.5908 -0.4756 0.6518
vn 0.7871 0.5594 -0.2599
vn 0.4273 -0.0694 0.9014
vn 0.1057 0.1562 -0.9821
vn 0.8477 0.4191 0.3251
vn -0.1473 -0.5763 0.8039
vn 0.2525 0.2298 0.9399
vn 0.7588 0.4953 -0.4230
vn -0.9723 -0.2026 0.1169
vn -0.9425 0.0286 0.3331
vn -0.3324 0.0060 0.9431
vn 0.0400 -0.1362 -0.9899
vn -0.2912 0.3162 0.9029
vn -0.8043 0.2244 -0.5502
vn 0.5500 0.1255 0.8257
vn 0.7521 -0.1268 -0.6467
vn -0.8828 0.3597 0.3021
vn 0.9890 -0.0772 0.1261
vn -0.7903 -0.1348 -0.5977
vn -0.3260 -0.1553 0.9325
vn 0.9784 -0.1715 0.1151
vn -0.9320 -0.1536 0.3283
vn 0.5736 -0.1462 0.8060
vn 0.6333 -0.7065 -0.3159
vn 0.6699 -0.1803 -0.7203
vn -0.7079 0.0266 -0.7058
vn 0.4320 -0.8925 -0.1301
vn 0.3899 0.3298 0.8597
vn -0.6339 0.7716 0.0533
vn -0.5350 -0.4406 -0.7209
s off
f 8/1/1 12/2/1 7/3/1
f 11/4/2 5/5/2 6/6/2
f 11/4/3 14/7/3 5/5/3
f 10/8/4 13/9/4 9/10/4
f 15/11/5 13/9/5 14/7/5
f 13/9/6 15/11/6 12/12/6
f 12/2/7 15/11/7 11/4/7
f 11/4/8 15/11/8 14/7/8
f 33/13/9 35/14/9 36/15/9
f 26/16/10 25/17/10 37/18/10
f 23/19/11 22/20/11 38/21/11
f 6/6/12 1/22/12 2/23/12 7/3/12
f 27/24/13 33/13/13 22/20/13
f 34/25/14 32/26/14 33/13/14
f 31/27/15 34/25/15 30/28/15
f 29/29/16 34/25/16 28/30/16
f 27/24/17 34/25/17 33/13/17
f 32/26/18 34/25/18 31/27/18
f 34/25/19 29/29/19 30/31/19
f 28/30/20 34/25/20 27/24/20
f 22/20/21 36/15/21 16/32/21
f 45/33/22 42/34/22 40/35/22
f 42/36/23 44/37/23 41/38/23
f 48/39/24 47/40/24 44/41/24
f 46/42/25 45/33/25 43/43/25
f 48/39/26 49/44/26 47/40/26
f 47/45/27 49/44/27 46/42/27
f 46/42/28 49/44/28 45/33/28
f 45/33/29 49/44/29 48/39/29
f 43/43/30 40/35/30 41/38/30
f 4/46/31 14/7/31 10/8/31
f 9/10/32 8/47/32 3/48/32
f 14/7/33 4/46/33 1/22/33 5/5/33
f 3/48/34 4/46/34 10/8/34 9/10/34
f 2/23/35 3/49/35 8/1/35 7/3/35
f 12/12/36 8/47/36 9/10/36 13/9/36
f 14/7/37 13/9/37 10/8/37
f 6/6/38 7/3/38 12/2/38 11/4/38
f 38/21/39 39/50/39 24/51/39 23/19/39
f 24/51/40 39/50/40 37/52/40 25/53/40
f 22/20/41 33/13/41 36/15/41
f 29/29/42 24/51/42 25/53/42 30/31/42
f 22/20/43 23/19/43 28/30/43 27/24/43
f 30/28/44 25/17/44 26/16/44 31/27/44
f 33/13/45 32/26/45 35/14/45
f 23/19/46 24/51/46 29/29/46 28/30/46
f 31/27/47 26/16/47 35/14/47 32/26/47
f 16/32/48 17/54/48 38/21/48 22/20/48
f 39/50/49 18/55/49 19/56/49 37/52/49
f 26/16/50 20/57/50 21/58/50 35/14/50
f 17/54/51 18/55/51 39/50/51 38/21/51
f 37/18/52 19/59/52 20/57/52 26/16/52
f 43/43/53 44/37/53 47/45/53 46/42/53
f 36/15/54 35/14/54 21/58/54
f 42/34/55 48/39/55 44/41/55
f 44/37/56 43/43/56 41/38/56
f 43/43/57 45/33/57 40/35/57
f 42/34/58 45/33/58 48/39/58
f 1/22/59 6/6/59 5/5/59
