# Blender v2.78 (sub 0) OBJ File: 'Low_Poly_Vegetation_Pack.blend'
# www.blender.org
g Cactus_l_06
v 0.100162 1.443998 0.169446
v 0.183087 1.370147 0.157024
v 0.249816 1.359969 0.073359
v 0.250101 1.421129 -0.018547
v 0.183728 1.507572 -0.049487
v 0.100677 1.554205 0.003837
v 0.063487 1.525911 0.101272
v 0.450425 1.571371 0.355511
v 0.552481 1.514973 0.354867
v 0.629622 1.510547 0.270738
v 0.623759 1.561425 0.166474
v 0.539307 1.629296 0.120589
v 0.439860 1.663051 0.167634
v 0.400303 1.637271 0.272184
v 0.552737 2.179785 0.441175
v 0.691672 2.135054 0.472496
v 0.706791 2.165185 0.328775
v 0.595550 2.198973 0.302702
v 0.626554 2.215410 0.398958
v 0.000000 -0.086743 -0.178265
v -0.139373 -0.086743 -0.111146
v -0.173796 -0.086743 0.039668
v -0.077346 -0.086743 0.160611
v 0.144295 -0.086154 0.107696
v 0.139373 -0.086743 -0.111146
v 0.019370 1.534138 -0.276467
v -0.168856 1.578136 -0.183798
v -0.215344 1.589003 0.024428
v -0.085088 1.558555 0.191411
v 0.123827 1.509721 0.191411
v 0.254084 1.479273 0.024428
v 0.207596 1.490140 -0.183798
v 0.214277 2.801144 -0.329236
v -0.029319 2.852003 -0.209983
v -0.091731 2.852926 0.057977
v 0.074039 2.803217 0.272864
v 0.343163 2.740309 0.272864
v 0.512985 2.711573 0.057977
v 0.455625 2.738647 -0.209983
v 0.348105 3.335943 -0.190055
v 0.196027 3.378154 -0.114095
v 0.157042 3.381206 0.055736
v 0.260508 3.342803 0.191553
v 0.498085 3.284703 0.134685
v 0.498759 3.286361 -0.114943
v 0.363830 3.396418 0.013565
v 0.076175 1.755124 -0.113921
v -0.019680 1.682349 -0.128583
v -0.108940 1.663634 -0.054263
v -0.124390 1.713073 0.053075
v -0.054397 1.793437 0.112604
v 0.048334 1.844211 0.079497
v 0.106444 1.827160 -0.021316
v -0.253246 1.963158 -0.358050
v -0.366130 1.913331 -0.386068
v -0.466293 1.901845 -0.312326
v -0.478310 1.937348 -0.192354
v -0.393133 1.993107 -0.116492
v -0.274902 2.027134 -0.141867
v -0.212646 2.013805 -0.249370
v -0.308521 2.644298 -0.370384
v -0.453658 2.616707 -0.437517
v -0.381619 2.644823 -0.228575
v -0.453567 2.676068 -0.279448
vt 0.5801 0.0679
vt 0.5743 0.1030
vt 0.5741 0.0679
vt 0.5686 0.1028
vt 0.5621 0.0679
vt 0.5682 0.0679
vt 0.5789 0.1082
vt 0.5864 0.0679
vt 0.5927 0.0677
vt 0.5642 0.1058
vt 0.5711 0.1089
vt 0.5688 0.0230
vt 0.5734 0.0231
vt 0.5620 0.1112
vt 0.5598 0.0225
vt 0.5643 0.0228
vt 0.5558 0.0679
vt 0.5824 0.0226
vt 0.5869 0.0220
vt 0.5779 0.0230
vt 0.5553 0.0220
vt 0.5494 0.0677
vt 0.5685 0.0937
vt 0.5683 0.1028
vt 0.5629 0.0946
vt 0.5642 0.1058
vt 0.5711 0.1089
vt 0.5780 0.1058
vt 0.5802 0.1113
vt 0.5725 0.1023
vt 0.5752 0.1033
vt 0.5682 0.0679
vt 0.5667 0.0229
vt 0.5734 0.0231
vt 0.5741 0.0679
vt 0.5620 0.1112
vt 0.5598 0.0225
vt 0.5621 0.0679
vt 0.5558 0.0679
vt 0.5864 0.0679
vt 0.5824 0.0226
vt 0.5869 0.0220
vt 0.5927 0.0677
vt 0.5779 0.0230
vt 0.5801 0.0679
vt 0.5553 0.0220
vt 0.5494 0.0677
vt 0.5739 0.0938
vt 0.5569 0.0964
vt 0.5852 0.0964
vt 0.5923 0.0993
vt 0.5793 0.0947
vt 0.5501 0.0995
vt 0.5801 0.0679
vt 0.5743 0.1030
vt 0.5741 0.0679
vt 0.5686 0.1028
vt 0.5621 0.0679
vt 0.5682 0.0679
vt 0.5789 0.1082
vt 0.5864 0.0679
vt 0.5927 0.0677
vt 0.5688 0.0230
vt 0.5734 0.0231
vt 0.5671 0.1071
vt 0.5598 0.0225
vt 0.5643 0.0228
vt 0.5558 0.0679
vt 0.5824 0.0226
vt 0.5869 0.0220
vt 0.5779 0.0230
vt 0.5553 0.0220
vt 0.5494 0.0677
vt 0.5620 0.1112
vn -0.8326 0.0625 0.5503
vn -0.3155 0.3171 -0.8944
vn 0.6998 -0.2816 0.6565
vn 0.3363 0.9044 -0.2627
vn -0.3576 0.9271 0.1123
vn 0.6490 0.7281 0.2209
vn 0.0664 0.7024 0.7087
vn -0.4400 0.8979 -0.0116
vn 0.4420 -0.0145 -0.8969
vn 0.2244 -0.9353 0.2738
vn -0.5295 0.4353 0.7281
vn 0.0226 0.8000 -0.5996
vn 0.5085 -0.7414 -0.4379
vn -0.2710 -0.4691 0.8405
vn 0.9931 -0.1170 -0.0011
vn -0.9109 0.3301 -0.2477
vn 0.4305 0.2068 -0.8786
vn -0.1774 -0.1266 0.9760
vn 0.7789 -0.0633 0.6240
vn 0.3108 0.8451 0.4350
vn -0.0807 0.9961 -0.0364
vn 0.4258 0.8579 -0.2877
vn 0.9907 -0.0621 -0.1208
vn -0.0132 0.9595 0.2814
vn 0.1181 0.9494 -0.2911
vn 0.6360 0.7717 0.0068
vn 0.1182 -0.0340 0.9924
vn -0.9754 -0.0265 -0.2190
vn 0.4311 -0.0599 -0.9003
vn -0.7863 -0.0146 0.6176
vn 0.7863 -0.0223 0.6174
vn -0.4431 -0.0479 -0.8952
vn 0.9550 -0.1945 -0.2238
vn -0.0148 -0.0634 0.9979
vn -0.9693 0.1012 -0.2242
vn 0.4196 -0.1022 -0.9019
vn 0.7604 -0.1768 0.6249
vn -0.7828 0.0598 0.6194
vn -0.4352 0.0293 -0.8999
vn 0.4672 0.1134 -0.8769
vn -0.7044 0.3360 0.6252
vn -0.3589 0.3161 -0.8782
vn 0.9940 -0.0083 -0.1093
vn 0.1460 0.1520 0.9775
vn -0.8849 0.4164 -0.2087
vn 0.9238 0.0681 -0.3769
vn 0.1615 0.1645 0.9731
vn -0.5780 -0.1308 -0.8055
vn 0.4314 0.8943 0.1188
vn -0.0154 0.9361 -0.3515
vn 0.3014 0.9413 0.1519
vn -0.6031 -0.0996 0.7914
vn -0.2282 -0.8547 -0.4663
vn 0.6881 0.4862 -0.5386
vn -0.0800 0.6987 0.7109
vn -0.6309 -0.7487 0.2035
vn 0.3885 -0.3674 -0.8450
vn -0.9986 0.0185 -0.0491
vn 0.8631 0.2161 0.4566
vn -0.6346 0.1258 0.7625
vn 0.3479 -0.0073 -0.9375
s off
f 8/1/1 15/2/1 14/3/1
f 18/4/2 12/5/2 13/6/2
f 16/7/3 9/8/3 10/9/3
f 17/10/4 18/4/4 19/11/4
f 13/6/5 6/12/5 7/13/5 14/3/5
f 16/14/6 17/10/6 19/11/6
f 15/2/7 16/7/7 19/11/7
f 18/4/8 15/2/8 19/11/8
f 4/15/9 5/16/9 12/5/9 11/17/9
f 9/8/10 2/18/10 3/19/10 10/9/10
f 14/3/11 7/13/11 1/20/11 8/1/11
f 5/16/12 6/12/12 13/6/12 12/5/12
f 3/21/13 4/15/13 11/17/13 10/22/13
f 8/1/14 1/20/14 2/18/14 9/8/14
f 16/14/15 10/22/15 11/17/15 17/10/15
f 13/6/16 14/3/16 15/2/16 18/4/16
f 17/10/17 11/17/17 12/5/17 18/4/17
f 8/1/18 9/8/18 16/7/18 15/2/18
f 38/23/19 44/24/19 37/25/19
f 43/26/20 44/24/20 46/27/20
f 41/28/21 42/29/21 46/27/21
f 45/30/22 40/31/22 46/27/22
f 31/32/23 24/33/23 25/34/23 32/35/23
f 42/36/24 43/26/24 46/27/24
f 40/31/25 41/28/25 46/27/25
f 44/24/26 45/30/26 46/27/26
f 23/37/27 24/33/27 30/38/27 29/39/27
f 27/40/28 21/41/28 22/42/28 28/43/28
f 32/35/29 25/34/29 20/44/29 26/45/29
f 22/46/30 23/37/30 29/39/30 28/47/30
f 31/32/31 30/38/31 24/33/31
f 26/45/32 20/44/32 21/41/32 27/40/32
f 38/23/33 31/32/33 32/35/33 39/48/33
f 37/25/34 36/49/34 29/39/34 30/38/34
f 34/50/35 27/40/35 28/43/35 35/51/35
f 39/48/36 32/35/36 26/45/36 33/52/36
f 38/23/37 37/25/37 30/38/37 31/32/37
f 36/49/38 35/53/38 28/47/38 29/39/38
f 33/52/39 26/45/39 27/40/39 34/50/39
f 40/31/40 45/30/40 39/48/40 33/52/40
f 42/36/41 35/53/41 36/49/41 43/26/41
f 41/28/42 40/31/42 33/52/42 34/50/42
f 45/30/43 44/24/43 38/23/43 39/48/43
f 43/26/44 36/49/44 37/25/44 44/24/44
f 42/29/45 41/28/45 34/50/45 35/51/45
f 54/54/46 61/55/46 60/56/46
f 63/57/47 58/58/47 59/59/47
f 62/60/48 55/61/48 56/62/48
f 59/59/49 52/63/49 53/64/49 60/56/49
f 61/55/50 62/60/50 64/65/50
f 63/57/51 61/55/51 64/65/51
f 50/66/52 51/67/52 58/58/52 57/68/52
f 55/61/53 48/69/53 49/70/53 56/62/53
f 60/56/54 53/64/54 47/71/54 54/54/54
f 51/67/55 52/63/55 59/59/55 58/58/55
f 49/72/56 50/66/56 57/68/56 56/73/56
f 54/54/57 47/71/57 48/69/57 55/61/57
f 62/74/58 56/73/58 57/68/58 64/65/58
f 59/59/59 60/56/59 61/55/59 63/57/59
f 64/65/60 57/68/60 58/58/60 63/57/60
f 54/54/61 55/61/61 62/60/61 61/55/61
