# Blender v2.78 (sub 0) OBJ File: 'Low_Poly_Vegetation_Pack.blend'
# www.blender.org
g Cactus_b_m_02
v -0.000000 -0.110223 -0.143975
v -0.141596 -0.109792 -0.032561
v -0.013811 -0.109879 0.149303
v 0.140365 -0.110223 0.032037
v 0.028011 0.953998 -0.176504
v -0.036484 1.354056 -0.105748
v -0.068825 1.357725 0.037741
v 0.116880 1.058128 0.157664
v 0.225333 1.323831 -0.105748
v 0.254100 1.970682 -0.164889
v 0.127232 1.993570 -0.102807
v 0.095898 1.999223 0.036691
v 0.183694 1.983384 0.148560
v 0.383222 1.952329 0.103636
v 0.380968 1.947794 -0.102807
v 0.267077 2.022592 -0.001879
v 0.229341 1.181209 0.039092
v 0.099888 -0.109919 -0.093747
v -0.051375 0.937760 0.160069
v -0.131131 0.573696 -0.108064
v -0.164614 0.573855 0.038568
vt 0.5528 0.0722
vt 0.5446 0.0682
vt 0.5547 0.0222
vt 0.5880 0.0622
vt 0.5796 0.0747
vt 0.5753 0.0482
vt 0.5695 0.0730
vt 0.5607 0.0596
vt 0.5675 0.0476
vt 0.5454 0.0899
vt 0.5356 0.0651
vt 0.5566 0.0997
vt 0.5537 0.0858
vt 0.5372 0.1013
vt 0.5705 0.0913
vt 0.5646 0.0872
vt 0.5591 0.0857
vt 0.5770 0.1013
vt 0.5601 0.0224
vt 0.5248 0.0629
vt 0.5683 0.0219
vt 0.5767 0.0205
vt 0.5404 0.0199
vt 0.5493 0.0217
vn 0.9897 -0.0875 -0.1136
vn -0.8660 0.1063 0.4886
vn -0.5231 0.0660 -0.8497
vn 0.8082 -0.2074 0.5512
vn 0.5336 0.8454 -0.0244
vn 0.2220 0.9064 0.3593
vn -0.1512 0.9857 -0.0739
vn 0.3139 0.8972 -0.3107
vn -0.9681 0.1181 -0.2212
vn -0.0866 0.9747 0.2060
vn 0.0225 0.9521 -0.3050
vn 0.4490 -0.0391 -0.8927
vn -0.7304 0.1780 0.6594
vn 0.4082 -0.0433 -0.9119
vn -0.4035 0.1030 -0.9092
vn 0.9724 -0.2109 -0.1002
vn 0.1275 0.0006 0.9918
vn -0.9447 0.2425 -0.2206
vn 0.4679 -0.1011 -0.8780
vn -0.4712 -0.0441 -0.8809
vn -0.7470 -0.0575 0.6624
vn 0.6778 -0.0651 0.7324
vn -0.9749 -0.0097 -0.2226
vn 0.0211 -0.0095 0.9997
vn 0.9499 -0.0638 -0.3058
s off
f 9/1/1 17/2/1 18/3/1
f 19/4/2 7/5/2 21/6/2
f 6/7/3 5/8/3 20/9/3
f 17/2/4 14/10/4 8/11/4
f 16/12/5 14/10/5 15/13/5
f 14/10/6 16/12/6 13/14/6
f 12/15/7 16/12/7 11/16/7
f 10/17/8 16/12/8 15/13/8
f 20/9/9 21/6/9 7/5/9 6/7/9
f 16/12/10 12/15/10 13/18/10
f 11/16/11 16/12/11 10/17/11
f 5/8/12 18/3/12 1/19/12
f 12/15/13 7/5/13 19/4/13 13/18/13
f 5/8/14 9/1/14 18/3/14
f 5/8/15 6/7/15 11/16/15 10/17/15
f 17/2/16 9/1/16 15/13/16 14/10/16
f 13/14/17 19/20/17 8/11/17 14/10/17
f 6/7/18 7/5/18 12/15/18 11/16/18
f 9/1/19 5/8/19 10/17/19 15/13/19
f 1/19/20 2/21/20 20/9/20 5/8/20
f 21/6/21 2/21/21 3/22/21 19/4/21
f 8/11/22 3/23/22 4/24/22 17/2/22
f 21/6/23 20/9/23 2/21/23
f 3/23/24 8/11/24 19/20/24
f 18/3/25 17/2/25 4/24/25
