# Blender v2.78 (sub 0) OBJ File: 'Low_Poly_Vegetation_Pack.blend'
# www.blender.org
g Cactus_c_m_01
v 0.000000 0.704905 -0.000404
v -0.204416 0.568404 0.028474
v -0.253956 0.151172 0.043220
v -0.107011 -0.104381 0.008515
v 0.107011 -0.104381 0.008515
v 0.253956 0.151172 0.043220
v 0.204416 0.568404 0.028474
v 0.000000 0.698545 -0.025041
v -0.204416 0.563140 0.003579
v -0.253956 0.148962 0.013576
v -0.107011 -0.104650 -0.016929
v 0.107011 -0.104650 -0.016929
v 0.253956 0.148962 0.013576
v 0.204416 0.563140 0.003579
v -0.505682 1.151310 -0.148579
v -0.583544 0.972802 -0.077339
v -0.363243 0.713428 0.009310
v -0.151848 0.595552 0.015661
v -0.096152 0.632654 0.007377
v -0.127554 0.870435 -0.025747
v -0.300613 1.161280 -0.119424
v -0.502024 1.141654 -0.167232
v -0.580396 0.963817 -0.096415
v -0.362013 0.708061 -0.006457
v -0.151545 0.593375 0.007951
v -0.095849 0.630477 -0.000333
v -0.126324 0.865068 -0.041515
v -0.297465 1.152296 -0.138500
vt 0.6932 0.0501
vt 0.7011 0.0317
vt 0.7164 0.0317
vt 0.7243 0.0501
vt 0.6941 0.0800
vt 0.7234 0.0800
vt 0.7088 0.0900
vt 0.6911 0.0567
vt 0.6592 0.0518
vt 0.6690 0.0324
vt 0.6873 0.0343
vt 0.6830 0.0850
vt 0.6589 0.0802
vt 0.6694 0.0907
vt 0.6671 0.0317
vt 0.6571 0.0515
vt 0.6844 0.0865
vt 0.6932 0.0571
vt 0.6571 0.0812
vt 0.6895 0.0343
vt 0.6691 0.0925
vt 0.6932 0.0501
vt 0.7011 0.0317
vt 0.7164 0.0317
vt 0.7243 0.0501
vt 0.6941 0.0800
vt 0.7234 0.0800
vt 0.7088 0.0900
vt 0.6911 0.0567
vt 0.6592 0.0518
vt 0.6690 0.0324
vt 0.6873 0.0343
vt 0.6830 0.0850
vt 0.6589 0.0802
vt 0.6694 0.0907
vt 0.6671 0.0317
vt 0.6571 0.0515
vt 0.6844 0.0865
vt 0.6932 0.0571
vt 0.6571 0.0812
vt 0.6895 0.0343
vt 0.6691 0.0925
vn -0.0000 -0.1346 0.9909
vn -0.0000 0.0353 0.9994
vn 0.0000 0.2070 0.9783
vn 0.0000 0.1194 -0.9928
vn 0.0000 -0.0241 -0.9997
vn -0.0000 -0.2068 -0.9784
vn 0.8646 -0.5019 0.0226
vn -0.9929 0.1178 -0.0161
vn 0.9929 0.1178 -0.0161
vn -0.8646 -0.5019 0.0226
vn -0.5621 0.8052 -0.1890
vn 0.5621 0.8052 -0.1890
vn 0.0508 0.1444 0.9882
vn -0.0452 0.2818 0.9584
vn -0.1477 0.4215 0.8947
vn -0.0288 -0.1765 -0.9839
vn 0.0521 -0.2915 -0.9552
vn 0.1476 -0.4214 -0.8948
vn 0.9908 0.1332 0.0219
vn -0.7777 -0.6097 0.1534
vn 0.8686 0.4870 -0.0915
vn -0.4777 -0.8450 0.2403
vn -0.9114 0.2791 -0.3023
vn 0.0171 0.8976 -0.4404
s off
f 3/1/1 4/2/1 5/3/1 6/4/1
f 2/5/2 3/1/2 6/4/2 7/6/2
f 1/7/3 2/5/3 7/6/3
f 10/8/4 13/9/4 12/10/4 11/11/4
f 9/12/5 14/13/5 13/9/5 10/8/5
f 8/14/6 14/13/6 9/12/6
f 5/15/7 12/10/7 13/9/7 6/16/7
f 2/17/8 9/12/8 10/8/8 3/18/8
f 6/16/9 13/9/9 14/13/9 7/19/9
f 3/18/10 10/8/10 11/11/10 4/20/10
f 1/21/11 8/14/11 9/12/11 2/17/11
f 7/19/12 14/13/12 8/14/12 1/21/12
f 17/22/13 18/23/13 19/24/13 20/25/13
f 16/26/14 17/22/14 20/25/14 21/27/14
f 15/28/15 16/26/15 21/27/15
f 24/29/16 27/30/16 26/31/16 25/32/16
f 23/33/17 28/34/17 27/30/17 24/29/17
f 22/35/18 28/34/18 23/33/18
f 19/36/19 26/31/19 27/30/19 20/37/19
f 16/38/20 23/33/20 24/29/20 17/39/20
f 20/37/21 27/30/21 28/34/21 21/40/21
f 17/39/22 24/29/22 25/32/22 18/41/22
f 15/42/23 22/35/23 23/33/23 16/38/23
f 21/40/24 28/34/24 22/35/24 15/42/24
