# Blender v2.78 (sub 0) OBJ File: 'Low_Poly_Vegetation_Pack.blend'
# www.blender.org
g Cactus_a_m_01
v 0.055404 -0.098637 -0.131935
v -0.123233 -0.102476 -0.098275
v -0.142422 -0.100941 0.032507
v 0.007327 -0.098637 0.142908
v 0.142422 -0.100941 0.032507
v 0.004537 1.087744 -0.319341
v -0.245576 1.192290 -0.195841
v -0.312344 1.087744 0.066636
v 0.134469 1.087744 0.289685
v 0.252958 1.101243 -0.197768
v 0.000000 1.691460 -0.239207
v -0.187020 1.691460 -0.149143
v -0.233210 1.691460 0.053229
v 0.022493 1.705969 0.243455
v 0.229865 1.709540 -0.052521
v 0.004845 1.824425 -0.001721
v 0.312671 1.106113 0.075432
v -0.143117 1.106113 0.288046
vt 0.4525 0.0691
vt 0.4432 0.0716
vt 0.4392 0.0208
vt 0.4345 0.0668
vt 0.4246 0.0853
vt 0.4181 0.0682
vt 0.4265 0.0673
vt 0.4141 0.0942
vt 0.3948 0.0733
vt 0.4082 0.0691
vt 0.4441 0.0898
vt 0.4647 0.0722
vt 0.4506 0.0998
vt 0.4302 0.0983
vt 0.4382 0.0858
vt 0.4327 0.0842
vt 0.4447 0.0202
vt 0.4504 0.0190
vt 0.4313 0.0209
vt 0.4149 0.0187
vt 0.4229 0.0202
vn -0.9516 -0.1115 -0.2865
vn -0.4769 -0.1108 -0.8720
vn 0.9728 0.0881 -0.2142
vn -0.0010 0.0744 0.9972
vn -0.6920 0.1745 0.7005
vn -0.5045 0.8557 -0.1152
vn 0.3156 0.8252 -0.4685
vn 0.4874 0.7994 0.3512
vn -0.3641 0.8281 0.4263
vn -0.2274 0.8517 -0.4722
vn -0.9804 -0.1361 -0.1423
vn -0.4115 0.1240 -0.9029
vn -0.9700 0.1274 -0.2071
vn 0.5263 0.1670 -0.8337
vn 0.7759 0.2086 0.5953
vn -0.7086 -0.1465 0.6903
vn -0.1794 -0.1610 -0.9705
vn 0.7157 -0.1431 0.6836
vn 0.9382 -0.1463 -0.3137
vn 0.4416 -0.1215 -0.8889
vn -0.0139 -0.1213 0.9925
s off
f 8/1/1 7/2/1 2/3/1
f 7/2/2 6/4/2 2/3/2
f 15/5/3 17/6/3 10/7/3
f 14/8/4 18/9/4 9/10/4
f 13/11/5 8/1/5 18/12/5 14/13/5
f 13/11/6 16/14/6 12/15/6
f 11/16/7 16/14/7 15/5/7
f 15/5/8 16/14/8 14/8/8
f 16/14/9 13/11/9 14/13/9
f 12/15/10 16/14/10 11/16/10
f 8/1/11 2/3/11 3/17/11
f 11/16/12 6/4/12 7/2/12 12/15/12
f 7/2/13 8/1/13 13/11/13 12/15/13
f 10/7/14 6/4/14 11/16/14 15/5/14
f 14/8/15 9/10/15 17/6/15 15/5/15
f 3/17/16 4/18/16 18/12/16 8/1/16
f 2/3/17 6/4/17 1/19/17
f 4/20/18 5/21/18 17/6/18 9/10/18
f 5/21/19 1/19/19 10/7/19 17/6/19
f 6/4/20 10/7/20 1/19/20
f 9/10/21 18/9/21 4/20/21
