# Blender v2.78 (sub 0) OBJ File: 'Low_Poly_Vegetation_Pack.blend'
# www.blender.org
g Cactus_a_m_02
v 0.068924 -0.108449 -0.128845
v -0.131247 -0.107024 -0.030473
v -0.005344 -0.107590 0.139514
v 0.140365 -0.110223 0.032037
v 0.062523 1.221246 -0.349202
v -0.170310 1.369482 -0.213850
v -0.235711 1.376902 0.076322
v 0.215507 1.249491 0.315546
v 0.236093 1.880646 -0.261204
v 0.035119 1.916903 -0.162858
v -0.014517 1.925858 0.058123
v 0.124561 1.900767 0.235337
v 0.347625 1.860525 0.235337
v 0.448659 1.817065 -0.182559
v 0.267077 2.022592 -0.001879
v 0.507022 1.803786 0.078093
v -0.089425 1.198608 0.316909
v -0.204109 0.573896 -0.166527
v -0.255707 0.574140 0.059434
vt 0.5593 0.0925
vt 0.5537 0.0943
vt 0.5626 0.0297
vt 0.5963 0.0791
vt 0.5853 0.0821
vt 0.5810 0.0556
vt 0.5752 0.0804
vt 0.5666 0.0758
vt 0.5732 0.0550
vt 0.5648 0.0931
vt 0.5483 0.0994
vt 0.5399 0.0796
vt 0.5622 0.1071
vt 0.5429 0.1087
vt 0.5762 0.0987
vt 0.5703 0.0946
vt 0.5827 0.1087
vt 0.5275 0.0801
vt 0.5740 0.0293
vt 0.5824 0.0278
vt 0.5464 0.0274
vt 0.5549 0.0291
vn 0.9550 -0.1946 -0.2238
vn -0.8510 0.0102 0.5250
vn -0.5161 -0.0290 -0.8560
vn 0.3550 0.0312 -0.9343
vn 0.6913 -0.0549 0.7205
vn 0.6903 0.7138 -0.1182
vn 0.1514 0.8394 0.5220
vn -0.3446 0.9317 -0.1152
vn 0.4089 0.7791 -0.4753
vn 0.5795 0.7511 0.3164
vn -0.2455 0.9143 0.3221
vn -0.0726 0.8785 -0.4722
vn -0.9748 0.0286 -0.2214
vn -0.7140 0.2988 0.6332
vn 0.5586 -0.1330 -0.8187
vn -0.3865 0.2244 -0.8946
vn 0.0001 0.1222 0.9925
vn -0.9078 0.3597 -0.2158
vn -0.3154 -0.1777 -0.9322
vn -0.6830 -0.1673 0.7110
vn 0.7373 -0.1767 0.6520
vn -0.9643 -0.1472 -0.2200
vn 0.0266 -0.1328 0.9908
vn 0.9011 -0.1629 -0.4019
s off
f 14/1/1 16/2/1 1/3/1
f 17/4/2 7/5/2 19/6/2
f 6/7/3 5/8/3 18/9/3
f 9/10/4 14/1/4 5/8/4
f 16/2/5 13/11/5 8/12/5
f 15/13/6 16/2/6 14/1/6
f 13/11/7 15/13/7 12/14/7
f 11/15/8 15/13/8 10/16/8
f 9/10/9 15/13/9 14/1/9
f 16/2/10 15/13/10 13/11/10
f 15/13/11 11/15/11 12/17/11
f 10/16/12 15/13/12 9/10/12
f 18/9/13 19/6/13 7/5/13 6/7/13
f 11/15/14 7/5/14 17/4/14 12/17/14
f 5/8/15 14/1/15 1/3/15
f 5/8/16 6/7/16 10/16/16 9/10/16
f 12/14/17 17/18/17 8/12/17 13/11/17
f 6/7/18 7/5/18 11/15/18 10/16/18
f 1/3/19 2/19/19 18/9/19 5/8/19
f 19/6/20 2/19/20 3/20/20 17/4/20
f 8/12/21 3/21/21 4/22/21 16/2/21
f 19/6/22 18/9/22 2/19/22
f 3/21/23 8/12/23 17/18/23
f 1/3/24 16/2/24 4/22/24
