# Blender v2.78 (sub 0) OBJ File: 'Low_Poly_Vegetation_Pack.blend'
# www.blender.org
g Cactus_l_01
v 0.008116 1.576962 -0.145175
v -0.072854 1.556861 -0.039105
v -0.046553 1.591647 0.062786
v 0.095873 1.650196 -0.031884
v -0.688371 2.443002 -0.364244
v -0.842246 2.420559 -0.366595
v -0.941609 2.417363 -0.246999
v -0.911640 2.435822 -0.095514
v -0.774904 2.462034 -0.026212
v -0.634368 2.476263 -0.091278
v -0.595857 2.467793 -0.241716
v -0.911491 3.085398 -0.459251
v -1.053958 3.026281 -0.326542
v -0.973609 3.114204 -0.166016
v -0.799899 3.181709 -0.293091
v -0.964343 3.170287 -0.326179
v 0.069710 1.101052 0.055405
v 0.013756 1.101856 -0.056471
v -0.034711 1.156053 0.053547
v 0.596696 1.739348 -0.243790
v 0.532977 1.725738 -0.429795
v 0.362127 1.797084 -0.348507
v 0.454201 1.826393 -0.208908
v 0.670509 2.169955 -0.288108
v 0.633028 2.158304 -0.463168
v 0.491008 2.204499 -0.381969
v 0.567908 2.239003 -0.310175
v -0.097555 1.263330 -0.000639
v 0.064374 1.194318 0.058678
v 0.039530 1.281135 -0.094384
v 0.311337 2.092360 0.720618
v 0.516684 2.086949 0.629349
v 0.486257 2.203542 0.439269
v 0.342783 2.718404 0.935982
v 0.481340 2.664689 0.995674
v 0.620364 2.736632 0.795619
v 0.480824 2.800280 0.711444
v 0.392562 2.838196 0.844990
v -0.218105 -0.242195 0.095681
v -0.061180 -0.242195 0.230178
v 0.141815 -0.242195 0.191346
v 0.238020 -0.242195 0.008427
v 0.154992 -0.242195 -0.180838
v -0.044749 -0.242195 -0.233928
v -0.210793 -0.242195 -0.110866
v -0.257634 1.363268 0.060009
v -0.102293 1.363268 0.193148
v 0.098652 1.363268 0.154709
v 0.193886 1.363268 -0.026363
v 0.111696 1.363268 -0.213716
v -0.086027 1.363268 -0.266271
v -0.250394 1.363268 -0.144451
v -0.124745 3.814241 0.120987
v 0.006536 3.814241 0.233505
v 0.176359 3.814241 0.201020
v 0.256844 3.814241 0.047992
v 0.187383 3.814241 -0.110345
v 0.020283 3.814241 -0.154759
v -0.118627 3.814241 -0.051807
v -0.112009 6.305853 0.124355
v -0.011510 6.305853 0.210491
v 0.118494 6.305853 0.185622
v 0.180107 6.305853 0.068476
v 0.126933 6.305853 -0.052735
v -0.000986 6.305853 -0.086735
v -0.107325 6.305853 -0.007923
v 0.027672 6.389228 0.063079
vt 0.5579 0.0746
vt 0.5566 0.1065
vt 0.5554 0.0746
vt 0.5529 0.0747
vt 0.5540 0.1071
vt 0.5505 0.0748
vt 0.5592 0.1071
vt 0.5566 0.1104
vt 0.5513 0.1097
vt 0.5619 0.1097
vt 0.5628 0.0747
vt 0.5626 0.0101
vt 0.5668 0.0101
vt 0.5651 0.0749
vt 0.5571 0.0102
vt 0.5500 0.0101
vt 0.5604 0.0747
vt 0.5465 0.0101
vt 0.5481 0.0749
vt 0.5540 0.0747
vt 0.5485 0.0101
vt 0.5569 0.0102
vt 0.5619 0.0747
vt 0.5629 0.0101
vt 0.5668 0.0101
vt 0.5651 0.0749
vt 0.5522 0.1087
vt 0.5553 0.1067
vt 0.5570 0.1084
vt 0.5592 0.1072
vt 0.5619 0.1097
vt 0.5579 0.0746
vt 0.5493 0.0748
vt 0.5535 0.0102
vt 0.5594 0.0102
vt 0.5571 0.1079
vt 0.5560 0.1060
vt 0.5529 0.0747
vt 0.5539 0.1072
vt 0.5493 0.0748
vt 0.5513 0.1097
vt 0.5587 0.1066
vt 0.5609 0.1084
vt 0.5476 0.0101
vt 0.5657 0.0101
vt 0.5628 0.0747
vt 0.5651 0.0749
vt 0.5610 0.0102
vt 0.5609 0.0367
vt 0.5580 0.0367
vt 0.5581 0.0102
vt 0.5552 0.0102
vt 0.5552 0.0367
vt 0.5524 0.0367
vt 0.5523 0.0101
vt 0.5494 0.0101
vt 0.5496 0.0368
vt 0.5467 0.0369
vt 0.5465 0.0101
vt 0.5639 0.0101
vt 0.5637 0.0368
vt 0.5668 0.0101
vt 0.5666 0.0369
vt 0.5529 0.0747
vt 0.5505 0.0748
vt 0.5651 0.0749
vt 0.5628 0.0747
vt 0.5604 0.0747
vt 0.5579 0.0746
vt 0.5554 0.0746
vt 0.5481 0.0749
vt 0.5602 0.1077
vt 0.5587 0.1069
vt 0.5573 0.1065
vt 0.5560 0.1065
vt 0.5546 0.1068
vt 0.5531 0.1076
vt 0.5619 0.1097
vt 0.5513 0.1097
vt 0.5566 0.1104
vn 0.9330 0.2827 0.2229
vn -0.4592 0.0502 0.8869
vn 0.0464 0.8504 -0.5241
vn -0.1297 0.9381 0.3210
vn -0.8415 0.5233 0.1346
vn -0.7032 0.4390 -0.5593
vn -0.5420 -0.6734 -0.5027
vn 0.7352 0.6608 0.1510
vn -0.4006 -0.2449 0.8829
vn 0.6556 0.3734 -0.6564
vn 0.3729 0.3941 0.8401
vn -0.7011 -0.6503 0.2924
vn -0.6842 -0.1926 -0.7034
vn 0.0347 -0.1344 -0.9903
vn 0.7677 0.1753 -0.6163
vn 0.4296 0.3271 0.8417
vn -0.9301 -0.0843 0.3576
vn 0.0456 -0.2104 -0.9766
vn -0.8473 0.2219 -0.4826
vn 0.6792 -0.6925 -0.2431
vn 0.0278 0.8890 -0.4571
vn 0.5754 0.7986 -0.1763
vn -0.6981 0.6371 0.3267
vn -0.4700 -0.1311 -0.8729
vn 0.2487 0.2125 0.9450
vn -0.7849 0.3194 0.5310
vn -0.4454 0.0503 -0.8939
vn 0.9446 -0.2128 -0.2499
vn 0.1394 0.1383 0.9805
vn -0.5871 0.5116 -0.6274
vn 0.9712 -0.0996 -0.2165
vn 0.5944 0.3382 -0.7296
vn 0.8344 -0.2578 0.4871
vn 0.4092 0.9124 0.0114
vn 0.4359 0.7069 0.5571
vn -0.0909 0.6261 0.7745
vn 0.9140 -0.2669 -0.3054
vn -0.6604 -0.2804 0.6966
vn 0.3057 -0.6180 0.7244
vn -0.9399 0.3331 -0.0756
vn 0.2201 0.4065 -0.8868
vn -0.4667 -0.2667 0.8433
vn 0.3438 -0.4878 0.8024
vn -0.9991 -0.0254 -0.0354
vn 0.2569 -0.0129 -0.9664
vn 0.8845 0.0344 0.4652
vn -0.6508 0.0008 0.7593
vn -0.5951 -0.0315 -0.8030
vn 0.9156 0.0165 -0.4017
vn 0.1878 0.0275 0.9818
vn 0.9157 -0.0113 -0.4017
vn 0.1878 -0.0245 0.9819
vn -0.9979 0.0550 -0.0353
vn 0.2567 0.0328 -0.9659
vn 0.8845 -0.0368 0.4652
vn -0.6507 0.0164 0.7592
vn -0.5943 0.0623 -0.8018
vn -0.6508 0.0023 0.7593
vn -0.5954 0.0168 -0.8033
vn 0.9153 0.0315 -0.4015
vn 0.1879 0.0104 0.9821
vn -0.9994 0.0052 -0.0354
vn 0.2568 0.0286 -0.9660
vn 0.8848 0.0234 0.4654
vn -0.5184 0.8550 -0.0184
vn 0.1332 0.8550 -0.5013
vn 0.4591 0.8550 0.2414
vn -0.3375 0.8550 0.3938
vn -0.3088 0.8550 -0.4167
vn 0.4750 0.8550 -0.2084
vn 0.0975 0.8550 0.5095
s off
f 11/1/1 15/2/1 10/3/1
f 9/4/2 14/5/2 8/6/2
f 15/2/3 12/7/3 16/8/3
f 14/5/4 15/2/4 16/8/4
f 13/9/5 14/5/5 16/8/5
f 12/7/6 13/10/6 16/8/6
f 6/11/7 1/12/7 2/13/7 7/14/7
f 11/1/8 10/3/8 4/15/8
f 9/4/9 8/6/9 3/16/9
f 11/1/10 4/15/10 1/12/10 5/17/10
f 3/16/11 4/15/11 10/3/11 9/4/11
f 2/18/12 3/16/12 8/6/12 7/19/12
f 13/10/13 12/7/13 6/11/13 7/14/13
f 5/17/14 6/11/14 12/7/14
f 12/7/15 15/2/15 11/1/15 5/17/15
f 14/5/16 9/4/16 10/3/16 15/2/16
f 13/9/17 7/19/17 8/6/17 14/5/17
f 1/12/18 6/11/18 5/17/18
f 22/20/19 18/21/19 19/22/19
f 20/23/20 17/24/20 18/25/20 21/26/20
f 25/27/21 26/28/21 27/29/21
f 24/30/22 25/31/22 27/29/22
f 23/32/23 22/20/23 19/22/23
f 22/20/24 21/33/24 18/21/24
f 23/32/25 19/22/25 17/24/25 20/23/25
f 27/29/26 26/28/26 22/20/26 23/32/26
f 25/27/27 21/33/27 22/20/27 26/28/27
f 25/31/28 24/30/28 20/23/28 21/26/28
f 24/30/29 27/29/29 23/32/29 20/23/29
f 30/34/30 28/35/30 38/36/30 37/37/30
f 33/38/31 36/39/31 32/40/31
f 37/37/32 36/39/32 33/38/32
f 32/40/33 36/39/33 35/41/33
f 36/39/34 37/37/34 38/36/34
f 35/41/35 36/39/35 38/36/35
f 34/42/36 35/43/36 38/36/36
f 29/44/37 30/34/37 33/38/37 32/40/37
f 34/42/38 28/35/38 29/45/38 31/46/38
f 29/45/39 32/47/39 31/46/39
f 28/35/40 34/42/40 38/36/40
f 37/37/41 33/38/41 30/34/41
f 34/42/42 31/46/42 35/43/42
f 31/46/43 32/47/43 35/43/43
f 39/48/44 46/49/44 52/50/44 45/51/44
f 44/52/45 51/53/45 50/54/45 43/55/45
f 42/56/46 49/57/46 48/58/46 41/59/46
f 40/60/47 47/61/47 46/49/47 39/48/47
f 45/51/48 52/50/48 51/53/48 44/52/48
f 43/55/49 50/54/49 49/57/49 42/56/49
f 41/62/50 48/63/50 47/61/50 40/60/50
f 49/57/51 50/54/51 57/64/51 56/65/51
f 47/61/52 48/63/52 55/66/52 54/67/52
f 52/50/53 46/49/53 53/68/53 59/69/53
f 50/54/54 51/53/54 58/70/54 57/64/54
f 48/58/55 49/57/55 56/65/55 55/71/55
f 46/49/56 47/61/56 54/67/56 53/68/56
f 51/53/57 52/50/57 59/69/57 58/70/57
f 53/68/58 54/67/58 61/72/58 60/73/58
f 58/70/59 59/69/59 66/74/59 65/75/59
f 56/65/60 57/64/60 64/76/60 63/77/60
f 54/67/61 55/66/61 62/78/61 61/72/61
f 59/69/62 53/68/62 60/73/62 66/74/62
f 57/64/63 58/70/63 65/75/63 64/76/63
f 55/71/64 56/65/64 63/77/64 62/79/64
f 66/74/65 60/73/65 67/80/65
f 64/76/66 65/75/66 67/80/66
f 62/79/67 63/77/67 67/80/67
f 60/73/68 61/72/68 67/80/68
f 65/75/69 66/74/69 67/80/69
f 63/77/70 64/76/70 67/80/70
f 61/72/71 62/78/71 67/80/71
