# Blender v2.78 (sub 0) OBJ File: 'Low_Poly_Vegetation_Pack.blend'
# www.blender.org
g Cactus_s_01
v 0.016643 -0.032732 -0.040077
v -0.036977 -0.033730 -0.029488
v -0.042727 -0.033310 0.009752
v -0.020521 -0.033730 0.042612
v 0.035369 -0.032732 0.025144
v 0.000929 0.363385 -0.096328
v -0.073673 0.393456 -0.058752
v -0.094119 0.363385 0.020529
v -0.040885 0.393456 0.084899
v 0.040958 0.363385 0.087191
v 0.075891 0.363385 -0.059333
v 0.000000 0.558182 -0.071762
v -0.069694 0.562840 -0.022674
v -0.006438 0.562895 0.072993
v 0.069963 0.558182 0.015969
v 0.056106 0.558182 -0.044743
v 0.001454 0.602060 -0.000516
v 0.093706 0.363385 0.022341
vt 0.4081 0.0697
vt 0.3936 0.0772
vt 0.4118 0.0179
vt 0.4526 0.0696
vt 0.4432 0.0716
vt 0.4392 0.0208
vt 0.4658 0.0760
vt 0.4504 0.0190
vt 0.4345 0.0673
vt 0.4130 0.0962
vt 0.4405 0.0874
vt 0.4302 0.0983
vt 0.4219 0.0862
vt 0.4273 0.0844
vt 0.4506 0.0998
vt 0.4327 0.0842
vt 0.4447 0.0202
vt 0.4205 0.0198
vt 0.4181 0.0680
vt 0.4266 0.0673
vt 0.4314 0.0209
vn -0.0650 -0.1014 0.9927
vn -0.9534 -0.1014 -0.2843
vn -0.7430 -0.1009 0.6616
vn -0.4797 -0.1009 -0.8716
vn -0.0020 0.0705 0.9975
vn -0.9720 0.0705 -0.2239
vn 0.5565 0.8211 -0.1270
vn -0.8088 0.2111 0.5490
vn 0.2465 0.8229 -0.5119
vn 0.3956 0.7922 0.4646
vn -0.5336 0.7689 0.3524
vn -0.2952 0.8162 -0.4966
vn -0.9821 -0.1234 -0.1426
vn 0.2973 -0.1518 0.9426
vn -0.4828 0.1478 -0.8632
vn 0.9699 0.1129 -0.2157
vn 0.4361 0.1129 -0.8928
vn 0.6806 0.1601 0.7150
vn 0.9596 -0.1491 -0.2387
vn -0.1891 -0.1454 -0.9711
vn -0.8231 -0.1217 0.5547
vn 0.7711 -0.1091 0.6272
vn 0.4399 -0.1091 -0.8914
s off
f 10/1/1 9/2/1 4/3/1
f 8/4/2 7/5/2 2/6/2
f 9/7/3 8/4/3 4/8/3
f 7/5/4 6/9/4 2/6/4
f 14/10/5 9/2/5 10/1/5
f 13/11/6 7/5/6 8/4/6
f 17/12/7 15/13/7 16/14/7
f 8/4/8 9/7/8 14/15/8 13/11/8
f 12/16/9 17/12/9 16/14/9
f 15/13/10 17/12/10 14/10/10
f 17/12/11 13/11/11 14/15/11
f 13/11/12 17/12/12 12/16/12
f 8/4/13 2/6/13 3/17/13
f 10/1/14 4/3/14 5/18/14
f 6/9/15 7/5/15 13/11/15 12/16/15
f 18/19/16 11/20/16 16/14/16 15/13/16
f 11/20/17 6/9/17 12/16/17 16/14/17
f 10/1/18 18/19/18 15/13/18 14/10/18
f 5/18/19 1/21/19 11/20/19 18/19/19
f 2/6/20 6/9/20 1/21/20
f 4/8/21 8/4/21 3/17/21
f 18/19/22 10/1/22 5/18/22
f 6/9/23 11/20/23 1/21/23
