# Blender v2.78 (sub 0) OBJ File: 'Low_Poly_Vegetation_Pack.blend'
# www.blender.org
g Cactus_a_m_03
v -0.110785 0.692099 -0.083768
v -0.172160 0.620019 -0.005711
v -0.081933 0.678468 0.063355
v -0.054233 0.721319 -0.015917
v -0.636196 1.279813 -0.048299
v -0.720955 1.201888 0.062227
v -0.693389 1.190306 0.219775
v -0.574316 1.253882 0.305723
v -0.573865 1.629734 0.143777
v -0.794156 1.533550 0.048642
v -0.766541 1.509446 0.284407
v -0.590892 1.579689 0.273499
v -0.639980 1.602792 0.024581
v -0.740999 1.627582 0.166624
v -0.076851 -0.110223 -0.121748
v -0.127251 -0.107024 0.044289
v 0.069951 -0.107590 0.120828
v 0.135797 -0.110223 -0.047833
v -0.133527 1.221246 -0.328666
v -0.258167 1.369482 -0.089928
v -0.158583 1.376902 0.190358
v 0.350671 1.249491 0.151799
v 0.060219 1.880646 -0.346902
v -0.057233 1.916903 -0.156463
v 0.018749 1.925858 0.056899
v 0.230950 1.900767 0.132518
v 0.419578 1.860525 0.013450
v 0.281949 1.817065 -0.393862
v 0.224843 2.022592 -0.144150
v 0.470434 1.803786 -0.204603
v 0.038251 -0.110131 -0.138578
v 0.093541 1.198608 0.315719
v -0.261489 0.573896 -0.031869
v -0.184507 0.574140 0.186750
vt 0.4690 0.0855
vt 0.4513 0.1050
vt 0.4563 0.0827
vt 0.4384 0.0946
vt 0.4377 0.0802
vt 0.4463 0.0810
vt 0.4194 0.0993
vt 0.4152 0.1104
vt 0.3977 0.0875
vt 0.4309 0.0936
vt 0.4343 0.1085
vt 0.4255 0.0958
vt 0.4354 0.0903
vt 0.4297 0.0921
vt 0.4364 0.0274
vt 0.4723 0.0769
vt 0.4613 0.0799
vt 0.4571 0.0534
vt 0.4513 0.0782
vt 0.4426 0.0736
vt 0.4493 0.0528
vt 0.4408 0.0909
vt 0.4243 0.0972
vt 0.4160 0.0774
vt 0.4383 0.1049
vt 0.4189 0.1065
vt 0.4522 0.0965
vt 0.4463 0.0924
vt 0.4587 0.1065
vt 0.4418 0.0276
vt 0.4255 0.0292
vt 0.4331 0.0297
vt 0.4177 0.0278
vt 0.4441 0.0293
vt 0.4527 0.0278
vt 0.4035 0.0779
vt 0.4500 0.0271
vt 0.4585 0.0256
vt 0.4225 0.0252
vt 0.4310 0.0269
vn -0.4610 -0.2764 0.8432
vn -0.7125 -0.1850 -0.6768
vn 0.0220 0.0995 0.9948
vn -0.2425 0.2108 -0.9470
vn -0.0398 0.9791 -0.1992
vn -0.2432 0.7107 0.6601
vn -0.9279 0.3440 0.1439
vn -0.4242 0.7916 -0.4398
vn 0.0378 0.9306 0.3640
vn 0.6906 -0.1801 -0.7004
vn -0.4394 0.0102 0.8982
vn -0.8934 -0.0290 -0.4484
vn -0.1985 0.0312 -0.9796
vn 0.9691 -0.0549 0.2403
vn 0.5206 0.7138 -0.4684
vn 0.4067 0.8394 0.3606
vn -0.3529 0.9317 0.0866
vn 0.0921 0.7791 -0.6202
vn 0.6589 0.7511 -0.0418
vn -0.0356 0.9143 0.4034
vn -0.3134 0.8785 -0.3606
vn -0.1427 -0.1579 -0.9771
vn 0.6669 0.4697 -0.5784
vn 0.8409 0.4044 0.3597
vn 0.5395 0.1100 0.8348
vn -0.7210 -0.6888 0.0755
vn 0.1797 0.2185 -0.9591
vn -0.2619 -0.5543 0.7900
vn -0.9672 -0.2265 0.1151
vn -0.9425 0.0286 0.3331
vn -0.2658 0.2988 0.9165
vn 0.0400 -0.1362 -0.9899
vn -0.8043 0.2244 -0.5502
vn 0.5299 0.1222 0.8392
vn -0.8828 0.3597 0.3021
vn -0.8310 -0.1540 -0.5346
vn -0.1980 -0.1673 0.9658
vn 0.9715 -0.1767 0.1578
vn -0.5264 -0.4180 -0.7404
vn -0.9329 -0.1472 0.3287
vn 0.5514 -0.1328 0.8236
vn 0.6704 -0.1762 -0.7208
s off
f 8/1/1 11/2/1 7/3/1
f 10/4/2 5/5/2 6/6/2
f 12/7/3 11/8/3 8/9/3
f 10/4/4 13/10/4 5/5/4
f 14/11/5 9/12/5 13/10/5
f 12/7/6 14/11/6 11/8/6
f 11/2/7 14/11/7 10/4/7
f 10/4/8 14/11/8 13/10/8
f 9/12/9 14/11/9 12/7/9
f 28/13/10 30/14/10 31/15/10
f 32/16/11 21/17/11 34/18/11
f 20/19/12 19/20/12 33/21/12
f 23/22/13 28/13/13 19/20/13
f 30/14/14 27/23/14 22/24/14
f 29/25/15 30/14/15 28/13/15
f 27/23/16 29/25/16 26/26/16
f 25/27/17 29/25/17 24/28/17
f 23/22/18 29/25/18 28/13/18
f 30/14/19 29/25/19 27/23/19
f 29/25/20 25/27/20 26/29/20
f 24/28/21 29/25/21 23/22/21
f 19/20/22 31/15/22 15/30/22
f 4/31/23 1/32/23 13/10/23 9/12/23
f 12/7/24 3/33/24 4/31/24 9/12/24
f 3/33/25 12/7/25 8/9/25
f 7/3/26 6/6/26 2/34/26
f 5/5/27 13/10/27 1/32/27
f 7/3/28 2/34/28 3/35/28 8/1/28
f 6/6/29 7/3/29 11/2/29 10/4/29
f 33/21/30 34/18/30 21/17/30 20/19/30
f 25/27/31 21/17/31 32/16/31 26/29/31
f 19/20/32 28/13/32 31/15/32
f 19/20/33 20/19/33 24/28/33 23/22/33
f 26/26/34 32/36/34 22/24/34 27/23/34
f 20/19/35 21/17/35 25/27/35 24/28/35
f 15/30/36 16/37/36 33/21/36 19/20/36
f 34/18/37 16/37/37 17/38/37 32/16/37
f 22/24/38 17/39/38 18/40/38 30/14/38
f 1/32/39 2/34/39 6/6/39 5/5/39
f 34/18/40 33/21/40 16/37/40
f 17/39/41 22/24/41 32/36/41
f 31/15/42 30/14/42 18/40/42
