# Blender v2.78 (sub 0) OBJ File: 'Low_Poly_Vegetation_Pack.blend'
# www.blender.org
g Cactus_a_m_04
v 0.076344 -0.097951 -0.114123
v -0.100302 -0.100941 -0.106209
v -0.119409 -0.098637 0.078854
v 0.103448 -0.098637 0.098868
v 0.043823 1.083695 -0.318873
v -0.320214 1.101243 0.023728
v 0.094387 1.101243 0.306906
v 0.278208 1.101243 -0.160314
v 0.033568 1.691460 -0.236840
v -0.219511 1.705819 -0.107896
v -0.055856 1.705994 0.238083
v 0.223433 1.691460 0.085428
v 0.206098 1.691460 -0.121423
v 0.005039 1.824425 -0.001024
v 0.298798 1.101242 0.117558
v -0.181099 1.101243 0.265148
v -0.220142 1.117259 -0.231488
v 0.092109 0.722357 0.077428
v 0.141601 0.657238 0.094860
v 0.154137 0.696840 0.017477
v 0.376359 1.048319 0.338869
v 0.493962 0.879466 0.283747
v 0.528125 1.033477 0.133266
v 0.565362 1.222212 0.398700
v 0.672679 1.199881 0.232846
v 0.520636 1.277528 0.301177
v 0.673653 1.211434 0.351165
v 0.574162 1.265641 0.217221
v 0.553492 0.936372 0.191262
v 0.431410 0.949466 0.359080
vt 0.5500 0.1000
vt 0.5319 0.0769
vt 0.5451 0.0735
vt 0.5776 0.0912
vt 0.5800 0.0725
vt 0.5897 0.0734
vt 0.5672 0.1021
vt 0.5589 0.0901
vt 0.5644 0.0882
vt 0.6017 0.0759
vt 0.5877 0.1037
vt 0.5698 0.0881
vt 0.5716 0.0705
vt 0.5551 0.0718
vt 0.5636 0.0711
vt 0.5681 0.0247
vt 0.5762 0.0246
vt 0.5849 0.0234
vt 0.5575 0.0236
vt 0.5489 0.0217
vt 0.5691 0.0776
vt 0.5636 0.0795
vt 0.5713 0.0138
vt 0.5767 0.0787
vt 0.5759 0.0604
vt 0.5840 0.0589
vt 0.5497 0.0647
vt 0.5566 0.0885
vt 0.5376 0.0654
vt 0.5793 0.0882
vt 0.5930 0.0574
vt 0.6056 0.0638
vt 0.5930 0.0941
vt 0.5826 0.0134
vt 0.5910 0.0119
vt 0.5584 0.0123
vn -0.1494 0.0751 0.9859
vn -0.9299 0.0766 -0.3598
vn 0.5323 0.8454 -0.0446
vn -0.8670 0.2206 0.4468
vn 0.2956 0.8470 -0.4418
vn 0.3072 0.8193 0.4841
vn -0.5442 0.7987 0.2570
vn -0.2067 0.8413 -0.4994
vn -0.3691 0.1545 -0.9164
vn 0.9893 0.1240 -0.0774
vn 0.5508 0.1212 -0.8258
vn 0.5719 0.1757 0.8013
vn -0.2188 -0.1466 -0.9647
vn -0.9538 -0.1461 -0.2627
vn -0.8601 -0.1212 0.4956
vn 0.6746 -0.1212 0.7282
vn 0.5623 -0.1261 -0.8173
vn -0.1213 -0.1644 0.9789
vn 0.9819 -0.1637 -0.0956
vn -0.5957 0.6500 -0.4718
vn -0.3165 0.0177 0.9484
vn 0.7098 -0.2152 -0.6708
vn -0.6437 0.5004 0.5790
vn 0.3211 0.2651 -0.9092
vn 0.3661 0.9249 0.1024
vn 0.2572 0.8864 0.3849
vn 0.5625 0.8225 -0.0849
vn 0.8739 -0.4647 0.1428
vn -0.8130 0.5453 0.2041
vn 0.4230 -0.3661 0.8289
vn -0.5593 -0.1704 0.8112
vn 0.5814 -0.7884 -0.2012
vn -0.0182 0.3432 -0.9391
vn 0.0646 -0.7037 0.7075
vn 0.5348 -0.3259 -0.7796
vn -0.4388 0.5684 -0.6960
s off
f 11/1/1 16/2/1 7/3/1
f 10/4/2 17/5/2 6/6/2
f 14/7/3 12/8/3 13/9/3
f 6/6/4 16/10/4 11/11/4 10/4/4
f 9/12/5 14/7/5 13/9/5
f 12/8/6 14/7/6 11/1/6
f 14/7/7 10/4/7 11/11/7
f 10/4/8 14/7/8 9/12/8
f 5/13/9 17/5/9 10/4/9 9/12/9
f 15/14/10 8/15/10 13/9/10 12/8/10
f 8/15/11 5/13/11 9/12/11 13/9/11
f 7/3/12 15/14/12 12/8/12 11/1/12
f 5/13/13 1/16/13 2/17/13 17/5/13
f 2/17/14 3/18/14 6/6/14 17/5/14
f 16/10/15 6/6/15 3/18/15
f 15/14/16 7/3/16 4/19/16
f 5/13/17 8/15/17 1/16/17
f 3/20/18 4/19/18 7/3/18 16/2/18
f 4/19/19 1/16/19 8/15/19 15/14/19
f 26/21/20 28/22/20 18/23/20
f 24/24/21 21/25/21 30/26/21
f 23/27/22 25/28/22 29/29/22
f 24/24/23 26/21/23 21/25/23
f 28/22/24 25/28/24 23/27/24
f 27/30/25 28/22/25 26/21/25
f 24/24/26 27/30/26 26/21/26
f 28/22/27 27/30/27 25/28/27
f 27/30/28 22/31/28 29/32/28 25/33/28
f 21/25/29 26/21/29 18/23/29
f 30/26/30 22/31/30 27/30/30 24/24/30
f 18/23/31 19/34/31 30/26/31 21/25/31
f 22/31/32 19/34/32 20/35/32 29/32/32
f 20/36/33 28/22/33 23/27/33
f 22/31/34 30/26/34 19/34/34
f 20/36/35 23/27/35 29/29/35
f 18/23/36 28/22/36 20/36/36
