# Blender v2.78 (sub 0) OBJ File: 'Low_Poly_Vegetation_Pack.blend'
# www.blender.org
g Cactus_b_m_05
v 0.105774 0.598806 0.095905
v 0.144862 0.642001 0.003851
v 0.058399 0.679048 0.041064
v 0.246261 0.870346 0.367146
v 0.391875 0.835648 0.386297
v 0.405983 0.884720 0.241947
v 0.275394 0.908783 0.242074
v 0.309118 1.228904 0.483907
v 0.446368 1.240561 0.389977
v 0.286687 1.289419 0.326689
v -0.086425 0.892712 -0.090339
v -0.107845 0.878117 0.008211
v -0.034091 0.959045 -0.024218
v -0.439054 1.253453 -0.174512
v -0.549498 1.225401 -0.145370
v -0.559335 1.236544 -0.019445
v -0.407566 1.289041 -0.009002
v -0.584893 1.611938 -0.219259
v -0.643315 1.613304 -0.063141
v -0.480298 1.675220 -0.101172
v -0.076753 -0.109343 -0.127702
v 0.112564 -0.110223 -0.089767
v -0.052055 1.355688 -0.130022
v -0.188231 1.363381 0.141375
v 0.020938 1.360170 0.192394
v 0.111963 1.365647 0.077325
v 0.079476 1.363707 -0.066164
v 0.161420 2.475324 -0.194549
v -0.093755 2.472993 -0.092968
v 0.051461 2.472946 0.081822
v 0.231537 2.468195 -0.038233
v 0.074668 2.562052 -0.076804
v 0.191472 0.572740 0.015738
v -0.053252 0.573603 0.133330
v 0.122387 -0.110047 0.103324
v -0.167882 1.157609 -0.100032
v -0.107600 -0.109163 0.066119
v 0.097360 0.558303 -0.181403
vt 0.4524 0.0317
vt 0.4435 0.0747
vt 0.4374 0.0315
vt 0.4777 0.0799
vt 0.4593 0.0987
vt 0.4600 0.0763
vt 0.4467 0.0887
vt 0.4345 0.0921
vt 0.4297 0.0755
vt 0.4109 0.0797
vt 0.4227 0.1037
vt 0.4478 0.0318
vt 0.4435 0.0747
vt 0.4337 0.0312
vt 0.4467 0.0887
vt 0.4551 0.0755
vt 0.4345 0.0921
vt 0.4245 0.0764
vt 0.4593 0.0988
vt 0.4421 0.1022
vt 0.4338 0.0902
vt 0.4411 0.0882
vt 0.4247 0.1003
vt 0.4538 0.0922
vt 0.4626 0.1037
vt 0.4308 0.0235
vt 0.4146 0.0515
vt 0.4237 0.0218
vt 0.4546 0.0692
vt 0.4595 0.0236
vt 0.4710 0.0785
vt 0.4384 0.0747
vt 0.4427 0.0497
vt 0.4465 0.0747
vt 0.4490 0.0248
vt 0.4644 0.0308
vt 0.4055 0.0811
vt 0.4212 0.0301
vt 0.4608 0.0312
vt 0.4718 0.0786
vt 0.4227 0.1037
vt 0.4297 0.0755
vt 0.4322 0.0498
vt 0.4193 0.0774
vt 0.4055 0.0811
vt 0.4247 0.0304
vt 0.4700 0.0514
vt 0.4402 0.0247
vn -0.8295 -0.1164 0.5462
vn 0.9897 -0.1337 0.0513
vn -0.1893 -0.2739 0.9430
vn -0.9760 0.0744 -0.2045
vn 0.0388 0.2157 -0.9757
vn 0.1512 0.9296 0.3362
vn -0.7410 0.6706 0.0335
vn 0.4301 0.3047 -0.8498
vn 0.5676 -0.0838 0.8190
vn -0.9768 0.1118 0.1824
vn -0.2456 -0.6185 0.7464
vn 0.5365 0.3446 -0.7703
vn -0.2017 -0.2017 -0.9585
vn 0.9683 0.1316 -0.2125
vn -0.3816 0.9120 -0.1508
vn 0.6301 0.7258 -0.2759
vn 0.6824 0.1895 -0.7060
vn -0.1508 -0.3620 -0.9199
vn 0.5391 0.8170 -0.2046
vn 0.3523 0.7930 0.4970
vn -0.4603 0.8011 0.3826
vn -0.2828 0.6609 -0.6952
vn -0.1594 -0.0841 0.9836
vn -0.9978 -0.0526 -0.0393
vn 0.4258 0.1374 -0.8943
vn -0.7541 0.1965 0.6266
vn -0.2938 -0.0003 -0.9559
vn -0.9853 -0.0674 -0.1568
vn 0.7130 -0.6925 -0.1099
vn 0.0506 0.0786 0.9956
vn -0.5947 -0.7983 -0.0951
vn 0.0210 0.1795 0.9835
vn -0.9572 -0.1841 -0.2235
vn 0.9316 0.0956 -0.3508
vn -0.1591 -0.0590 0.9855
vn 0.7559 0.0169 0.6545
vn 0.0529 0.6506 -0.7576
vn -0.3430 0.0183 -0.9392
vn -0.3315 -0.0663 0.9411
vn -0.2692 0.0116 -0.9630
vn 0.9385 -0.1210 -0.3233
vn 0.6548 0.0327 0.7551
vn -0.2342 0.1025 0.9668
vn -0.9897 0.0565 -0.1316
vn 0.4394 -0.1350 -0.8881
vn 0.9645 -0.0722 -0.2542
vn 0.1943 -0.1289 -0.9724
s off
f 1/1/1 4/2/1 3/3/1
f 6/4/2 9/5/2 5/6/2
f 8/7/3 4/2/3 5/6/3
f 10/8/4 7/9/4 4/2/4
f 7/9/5 10/8/5 6/10/5
f 9/5/6 10/8/6 8/7/6
f 3/3/7 4/2/7 7/9/7
f 6/10/8 10/8/8 9/11/8
f 9/5/9 8/7/9 5/6/9
f 8/7/10 10/8/10 4/2/10
f 1/1/11 5/6/11 4/2/11
f 11/12/12 14/13/12 13/14/12
f 18/15/13 14/13/13 15/16/13
f 20/17/14 17/18/14 14/13/14
f 19/19/15 20/17/15 18/15/15
f 13/14/16 14/13/16 17/18/16
f 18/15/17 20/17/17 14/13/17
f 11/12/18 15/16/18 14/13/18
f 32/20/19 31/21/19 28/22/19
f 31/21/20 32/20/20 30/23/20
f 32/20/21 29/24/21 30/25/21
f 29/24/22 32/20/22 28/22/22
f 35/26/23 34/27/23 37/28/23
f 36/29/24 37/30/24 24/31/24
f 27/32/25 38/33/25 23/34/25
f 29/24/26 24/31/26 30/25/26
f 21/35/27 36/29/27 38/33/27
f 21/35/28 37/30/28 36/29/28
f 6/4/29 5/6/29 1/1/29 2/36/29
f 17/18/30 16/37/30 12/38/30 13/14/30
f 12/39/31 16/40/31 15/16/31 11/12/31
f 17/18/32 20/17/32 19/41/32 16/37/32
f 19/19/33 18/15/33 15/16/33 16/40/33
f 27/32/34 26/42/34 33/43/34 38/33/34
f 25/44/35 24/45/35 34/27/35 35/26/35
f 25/44/36 35/26/36 33/43/36 26/42/36
f 7/9/37 6/10/37 2/46/37 3/3/37
f 29/24/38 28/22/38 23/34/38 36/29/38
f 24/31/39 37/30/39 34/47/39
f 23/34/40 38/33/40 36/29/40
f 27/32/41 28/22/41 31/21/41 26/42/41
f 26/42/42 31/21/42 30/23/42 25/44/42
f 30/23/43 24/45/43 25/44/43
f 36/29/44 24/31/44 29/24/44
f 27/32/45 23/34/45 28/22/45
f 22/48/46 38/33/46 33/43/46 35/26/46
f 22/48/47 21/35/47 38/33/47
