# Blender v2.78 (sub 0) OBJ File: 'Low_Poly_Vegetation_Pack.blend'
# www.blender.org
g Cactus_c_m_02
v -0.632103 1.439138 -0.185724
v -0.729430 1.216003 -0.096674
v -0.454053 0.891785 0.011638
v -0.189810 0.744439 0.019577
v -0.120190 0.790818 0.009221
v -0.159443 1.088043 -0.032184
v -0.375766 1.451600 -0.149280
v -0.627531 1.427068 -0.209040
v -0.725495 1.204772 -0.120519
v -0.452516 0.885076 -0.008071
v -0.189431 0.741718 0.009939
v -0.119811 0.788097 -0.000416
v -0.157906 1.081335 -0.051894
v -0.371832 1.440369 -0.173125
v 0.298649 1.907650 -0.151152
v 0.084907 1.859025 -0.111447
v -0.006243 1.285835 -0.033720
v 0.026085 0.820854 -0.007397
v 0.074814 0.809501 -0.003986
v 0.298305 1.214878 -0.012407
v 0.462611 1.771023 -0.085015
v 0.296697 1.891505 -0.173152
v 0.083292 1.844297 -0.133867
v -0.006830 1.277344 -0.051534
v 0.026066 0.818864 -0.013250
v 0.074795 0.807510 -0.009840
v 0.297719 1.206387 -0.030221
v 0.460996 1.756296 -0.107435
v 0.000000 0.881132 -0.000505
v -0.255520 0.710505 0.035592
v -0.235699 0.167514 0.046552
v -0.116029 -0.109402 0.011237
v 0.116029 -0.109402 0.011237
v 0.235699 0.167514 0.046552
v 0.255520 0.710505 0.035592
v 0.000000 0.873181 -0.031302
v -0.255520 0.703925 0.004474
v -0.235699 0.165463 0.019039
v -0.116029 -0.109694 -0.016351
v 0.116029 -0.109694 -0.016351
v 0.235699 0.165463 0.019039
v 0.255520 0.703925 0.004474
vt 0.6846 0.0440
vt 0.6925 0.0255
vt 0.7078 0.0255
vt 0.7157 0.0440
vt 0.6855 0.0739
vt 0.7148 0.0739
vt 0.7002 0.0839
vt 0.6825 0.0506
vt 0.6505 0.0456
vt 0.6604 0.0262
vt 0.6787 0.0282
vt 0.6744 0.0789
vt 0.6503 0.0740
vt 0.6608 0.0846
vt 0.6584 0.0255
vt 0.6485 0.0454
vt 0.6758 0.0804
vt 0.6846 0.0509
vt 0.6485 0.0750
vt 0.6809 0.0281
vt 0.6604 0.0864
vt 0.6847 0.0482
vt 0.6925 0.0255
vt 0.7078 0.0255
vt 0.7156 0.0482
vt 0.6855 0.0739
vt 0.7148 0.0739
vt 0.7002 0.0839
vt 0.6813 0.0546
vt 0.6505 0.0496
vt 0.6604 0.0262
vt 0.6787 0.0282
vt 0.6744 0.0789
vt 0.6503 0.0740
vt 0.6608 0.0846
vt 0.6584 0.0255
vt 0.6485 0.0495
vt 0.6758 0.0804
vt 0.6833 0.0551
vt 0.6485 0.0750
vt 0.6809 0.0281
vt 0.6604 0.0864
vt 0.6846 0.0440
vt 0.6925 0.0255
vt 0.7078 0.0255
vt 0.7157 0.0440
vt 0.6855 0.0739
vt 0.7148 0.0739
vt 0.7002 0.0839
vt 0.6825 0.0506
vt 0.6505 0.0456
vt 0.6604 0.0262
vt 0.6787 0.0282
vt 0.6744 0.0789
vt 0.6503 0.0740
vt 0.6608 0.0846
vt 0.6584 0.0255
vt 0.6485 0.0454
vt 0.6758 0.0804
vt 0.6846 0.0509
vt 0.6485 0.0750
vt 0.6809 0.0281
vt 0.6604 0.0864
vn 0.0508 0.1444 0.9882
vn -0.0452 0.2818 0.9584
vn -0.1477 0.4215 0.8947
vn -0.0288 -0.1765 -0.9839
vn 0.0521 -0.2915 -0.9552
vn 0.1476 -0.4214 -0.8948
vn 0.9908 0.1332 0.0219
vn -0.7777 -0.6097 0.1534
vn 0.8686 0.4870 -0.0915
vn -0.4777 -0.8450 0.2403
vn -0.9114 0.2791 -0.3023
vn 0.0171 0.8976 -0.4404
vn -0.0576 0.0524 0.9970
vn -0.0366 0.1400 0.9895
vn 0.0519 0.4849 0.8730
vn 0.0512 -0.0795 -0.9955
vn 0.0344 -0.1490 -0.9882
vn -0.0526 -0.4875 -0.8715
vn 0.8618 -0.4717 0.1868
vn -0.9878 0.1523 -0.0338
vn 0.9574 -0.2696 0.1032
vn -0.9963 -0.0665 0.0550
vn -0.2779 0.7991 -0.5331
vn 0.6686 0.5844 -0.4598
vn -0.0000 -0.1265 0.9920
vn -0.0000 0.0202 0.9998
vn -0.0000 0.2070 0.9783
vn 0.0000 0.1276 -0.9918
vn 0.0000 -0.0270 -0.9996
vn -0.0000 -0.2068 -0.9784
vn 0.9166 -0.3995 0.0170
vn -0.9993 -0.0365 0.0054
vn 0.9993 -0.0365 0.0054
vn -0.9166 -0.3995 0.0170
vn -0.5621 0.8052 -0.1890
vn 0.5621 0.8052 -0.1890
s off
f 3/1/1 4/2/1 5/3/1 6/4/1
f 2/5/2 3/1/2 6/4/2 7/6/2
f 1/7/3 2/5/3 7/6/3
f 10/8/4 13/9/4 12/10/4 11/11/4
f 9/12/5 14/13/5 13/9/5 10/8/5
f 8/14/6 14/13/6 9/12/6
f 5/15/7 12/10/7 13/9/7 6/16/7
f 2/17/8 9/12/8 10/8/8 3/18/8
f 6/16/9 13/9/9 14/13/9 7/19/9
f 3/18/10 10/8/10 11/11/10 4/20/10
f 1/21/11 8/14/11 9/12/11 2/17/11
f 7/19/12 14/13/12 8/14/12 1/21/12
f 17/22/13 18/23/13 19/24/13 20/25/13
f 16/26/14 17/22/14 20/25/14 21/27/14
f 15/28/15 16/26/15 21/27/15
f 24/29/16 27/30/16 26/31/16 25/32/16
f 23/33/17 28/34/17 27/30/17 24/29/17
f 22/35/18 28/34/18 23/33/18
f 19/36/19 26/31/19 27/30/19 20/37/19
f 16/38/20 23/33/20 24/29/20 17/39/20
f 20/37/21 27/30/21 28/34/21 21/40/21
f 17/39/22 24/29/22 25/32/22 18/41/22
f 15/42/23 22/35/23 23/33/23 16/38/23
f 21/40/24 28/34/24 22/35/24 15/42/24
f 31/43/25 32/44/25 33/45/25 34/46/25
f 30/47/26 31/43/26 34/46/26 35/48/26
f 29/49/27 30/47/27 35/48/27
f 38/50/28 41/51/28 40/52/28 39/53/28
f 37/54/29 42/55/29 41/51/29 38/50/29
f 36/56/30 42/55/30 37/54/30
f 33/57/31 40/52/31 41/51/31 34/58/31
f 30/59/32 37/54/32 38/50/32 31/60/32
f 34/58/33 41/51/33 42/55/33 35/61/33
f 31/60/34 38/50/34 39/53/34 32/62/34
f 29/63/35 36/56/35 37/54/35 30/59/35
f 35/61/36 42/55/36 36/56/36 29/63/36
