# Blender v2.78 (sub 0) OBJ File: 'Low_Poly_Vegetation_Pack.blend'
# www.blender.org
g Cactus_a_m_06
v 0.076344 -0.097951 -0.114123
v -0.100302 -0.100941 -0.106209
v -0.119409 -0.098637 0.078854
v 0.103448 -0.098637 0.098868
v 0.043823 1.083695 -0.318873
v -0.320214 1.101243 0.023728
v 0.094387 1.101243 0.306906
v 0.278208 1.101243 -0.160314
v 0.033568 1.691460 -0.236840
v -0.219511 1.705819 -0.107896
v -0.055856 1.705994 0.238083
v 0.223433 1.691460 0.085428
v 0.206098 1.691460 -0.121423
v 0.005039 1.824425 -0.001024
v 0.298798 1.101242 0.117558
v -0.181099 1.101243 0.265148
v -0.220142 1.117259 -0.231488
v 0.092109 0.722357 0.077428
v 0.141601 0.657238 0.094860
v 0.154137 0.696840 0.017477
v 0.376359 1.048319 0.338869
v 0.493962 0.879466 0.283747
v 0.528125 1.033477 0.133266
v 0.565362 1.222212 0.398700
v 0.672679 1.199881 0.232846
v 0.520636 1.277528 0.301177
v 0.673653 1.211434 0.351165
v 0.574162 1.265641 0.217221
v 0.553492 0.936372 0.191262
v 0.431410 0.949466 0.359080
v -0.141071 0.711124 0.059758
v -0.183083 0.646005 0.091195
v -0.125745 0.685607 0.144651
v -0.554319 0.981566 0.182030
v -0.573915 0.812713 0.310424
v -0.467855 0.966725 0.422508
v -0.671276 1.210979 0.274388
v -0.593125 1.188648 0.455818
v -0.565353 1.266295 0.291456
v -0.691998 1.200201 0.390823
v -0.525348 1.254408 0.382633
v -0.530161 0.869619 0.411335
v -0.601734 0.882713 0.216542
v -0.442645 1.008470 0.343046
v -0.468985 1.022004 0.240529
vt 0.5475 0.1062
vt 0.5295 0.0831
vt 0.5427 0.0797
vt 0.5751 0.0974
vt 0.5775 0.0787
vt 0.5872 0.0796
vt 0.5648 0.1082
vt 0.5565 0.0962
vt 0.5619 0.0944
vt 0.5993 0.0820
vt 0.5852 0.1098
vt 0.5673 0.0942
vt 0.5691 0.0767
vt 0.5527 0.0780
vt 0.5611 0.0773
vt 0.5656 0.0308
vt 0.5738 0.0308
vt 0.5825 0.0295
vt 0.5551 0.0298
vt 0.5464 0.0279
vt 0.5667 0.0838
vt 0.5612 0.0856
vt 0.5688 0.0199
vt 0.5742 0.0849
vt 0.5734 0.0665
vt 0.5815 0.0651
vt 0.5473 0.0708
vt 0.5541 0.0947
vt 0.5351 0.0716
vt 0.5769 0.0944
vt 0.5905 0.0635
vt 0.6032 0.0699
vt 0.5905 0.1003
vt 0.5801 0.0195
vt 0.5886 0.0180
vt 0.5560 0.0184
vt 0.5679 0.0628
vt 0.5628 0.0647
vt 0.5688 0.0199
vt 0.5742 0.0849
vt 0.5734 0.0665
vt 0.5815 0.0651
vt 0.5473 0.0708
vt 0.5541 0.0947
vt 0.5351 0.0716
vt 0.5667 0.0838
vt 0.5612 0.0856
vt 0.5769 0.0944
vt 0.5905 0.0635
vt 0.6032 0.0699
vt 0.5905 0.1003
vt 0.5801 0.0195
vt 0.5886 0.0180
vt 0.5570 0.0654
vt 0.5560 0.0184
vn -0.1494 0.0751 0.9859
vn -0.9299 0.0766 -0.3598
vn 0.5323 0.8454 -0.0446
vn -0.8670 0.2206 0.4468
vn 0.2956 0.8470 -0.4418
vn 0.3072 0.8193 0.4841
vn -0.5442 0.7987 0.2570
vn -0.2067 0.8413 -0.4994
vn -0.3691 0.1545 -0.9164
vn 0.9893 0.1240 -0.0774
vn 0.5508 0.1212 -0.8258
vn 0.5719 0.1757 0.8013
vn -0.2188 -0.1466 -0.9647
vn -0.9538 -0.1461 -0.2627
vn -0.8601 -0.1212 0.4956
vn 0.6746 -0.1212 0.7282
vn 0.5623 -0.1261 -0.8173
vn -0.1213 -0.1644 0.9789
vn 0.9819 -0.1637 -0.0956
vn -0.5957 0.6500 -0.4718
vn -0.3165 0.0177 0.9484
vn 0.7098 -0.2152 -0.6708
vn -0.6437 0.5004 0.5790
vn 0.3211 0.2651 -0.9092
vn 0.3661 0.9249 0.1024
vn 0.2572 0.8864 0.3849
vn 0.5625 0.8225 -0.0849
vn 0.8739 -0.4647 0.1428
vn -0.8130 0.5453 0.2041
vn 0.4230 -0.3661 0.8289
vn -0.5593 -0.1704 0.8112
vn 0.5814 -0.7884 -0.2012
vn -0.0182 0.3432 -0.9391
vn 0.0646 -0.7037 0.7075
vn 0.5348 -0.3259 -0.7796
vn -0.4388 0.5684 -0.6960
vn 0.6648 0.7435 -0.0727
vn -0.6049 0.0122 -0.7962
vn 0.0288 -0.1325 0.9908
vn -0.0362 0.3573 -0.9333
vn 0.6046 0.2267 0.7636
vn -0.2887 0.9249 0.2473
vn -0.4629 0.8864 -0.0003
vn -0.2422 0.8225 0.5147
vn -0.6838 -0.2933 0.6681
vn 0.4167 0.3401 -0.8430
vn -0.9684 -0.2422 -0.0603
vn -0.3721 -0.1644 -0.9135
vn -0.0353 -0.8369 0.5463
vn 0.8851 0.2328 0.4031
vn -0.5389 -0.7440 -0.3950
vn 0.3979 -0.3528 0.8469
vn 0.8917 0.3731 -0.2565
vn 0.7333 0.6762 0.0709
vn 0.7559 0.4495 0.4760
vn 0.2020 0.6428 -0.7390
s off
f 11/1/1 16/2/1 7/3/1
f 10/4/2 17/5/2 6/6/2
f 14/7/3 12/8/3 13/9/3
f 6/6/4 16/10/4 11/11/4 10/4/4
f 9/12/5 14/7/5 13/9/5
f 12/8/6 14/7/6 11/1/6
f 14/7/7 10/4/7 11/11/7
f 10/4/8 14/7/8 9/12/8
f 5/13/9 17/5/9 10/4/9 9/12/9
f 15/14/10 8/15/10 13/9/10 12/8/10
f 8/15/11 5/13/11 9/12/11 13/9/11
f 7/3/12 15/14/12 12/8/12 11/1/12
f 5/13/13 1/16/13 2/17/13 17/5/13
f 2/17/14 3/18/14 6/6/14 17/5/14
f 16/10/15 6/6/15 3/18/15
f 15/14/16 7/3/16 4/19/16
f 5/13/17 8/15/17 1/16/17
f 3/20/18 4/19/18 7/3/18 16/2/18
f 4/19/19 1/16/19 8/15/19 15/14/19
f 26/21/20 28/22/20 18/23/20
f 24/24/21 21/25/21 30/26/21
f 23/27/22 25/28/22 29/29/22
f 24/24/23 26/21/23 21/25/23
f 28/22/24 25/28/24 23/27/24
f 27/30/25 28/22/25 26/21/25
f 24/24/26 27/30/26 26/21/26
f 28/22/27 27/30/27 25/28/27
f 27/30/28 22/31/28 29/32/28 25/33/28
f 21/25/29 26/21/29 18/23/29
f 30/26/30 22/31/30 27/30/30 24/24/30
f 18/23/31 19/34/31 30/26/31 21/25/31
f 22/31/32 19/34/32 20/35/32 29/32/32
f 20/36/33 28/22/33 23/27/33
f 22/31/34 30/26/34 19/34/34
f 20/36/35 23/27/35 29/29/35
f 18/23/36 28/22/36 20/36/36
f 45/37/37 44/38/37 31/39/37
f 37/40/38 34/41/38 43/42/38
f 36/43/39 38/44/39 42/45/39
f 37/40/40 39/46/40 34/41/40
f 41/47/41 38/44/41 36/43/41
f 40/48/42 41/47/42 39/46/42
f 37/40/43 40/48/43 39/46/43
f 41/47/44 40/48/44 38/44/44
f 40/48/45 35/49/45 42/50/45 38/51/45
f 34/41/46 39/46/46 45/37/46
f 43/42/47 35/49/47 40/48/47 37/40/47
f 31/39/48 32/52/48 43/42/48 34/41/48
f 35/49/49 32/52/49 33/53/49 42/50/49
f 44/54/50 41/47/50 36/43/50
f 35/49/51 43/42/51 32/52/51
f 33/55/52 36/43/52 42/45/52
f 39/46/53 41/47/53 44/38/53 45/37/53
f 31/39/54 44/54/54 33/55/54
f 33/55/55 44/54/55 36/43/55
f 31/39/56 34/41/56 45/37/56
