# Blender v2.78 (sub 0) OBJ File: 'Low_Poly_Vegetation_Pack.blend'
# www.blender.org
g Cactus_b_m_01
v -0.000000 -0.110223 -0.143975
v -0.112564 -0.110223 -0.089767
v -0.140365 -0.110223 0.032037
v -0.062468 -0.110223 0.129717
v 0.140365 -0.110223 0.032037
v 0.015007 0.880658 -0.180449
v -0.070344 1.347425 -0.105748
v -0.102826 1.345351 0.037741
v -0.011813 1.351130 0.152810
v 0.134170 1.360170 0.152810
v 0.225195 1.365647 0.037741
v 0.192708 1.363707 -0.105748
v 0.000354 2.469183 -0.164889
v -0.128559 2.469975 -0.102807
v -0.129852 2.474729 0.103818
v 0.071896 2.468743 0.148560
v 0.161107 2.468195 0.036691
v 0.129268 2.468390 -0.102807
v 0.004237 2.522549 -0.001879
v 0.145703 0.572740 0.038567
v 0.095520 -0.110100 -0.092139
v -0.099021 0.573603 0.156160
v 0.038319 -0.110362 0.141289
v -0.158837 0.573696 -0.108064
v -0.192320 0.573855 0.038568
vt 0.4453 0.0718
vt 0.4364 0.0559
vt 0.4433 0.0464
vt 0.4495 0.0951
vt 0.4553 0.0735
vt 0.4678 0.0762
vt 0.4323 0.0985
vt 0.4240 0.0865
vt 0.4294 0.0846
vt 0.4183 0.0908
vt 0.4129 0.1000
vt 0.4403 0.0860
vt 0.4348 0.0844
vt 0.4224 0.0461
vt 0.4304 0.0210
vt 0.4285 0.0710
vt 0.4198 0.0718
vt 0.4195 0.0196
vt 0.4250 0.0204
vt 0.3957 0.0774
vt 0.4048 0.0478
vt 0.4095 0.0737
vt 0.4511 0.0470
vt 0.4601 0.0477
vt 0.4358 0.0212
vt 0.4413 0.0210
vt 0.4468 0.0204
vt 0.4525 0.0192
vt 0.4139 0.0181
vn -0.4664 0.0560 -0.8828
vn -0.7818 -0.0550 0.6211
vn 0.3433 0.9361 -0.0770
vn -0.0514 0.9328 0.3568
vn -0.3524 0.9356 -0.0237
vn 0.1554 0.9377 -0.3107
vn 0.2727 0.9382 0.2129
vn 0.9915 -0.0779 -0.1043
vn -0.1411 0.9418 -0.3050
vn 0.7307 -0.0122 0.6825
vn 0.9405 -0.0041 -0.3397
vn 0.0367 -0.0066 0.9993
vn -0.9692 0.1118 -0.2196
vn 0.8341 -0.0672 0.5474
vn 0.4767 -0.0395 -0.8782
vn -0.7817 0.0908 0.6171
vn -0.5522 -0.0092 -0.8337
vn 0.9735 0.0564 -0.2216
vn -0.1277 0.0133 0.9917
vn -0.9948 -0.0347 -0.0957
vn 0.3843 0.0175 -0.9230
vn 0.7818 0.0462 0.6219
vn -0.3703 -0.0373 -0.9282
vn -0.7810 -0.0655 0.6210
vn -0.9724 -0.0717 -0.2220
vn 0.4766 -0.0395 -0.8782
vn -0.1140 -0.0445 0.9925
s off
f 7/1/1 6/2/1 24/3/1
f 15/4/2 8/5/2 9/6/2
f 19/7/3 17/8/3 18/9/3
f 16/10/4 19/7/4 15/11/4
f 15/4/5 19/7/5 14/12/5
f 13/13/6 19/7/6 18/9/6
f 17/8/7 19/7/7 16/10/7
f 20/14/8 21/15/8 12/16/8 11/17/8
f 14/12/9 19/7/9 13/13/9
f 20/14/10 23/18/10 5/19/10
f 21/15/11 20/14/11 5/19/11
f 9/20/12 22/21/12 23/18/12 10/22/12
f 24/3/13 25/23/13 8/5/13 7/1/13
f 10/22/14 23/18/14 20/14/14 11/17/14
f 6/2/15 12/16/15 21/15/15
f 8/5/16 25/23/16 22/24/16 9/6/16
f 13/13/17 6/2/17 7/1/17 14/12/17
f 17/8/18 11/17/18 12/16/18 18/9/18
f 9/20/19 10/22/19 16/10/19 15/11/19
f 14/12/20 7/1/20 8/5/20 15/4/20
f 18/9/21 12/16/21 6/2/21 13/13/21
f 10/22/22 11/17/22 17/8/22 16/10/22
f 6/2/23 1/25/23 2/26/23 24/3/23
f 3/27/24 4/28/24 22/24/24 25/23/24
f 24/3/25 2/26/25 3/27/25 25/23/25
f 1/25/26 6/2/26 21/15/26
f 23/18/27 22/21/27 4/29/27
