# Blender v2.78 (sub 0) OBJ File: 'Low_Poly_Vegetation_Pack.blend'
# www.blender.org
g Cactus_l_05
v 0.031160 1.791806 0.175693
v 0.113931 1.723238 0.147380
v 0.178288 1.733028 0.061840
v 0.175769 1.813805 -0.016514
v 0.108271 1.904740 -0.028681
v 0.026621 1.937360 0.034503
v -0.007696 1.887099 0.125458
v 0.386162 1.877591 0.372170
v 0.488337 1.823609 0.358148
v 0.563070 1.839238 0.272956
v 0.554087 1.912709 0.180745
v 0.468151 1.988698 0.150953
v 0.369974 2.009982 0.206013
v 0.333486 1.960535 0.304464
v 0.488943 2.454307 0.567847
v 0.628852 2.404831 0.586284
v 0.639787 2.467211 0.451010
v 0.527743 2.505069 0.434893
v 0.561418 2.499532 0.531281
v -0.032766 1.403706 -0.050209
v -0.099138 1.329633 0.023253
v -0.090854 1.317349 0.142177
v -0.014153 1.376104 0.217012
v 0.073208 1.461655 0.191405
v 0.105444 1.509579 0.084639
v 0.058281 1.483790 -0.022889
v -0.452747 1.600644 0.037555
v -0.537581 1.505966 0.131451
v -0.526993 1.490265 0.283455
v -0.428957 1.565364 0.379106
v -0.317296 1.674711 0.346376
v -0.276093 1.735967 0.209912
v -0.336374 1.703003 0.072474
v -0.629548 2.253649 0.110087
v -0.745037 2.162118 0.193839
v -0.554224 2.281411 0.252724
v -0.642048 2.272984 0.284143
v 0.000000 -0.082665 -0.195623
v -0.152945 -0.082665 -0.121969
v -0.190719 -0.082665 0.043530
v -0.084878 -0.082665 0.176251
v 0.084878 -0.082665 0.176251
v 0.190719 -0.082665 0.043530
v 0.152945 -0.082665 -0.121969
v 0.018425 1.803183 -0.304001
v -0.248374 1.803183 0.030554
v -0.100312 1.803183 0.216219
v 0.124893 3.037925 0.268074
v 0.285224 1.803183 0.030554
v 0.232381 1.803183 -0.200965
v -0.030342 3.087080 -0.329236
v -0.268018 3.088203 -0.221091
v -0.339451 3.067764 0.057977
v -0.167909 3.057044 0.272864
v 0.278767 3.067764 0.057977
v 0.217544 3.081131 -0.209983
v -0.000494 3.640798 -0.190055
v -0.157227 3.647314 -0.114095
v -0.195937 3.641387 0.055736
v -0.087474 3.627480 0.191553
v 0.086486 3.616065 0.191082
v 0.194949 3.615737 0.054678
v 0.156239 3.626745 -0.114943
v 0.003460 3.703547 0.013565
vt 0.4534 0.0642
vt 0.4476 0.0993
vt 0.4474 0.0642
vt 0.4419 0.0991
vt 0.4354 0.0642
vt 0.4414 0.0642
vt 0.4522 0.1045
vt 0.4596 0.0642
vt 0.4660 0.0640
vt 0.4375 0.1021
vt 0.4443 0.1053
vt 0.4421 0.0193
vt 0.4466 0.0194
vt 0.4353 0.1075
vt 0.4331 0.0188
vt 0.4376 0.0191
vt 0.4291 0.0642
vt 0.4557 0.0189
vt 0.4602 0.0183
vt 0.4512 0.0193
vt 0.4286 0.0183
vt 0.4227 0.0640
vt 0.4475 0.0993
vt 0.4474 0.0642
vt 0.4534 0.0642
vt 0.4420 0.0990
vt 0.4354 0.0642
vt 0.4414 0.0642
vt 0.4521 0.1044
vt 0.4596 0.0642
vt 0.4660 0.0640
vt 0.4421 0.0193
vt 0.4466 0.0194
vt 0.4407 0.1036
vt 0.4331 0.0188
vt 0.4376 0.0191
vt 0.4291 0.0642
vt 0.4557 0.0189
vt 0.4602 0.0183
vt 0.4512 0.0193
vt 0.4286 0.0183
vt 0.4227 0.0640
vt 0.4353 0.1075
vt 0.4291 0.0642
vt 0.4362 0.0905
vt 0.4302 0.0927
vt 0.4585 0.0929
vt 0.4526 0.0910
vt 0.4534 0.0642
vt 0.4375 0.1021
vt 0.4402 0.0996
vt 0.4443 0.1053
vt 0.4512 0.1021
vt 0.4534 0.1076
vt 0.4457 0.0986
vt 0.4485 0.0996
vt 0.4430 0.0987
vt 0.4353 0.1075
vt 0.4331 0.0188
vt 0.4376 0.0191
vt 0.4557 0.0189
vt 0.4602 0.0183
vt 0.4660 0.0640
vt 0.4466 0.0194
vt 0.4512 0.0193
vt 0.4474 0.0642
vt 0.4421 0.0193
vt 0.4414 0.0642
vt 0.4286 0.0183
vt 0.4227 0.0640
vt 0.4418 0.0900
vt 0.4472 0.0901
vt 0.4655 0.0956
vt 0.4234 0.0958
vn -0.8168 -0.0495 0.5748
vn -0.3466 0.4824 -0.8045
vn 0.7250 -0.3964 0.5633
vn 0.3273 0.9430 -0.0602
vn -0.3548 0.8754 0.3282
vn 0.6472 0.6710 0.3617
vn 0.0822 0.5437 0.8353
vn -0.4418 0.8735 0.2045
vn 0.4175 0.1588 -0.8947
vn 0.2370 -0.9703 0.0486
vn -0.5046 0.2811 0.8163
vn 0.0026 0.9114 -0.4116
vn 0.4914 -0.6292 -0.6022
vn -0.2495 -0.6304 0.7350
vn 0.9929 -0.1058 -0.0547
vn -0.9209 0.3627 -0.1426
vn 0.4087 0.3751 -0.8320
vn -0.1504 -0.3118 0.9382
vn 0.1594 0.1515 -0.9755
vn 0.8210 0.3856 0.4210
vn -0.9519 -0.3043 0.0349
vn 0.3811 0.8471 -0.3703
vn -0.6718 0.7294 -0.1293
vn -0.1370 0.9834 -0.1191
vn 0.3378 -0.0639 0.9390
vn -0.3867 -0.9197 -0.0681
vn -0.0299 0.3530 -0.9351
vn 0.5592 0.6801 0.4741
vn -0.0793 -0.7430 0.6646
vn -0.3817 -0.4556 -0.8042
vn -0.6284 -0.0930 0.7723
vn 0.7696 0.4354 -0.4670
vn 0.1893 0.2027 0.9608
vn -0.6082 -0.0973 -0.7878
vn 0.0134 -0.0444 0.9989
vn -0.4140 -0.0336 -0.9096
vn 0.0606 0.9063 0.4183
vn -0.3044 0.9519 -0.0362
vn 0.2229 0.9304 -0.2910
vn 0.3508 0.8946 0.2768
vn -0.2312 0.9317 0.2801
vn -0.1016 0.9513 -0.2912
vn 0.4232 0.9052 -0.0378
vn -0.0497 -0.0260 0.9984
vn -0.9868 -0.0372 -0.1575
vn 0.4332 -0.0559 -0.8996
vn 0.7603 -0.0306 0.6488
vn -0.7817 -0.0196 0.6234
vn -0.4500 -0.0452 -0.8919
vn 0.9749 0.0098 -0.2224
vn 0.4337 -0.0013 -0.9011
vn 0.9737 -0.0503 -0.2222
vn -0.9656 -0.0641 -0.2519
vn -0.7807 -0.0699 0.6210
vn 0.8073 -0.0087 0.5900
vn 0.4323 0.1997 -0.8793
vn 0.7854 0.1284 0.6056
vn -0.7599 0.1941 0.6204
vn -0.4061 0.2460 -0.8801
vn 0.9662 0.1460 -0.2125
vn 0.0200 0.1358 0.9905
vn -0.9475 0.2330 -0.2188
s off
f 8/1/1 15/2/1 14/3/1
f 18/4/2 12/5/2 13/6/2
f 16/7/3 9/8/3 10/9/3
f 17/10/4 18/4/4 19/11/4
f 13/6/5 6/12/5 7/13/5 14/3/5
f 16/14/6 17/10/6 19/11/6
f 15/2/7 16/7/7 19/11/7
f 18/4/8 15/2/8 19/11/8
f 4/15/9 5/16/9 12/5/9 11/17/9
f 9/8/10 2/18/10 3/19/10 10/9/10
f 14/3/11 7/13/11 1/20/11 8/1/11
f 5/16/12 6/12/12 13/6/12 12/5/12
f 3/21/13 4/15/13 11/17/13 10/22/13
f 8/1/14 1/20/14 2/18/14 9/8/14
f 16/14/15 10/22/15 11/17/15 17/10/15
f 13/6/16 14/3/16 15/2/16 18/4/16
f 17/10/17 11/17/17 12/5/17 18/4/17
f 8/1/18 9/8/18 16/7/18 15/2/18
f 34/23/19 33/24/19 27/25/19
f 36/26/20 31/27/20 32/28/20
f 35/29/21 28/30/21 29/31/21
f 32/28/22 25/32/22 26/33/22 33/24/22
f 34/23/23 35/29/23 37/34/23
f 36/26/24 34/23/24 37/34/24
f 23/35/25 24/36/25 31/27/25 30/37/25
f 28/30/26 21/38/26 22/39/26 29/31/26
f 33/24/27 26/33/27 20/40/27 27/25/27
f 24/36/28 25/32/28 32/28/28 31/27/28
f 22/41/29 23/35/29 30/37/29 29/42/29
f 27/25/30 20/40/30 21/38/30 28/30/30
f 35/43/31 29/42/31 30/37/31 37/34/31
f 32/28/32 33/24/32 34/23/32 36/26/32
f 37/34/33 30/37/33 31/27/33 36/26/33
f 27/25/34 28/30/34 35/29/34 34/23/34
f 47/44/35 48/45/35 54/46/35
f 52/47/36 51/48/36 45/49/36
f 60/50/37 61/51/37 64/52/37
f 58/53/38 59/54/38 64/52/38
f 63/55/39 57/56/39 64/52/39
f 61/51/40 62/57/40 64/52/40
f 59/58/41 60/50/41 64/52/41
f 57/56/42 58/53/42 64/52/42
f 62/57/43 63/55/43 64/52/43
f 47/44/44 41/59/44 42/60/44 48/45/44
f 39/61/45 40/62/45 46/63/45 52/47/45
f 44/64/46 38/65/46 45/49/46 50/66/46
f 48/45/47 42/60/47 43/67/47 49/68/47
f 40/69/48 41/59/48 47/44/48 46/70/48
f 38/65/49 39/61/49 52/47/49 45/49/49
f 55/71/50 49/68/50 50/66/50 56/72/50
f 56/72/51 50/66/51 45/49/51 51/48/51
f 49/68/52 43/67/52 44/64/52 50/66/52
f 46/63/53 53/73/53 52/47/53
f 54/46/54 53/74/54 46/70/54 47/44/54
f 48/45/55 49/68/55 55/71/55
f 57/56/56 63/55/56 56/72/56 51/48/56
f 61/51/57 48/45/57 55/71/57 62/57/57
f 59/58/58 53/74/58 54/46/58 60/50/58
f 58/53/59 57/56/59 51/48/59 52/47/59
f 63/55/60 62/57/60 55/71/60 56/72/60
f 60/50/61 54/46/61 48/45/61 61/51/61
f 59/54/62 58/53/62 52/47/62 53/73/62
