# Blender v2.78 (sub 0) OBJ File: 'Low_Poly_Trees_Pack.blend'
# www.blender.org
g Hill_s_01
v 25.582331 0.029985 11.009987
v 0.164430 -0.455943 19.387186
v 23.434938 0.151324 24.997360
v 9.319865 0.161965 25.009851
v 6.021834 1.652947 11.601165
v 17.821024 3.554224 12.461320
v 0.090174 -0.457209 21.858383
v 26.371340 -0.036665 15.359311
v 3.044103 0.229062 9.701122
v 0.121936 -0.444787 16.839952
v 24.990908 0.141686 6.255562
v 3.151999 0.148178 24.983608
v 25.006771 0.118378 21.890263
v 9.781301 0.927002 21.837088
v 17.925583 0.602474 21.766052
v 14.082975 2.182852 18.778685
v 11.962440 2.210455 19.229107
v 6.250000 0.212254 3.125000
v 3.118589 -0.414015 6.250196
v 18.854406 0.479871 3.063377
v 20.891933 0.710637 6.152504
v 15.822079 0.730947 1.904034
v 10.691958 2.669649 7.545885
v 1.745656 0.326723 21.704210
v 21.478004 1.089509 15.460571
v 21.875000 0.348516 3.125000
v 9.728275 0.149839 0.004463
v 1.548074 -0.627718 12.521181
v 16.469027 3.976734 12.143117
v 7.812500 0.157232 0.000000
v 25.793211 0.004952 18.900927
v 21.098694 1.482899 12.040769
v 19.445724 1.006829 20.260202
v 7.090674 2.040188 13.846128
v 5.334135 1.181939 19.439205
v 1.855100 0.488382 18.254927
v 4.688032 -0.487908 1.562330
v 4.089686 0.467706 8.262399
v 1.557163 -0.504202 6.251133
v 18.762106 0.375469 1.563612
v 18.736700 1.747407 7.720335
v 14.173224 2.575055 6.251962
v 26.370787 -0.045380 17.099361
v 17.190987 0.144120 0.011569
v 15.912465 0.172781 25.010132
v 25.000000 0.157232 23.437500
v 10.262612 0.386179 23.456194
v 13.323811 3.961008 12.179104
v 19.458143 1.591447 16.618937
v 17.361317 0.245390 23.455656
v 6.158563 1.826218 17.388868
v 4.780830 0.236581 5.098292
v 19.093061 0.811222 4.596157
v 17.452814 1.869751 6.640000
v 22.622358 0.579361 9.170743
v 20.959637 0.991884 9.179940
v 14.623182 1.613463 4.153637
v 8.101389 1.968154 7.829400
v 12.472498 3.555975 9.351136
v 3.130636 -0.495559 3.126121
v 4.687500 -0.425073 3.125000
v 7.566643 1.015789 20.957491
v 3.403184 0.239779 23.497705
v 3.310680 0.629797 14.294182
v 0.027254 -0.489550 14.109159
v 21.554901 0.261483 23.407091
v 23.565577 0.140500 21.884638
v 14.499794 0.464307 23.414581
v 16.683086 2.641181 16.875896
v 17.776741 3.457071 14.212391
v 22.337206 0.896958 13.311642
v 11.156956 3.274708 13.273985
v 9.936705 2.230041 16.625254
v 12.996037 3.150864 16.267458
v 7.403298 0.828352 5.373049
v 7.816311 0.308393 3.122742
v 10.553805 0.607233 2.581721
v 21.903320 0.460511 4.675794
v 20.334845 0.434600 3.115905
v 23.437500 0.350842 4.687500
v 20.361475 0.708473 4.822666
v 20.312500 0.311276 1.562500
v 7.812500 -0.362445 1.562500
v 9.267152 2.573413 13.213046
v 25.876318 0.259826 15.881163
v 20.448267 1.789606 14.237583
v 18.196594 1.907816 17.360340
v 14.364833 2.942649 17.102016
v 15.465783 3.756571 13.821985
v 14.778696 0.910417 21.733402
v 23.437500 0.135032 23.437500
v 20.889322 1.014644 18.660715
v 4.514074 1.295481 16.351597
v 1.642420 0.191472 23.412024
v 1.523168 -0.585956 10.368361
v 9.208632 2.236032 10.465573
v 13.238137 0.780076 1.671642
v 17.426338 3.363675 10.404293
v 15.797144 3.543433 9.352808
v 14.503880 3.177869 7.544690
v 24.521027 0.364693 10.061631
v 23.460011 0.368229 6.256499
v 17.361584 0.555225 1.578493
v 11.932969 2.785985 7.075428
v 25.076822 0.253959 19.157377
v 16.979370 1.497297 19.849600
v 24.047363 0.387491 13.401838
v 9.680078 0.261115 1.410959
vt 0.5860 0.4473
vt 0.5047 0.5130
vt 0.4923 0.3496
vt 0.2681 0.4464
vt 0.2275 0.5361
vt 0.1703 0.3462
vt 0.1542 0.6696
vt 0.2800 0.7852
vt 0.1804 0.7962
vt 0.7999 0.5186
vt 0.8577 0.6333
vt 0.7946 0.6330
vt 0.5495 0.6983
vt 0.6615 0.7345
vt 0.5370 0.7500
vt 0.5015 0.9332
vt 0.6515 0.9995
vt 0.3682 0.9998
vt 0.3065 0.6870
vt 0.4048 0.6983
vt 0.3485 0.5815
vt 0.5986 0.6260
vt 0.4724 0.6261
vt 0.0581 0.7501
vt 0.0568 0.5854
vt 0.1145 0.6121
vt 0.2362 0.8751
vt 0.1769 0.8751
vt 0.2862 0.1620
vt 0.4531 0.2311
vt 0.2327 0.3047
vt 0.1281 0.0605
vt 0.0652 0.1322
vt 0.0613 0.0639
vt 0.1246 0.4285
vt 0.0577 0.4994
vt 0.0000 0.4359
vt 0.0694 0.2701
vt 0.9479 0.0629
vt 0.8935 0.1250
vt 0.8886 0.0629
vt 0.6435 0.2063
vt 0.5335 0.2492
vt 0.5600 0.1310
vt 0.6754 0.5017
vt 0.6241 0.5145
vt 0.7376 0.3355
vt 0.6738 0.4317
vt 0.6897 0.3059
vt 0.8469 0.4677
vt 0.7752 0.4307
vt 0.9812 0.3650
vt 0.8143 0.3818
vt 0.7919 0.2539
vt 0.2955 0.9375
vt 0.2955 1.0000
vt 0.3996 0.8968
vt 0.2957 0.8751
vt 0.4519 0.7171
vt 0.7719 0.8072
vt 0.8293 0.8751
vt 0.7709 0.8754
vt 0.7920 0.7540
vt 0.8886 0.8126
vt 0.8304 0.8130
vt 0.9476 0.7499
vt 0.8895 0.7498
vt 0.7237 0.8162
vt 0.7147 0.8775
vt 0.7700 0.9375
vt 0.7112 0.9375
vt 0.1769 0.9375
vt 0.3664 0.9436
vt 0.3762 0.3353
vt 0.3507 0.4717
vt 0.9509 0.2340
vt 1.0000 0.3163
vt 0.6322 0.3252
vt 0.6580 0.0622
vt 0.5494 0.0638
vt 0.8885 0.0005
vt 0.6030 0.0000
vt 0.3703 0.1269
vt 0.3885 0.0621
vt 0.3527 0.0000
vt 0.8172 0.0641
vt 0.6794 0.1297
vt 0.7371 0.1899
vt 0.2014 0.2227
vt 0.0036 0.3267
vt 0.0052 0.2248
vt 0.1186 0.0011
vt 0.0024 0.1260
vt 0.1178 0.8750
vt 0.1173 0.7501
vt 0.4225 0.4693
vt 0.5540 0.8339
vt 0.5996 0.9239
vt 0.6605 0.5840
vt 0.9118 0.4641
vt 0.9700 0.5598
vt 0.9298 0.5977
vt 0.7102 0.6913
vt 0.6580 0.9369
vt 0.9482 0.1247
vt 1.0000 0.3859
vt 0.5442 0.3162
vt 0.9781 0.2443
vn -0.0522 0.9804 0.1901
vn -0.2979 0.9543 -0.0228
vn -0.2070 0.9714 -0.1162
vn 0.2361 0.9557 -0.1755
vn 0.2384 0.8554 -0.4599
vn 0.0011 0.9347 -0.3555
vn -0.2803 0.8987 -0.3374
vn -0.2602 0.9655 0.0112
vn 0.0038 0.9897 -0.1429
vn -0.3689 0.9293 0.0154
vn -0.3631 0.9236 -0.1230
vn -0.3625 0.8887 -0.2808
vn -0.1500 0.9497 0.2749
vn -0.0311 0.9965 0.0770
vn -0.2845 0.8924 -0.3501
vn -0.3174 0.9447 -0.0829
vn -0.0142 0.9999 0.0023
vn 0.0783 0.9222 0.3787
vn 0.2314 0.9371 0.2612
vn 0.4185 0.8357 0.3555
vn 0.4274 0.9041 0.0003
vn 0.1799 0.9821 0.0561
vn 0.0029 0.9489 0.3156
vn -0.1536 0.9562 -0.2491
vn -0.1876 0.9052 -0.3813
vn 0.0560 0.9857 -0.1590
vn 0.0717 0.9903 -0.1186
vn 0.1464 0.9891 -0.0131
vn 0.0375 0.9755 -0.2167
vn 0.1527 0.9863 -0.0625
vn 0.0412 0.9966 -0.0719
vn -0.2339 0.8872 -0.3977
vn -0.0612 0.9964 -0.0579
vn -0.0371 0.9253 -0.3775
vn -0.3209 0.8704 -0.3734
vn 0.0818 0.9413 0.3274
vn -0.0904 0.9929 0.0778
vn -0.2507 0.9669 -0.0474
vn -0.0994 0.9945 0.0339
vn -0.2690 0.9516 0.1486
vn 0.3560 0.9303 0.0886
vn 0.2824 0.9566 0.0723
vn 0.3534 0.9086 0.2226
vn 0.0915 0.9324 0.3496
vn 0.0697 0.9613 0.2666
vn 0.0029 0.9988 0.0494
vn -0.0143 0.9471 0.3206
vn -0.0016 0.9899 0.1419
vn 0.0918 0.9222 0.3756
vn 0.0123 0.8931 0.4498
vn -0.0014 0.9785 0.2063
vn 0.2189 0.9545 0.2023
vn 0.1596 0.9759 0.1488
vn -0.3802 0.9150 0.1346
vn -0.4815 0.8763 0.0119
vn -0.0025 0.9981 0.0611
vn -0.4289 0.9033 -0.0124
vn -0.3797 0.9248 -0.0256
vn -0.4645 0.8853 0.0225
vn -0.3197 0.9467 -0.0393
vn -0.4030 0.9094 -0.1031
vn 0.1826 0.9445 -0.2732
vn 0.1980 0.9262 -0.3208
vn 0.1444 0.9109 -0.3865
vn 0.0486 0.9384 -0.3422
vn 0.2368 0.9498 -0.2045
vn 0.2766 0.8841 -0.3766
vn 0.2877 0.9562 -0.0535
vn 0.2742 0.9611 0.0323
vn 0.3452 0.9281 -0.1392
vn 0.2392 0.9663 -0.0951
vn 0.1334 0.9905 -0.0334
vn 0.1462 0.9884 -0.0399
vn 0.3690 0.8648 -0.3406
vn 0.1261 0.9891 -0.0766
vn -0.0900 0.9497 -0.3000
vn -0.3774 0.9253 -0.0373
vn -0.1805 0.9800 0.0840
vn -0.4086 0.9110 -0.0558
vn 0.0151 0.9986 0.0499
vn 0.0859 0.9183 0.3864
vn 0.2841 0.9584 0.0277
vn 0.3378 0.9193 -0.2019
vn -0.1278 0.9730 -0.1923
vn -0.1379 0.9870 -0.0828
vn -0.0035 0.9918 0.1280
vn 0.1963 0.9803 -0.0206
vn 0.5281 0.8470 0.0604
vn 0.1522 0.9605 0.2329
vn -0.0643 0.9106 -0.4082
vn 0.2554 0.9467 -0.1963
vn 0.3144 0.9492 -0.0168
vn 0.5243 0.8180 -0.2366
vn 0.0424 0.9625 -0.2678
vn -0.3926 0.9175 -0.0632
vn -0.0536 0.9239 -0.3790
vn -0.1079 0.9248 0.3649
vn -0.0981 0.9348 0.3414
vn -0.2661 0.9632 0.0367
vn -0.5530 0.8322 -0.0405
vn 0.1556 0.9795 0.1277
vn 0.0154 0.9996 -0.0250
vn 0.1187 0.9912 0.0580
vn 0.5173 0.8558 0.0045
vn 0.0007 0.9705 0.2410
vn -0.3218 0.9429 -0.0856
vn 0.1515 0.9857 -0.0740
vn 0.1327 0.9911 -0.0129
vn 0.1079 0.9813 -0.1592
vn 0.0333 0.9963 -0.0796
vn -0.2539 0.8986 -0.3578
vn -0.0433 0.9332 -0.3569
vn -0.1876 0.9489 -0.2537
vn -0.0569 0.9172 -0.3942
vn -0.1421 0.9730 -0.1816
vn -0.2594 0.9429 0.2089
vn -0.1028 0.9124 0.3962
vn -0.1981 0.9706 0.1365
vn -0.3440 0.9054 0.2488
vn 0.3549 0.9308 0.0878
vn 0.2802 0.9571 0.0739
vn 0.1735 0.9838 0.0441
vn 0.5376 0.8422 0.0416
vn 0.4677 0.8772 0.1084
vn 0.2978 0.8717 0.3893
vn 0.3326 0.8908 0.3095
vn 0.1509 0.9464 0.2855
vn 0.1575 0.8892 0.4295
vn 0.0688 0.9456 0.3179
vn 0.0922 0.9675 0.2353
vn 0.0741 0.9906 0.1154
vn 0.0086 0.9662 0.2578
vn -0.0162 0.9810 0.1936
vn 0.0669 0.9977 0.0090
vn 0.0672 0.9977 -0.0103
vn -0.0183 0.9701 0.2420
vn -0.0030 0.9974 0.0726
vn 0.1559 0.9796 0.1271
vn -0.4754 0.8798 0.0021
vn -0.3513 0.9313 -0.0959
vn -0.4240 0.9045 0.0460
vn -0.0301 0.9980 0.0564
vn -0.4740 0.8801 0.0262
vn -0.0190 0.9645 0.2635
vn -0.0204 0.9912 0.1307
vn -0.1050 0.9600 0.2595
vn -0.0431 0.9479 -0.3158
vn -0.5426 0.7981 -0.2619
vn -0.0067 0.9884 -0.1519
vn -0.1872 0.9821 -0.0212
vn -0.2181 0.9692 -0.1144
vn -0.3461 0.9369 -0.0489
vn -0.3623 0.8805 -0.3056
vn 0.1943 0.9521 -0.2361
vn 0.1397 0.9206 -0.3647
vn 0.2367 0.9015 -0.3623
vn 0.5097 0.8422 -0.1758
vn 0.3268 0.9333 -0.1491
vn 0.3214 0.8809 -0.3474
vn 0.1084 0.9941 0.0086
vn 0.4171 0.8922 -0.1734
vn 0.4578 0.8883 -0.0366
vn 0.3752 0.9222 -0.0941
vn 0.1284 0.9911 -0.0349
vn 0.0553 0.9643 -0.2590
vn 0.1023 0.9934 -0.0524
vn -0.1920 0.9425 -0.2734
vn 0.0038 0.9796 -0.2008
vn -0.4557 0.8750 -0.1635
vn -0.3584 0.9275 -0.1066
vn -0.1283 0.9778 0.1660
vn -0.0617 0.9783 0.1978
vn -0.4002 0.9146 -0.0582
vn -0.2956 0.9551 -0.0201
vn 0.3454 0.9368 0.0553
vn 0.1216 0.9210 0.3700
vn 0.5066 0.8159 0.2785
vn 0.1931 0.9768 -0.0921
vn -0.2169 0.9607 0.1730
s off
f 89/1/1 48/2/1 74/3/1
f 34/4/2 5/5/2 93/6/2
f 38/7/3 75/8/3 52/9/3
f 32/10/4 55/11/4 56/12/4
f 100/13/5 54/14/5 42/15/5
f 97/16/6 44/17/6 27/18/6
f 58/19/7 23/20/7 75/8/7
f 96/21/8 23/20/8 58/19/8
f 48/2/9 99/22/9 59/23/9
f 38/7/10 39/24/10 95/25/10
f 5/5/11 58/19/11 9/26/11
f 52/9/12 18/27/12 61/28/12
f 62/29/13 17/30/13 51/31/13
f 63/32/14 24/33/14 94/34/14
f 64/35/15 28/36/15 65/37/15
f 64/35/16 65/37/16 36/38/16
f 46/39/17 67/40/17 91/41/17
f 106/42/18 16/43/18 90/44/18
f 89/1/19 6/45/19 29/46/19
f 49/47/20 70/48/20 87/49/20
f 71/50/21 32/10/21 86/51/21
f 85/52/22 25/53/22 92/54/22
f 83/55/23 27/18/23 30/56/23
f 75/8/24 77/57/24 76/58/24
f 104/59/25 97/16/25 77/57/25
f 81/60/26 26/61/26 79/62/26
f 21/63/27 80/64/27 78/65/27
f 11/66/28 80/64/28 102/67/28
f 53/68/29 79/62/29 20/69/29
f 21/63/30 78/65/30 81/60/30
f 20/69/31 82/70/31 40/71/31
f 23/20/32 104/59/32 75/8/32
f 52/9/33 76/58/33 18/27/33
f 18/27/34 83/55/34 37/72/34
f 76/58/35 108/73/35 83/55/35
f 16/43/36 74/3/36 17/30/36
f 17/30/37 73/74/37 51/31/37
f 34/4/38 84/75/38 5/5/38
f 73/74/39 34/4/39 51/31/39
f 74/3/40 84/75/40 73/74/40
f 105/76/41 43/77/41 85/52/41
f 92/54/42 49/47/42 87/49/42
f 25/53/43 86/51/43 49/47/43
f 106/42/44 69/78/44 16/43/44
f 50/79/45 90/44/45 68/80/45
f 3/81/46 50/79/46 45/82/46
f 68/80/47 14/83/47 47/84/47
f 45/82/48 47/84/48 4/85/48
f 90/44/49 16/43/49 17/30/49
f 90/44/50 17/30/50 14/83/50
f 66/86/51 15/87/51 50/79/51
f 92/54/52 87/49/52 33/88/52
f 33/88/53 105/76/53 92/54/53
f 35/89/54 51/31/54 93/6/54
f 36/38/55 10/90/55 2/91/55
f 4/85/56 63/32/56 12/92/56
f 24/33/57 2/91/57 7/93/57
f 52/9/58 60/94/58 19/95/58
f 9/26/59 95/25/59 28/36/59
f 72/96/60 48/2/60 59/23/60
f 84/75/61 59/23/61 96/21/61
f 57/97/62 20/69/62 22/98/62
f 54/14/63 53/68/63 57/97/63
f 42/15/64 57/97/64 97/16/64
f 57/97/65 22/98/65 97/16/65
f 29/46/66 98/99/66 99/22/66
f 99/22/67 54/14/67 100/13/67
f 107/100/68 55/11/68 71/50/68
f 107/100/69 1/101/69 101/102/69
f 41/103/70 21/63/70 81/60/70
f 56/12/71 55/11/71 21/63/71
f 55/11/72 102/67/72 21/63/72
f 101/102/73 11/66/73 102/67/73
f 98/99/74 41/103/74 54/14/74
f 20/69/75 40/71/75 103/104/75
f 59/23/76 100/13/76 104/59/76
f 18/27/77 37/72/77 61/28/77
f 24/33/78 35/89/78 93/6/78
f 93/6/79 9/26/79 64/35/79
f 13/105/80 105/76/80 67/40/80
f 15/87/81 106/42/81 90/44/81
f 25/53/82 107/100/82 71/50/82
f 85/52/83 8/106/83 107/100/83
f 77/57/84 97/16/84 108/73/84
f 108/73/85 97/16/85 27/18/85
f 89/1/86 29/46/86 48/2/86
f 107/100/87 8/106/87 1/101/87
f 70/48/88 86/51/88 6/45/88
f 33/88/89 87/49/89 106/42/89
f 104/59/90 100/13/90 42/15/90
f 41/103/91 81/60/91 54/14/91
f 101/102/92 1/101/92 11/66/92
f 32/10/93 41/103/93 98/99/93
f 97/16/94 22/98/94 44/17/94
f 96/21/95 59/23/95 23/20/95
f 38/7/96 19/95/96 39/24/96
f 62/29/97 14/83/97 17/30/97
f 47/84/98 14/83/98 62/29/98
f 24/33/99 93/6/99 36/38/99
f 64/35/100 9/26/100 28/36/100
f 66/86/101 67/40/101 33/88/101
f 46/39/102 13/105/102 67/40/102
f 89/1/103 70/48/103 6/45/103
f 85/52/104 43/77/104 8/106/104
f 88/107/105 89/1/105 74/3/105
f 83/55/106 108/73/106 27/18/106
f 81/60/107 78/65/107 26/61/107
f 21/63/108 102/67/108 80/64/108
f 53/68/109 81/60/109 79/62/109
f 20/69/110 79/62/110 82/70/110
f 75/8/111 104/59/111 77/57/111
f 104/59/112 42/15/112 97/16/112
f 52/9/113 75/8/113 76/58/113
f 18/27/114 76/58/114 83/55/114
f 76/58/115 77/57/115 108/73/115
f 17/30/116 74/3/116 73/74/116
f 16/43/117 88/107/117 74/3/117
f 73/74/118 84/75/118 34/4/118
f 74/3/119 72/96/119 84/75/119
f 105/76/120 31/108/120 43/77/120
f 92/54/121 25/53/121 49/47/121
f 105/76/122 85/52/122 92/54/122
f 86/51/123 32/10/123 6/45/123
f 25/53/124 71/50/124 86/51/124
f 87/49/125 70/48/125 69/78/125
f 106/42/126 87/49/126 69/78/126
f 88/107/127 69/78/127 89/1/127
f 16/43/128 69/78/128 88/107/128
f 69/78/129 70/48/129 89/1/129
f 50/79/130 15/87/130 90/44/130
f 45/82/131 50/79/131 68/80/131
f 68/80/132 90/44/132 14/83/132
f 45/82/133 68/80/133 47/84/133
f 66/86/134 91/41/134 67/40/134
f 3/81/135 91/41/135 66/86/135
f 66/86/136 33/88/136 15/87/136
f 3/81/137 66/86/137 50/79/137
f 33/88/138 67/40/138 105/76/138
f 10/90/139 36/38/139 65/37/139
f 36/38/140 93/6/140 64/35/140
f 94/34/141 24/33/141 7/93/141
f 12/92/142 63/32/142 94/34/142
f 24/33/143 36/38/143 2/91/143
f 63/32/144 47/84/144 62/29/144
f 4/85/145 47/84/145 63/32/145
f 35/89/146 62/29/146 51/31/146
f 52/9/147 61/28/147 60/94/147
f 9/26/148 38/7/148 95/25/148
f 29/46/149 99/22/149 48/2/149
f 5/5/150 96/21/150 58/19/150
f 84/75/151 96/21/151 5/5/151
f 84/75/152 72/96/152 59/23/152
f 38/7/153 58/19/153 75/8/153
f 57/97/154 53/68/154 20/69/154
f 54/14/155 81/60/155 53/68/155
f 42/15/156 54/14/156 57/97/156
f 6/45/157 32/10/157 98/99/157
f 29/46/158 6/45/158 98/99/158
f 99/22/159 98/99/159 54/14/159
f 107/100/160 101/102/160 55/11/160
f 32/10/161 56/12/161 41/103/161
f 71/50/162 55/11/162 32/10/162
f 56/12/163 21/63/163 41/103/163
f 55/11/164 101/102/164 102/67/164
f 22/98/165 103/104/165 44/17/165
f 22/98/166 20/69/166 103/104/166
f 23/20/167 59/23/167 104/59/167
f 59/23/168 99/22/168 100/13/168
f 38/7/169 52/9/169 19/95/169
f 9/26/170 58/19/170 38/7/170
f 63/32/171 35/89/171 24/33/171
f 63/32/172 62/29/172 35/89/172
f 93/6/173 5/5/173 9/26/173
f 51/31/174 34/4/174 93/6/174
f 13/105/175 31/108/175 105/76/175
f 15/87/176 33/88/176 106/42/176
f 70/48/177 49/47/177 86/51/177
f 25/53/178 85/52/178 107/100/178
f 74/3/179 48/2/179 72/96/179
