# Blender v2.78 (sub 0) OBJ File: 'Low_Poly_Vegetation_Pack.blend'
# www.blender.org
g Grass3D_b_01
v -0.076659 -0.055928 0.001099
v -0.008033 -0.055928 -0.033214
v -0.068581 -0.055928 -0.055410
v -0.097734 0.360613 -0.050112
v 0.000368 -0.049641 0.022238
v 0.052845 -0.049641 0.018066
v 0.020043 -0.049641 -0.011627
v 0.060309 0.162175 0.043846
v 0.093068 0.137670 0.036736
v 0.075465 0.166089 0.011386
v 0.291578 0.322078 0.143781
vt 0.1973 0.5151
vt 0.1866 0.6034
vt 0.1857 0.5151
vt 0.1727 0.5159
vt 0.2124 0.5186
vt 0.0520 0.5561
vt 0.0591 0.5553
vt 0.0600 0.6040
vt 0.0520 0.5188
vt 0.0601 0.5173
vt 0.0676 0.5171
vt 0.0771 0.5201
vt 0.0724 0.5571
vt 0.0654 0.5556
vn -0.9877 -0.0673 -0.1412
vn 0.3440 0.0360 -0.9383
vn 0.4433 0.1314 0.8867
vn 0.6334 -0.2584 -0.7294
vn 0.7089 -0.0960 -0.6987
vn 0.0952 -0.1236 0.9878
vn -0.8574 0.2766 -0.4339
vn -0.5208 0.8418 -0.1417
vn -0.1090 -0.4086 0.9062
s off
f 1/1/1 4/2/1 3/3/1
f 2/4/2 3/3/2 4/2/2
f 2/5/3 4/2/3 1/1/3
f 9/6/4 10/7/4 11/8/4
f 6/9/5 7/10/5 10/7/5 9/6/5
f 5/11/6 6/12/6 9/13/6 8/14/6
f 7/10/7 5/11/7 8/14/7 10/7/7
f 10/7/8 8/14/8 11/8/8
f 8/14/9 9/13/9 11/8/9
