# Blender v2.78 (sub 0) OBJ File: 'Low_Poly_Vegetation_Pack.blend'
# www.blender.org
g Grass3D_a_06
v -0.552520 -0.050844 0.311522
v -0.574976 -0.050844 0.384888
v -0.517156 -0.050844 0.356331
v -0.534510 0.327830 0.366881
v -0.598766 -0.045128 0.374659
v -0.614173 -0.045128 0.424997
v -0.574502 -0.045128 0.405403
v -0.633532 0.166160 0.414731
v -0.644056 0.160490 0.453164
v -0.607532 0.170181 0.439304
v -0.736190 0.414890 0.513985
v -0.042153 -0.076230 -0.014823
v 0.014363 -0.067428 -0.068706
v -0.047164 -0.082824 -0.068331
v -0.160025 0.466630 -0.126818
v 0.027181 -0.045127 0.017593
v 0.074266 -0.045127 -0.005950
v 0.032724 -0.045127 -0.021179
v 0.080176 0.166161 0.015151
v 0.115271 0.160491 -0.003722
v 0.080052 0.170182 -0.020624
v 0.253663 0.441119 0.008945
v -0.059258 -0.063792 0.015735
v -0.010372 -0.059228 -0.010417
v -0.054677 -0.060712 -0.025282
v -0.047703 0.184692 0.024032
v -0.010034 0.178806 0.004383
v -0.048138 0.184938 -0.014328
v 0.019071 0.488703 0.012032
v -0.036964 -0.053246 0.063237
v 0.016086 -0.056448 0.038034
v -0.028112 -0.045737 0.024406
v 0.058962 0.355904 0.120889
v 0.482172 -0.046281 0.366422
v 0.554859 -0.047652 0.376233
v 0.517390 -0.051590 0.330554
v 0.541842 0.309475 0.308305
v 0.408474 -0.070834 0.401664
v 0.469759 -0.065766 0.407507
v 0.437910 -0.067414 0.366538
v 0.414065 0.205082 0.416437
v 0.460979 0.198546 0.421404
v 0.437229 0.205356 0.380687
v 0.407984 0.484090 0.385252
v 0.461695 -0.056861 0.443121
v 0.527526 -0.056861 0.451234
v 0.494540 -0.056861 0.406291
v 0.519020 0.209361 0.477501
v 0.569012 0.202218 0.482157
v 0.543828 0.214429 0.439866
v 0.664626 0.522762 0.583189
v 0.393294 -0.037987 -0.408290
v 0.343289 -0.037987 -0.380262
v 0.389258 -0.037987 -0.365833
v 0.312663 0.314722 -0.376182
v 0.477423 -0.030281 -0.429087
v 0.463344 -0.030281 -0.472559
v 0.444870 -0.030281 -0.438888
v 0.469089 0.246096 -0.508743
v 0.436048 -0.043953 -0.333535
v 0.497295 -0.043953 -0.308077
v 0.477560 -0.043953 -0.360215
v 0.531806 0.357214 -0.267617
vt 0.8203 0.5170
vt 0.8097 0.6053
vt 0.8088 0.5171
vt 0.7957 0.5178
vt 0.8354 0.5205
vt 0.5500 0.5561
vt 0.5571 0.5553
vt 0.5580 0.6040
vt 0.5500 0.5188
vt 0.5582 0.5173
vt 0.5656 0.5171
vt 0.5752 0.5201
vt 0.5704 0.5571
vt 0.5635 0.5556
vt 0.8203 0.5170
vt 0.8097 0.6053
vt 0.8088 0.5171
vt 0.7957 0.5178
vt 0.8354 0.5205
vt 0.5500 0.5561
vt 0.5571 0.5553
vt 0.5580 0.6040
vt 0.5500 0.5188
vt 0.5582 0.5173
vt 0.5656 0.5171
vt 0.5752 0.5201
vt 0.5704 0.5571
vt 0.5635 0.5556
vt 0.6861 0.5562
vt 0.6936 0.5577
vt 0.6895 0.6045
vt 0.6860 0.5131
vt 0.6951 0.5127
vt 0.6752 0.5127
vt 0.6786 0.5584
vt 0.7027 0.5127
vt 0.7007 0.5585
vt 0.8203 0.5170
vt 0.8097 0.6053
vt 0.8088 0.5171
vt 0.7957 0.5178
vt 0.8354 0.5205
vt 0.8203 0.5170
vt 0.8097 0.6053
vt 0.8088 0.5171
vt 0.7957 0.5178
vt 0.8354 0.5205
vt 0.6861 0.5562
vt 0.6936 0.5577
vt 0.6895 0.6045
vt 0.6860 0.5131
vt 0.6951 0.5127
vt 0.6752 0.5127
vt 0.6786 0.5584
vt 0.7027 0.5127
vt 0.7007 0.5585
vt 0.5500 0.5561
vt 0.5571 0.5553
vt 0.5580 0.6040
vt 0.5500 0.5188
vt 0.5582 0.5173
vt 0.5656 0.5171
vt 0.5752 0.5201
vt 0.5704 0.5571
vt 0.5635 0.5556
vt 0.8203 0.5170
vt 0.8097 0.6053
vt 0.8088 0.5171
vt 0.7957 0.5178
vt 0.8354 0.5205
vt 0.8203 0.5170
vt 0.8097 0.6053
vt 0.8088 0.5171
vt 0.7957 0.5178
vt 0.8354 0.5205
vt 0.8203 0.5170
vt 0.8097 0.6053
vt 0.8088 0.5171
vt 0.7957 0.5178
vt 0.8354 0.5205
vn 0.7839 0.0532 -0.6186
vn 0.4428 -0.0047 0.8966
vn -0.9525 0.0879 -0.2915
vn 0.3733 -0.0857 0.9238
vn 0.4087 -0.0731 0.9097
vn -0.9532 -0.1012 -0.2849
vn 0.7122 0.2283 -0.6638
vn 0.5548 0.4956 -0.6682
vn -0.9198 -0.2636 -0.2907
vn -0.9754 -0.1882 0.1146
vn 0.0194 -0.1019 -0.9946
vn 0.6375 0.2860 0.7154
vn 0.3930 -0.1529 -0.9067
vn 0.3772 -0.0731 -0.9232
vn 0.4508 -0.1012 0.8869
vn -0.9718 0.2283 -0.0583
vn -0.8434 0.5336 0.0629
vn 0.4270 -0.2498 0.8691
vn 0.4382 -0.0190 -0.8987
vn 0.3791 0.0438 -0.9243
vn 0.4664 -0.0533 0.8830
vn -0.9980 0.0385 -0.0505
vn -0.9765 0.2150 0.0125
vn 0.4536 -0.0645 0.8889
vn -0.9539 0.2475 -0.1696
vn 0.3250 0.1537 -0.9331
vn 0.4077 -0.2204 0.8861
vn -0.7131 0.0051 -0.7010
vn 0.7738 -0.0910 -0.6269
vn -0.1282 0.1808 0.9751
vn 0.8667 0.0989 -0.4890
vn 0.8272 0.0438 -0.5602
vn -0.1000 -0.0533 0.9936
vn -0.8034 0.0385 -0.5942
vn -0.8363 -0.0789 -0.5425
vn -0.0897 0.1087 0.9900
vn 0.8450 -0.0857 -0.5279
vn 0.8250 -0.0731 -0.5604
vn -0.1152 -0.1012 0.9882
vn -0.7773 0.2283 -0.5863
vn -0.7543 0.4956 -0.4305
vn -0.1267 -0.2636 0.9563
vn 0.9725 0.2139 0.0924
vn -0.2993 -0.0370 0.9535
vn -0.4887 -0.0323 -0.8719
vn -0.2785 0.2582 0.9251
vn -0.8758 -0.0447 -0.4805
vn 0.9496 -0.0600 -0.3076
vn -0.5223 0.2582 -0.8127
vn 0.9343 -0.0447 -0.3537
vn -0.3831 -0.0600 0.9217
s off
f 1/1/1 4/2/1 3/3/1
f 2/4/2 3/3/2 4/2/2
f 2/5/3 4/2/3 1/1/3
f 9/6/4 10/7/4 11/8/4
f 6/9/5 7/10/5 10/7/5 9/6/5
f 5/11/6 6/12/6 9/13/6 8/14/6
f 7/10/7 5/11/7 8/14/7 10/7/7
f 10/7/8 8/14/8 11/8/8
f 8/14/9 9/13/9 11/8/9
f 12/15/10 15/16/10 14/17/10
f 13/18/11 14/17/11 15/16/11
f 13/19/12 15/16/12 12/15/12
f 20/20/13 21/21/13 22/22/13
f 17/23/14 18/24/14 21/21/14 20/20/14
f 16/25/15 17/26/15 20/27/15 19/28/15
f 18/24/16 16/25/16 19/28/16 21/21/16
f 21/21/17 19/28/17 22/22/17
f 19/28/18 20/27/18 22/22/18
f 27/29/19 28/30/19 29/31/19
f 24/32/20 25/33/20 28/30/20 27/29/20
f 23/34/21 24/32/21 27/29/21 26/35/21
f 25/33/22 23/36/22 26/37/22 28/30/22
f 28/30/23 26/37/23 29/31/23
f 26/35/24 27/29/24 29/31/24
f 30/38/25 33/39/25 32/40/25
f 31/41/26 32/40/26 33/39/26
f 31/42/27 33/39/27 30/38/27
f 34/43/28 37/44/28 36/45/28
f 35/46/29 36/45/29 37/44/29
f 35/47/30 37/44/30 34/43/30
f 42/48/31 43/49/31 44/50/31
f 39/51/32 40/52/32 43/49/32 42/48/32
f 38/53/33 39/51/33 42/48/33 41/54/33
f 40/52/34 38/55/34 41/56/34 43/49/34
f 43/49/35 41/56/35 44/50/35
f 41/54/36 42/48/36 44/50/36
f 49/57/37 50/58/37 51/59/37
f 46/60/38 47/61/38 50/58/38 49/57/38
f 45/62/39 46/63/39 49/64/39 48/65/39
f 47/61/40 45/62/40 48/65/40 50/58/40
f 50/58/41 48/65/41 51/59/41
f 48/65/42 49/64/42 51/59/42
f 52/66/43 55/67/43 54/68/43
f 53/69/44 54/68/44 55/67/44
f 53/70/45 55/67/45 52/66/45
f 56/71/46 59/72/46 58/73/46
f 57/74/47 58/73/47 59/72/47
f 57/75/48 59/72/48 56/71/48
f 60/76/49 63/77/49 62/78/49
f 61/79/50 62/78/50 63/77/50
f 61/80/51 63/77/51 60/76/51
