# Blender v2.78 (sub 0) OBJ File: 'Low_Poly_Vegetation_Pack.blend'
# www.blender.org
g Grass3D_b_07
v 0.314492 -0.055928 -0.309329
v 0.350841 -0.055928 -0.241760
v 0.371217 -0.055928 -0.302944
v 0.426453 0.360613 -0.333762
v 0.103848 -0.065190 -0.308243
v 0.134143 -0.065190 -0.357865
v 0.086328 -0.065190 -0.347790
v 0.162030 0.168739 -0.347823
v 0.176914 0.141675 -0.381720
v 0.142836 0.173061 -0.382419
v 0.401325 0.345335 -0.489790
v 0.224393 -0.055928 -0.190086
v 0.150033 -0.055928 -0.171178
v 0.204463 -0.055928 -0.136595
v 0.256680 0.397482 -0.009062
v 0.009033 -0.055928 0.588603
v -0.049899 -0.055928 0.539470
v -0.045979 -0.055928 0.603839
v -0.085732 0.360613 0.653038
v 0.204067 -0.065190 0.509016
v 0.194469 -0.065190 0.566356
v 0.235075 -0.065190 0.539172
v 0.164849 0.168739 0.567443
v 0.163685 0.141675 0.604445
v 0.195563 0.173061 0.592381
v -0.004213 0.345335 0.788429
v 0.048146 -0.055928 0.444356
v 0.110084 -0.055928 0.399074
v 0.046682 -0.055928 0.387292
v -0.049340 0.397482 0.288444
v -0.400782 -0.054539 -0.078685
v -0.318281 -0.052926 -0.121317
v -0.390735 -0.054101 -0.133758
v -0.351312 0.468481 -0.049732
v -0.390556 -0.065190 -0.350148
v -0.439249 -0.065190 -0.381913
v -0.430609 -0.065190 -0.333818
v -0.428378 0.168739 -0.409487
v -0.461816 0.141675 -0.425378
v -0.463533 0.173061 -0.391336
v -0.563129 0.345335 -0.652919
v -0.572730 -0.072797 -0.071503
v -0.522469 -0.045258 -0.086573
v -0.561388 -0.061772 -0.112023
v -0.599514 0.159153 -0.042818
v -0.557134 0.172464 -0.048592
v -0.591148 0.181323 -0.076052
v -0.758567 0.384729 -0.014094
v -0.236747 -0.096388 -0.271157
v -0.265347 -0.058304 -0.204469
v -0.203823 -0.081141 -0.223180
v -0.252092 0.241104 -0.327722
v -0.265365 0.222890 -0.270031
v -0.216433 0.258189 -0.288861
v -0.350874 0.608215 -0.257654
v -0.322010 -0.065190 0.020918
v -0.264030 -0.065190 0.025206
v -0.294829 -0.065190 -0.012730
v -0.260227 0.168739 0.054601
v -0.223273 0.141675 0.052361
v -0.238216 0.173061 0.021726
v -0.024643 0.345335 0.202645
vt 0.1973 0.5151
vt 0.1866 0.6034
vt 0.1857 0.5151
vt 0.1727 0.5159
vt 0.2124 0.5186
vt 0.0520 0.5561
vt 0.0591 0.5553
vt 0.0600 0.6040
vt 0.0520 0.5188
vt 0.0601 0.5173
vt 0.0676 0.5171
vt 0.0771 0.5201
vt 0.0724 0.5571
vt 0.0654 0.5556
vt 0.3203 0.5151
vt 0.3097 0.6034
vt 0.3088 0.5151
vt 0.2957 0.5159
vt 0.3354 0.5186
vt 0.1973 0.5151
vt 0.1866 0.6034
vt 0.1857 0.5151
vt 0.1727 0.5159
vt 0.2124 0.5186
vt 0.0520 0.5561
vt 0.0591 0.5553
vt 0.0600 0.6040
vt 0.0520 0.5188
vt 0.0601 0.5173
vt 0.0676 0.5171
vt 0.0771 0.5201
vt 0.0724 0.5571
vt 0.0654 0.5556
vt 0.3203 0.5151
vt 0.3097 0.6034
vt 0.3088 0.5151
vt 0.2957 0.5159
vt 0.3354 0.5186
vt 0.3242 0.5151
vt 0.3136 0.6034
vt 0.3127 0.5151
vt 0.2996 0.5159
vt 0.3394 0.5186
vt 0.4329 0.5561
vt 0.4400 0.5553
vt 0.4408 0.6040
vt 0.4329 0.5188
vt 0.4410 0.5173
vt 0.4484 0.5171
vt 0.4580 0.5201
vt 0.4532 0.5571
vt 0.4463 0.5556
vt 0.0520 0.5561
vt 0.0591 0.5553
vt 0.0600 0.6040
vt 0.0520 0.5188
vt 0.0601 0.5173
vt 0.0676 0.5171
vt 0.0771 0.5201
vt 0.0724 0.5571
vt 0.0654 0.5556
vt 0.0520 0.5561
vt 0.0591 0.5553
vt 0.0600 0.6040
vt 0.0520 0.5188
vt 0.0601 0.5173
vt 0.0676 0.5171
vt 0.0771 0.5201
vt 0.0724 0.5571
vt 0.0654 0.5556
vt 0.4329 0.5561
vt 0.4400 0.5553
vt 0.4408 0.6040
vt 0.4329 0.5188
vt 0.4410 0.5173
vt 0.4484 0.5171
vt 0.4580 0.5201
vt 0.4532 0.5571
vt 0.4463 0.5556
vn 0.1114 -0.0880 -0.9899
vn 0.9438 -0.1019 0.3143
vn -0.8514 0.2557 0.4580
vn -0.2187 -0.2584 -0.9410
vn -0.1494 -0.0960 -0.9841
vn 0.8555 -0.1236 0.5028
vn -0.8547 0.2766 0.4393
vn -0.4205 0.8418 0.3384
vn 0.6695 -0.4086 0.6203
vn 0.9178 -0.2019 0.3419
vn -0.5282 -0.1730 0.8313
vn -0.2285 0.3750 -0.8984
vn 0.2659 -0.0880 0.9600
vn -0.9930 -0.1019 0.0605
vn 0.6191 0.2557 -0.7425
vn 0.5539 -0.2584 0.7915
vn 0.5058 -0.0960 0.8573
vn -0.9813 -0.1236 -0.1474
vn 0.6291 0.2766 -0.7264
vn 0.2639 0.8418 -0.4709
vn -0.8526 -0.4086 -0.3257
vn -0.9791 -0.2019 0.0251
vn 0.1799 -0.1730 -0.9683
vn 0.5471 0.3750 0.7484
vn -0.9787 0.1024 -0.1777
vn 0.1652 0.1444 -0.9756
vn 0.4585 -0.0923 0.8839
vn -0.9471 -0.2584 0.1904
vn -0.9881 -0.0960 0.1200
vn 0.5282 -0.1236 -0.8401
vn 0.4136 0.2766 0.8674
vn 0.3257 0.8418 0.4304
vn 0.6400 -0.4086 -0.6507
vn 0.5793 0.6332 -0.5133
vn 0.5602 0.2070 -0.8021
vn 0.2626 -0.1063 0.9590
vn -0.9546 -0.0743 -0.2885
vn -0.7397 -0.4588 -0.4923
vn 0.1427 -0.0253 0.9894
vn 0.3315 0.0433 0.9425
vn 0.2944 0.2035 0.9338
vn -0.9484 -0.0839 -0.3059
vn 0.7960 -0.0756 -0.6005
vn 0.6307 0.3058 -0.7132
vn -0.9393 -0.1995 -0.2791
vn 0.7372 -0.2584 -0.6243
vn 0.8072 -0.0960 -0.5824
vn -0.0566 -0.1236 0.9907
vn -0.7812 0.2766 -0.5597
vn -0.4931 0.8418 -0.2195
vn -0.2460 -0.4086 0.8789
s off
f 1/1/1 4/2/1 3/3/1
f 2/4/2 3/3/2 4/2/2
f 2/5/3 4/2/3 1/1/3
f 9/6/4 10/7/4 11/8/4
f 6/9/5 7/10/5 10/7/5 9/6/5
f 5/11/6 6/12/6 9/13/6 8/14/6
f 7/10/7 5/11/7 8/14/7 10/7/7
f 10/7/8 8/14/8 11/8/8
f 8/14/9 9/13/9 11/8/9
f 12/15/10 15/16/10 14/17/10
f 13/18/11 14/17/11 15/16/11
f 13/19/12 15/16/12 12/15/12
f 16/20/13 19/21/13 18/22/13
f 17/23/14 18/22/14 19/21/14
f 17/24/15 19/21/15 16/20/15
f 24/25/16 25/26/16 26/27/16
f 21/28/17 22/29/17 25/26/17 24/25/17
f 20/30/18 21/31/18 24/32/18 23/33/18
f 22/29/19 20/30/19 23/33/19 25/26/19
f 25/26/20 23/33/20 26/27/20
f 23/33/21 24/32/21 26/27/21
f 27/34/22 30/35/22 29/36/22
f 28/37/23 29/36/23 30/35/23
f 28/38/24 30/35/24 27/34/24
f 31/39/25 34/40/25 33/41/25
f 32/42/26 33/41/26 34/40/26
f 32/43/27 34/40/27 31/39/27
f 39/44/28 40/45/28 41/46/28
f 36/47/29 37/48/29 40/45/29 39/44/29
f 35/49/30 36/50/30 39/51/30 38/52/30
f 37/48/31 35/49/31 38/52/31 40/45/31
f 40/45/32 38/52/32 41/46/32
f 38/52/33 39/51/33 41/46/33
f 46/53/34 47/54/34 48/55/34
f 43/56/35 44/57/35 47/54/35 46/53/35
f 42/58/36 43/59/36 46/60/36 45/61/36
f 44/57/37 42/58/37 45/61/37 47/54/37
f 47/54/38 45/61/38 48/55/38
f 45/61/39 46/60/39 48/55/39
f 53/62/40 54/63/40 55/64/40
f 50/65/41 51/66/41 54/63/41 53/62/41
f 49/67/42 50/68/42 53/69/42 52/70/42
f 51/66/43 49/67/43 52/70/43 54/63/43
f 54/63/44 52/70/44 55/64/44
f 52/70/45 53/69/45 55/64/45
f 60/71/46 61/72/46 62/73/46
f 57/74/47 58/75/47 61/72/47 60/71/47
f 56/76/48 57/77/48 60/78/48 59/79/48
f 58/75/49 56/76/49 59/79/49 61/72/49
f 61/72/50 59/79/50 62/73/50
f 59/79/51 60/78/51 62/73/51
