# Blender v2.78 (sub 0) OBJ File: 'Low_Poly_Vegetation_Pack.blend'
# www.blender.org
g Grass3D_b_08
v 0.230140 -0.055928 -0.844021
v 0.153545 -0.055928 -0.848488
v 0.194966 -0.055928 -0.799062
v 0.192254 0.360613 -0.735869
v 0.180267 -0.065190 -1.041249
v 0.231514 -0.065190 -1.068704
v 0.185179 -0.065190 -1.084224
v 0.250479 0.168739 -1.045926
v 0.280476 0.141675 -1.067623
v 0.251442 0.173061 -1.085478
v 0.528715 0.345335 -1.047206
v 0.090889 -0.072797 -0.951334
v 0.138475 -0.045258 -0.929225
v 0.126276 -0.061772 -0.974098
v 0.049500 0.169180 -0.942795
v 0.091072 0.162048 -0.928457
v 0.078717 0.181712 -0.967234
v -0.086182 0.384729 -1.031816
v 0.305378 -0.048954 -0.894799
v 0.347500 -0.048954 -0.836915
v 0.358624 -0.048954 -0.896047
v 0.405803 0.339692 -0.931500
v 0.888975 -0.055928 0.815401
v 0.843593 -0.055928 0.877267
v 0.907594 -0.055928 0.869362
v 0.959165 0.360613 0.905986
v 0.797441 -0.065190 0.625680
v 0.855267 -0.065190 0.631702
v 0.825616 -0.065190 0.592861
v 0.858189 0.168739 0.661198
v 0.895193 0.141675 0.660064
v 0.881174 0.173061 0.628995
v 1.089237 0.345335 0.816224
v 0.742580 -0.055928 0.785313
v 0.693542 -0.055928 0.726303
v 0.685716 -0.055928 0.790314
v 0.593015 0.397482 0.892283
v -0.808756 -0.055928 -0.185236
v -0.854137 -0.055928 -0.123371
v -0.790136 -0.055928 -0.131275
v -0.766619 0.360613 -0.149302
v -0.886935 -0.049641 -0.168866
v -0.931715 -0.049641 -0.141189
v -0.888973 -0.049641 -0.129754
v -0.950128 0.162175 -0.160715
v -0.976025 0.137670 -0.139430
v -0.948787 0.166089 -0.124916
v -1.201511 0.322078 -0.144005
v -0.241459 -0.054539 0.121399
v -0.197884 -0.052926 0.039392
v -0.264541 -0.054101 0.070397
v -0.267451 0.434089 0.079892
v 0.191359 -0.065190 -0.178725
v 0.177888 -0.065190 -0.235282
v 0.151060 -0.065190 -0.194440
v 0.204750 0.168739 -0.247808
v 0.191425 0.141675 -0.282348
v 0.166753 0.173061 -0.258829
v 0.274499 0.345335 -0.517163
v -0.277875 -0.072797 -0.145466
v -0.245124 -0.045258 -0.186461
v -0.291609 -0.061772 -0.185238
v -0.283574 0.159153 -0.106636
v -0.252012 0.172464 -0.135502
v -0.295608 0.181323 -0.138725
v -0.398010 0.384729 0.007501
v 0.021383 -0.096388 -0.061090
v 0.092999 -0.058304 -0.049410
v 0.060008 -0.081141 -0.104609
v -0.029815 0.241104 -0.032561
v 0.029375 0.222890 -0.033587
v -0.000696 0.258189 -0.076536
v 0.062002 0.608215 0.046416
v -0.204422 -0.065190 0.227464
v -0.157526 -0.065190 0.261827
v -0.163541 -0.065190 0.213334
v -0.169878 0.168739 0.288771
v -0.137354 0.141675 0.306454
v -0.133790 0.173061 0.272556
v -0.048549 0.345335 0.539162
v 0.251562 -0.054539 0.099700
v 0.295137 -0.052926 0.017693
v 0.228480 -0.054101 0.048698
v 0.308717 0.468481 0.095353
v 0.138558 -0.072797 0.319996
v 0.086555 -0.045258 0.312996
v 0.111515 -0.061772 0.352231
v 0.174789 0.159153 0.304910
v 0.133799 0.172464 0.292691
v 0.153461 0.181323 0.331735
v 0.331532 0.384729 0.344337
vt 0.4355 0.5151
vt 0.4249 0.6034
vt 0.4240 0.5151
vt 0.4110 0.5159
vt 0.4507 0.5186
vt 0.3137 0.5561
vt 0.3208 0.5553
vt 0.3217 0.6040
vt 0.3137 0.5188
vt 0.3219 0.5173
vt 0.3293 0.5171
vt 0.3388 0.5201
vt 0.3341 0.5571
vt 0.3271 0.5556
vt 0.0520 0.5561
vt 0.0591 0.5553
vt 0.0600 0.6040
vt 0.0520 0.5188
vt 0.0601 0.5173
vt 0.0676 0.5171
vt 0.0771 0.5201
vt 0.0724 0.5571
vt 0.0654 0.5556
vt 0.1973 0.5151
vt 0.1866 0.6034
vt 0.1857 0.5151
vt 0.1727 0.5159
vt 0.2124 0.5186
vt 0.1973 0.5151
vt 0.1866 0.6034
vt 0.1857 0.5151
vt 0.1727 0.5159
vt 0.2124 0.5186
vt 0.0520 0.5561
vt 0.0591 0.5553
vt 0.0600 0.6040
vt 0.0520 0.5188
vt 0.0601 0.5173
vt 0.0676 0.5171
vt 0.0771 0.5201
vt 0.0724 0.5571
vt 0.0654 0.5556
vt 0.3203 0.5151
vt 0.3097 0.6034
vt 0.3088 0.5151
vt 0.2957 0.5159
vt 0.3354 0.5186
vt 0.1973 0.5151
vt 0.1866 0.6034
vt 0.1857 0.5151
vt 0.1727 0.5159
vt 0.2124 0.5186
vt 0.0520 0.5561
vt 0.0591 0.5553
vt 0.0600 0.6040
vt 0.0520 0.5188
vt 0.0601 0.5173
vt 0.0676 0.5171
vt 0.0771 0.5201
vt 0.0724 0.5571
vt 0.0654 0.5556
vt 0.1973 0.5151
vt 0.1866 0.6034
vt 0.1857 0.5151
vt 0.1727 0.5159
vt 0.2124 0.5186
vt 0.4192 0.5561
vt 0.4263 0.5553
vt 0.4272 0.6040
vt 0.4192 0.5188
vt 0.4273 0.5173
vt 0.4347 0.5171
vt 0.4443 0.5201
vt 0.4396 0.5571
vt 0.4326 0.5556
vt 0.3235 0.5561
vt 0.3306 0.5553
vt 0.3314 0.6040
vt 0.3235 0.5188
vt 0.3316 0.5173
vt 0.3390 0.5171
vt 0.3486 0.5201
vt 0.3439 0.5571
vt 0.3369 0.5556
vt 0.3235 0.5561
vt 0.3306 0.5553
vt 0.3314 0.6040
vt 0.3235 0.5188
vt 0.3316 0.5173
vt 0.3390 0.5171
vt 0.3486 0.5201
vt 0.3439 0.5571
vt 0.3369 0.5556
vt 0.4192 0.5561
vt 0.4263 0.5553
vt 0.4272 0.6040
vt 0.4192 0.5188
vt 0.4273 0.5173
vt 0.4347 0.5171
vt 0.4443 0.5201
vt 0.4396 0.5571
vt 0.4326 0.5556
vt 0.1973 0.5151
vt 0.1866 0.6034
vt 0.1857 0.5151
vt 0.1727 0.5159
vt 0.2124 0.5186
vt 0.0520 0.5561
vt 0.0591 0.5553
vt 0.0600 0.6040
vt 0.0520 0.5188
vt 0.0601 0.5173
vt 0.0676 0.5171
vt 0.0771 0.5201
vt 0.0724 0.5571
vt 0.0654 0.5556
vn 0.7845 -0.0880 0.6138
vn -0.7624 -0.1019 0.6390
vn 0.0563 0.2557 -0.9651
vn 0.2878 -0.2584 -0.9222
vn 0.3693 -0.0960 -0.9243
vn 0.4832 -0.1236 0.8667
vn -0.9595 0.2766 -0.0538
vn -0.5339 0.8418 0.0790
vn 0.2634 -0.4086 0.8739
vn 0.7601 0.6443 0.0845
vn 0.9416 0.2029 -0.2688
vn -0.3591 -0.0902 0.9289
vn -0.5694 -0.0784 -0.8183
vn -0.3852 -0.5489 -0.7419
vn -0.2874 0.2055 0.9355
vn -0.0233 -0.0880 -0.9958
vn 0.9776 -0.1019 0.1839
vn -0.7817 0.2557 0.5688
vn 0.9416 -0.0880 -0.3249
vn 0.1219 -0.1019 0.9873
vn -0.7795 0.2557 -0.5718
vn 0.7556 -0.2584 -0.6019
vn 0.8243 -0.0960 -0.5580
vn -0.0862 -0.1236 0.9886
vn -0.7641 0.2766 -0.5828
vn -0.4863 0.8418 -0.2341
vn -0.2722 -0.4086 0.8712
vn 0.0858 -0.2019 0.9756
vn -0.9776 -0.1730 -0.1195
vn 0.7130 0.3750 -0.5925
vn 0.9432 -0.0673 -0.3254
vn 0.1225 0.0360 0.9918
vn -0.7993 0.1314 -0.5863
vn -0.2303 -0.2584 0.9382
vn -0.3116 -0.0960 0.9454
vn -0.5358 -0.1236 -0.8353
vn 0.9610 0.2766 -0.0055
vn 0.5280 0.8418 -0.1118
vn -0.3168 -0.4086 -0.8559
vn -0.9110 -0.0134 0.4122
vn -0.4219 0.0151 -0.9065
vn 0.8791 0.0866 0.4688
vn -0.8182 -0.2584 -0.5136
vn -0.7995 -0.0960 -0.5929
vn 0.9613 -0.1236 -0.2461
vn -0.2968 0.2766 0.9140
vn -0.0598 0.8418 0.5364
vn 0.9121 -0.4086 -0.0317
vn 0.1842 0.6332 -0.7518
vn 0.0041 0.2070 -0.9783
vn 0.7617 -0.1063 0.6391
vn -0.9491 -0.0743 0.3060
vn -0.8884 -0.4588 0.0161
vn 0.6805 -0.0253 0.7323
vn 0.8348 0.0433 -0.5489
vn 0.8352 0.2035 -0.5108
vn -0.0682 -0.0839 0.9941
vn -0.7747 -0.0756 -0.6278
vn -0.8442 0.3058 -0.4402
vn -0.0444 -0.1995 0.9789
vn 0.9560 -0.2584 -0.1387
vn 0.9932 -0.0960 -0.0661
vn -0.5730 -0.1236 0.8102
vn -0.3659 0.2766 -0.8886
vn -0.3019 0.8418 -0.4475
vn -0.6744 -0.4086 0.6150
vn -0.9059 0.1024 0.4109
vn -0.4194 0.1444 -0.8962
vn 0.8801 -0.0923 0.4658
vn -0.7394 0.6332 0.2287
vn -0.8411 0.2070 0.4997
vn 0.1563 -0.1063 -0.9820
vn 0.7506 -0.0743 0.6565
vn 0.4708 -0.4588 0.7535
vn 0.2780 -0.0253 -0.9602
s off
f 1/1/1 4/2/1 3/3/1
f 2/4/2 3/3/2 4/2/2
f 2/5/3 4/2/3 1/1/3
f 9/6/4 10/7/4 11/8/4
f 6/9/5 7/10/5 10/7/5 9/6/5
f 5/11/6 6/12/6 9/13/6 8/14/6
f 7/10/7 5/11/7 8/14/7 10/7/7
f 10/7/8 8/14/8 11/8/8
f 8/14/9 9/13/9 11/8/9
f 16/15/10 17/16/10 18/17/10
f 13/18/11 14/19/11 17/16/11 16/15/11
f 12/20/12 13/21/12 16/22/12 15/23/12
f 14/19/13 12/20/13 15/23/13 17/16/13
f 17/16/14 15/23/14 18/17/14
f 15/23/15 16/22/15 18/17/15
f 19/24/16 22/25/16 21/26/16
f 20/27/17 21/26/17 22/25/17
f 20/28/18 22/25/18 19/24/18
f 23/29/19 26/30/19 25/31/19
f 24/32/20 25/31/20 26/30/20
f 24/33/21 26/30/21 23/29/21
f 31/34/22 32/35/22 33/36/22
f 28/37/23 29/38/23 32/35/23 31/34/23
f 27/39/24 28/40/24 31/41/24 30/42/24
f 29/38/25 27/39/25 30/42/25 32/35/25
f 32/35/26 30/42/26 33/36/26
f 30/42/27 31/41/27 33/36/27
f 34/43/28 37/44/28 36/45/28
f 35/46/29 36/45/29 37/44/29
f 35/47/30 37/44/30 34/43/30
f 38/48/31 41/49/31 40/50/31
f 39/51/32 40/50/32 41/49/32
f 39/52/33 41/49/33 38/48/33
f 46/53/34 47/54/34 48/55/34
f 43/56/35 44/57/35 47/54/35 46/53/35
f 42/58/36 43/59/36 46/60/36 45/61/36
f 44/57/37 42/58/37 45/61/37 47/54/37
f 47/54/38 45/61/38 48/55/38
f 45/61/39 46/60/39 48/55/39
f 49/62/40 52/63/40 51/64/40
f 50/65/41 51/64/41 52/63/41
f 50/66/42 52/63/42 49/62/42
f 57/67/43 58/68/43 59/69/43
f 54/70/44 55/71/44 58/68/44 57/67/44
f 53/72/45 54/73/45 57/74/45 56/75/45
f 55/71/46 53/72/46 56/75/46 58/68/46
f 58/68/47 56/75/47 59/69/47
f 56/75/48 57/74/48 59/69/48
f 64/76/49 65/77/49 66/78/49
f 61/79/50 62/80/50 65/77/50 64/76/50
f 60/81/51 61/82/51 64/83/51 63/84/51
f 62/80/52 60/81/52 63/84/52 65/77/52
f 65/77/53 63/84/53 66/78/53
f 63/84/54 64/83/54 66/78/54
f 71/85/55 72/86/55 73/87/55
f 68/88/56 69/89/56 72/86/56 71/85/56
f 67/90/57 68/91/57 71/92/57 70/93/57
f 69/89/58 67/90/58 70/93/58 72/86/58
f 72/86/59 70/93/59 73/87/59
f 70/93/60 71/92/60 73/87/60
f 78/94/61 79/95/61 80/96/61
f 75/97/62 76/98/62 79/95/62 78/94/62
f 74/99/63 75/100/63 78/101/63 77/102/63
f 76/98/64 74/99/64 77/102/64 79/95/64
f 79/95/65 77/102/65 80/96/65
f 77/102/66 78/101/66 80/96/66
f 81/103/67 84/104/67 83/105/67
f 82/106/68 83/105/68 84/104/68
f 82/107/69 84/104/69 81/103/69
f 89/108/70 90/109/70 91/110/70
f 86/111/71 87/112/71 90/109/71 89/108/71
f 85/113/72 86/114/72 89/115/72 88/116/72
f 87/112/73 85/113/73 88/116/73 90/109/73
f 90/109/74 88/116/74 91/110/74
f 88/116/75 89/115/75 91/110/75
