# Blender v2.78 (sub 0) OBJ File: 'Low_Poly_Vegetation_Pack.blend'
# www.blender.org
g Grass3D_a_02
v -0.057420 -0.043942 0.008413
v -0.070745 -0.043942 0.073371
v -0.023332 -0.043942 0.044076
v -0.090356 0.364062 0.103251
v -0.011941 -0.035028 -0.080925
v -0.060627 -0.035028 -0.101510
v -0.045152 -0.035028 -0.059865
v -0.087933 0.284677 -0.133921
v 0.040336 -0.050844 0.027589
v 0.108961 -0.050844 -0.006724
v 0.048414 -0.050844 -0.028920
v 0.170476 0.413215 -0.006293
vt 0.8203 0.5170
vt 0.8097 0.6053
vt 0.8088 0.5171
vt 0.7957 0.5178
vt 0.8354 0.5205
vt 0.8203 0.5170
vt 0.8097 0.6053
vt 0.8088 0.5171
vt 0.7957 0.5178
vt 0.8354 0.5205
vt 0.8203 0.5170
vt 0.8097 0.6053
vt 0.8088 0.5171
vt 0.7957 0.5178
vt 0.8354 0.5205
vn 0.7062 0.2139 -0.6750
vn 0.5253 -0.0370 0.8501
vn -0.9791 -0.0324 -0.2009
vn 0.5174 0.2582 0.8159
vn -0.9364 -0.0447 0.3480
vn 0.3887 -0.0600 -0.9194
vn -0.9564 0.2582 -0.1367
vn 0.3438 -0.0447 -0.9380
vn 0.4464 -0.0600 0.8928
s off
f 1/1/1 4/2/1 3/3/1
f 2/4/2 3/3/2 4/2/2
f 2/5/3 4/2/3 1/1/3
f 5/6/4 8/7/4 7/8/4
f 6/9/5 7/8/5 8/7/5
f 6/10/6 8/7/6 5/6/6
f 9/11/7 12/12/7 11/13/7
f 10/14/8 11/13/8 12/12/8
f 10/15/9 12/12/9 9/11/9
