# Blender v2.78 (sub 0) OBJ File: 'Low_Poly_Vegetation_Pack.blend'
# www.blender.org
g Grass3D_b_05
v 0.270250 -0.054539 0.002269
v 0.194034 -0.052926 0.055325
v 0.267493 -0.054101 0.058183
v 0.274418 0.434089 0.051066
v -0.251859 -0.065190 0.071610
v -0.265703 -0.065190 0.128076
v -0.223184 -0.065190 0.103993
v -0.295321 0.168739 0.126952
v -0.299240 0.141675 0.163765
v -0.266551 0.173061 0.154110
v -0.480380 0.345335 0.334726
v 0.180775 -0.072797 0.256311
v 0.132917 -0.045258 0.277824
v 0.174830 -0.061772 0.297966
v 0.203578 0.159153 0.224369
v 0.162316 0.172464 0.235636
v 0.199630 0.181323 0.258412
v 0.357508 0.384729 0.175090
v -0.046922 -0.096388 0.044582
v -0.105300 -0.058304 0.001486
v -0.101157 -0.081141 0.065659
v 0.011654 0.241104 0.042583
v -0.041472 0.222890 0.016465
v -0.034333 0.258189 0.068407
v -0.033961 0.608215 -0.069608
v 0.285739 -0.065190 -0.109004
v 0.259711 -0.065190 -0.160991
v 0.242917 -0.065190 -0.115103
v 0.283005 0.168739 -0.179319
v 0.262145 0.141675 -0.209904
v 0.243494 0.173061 -0.181375
v 0.289415 0.345335 -0.457484
v -0.178267 -0.054539 -0.203580
v -0.254483 -0.052926 -0.150524
v -0.181024 -0.054101 -0.147666
v -0.231098 0.468481 -0.225814
v 0.022870 -0.072797 -0.347955
v 0.065936 -0.045258 -0.317979
v 0.061649 -0.061772 -0.364282
v -0.016251 0.159153 -0.351079
v 0.014634 0.172464 -0.321490
v 0.014973 0.181323 -0.365204
v -0.137690 0.384729 -0.457737
vt 0.1973 0.5151
vt 0.1866 0.6034
vt 0.1857 0.5151
vt 0.1727 0.5159
vt 0.2124 0.5186
vt 0.4192 0.5561
vt 0.4263 0.5553
vt 0.4272 0.6040
vt 0.4192 0.5188
vt 0.4273 0.5173
vt 0.4347 0.5171
vt 0.4443 0.5201
vt 0.4396 0.5571
vt 0.4326 0.5556
vt 0.3235 0.5561
vt 0.3306 0.5553
vt 0.3314 0.6040
vt 0.3235 0.5188
vt 0.3316 0.5173
vt 0.3390 0.5171
vt 0.3486 0.5201
vt 0.3439 0.5571
vt 0.3369 0.5556
vt 0.3235 0.5561
vt 0.3306 0.5553
vt 0.3314 0.6040
vt 0.3235 0.5188
vt 0.3316 0.5173
vt 0.3390 0.5171
vt 0.3486 0.5201
vt 0.3439 0.5571
vt 0.3369 0.5556
vt 0.4192 0.5561
vt 0.4263 0.5553
vt 0.4272 0.6040
vt 0.4192 0.5188
vt 0.4273 0.5173
vt 0.4347 0.5171
vt 0.4443 0.5201
vt 0.4396 0.5571
vt 0.4326 0.5556
vt 0.1973 0.5151
vt 0.1866 0.6034
vt 0.1857 0.5151
vt 0.1727 0.5159
vt 0.2124 0.5186
vt 0.0520 0.5561
vt 0.0591 0.5553
vt 0.0600 0.6040
vt 0.0520 0.5188
vt 0.0601 0.5173
vt 0.0676 0.5171
vt 0.0771 0.5201
vt 0.0724 0.5571
vt 0.0654 0.5556
vn 0.9987 -0.0134 0.0493
vn -0.0386 0.0151 0.9991
vn -0.5679 0.0866 -0.8185
vn 0.4934 -0.2584 0.8306
vn 0.4405 -0.0960 0.8926
vn -0.9676 -0.1236 -0.2201
vn 0.6815 0.2766 -0.6776
vn 0.2982 0.8418 -0.4499
vn -0.8260 -0.4086 -0.3883
vn -0.5072 0.6332 0.5847
vn -0.4504 0.2070 0.8685
vn -0.3858 -0.1063 -0.9164
vn 0.9841 -0.0743 0.1612
vn 0.7977 -0.4588 0.3913
vn -0.2709 -0.0253 -0.9623
vn -0.9933 0.0433 0.1071
vn -0.9764 0.2035 0.0730
vn 0.5147 -0.0839 -0.8533
vn 0.4025 -0.0756 0.9123
vn 0.5500 0.3058 0.7771
vn 0.4866 -0.1995 -0.8506
vn -0.9139 -0.2584 -0.3132
vn -0.9138 -0.0960 -0.3948
vn 0.8798 -0.1236 -0.4591
vn -0.0803 0.2766 0.9576
vn 0.0642 0.8418 0.5359
vn 0.8808 -0.4086 -0.2391
vn 0.9936 0.1024 0.0482
vn -0.0362 0.1444 0.9889
vn -0.5702 -0.0923 -0.8163
vn 0.7623 0.6332 0.1342
vn 0.9765 0.2070 -0.0604
vn -0.5875 -0.1063 0.8022
vn -0.3679 -0.0743 -0.9269
vn -0.0747 -0.4588 -0.8854
vn -0.6858 -0.0253 0.7273
s off
f 1/1/1 4/2/1 3/3/1
f 2/4/2 3/3/2 4/2/2
f 2/5/3 4/2/3 1/1/3
f 9/6/4 10/7/4 11/8/4
f 6/9/5 7/10/5 10/7/5 9/6/5
f 5/11/6 6/12/6 9/13/6 8/14/6
f 7/10/7 5/11/7 8/14/7 10/7/7
f 10/7/8 8/14/8 11/8/8
f 8/14/9 9/13/9 11/8/9
f 16/15/10 17/16/10 18/17/10
f 13/18/11 14/19/11 17/16/11 16/15/11
f 12/20/12 13/21/12 16/22/12 15/23/12
f 14/19/13 12/20/13 15/23/13 17/16/13
f 17/16/14 15/23/14 18/17/14
f 15/23/15 16/22/15 18/17/15
f 23/24/16 24/25/16 25/26/16
f 20/27/17 21/28/17 24/25/17 23/24/17
f 19/29/18 20/30/18 23/31/18 22/32/18
f 21/28/19 19/29/19 22/32/19 24/25/19
f 24/25/20 22/32/20 25/26/20
f 22/32/21 23/31/21 25/26/21
f 30/33/22 31/34/22 32/35/22
f 27/36/23 28/37/23 31/34/23 30/33/23
f 26/38/24 27/39/24 30/40/24 29/41/24
f 28/37/25 26/38/25 29/41/25 31/34/25
f 31/34/26 29/41/26 32/35/26
f 29/41/27 30/40/27 32/35/27
f 33/42/28 36/43/28 35/44/28
f 34/45/29 35/44/29 36/43/29
f 34/46/30 36/43/30 33/42/30
f 41/47/31 42/48/31 43/49/31
f 38/50/32 39/51/32 42/48/32 41/47/32
f 37/52/33 38/53/33 41/54/33 40/55/33
f 39/51/34 37/52/34 40/55/34 42/48/34
f 42/48/35 40/55/35 43/49/35
f 40/55/36 41/54/36 43/49/36
