# Blender v2.78 (sub 0) OBJ File: 'Low_Poly_Vegetation_Pack.blend'
# www.blender.org
g Grass3D_b_02
v -0.024583 -0.055928 -0.088981
v 0.044043 -0.055928 -0.123294
v -0.016504 -0.055928 -0.145489
v -0.045658 0.360613 -0.201622
v -0.029793 -0.065190 0.121602
v -0.078487 -0.065190 0.089837
v -0.069846 -0.065190 0.137932
v -0.067616 0.168739 0.062263
v -0.101053 0.141675 0.046372
v -0.102770 0.173061 0.080414
v -0.202367 0.345335 -0.181169
v 0.091914 -0.055928 0.004643
v 0.108591 -0.055928 0.079534
v 0.144786 -0.055928 0.026162
v 0.273822 0.397482 -0.022219
vt 0.1973 0.5151
vt 0.1866 0.6034
vt 0.1857 0.5151
vt 0.1727 0.5159
vt 0.2124 0.5186
vt 0.0520 0.5561
vt 0.0591 0.5553
vt 0.0600 0.6040
vt 0.0520 0.5188
vt 0.0601 0.5173
vt 0.0676 0.5171
vt 0.0771 0.5201
vt 0.0724 0.5571
vt 0.0654 0.5556
vt 0.3203 0.5151
vt 0.3097 0.6034
vt 0.3088 0.5151
vt 0.2957 0.5159
vt 0.3354 0.5186
vn -0.9861 -0.0880 -0.1410
vn 0.3424 -0.1019 -0.9340
vn 0.4323 0.2557 0.8647
vn -0.9471 -0.2584 0.1904
vn -0.9881 -0.0960 0.1200
vn 0.5282 -0.1236 -0.8401
vn 0.4136 0.2766 0.8674
vn 0.3257 0.8418 0.4304
vn 0.6400 -0.4086 -0.6507
vn 0.3692 -0.2019 -0.9072
vn 0.8152 -0.1730 0.5528
vn -0.9049 0.3750 0.2015
s off
f 1/1/1 4/2/1 3/3/1
f 2/4/2 3/3/2 4/2/2
f 2/5/3 4/2/3 1/1/3
f 9/6/4 10/7/4 11/8/4
f 6/9/5 7/10/5 10/7/5 9/6/5
f 5/11/6 6/12/6 9/13/6 8/14/6
f 7/10/7 5/11/7 8/14/7 10/7/7
f 10/7/8 8/14/8 11/8/8
f 8/14/9 9/13/9 11/8/9
f 12/15/10 15/16/10 14/17/10
f 13/18/11 14/17/11 15/16/11
f 13/19/12 15/16/12 12/15/12
