# Blender v2.78 (sub 0) OBJ File: 'Low_Poly_Vegetation_Pack.blend'
# www.blender.org
g Grass3D_a_03
v 0.031961 -0.046281 -0.002860
v 0.011664 -0.047652 0.067621
v 0.062315 -0.051590 0.037209
v 0.080764 0.309475 0.064641
v 0.007833 -0.070834 -0.080906
v -0.006877 -0.065766 -0.021127
v 0.038295 -0.067414 -0.046666
v -0.007597 0.205082 -0.077527
v -0.019346 0.198546 -0.031838
v 0.024396 0.205356 -0.049402
v 0.024141 0.484090 -0.079000
v -0.040936 -0.056861 -0.034294
v -0.058555 -0.056861 0.029653
v -0.009285 -0.056861 0.003567
v -0.083301 0.209361 0.017410
v -0.095192 0.202218 0.066190
v -0.049682 0.214429 0.047437
v -0.209077 0.522762 0.146063
vt 0.8203 0.5170
vt 0.8097 0.6053
vt 0.8088 0.5171
vt 0.7957 0.5178
vt 0.8354 0.5205
vt 0.6861 0.5562
vt 0.6936 0.5577
vt 0.6895 0.6045
vt 0.6860 0.5131
vt 0.6951 0.5127
vt 0.6752 0.5127
vt 0.6786 0.5584
vt 0.7027 0.5127
vt 0.7007 0.5585
vt 0.5500 0.5561
vt 0.5571 0.5553
vt 0.5580 0.6040
vt 0.5500 0.5188
vt 0.5582 0.5173
vt 0.5656 0.5171
vt 0.5752 0.5201
vt 0.5704 0.5571
vt 0.5635 0.5556
vn 0.7974 0.0051 -0.6034
vn 0.5074 -0.0910 0.8569
vn -0.9460 0.1808 -0.2689
vn 0.3575 0.0989 0.9287
vn 0.4337 0.0438 0.9000
vn -0.9684 -0.0533 -0.2437
vn 0.7049 0.0385 -0.7082
vn 0.6586 -0.0789 -0.7484
vn -0.9664 0.1087 -0.2330
vn 0.3992 -0.0857 0.9129
vn 0.4342 -0.0731 0.8979
vn -0.9608 -0.1012 -0.2579
vn 0.6933 0.2283 -0.6836
vn 0.5358 0.4956 -0.6836
vn -0.9276 -0.2636 -0.2647
s off
f 1/1/1 4/2/1 3/3/1
f 2/4/2 3/3/2 4/2/2
f 2/5/3 4/2/3 1/1/3
f 9/6/4 10/7/4 11/8/4
f 6/9/5 7/10/5 10/7/5 9/6/5
f 5/11/6 6/9/6 9/6/6 8/12/6
f 7/10/7 5/13/7 8/14/7 10/7/7
f 10/7/8 8/14/8 11/8/8
f 8/12/9 9/6/9 11/8/9
f 16/15/10 17/16/10 18/17/10
f 13/18/11 14/19/11 17/16/11 16/15/11
f 12/20/12 13/21/12 16/22/12 15/23/12
f 14/19/13 12/20/13 15/23/13 17/16/13
f 17/16/14 15/23/14 18/17/14
f 15/23/15 16/22/15 18/17/15
