# Blender v2.78 (sub 0) OBJ File: 'Low_Poly_Vegetation_Pack.blend'
# www.blender.org
g Grass3D_b_03
v 0.030281 -0.055928 -0.103586
v 0.096383 -0.055928 -0.064632
v 0.082105 -0.055928 -0.127519
v 0.113376 0.360613 -0.182500
v -0.015420 -0.065190 0.094651
v -0.073549 -0.065190 0.095671
v -0.039416 -0.065190 0.130638
v -0.080019 0.168739 0.066746
v -0.116614 0.141675 0.072349
v -0.098938 0.173061 0.101493
v -0.328131 0.345335 -0.059180
v 0.105156 -0.072797 0.055476
v 0.072918 -0.045258 0.014076
v 0.063278 -0.061772 0.059567
v 0.145877 0.169180 0.066781
v 0.115440 0.162048 0.035040
v 0.108723 0.181712 0.075180
v 0.225929 0.384729 0.207940
v -0.059842 -0.048954 -0.092772
v -0.070880 -0.048954 -0.163504
v -0.107781 -0.048954 -0.115979
v -0.165944 0.339692 -0.105984
vt 0.4355 0.5151
vt 0.4249 0.6034
vt 0.4240 0.5151
vt 0.4110 0.5159
vt 0.4507 0.5186
vt 0.3137 0.5561
vt 0.3208 0.5553
vt 0.3217 0.6040
vt 0.3137 0.5188
vt 0.3219 0.5173
vt 0.3293 0.5171
vt 0.3388 0.5201
vt 0.3341 0.5571
vt 0.3271 0.5556
vt 0.0520 0.5561
vt 0.0591 0.5553
vt 0.0600 0.6040
vt 0.0520 0.5188
vt 0.0601 0.5173
vt 0.0676 0.5171
vt 0.0771 0.5201
vt 0.0724 0.5571
vt 0.0654 0.5556
vt 0.1973 0.5151
vt 0.1866 0.6034
vt 0.1857 0.5151
vt 0.1727 0.5159
vt 0.2124 0.5186
vn -0.4176 -0.0880 -0.9043
vn 0.9701 -0.1019 -0.2203
vn -0.4908 0.2557 0.8329
vn -0.6772 -0.2584 0.6890
vn -0.7507 -0.0960 0.6536
vn -0.0340 -0.1236 -0.9918
vn 0.8290 0.2766 0.4860
vn 0.5111 0.8418 0.1736
vn 0.1648 -0.4086 -0.8977
vn -0.6376 0.6443 -0.4223
vn -0.9604 0.2029 -0.1909
vn 0.7437 -0.0902 -0.6624
vn 0.1328 -0.0784 0.9880
vn 0.0039 -0.5489 0.8359
vn 0.6829 0.2055 -0.7010
vn -0.4340 -0.0880 0.8966
vn -0.7858 -0.1019 -0.6101
vn 0.9552 0.2557 -0.1491
s off
f 1/1/1 4/2/1 3/3/1
f 2/4/2 3/3/2 4/2/2
f 2/5/3 4/2/3 1/1/3
f 9/6/4 10/7/4 11/8/4
f 6/9/5 7/10/5 10/7/5 9/6/5
f 5/11/6 6/12/6 9/13/6 8/14/6
f 7/10/7 5/11/7 8/14/7 10/7/7
f 10/7/8 8/14/8 11/8/8
f 8/14/9 9/13/9 11/8/9
f 16/15/10 17/16/10 18/17/10
f 13/18/11 14/19/11 17/16/11 16/15/11
f 12/20/12 13/21/12 16/22/12 15/23/12
f 14/19/13 12/20/13 15/23/13 17/16/13
f 17/16/14 15/23/14 18/17/14
f 15/23/15 16/22/15 18/17/15
f 19/24/16 22/25/16 21/26/16
f 20/27/17 21/26/17 22/25/17
f 20/28/18 22/25/18 19/24/18
