# Blender v2.78 (sub 0) OBJ File: 'Low_Poly_Vegetation_Pack.blend'
# www.blender.org
g Grass3D_b_04
v -0.019779 -0.054539 0.076538
v 0.062722 -0.052926 0.033906
v -0.009733 -0.054101 0.021465
v 0.029690 0.468481 0.105491
v -0.009553 -0.065190 -0.194925
v -0.058247 -0.065190 -0.226689
v -0.049606 -0.065190 -0.178594
v -0.047376 0.168739 -0.254264
v -0.080813 0.141675 -0.270154
v -0.082530 0.173061 -0.236113
v -0.182127 0.345335 -0.497695
v -0.191727 -0.072797 0.083720
v -0.141466 -0.045258 0.068651
v -0.180386 -0.061772 0.043201
v -0.218512 0.159153 0.112405
v -0.176131 0.172464 0.106632
v -0.210145 0.181323 0.079171
v -0.377565 0.384729 0.141129
v 0.144255 -0.096388 -0.115934
v 0.115655 -0.058304 -0.049246
v 0.177179 -0.081141 -0.067957
v 0.128911 0.241104 -0.172499
v 0.115637 0.222890 -0.114808
v 0.164569 0.258189 -0.133638
v 0.030128 0.608215 -0.102431
v 0.058993 -0.065190 0.176141
v 0.116973 -0.065190 0.180429
v 0.086173 -0.065190 0.142493
v 0.120776 0.168739 0.209824
v 0.157729 0.141675 0.207584
v 0.142787 0.173061 0.176949
v 0.356360 0.345335 0.357868
vt 0.3242 0.5151
vt 0.3136 0.6034
vt 0.3127 0.5151
vt 0.2996 0.5159
vt 0.3394 0.5186
vt 0.4329 0.5561
vt 0.4400 0.5553
vt 0.4408 0.6040
vt 0.4329 0.5188
vt 0.4410 0.5173
vt 0.4484 0.5171
vt 0.4580 0.5201
vt 0.4532 0.5571
vt 0.4463 0.5556
vt 0.0520 0.5561
vt 0.0591 0.5553
vt 0.0600 0.6040
vt 0.0520 0.5188
vt 0.0601 0.5173
vt 0.0676 0.5171
vt 0.0771 0.5201
vt 0.0724 0.5571
vt 0.0654 0.5556
vt 0.0520 0.5561
vt 0.0591 0.5553
vt 0.0600 0.6040
vt 0.0520 0.5188
vt 0.0601 0.5173
vt 0.0676 0.5171
vt 0.0771 0.5201
vt 0.0724 0.5571
vt 0.0654 0.5556
vt 0.4329 0.5561
vt 0.4400 0.5553
vt 0.4408 0.6040
vt 0.4329 0.5188
vt 0.4410 0.5173
vt 0.4484 0.5171
vt 0.4580 0.5201
vt 0.4532 0.5571
vt 0.4463 0.5556
vn -0.9787 0.1024 -0.1777
vn 0.1652 0.1444 -0.9756
vn 0.4585 -0.0923 0.8839
vn -0.9471 -0.2584 0.1904
vn -0.9881 -0.0960 0.1200
vn 0.5282 -0.1236 -0.8401
vn 0.4136 0.2766 0.8674
vn 0.3257 0.8418 0.4304
vn 0.6400 -0.4086 -0.6507
vn 0.5793 0.6332 -0.5133
vn 0.5602 0.2070 -0.8021
vn 0.2626 -0.1063 0.9590
vn -0.9546 -0.0743 -0.2885
vn -0.7397 -0.4588 -0.4923
vn 0.1427 -0.0253 0.9894
vn 0.3315 0.0433 0.9425
vn 0.2944 0.2035 0.9338
vn -0.9484 -0.0839 -0.3059
vn 0.7960 -0.0756 -0.6005
vn 0.6307 0.3058 -0.7132
vn -0.9393 -0.1995 -0.2791
vn 0.7372 -0.2584 -0.6243
vn 0.8072 -0.0960 -0.5824
vn -0.0566 -0.1236 0.9907
vn -0.7812 0.2766 -0.5597
vn -0.4931 0.8418 -0.2195
vn -0.2460 -0.4086 0.8789
s off
f 1/1/1 4/2/1 3/3/1
f 2/4/2 3/3/2 4/2/2
f 2/5/3 4/2/3 1/1/3
f 9/6/4 10/7/4 11/8/4
f 6/9/5 7/10/5 10/7/5 9/6/5
f 5/11/6 6/12/6 9/13/6 8/14/6
f 7/10/7 5/11/7 8/14/7 10/7/7
f 10/7/8 8/14/8 11/8/8
f 8/14/9 9/13/9 11/8/9
f 16/15/10 17/16/10 18/17/10
f 13/18/11 14/19/11 17/16/11 16/15/11
f 12/20/12 13/21/12 16/22/12 15/23/12
f 14/19/13 12/20/13 15/23/13 17/16/13
f 17/16/14 15/23/14 18/17/14
f 15/23/15 16/22/15 18/17/15
f 23/24/16 24/25/16 25/26/16
f 20/27/17 21/28/17 24/25/17 23/24/17
f 19/29/18 20/30/18 23/31/18 22/32/18
f 21/28/19 19/29/19 22/32/19 24/25/19
f 24/25/20 22/32/20 25/26/20
f 22/32/21 23/31/21 25/26/21
f 30/33/22 31/34/22 32/35/22
f 27/36/23 28/37/23 31/34/23 30/33/23
f 26/38/24 27/39/24 30/40/24 29/41/24
f 28/37/25 26/38/25 29/41/25 31/34/25
f 31/34/26 29/41/26 32/35/26
f 29/41/27 30/40/27 32/35/27
