# Blender v2.78 (sub 0) OBJ File: 'Low_Poly_Vegetation_Pack.blend'
# www.blender.org
g Dead_Bush_b_03
v 0.197425 0.212473 0.207587
v 0.178574 0.222914 0.191408
v 0.094295 -0.009637 0.123576
v 0.058012 -0.009637 0.092435
v 0.177044 0.482103 0.264585
v 0.236663 0.212473 0.053141
v 0.214910 0.222914 0.065138
v 0.121875 -0.009637 0.120352
v 0.080006 -0.009637 0.143444
v 0.256281 0.377449 0.016359
v 0.118610 0.212473 -0.107021
v 0.116547 0.222914 -0.082265
v 0.110970 -0.009637 0.025777
v 0.106999 -0.009637 0.073426
v 0.087440 0.477194 -0.183405
v -0.007767 0.212473 -0.096342
v 0.002597 0.222914 -0.073765
v 0.050816 -0.009637 0.023080
v 0.070765 -0.009637 0.066534
v -0.047565 0.392897 -0.123097
v -0.139037 0.212473 0.161509
v -0.118477 0.222914 0.147566
v -0.030901 -0.009637 0.084048
v 0.008672 -0.009637 0.057211
v -0.178899 0.477194 0.233738
v -0.153945 0.138766 -0.034729
v -0.123859 0.145742 -0.022528
v -0.056050 -0.009637 0.002509
v -0.041148 -0.009637 0.008552
v -0.242545 0.392811 -0.042467
v -0.098791 0.212473 0.053421
v -0.078771 0.222914 0.068130
v 0.010392 -0.009637 0.129400
v 0.048924 -0.009637 0.157711
v -0.180195 0.477194 0.040029
v -0.076428 0.212473 0.242156
v -0.061588 0.222914 0.222233
v 0.000267 -0.009637 0.133475
v 0.028830 -0.009637 0.095130
v -0.090355 0.477194 0.323470
v 0.069370 0.212473 0.183700
v 0.065042 0.222914 0.159238
v 0.042839 -0.009637 0.053355
v 0.034508 -0.009637 0.006272
v 0.119015 0.477194 0.249589
v 0.250843 0.173864 0.129631
v 0.226098 0.182490 0.114825
v 0.155122 -0.009637 0.075645
v 0.114091 -0.009637 0.051094
v 0.316036 0.366899 0.140459
v 0.197493 0.212481 0.207514
v 0.178642 0.222924 0.191335
v 0.094360 -0.009638 0.123500
v 0.058077 -0.009638 0.092359
v 0.177114 0.482123 0.264516
v 0.236613 0.212466 0.053055
v 0.214860 0.222908 0.065052
v 0.121826 -0.009638 0.120264
v 0.079958 -0.009638 0.143357
v 0.256229 0.377436 0.016275
v 0.118510 0.212466 -0.107027
v 0.116447 0.222908 -0.082271
v 0.110871 -0.009638 0.025769
v 0.106899 -0.009638 0.073418
v 0.087341 0.477181 -0.183408
v -0.007857 0.212466 -0.096298
v 0.002508 0.222908 -0.073721
v 0.050725 -0.009638 0.023122
v 0.070674 -0.009638 0.066576
v -0.047652 0.392884 -0.123050
v -0.138979 0.212466 0.161590
v -0.118419 0.222908 0.147647
v -0.030845 -0.009638 0.084131
v 0.008728 -0.009638 0.057294
v -0.178839 0.477181 0.233817
v -0.153981 0.138759 -0.034636
v -0.123896 0.145738 -0.022435
v -0.056087 -0.009638 0.002602
v -0.041186 -0.009638 0.008645
v -0.242580 0.392802 -0.042374
v -0.098847 0.212466 0.053503
v -0.078828 0.222908 0.068211
v 0.010333 -0.009638 0.129481
v 0.048865 -0.009638 0.157791
v -0.180249 0.477181 0.040112
v -0.076347 0.212466 0.242213
v -0.061507 0.222908 0.222291
v 0.000347 -0.009638 0.133535
v 0.028910 -0.009638 0.095189
v -0.090272 0.477181 0.323525
v 0.069468 0.212466 0.183680
v 0.065140 0.222908 0.159218
v 0.042937 -0.009638 0.053338
v 0.034606 -0.009638 0.006254
v 0.119112 0.477181 0.249566
v 0.250892 0.173857 0.129544
v 0.226148 0.182485 0.114739
v 0.155173 -0.009638 0.075559
v 0.114142 -0.009638 0.051008
v 0.316085 0.366887 0.140372
vt 0.0676 0.5591
vt 0.0624 0.5592
vt 0.0516 0.5061
vt 0.0602 0.5096
vt 0.0516 0.6101
vt 0.0792 0.5626
vt 0.0739 0.5626
vt 0.0632 0.5095
vt 0.0717 0.5131
vt 0.0674 0.5936
vt 0.0676 0.5591
vt 0.0624 0.5592
vt 0.0516 0.5061
vt 0.0602 0.5096
vt 0.0516 0.6101
vt 0.4390 0.5591
vt 0.4338 0.5592
vt 0.4230 0.5061
vt 0.4316 0.5096
vt 0.4266 0.5932
vt 0.2003 0.5591
vt 0.1951 0.5592
vt 0.1843 0.5061
vt 0.1928 0.5096
vt 0.1843 0.6101
vt 0.4366 0.5427
vt 0.4302 0.5415
vt 0.4259 0.5072
vt 0.4288 0.5084
vt 0.4266 0.5932
vt 0.0676 0.5591
vt 0.0624 0.5592
vt 0.0516 0.5061
vt 0.0602 0.5096
vt 0.0516 0.6101
vt 0.2003 0.5591
vt 0.1951 0.5592
vt 0.1843 0.5061
vt 0.1928 0.5096
vt 0.1843 0.6101
vt 0.2003 0.5591
vt 0.1951 0.5592
vt 0.1843 0.5061
vt 0.1928 0.5096
vt 0.1843 0.6101
vt 0.4377 0.5505
vt 0.4319 0.5499
vt 0.4230 0.5061
vt 0.4316 0.5096
vt 0.4284 0.5885
vt 0.0676 0.5591
vt 0.0602 0.5096
vt 0.0516 0.5061
vt 0.0624 0.5592
vt 0.0516 0.6101
vt 0.0792 0.5626
vt 0.0717 0.5131
vt 0.0632 0.5095
vt 0.0739 0.5626
vt 0.0674 0.5936
vt 0.0676 0.5591
vt 0.0602 0.5096
vt 0.0516 0.5061
vt 0.0624 0.5592
vt 0.0516 0.6101
vt 0.4390 0.5591
vt 0.4316 0.5096
vt 0.4230 0.5061
vt 0.4338 0.5592
vt 0.4266 0.5932
vt 0.2003 0.5591
vt 0.1928 0.5096
vt 0.1843 0.5061
vt 0.1951 0.5592
vt 0.1843 0.6101
vt 0.4366 0.5427
vt 0.4288 0.5084
vt 0.4259 0.5072
vt 0.4302 0.5415
vt 0.4266 0.5932
vt 0.0676 0.5591
vt 0.0602 0.5096
vt 0.0516 0.5061
vt 0.0624 0.5592
vt 0.0516 0.6101
vt 0.2003 0.5591
vt 0.1928 0.5096
vt 0.1843 0.5061
vt 0.1951 0.5592
vt 0.1843 0.6101
vt 0.2003 0.5591
vt 0.1928 0.5096
vt 0.1843 0.5061
vt 0.1951 0.5592
vt 0.1843 0.6101
vt 0.4377 0.5505
vt 0.4316 0.5096
vt 0.4230 0.5061
vt 0.4319 0.5499
vt 0.4284 0.5885
vn -0.6497 0.0138 0.7600
vn -0.6992 -0.1981 0.6869
vn 0.4846 0.0138 0.8746
vn 0.5246 0.1254 0.8421
vn 0.9966 0.0138 0.0811
vn 0.9917 0.1254 0.0298
vn 0.9079 0.0138 -0.4190
vn 0.8784 0.1254 -0.4612
vn -0.5629 0.0138 -0.8264
vn -0.5997 0.1254 -0.7904
vn 0.3739 0.0138 -0.9273
vn 0.3550 0.0955 -0.9300
vn 0.5904 0.0138 -0.8070
vn 0.5441 0.1254 -0.8296
vn -0.8031 0.0138 -0.5957
vn -0.8260 0.1254 -0.5496
vn -0.9843 0.0138 0.1762
vn -0.9664 0.1254 0.2245
vn -0.5121 0.0140 0.8588
vn -0.4807 0.1136 0.8695
vn 0.6497 -0.0138 -0.7601
vn 0.6993 0.1981 -0.6869
vn -0.4846 -0.0138 -0.8746
vn -0.5246 -0.1254 -0.8421
vn -0.9966 -0.0138 -0.0811
vn -0.9917 -0.1254 -0.0298
vn -0.9079 -0.0138 0.4190
vn -0.8784 -0.1254 0.4612
vn 0.5629 -0.0138 0.8264
vn 0.5997 -0.1254 0.7904
vn -0.3739 -0.0138 0.9273
vn -0.3550 -0.0955 0.9300
vn -0.5904 -0.0138 0.8070
vn -0.5441 -0.1254 0.8296
vn 0.8031 -0.0138 0.5957
vn 0.8260 -0.1254 0.5496
vn 0.9843 -0.0138 -0.1762
vn 0.9664 -0.1254 -0.2245
vn 0.5121 -0.0140 -0.8588
vn 0.4807 -0.1136 -0.8695
s off
f 1/1/1 2/2/1 4/3/1 3/4/1
f 2/2/2 1/1/2 5/5/2
f 6/6/3 7/7/3 9/8/3 8/9/3
f 7/7/4 6/6/4 10/10/4
f 11/11/5 12/12/5 14/13/5 13/14/5
f 12/12/6 11/11/6 15/15/6
f 16/16/7 17/17/7 19/18/7 18/19/7
f 17/17/8 16/16/8 20/20/8
f 21/21/9 22/22/9 24/23/9 23/24/9
f 22/22/10 21/21/10 25/25/10
f 26/26/11 27/27/11 29/28/11 28/29/11
f 27/27/12 26/26/12 30/30/12
f 31/31/13 32/32/13 34/33/13 33/34/13
f 32/32/14 31/31/14 35/35/14
f 36/36/15 37/37/15 39/38/15 38/39/15
f 37/37/16 36/36/16 40/40/16
f 41/41/17 42/42/17 44/43/17 43/44/17
f 42/42/18 41/41/18 45/45/18
f 46/46/19 47/47/19 49/48/19 48/49/19
f 47/47/20 46/46/20 50/50/20
f 51/51/21 53/52/21 54/53/21 52/54/21
f 52/54/22 55/55/22 51/51/22
f 56/56/23 58/57/23 59/58/23 57/59/23
f 57/59/24 60/60/24 56/56/24
f 61/61/25 63/62/25 64/63/25 62/64/25
f 62/64/26 65/65/26 61/61/26
f 66/66/27 68/67/27 69/68/27 67/69/27
f 67/69/28 70/70/28 66/66/28
f 71/71/29 73/72/29 74/73/29 72/74/29
f 72/74/30 75/75/30 71/71/30
f 76/76/31 78/77/31 79/78/31 77/79/31
f 77/79/32 80/80/32 76/76/32
f 81/81/33 83/82/33 84/83/33 82/84/33
f 82/84/34 85/85/34 81/81/34
f 86/86/35 88/87/35 89/88/35 87/89/35
f 87/89/36 90/90/36 86/86/36
f 91/91/37 93/92/37 94/93/37 92/94/37
f 92/94/38 95/95/38 91/91/38
f 96/96/39 98/97/39 99/98/39 97/99/39
f 97/99/40 100/100/40 96/96/40
