# Blender v2.78 (sub 0) OBJ File: 'Low_Poly_Vegetation_Pack.blend'
# www.blender.org
g Dead_Bush_b_05
v 0.300368 0.213232 0.206410
v 0.275690 0.222155 0.192585
v 0.130210 -0.009637 0.115589
v 0.103135 -0.009637 0.100422
v 0.271244 0.482103 0.264585
v 0.282608 0.212473 0.014184
v 0.249281 0.222914 0.026182
v 0.093577 -0.009637 0.086135
v 0.055764 -0.009637 0.099747
v 0.312664 0.377449 -0.022598
v 0.120295 0.212473 -0.077018
v 0.098376 0.222914 -0.065084
v -0.000948 -0.009637 -0.005076
v -0.029658 -0.009637 0.010556
v 0.154250 0.477194 -0.160457
v -0.011900 0.212473 -0.096342
v 0.003979 0.222914 -0.073765
v 0.082736 -0.009637 0.030022
v 0.103535 -0.009637 0.059593
v -0.072873 0.392897 -0.123097
v -0.213016 0.212473 0.161509
v -0.181516 0.222914 0.147566
v -0.037658 -0.009637 0.079761
v 0.003601 -0.009637 0.061498
v -0.274087 0.477194 0.233738
v -0.235855 0.138766 -0.034729
v -0.189762 0.145742 -0.022528
v -0.095767 -0.009637 -0.000110
v -0.053147 -0.009637 0.011171
v -0.371596 0.392811 -0.042467
v -0.076643 0.212473 0.269740
v -0.058800 0.222914 0.240779
v 0.021940 -0.009637 0.102447
v 0.045312 -0.009637 0.064514
v -0.103036 0.477194 0.392366
v 0.095545 0.212473 0.319999
v 0.094680 0.222914 0.294668
v 0.085499 -0.009637 0.176026
v 0.084367 -0.009637 0.142847
v 0.154532 0.477194 0.401528
v 0.377438 0.175427 0.126947
v 0.353271 0.180927 0.117509
v 0.222620 -0.009637 0.069771
v 0.189834 -0.009637 0.056967
v 0.484192 0.366899 0.140459
v 0.181582 0.207721 0.002579
v 0.158125 0.218163 -0.005943
v 0.143343 -0.014388 0.028025
v 0.112619 -0.014388 0.016862
v 0.150801 0.423387 -0.006437
v -0.065743 0.166363 -0.132799
v -0.059769 0.174638 -0.106494
v -0.036467 -0.009637 -0.022247
v -0.029114 -0.009637 0.010126
v -0.127746 0.397377 -0.205047
v 0.254029 0.212473 -0.105027
v 0.240036 0.222914 -0.083895
v 0.178674 -0.009637 0.018062
v 0.160345 -0.009637 0.045741
v 0.253292 0.477194 -0.205655
v 0.102609 0.183418 -0.222696
v 0.104238 0.193859 -0.197403
v 0.125609 -0.009637 -0.091846
v 0.127742 -0.009637 -0.058717
v 0.107240 0.398574 -0.303454
v 0.300420 0.213244 0.206325
v 0.275741 0.222165 0.192500
v 0.130259 -0.009639 0.115502
v 0.103184 -0.009639 0.100334
v 0.271298 0.482127 0.264504
v 0.282572 0.212464 0.014091
v 0.249245 0.222908 0.026088
v 0.093543 -0.009638 0.086041
v 0.055730 -0.009638 0.099653
v 0.312627 0.377435 -0.022690
v 0.120244 0.212462 -0.077104
v 0.098325 0.222904 -0.065170
v -0.000996 -0.009639 -0.005164
v -0.029706 -0.009639 0.010468
v 0.154196 0.477175 -0.160539
v -0.011979 0.212463 -0.096282
v 0.003900 0.222906 -0.073706
v 0.082655 -0.009639 0.030079
v 0.103454 -0.009639 0.059651
v -0.072949 0.392880 -0.123035
v -0.212973 0.212464 0.161599
v -0.181474 0.222908 0.147656
v -0.037617 -0.009638 0.079852
v 0.003642 -0.009638 0.061589
v -0.274043 0.477180 0.233827
v -0.235880 0.138759 -0.034633
v -0.189787 0.145738 -0.022431
v -0.095793 -0.009638 -0.000013
v -0.053173 -0.009638 0.011268
v -0.371621 0.392801 -0.042371
v -0.076557 0.212464 0.269790
v -0.058714 0.222908 0.240830
v 0.022026 -0.009638 0.102499
v 0.045397 -0.009638 0.064566
v -0.102949 0.477180 0.392414
v 0.095644 0.212462 0.319991
v 0.094780 0.222905 0.294661
v 0.085599 -0.009639 0.176022
v 0.084467 -0.009639 0.142844
v 0.154630 0.477175 0.401517
v 0.377473 0.175419 0.126854
v 0.353307 0.180921 0.117416
v 0.222656 -0.009638 0.069678
v 0.189871 -0.009638 0.056874
v 0.484225 0.366886 0.140366
v 0.181614 0.207711 0.002485
v 0.158158 0.218157 -0.006037
v 0.143375 -0.014404 0.027931
v 0.112650 -0.014404 0.016768
v 0.150836 0.423388 -0.006531
v -0.065839 0.166353 -0.132774
v -0.059865 0.174629 -0.106469
v -0.036564 -0.009639 -0.022225
v -0.029211 -0.009639 0.010148
v -0.127841 0.397360 -0.205020
v 0.253944 0.212462 -0.105078
v 0.239951 0.222905 -0.083946
v 0.178590 -0.009639 0.018007
v 0.160262 -0.009639 0.045686
v 0.253206 0.477175 -0.205702
v 0.102510 0.183417 -0.222690
v 0.104138 0.193858 -0.197397
v 0.125510 -0.009643 -0.091838
v 0.127642 -0.009643 -0.058709
v 0.107140 0.398578 -0.303449
vt 0.0730 0.5629
vt 0.0682 0.5629
vt 0.0582 0.5137
vt 0.0661 0.5170
vt 0.0582 0.6102
vt 0.1866 0.5629
vt 0.1817 0.5629
vt 0.1717 0.5137
vt 0.1797 0.5170
vt 0.1757 0.5917
vt 0.0730 0.5629
vt 0.0682 0.5629
vt 0.0582 0.5137
vt 0.0661 0.5170
vt 0.0582 0.6102
vt 0.1866 0.5629
vt 0.1817 0.5629
vt 0.1717 0.5137
vt 0.1797 0.5170
vt 0.1750 0.5945
vt 0.1866 0.5629
vt 0.1817 0.5629
vt 0.1717 0.5137
vt 0.1797 0.5170
vt 0.1717 0.6102
vt 0.4296 0.5476
vt 0.4238 0.5466
vt 0.4197 0.5148
vt 0.4224 0.5159
vt 0.4204 0.5945
vt 0.0730 0.5629
vt 0.0682 0.5629
vt 0.0582 0.5137
vt 0.0661 0.5170
vt 0.0582 0.6102
vt 0.0730 0.5629
vt 0.0682 0.5629
vt 0.0582 0.5137
vt 0.0661 0.5170
vt 0.0582 0.6102
vt 0.3236 0.5549
vt 0.3182 0.5544
vt 0.3100 0.5137
vt 0.3179 0.5170
vt 0.3149 0.5901
vt 0.3248 0.5629
vt 0.3200 0.5629
vt 0.3100 0.5137
vt 0.3179 0.5170
vt 0.3100 0.6102
vt 0.3234 0.5534
vt 0.3179 0.5527
vt 0.3100 0.5137
vt 0.3179 0.5170
vt 0.3100 0.6102
vt 0.4319 0.5629
vt 0.4271 0.5629
vt 0.4171 0.5137
vt 0.4250 0.5170
vt 0.4171 0.6102
vt 0.0730 0.5629
vt 0.0682 0.5629
vt 0.0582 0.5137
vt 0.0661 0.5170
vt 0.0582 0.6102
vt 0.0730 0.5629
vt 0.0661 0.5170
vt 0.0582 0.5137
vt 0.0682 0.5629
vt 0.0582 0.6102
vt 0.1866 0.5629
vt 0.1797 0.5170
vt 0.1717 0.5137
vt 0.1817 0.5629
vt 0.1757 0.5917
vt 0.0730 0.5629
vt 0.0661 0.5170
vt 0.0582 0.5137
vt 0.0682 0.5629
vt 0.0582 0.6102
vt 0.1866 0.5629
vt 0.1797 0.5170
vt 0.1717 0.5137
vt 0.1817 0.5629
vt 0.1750 0.5945
vt 0.1866 0.5629
vt 0.1797 0.5170
vt 0.1717 0.5137
vt 0.1817 0.5629
vt 0.1717 0.6102
vt 0.4296 0.5476
vt 0.4224 0.5159
vt 0.4197 0.5148
vt 0.4238 0.5466
vt 0.4204 0.5945
vt 0.0730 0.5629
vt 0.0661 0.5170
vt 0.0582 0.5137
vt 0.0682 0.5629
vt 0.0582 0.6102
vt 0.0730 0.5629
vt 0.0661 0.5170
vt 0.0582 0.5137
vt 0.0682 0.5629
vt 0.0582 0.6102
vt 0.3236 0.5549
vt 0.3179 0.5170
vt 0.3100 0.5137
vt 0.3182 0.5544
vt 0.3149 0.5901
vt 0.3248 0.5629
vt 0.3179 0.5170
vt 0.3100 0.5137
vt 0.3200 0.5629
vt 0.3100 0.6102
vt 0.3234 0.5534
vt 0.3179 0.5170
vt 0.3100 0.5137
vt 0.3179 0.5527
vt 0.3100 0.6102
vt 0.4319 0.5629
vt 0.4250 0.5170
vt 0.4171 0.5137
vt 0.4271 0.5629
vt 0.4171 0.6102
vt 0.0730 0.5629
vt 0.0661 0.5170
vt 0.0582 0.5137
vt 0.0682 0.5629
vt 0.0582 0.6102
vn -0.4867 0.0153 0.8735
vn -0.5381 -0.2335 0.8099
vn 0.3405 0.0144 0.9401
vn 0.3732 0.1366 0.9177
vn 0.4813 0.0205 0.8763
vn 0.5377 0.1899 0.8214
vn 0.8161 0.0185 -0.5777
vn 0.7681 0.1679 -0.6179
vn -0.4065 0.0149 -0.9135
vn -0.4394 0.1407 -0.8872
vn 0.2548 0.0146 -0.9669
vn 0.2406 0.0991 -0.9656
vn -0.8523 0.0151 -0.5228
vn -0.8647 0.1376 -0.4831
vn -0.9991 0.0202 0.0377
vn -0.9768 0.1840 0.1092
vn -0.3625 0.0151 0.9319
vn -0.3369 0.1219 0.9336
vn -0.3104 0.1567 0.9376
vn -0.3454 -0.0101 0.9384
vn 0.9743 0.0207 -0.2242
vn 0.9480 0.1703 -0.2689
vn 0.8356 0.0202 0.5490
vn 0.8589 0.1840 0.4778
vn 0.9950 0.0652 -0.0757
vn 0.9981 -0.0395 -0.0479
vn 0.4867 -0.0153 -0.8735
vn 0.5381 0.2335 -0.8099
vn -0.3405 -0.0144 -0.9401
vn -0.3732 -0.1366 -0.9177
vn -0.4813 -0.0205 -0.8763
vn -0.5377 -0.1899 -0.8214
vn -0.8161 -0.0185 0.5777
vn -0.7681 -0.1679 0.6179
vn 0.4065 -0.0149 0.9135
vn 0.4394 -0.1407 0.8872
vn -0.2548 -0.0146 0.9669
vn -0.2406 -0.0991 0.9656
vn 0.8523 -0.0151 0.5228
vn 0.8647 -0.1376 0.4831
vn 0.9991 -0.0202 -0.0377
vn 0.9768 -0.1840 -0.1092
vn 0.3625 -0.0151 -0.9319
vn 0.3369 -0.1219 -0.9336
vn 0.3104 -0.1567 -0.9376
vn 0.3454 0.0101 -0.9384
vn -0.9743 -0.0207 0.2242
vn -0.9480 -0.1703 0.2689
vn -0.8356 -0.0202 -0.5490
vn -0.8589 -0.1840 -0.4778
vn -0.9950 -0.0652 0.0757
vn -0.9981 0.0395 0.0480
s off
f 1/1/1 2/2/1 4/3/1 3/4/1
f 2/2/2 1/1/2 5/5/2
f 6/6/3 7/7/3 9/8/3 8/9/3
f 7/7/4 6/6/4 10/10/4
f 11/11/5 12/12/5 14/13/5 13/14/5
f 12/12/6 11/11/6 15/15/6
f 16/16/7 17/17/7 19/18/7 18/19/7
f 17/17/8 16/16/8 20/20/8
f 21/21/9 22/22/9 24/23/9 23/24/9
f 22/22/10 21/21/10 25/25/10
f 26/26/11 27/27/11 29/28/11 28/29/11
f 27/27/12 26/26/12 30/30/12
f 31/31/13 32/32/13 34/33/13 33/34/13
f 32/32/14 31/31/14 35/35/14
f 36/36/15 37/37/15 39/38/15 38/39/15
f 37/37/16 36/36/16 40/40/16
f 41/41/17 42/42/17 44/43/17 43/44/17
f 42/42/18 41/41/18 45/45/18
f 46/46/19 47/47/19 49/48/19 48/49/19
f 47/47/20 46/46/20 50/50/20
f 51/51/21 52/52/21 54/53/21 53/54/21
f 52/52/22 51/51/22 55/55/22
f 56/56/23 57/57/23 59/58/23 58/59/23
f 57/57/24 56/56/24 60/60/24
f 61/61/25 62/62/25 64/63/25 63/64/25
f 62/62/26 61/61/26 65/65/26
f 66/66/27 68/67/27 69/68/27 67/69/27
f 67/69/28 70/70/28 66/66/28
f 71/71/29 73/72/29 74/73/29 72/74/29
f 72/74/30 75/75/30 71/71/30
f 76/76/31 78/77/31 79/78/31 77/79/31
f 77/79/32 80/80/32 76/76/32
f 81/81/33 83/82/33 84/83/33 82/84/33
f 82/84/34 85/85/34 81/81/34
f 86/86/35 88/87/35 89/88/35 87/89/35
f 87/89/36 90/90/36 86/86/36
f 91/91/37 93/92/37 94/93/37 92/94/37
f 92/94/38 95/95/38 91/91/38
f 96/96/39 98/97/39 99/98/39 97/99/39
f 97/99/40 100/100/40 96/96/40
f 101/101/41 103/102/41 104/103/41 102/104/41
f 102/104/42 105/105/42 101/101/42
f 106/106/43 108/107/43 109/108/43 107/109/43
f 107/109/44 110/110/44 106/106/44
f 111/111/45 113/112/45 114/113/45 112/114/45
f 112/114/46 115/115/46 111/111/46
f 116/116/47 118/117/47 119/118/47 117/119/47
f 117/119/48 120/120/48 116/116/48
f 121/121/49 123/122/49 124/123/49 122/124/49
f 122/124/50 125/125/50 121/121/50
f 126/126/51 128/127/51 129/128/51 127/129/51
f 127/129/52 130/130/52 126/126/52
