# Blender v2.78 (sub 0) OBJ File: 'Low_Poly_Vegetation_Pack.blend'
# www.blender.org
g Dead_Bush_b_02
v 0.127975 0.166620 -0.001352
v 0.100753 0.178062 -0.001352
v 0.019798 -0.007629 0.001352
v -0.019798 -0.007629 0.001352
v 0.158674 0.378617 -0.001352
v -0.042638 0.167992 -0.092147
v -0.032906 0.176689 -0.073885
v 0.010689 -0.007629 0.002171
v 0.026109 -0.007629 0.031108
v -0.071256 0.453316 -0.119650
v -0.210040 0.167992 -0.040671
v -0.189620 0.176689 -0.044019
v -0.103588 -0.007629 -0.060863
v -0.071231 -0.007629 -0.066168
v -0.245280 0.453316 -0.022409
v 0.171974 0.167992 -0.079882
v 0.158291 0.176689 -0.064359
v 0.102378 -0.007629 0.003160
v 0.080696 -0.007629 0.027757
v 0.187682 0.453316 -0.116333
v -0.051759 0.167992 0.097954
v -0.052680 0.176689 0.077282
v -0.059279 -0.007629 -0.010134
v -0.060738 -0.007629 -0.042891
v -0.037772 0.354959 0.135099
v -0.246110 0.168388 0.085422
v -0.232352 0.176294 0.072595
v -0.170488 -0.007629 0.011221
v -0.144365 -0.007629 -0.013135
v -0.271641 0.410507 0.144002
v -0.228956 0.123420 -0.148680
v -0.210042 0.129932 -0.131373
v -0.167910 -0.007629 -0.095554
v -0.142438 -0.007629 -0.072245
v -0.274059 0.380757 -0.189023
v 0.128737 0.166620 -0.179650
v 0.113578 0.178062 -0.157040
v 0.074313 -0.007629 -0.093623
v 0.045116 -0.007629 -0.050078
v 0.145834 0.515743 -0.205148
v 0.156295 0.168207 0.164340
v 0.141371 0.176474 0.151531
v 0.074650 -0.007629 0.097831
v 0.045926 -0.007629 0.073178
v 0.140160 0.381665 0.209463
v -0.067570 0.168207 0.169687
v -0.074482 0.176474 0.151274
v -0.107099 -0.007629 0.072082
v -0.120403 -0.007629 0.036643
v -0.022759 0.336453 0.210081
v 0.127975 0.166619 -0.001452
v 0.100753 0.178061 -0.001452
v 0.019798 -0.007631 0.001252
v -0.019798 -0.007631 0.001252
v 0.158674 0.378617 -0.001452
v -0.042726 0.167989 -0.092099
v -0.032994 0.176687 -0.073838
v 0.010601 -0.007631 0.002218
v 0.026021 -0.007631 0.031155
v -0.071343 0.453312 -0.119601
v -0.210023 0.167989 -0.040573
v -0.189603 0.176687 -0.043920
v -0.103572 -0.007631 -0.060765
v -0.071215 -0.007631 -0.066069
v -0.245262 0.453312 -0.022310
v 0.171899 0.167989 -0.079947
v 0.158216 0.176687 -0.064425
v 0.102303 -0.007631 0.003094
v 0.080620 -0.007631 0.027691
v 0.187606 0.453312 -0.116398
v -0.051659 0.167988 0.097948
v -0.052580 0.176686 0.077276
v -0.059179 -0.007631 -0.010139
v -0.060638 -0.007631 -0.042895
v -0.037672 0.354953 0.135092
v -0.246041 0.168382 0.085494
v -0.232283 0.176288 0.072667
v -0.170420 -0.007631 0.011294
v -0.144297 -0.007631 -0.013062
v -0.271570 0.410497 0.144072
v -0.229024 0.123420 -0.148607
v -0.210110 0.129931 -0.131299
v -0.167977 -0.007631 -0.095480
v -0.142505 -0.007631 -0.072171
v -0.274127 0.380757 -0.188949
v 0.128654 0.166619 -0.179705
v 0.113495 0.178061 -0.157096
v 0.074230 -0.007631 -0.093678
v 0.045033 -0.007631 -0.050133
v 0.145750 0.515743 -0.205204
v 0.156362 0.168216 0.164267
v 0.141439 0.176483 0.151459
v 0.074715 -0.007631 0.097755
v 0.045991 -0.007631 0.073102
v 0.140230 0.381685 0.209395
v -0.067478 0.168199 0.169649
v -0.074390 0.176466 0.151237
v -0.107006 -0.007631 0.072046
v -0.120309 -0.007631 0.036608
v -0.022669 0.336439 0.210041
vt 0.2117 0.5516
vt 0.2073 0.5515
vt 0.2026 0.5190
vt 0.2079 0.5215
vt 0.2026 0.5821
vt 0.4281 0.5508
vt 0.4248 0.5509
vt 0.4180 0.5190
vt 0.4225 0.5208
vt 0.4180 0.5923
vt 0.3008 0.5508
vt 0.2975 0.5509
vt 0.2907 0.5190
vt 0.2952 0.5208
vt 0.2907 0.5923
vt 0.2907 0.5508
vt 0.2873 0.5509
vt 0.2806 0.5190
vt 0.2851 0.5208
vt 0.2806 0.5923
vt 0.3524 0.5516
vt 0.3491 0.5514
vt 0.3451 0.5190
vt 0.3495 0.5211
vt 0.3451 0.5790
vt 0.2194 0.5516
vt 0.2164 0.5514
vt 0.2117 0.5190
vt 0.2165 0.5213
vt 0.2117 0.5879
vt 0.4623 0.5438
vt 0.4584 0.5431
vt 0.4547 0.5190
vt 0.4594 0.5211
vt 0.4547 0.5822
vt 0.1624 0.5510
vt 0.1581 0.5512
vt 0.1495 0.5190
vt 0.1568 0.5216
vt 0.1495 0.6013
vt 0.4378 0.5512
vt 0.4347 0.5512
vt 0.4281 0.5190
vt 0.4333 0.5211
vt 0.4281 0.5821
vt 0.3579 0.5522
vt 0.3548 0.5518
vt 0.3524 0.5190
vt 0.3573 0.5218
vt 0.3524 0.5781
vt 0.2117 0.5516
vt 0.2079 0.5215
vt 0.2026 0.5190
vt 0.2073 0.5515
vt 0.2026 0.5821
vt 0.4281 0.5508
vt 0.4225 0.5208
vt 0.4180 0.5190
vt 0.4248 0.5509
vt 0.4180 0.5923
vt 0.3008 0.5508
vt 0.2952 0.5208
vt 0.2907 0.5190
vt 0.2975 0.5509
vt 0.2907 0.5923
vt 0.2907 0.5508
vt 0.2851 0.5208
vt 0.2806 0.5190
vt 0.2873 0.5509
vt 0.2806 0.5923
vt 0.3524 0.5516
vt 0.3495 0.5211
vt 0.3451 0.5190
vt 0.3491 0.5514
vt 0.3451 0.5790
vt 0.2194 0.5516
vt 0.2165 0.5213
vt 0.2117 0.5190
vt 0.2164 0.5514
vt 0.2117 0.5879
vt 0.4623 0.5438
vt 0.4594 0.5211
vt 0.4547 0.5190
vt 0.4584 0.5431
vt 0.4547 0.5822
vt 0.1624 0.5510
vt 0.1568 0.5216
vt 0.1495 0.5190
vt 0.1581 0.5512
vt 0.1495 0.6013
vt 0.4378 0.5512
vt 0.4333 0.5211
vt 0.4281 0.5190
vt 0.4347 0.5512
vt 0.4281 0.5821
vt 0.3579 0.5522
vt 0.3573 0.5218
vt 0.3524 0.5190
vt 0.3548 0.5518
vt 0.3524 0.5781
vn 0.0023 0.0135 0.9999
vn 0.0000 -0.0000 1.0000
vn 0.8814 0.0136 -0.4722
vn 0.8736 0.0409 -0.4850
vn -0.1640 0.0136 -0.9864
vn -0.1786 0.0409 -0.9831
vn 0.7515 0.0136 0.6595
vn 0.7608 0.0409 0.6477
vn -0.9988 0.0136 0.0467
vn -0.9957 0.0606 0.0698
vn -0.6833 0.0138 -0.7300
vn -0.7075 0.0948 -0.7004
vn 0.6739 0.0141 -0.7387
vn 0.6746 0.0025 -0.7382
vn 0.8316 0.0138 0.5552
vn 0.8306 -0.0000 0.5569
vn -0.6497 0.0138 0.7601
vn -0.6992 -0.1981 0.6869
vn -0.9354 0.0138 0.3533
vn -0.9035 0.1437 0.4037
vn -0.0023 -0.0135 -0.9999
vn -0.0000 0.0000 -1.0000
vn -0.8814 -0.0136 0.4722
vn -0.8736 -0.0409 0.4850
vn 0.1640 -0.0136 0.9864
vn 0.1786 -0.0409 0.9831
vn -0.7515 -0.0136 -0.6595
vn -0.7608 -0.0409 -0.6477
vn 0.9988 -0.0136 -0.0467
vn 0.9957 -0.0606 -0.0698
vn 0.6833 -0.0138 0.7300
vn 0.7075 -0.0948 0.7004
vn -0.6739 -0.0141 0.7387
vn -0.6746 -0.0025 0.7382
vn -0.8316 -0.0138 -0.5552
vn -0.8306 0.0000 -0.5569
vn 0.6497 -0.0138 -0.7601
vn 0.6992 0.1981 -0.6869
vn 0.9354 -0.0138 -0.3533
vn 0.9035 -0.1437 -0.4037
s off
f 1/1/1 2/2/1 4/3/1 3/4/1
f 2/2/2 1/1/2 5/5/2
f 6/6/3 7/7/3 9/8/3 8/9/3
f 7/7/4 6/6/4 10/10/4
f 11/11/5 12/12/5 14/13/5 13/14/5
f 12/12/6 11/11/6 15/15/6
f 16/16/7 17/17/7 19/18/7 18/19/7
f 17/17/8 16/16/8 20/20/8
f 21/21/9 22/22/9 24/23/9 23/24/9
f 22/22/10 21/21/10 25/25/10
f 26/26/11 27/27/11 29/28/11 28/29/11
f 27/27/12 26/26/12 30/30/12
f 31/31/13 32/32/13 34/33/13 33/34/13
f 32/32/14 31/31/14 35/35/14
f 36/36/15 37/37/15 39/38/15 38/39/15
f 37/37/16 36/36/16 40/40/16
f 41/41/17 42/42/17 44/43/17 43/44/17
f 42/42/18 41/41/18 45/45/18
f 46/46/19 47/47/19 49/48/19 48/49/19
f 47/47/20 46/46/20 50/50/20
f 51/51/21 53/52/21 54/53/21 52/54/21
f 52/54/22 55/55/22 51/51/22
f 56/56/23 58/57/23 59/58/23 57/59/23
f 57/59/24 60/60/24 56/56/24
f 61/61/25 63/62/25 64/63/25 62/64/25
f 62/64/26 65/65/26 61/61/26
f 66/66/27 68/67/27 69/68/27 67/69/27
f 67/69/28 70/70/28 66/66/28
f 71/71/29 73/72/29 74/73/29 72/74/29
f 72/74/30 75/75/30 71/71/30
f 76/76/31 78/77/31 79/78/31 77/79/31
f 77/79/32 80/80/32 76/76/32
f 81/81/33 83/82/33 84/83/33 82/84/33
f 82/84/34 85/85/34 81/81/34
f 86/86/35 88/87/35 89/88/35 87/89/35
f 87/89/36 90/90/36 86/86/36
f 91/91/37 93/92/37 94/93/37 92/94/37
f 92/94/38 95/95/38 91/91/38
f 96/96/39 98/97/39 99/98/39 97/99/39
f 97/99/40 100/100/40 96/96/40
