# Blender v2.78 (sub 0) OBJ File: 'Low_Poly_Vegetation_Pack.blend'
# www.blender.org
g Dead_Bush_a_01
v 0.017809 -0.008013 -0.006244
v 0.025954 0.403737 -0.009470
v -0.014232 -0.006490 -0.016188
v 0.004299 0.390555 -0.015643
v -0.003083 -0.006730 0.019221
v 0.013707 0.389773 0.014264
v -0.051154 0.713007 0.067159
v -0.076195 0.713861 0.058089
v -0.068638 0.707874 0.085922
v 0.061257 1.064673 0.073837
v 0.044268 1.071325 0.067961
v 0.050106 1.069393 0.088236
v -0.059966 0.734226 0.085875
v -0.217189 0.811042 0.113779
v -0.214529 0.807673 0.128526
v -0.210100 0.821430 0.129146
v 0.069180 1.333262 0.207544
v -0.338789 1.113058 0.119874
v -0.002699 0.418659 -0.009233
v 0.105369 0.473358 -0.178735
v 0.089277 0.475345 -0.187901
v 0.087637 0.487037 -0.173421
v 0.176346 0.629843 -0.254115
vt 0.0216 0.5208
vt 0.0286 0.5379
vt 0.0233 0.5421
vt 0.0160 0.5234
vt 0.0152 0.5430
vt 0.0081 0.5264
vt 0.0289 0.5190
vt 0.0332 0.5362
vt 0.0332 0.5439
vt 0.0305 0.5761
vt 0.0248 0.5725
vt 0.0374 0.5308
vt 0.0332 0.5275
vt 0.0599 0.5276
vt 0.0630 0.5308
vt 0.0161 0.5452
vt 0.0219 0.5768
vt 0.1046 0.5198
vt 0.0373 0.5220
vt 0.0646 0.5237
vt 0.0237 0.5768
vt 0.0466 0.5911
vt 0.0475 0.5872
vt 0.0833 0.5888
vt 0.0381 0.5190
vt 0.0625 0.5196
vt 0.0081 0.5904
vt 0.0098 0.5830
vt 0.0096 0.5920
vt 0.0473 0.5920
vt 0.0110 0.5768
vt 0.0478 0.5836
vt 0.0344 0.5935
vt 0.0313 0.5970
vt 0.0081 0.6001
vt 0.0797 0.5938
vt 0.0764 0.5998
vt 0.0164 0.5748
vt 0.0775 0.5920
vt 0.0310 0.5920
vt 0.0768 0.6050
vt 0.0317 0.6013
vn 0.8316 -0.0200 0.5550
vn -0.9527 0.0441 0.3006
vn 0.2900 -0.0127 -0.9570
vn 0.2354 0.2803 -0.9306
vn 0.3206 -0.0833 -0.9435
vn -0.9146 -0.2916 0.2801
vn 0.8038 0.0645 0.5914
vn 0.4339 0.3912 -0.8116
vn -0.9060 0.2962 0.3024
vn 0.7419 -0.2431 0.6249
vn 0.7609 0.3178 -0.5658
vn 0.7330 -0.2458 0.6343
vn 0.2395 0.7248 -0.6460
vn 0.2260 -0.0877 0.9702
vn -0.5752 -0.8170 -0.0415
vn -0.9609 -0.0534 0.2716
vn 0.6862 -0.3403 0.6429
vn -0.1001 -0.0126 0.9949
vn -0.9240 -0.3737 0.0813
vn 0.4340 0.2236 0.8727
vn 0.4890 0.6895 0.5343
vn -0.9276 -0.2893 0.2365
vn -0.8936 0.0407 -0.4471
vn 0.3625 -0.9023 -0.2335
vn -0.8689 0.3324 -0.3668
vn 0.3678 -0.5337 -0.7615
s off
f 1/1/1 2/2/1 6/3/1 5/4/1
f 5/4/2 6/3/2 4/5/2 3/6/2
f 3/7/3 4/8/3 2/2/3 1/1/3
f 2/2/4 19/9/4 8/10/4 7/11/4
f 7/12/5 8/13/5 11/14/5 10/15/5
f 4/5/6 6/3/6 19/16/6
f 6/3/7 2/2/7 7/11/7 9/17/7
f 10/15/8 11/14/8 17/18/8
f 8/13/9 13/19/9 12/20/9 11/14/9
f 9/17/10 7/11/10 13/21/10
f 16/22/11 14/23/11 18/24/11
f 13/19/12 7/25/12 10/26/12 12/20/12
f 13/27/13 8/28/13 14/23/13 16/22/13
f 9/29/14 13/27/14 16/22/14 15/30/14
f 8/28/15 9/31/15 15/32/15 14/23/15
f 11/14/16 12/20/16 17/18/16
f 12/20/17 10/26/17 17/18/17
f 15/30/18 16/22/18 18/24/18
f 14/23/19 15/32/19 18/24/19
f 22/33/20 20/34/20 23/35/20
f 19/36/21 2/37/21 20/34/21 22/33/21
f 19/16/22 6/3/22 9/17/22 8/38/22
f 4/39/23 19/36/23 22/33/23 21/40/23
f 2/37/24 4/41/24 21/42/24 20/34/24
f 21/40/25 22/33/25 23/35/25
f 20/34/26 21/42/26 23/35/26
