# Blender v2.78 (sub 0) OBJ File: 'Low_Poly_Vegetation_Pack.blend'
# www.blender.org
g Mushroom_e_08
v -0.046027 0.089891 0.022079
v -0.088754 0.081335 0.008932
v -0.029759 0.126732 0.008737
v -0.085901 0.108039 0.021929
v -0.106709 0.102612 -0.023050
v -0.074816 0.154529 -0.012772
v -0.021111 0.100322 -0.000112
v -0.020264 0.094039 -0.031215
v -0.054773 0.086036 -0.058855
v -0.050569 0.068622 -0.008664
v -0.088062 0.071921 -0.022745
v -0.047972 0.124852 -0.058030
v -0.020050 0.128764 -0.023960
v -0.053037 0.120317 0.025598
v -0.088032 0.102032 -0.053392
v -0.063006 0.148556 -0.034455
v -0.081129 0.140829 0.005137
v -0.099075 0.133178 -0.014004
v -0.087875 0.137953 -0.038473
v -0.027155 -0.007340 -0.045406
v -0.054479 -0.008539 -0.025412
v -0.044045 -0.008055 0.006937
v -0.010254 -0.006703 0.006937
v 0.000198 -0.006345 -0.025412
v -0.058517 0.084129 -0.032395
v -0.073237 0.086743 -0.021392
v -0.067408 0.085848 -0.003589
v -0.049266 0.082609 -0.003589
v -0.043465 0.081674 -0.021392
v -0.056443 0.017262 0.008288
v -0.020612 0.022372 0.008288
v -0.038487 0.019834 -0.047076
v -0.067579 0.015656 -0.025929
v -0.009600 0.023926 -0.025929
v 0.068457 -0.009982 0.052016
v 0.086546 -0.009982 0.012535
v 0.054588 -0.009982 -0.016872
v 0.016746 -0.009982 0.004435
v 0.025315 -0.009982 0.047011
v 0.080755 0.157982 0.041765
v 0.094302 0.150564 0.012542
v 0.070539 0.158028 -0.008941
v 0.041384 0.160285 0.007040
v 0.047165 0.154183 0.038957
v 0.056657 0.065285 -0.008650
v 0.025107 0.063538 0.007776
v 0.068061 0.064879 0.044244
v 0.081080 0.061832 0.014083
v 0.033219 0.060176 0.040755
v 0.080070 0.130415 -0.088479
v 0.180359 0.126678 -0.021610
v -0.006182 0.180457 -0.076432
v 0.141246 0.151247 -0.082467
v 0.187161 0.150150 0.051262
v 0.081930 0.242158 0.021423
v 0.003621 0.154673 0.010444
v -0.009103 0.144511 -0.051257
v -0.038376 0.154724 0.037790
v 0.055643 0.124345 0.107082
v 0.088542 0.136742 -0.028865
v 0.090958 0.132136 0.041364
v 0.161037 0.103339 0.063607
v -0.018101 0.195350 0.080299
v -0.056047 0.172428 0.003942
v 0.071008 0.172700 -0.102135
v 0.033802 0.166824 0.126948
v 0.111197 0.171314 0.134111
v -0.028438 0.208504 0.008193
v 0.165632 0.180394 -0.030752
v 0.149127 0.183253 0.088504
v 0.030668 0.206474 0.111089
v 0.030744 0.233478 -0.021064
v 0.022024 0.234563 0.052749
v 0.106394 0.218956 -0.036705
v 0.144363 0.214158 0.026047
v 0.091079 0.226321 0.082713
vt 0.8784 0.0746
vt 0.8854 0.0281
vt 0.9462 0.0594
vt 0.8576 0.1205
vt 0.9030 0.1303
vt 0.9236 0.0970
vt 0.9399 0.0493
vt 0.9664 0.1091
vt 0.9302 0.1086
vt 0.8256 0.1624
vt 0.8610 0.1351
vt 0.9212 0.1947
vt 0.9526 0.1557
vt 0.8562 0.1744
vt 0.9378 0.1954
vt 0.9356 0.1577
vt 0.9095 0.1680
vt 0.8958 0.1296
vt 0.9687 0.1672
vt 0.9864 0.1690
vt 0.8975 0.0883
vt 0.8087 0.1239
vt 0.8165 0.0999
vt 0.8559 0.0884
vt 0.8885 0.0413
vt 0.8304 0.0679
vt 0.8404 0.0227
vt 0.6853 0.3457
vt 0.6650 0.3361
vt 0.6681 0.3274
vt 0.6877 0.3321
vt 0.6888 0.3201
vt 0.6696 0.3187
vt 0.6692 0.3097
vt 0.6890 0.3084
vt 0.6877 0.2964
vt 0.6682 0.3006
vt 0.6654 0.2920
vt 0.6852 0.2822
vt 0.7081 0.3084
vt 0.7079 0.2952
vt 0.7064 0.3336
vt 0.7075 0.3212
vt 0.7072 0.2822
vt 0.7056 0.3457
vt 0.6853 0.3457
vt 0.6650 0.3361
vt 0.6681 0.3274
vt 0.6877 0.3321
vt 0.6888 0.3201
vt 0.6696 0.3187
vt 0.6692 0.3097
vt 0.6890 0.3084
vt 0.6877 0.2964
vt 0.6682 0.3006
vt 0.6654 0.2920
vt 0.6852 0.2822
vt 0.7081 0.3084
vt 0.7079 0.2952
vt 0.7064 0.3336
vt 0.7075 0.3212
vt 0.7072 0.2822
vt 0.7056 0.3457
vt 0.9712 0.0872
vt 0.9913 0.1404
vt 0.9497 0.1162
vt 0.9231 0.1404
vt 0.9584 0.1755
vt 0.8935 0.2078
vt 0.8970 0.0937
vt 0.8731 0.1324
vt 0.8756 0.1648
vt 0.9061 0.2087
vt 0.8425 0.2093
vt 0.8616 0.1632
vt 0.8813 0.0401
vt 0.8543 0.0853
vt 0.8083 0.0744
vt 0.8073 0.1528
vt 0.8519 0.0587
vt 0.8381 0.1159
vt 0.7826 0.1151
vt 0.8321 0.1701
vt 0.8162 0.1370
vt 0.8731 0.1159
vt 0.8502 0.1297
vt 0.8238 0.1082
vt 0.7863 0.1151
vt 0.7873 0.1593
vt 0.7620 0.1611
vt 0.7997 0.1975
vt 0.8770 0.1388
vt 0.8942 0.0883
vt 0.9120 0.1542
vt 0.9248 0.0498
vt 0.9403 0.0716
vt 0.9141 0.1100
vt 0.9453 0.1698
vt 0.9458 0.1168
vn 0.6714 -0.0283 0.7406
vn -0.1913 -0.4129 0.8904
vn 0.5791 0.0392 0.8143
vn -0.7579 -0.4650 -0.4576
vn 0.4493 0.8735 0.1877
vn -0.2694 0.4697 0.8407
vn -0.9073 0.1062 0.4069
vn -0.8294 0.2174 -0.5147
vn -0.3031 0.8636 -0.4030
vn -0.1545 0.6457 -0.7478
vn -0.3100 0.3658 -0.8775
vn -0.6487 0.7458 -0.1514
vn -0.8831 0.3216 -0.3415
vn -0.6361 0.7045 0.3147
vn -0.7448 0.3868 0.5437
vn 0.1062 0.7713 0.6275
vn 0.2061 0.7856 0.5834
vn 0.4223 0.9062 -0.0196
vn 0.4617 0.7554 -0.4651
vn -0.1405 0.0456 -0.9890
vn -0.8966 -0.1127 0.4284
vn -0.4165 -0.6483 -0.6374
vn -0.8475 -0.5136 0.1341
vn -0.0624 -0.1288 0.9897
vn 0.9339 0.2086 0.2903
vn 0.9995 -0.0124 0.0297
vn 0.7597 0.1285 -0.6374
vn 0.6357 -0.0951 -0.7661
vn 0.0412 -0.9429 -0.3306
vn -0.1867 -0.9428 0.2761
vn -0.0109 -0.8216 0.5700
vn 0.4534 -0.8296 -0.3258
vn 0.6242 -0.6826 0.3800
vn 0.7014 -0.6948 0.1594
vn -0.0062 0.1795 0.9837
vn -0.5917 0.0022 -0.8062
vn 0.8416 0.4633 0.2775
vn -0.9459 -0.0963 0.3098
vn 0.5424 0.3591 -0.7595
vn 0.5702 0.1792 -0.8017
vn -0.8491 -0.4421 0.2890
vn 0.9044 0.3029 0.3003
vn -0.5450 -0.2927 -0.7857
vn 0.0044 -0.0478 0.9988
vn -0.4693 0.0699 -0.8802
vn 0.8984 -0.1187 0.4228
vn -0.9611 0.1553 0.2284
vn 0.6592 -0.1060 -0.7445
vn -0.0961 0.0364 0.9947
vn -0.1138 0.1015 0.9883
vn 0.6797 0.0642 -0.7307
vn -0.9690 0.1141 0.2190
vn 0.9126 0.0537 0.4053
vn -0.4772 0.1013 -0.8729
vn -0.2309 -0.9714 -0.0558
vn -0.3993 -0.5039 -0.7659
vn 0.3202 -0.7890 -0.5243
vn -0.3273 -0.3532 -0.8764
vn 0.6945 -0.2058 0.6894
vn -0.5146 0.7643 -0.3886
vn 0.3823 0.6444 -0.6623
vn 0.8340 0.5515 -0.0155
vn 0.4566 0.6908 0.5606
vn -0.4545 0.7744 0.4402
vn 0.0075 0.9684 0.2491
vn -0.0854 0.8927 0.4425
vn 0.1028 0.6989 0.7078
vn 0.3921 0.9032 0.1748
vn 0.5381 0.7711 0.3405
vn 0.7605 0.6032 0.2405
vn 0.4136 0.8921 -0.1820
vn 0.5443 0.7947 -0.2686
vn 0.4808 0.6473 -0.5915
vn 0.1125 0.9382 -0.3272
vn 0.0333 0.8075 -0.5889
vn -0.1357 0.7592 -0.6366
vn -0.1418 0.9894 -0.0313
vn -0.4140 0.9081 -0.0623
vn -0.5971 0.7697 0.2260
vn -0.5573 0.2700 0.7852
vn -0.1067 0.3620 0.9261
vn 0.7469 0.1230 0.6534
vn 0.9580 0.2346 -0.1650
vn 0.8582 0.1518 -0.4903
vn -0.7114 0.5895 -0.3825
vn -0.7872 0.5768 0.2181
vn -0.0567 -0.4467 0.8929
vn 0.1797 -0.6416 0.7457
vn 0.8788 -0.4720 0.0700
vn 0.1837 -0.2662 -0.9463
vn -0.7961 -0.3024 -0.5241
vn -0.5965 -0.7958 -0.1048
vn -0.8919 -0.0272 0.4514
vn -0.7232 -0.2933 0.6253
vn -0.2929 -0.9183 -0.2663
vn -0.3665 -0.9292 -0.0483
vn -0.0826 -0.9563 -0.2806
vn -0.1176 -0.9856 0.1213
vn -0.5987 -0.5707 0.5621
vn -0.1467 -0.9636 -0.2235
vn -0.1747 -0.9624 -0.2080
vn -0.1060 -0.9871 0.1198
vn -0.1201 -0.9753 0.1854
vn 0.0921 -0.9854 0.1433
s off
f 1/1/1 7/2/1 3/3/1
f 2/4/2 1/1/2 4/5/2
f 1/1/3 3/3/3 14/6/3
f 11/7/4 5/8/4 15/9/4
f 3/10/5 13/11/5 6/12/5
f 4/5/6 14/6/6 17/13/6
f 5/14/7 4/5/7 18/15/7
f 15/9/8 5/8/8 19/16/8
f 16/17/9 19/16/9 6/12/9
f 16/17/10 12/18/10 19/16/10
f 12/18/11 15/9/11 19/16/11
f 19/16/12 18/19/12 6/12/12
f 19/16/13 5/8/13 18/19/13
f 18/15/14 17/13/14 6/20/14
f 18/15/15 4/5/15 17/13/15
f 17/13/16 14/6/16 6/20/16
f 14/6/17 3/3/17 6/20/17
f 6/12/18 13/11/18 16/17/18
f 13/11/19 12/18/19 16/17/19
f 9/21/20 15/9/20 12/18/20
f 2/4/21 4/5/21 5/14/21
f 9/21/22 11/7/22 15/9/22
f 5/14/23 11/22/23 2/4/23
f 4/5/24 1/1/24 14/6/24
f 3/10/25 7/23/25 13/11/25
f 7/23/26 8/24/26 13/11/26
f 13/11/27 8/24/27 12/18/27
f 8/24/28 9/21/28 12/18/28
f 10/25/29 11/7/29 9/21/29
f 10/26/30 2/4/30 11/22/30
f 10/26/31 1/1/31 2/4/31
f 8/24/32 10/25/32 9/21/32
f 10/26/33 7/2/33 1/1/33
f 10/26/34 8/27/34 7/2/34
f 31/28/35 28/29/35 27/30/35 30/31/35
f 33/32/36 26/33/36 25/34/36 32/35/36
f 34/36/37 29/37/37 28/38/37 31/39/37
f 30/31/38 27/30/38 26/33/38 33/32/38
f 32/35/39 25/34/39 29/37/39 34/36/39
f 20/40/40 32/35/40 34/36/40 24/41/40
f 22/42/41 30/31/41 33/32/41 21/43/41
f 24/41/42 34/36/42 31/39/42 23/44/42
f 21/43/43 33/32/43 32/35/43 20/40/43
f 23/45/44 31/28/44 30/31/44 22/42/44
f 46/46/45 43/47/45 42/48/45 45/49/45
f 48/50/46 41/51/46 40/52/46 47/53/46
f 49/54/47 44/55/47 43/56/47 46/57/47
f 45/49/48 42/48/48 41/51/48 48/50/48
f 47/53/49 40/52/49 44/55/49 49/54/49
f 35/58/50 47/53/50 49/54/50 39/59/50
f 37/60/51 45/49/51 48/50/51 36/61/51
f 39/59/52 49/54/52 46/57/52 38/62/52
f 36/61/53 48/50/53 47/53/53 35/58/53
f 38/63/54 46/46/54 45/49/54 37/60/54
f 61/64/55 56/65/55 60/66/55
f 50/67/56 57/68/56 52/69/56
f 51/70/57 50/67/57 53/71/57
f 50/67/58 52/69/58 65/72/58
f 62/73/59 54/74/59 67/75/59
f 52/76/60 68/77/60 72/78/60
f 53/71/61 65/72/61 74/79/61
f 54/80/62 69/81/62 75/82/62
f 67/75/63 70/83/63 76/84/63
f 63/85/64 71/86/64 73/87/64
f 73/87/65 76/84/65 55/88/65
f 73/87/66 71/86/66 76/84/66
f 71/86/67 67/75/67 76/84/67
f 76/84/68 75/89/68 55/88/68
f 76/84/69 70/83/69 75/89/69
f 70/83/70 54/74/70 75/89/70
f 75/82/71 74/79/71 55/90/71
f 75/82/72 69/81/72 74/79/72
f 69/81/73 53/71/73 74/79/73
f 74/79/74 72/91/74 55/90/74
f 74/79/75 65/72/75 72/91/75
f 65/72/76 52/69/76 72/91/76
f 72/78/77 73/87/77 55/88/77
f 72/78/78 68/77/78 73/87/78
f 68/77/79 63/85/79 73/87/79
f 63/85/80 66/92/80 71/86/80
f 66/92/81 67/75/81 71/86/81
f 67/75/82 54/74/82 70/83/82
f 51/70/83 69/81/83 54/80/83
f 51/70/84 53/71/84 69/81/84
f 64/93/85 68/77/85 52/76/85
f 64/93/86 63/85/86 68/77/86
f 66/92/87 59/94/87 67/75/87
f 59/94/88 62/73/88 67/75/88
f 54/80/89 62/95/89 51/70/89
f 53/71/90 50/67/90 65/72/90
f 52/76/91 57/96/91 64/93/91
f 57/96/92 58/97/92 64/93/92
f 64/93/93 58/97/93 63/85/93
f 58/97/94 66/92/94 63/85/94
f 61/98/95 62/73/95 59/94/95
f 61/64/96 60/66/96 62/95/96
f 60/66/97 51/70/97 62/95/97
f 60/66/98 50/67/98 51/70/98
f 58/97/99 59/94/99 66/92/99
f 58/97/100 56/99/100 59/94/100
f 56/99/101 61/98/101 59/94/101
f 60/66/102 57/68/102 50/67/102
f 60/66/103 56/65/103 57/68/103
f 56/99/104 58/97/104 57/96/104
