# Blender v2.78 (sub 0) OBJ File: 'Low_Poly_Vegetation_Pack.blend'
# www.blender.org
g Mushroom_d_01
v 0.000000 -0.027665 -0.009357
v -0.009357 -0.027665 0.000000
v 0.000000 -0.027665 0.009357
v 0.009357 -0.027665 0.000000
v 0.003074 0.187814 -0.011380
v 0.012720 0.188391 0.002921
v -0.001040 0.231533 -0.107229
v -0.076409 0.230169 -0.075520
v -0.107316 0.230985 0.000189
v -0.075656 0.233501 0.075549
v 0.000025 0.236245 0.106415
v 0.075394 0.237608 0.074705
v 0.106301 0.236793 -0.001004
v 0.074641 0.234276 -0.076364
v -0.000171 0.206754 -0.072303
v -0.051293 0.205829 -0.050795
v -0.072256 0.206382 0.000557
v -0.050782 0.208090 0.051672
v 0.000551 0.209950 0.072608
v 0.051673 0.210875 0.051100
v 0.072636 0.210322 -0.000252
v 0.051162 0.208615 -0.051367
v 0.000859 0.191551 0.000669
v -0.000954 0.226968 -0.114093
v -0.081234 0.225516 -0.080318
v -0.114155 0.226385 0.000325
v -0.080432 0.229065 0.080595
v 0.000180 0.231988 0.113472
v 0.080460 0.233440 0.079697
v 0.113381 0.232571 -0.000946
v 0.079658 0.229890 -0.081216
v -0.000138 0.204417 -0.077768
v -0.055149 0.203422 -0.054623
v -0.077708 0.204017 0.000636
v -0.054600 0.205854 0.055641
v 0.000639 0.207857 0.078170
v 0.055650 0.208852 0.055025
v 0.078209 0.208257 -0.000234
v 0.055101 0.206420 -0.055239
v -0.011230 0.187635 -0.001724
v -0.001584 0.188212 0.012577
v 0.006513 0.080165 -0.006938
v -0.002955 0.080165 -0.018796
v -0.014812 0.080165 -0.009328
v -0.005344 0.080165 0.002529
vt 0.5691 0.3132
vt 0.5690 0.3368
vt 0.5653 0.3368
vt 0.5653 0.3132
vt 0.5728 0.3132
vt 0.5728 0.3367
vt 0.5615 0.3368
vt 0.5616 0.3133
vt 0.5577 0.3368
vt 0.5579 0.3133
vt 0.6442 0.1786
vt 0.6529 0.1824
vt 0.6530 0.1938
vt 0.6442 0.1973
vt 0.6760 0.2105
vt 0.6726 0.2017
vt 0.6806 0.1935
vt 0.6892 0.1973
vt 0.6892 0.1786
vt 0.6804 0.1821
vt 0.6723 0.1741
vt 0.6761 0.1654
vt 0.6574 0.1654
vt 0.6608 0.1742
vt 0.6612 0.2018
vt 0.6574 0.2105
vt 0.6668 0.1879
vt 0.6910 0.1980
vt 0.6768 0.2122
vt 0.6768 0.1637
vt 0.6910 0.1779
vt 0.6424 0.1779
vt 0.6567 0.1637
vt 0.6567 0.2122
vt 0.6424 0.1980
vt 0.7051 0.1637
vt 0.7249 0.1637
vt 0.7214 0.1725
vt 0.7089 0.1724
vt 0.7389 0.1777
vt 0.7302 0.1815
vt 0.7389 0.1975
vt 0.7249 0.2115
vt 0.7211 0.2028
vt 0.7301 0.1940
vt 0.7051 0.2115
vt 0.6910 0.1975
vt 0.6998 0.1937
vt 0.7085 0.2027
vt 0.6910 0.1777
vt 0.6999 0.1812
vt 0.7170 0.1890
vt 0.7164 0.1855
vt 0.7136 0.1897
vt 0.7129 0.1862
vt 0.5617 0.2897
vt 0.5580 0.2897
vt 0.5654 0.2897
vt 0.5728 0.2896
vt 0.5691 0.2897
vn -0.8070 -0.0208 0.5901
vn 0.5876 -0.1010 0.8028
vn -0.5885 0.0824 -0.8043
vn 0.8074 0.0014 -0.5900
vn 0.5589 0.7997 0.2195
vn -0.5990 0.7682 0.2260
vn -0.2640 0.7594 -0.5947
vn 0.5565 0.7891 -0.2601
vn 0.2214 0.7979 0.5606
vn -0.2582 0.7849 0.5633
vn -0.6014 0.7576 -0.2537
vn 0.2156 0.7724 -0.5974
vn 0.1323 0.9744 -0.1820
vn 0.1335 0.9815 0.1371
vn -0.1857 0.9727 0.1395
vn -0.1877 0.9654 -0.1808
vn 0.4989 0.8335 -0.2374
vn 0.1965 0.8415 0.5033
vn -0.5439 0.8146 0.2013
vn -0.2415 0.8067 -0.5394
vn 0.1913 0.8184 -0.5418
vn 0.5011 0.8430 0.1955
vn -0.2363 0.8297 0.5057
vn -0.5461 0.8051 -0.2316
vn -0.2009 -0.8343 -0.5134
vn 0.2402 -0.8223 -0.5159
vn 0.5559 -0.7972 0.2355
vn -0.1956 -0.8108 0.5517
vn -0.5113 -0.8359 -0.1997
vn 0.5537 -0.8069 -0.2057
vn 0.2455 -0.7988 0.5492
vn -0.5091 -0.8262 0.2415
vn 0.2746 -0.9567 -0.0965
vn 0.1436 -0.9523 0.2694
vn -0.2221 -0.9651 0.1386
vn -0.0911 -0.9696 -0.2273
vn 0.1353 -0.9596 -0.2466
vn 0.2936 -0.9471 0.1300
vn -0.0831 -0.9539 0.2885
vn -0.2413 -0.9664 -0.0881
vn 0.7476 -0.0303 -0.6634
vn -0.6610 -0.0906 -0.7449
vn 0.6620 0.0728 0.7460
vn -0.7479 0.0123 0.6637
s off
f 45/1/1 41/2/1 40/3/1 44/4/1
f 42/5/2 6/6/2 41/2/2 45/1/2
f 44/4/3 40/3/3 5/7/3 43/8/3
f 43/8/4 5/7/4 6/9/4 42/10/4
f 9/11/5 17/12/5 16/13/5 8/14/5
f 14/15/6 22/16/6 21/17/6 13/18/6
f 12/19/7 20/20/7 19/21/7 11/22/7
f 10/23/8 18/24/8 17/12/8 9/11/8
f 8/14/9 16/13/9 15/25/9 7/26/9
f 7/26/10 15/25/10 22/16/10 14/15/10
f 13/18/11 21/17/11 20/20/11 12/19/11
f 11/22/12 19/21/12 18/24/12 10/23/12
f 17/12/13 18/24/13 19/21/13 23/27/13
f 16/13/14 17/12/14 23/27/14 15/25/14
f 15/25/15 23/27/15 21/17/15 22/16/15
f 23/27/16 19/21/16 20/20/16 21/17/16
f 14/15/17 13/18/17 30/28/17 31/29/17
f 12/19/18 11/22/18 28/30/18 29/31/18
f 10/23/19 9/11/19 26/32/19 27/33/19
f 8/14/20 7/26/20 24/34/20 25/35/20
f 7/26/21 14/15/21 31/29/21 24/34/21
f 13/18/22 12/19/22 29/31/22 30/28/22
f 11/22/23 10/23/23 27/33/23 28/30/23
f 9/11/24 8/14/24 25/35/24 26/32/24
f 25/36/25 24/37/25 32/38/25 33/39/25
f 24/37/26 31/40/26 39/41/26 32/38/26
f 30/42/27 29/43/27 37/44/27 38/45/27
f 28/46/28 27/47/28 35/48/28 36/49/28
f 26/50/29 25/36/29 33/39/29 34/51/29
f 31/40/30 30/42/30 38/45/30 39/41/30
f 29/43/31 28/46/31 36/49/31 37/44/31
f 27/47/32 26/50/32 34/51/32 35/48/32
f 39/41/33 38/45/33 6/52/33 5/53/33
f 37/44/34 36/49/34 41/54/34 6/52/34
f 35/48/35 34/51/35 40/55/35 41/54/35
f 33/39/36 32/38/36 5/53/36 40/55/36
f 32/38/37 39/41/37 5/53/37
f 38/45/38 37/44/38 6/52/38
f 36/49/39 35/48/39 41/54/39
f 34/51/40 33/39/40 40/55/40
f 1/56/41 43/8/41 42/10/41 4/57/41
f 2/58/42 44/4/42 43/8/42 1/56/42
f 4/59/43 42/5/43 45/1/43 3/60/43
f 3/60/44 45/1/44 44/4/44 2/58/44
