# Blender v2.78 (sub 0) OBJ File: 'Low_Poly_Vegetation_Pack.blend'
# www.blender.org
g Mushroom_c_04
v -0.229614 0.168091 0.040200
v -0.171306 0.178567 0.038306
v -0.131705 0.187472 -0.004886
v -0.134009 0.189590 -0.064075
v -0.176867 0.183680 -0.104589
v -0.235175 0.173205 -0.102695
v -0.274776 0.164299 -0.059502
v -0.272473 0.162181 -0.000313
v -0.230377 0.236432 0.013204
v -0.196054 0.242599 0.012089
v -0.172743 0.247841 -0.013337
v -0.174099 0.249088 -0.048178
v -0.199328 0.245609 -0.072027
v -0.233651 0.239442 -0.070912
v -0.256962 0.234200 -0.045487
v -0.255606 0.232954 -0.010645
v -0.217877 0.257987 -0.028687
v -0.105145 -0.007155 0.008146
v -0.094237 -0.009487 0.003050
v -0.099228 -0.008454 -0.008105
v -0.110135 -0.006122 -0.003008
v -0.219019 0.233882 -0.022211
v -0.208256 0.236812 -0.027307
v -0.213165 0.235441 -0.038462
v -0.223927 0.232511 -0.033365
v -0.143881 0.050513 -0.009137
v -0.148429 0.048214 -0.020291
v -0.158417 0.043247 -0.015195
v -0.153868 0.045546 -0.004041
v 0.078893 0.129751 -0.091863
v 0.053986 0.139137 -0.047059
v 0.068335 0.143619 0.002841
v 0.113533 0.140571 0.028604
v 0.163104 0.131779 0.015139
v 0.188010 0.122393 -0.029665
v 0.173662 0.117911 -0.079565
v 0.128464 0.120959 -0.105328
v 0.102034 0.195108 -0.082674
v 0.085359 0.201392 -0.052678
v 0.094966 0.204393 -0.019270
v 0.125226 0.202353 -0.002022
v 0.158413 0.196466 -0.011036
v 0.175088 0.190182 -0.041033
v 0.165482 0.187182 -0.074440
v 0.135222 0.189222 -0.091689
v 0.132627 0.212725 -0.049067
v 0.044308 -0.012419 -0.005955
v 0.042757 -0.011390 0.006166
v 0.054880 -0.012267 0.007792
v 0.056432 -0.013295 -0.004329
v 0.119580 0.182516 -0.049768
v 0.119178 0.186643 -0.038227
v 0.131166 0.184368 -0.036996
v 0.131567 0.180240 -0.048537
v 0.085996 0.045895 -0.010468
v 0.098119 0.045019 -0.008841
v 0.099671 0.043990 -0.020963
v 0.087547 0.044866 -0.022589
v -0.050060 0.254840 -0.027555
v -0.051672 0.254745 0.028841
v -0.012963 0.256101 0.069861
v 0.043390 0.258115 0.071475
v 0.084378 0.259607 0.032739
v 0.085989 0.259702 -0.023657
v 0.047281 0.258345 -0.064676
v -0.009073 0.256331 -0.066291
v -0.029752 0.333950 -0.016608
v -0.030810 0.333887 0.020426
v -0.005391 0.334778 0.047364
v 0.031616 0.336100 0.048424
v 0.058532 0.337080 0.022986
v 0.059590 0.337142 -0.014048
v 0.034171 0.336251 -0.040986
v -0.002836 0.334929 -0.042046
v 0.013609 0.357659 0.003393
v -0.007519 -0.010456 -0.005431
v -0.002941 -0.012380 0.005782
v 0.008425 -0.011068 0.001367
v 0.003847 -0.009143 -0.009846
v 0.004169 0.319590 -0.001305
v 0.008607 0.319074 0.010116
v 0.020039 0.319235 0.005680
v 0.015601 0.319751 -0.005740
v -0.003238 0.083800 0.014610
v 0.008128 0.085112 0.010195
v 0.003549 0.087037 -0.001018
v -0.007816 0.085725 0.003397
v 0.020357 0.197627 0.010402
v 0.015779 0.199552 -0.000811
v 0.031723 0.198939 0.005987
v 0.027144 0.200864 -0.005226
v 0.036641 0.181164 0.096122
v 0.006288 0.183598 0.059434
v -0.041128 0.185896 0.055002
v -0.077832 0.186712 0.085422
v -0.082324 0.185568 0.132875
v -0.051971 0.183134 0.169563
v -0.004555 0.180836 0.173995
v 0.032149 0.180020 0.143575
v 0.014609 0.235260 0.105194
v -0.003258 0.236693 0.083598
v -0.031169 0.238046 0.080989
v -0.052775 0.238526 0.098896
v -0.055419 0.237853 0.126829
v -0.037552 0.236420 0.148425
v -0.009640 0.235067 0.151034
v 0.011966 0.234587 0.133128
v -0.019770 0.250412 0.116406
v -0.003713 -0.005655 0.058677
v -0.013391 -0.005152 0.053540
v -0.018546 -0.005580 0.063211
v -0.008869 -0.006083 0.068348
v -0.013252 0.231416 0.115597
v -0.021951 0.232572 0.111091
v -0.026557 0.231765 0.119777
v -0.017858 0.230610 0.124283
v -0.011614 0.064128 0.086079
v -0.016770 0.063700 0.095750
v -0.007092 0.063197 0.100887
v -0.001937 0.063625 0.091216
vt 0.5865 0.2269
vt 0.5801 0.2093
vt 0.5903 0.1982
vt 0.6073 0.2062
vt 0.5865 0.1560
vt 0.5786 0.1730
vt 0.5635 0.1736
vt 0.5571 0.1560
vt 0.5364 0.1768
vt 0.5533 0.1847
vt 0.5540 0.1998
vt 0.5364 0.2062
vt 0.5571 0.2269
vt 0.5651 0.2100
vt 0.5897 0.1832
vt 0.6073 0.1768
vt 0.5718 0.1915
vt 0.5260 0.1767
vt 0.5260 0.2306
vt 0.5200 0.2306
vt 0.5200 0.1767
vt 0.5319 0.1767
vt 0.5319 0.2306
vt 0.5141 0.2306
vt 0.5141 0.1767
vt 0.5081 0.2306
vt 0.5081 0.1767
vt 0.5141 0.1550
vt 0.5081 0.1550
vt 0.5200 0.1550
vt 0.5319 0.1550
vt 0.5260 0.1550
vt 0.5865 0.2269
vt 0.5801 0.2093
vt 0.5903 0.1982
vt 0.6073 0.2062
vt 0.5865 0.1560
vt 0.5786 0.1730
vt 0.5635 0.1736
vt 0.5571 0.1560
vt 0.5364 0.1768
vt 0.5533 0.1847
vt 0.5540 0.1998
vt 0.5364 0.2062
vt 0.5571 0.2269
vt 0.5651 0.2100
vt 0.5897 0.1832
vt 0.6073 0.1768
vt 0.5718 0.1915
vt 0.5260 0.1716
vt 0.5260 0.2306
vt 0.5200 0.2306
vt 0.5200 0.1716
vt 0.5319 0.1716
vt 0.5319 0.2306
vt 0.5141 0.2306
vt 0.5141 0.1716
vt 0.5081 0.2306
vt 0.5081 0.1716
vt 0.5141 0.1550
vt 0.5081 0.1550
vt 0.5200 0.1550
vt 0.5319 0.1550
vt 0.5260 0.1550
vt 0.7198 0.2269
vt 0.7134 0.2093
vt 0.7237 0.1982
vt 0.7406 0.2062
vt 0.7198 0.1560
vt 0.7119 0.1730
vt 0.6969 0.1736
vt 0.6905 0.1560
vt 0.6697 0.1768
vt 0.6866 0.1847
vt 0.6873 0.1998
vt 0.6697 0.2062
vt 0.6905 0.2269
vt 0.6984 0.2100
vt 0.7230 0.1832
vt 0.7406 0.1768
vt 0.7051 0.1915
vt 0.6593 0.2037
vt 0.6593 0.2306
vt 0.6533 0.2306
vt 0.6533 0.2037
vt 0.6652 0.2037
vt 0.6652 0.2306
vt 0.6474 0.2306
vt 0.6474 0.2037
vt 0.6415 0.2306
vt 0.6415 0.2037
vt 0.6474 0.1550
vt 0.6474 0.1767
vt 0.6415 0.1767
vt 0.6415 0.1550
vt 0.6533 0.1550
vt 0.6533 0.1767
vt 0.6652 0.1550
vt 0.6652 0.1767
vt 0.6593 0.1767
vt 0.6593 0.1550
vt 0.5865 0.2269
vt 0.5801 0.2093
vt 0.5903 0.1982
vt 0.6073 0.2062
vt 0.5865 0.1560
vt 0.5786 0.1730
vt 0.5635 0.1736
vt 0.5571 0.1560
vt 0.5364 0.1768
vt 0.5533 0.1847
vt 0.5540 0.1998
vt 0.5364 0.2062
vt 0.5571 0.2269
vt 0.5651 0.2100
vt 0.5897 0.1832
vt 0.6073 0.1768
vt 0.5718 0.1915
vt 0.5260 0.1767
vt 0.5260 0.2306
vt 0.5200 0.2306
vt 0.5200 0.1767
vt 0.5319 0.1767
vt 0.5319 0.2306
vt 0.5141 0.2306
vt 0.5141 0.1767
vt 0.5081 0.2306
vt 0.5081 0.1767
vt 0.5141 0.1550
vt 0.5081 0.1550
vt 0.5200 0.1550
vt 0.5319 0.1550
vt 0.5260 0.1550
vn 0.5895 0.4906 0.6417
vn -0.9702 0.2380 0.0463
vn -0.1067 0.4321 -0.8955
vn 0.8277 0.5610 -0.0121
vn -0.0357 0.3668 0.9296
vn -0.6818 0.2622 0.6830
vn -0.7320 0.3084 -0.6075
vn 0.5393 0.5368 -0.6488
vn 0.1524 0.9826 -0.1064
vn -0.0181 0.9322 0.3615
vn -0.4804 0.8573 0.1850
vn -0.3099 0.9077 -0.2829
vn 0.8725 0.2614 -0.4128
vn -0.3641 -0.2135 -0.9066
vn 0.3639 0.2138 0.9066
vn -0.8723 -0.2621 0.4129
vn -0.7205 -0.6030 0.3423
vn 0.3380 0.4712 0.8147
vn -0.3315 -0.4900 -0.8062
vn 0.7491 0.5611 -0.3521
vn -0.8658 0.4551 0.2081
vn 0.4977 0.1223 -0.8587
vn 0.8692 0.2383 0.4332
vn -0.4142 0.4660 0.7818
vn -0.7857 0.3499 -0.5101
vn -0.2210 0.2121 -0.9519
vn 0.9493 0.1332 -0.2849
vn 0.3044 0.3762 0.8751
vn 0.0915 0.9693 0.2281
vn -0.2180 0.9619 -0.1652
vn 0.1691 0.8674 -0.4680
vn 0.4786 0.8748 -0.0748
vn -0.0872 0.2148 0.9728
vn 0.9711 -0.2036 0.1245
vn -0.9713 0.2030 -0.1244
vn 0.0872 -0.2148 -0.9728
vn 0.1001 -0.3464 -0.9327
vn -0.8096 0.5670 -0.1518
vn 0.8096 -0.5670 0.1518
vn -0.1001 0.3464 0.9327
vn -0.7072 0.2565 0.6589
vn 0.0169 0.2935 -0.9558
vn 0.9472 0.3195 0.0276
vn -0.0374 0.2781 0.9598
vn -0.9673 0.2521 -0.0272
vn -0.6670 0.2674 -0.6954
vn 0.6850 0.3150 -0.6569
vn 0.6484 0.3042 0.6978
vn 0.1161 0.9131 0.3907
vn -0.4216 0.8945 0.1490
vn -0.1802 0.9042 -0.3871
vn 0.3558 0.9228 -0.1475
vn 0.3596 0.0371 0.9324
vn 0.9286 0.0889 -0.3603
vn -0.9286 -0.0887 0.3604
vn -0.3595 -0.0388 -0.9323
vn -0.3692 0.0838 -0.9256
vn -0.9274 -0.0370 0.3723
vn 0.9274 0.0370 -0.3723
vn 0.3692 -0.0838 0.9256
vn -0.3660 0.0415 -0.9297
vn -0.8946 0.2002 0.3996
vn 0.8946 -0.2002 -0.3996
vn 0.3660 -0.0415 0.9297
vn 0.1047 0.4275 -0.8980
vn 0.6003 0.3589 0.7147
vn -0.6849 0.4212 0.5946
vn -0.5632 0.4522 -0.6916
vn 0.7221 0.3899 -0.5715
vn 0.9274 0.3615 0.0965
vn -0.0675 0.3836 0.9210
vn -0.8902 0.4496 -0.0734
vn -0.2696 0.9529 -0.1386
vn 0.2083 0.9352 -0.2863
vn 0.3552 0.9149 0.1918
vn -0.1227 0.9326 0.3394
vn -0.8832 0.0155 -0.4687
vn -0.4700 -0.1517 0.8695
vn 0.4700 0.1578 -0.8685
vn 0.8831 -0.0087 0.4691
vn 0.8624 -0.2332 0.4494
vn 0.4505 0.3701 -0.8125
vn -0.4505 -0.3701 0.8125
vn -0.8624 0.2332 -0.4494
s off
f 3/1/1 11/2/1 10/3/1 2/4/1
f 8/5/2 16/6/2 15/7/2 7/8/2
f 6/9/3 14/10/3 13/11/3 5/12/3
f 4/13/4 12/14/4 11/2/4 3/1/4
f 2/4/5 10/3/5 9/15/5 1/16/5
f 1/16/6 9/15/6 16/6/6 8/5/6
f 7/8/7 15/7/7 14/10/7 6/9/7
f 5/12/8 13/11/8 12/14/8 4/13/8
f 11/2/9 12/14/9 13/11/9 17/17/9
f 10/3/10 11/2/10 17/17/10 9/15/10
f 9/15/11 17/17/11 15/7/11 16/6/11
f 17/17/12 13/11/12 14/10/12 15/7/12
f 27/18/13 24/19/13 23/20/13 26/21/13
f 28/22/14 25/23/14 24/19/14 27/18/14
f 26/21/15 23/20/15 22/24/15 29/25/15
f 29/25/16 22/24/16 25/26/16 28/27/16
f 18/28/17 29/25/17 28/27/17 21/29/17
f 19/30/18 26/21/18 29/25/18 18/28/18
f 21/31/19 28/22/19 27/18/19 20/32/19
f 20/32/20 27/18/20 26/21/20 19/30/20
f 32/33/21 40/34/21 39/35/21 31/36/21
f 37/37/22 45/38/22 44/39/22 36/40/22
f 35/41/23 43/42/23 42/43/23 34/44/23
f 33/45/24 41/46/24 40/34/24 32/33/24
f 31/36/25 39/35/25 38/47/25 30/48/25
f 30/48/26 38/47/26 45/38/26 37/37/26
f 36/40/27 44/39/27 43/42/27 35/41/27
f 34/44/28 42/43/28 41/46/28 33/45/28
f 40/34/29 41/46/29 42/43/29 46/49/29
f 39/35/30 40/34/30 46/49/30 38/47/30
f 38/47/31 46/49/31 44/39/31 45/38/31
f 46/49/32 42/43/32 43/42/32 44/39/32
f 56/50/33 53/51/33 52/52/33 55/53/33
f 57/54/34 54/55/34 53/51/34 56/50/34
f 55/53/35 52/52/35 51/56/35 58/57/35
f 58/57/36 51/56/36 54/58/36 57/59/36
f 47/60/37 58/57/37 57/59/37 50/61/37
f 48/62/38 55/53/38 58/57/38 47/60/38
f 50/63/39 57/54/39 56/50/39 49/64/39
f 49/64/40 56/50/40 55/53/40 48/62/40
f 61/65/41 69/66/41 68/67/41 60/68/41
f 66/69/42 74/70/42 73/71/42 65/72/42
f 64/73/43 72/74/43 71/75/43 63/76/43
f 62/77/44 70/78/44 69/66/44 61/65/44
f 60/68/45 68/67/45 67/79/45 59/80/45
f 59/80/46 67/79/46 74/70/46 66/69/46
f 65/72/47 73/71/47 72/74/47 64/73/47
f 63/76/48 71/75/48 70/78/48 62/77/48
f 69/66/49 70/78/49 71/75/49 75/81/49
f 68/67/50 69/66/50 75/81/50 67/79/50
f 67/79/51 75/81/51 73/71/51 74/70/51
f 75/81/52 71/75/52 72/74/52 73/71/52
f 90/82/53 82/83/53 81/84/53 88/85/53
f 91/86/54 83/87/54 82/83/54 90/82/54
f 88/85/55 81/84/55 80/88/55 89/89/55
f 89/89/56 80/88/56 83/90/56 91/91/56
f 76/92/57 87/93/57 86/94/57 79/95/57
f 77/96/58 84/97/58 87/93/58 76/92/58
f 79/98/59 86/99/59 85/100/59 78/101/59
f 78/101/60 85/100/60 84/97/60 77/96/60
f 87/93/61 89/89/61 91/91/61 86/94/61
f 84/97/62 88/85/62 89/89/62 87/93/62
f 86/99/63 91/86/63 90/82/63 85/100/63
f 85/100/64 90/82/64 88/85/64 84/97/64
f 94/102/65 102/103/65 101/104/65 93/105/65
f 99/106/66 107/107/66 106/108/66 98/109/66
f 97/110/67 105/111/67 104/112/67 96/113/67
f 95/114/68 103/115/68 102/103/68 94/102/68
f 93/105/69 101/104/69 100/116/69 92/117/69
f 92/117/70 100/116/70 107/107/70 99/106/70
f 98/109/71 106/108/71 105/111/71 97/110/71
f 96/113/72 104/112/72 103/115/72 95/114/72
f 102/103/73 103/115/73 104/112/73 108/118/73
f 101/104/74 102/103/74 108/118/74 100/116/74
f 100/116/75 108/118/75 106/108/75 107/107/75
f 108/118/76 104/112/76 105/111/76 106/108/76
f 118/119/77 115/120/77 114/121/77 117/122/77
f 119/123/78 116/124/78 115/120/78 118/119/78
f 117/122/79 114/121/79 113/125/79 120/126/79
f 120/126/80 113/125/80 116/127/80 119/128/80
f 109/129/81 120/126/81 119/128/81 112/130/81
f 110/131/82 117/122/82 120/126/82 109/129/82
f 112/132/83 119/123/83 118/119/83 111/133/83
f 111/133/84 118/119/84 117/122/84 110/131/84
