# Blender v2.78 (sub 0) OBJ File: 'Low_Poly_Vegetation_Pack.blend'
# www.blender.org
g Mushroom_b_04
v 0.000878 0.172610 -0.053899
v 0.030991 0.170650 -0.069676
v 0.041056 0.165494 -0.101796
v 0.025176 0.160163 -0.131444
v -0.007346 0.157779 -0.141252
v -0.037460 0.159740 -0.125475
v -0.047524 0.164895 -0.093355
v -0.031644 0.170226 -0.063707
v -0.002906 0.226696 -0.079098
v 0.016273 0.225447 -0.089147
v 0.022684 0.222164 -0.109604
v 0.012569 0.218768 -0.128487
v -0.008144 0.217250 -0.134734
v -0.027324 0.218499 -0.124686
v -0.033734 0.221782 -0.104228
v -0.023620 0.225178 -0.085345
v -0.005904 0.238622 -0.109707
v 0.004829 0.001356 -0.079366
v 0.011999 -0.000289 -0.087930
v 0.003281 -0.001356 -0.095024
v -0.003889 0.000289 -0.086460
v -0.003220 0.218428 -0.098405
v 0.003990 0.216793 -0.106938
v -0.004694 0.215763 -0.114080
v -0.011905 0.217399 -0.105547
v 0.114273 0.102147 -0.003789
v 0.089887 0.102833 -0.015150
v 0.064604 0.103187 -0.005937
v 0.053234 0.103001 0.018454
v 0.062438 0.102385 0.043736
v 0.086825 0.101699 0.055098
v 0.112108 0.101345 0.045884
v 0.123477 0.101531 0.021493
v 0.105301 0.163263 0.006609
v 0.090518 0.163679 -0.000279
v 0.075191 0.163894 0.005306
v 0.068298 0.163781 0.020093
v 0.073878 0.163407 0.035419
v 0.088661 0.162991 0.042307
v 0.103988 0.162777 0.036721
v 0.110881 0.162889 0.021935
v 0.089846 0.176033 0.021230
v 0.067290 0.000000 0.004235
v 0.061109 0.000000 0.003995
v 0.060869 0.000000 0.010175
v 0.067050 0.000000 0.010415
v 0.092605 0.153020 0.017883
v 0.086427 0.153149 0.017615
v 0.086158 0.153049 0.023794
v 0.092336 0.152920 0.024061
v 0.075596 0.057122 0.014526
v 0.075345 0.057085 0.020706
v 0.081525 0.057036 0.020957
v 0.081776 0.057074 0.014777
v -0.195369 0.160924 0.022393
v -0.157446 0.162005 0.041319
v -0.117239 0.162562 0.027881
v -0.098300 0.162270 -0.010050
v -0.111723 0.161298 -0.050254
v -0.149646 0.160217 -0.069180
v -0.189853 0.159660 -0.055742
v -0.208792 0.159952 -0.017811
v -0.180799 0.257207 0.006399
v -0.157809 0.257862 0.017872
v -0.133435 0.258200 0.009726
v -0.121954 0.258023 -0.013269
v -0.130091 0.257434 -0.037641
v -0.153081 0.256778 -0.049115
v -0.177455 0.256440 -0.040968
v -0.188936 0.256618 -0.017974
v -0.155840 0.277324 -0.015973
v -0.121037 0.000000 0.011748
v -0.111314 0.000000 0.012388
v -0.110674 0.000000 0.002665
v -0.120397 0.000000 0.002025
v -0.160327 0.241069 -0.010818
v -0.150608 0.241273 -0.010135
v -0.149922 0.241115 -0.019854
v -0.159641 0.240912 -0.020537
v -0.133682 0.089991 -0.004812
v -0.133025 0.089932 -0.014533
v -0.142746 0.089856 -0.015189
v -0.143404 0.089915 -0.005468
v -0.020886 0.177339 0.012522
v -0.063309 0.180696 0.030046
v -0.080868 0.183285 0.072509
v -0.063276 0.183590 0.115036
v -0.020839 0.181433 0.132716
v 0.021584 0.178076 0.115191
v 0.039143 0.175487 0.072728
v 0.021551 0.175181 0.030201
v -0.013022 0.298742 0.026265
v -0.042837 0.301101 0.038581
v -0.055178 0.302921 0.068425
v -0.042814 0.303136 0.098313
v -0.012989 0.301619 0.110739
v 0.016826 0.299260 0.098422
v 0.029167 0.297440 0.068579
v 0.016803 0.297226 0.038690
v -0.011372 0.325296 0.067646
v -0.014469 0.000000 0.060888
v -0.023141 0.000000 0.069560
v -0.014469 0.000000 0.078231
v -0.005798 0.000000 0.069560
v -0.014469 0.253543 0.060888
v -0.023141 0.253543 0.069560
v -0.014469 0.253543 0.078231
v -0.005798 0.253543 0.069560
v -0.034978 0.126772 0.081381
v -0.026306 0.126772 0.090053
v -0.017635 0.126772 0.081381
v -0.026306 0.126772 0.072710
vt 0.2860 0.1424
vt 0.3002 0.1792
vt 0.2981 0.1823
vt 0.2620 0.1663
vt 0.2860 0.2241
vt 0.3019 0.1880
vt 0.3056 0.1873
vt 0.3198 0.2241
vt 0.3437 0.2002
vt 0.3077 0.1842
vt 0.3069 0.1806
vt 0.3437 0.1663
vt 0.3198 0.1424
vt 0.3038 0.1785
vt 0.2988 0.1859
vt 0.2620 0.2002
vt 0.3029 0.1832
vt 0.3562 0.1424
vt 0.3562 0.2281
vt 0.3520 0.2281
vt 0.3520 0.1424
vt 0.3603 0.1424
vt 0.3603 0.2281
vt 0.3479 0.2281
vt 0.3479 0.1424
vt 0.3438 0.2281
vt 0.3438 0.1424
vt 0.2860 0.1424
vt 0.3002 0.1792
vt 0.2981 0.1823
vt 0.2620 0.1663
vt 0.2860 0.2241
vt 0.3019 0.1880
vt 0.3056 0.1873
vt 0.3198 0.2241
vt 0.3437 0.2002
vt 0.3077 0.1842
vt 0.3069 0.1806
vt 0.3437 0.1663
vt 0.3198 0.1424
vt 0.3038 0.1785
vt 0.2988 0.1859
vt 0.2620 0.2002
vt 0.3029 0.1832
vt 0.3562 0.1744
vt 0.3562 0.2281
vt 0.3520 0.2281
vt 0.3520 0.1744
vt 0.3603 0.1744
vt 0.3603 0.2281
vt 0.3479 0.2281
vt 0.3479 0.1744
vt 0.3438 0.2281
vt 0.3438 0.1744
vt 0.3479 0.1424
vt 0.3438 0.1424
vt 0.3520 0.1424
vt 0.3603 0.1424
vt 0.3562 0.1424
vt 0.2860 0.1424
vt 0.3002 0.1792
vt 0.2981 0.1823
vt 0.2620 0.1663
vt 0.2860 0.2241
vt 0.3019 0.1880
vt 0.3056 0.1873
vt 0.3198 0.2241
vt 0.3437 0.2002
vt 0.3077 0.1842
vt 0.3069 0.1806
vt 0.3437 0.1663
vt 0.3198 0.1424
vt 0.3038 0.1785
vt 0.2988 0.1859
vt 0.2620 0.2002
vt 0.3029 0.1832
vt 0.3562 0.1744
vt 0.3562 0.2281
vt 0.3520 0.2281
vt 0.3520 0.1744
vt 0.3603 0.1744
vt 0.3603 0.2281
vt 0.3479 0.2281
vt 0.3479 0.1744
vt 0.3438 0.2281
vt 0.3438 0.1744
vt 0.3479 0.1424
vt 0.3438 0.1424
vt 0.3520 0.1424
vt 0.3603 0.1424
vt 0.3562 0.1424
vt 0.3096 0.1456
vt 0.3227 0.1796
vt 0.3208 0.1825
vt 0.2874 0.1677
vt 0.3096 0.2212
vt 0.3243 0.1878
vt 0.3277 0.1872
vt 0.3409 0.2212
vt 0.3630 0.1991
vt 0.3296 0.1843
vt 0.3290 0.1809
vt 0.3630 0.1677
vt 0.3409 0.1456
vt 0.3261 0.1790
vt 0.3215 0.1859
vt 0.2874 0.1991
vt 0.3252 0.1834
vt 0.2803 0.1852
vt 0.2803 0.2249
vt 0.2764 0.2249
vt 0.2764 0.1852
vt 0.2841 0.1852
vt 0.2841 0.2249
vt 0.2726 0.2249
vt 0.2726 0.1852
vt 0.2688 0.2249
vt 0.2688 0.1852
vt 0.2726 0.1456
vt 0.2688 0.1456
vt 0.2764 0.1456
vt 0.2841 0.1456
vt 0.2803 0.1456
vn 0.9150 0.3289 0.2339
vn -0.8647 0.2882 0.4113
vn -0.4575 0.0908 -0.8845
vn 0.8465 0.2068 -0.4906
vn 0.4451 0.4036 0.7994
vn -0.2921 0.3870 0.8746
vn -0.9333 0.1653 -0.3190
vn 0.2798 0.1083 -0.9539
vn 0.3076 0.7891 -0.5317
vn 0.3745 0.9098 0.1790
vn -0.3461 0.9049 0.2477
vn -0.4130 0.7843 -0.4630
vn 0.6357 -0.0442 -0.7706
vn -0.7704 -0.0839 -0.6320
vn 0.7704 0.0839 0.6320
vn -0.6357 0.0442 0.7706
vn -0.3306 0.2273 -0.9160
vn 0.8911 0.1799 0.4167
vn -0.4094 0.1981 0.8906
vn -0.8828 0.2298 -0.4097
vn 0.4176 0.2116 -0.8836
vn 0.9237 0.1920 -0.3316
vn 0.3389 0.1825 0.9230
vn -0.9154 0.2177 0.3386
vn -0.4940 0.8695 -0.0075
vn 0.0396 0.8670 -0.4967
vn 0.5287 0.8480 0.0367
vn -0.0049 0.8505 0.5260
vn -0.9927 0.1132 -0.0406
vn -0.0422 -0.0275 0.9987
vn 0.0422 0.0275 -0.9987
vn 0.9927 -0.1133 0.0405
vn 0.9669 -0.2524 0.0377
vn 0.0397 0.1716 -0.9844
vn -0.0397 -0.1717 0.9844
vn -0.9670 0.2522 -0.0377
vn 0.3059 0.2273 0.9245
vn -0.8795 0.1799 -0.4405
vn 0.4332 0.1981 -0.8793
vn 0.8714 0.2298 0.4333
vn -0.4413 0.2116 0.8721
vn -0.9323 0.1920 0.3066
vn -0.3139 0.1825 -0.9317
vn 0.9242 0.2177 -0.3138
vn 0.4936 0.8695 0.0208
vn -0.0530 0.8670 0.4955
vn -0.5275 0.8480 -0.0510
vn 0.0191 0.8505 -0.5256
vn 0.9913 0.1132 0.0672
vn 0.0691 -0.0275 -0.9972
vn -0.0691 0.0275 0.9972
vn -0.9913 -0.1133 -0.0672
vn -0.9655 -0.2524 -0.0637
vn -0.0662 0.1716 0.9829
vn 0.0662 -0.1717 -0.9829
vn 0.9656 0.2522 0.0637
vn -0.9049 0.1812 -0.3852
vn 0.9221 0.0624 -0.3819
vn 0.3875 0.1413 0.9110
vn -0.9046 0.2070 0.3727
vn -0.3700 0.1281 -0.9202
vn 0.3868 0.0790 -0.9188
vn 0.9224 0.0882 0.3760
vn -0.3053 0.8925 0.3319
vn -0.3056 0.8679 -0.3916
vn 0.4168 0.8210 -0.3903
vn 0.4171 0.8456 0.3332
vn -0.7010 0.1308 0.7010
vn 0.7071 -0.0001 0.7071
vn -0.7071 0.0001 -0.7071
vn 0.7010 -0.1308 -0.7010
vn 0.7010 0.1308 -0.7010
vn -0.7071 -0.0001 -0.7071
vn 0.7071 0.0001 0.7071
vn -0.7010 -0.1308 0.7010
vn -0.3693 0.1904 0.9096
s off
f 3/1/1 11/2/1 10/3/1 2/4/1
f 8/5/2 16/6/2 15/7/2 7/8/2
f 6/9/3 14/10/3 13/11/3 5/12/3
f 4/13/4 12/14/4 11/2/4 3/1/4
f 2/4/5 10/3/5 9/15/5 1/16/5
f 1/16/6 9/15/6 16/6/6 8/5/6
f 7/8/7 15/7/7 14/10/7 6/9/7
f 5/12/8 13/11/8 12/14/8 4/13/8
f 11/2/9 12/14/9 13/11/9 17/17/9
f 10/3/10 11/2/10 17/17/10 9/15/10
f 9/15/11 17/17/11 15/7/11 16/6/11
f 17/17/12 13/11/12 14/10/12 15/7/12
f 20/18/13 24/19/13 23/20/13 19/21/13
f 21/22/14 25/23/14 24/19/14 20/18/14
f 19/21/15 23/20/15 22/24/15 18/25/15
f 18/25/16 22/24/16 25/26/16 21/27/16
f 28/28/17 36/29/17 35/30/17 27/31/17
f 33/32/18 41/33/18 40/34/18 32/35/18
f 31/36/19 39/37/19 38/38/19 30/39/19
f 29/40/20 37/41/20 36/29/20 28/28/20
f 27/31/21 35/30/21 34/42/21 26/43/21
f 26/43/22 34/42/22 41/33/22 33/32/22
f 32/35/23 40/34/23 39/37/23 31/36/23
f 30/39/24 38/38/24 37/41/24 29/40/24
f 36/29/25 37/41/25 38/38/25 42/44/25
f 35/30/26 36/29/26 42/44/26 34/42/26
f 34/42/27 42/44/27 40/34/27 41/33/27
f 42/44/28 38/38/28 39/37/28 40/34/28
f 52/45/29 49/46/29 48/47/29 51/48/29
f 53/49/30 50/50/30 49/46/30 52/45/30
f 51/48/31 48/47/31 47/51/31 54/52/31
f 54/52/32 47/51/32 50/53/32 53/54/32
f 43/55/33 54/52/33 53/54/33 46/56/33
f 44/57/34 51/48/34 54/52/34 43/55/34
f 46/58/35 53/49/35 52/45/35 45/59/35
f 45/59/36 52/45/36 51/48/36 44/57/36
f 57/60/37 65/61/37 64/62/37 56/63/37
f 62/64/38 70/65/38 69/66/38 61/67/38
f 60/68/39 68/69/39 67/70/39 59/71/39
f 58/72/40 66/73/40 65/61/40 57/60/40
f 56/63/41 64/62/41 63/74/41 55/75/41
f 55/75/42 63/74/42 70/65/42 62/64/42
f 61/67/43 69/66/43 68/69/43 60/68/43
f 59/71/44 67/70/44 66/73/44 58/72/44
f 65/61/45 66/73/45 67/70/45 71/76/45
f 64/62/46 65/61/46 71/76/46 63/74/46
f 63/74/47 71/76/47 69/66/47 70/65/47
f 71/76/48 67/70/48 68/69/48 69/66/48
f 81/77/49 78/78/49 77/79/49 80/80/49
f 82/81/50 79/82/50 78/78/50 81/77/50
f 80/80/51 77/79/51 76/83/51 83/84/51
f 83/84/52 76/83/52 79/85/52 82/86/52
f 72/87/53 83/84/53 82/86/53 75/88/53
f 73/89/54 80/80/54 83/84/54 72/87/54
f 75/90/55 82/81/55 81/77/55 74/91/55
f 74/91/56 81/77/56 80/80/56 73/89/56
f 86/92/57 94/93/57 93/94/57 85/95/57
f 91/96/58 99/97/58 98/98/58 90/99/58
f 89/100/59 97/101/59 96/102/59 88/103/59
f 87/104/60 95/105/60 94/93/60 86/92/60
f 85/95/61 93/94/61 92/106/61 84/107/61
f 84/107/62 92/106/62 99/97/62 91/96/62
f 90/99/63 98/98/63 97/101/63 89/100/63
f 94/93/64 95/105/64 96/102/64 100/108/64
f 93/94/65 94/93/65 100/108/65 92/106/65
f 92/106/66 100/108/66 98/98/66 99/97/66
f 100/108/67 96/102/67 97/101/67 98/98/67
f 110/109/68 107/110/68 106/111/68 109/112/68
f 111/113/69 108/114/69 107/110/69 110/109/69
f 109/112/70 106/111/70 105/115/70 112/116/70
f 112/116/71 105/115/71 108/117/71 111/118/71
f 101/119/72 112/116/72 111/118/72 104/120/72
f 102/121/73 109/112/73 112/116/73 101/119/73
f 104/122/74 111/113/74 110/109/74 103/123/74
f 103/123/75 110/109/75 109/112/75 102/121/75
f 88/103/76 96/102/76 95/105/76 87/104/76
