# Blender v2.78 (sub 0) OBJ File: 'Low_Poly_Vegetation_Pack.blend'
# www.blender.org
g Mushroom_a_05
v 0.122002 0.154575 -0.013525
v 0.137758 0.147831 -0.078555
v 0.102749 0.144681 -0.135887
v 0.037482 0.146969 -0.151937
v -0.019809 0.153355 -0.117304
v -0.035565 0.160099 -0.052275
v -0.000556 0.163249 0.005057
v 0.064711 0.160961 0.021108
v 0.101391 0.192878 -0.033678
v 0.112078 0.188304 -0.077787
v 0.088332 0.186168 -0.116674
v 0.044063 0.187720 -0.127561
v 0.005203 0.192051 -0.104070
v -0.005484 0.196625 -0.059961
v 0.018262 0.198762 -0.021074
v 0.062531 0.197210 -0.010187
v 0.053967 0.204181 -0.069927
v 0.007795 -0.010771 0.006057
v 0.006057 -0.010771 -0.007795
v -0.007795 -0.010771 -0.006057
v -0.006057 -0.010771 0.007795
v 0.060096 0.177827 -0.061251
v 0.058358 0.177827 -0.075104
v 0.044505 0.177827 -0.073365
v 0.046243 0.177827 -0.059513
v 0.045412 0.075982 -0.058458
v 0.031979 0.079586 -0.057238
v 0.034026 0.082659 -0.043774
v 0.047459 0.079055 -0.044994
v -0.043644 0.243367 -0.128887
v -0.133363 0.247709 -0.088688
v -0.168472 0.248776 0.003282
v -0.128406 0.245944 0.093147
v -0.036633 0.240871 0.128267
v 0.053085 0.236530 0.088067
v 0.088195 0.235462 -0.003902
v 0.048128 0.238294 -0.093767
v -0.038972 0.290007 -0.086958
v -0.099827 0.292951 -0.059691
v -0.123641 0.293675 0.002690
v -0.096464 0.291754 0.063644
v -0.034217 0.288314 0.087465
v 0.026638 0.285369 0.060199
v 0.050452 0.284645 -0.002183
v 0.023276 0.286566 -0.063137
v -0.035516 0.303476 0.000425
v -0.000002 -0.015768 -0.014454
v -0.014455 -0.015768 -0.000002
v -0.000002 -0.015768 0.014451
v 0.014451 -0.015768 -0.000002
v -0.037515 0.285329 -0.014454
v -0.051764 0.287748 -0.000002
v -0.037515 0.285329 0.014451
v -0.023266 0.282910 -0.000002
v -0.046287 0.135587 0.000013
v -0.032117 0.138532 0.014445
v -0.017833 0.140670 -0.000016
v -0.032002 0.137725 -0.014448
v -0.219397 0.140717 -0.112219
v -0.297172 0.132121 -0.077219
v -0.327497 0.128106 0.002857
v -0.292608 0.131022 0.081101
v -0.212942 0.139162 0.111679
v -0.135167 0.147758 0.076678
v -0.104842 0.151773 -0.003398
v -0.139731 0.148857 -0.081642
v -0.223561 0.189540 -0.075713
v -0.276315 0.183710 -0.051972
v -0.296884 0.180986 0.002342
v -0.273219 0.182964 0.055413
v -0.219183 0.188486 0.076154
v -0.166429 0.194316 0.052413
v -0.145861 0.197040 -0.001901
v -0.169525 0.195062 -0.054972
v -0.222955 0.203947 0.000370
v 0.007002 -0.030259 -0.014454
v -0.007451 -0.030259 -0.000002
v 0.007002 -0.030259 0.014451
v 0.021454 -0.030259 -0.000002
v -0.219017 0.170355 -0.012585
v -0.231600 0.170355 -0.000002
v -0.219017 0.170355 0.012582
v -0.206433 0.170355 -0.000002
v -0.213851 0.090450 -0.000074
v -0.203499 0.096307 0.012156
v -0.193444 0.103036 0.000070
v -0.203796 0.097178 -0.012159
v -0.090614 0.052444 0.010460
v -0.087953 0.062456 -0.000004
v -0.093119 0.042427 0.000001
v -0.090458 0.052439 -0.010463
vt 0.0855 0.2426
vt 0.0754 0.2148
vt 0.0916 0.1972
vt 0.1184 0.2097
vt 0.0855 0.1304
vt 0.0730 0.1572
vt 0.0492 0.1582
vt 0.0391 0.1304
vt 0.0062 0.1633
vt 0.0330 0.1758
vt 0.0340 0.1996
vt 0.0062 0.2097
vt 0.0391 0.2426
vt 0.0516 0.2158
vt 0.0906 0.1734
vt 0.1184 0.1633
vt 0.0623 0.1865
vt 0.1863 0.1802
vt 0.1867 0.1993
vt 0.1838 0.1997
vt 0.1838 0.1803
vt 0.1889 0.1800
vt 0.1894 0.1988
vt 0.1808 0.1993
vt 0.1812 0.1801
vt 0.1782 0.1988
vt 0.1786 0.1800
vt 0.1813 0.1599
vt 0.1789 0.1587
vt 0.1838 0.1610
vt 0.1886 0.1587
vt 0.1862 0.1599
vt 0.0855 0.2426
vt 0.0754 0.2148
vt 0.0916 0.1972
vt 0.1184 0.2097
vt 0.0855 0.1304
vt 0.0730 0.1572
vt 0.0492 0.1582
vt 0.0391 0.1304
vt 0.0062 0.1633
vt 0.0330 0.1758
vt 0.0340 0.1996
vt 0.0062 0.2097
vt 0.0391 0.2426
vt 0.0516 0.2158
vt 0.0906 0.1734
vt 0.1184 0.1633
vt 0.0623 0.1865
vt 0.1863 0.1802
vt 0.1867 0.1993
vt 0.1838 0.1997
vt 0.1838 0.1803
vt 0.1889 0.1800
vt 0.1894 0.1988
vt 0.1808 0.1993
vt 0.1812 0.1801
vt 0.1782 0.1988
vt 0.1786 0.1800
vt 0.1813 0.1599
vt 0.1789 0.1587
vt 0.1838 0.1610
vt 0.1886 0.1587
vt 0.1862 0.1599
vt 0.0855 0.2426
vt 0.0754 0.2148
vt 0.0916 0.1972
vt 0.1184 0.2097
vt 0.0855 0.1304
vt 0.0730 0.1572
vt 0.0492 0.1582
vt 0.0391 0.1304
vt 0.0062 0.1633
vt 0.0330 0.1758
vt 0.0340 0.1996
vt 0.0062 0.2097
vt 0.0391 0.2426
vt 0.0516 0.2158
vt 0.0906 0.1734
vt 0.1184 0.1633
vt 0.0623 0.1865
vt 0.1865 0.1895
vt 0.1867 0.1993
vt 0.1838 0.1997
vt 0.1838 0.1898
vt 0.1891 0.1892
vt 0.1894 0.1988
vt 0.1808 0.1993
vt 0.1810 0.1895
vt 0.1782 0.1988
vt 0.1784 0.1892
vt 0.1812 0.1747
vt 0.1786 0.1739
vt 0.1838 0.1754
vt 0.1889 0.1739
vt 0.1863 0.1747
vt 0.1862 0.1599
vt 0.1838 0.1610
vt 0.1886 0.1587
vt 0.1813 0.1599
vt 0.1789 0.1587
vn 0.7380 0.4773 -0.4769
vn -0.1625 0.6392 0.7517
vn -0.7728 0.5843 -0.2478
vn 0.2260 0.4729 -0.8516
vn 0.8364 0.5279 0.1479
vn 0.4634 0.5949 0.6568
vn -0.6745 0.6348 0.3770
vn -0.3998 0.5172 -0.7567
vn 0.0257 0.9601 -0.2786
vn 0.2470 0.9620 -0.1167
vn 0.0858 0.9909 0.1033
vn -0.1355 0.9890 -0.0586
vn -0.1255 -0.1448 -0.9815
vn -0.9821 0.1454 0.1197
vn 0.9822 -0.1449 -0.1198
vn 0.1256 0.1458 0.9813
vn 0.1533 0.4312 0.8891
vn 0.8937 -0.4426 -0.0741
vn -0.8983 0.4327 0.0758
vn -0.1540 -0.4399 -0.8847
vn -0.6834 0.6788 -0.2688
vn 0.7476 0.5847 -0.3149
vn 0.3511 0.6002 0.7187
vn -0.6685 0.6717 0.3192
vn -0.2816 0.6569 -0.6994
vn 0.3105 0.6181 -0.7222
vn 0.7651 0.5772 0.2854
vn -0.2437 0.6395 0.7292
vn -0.0599 0.9902 0.1258
vn -0.0661 0.9925 -0.1030
vn 0.1631 0.9805 -0.1100
vn 0.1695 0.9782 0.1201
vn -0.7124 -0.0259 0.7013
vn 0.7116 0.0266 0.7020
vn -0.7117 -0.0261 -0.7020
vn 0.7123 0.0269 -0.7013
vn 0.6955 0.1442 -0.7039
vn -0.6963 -0.1458 -0.7028
vn 0.6965 0.1444 0.7029
vn -0.6953 -0.1455 0.7038
vn -0.8294 0.4773 -0.2902
vn 0.6932 0.6392 -0.3329
vn 0.2785 0.5843 0.7623
vn -0.8111 0.4729 0.3441
vn -0.3964 0.5279 -0.7512
vn 0.2343 0.5949 -0.7689
vn 0.7115 0.6348 0.3013
vn -0.3522 0.5172 0.7800
vn -0.2358 0.9601 0.1507
vn -0.2437 0.9620 -0.1235
vn 0.0289 0.9909 -0.1312
vn 0.0369 0.9890 0.1430
vn -0.7070 -0.1550 0.6901
vn 0.7099 0.1414 0.6900
vn -0.7068 -0.1538 -0.6905
vn 0.7104 0.1402 -0.6897
vn 0.2797 0.7050 -0.6518
vn -0.2700 -0.6940 -0.6674
vn 0.2731 0.6923 0.6679
vn -0.2740 -0.7081 0.6507
vn -0.5249 -0.6037 0.6000
vn 0.5110 0.6167 0.5988
vn -0.5242 -0.6023 -0.6020
vn 0.5121 0.6175 -0.5969
s off
f 3/1/1 11/2/1 10/3/1 2/4/1
f 8/5/2 16/6/2 15/7/2 7/8/2
f 6/9/3 14/10/3 13/11/3 5/12/3
f 4/13/4 12/14/4 11/2/4 3/1/4
f 2/4/5 10/3/5 9/15/5 1/16/5
f 1/16/6 9/15/6 16/6/6 8/5/6
f 7/8/7 15/7/7 14/10/7 6/9/7
f 5/12/8 13/11/8 12/14/8 4/13/8
f 11/2/9 12/14/9 13/11/9 17/17/9
f 10/3/10 11/2/10 17/17/10 9/15/10
f 9/15/11 17/17/11 15/7/11 16/6/11
f 17/17/12 13/11/12 14/10/12 15/7/12
f 27/18/13 24/19/13 23/20/13 26/21/13
f 28/22/14 25/23/14 24/19/14 27/18/14
f 26/21/15 23/20/15 22/24/15 29/25/15
f 29/25/16 22/24/16 25/26/16 28/27/16
f 18/28/17 29/25/17 28/27/17 21/29/17
f 19/30/18 26/21/18 29/25/18 18/28/18
f 21/31/19 28/22/19 27/18/19 20/32/19
f 20/32/20 27/18/20 26/21/20 19/30/20
f 32/33/21 40/34/21 39/35/21 31/36/21
f 37/37/22 45/38/22 44/39/22 36/40/22
f 35/41/23 43/42/23 42/43/23 34/44/23
f 33/45/24 41/46/24 40/34/24 32/33/24
f 31/36/25 39/35/25 38/47/25 30/48/25
f 30/48/26 38/47/26 45/38/26 37/37/26
f 36/40/27 44/39/27 43/42/27 35/41/27
f 34/44/28 42/43/28 41/46/28 33/45/28
f 40/34/29 41/46/29 42/43/29 46/49/29
f 39/35/30 40/34/30 46/49/30 38/47/30
f 38/47/31 46/49/31 44/39/31 45/38/31
f 46/49/32 42/43/32 43/42/32 44/39/32
f 56/50/33 53/51/33 52/52/33 55/53/33
f 57/54/34 54/55/34 53/51/34 56/50/34
f 55/53/35 52/52/35 51/56/35 58/57/35
f 58/57/36 51/56/36 54/58/36 57/59/36
f 47/60/37 58/57/37 57/59/37 50/61/37
f 48/62/38 55/53/38 58/57/38 47/60/38
f 50/63/39 57/54/39 56/50/39 49/64/39
f 49/64/40 56/50/40 55/53/40 48/62/40
f 61/65/41 69/66/41 68/67/41 60/68/41
f 66/69/42 74/70/42 73/71/42 65/72/42
f 64/73/43 72/74/43 71/75/43 63/76/43
f 62/77/44 70/78/44 69/66/44 61/65/44
f 60/68/45 68/67/45 67/79/45 59/80/45
f 59/80/46 67/79/46 74/70/46 66/69/46
f 65/72/47 73/71/47 72/74/47 64/73/47
f 63/76/48 71/75/48 70/78/48 62/77/48
f 69/66/49 70/78/49 71/75/49 75/81/49
f 68/67/50 69/66/50 75/81/50 67/79/50
f 67/79/51 75/81/51 73/71/51 74/70/51
f 75/81/52 71/75/52 72/74/52 73/71/52
f 85/82/53 82/83/53 81/84/53 84/85/53
f 86/86/54 83/87/54 82/83/54 85/82/54
f 84/85/55 81/84/55 80/88/55 87/89/55
f 87/89/56 80/88/56 83/90/56 86/91/56
f 91/92/57 87/89/57 86/91/57 89/93/57
f 90/94/58 84/85/58 87/89/58 91/92/58
f 89/95/59 86/86/59 85/82/59 88/96/59
f 88/96/60 85/82/60 84/85/60 90/94/60
f 78/97/61 88/96/61 90/94/61 77/98/61
f 79/99/62 89/95/62 88/96/62 78/97/62
f 77/98/63 90/94/63 91/92/63 76/100/63
f 76/100/64 91/92/64 89/93/64 79/101/64
