# Blender v2.78 (sub 0) OBJ File: 'Low_Poly_Vegetation_Pack.blend'
# www.blender.org
g Mushroom_d_02
v 0.000000 -0.027665 -0.009590
v -0.009590 -0.027665 0.000000
v 0.000000 -0.027665 0.009590
v 0.009590 -0.027665 0.000000
v -0.000876 0.187335 -0.011284
v 0.008500 0.189258 0.002271
v -0.020581 0.252214 -0.098452
v -0.088232 0.237984 -0.067646
v -0.114719 0.232249 0.003021
v -0.084526 0.238368 0.072152
v -0.015339 0.252756 0.099252
v 0.052312 0.266985 0.068446
v 0.078799 0.272720 -0.002221
v 0.048606 0.266602 -0.071352
v -0.008542 0.205806 -0.065029
v -0.053273 0.196397 -0.044660
v -0.070787 0.192605 0.002065
v -0.050823 0.196651 0.047776
v -0.005076 0.206164 0.065694
v 0.039656 0.215573 0.045325
v 0.057169 0.219365 -0.001400
v 0.037205 0.215319 -0.047111
v -0.003312 0.190262 0.000426
v -0.019916 0.248198 -0.104905
v -0.091976 0.233041 -0.072091
v -0.120189 0.226932 0.003180
v -0.088028 0.233450 0.076816
v -0.014333 0.248775 0.105682
v 0.057727 0.263932 0.072869
v 0.085940 0.270040 -0.002403
v 0.053779 0.263523 -0.076039
v -0.008264 0.203835 -0.070008
v -0.056400 0.193711 -0.048089
v -0.075246 0.189630 0.002192
v -0.053763 0.193983 0.051380
v -0.004535 0.204221 0.070662
v 0.043601 0.214345 0.048743
v 0.062447 0.218426 -0.001538
v 0.040964 0.214072 -0.050726
v -0.014138 0.184536 -0.001713
v -0.004761 0.186458 0.011842
v 0.020429 0.080165 0.001075
v 0.010718 0.080165 -0.010786
v -0.001143 0.080165 -0.001075
v 0.008568 0.080165 0.010786
vt 0.5691 0.3132
vt 0.5690 0.3368
vt 0.5653 0.3368
vt 0.5653 0.3132
vt 0.5728 0.3132
vt 0.5728 0.3367
vt 0.5615 0.3368
vt 0.5616 0.3133
vt 0.5577 0.3368
vt 0.5579 0.3133
vt 0.6442 0.1786
vt 0.6529 0.1824
vt 0.6530 0.1938
vt 0.6442 0.1973
vt 0.6760 0.2105
vt 0.6726 0.2017
vt 0.6806 0.1935
vt 0.6892 0.1973
vt 0.6892 0.1786
vt 0.6804 0.1821
vt 0.6723 0.1741
vt 0.6761 0.1654
vt 0.6574 0.1654
vt 0.6608 0.1742
vt 0.6612 0.2018
vt 0.6574 0.2105
vt 0.6668 0.1879
vt 0.6910 0.1980
vt 0.6768 0.2122
vt 0.6768 0.1637
vt 0.6910 0.1779
vt 0.6424 0.1779
vt 0.6567 0.1637
vt 0.6567 0.2122
vt 0.6424 0.1980
vt 0.7051 0.1637
vt 0.7249 0.1637
vt 0.7214 0.1725
vt 0.7089 0.1724
vt 0.7389 0.1777
vt 0.7302 0.1815
vt 0.7389 0.1975
vt 0.7249 0.2115
vt 0.7211 0.2028
vt 0.7301 0.1940
vt 0.7051 0.2115
vt 0.6910 0.1975
vt 0.6998 0.1937
vt 0.7085 0.2027
vt 0.6910 0.1777
vt 0.6999 0.1812
vt 0.7170 0.1890
vt 0.7164 0.1855
vt 0.7136 0.1897
vt 0.7129 0.1862
vt 0.5617 0.2897
vt 0.5580 0.2897
vt 0.5654 0.2897
vt 0.5728 0.2896
vt 0.5691 0.2897
vn -0.7920 -0.1002 0.6023
vn 0.6033 0.0624 0.7951
vn -0.6020 -0.0742 -0.7951
vn 0.7933 0.0882 -0.6024
vn 0.6430 0.7054 0.2983
vn -0.8672 0.3569 0.3472
vn -0.4465 0.4561 -0.7698
vn 0.6269 0.7029 -0.3360
vn 0.2200 0.6070 0.7636
vn -0.4051 0.4628 0.7885
vn -0.8848 0.3540 -0.3029
vn 0.1802 0.6007 -0.7789
vn -0.0378 0.9846 -0.1708
vn -0.0294 0.9856 0.1667
vn -0.3598 0.9162 0.1763
vn -0.3692 0.9150 -0.1625
vn 0.3370 0.9135 -0.2280
vn 0.0570 0.8529 0.5190
vn -0.6744 0.7008 0.2325
vn -0.3944 0.7614 -0.5145
vn 0.0293 0.8500 -0.5260
vn 0.3485 0.9147 0.2048
vn -0.3667 0.7642 0.5305
vn -0.6859 0.6996 -0.2003
vn -0.2040 -0.6378 -0.7427
vn 0.4041 -0.4976 -0.7675
vn 0.8715 -0.3918 0.2949
vn -0.1653 -0.6317 0.7574
vn -0.6150 -0.7333 -0.2900
vn 0.8544 -0.3945 -0.3382
vn 0.4444 -0.4911 0.7492
vn -0.5994 -0.7308 0.3265
vn 0.4533 -0.8811 -0.1348
vn 0.3251 -0.9090 0.2608
vn -0.0623 -0.9896 0.1296
vn 0.0660 -0.9617 -0.2661
vn 0.3033 -0.9068 -0.2929
vn 0.4787 -0.8712 0.1087
vn 0.0857 -0.9539 0.2877
vn -0.0898 -0.9894 -0.1139
vn 0.7413 -0.0745 -0.6670
vn -0.6680 0.0515 -0.7424
vn 0.6673 -0.0679 0.7417
vn -0.7421 0.0582 0.6677
s off
f 45/1/1 41/2/1 40/3/1 44/4/1
f 42/5/2 6/6/2 41/2/2 45/1/2
f 44/4/3 40/3/3 5/7/3 43/8/3
f 43/8/4 5/7/4 6/9/4 42/10/4
f 9/11/5 17/12/5 16/13/5 8/14/5
f 14/15/6 22/16/6 21/17/6 13/18/6
f 12/19/7 20/20/7 19/21/7 11/22/7
f 10/23/8 18/24/8 17/12/8 9/11/8
f 8/14/9 16/13/9 15/25/9 7/26/9
f 7/26/10 15/25/10 22/16/10 14/15/10
f 13/18/11 21/17/11 20/20/11 12/19/11
f 11/22/12 19/21/12 18/24/12 10/23/12
f 17/12/13 18/24/13 19/21/13 23/27/13
f 16/13/14 17/12/14 23/27/14 15/25/14
f 15/25/15 23/27/15 21/17/15 22/16/15
f 23/27/16 19/21/16 20/20/16 21/17/16
f 14/15/17 13/18/17 30/28/17 31/29/17
f 12/19/18 11/22/18 28/30/18 29/31/18
f 10/23/19 9/11/19 26/32/19 27/33/19
f 8/14/20 7/26/20 24/34/20 25/35/20
f 7/26/21 14/15/21 31/29/21 24/34/21
f 13/18/22 12/19/22 29/31/22 30/28/22
f 11/22/23 10/23/23 27/33/23 28/30/23
f 9/11/24 8/14/24 25/35/24 26/32/24
f 25/36/25 24/37/25 32/38/25 33/39/25
f 24/37/26 31/40/26 39/41/26 32/38/26
f 30/42/27 29/43/27 37/44/27 38/45/27
f 28/46/28 27/47/28 35/48/28 36/49/28
f 26/50/29 25/36/29 33/39/29 34/51/29
f 31/40/30 30/42/30 38/45/30 39/41/30
f 29/43/31 28/46/31 36/49/31 37/44/31
f 27/47/32 26/50/32 34/51/32 35/48/32
f 39/41/33 38/45/33 6/52/33 5/53/33
f 37/44/34 36/49/34 41/54/34 6/52/34
f 35/48/35 34/51/35 40/55/35 41/54/35
f 33/39/36 32/38/36 5/53/36 40/55/36
f 32/38/37 39/41/37 5/53/37
f 38/45/38 37/44/38 6/52/38
f 36/49/39 35/48/39 41/54/39
f 34/51/40 33/39/40 40/55/40
f 1/56/41 43/8/41 42/10/41 4/57/41
f 2/58/42 44/4/42 43/8/42 1/56/42
f 4/59/43 42/5/43 45/1/43 3/60/43
f 3/60/44 45/1/44 44/4/44 2/58/44
