# Blender v2.78 (sub 0) OBJ File: 'Low_Poly_Vegetation_Pack.blend'
# www.blender.org
g Mushroom_k_07
v -0.222883 -0.025077 0.115983
v -0.239094 -0.018407 0.155717
v -0.205835 -0.015830 0.183524
v -0.169067 -0.020908 0.160976
v -0.179602 -0.026623 0.119233
v -0.226896 0.143013 0.101912
v -0.239395 0.140629 0.132418
v -0.214337 0.149865 0.151619
v -0.185885 0.148245 0.134346
v -0.193424 0.137897 0.103924
v -0.204795 0.057456 0.164417
v -0.174160 0.051691 0.147197
v -0.218658 0.049994 0.112647
v -0.230384 0.052038 0.143416
v -0.183947 0.044019 0.115416
v -0.221420 0.134603 0.234664
v -0.324781 0.126504 0.173069
v -0.133597 0.177762 0.212010
v -0.281778 0.157536 0.228067
v -0.333877 0.139500 0.097862
v -0.223221 0.229191 0.109692
v -0.148622 0.140220 0.130321
v -0.133521 0.138446 0.192296
v -0.107988 0.134099 0.101634
v -0.206441 0.098995 0.041311
v -0.232358 0.132666 0.175148
v -0.238255 0.118071 0.106508
v -0.310554 0.090085 0.091514
v -0.128318 0.169149 0.054446
v -0.087957 0.155563 0.131790
v -0.209782 0.177884 0.241590
v -0.183604 0.136940 0.014574
v -0.260957 0.144413 0.009880
v -0.114034 0.192046 0.123372
v -0.307171 0.180128 0.173629
v -0.296127 0.164811 0.054692
v -0.177901 0.178248 0.024298
v -0.170567 0.224074 0.150947
v -0.165255 0.213997 0.077490
v -0.245997 0.215973 0.171515
v -0.287031 0.204143 0.111693
v -0.235939 0.205148 0.051802
v 0.118370 -0.009133 0.087201
v 0.169526 -0.012744 0.079507
v 0.178042 -0.013297 0.028356
v 0.132147 -0.010028 0.004435
v 0.095267 -0.007454 0.040802
v 0.138119 0.183210 0.075598
v 0.173512 0.175652 0.070217
v 0.179534 0.176276 0.034473
v 0.147252 0.175607 0.017753
v 0.121040 0.171207 0.043160
v 0.190530 0.066909 0.025042
v 0.136433 0.066553 -0.003004
v 0.120664 0.072964 0.094019
v 0.180269 0.063629 0.084996
v 0.092792 0.063768 0.039620
v 0.260460 0.146807 -0.006367
v 0.260461 0.151713 0.131954
v 0.197311 0.191751 -0.081411
v 0.292770 0.185081 0.051428
v 0.196462 0.191803 0.183386
v 0.158789 0.276476 0.058425
v 0.120084 0.167858 -0.016230
v 0.170410 0.152262 -0.066324
v 0.066421 0.167245 -0.038885
v 0.059964 0.141189 0.095446
v 0.209513 0.155145 0.039253
v 0.145059 0.157233 0.087227
v 0.168680 0.145363 0.169667
v 0.022432 0.204215 0.006223
v 0.089383 0.185783 -0.078045
v 0.269185 0.192745 -0.025760
v 0.021876 0.168633 0.092049
v 0.070808 0.200716 0.162378
v 0.103817 0.227934 -0.051269
v 0.258829 0.215792 0.106783
v 0.136535 0.224383 0.167987
v 0.040688 0.231257 0.070305
v 0.169526 0.256543 -0.014815
v 0.093944 0.261852 0.023010
v 0.228762 0.252295 0.045555
v 0.189791 0.254979 0.120692
v 0.106469 0.260886 0.106759
v -0.121299 -0.007376 -0.095930
v -0.083084 -0.007746 -0.102246
v -0.076458 -0.007314 -0.140976
v -0.110477 -0.007016 -0.159105
v -0.138190 -0.006821 -0.132902
v -0.105540 0.240287 -0.102201
v -0.082380 0.238969 -0.104933
v -0.076612 0.239772 -0.126443
v -0.096532 0.238334 -0.136363
v -0.114504 0.231977 -0.121338
v -0.083460 0.137070 -0.139434
v -0.109191 0.135593 -0.152955
v -0.118559 0.138346 -0.108987
v -0.089389 0.136940 -0.110855
v -0.130122 0.132942 -0.134265
v 0.033084 0.209545 -0.181910
v 0.024316 0.217325 -0.027414
v -0.042619 0.250352 -0.257703
v 0.068698 0.247935 -0.115457
v -0.062479 0.250700 0.034330
v -0.097883 0.354882 -0.109249
v -0.128945 0.235512 -0.193843
v -0.071235 0.215178 -0.246569
v -0.191096 0.218003 -0.217435
v -0.209447 0.183374 -0.083461
v -0.020256 0.226509 -0.130170
v -0.107337 0.224544 -0.073412
v -0.091430 0.200275 0.018345
v -0.242936 0.241046 -0.168054
v -0.164502 0.234310 -0.254432
v 0.041196 0.252032 -0.197756
v -0.249309 0.199512 -0.084315
v -0.203520 0.231683 0.001524
v -0.149059 0.284694 -0.228324
v 0.019811 0.289563 -0.052948
v -0.130491 0.279010 0.015404
v -0.229009 0.270648 -0.098266
v -0.076631 0.332284 -0.191779
v -0.164927 0.326591 -0.148856
v -0.012435 0.325311 -0.123029
v -0.067535 0.332131 -0.038699
v -0.158529 0.315630 -0.055530
vt 0.6853 0.3457
vt 0.6650 0.3361
vt 0.6681 0.3274
vt 0.6877 0.3321
vt 0.6888 0.3201
vt 0.6696 0.3187
vt 0.6692 0.3097
vt 0.6890 0.3084
vt 0.6877 0.2964
vt 0.6682 0.3006
vt 0.6654 0.2920
vt 0.6852 0.2822
vt 0.7081 0.3084
vt 0.7079 0.2952
vt 0.7064 0.3336
vt 0.7075 0.3212
vt 0.7072 0.2822
vt 0.7056 0.3457
vt 0.7274 0.4161
vt 0.7361 0.4392
vt 0.7180 0.4287
vt 0.7065 0.4392
vt 0.7218 0.4544
vt 0.6937 0.4684
vt 0.6952 0.4189
vt 0.6848 0.4357
vt 0.6859 0.4498
vt 0.6991 0.4688
vt 0.6716 0.4691
vt 0.6798 0.4491
vt 0.6884 0.3957
vt 0.6767 0.4153
vt 0.6567 0.4106
vt 0.6563 0.4446
vt 0.6756 0.4037
vt 0.6697 0.4286
vt 0.6456 0.4282
vt 0.6670 0.4521
vt 0.6602 0.4377
vt 0.6848 0.4286
vt 0.6749 0.4345
vt 0.6634 0.4252
vt 0.6472 0.4282
vt 0.6476 0.4474
vt 0.6366 0.4482
vt 0.6530 0.4640
vt 0.6865 0.4385
vt 0.6940 0.4166
vt 0.7017 0.4452
vt 0.7073 0.3999
vt 0.7140 0.4093
vt 0.7026 0.4260
vt 0.7161 0.4520
vt 0.7164 0.4290
vt 0.6853 0.3457
vt 0.6650 0.3361
vt 0.6681 0.3274
vt 0.6877 0.3321
vt 0.6888 0.3201
vt 0.6696 0.3187
vt 0.6692 0.3097
vt 0.6890 0.3084
vt 0.6877 0.2964
vt 0.6682 0.3006
vt 0.6654 0.2920
vt 0.6852 0.2822
vt 0.7081 0.3084
vt 0.7079 0.2952
vt 0.7064 0.3336
vt 0.7075 0.3212
vt 0.7072 0.2822
vt 0.7056 0.3457
vt 0.7256 0.4155
vt 0.7334 0.4361
vt 0.7173 0.4268
vt 0.7071 0.4361
vt 0.7207 0.4497
vt 0.6956 0.4622
vt 0.6970 0.4181
vt 0.6877 0.4330
vt 0.6887 0.4456
vt 0.7005 0.4625
vt 0.6759 0.4628
vt 0.6833 0.4449
vt 0.6909 0.3973
vt 0.6804 0.4148
vt 0.6627 0.4106
vt 0.6623 0.4409
vt 0.6795 0.4045
vt 0.6742 0.4267
vt 0.6527 0.4264
vt 0.6719 0.4476
vt 0.6657 0.4348
vt 0.6877 0.4267
vt 0.6789 0.4320
vt 0.6686 0.4237
vt 0.6542 0.4263
vt 0.6546 0.4434
vt 0.6448 0.4441
vt 0.6593 0.4582
vt 0.6940 0.4372
vt 0.6959 0.4160
vt 0.7028 0.4415
vt 0.7077 0.4011
vt 0.7137 0.4095
vt 0.7036 0.4244
vt 0.7156 0.4475
vt 0.7158 0.4270
vt 0.6894 0.3457
vt 0.6650 0.3361
vt 0.6681 0.3274
vt 0.6915 0.3324
vt 0.6926 0.3203
vt 0.6696 0.3187
vt 0.6692 0.3097
vt 0.6929 0.3084
vt 0.6918 0.2961
vt 0.6682 0.3006
vt 0.6654 0.2920
vt 0.6897 0.2822
vt 0.7081 0.3084
vt 0.7079 0.2952
vt 0.7064 0.3336
vt 0.7075 0.3212
vt 0.7072 0.2822
vt 0.7056 0.3457
vt 0.4693 0.4245
vt 0.4773 0.4456
vt 0.4607 0.4360
vt 0.4502 0.4456
vt 0.4642 0.4595
vt 0.4384 0.4723
vt 0.4398 0.4271
vt 0.4304 0.4424
vt 0.4313 0.4553
vt 0.4434 0.4727
vt 0.4182 0.4729
vt 0.4258 0.4546
vt 0.4336 0.4058
vt 0.4229 0.4237
vt 0.4046 0.4194
vt 0.4042 0.4505
vt 0.4219 0.4132
vt 0.4165 0.4359
vt 0.3944 0.4356
vt 0.4141 0.4574
vt 0.4078 0.4443
vt 0.4303 0.4359
vt 0.4213 0.4413
vt 0.4108 0.4328
vt 0.3959 0.4356
vt 0.3963 0.4531
vt 0.3863 0.4538
vt 0.4012 0.4683
vt 0.4368 0.4466
vt 0.4387 0.4249
vt 0.4458 0.4511
vt 0.4509 0.4096
vt 0.4570 0.4183
vt 0.4466 0.4335
vt 0.4590 0.4573
vt 0.4592 0.4362
vn 0.5126 0.1719 0.8413
vn -0.9217 -0.1312 -0.3651
vn 0.9556 0.0698 -0.2864
vn -0.6279 0.0378 0.7773
vn 0.0512 -0.1132 -0.9923
vn 0.0722 -0.0489 -0.9962
vn -0.6412 0.2051 0.7395
vn 0.9620 0.0300 -0.2714
vn -0.9270 0.0424 -0.3726
vn 0.5216 0.2014 0.8291
vn 0.1880 -0.9638 0.1888
vn 0.4108 -0.4080 0.8153
vn -0.3316 -0.6868 0.6468
vn 0.3511 -0.2393 0.9053
vn -0.7347 -0.2666 -0.6238
vn 0.5671 0.7843 0.2515
vn -0.3207 0.7527 0.5749
vn -0.8059 0.5911 -0.0329
vn -0.4497 0.6254 -0.6377
vn 0.4689 0.6774 -0.5668
vn 0.0258 0.9212 -0.3883
vn 0.1060 0.8135 -0.5719
vn -0.1032 0.5935 -0.7982
vn -0.3576 0.8877 -0.2901
vn -0.5171 0.7409 -0.4287
vn -0.7421 0.6012 -0.2964
vn -0.3629 0.9296 0.0651
vn -0.4938 0.8528 0.1701
vn -0.4222 0.7505 0.5084
vn -0.0535 0.9803 0.1899
vn 0.0317 0.8849 0.4646
vn 0.2002 0.8352 0.5122
vn 0.1888 0.9747 -0.1201
vn 0.4581 0.8845 -0.0882
vn 0.6209 0.6963 -0.3600
vn 0.5320 0.1237 -0.8376
vn 0.0801 0.2179 -0.9727
vn -0.7701 0.0663 -0.6345
vn -0.9374 0.3061 0.1663
vn -0.8265 0.2662 0.4960
vn 0.7550 0.6005 0.2634
vn 0.8021 0.4969 -0.3313
vn -0.0057 -0.5737 -0.8191
vn -0.2438 -0.7325 -0.6356
vn -0.9021 -0.4302 0.0348
vn -0.1515 -0.1163 0.9816
vn 0.8048 -0.2648 0.5312
vn 0.5632 -0.8025 0.1971
vn 0.8677 -0.1392 -0.4772
vn 0.6789 -0.4185 -0.6033
vn 0.2621 -0.8842 0.3866
vn 0.3249 -0.9304 0.1699
vn 0.0512 -0.9085 0.4147
vn 0.0661 -0.9976 0.0203
vn 0.5447 -0.6768 -0.4952
vn 0.1121 -0.9275 0.3567
vn 0.1394 -0.9300 0.3401
vn 0.0545 -0.9983 0.0225
vn 0.0660 -0.9968 -0.0446
vn -0.1442 -0.9895 0.0068
vn 0.4555 0.1222 -0.8818
vn 0.1723 0.1374 0.9754
vn -0.6938 0.2028 -0.6910
vn 0.9819 0.0829 0.1705
vn -0.8878 0.2142 0.4073
vn -0.8917 -0.0177 0.4523
vn 0.9759 -0.1470 0.1613
vn -0.6999 -0.0330 -0.7135
vn 0.1386 -0.0880 0.9864
vn 0.4559 -0.1094 -0.8833
vn -0.0916 -0.9926 -0.0798
vn 0.4337 -0.5640 -0.7027
vn 0.7461 -0.6655 0.0236
vn 0.5619 -0.4100 -0.7184
vn -0.1747 -0.1814 0.9678
vn 0.0617 0.7281 -0.6827
vn 0.7222 0.6744 -0.1537
vn 0.4841 0.6416 0.5950
vn -0.3167 0.7382 0.5956
vn -0.5959 0.7865 -0.1622
vn -0.2445 0.9685 0.0477
vn -0.4445 0.8925 0.0768
vn -0.5558 0.7175 0.4198
vn 0.0136 0.9472 0.3202
vn -0.0268 0.8528 0.5216
vn 0.2050 0.7003 0.6838
vn 0.3471 0.9262 0.1469
vn 0.5153 0.8234 0.2378
vn 0.7204 0.6911 0.0583
vn 0.2839 0.9349 -0.2128
vn 0.4630 0.7917 -0.3986
vn 0.4099 0.7333 -0.5425
vn -0.0683 0.9601 -0.2713
vn -0.1512 0.8915 -0.4272
vn -0.5111 0.7542 -0.4123
vn -0.9365 0.3262 0.1291
vn -0.8300 0.3883 0.4003
vn -0.1493 0.1845 0.9714
vn 0.7012 0.2761 0.6573
vn 0.8805 0.1926 0.4331
vn -0.0564 0.5490 -0.8339
vn -0.5786 0.5692 -0.5842
vn -0.4938 -0.6085 0.6212
vn -0.4132 -0.6462 0.6416
vn 0.3648 -0.4578 0.8108
vn 0.9033 -0.3007 -0.3059
vn -0.0098 -0.3511 -0.9363
vn -0.2567 -0.8067 -0.5324
vn -0.7853 -0.2362 -0.5723
vn -0.7611 -0.5974 -0.2526
vn 0.1646 -0.9685 -0.1866
vn -0.1136 -0.9875 -0.1096
vn 0.0439 -0.9972 -0.0610
vn -0.1307 -0.9908 0.0351
vn -0.5639 -0.8053 -0.1833
vn 0.0895 -0.9786 -0.1855
vn 0.1702 -0.9752 -0.1412
vn -0.1038 -0.9924 0.0655
vn -0.2013 -0.9743 0.1011
vn -0.0819 -0.9720 0.2203
vn 0.4508 0.0851 -0.8885
vn 0.0837 -0.0702 0.9940
vn -0.6677 0.1985 -0.7174
vn 0.9705 -0.0865 0.2250
vn -0.9144 0.0916 0.3943
vn -0.9097 0.0552 0.4115
vn 0.9818 0.0497 0.1835
vn -0.6787 0.0349 -0.7335
vn 0.1222 0.0753 0.9896
vn 0.4673 0.0330 -0.8835
vn -0.0328 -0.9959 -0.0848
vn 0.4133 -0.5628 -0.7158
vn 0.6629 -0.7450 0.0751
vn 0.5426 -0.3825 -0.7479
vn -0.1978 -0.1912 0.9614
vn -0.0148 0.6231 -0.7820
vn 0.6864 0.7007 -0.1945
vn 0.4119 0.6224 0.6655
vn -0.5265 0.6526 0.5450
vn -0.7141 0.6843 -0.1478
vn -0.4517 0.8820 0.1346
vn -0.5896 0.7965 0.1340
vn -0.6547 0.6323 0.4141
vn -0.2335 0.8916 0.3879
vn -0.2446 0.8188 0.5194
vn 0.0722 0.6684 0.7403
vn 0.3449 0.9265 0.1504
vn 0.4564 0.8599 0.2287
vn 0.6865 0.7251 0.0540
vn 0.2955 0.9381 -0.1808
vn 0.5040 0.7693 -0.3926
vn 0.4240 0.6680 -0.6115
vn -0.2096 0.9280 -0.3081
vn -0.2916 0.8209 -0.4910
vn -0.6005 0.6516 -0.4635
vn -0.9556 0.2863 0.0693
vn -0.8805 0.3199 0.3498
vn -0.2361 0.0802 0.9684
vn 0.6265 0.2942 0.7217
vn 0.8349 0.2290 0.5005
vn -0.0865 0.4791 -0.8735
vn -0.6203 0.5023 -0.6024
vn -0.3375 -0.8080 0.4829
vn -0.3027 -0.8194 0.4869
vn 0.3834 -0.4718 0.7940
vn 0.9031 -0.2904 -0.3163
vn 0.0158 -0.3134 -0.9495
vn -0.1372 -0.8662 -0.4804
vn -0.7242 -0.2641 -0.6370
vn -0.6514 -0.6589 -0.3764
vn 0.3820 -0.8749 -0.2976
vn -0.1298 -0.9639 -0.2325
vn 0.0944 -0.9871 -0.1291
vn -0.2738 -0.9612 0.0329
vn -0.3552 -0.8921 -0.2792
vn 0.3332 -0.9229 -0.1929
vn 0.3824 -0.9115 -0.1516
vn -0.1530 -0.9749 0.1619
vn -0.1821 -0.9678 0.1740
vn 0.0855 -0.8946 0.4386
s off
f 12/1/1 9/2/1 8/3/1 11/4/1
f 14/5/2 7/6/2 6/7/2 13/8/2
f 15/9/3 10/10/3 9/11/3 12/12/3
f 11/4/4 8/3/4 7/6/4 14/5/4
f 13/8/5 6/7/5 10/10/5 15/9/5
f 1/13/6 13/8/6 15/9/6 5/14/6
f 3/15/7 11/4/7 14/5/7 2/16/7
f 5/14/8 15/9/8 12/12/8 4/17/8
f 2/16/9 14/5/9 13/8/9 1/13/9
f 4/18/10 12/1/10 11/4/10 3/15/10
f 27/19/11 22/20/11 26/21/11
f 16/22/12 23/23/12 18/24/12
f 17/25/13 16/22/13 19/26/13
f 16/22/14 18/24/14 31/27/14
f 28/28/15 20/29/15 33/30/15
f 18/31/16 34/32/16 38/33/16
f 19/26/17 31/27/17 40/34/17
f 20/35/18 35/36/18 41/37/18
f 33/30/19 36/38/19 42/39/19
f 29/40/20 37/41/20 39/42/20
f 39/42/21 42/39/21 21/43/21
f 39/42/22 37/41/22 42/39/22
f 37/41/23 33/30/23 42/39/23
f 42/39/24 41/44/24 21/43/24
f 42/39/25 36/38/25 41/44/25
f 36/38/26 20/29/26 41/44/26
f 41/37/27 40/34/27 21/45/27
f 41/37/28 35/36/28 40/34/28
f 35/36/29 19/26/29 40/34/29
f 40/34/30 38/46/30 21/45/30
f 40/34/31 31/27/31 38/46/31
f 31/27/32 18/24/32 38/46/32
f 38/33/33 39/42/33 21/43/33
f 38/33/34 34/32/34 39/42/34
f 34/32/35 29/40/35 39/42/35
f 29/40/36 32/47/36 37/41/36
f 32/47/37 33/30/37 37/41/37
f 33/30/38 20/29/38 36/38/38
f 17/25/39 35/36/39 20/35/39
f 17/25/40 19/26/40 35/36/40
f 30/48/41 34/32/41 18/31/41
f 30/48/42 29/40/42 34/32/42
f 32/47/43 25/49/43 33/30/43
f 25/49/44 28/28/44 33/30/44
f 20/35/45 28/50/45 17/25/45
f 19/26/46 16/22/46 31/27/46
f 18/31/47 23/51/47 30/48/47
f 23/51/48 24/52/48 30/48/48
f 30/48/49 24/52/49 29/40/49
f 24/52/50 32/47/50 29/40/50
f 27/53/51 28/28/51 25/49/51
f 27/19/52 26/21/52 28/50/52
f 26/21/53 17/25/53 28/50/53
f 26/21/54 16/22/54 17/25/54
f 24/52/55 25/49/55 32/47/55
f 24/52/56 22/54/56 25/49/56
f 22/54/57 27/53/57 25/49/57
f 26/21/58 23/23/58 16/22/58
f 26/21/59 22/20/59 23/23/59
f 22/54/60 24/52/60 23/51/60
f 54/55/61 51/56/61 50/57/61 53/58/61
f 56/59/62 49/60/62 48/61/62 55/62/62
f 57/63/63 52/64/63 51/65/63 54/66/63
f 53/58/64 50/57/64 49/60/64 56/59/64
f 55/62/65 48/61/65 52/64/65 57/63/65
f 43/67/66 55/62/66 57/63/66 47/68/66
f 45/69/67 53/58/67 56/59/67 44/70/67
f 47/68/68 57/63/68 54/66/68 46/71/68
f 44/70/69 56/59/69 55/62/69 43/67/69
f 46/72/70 54/55/70 53/58/70 45/69/70
f 69/73/71 64/74/71 68/75/71
f 58/76/72 65/77/72 60/78/72
f 59/79/73 58/76/73 61/80/73
f 58/76/74 60/78/74 73/81/74
f 70/82/75 62/83/75 75/84/75
f 60/85/76 76/86/76 80/87/76
f 61/80/77 73/81/77 82/88/77
f 62/89/78 77/90/78 83/91/78
f 75/84/79 78/92/79 84/93/79
f 71/94/80 79/95/80 81/96/80
f 81/96/81 84/93/81 63/97/81
f 81/96/82 79/95/82 84/93/82
f 79/95/83 75/84/83 84/93/83
f 84/93/84 83/98/84 63/97/84
f 84/93/85 78/92/85 83/98/85
f 78/92/86 62/83/86 83/98/86
f 83/91/87 82/88/87 63/99/87
f 83/91/88 77/90/88 82/88/88
f 77/90/89 61/80/89 82/88/89
f 82/88/90 80/100/90 63/99/90
f 82/88/91 73/81/91 80/100/91
f 73/81/92 60/78/92 80/100/92
f 80/87/93 81/96/93 63/97/93
f 80/87/94 76/86/94 81/96/94
f 76/86/95 71/94/95 81/96/95
f 71/94/96 74/101/96 79/95/96
f 74/101/97 75/84/97 79/95/97
f 75/84/98 62/83/98 78/92/98
f 59/79/99 77/90/99 62/89/99
f 59/79/100 61/80/100 77/90/100
f 72/102/101 76/86/101 60/85/101
f 72/102/102 71/94/102 76/86/102
f 74/101/103 67/103/103 75/84/103
f 67/103/104 70/82/104 75/84/104
f 62/89/105 70/104/105 59/79/105
f 61/80/106 58/76/106 73/81/106
f 60/85/107 65/105/107 72/102/107
f 65/105/108 66/106/108 72/102/108
f 72/102/109 66/106/109 71/94/109
f 66/106/110 74/101/110 71/94/110
f 69/107/111 70/82/111 67/103/111
f 69/73/112 68/75/112 70/104/112
f 68/75/113 59/79/113 70/104/113
f 68/75/114 58/76/114 59/79/114
f 66/106/115 67/103/115 74/101/115
f 66/106/116 64/108/116 67/103/116
f 64/108/117 69/107/117 67/103/117
f 68/75/118 65/77/118 58/76/118
f 68/75/119 64/74/119 65/77/119
f 64/108/120 66/106/120 65/105/120
f 96/109/121 93/110/121 92/111/121 95/112/121
f 98/113/122 91/114/122 90/115/122 97/116/122
f 99/117/123 94/118/123 93/119/123 96/120/123
f 95/112/124 92/111/124 91/114/124 98/113/124
f 97/116/125 90/115/125 94/118/125 99/117/125
f 85/121/126 97/116/126 99/117/126 89/122/126
f 87/123/127 95/112/127 98/113/127 86/124/127
f 89/122/128 99/117/128 96/120/128 88/125/128
f 86/124/129 98/113/129 97/116/129 85/121/129
f 88/126/130 96/109/130 95/112/130 87/123/130
f 111/127/131 106/128/131 110/129/131
f 100/130/132 107/131/132 102/132/132
f 101/133/133 100/130/133 103/134/133
f 100/130/134 102/132/134 115/135/134
f 112/136/135 104/137/135 117/138/135
f 102/139/136 118/140/136 122/141/136
f 103/134/137 115/135/137 124/142/137
f 104/143/138 119/144/138 125/145/138
f 117/138/139 120/146/139 126/147/139
f 113/148/140 121/149/140 123/150/140
f 123/150/141 126/147/141 105/151/141
f 123/150/142 121/149/142 126/147/142
f 121/149/143 117/138/143 126/147/143
f 126/147/144 125/152/144 105/151/144
f 126/147/145 120/146/145 125/152/145
f 120/146/146 104/137/146 125/152/146
f 125/145/147 124/142/147 105/153/147
f 125/145/148 119/144/148 124/142/148
f 119/144/149 103/134/149 124/142/149
f 124/142/150 122/154/150 105/153/150
f 124/142/151 115/135/151 122/154/151
f 115/135/152 102/132/152 122/154/152
f 122/141/153 123/150/153 105/151/153
f 122/141/154 118/140/154 123/150/154
f 118/140/155 113/148/155 123/150/155
f 113/148/156 116/155/156 121/149/156
f 116/155/157 117/138/157 121/149/157
f 117/138/158 104/137/158 120/146/158
f 101/133/159 119/144/159 104/143/159
f 101/133/160 103/134/160 119/144/160
f 114/156/161 118/140/161 102/139/161
f 114/156/162 113/148/162 118/140/162
f 116/155/163 109/157/163 117/138/163
f 109/157/164 112/136/164 117/138/164
f 104/143/165 112/158/165 101/133/165
f 103/134/166 100/130/166 115/135/166
f 102/139/167 107/159/167 114/156/167
f 107/159/168 108/160/168 114/156/168
f 114/156/169 108/160/169 113/148/169
f 108/160/170 116/155/170 113/148/170
f 111/161/171 112/136/171 109/157/171
f 111/127/172 110/129/172 112/158/172
f 110/129/173 101/133/173 112/158/173
f 110/129/174 100/130/174 101/133/174
f 108/160/175 109/157/175 116/155/175
f 108/160/176 106/162/176 109/157/176
f 106/162/177 111/161/177 109/157/177
f 110/129/178 107/131/178 100/130/178
f 110/129/179 106/128/179 107/131/179
f 106/162/180 108/160/180 107/159/180
