# Blender v2.78 (sub 0) OBJ File: 'Low_Poly_Vegetation_Pack.blend'
# www.blender.org
g Mushroom_k_04
v -0.000000 -0.007679 -0.032086
v -0.030514 -0.007679 -0.009915
v -0.018859 -0.007679 0.025958
v 0.018859 -0.007679 0.025958
v 0.030516 -0.007679 -0.009915
v 0.000000 0.109731 -0.022422
v -0.021324 0.109731 -0.006929
v -0.013180 0.109731 0.018140
v 0.013180 0.109731 0.018140
v 0.021327 0.109731 -0.006929
v -0.022108 0.040339 0.030428
v 0.022108 0.040339 0.030428
v 0.000000 0.040339 -0.037611
v -0.035769 0.040339 -0.011622
v 0.035771 0.040339 -0.011622
v -0.027393 0.109361 0.037036
v -0.051464 0.119798 -0.009546
v 0.007989 0.141673 0.050720
v -0.047425 0.141792 0.022774
v -0.038029 0.141826 -0.038492
v -0.001514 0.192472 -0.004051
v 0.021930 0.096380 0.015611
v 0.013433 0.109153 0.041427
v 0.043881 0.109361 0.013877
v 0.021934 0.100867 -0.032118
v -0.018079 0.092463 0.012704
v -0.004794 0.090963 -0.014701
v -0.027419 0.109308 -0.038166
v 0.051634 0.141784 -0.009413
v 0.043468 0.129404 0.030831
v -0.025832 0.145465 0.044529
v 0.035963 0.119804 -0.037950
v 0.008015 0.141829 -0.053454
v 0.034950 0.159345 0.023837
v -0.044984 0.159345 -0.002135
v -0.014452 0.159345 -0.044158
v 0.034950 0.159345 -0.028107
v 0.007214 0.180570 0.022696
v 0.026084 0.180569 -0.003276
v -0.023318 0.180570 0.012775
v -0.023318 0.180570 -0.019328
v 0.007214 0.180570 -0.029248
vt 0.6853 0.3457
vt 0.6650 0.3361
vt 0.6681 0.3274
vt 0.6877 0.3321
vt 0.6888 0.3201
vt 0.6696 0.3187
vt 0.6692 0.3097
vt 0.6890 0.3084
vt 0.6877 0.2964
vt 0.6682 0.3006
vt 0.6654 0.2920
vt 0.6852 0.2822
vt 0.7081 0.3084
vt 0.7079 0.2952
vt 0.7064 0.3336
vt 0.7075 0.3212
vt 0.7072 0.2822
vt 0.7056 0.3457
vt 0.4466 0.4001
vt 0.4664 0.4069
vt 0.4498 0.4130
vt 0.4504 0.4263
vt 0.4687 0.4245
vt 0.4626 0.4505
vt 0.4310 0.4227
vt 0.4364 0.4386
vt 0.4462 0.4455
vt 0.4658 0.4471
vt 0.4511 0.4653
vt 0.4425 0.4491
vt 0.4121 0.4146
vt 0.4186 0.4329
vt 0.4047 0.4434
vt 0.4268 0.4621
vt 0.4105 0.4273
vt 0.4235 0.4447
vt 0.4103 0.4602
vt 0.4375 0.4591
vt 0.4244 0.4558
vt 0.4317 0.4347
vt 0.4303 0.4445
vt 0.4180 0.4469
vt 0.4111 0.4592
vt 0.4239 0.4693
vt 0.4185 0.4769
vt 0.4377 0.4747
vt 0.4432 0.4365
vt 0.4288 0.4223
vt 0.4517 0.4327
vt 0.4251 0.4045
vt 0.4349 0.4052
vt 0.4396 0.4217
vt 0.4640 0.4269
vt 0.4490 0.4143
vn 0.0000 0.1744 0.9847
vn -0.5788 0.1744 -0.7966
vn 0.9365 0.1744 0.3043
vn -0.9365 0.1744 0.3042
vn 0.5788 0.1744 -0.7966
vn 0.5852 -0.0927 -0.8055
vn -0.9470 -0.0927 0.3076
vn 0.9470 -0.0927 0.3077
vn -0.5853 -0.0927 -0.8055
vn 0.0000 -0.0927 0.9957
vn 0.0899 -0.9911 0.0978
vn -0.1038 -0.2893 0.9516
vn -0.8563 -0.3709 0.3594
vn -0.1974 -0.1910 0.9615
vn -0.3072 -0.1097 -0.9453
vn 0.3859 0.5443 0.7448
vn -0.6414 0.5394 0.5455
vn -0.7834 0.4879 -0.3850
vn 0.0631 0.5298 -0.8458
vn 0.8054 0.5609 -0.1919
vn 0.3867 0.8784 -0.2810
vn 0.5648 0.7160 -0.4103
vn 0.4068 0.4901 -0.7709
vn -0.1509 0.8726 -0.4645
vn -0.2203 0.7012 -0.6780
vn -0.5485 0.5287 -0.6478
vn -0.4791 0.8777 0.0000
vn -0.6998 0.7144 0.0000
vn -0.7661 0.5584 0.3184
vn -0.1433 0.8860 0.4410
vn -0.2317 0.6617 0.7131
vn -0.0830 0.5815 0.8093
vn 0.3746 0.8863 0.2722
vn 0.5472 0.7365 0.3976
vn 0.8369 0.5291 0.1405
vn 0.8069 0.1620 -0.5680
vn 0.5949 0.2085 -0.7763
vn -0.3073 0.1077 -0.9455
vn -0.9380 0.2059 -0.2787
vn -0.9872 0.1589 0.0152
vn 0.5462 0.3348 0.7678
vn 0.9032 0.3230 0.2826
vn 0.1766 -0.4068 -0.8963
vn 0.0317 -0.4532 -0.8908
vn -0.7841 -0.2615 -0.5629
vn -0.6949 -0.1172 0.7095
vn 0.4329 -0.1799 0.8833
vn 0.5743 -0.5218 0.6308
vn 0.9797 -0.1174 0.1627
vn 0.9048 -0.3691 -0.2126
vn -0.0697 -0.8174 -0.5718
vn -0.4907 -0.8500 -0.1914
vn -0.5552 -0.8146 -0.1678
vn -0.6989 -0.6844 0.2078
vn 0.7434 -0.6245 -0.2394
vn 0.5026 -0.8607 -0.0809
vn 0.2943 -0.9515 -0.0894
vn -0.0637 -0.8309 0.5527
vn 0.0537 -0.8879 0.4570
vn 0.4671 -0.7217 0.5108
s off
f 12/1/1 9/2/1 8/3/1 11/4/1
f 14/5/2 7/6/2 6/7/2 13/8/2
f 15/9/3 10/10/3 9/11/3 12/12/3
f 11/4/4 8/3/4 7/6/4 14/5/4
f 13/8/5 6/7/5 10/10/5 15/9/5
f 1/13/6 13/8/6 15/9/6 5/14/6
f 3/15/7 11/4/7 14/5/7 2/16/7
f 5/14/8 15/9/8 12/12/8 4/17/8
f 2/16/9 14/5/9 13/8/9 1/13/9
f 4/18/10 12/1/10 11/4/10 3/15/10
f 27/19/11 22/20/11 26/21/11
f 16/22/12 23/23/12 18/24/12
f 17/25/13 16/22/13 19/26/13
f 16/22/14 18/24/14 31/27/14
f 28/28/15 20/29/15 33/30/15
f 18/31/16 34/32/16 38/33/16
f 19/26/17 31/27/17 40/34/17
f 20/35/18 35/36/18 41/37/18
f 33/30/19 36/38/19 42/39/19
f 29/40/20 37/41/20 39/42/20
f 39/42/21 42/39/21 21/43/21
f 39/42/22 37/41/22 42/39/22
f 37/41/23 33/30/23 42/39/23
f 42/39/24 41/44/24 21/43/24
f 42/39/25 36/38/25 41/44/25
f 36/38/26 20/29/26 41/44/26
f 41/37/27 40/34/27 21/45/27
f 41/37/28 35/36/28 40/34/28
f 35/36/29 19/26/29 40/34/29
f 40/34/30 38/46/30 21/45/30
f 40/34/31 31/27/31 38/46/31
f 31/27/32 18/24/32 38/46/32
f 38/33/33 39/42/33 21/43/33
f 38/33/34 34/32/34 39/42/34
f 34/32/35 29/40/35 39/42/35
f 29/40/36 32/47/36 37/41/36
f 32/47/37 33/30/37 37/41/37
f 33/30/38 20/29/38 36/38/38
f 17/25/39 35/36/39 20/35/39
f 17/25/40 19/26/40 35/36/40
f 30/48/41 34/32/41 18/31/41
f 30/48/42 29/40/42 34/32/42
f 32/47/43 25/49/43 33/30/43
f 25/49/44 28/28/44 33/30/44
f 20/35/45 28/50/45 17/25/45
f 19/26/46 16/22/46 31/27/46
f 18/31/47 23/51/47 30/48/47
f 23/51/48 24/52/48 30/48/48
f 30/48/49 24/52/49 29/40/49
f 24/52/50 32/47/50 29/40/50
f 27/53/51 28/28/51 25/49/51
f 27/19/52 26/21/52 28/50/52
f 26/21/53 17/25/53 28/50/53
f 26/21/54 16/22/54 17/25/54
f 24/52/55 25/49/55 32/47/55
f 24/52/56 22/54/56 25/49/56
f 22/54/57 27/53/57 25/49/57
f 26/21/58 23/23/58 16/22/58
f 26/21/59 22/20/59 23/23/59
f 22/54/60 24/52/60 23/51/60
