# Blender v2.78 (sub 0) OBJ File: 'Low_Poly_Vegetation_Pack.blend'
# www.blender.org
g Mushroom_g_03
v 0.052888 -0.014372 0.017406
v 0.025266 -0.014372 0.037475
v 0.035817 -0.014372 0.069946
v 0.069959 -0.014372 0.069946
v 0.080510 -0.014372 0.037475
v 0.052888 0.066680 0.013081
v 0.021152 0.066680 0.036138
v 0.033274 0.066680 0.073446
v 0.072502 0.066680 0.073446
v 0.084624 0.066680 0.036138
v 0.031971 0.037372 -0.000908
v 0.058045 0.127941 0.045110
v 0.017064 0.037209 0.081418
v 0.090323 0.038683 0.086138
v 0.062080 0.066027 0.109497
v 0.006183 0.067431 0.087910
v 0.001850 0.065584 0.006747
v 0.115234 0.045681 0.022084
v 0.076096 0.072148 -0.020177
v 0.114678 0.065044 0.081205
v 0.058384 0.107973 0.097502
v 0.008322 0.107973 0.061622
v 0.026943 0.107656 0.002423
v 0.105876 0.107656 0.022709
v 0.099500 0.109405 0.071432
v -0.080994 -0.009613 -0.078257
v -0.114480 -0.009613 -0.053927
v -0.101689 -0.009613 -0.014562
v -0.060298 -0.009613 -0.014562
v -0.047507 -0.009613 -0.053927
v -0.080994 0.089045 -0.087249
v -0.123033 0.089045 -0.056706
v -0.106975 0.089045 -0.007287
v -0.055012 0.089045 -0.007287
v -0.038955 0.089045 -0.056706
v -0.022144 0.071698 0.035446
v -0.110263 0.072948 0.047029
v -0.137965 0.071764 -0.122121
v 0.001631 0.166743 -0.043046
v -0.080997 0.191649 -0.043046
v 0.011135 0.071345 -0.043046
v -0.174746 0.071698 -0.014137
v -0.022144 0.071698 -0.121539
v 0.022245 0.108456 -0.009502
v 0.022245 0.108456 -0.076591
v -0.080997 0.108456 0.065508
v -0.017190 0.108456 0.044776
v -0.144803 0.108456 0.044776
v -0.144803 0.108456 -0.130868
v -0.194189 0.104418 -0.043046
v -0.017190 0.108456 -0.130868
v -0.080997 0.108456 -0.151600
v -0.006291 0.152169 0.011231
v -0.109532 0.152169 0.044776
v -0.173338 0.152169 -0.043046
v -0.109532 0.152169 -0.130868
v -0.006291 0.152169 -0.097323
v -0.055464 0.166743 0.035538
v -0.147844 0.166743 0.005521
v -0.147844 0.166743 -0.091613
v -0.055464 0.166743 -0.121630
vt 0.6485 0.3233
vt 0.6527 0.2995
vt 0.6719 0.3250
vt 0.2797 0.2028
vt 0.3092 0.1447
vt 0.2882 0.1866
vt 0.6815 0.2995
vt 0.6886 0.3010
vt 0.6858 0.3182
vt 0.6769 0.3163
vt 0.3637 0.1846
vt 0.3416 0.1936
vt 0.3373 0.1684
vt 0.3260 0.1773
vt 0.3298 0.1911
vt 0.3157 0.1884
vt 0.3215 0.2016
vt 0.3014 0.1919
vt 0.3054 0.2107
vt 0.3078 0.1753
vt 0.3321 0.2232
vt 0.3110 0.1606
vt 0.6728 0.3022
vt 0.7031 0.3018
vt 0.7103 0.3010
vt 0.7131 0.3182
vt 0.7040 0.3192
vt 0.6958 0.3018
vt 0.6949 0.3192
vt 0.7174 0.2995
vt 0.7220 0.3163
vt 0.6886 0.3010
vt 0.6858 0.3182
vt 0.6769 0.3163
vt 0.6815 0.2995
vt 0.7103 0.3010
vt 0.7131 0.3182
vt 0.7040 0.3192
vt 0.7031 0.3018
vt 0.6958 0.3018
vt 0.6949 0.3192
vt 0.7174 0.2995
vt 0.7220 0.3163
vt 0.6536 0.3296
vt 0.6527 0.2995
vt 0.6768 0.3167
vt 0.2880 0.1440
vt 0.3348 0.1440
vt 0.3158 0.1583
vt 0.2636 0.1840
vt 0.2842 0.1754
vt 0.2969 0.1613
vt 0.2829 0.1941
vt 0.3301 0.2283
vt 0.3227 0.2123
vt 0.3342 0.2009
vt 0.3590 0.1838
vt 0.3396 0.1848
vt 0.3325 0.1676
vt 0.3179 0.1744
vt 0.3251 0.1904
vt 0.3110 0.1876
vt 0.3269 0.1801
vt 0.3132 0.2014
vt 0.3227 0.1999
vt 0.2986 0.1945
vt 0.3040 0.2024
vt 0.3001 0.1773
vt 0.2935 0.1855
vt 0.3080 0.1699
vt 0.2998 0.2120
vt 0.2855 0.2186
vt 0.6728 0.3022
vt 0.6438 0.3175
vt 0.6692 0.3296
vn 0.0951 -0.9953 0.0152
vn -0.6951 -0.7076 -0.1273
vn 0.0000 -0.0431 0.9991
vn 0.4537 -0.2596 0.8525
vn 0.1891 0.9180 0.3486
vn 0.3980 0.9172 0.0192
vn 0.1286 0.8561 -0.5005
vn 0.1795 0.6929 -0.6983
vn -0.4070 0.9037 -0.1329
vn -0.2483 0.9046 0.3464
vn 0.4586 0.2815 0.8429
vn 0.4940 0.3449 0.7981
vn 0.9328 0.3433 0.1097
vn 0.9880 0.1496 -0.0397
vn -0.8396 0.4733 -0.2666
vn -0.5088 0.4871 0.7098
vn 0.7369 -0.6403 0.2166
vn 0.7651 0.1219 -0.6322
vn 0.2549 -0.6956 -0.6717
vn -0.3475 0.1115 -0.9310
vn -0.3315 -0.0993 -0.9382
vn -0.9950 0.0857 0.0512
vn -0.9353 -0.3492 0.0579
vn -0.3456 0.2297 0.9098
vn -0.3488 -0.3152 0.8826
vn -0.0343 -0.6694 0.7421
vn 0.0264 -0.9948 -0.0984
vn -0.5872 -0.0431 -0.8083
vn 0.9502 -0.0431 0.3087
vn -0.9502 -0.0431 0.3087
vn 0.5872 -0.0431 -0.8083
vn 0.0000 -0.0735 0.9973
vn -0.5862 -0.0735 -0.8068
vn 0.9485 -0.0735 0.3082
vn -0.9485 -0.0735 0.3082
vn 0.5862 -0.0735 -0.8068
vn -0.0071 -0.9999 0.0082
vn 0.7780 -0.5332 0.3323
vn 0.1036 -0.5250 0.8448
vn 0.7833 -0.2500 0.5691
vn -0.3005 -0.2336 0.9247
vn -0.2972 -0.2735 -0.9148
vn 0.7833 -0.2500 -0.5691
vn 0.2825 0.9371 -0.2052
vn 0.4015 0.8682 -0.2917
vn -0.1079 0.9371 -0.3321
vn -0.1534 0.8682 -0.4720
vn -0.3491 0.9371 0.0000
vn -0.4963 0.8682 0.0000
vn -0.1079 0.9371 0.3321
vn -0.1534 0.8682 0.4720
vn 0.2825 0.9371 0.2052
vn 0.4015 0.8682 0.2917
vn 0.8609 0.4457 -0.2453
vn 0.7850 0.2419 -0.5703
vn 0.4994 0.4457 -0.7430
vn 0.0327 0.4457 -0.8946
vn -0.2998 0.2419 -0.9228
vn -0.5523 0.4457 -0.7045
vn -0.8620 0.3764 -0.3395
vn -0.8620 0.3764 0.3395
vn -0.5523 0.4457 0.7045
vn -0.2998 0.2419 0.9228
vn 0.0327 0.4457 0.8946
vn 0.4994 0.4457 0.7430
vn 0.7850 0.2419 0.5703
vn 0.8609 0.4457 0.2453
vn 0.2913 0.3334 -0.8966
vn 0.2973 -0.2723 -0.9151
vn 0.0035 -0.6297 -0.7769
vn -0.8450 0.2677 -0.4629
vn -0.8339 -0.2702 -0.4813
vn -0.7220 -0.6466 -0.2463
vn -0.8450 0.2677 0.4629
vn -0.8672 -0.0811 0.4914
vn -0.5803 -0.5250 0.6225
vn 0.2913 0.3334 0.8966
vn 0.2973 -0.2723 0.9151
vn 0.9428 0.3334 0.0000
vn 0.9580 -0.2868 0.0000
vn 0.7780 -0.5332 -0.3323
vn -0.0005 -1.0000 -0.0043
vn 0.0151 -0.9999 0.0045
vn -0.0144 -0.9999 -0.0016
s off
f 11/1/1 18/2/1 13/3/1
f 11/4/2 13/5/2 17/6/2
f 3/7/3 4/8/3 9/9/3 8/10/3
f 14/11/4 20/12/4 15/13/4
f 21/14/5 25/15/5 12/16/5
f 25/15/6 24/17/6 12/16/6
f 24/17/7 23/18/7 12/16/7
f 24/17/8 19/19/8 23/18/8
f 23/18/9 22/20/9 12/16/9
f 22/20/10 21/14/10 12/16/10
f 15/13/11 20/12/11 21/14/11
f 20/12/12 25/15/12 21/14/12
f 20/12/13 24/17/13 25/15/13
f 20/12/14 18/21/14 24/17/14
f 17/6/15 22/20/15 23/18/15
f 16/22/16 21/14/16 22/20/16
f 14/11/17 18/21/17 20/12/17
f 18/21/18 19/19/18 24/17/18
f 18/21/19 11/4/19 19/19/19
f 19/19/20 17/6/20 23/18/20
f 19/19/21 11/4/21 17/6/21
f 17/6/22 16/22/22 22/20/22
f 17/6/23 13/5/23 16/22/23
f 16/22/24 15/13/24 21/14/24
f 16/22/25 13/5/25 15/13/25
f 13/5/26 14/11/26 15/13/26
f 13/3/27 18/2/27 14/23/27
f 1/24/28 2/25/28 7/26/28 6/27/28
f 4/8/29 5/28/29 10/29/29 9/9/29
f 7/26/30 2/25/30 3/30/30 8/31/30
f 5/28/31 1/24/31 6/27/31 10/29/31
f 29/32/32 34/33/32 33/34/32 28/35/32
f 27/36/33 32/37/33 31/38/33 26/39/33
f 30/40/34 35/41/34 34/33/34 29/32/34
f 28/42/35 33/43/35 32/37/35 27/36/35
f 26/39/36 31/38/36 35/41/36 30/40/36
f 37/44/37 38/45/37 41/46/37
f 36/47/38 41/48/38 44/49/38
f 37/50/39 36/47/39 46/51/39
f 36/47/40 44/49/40 47/52/40
f 37/50/41 46/51/41 48/53/41
f 38/54/42 49/55/42 52/56/42
f 43/57/43 51/58/43 45/59/43
f 39/60/44 61/61/44 40/62/44
f 39/60/45 57/63/45 61/61/45
f 61/61/46 60/64/46 40/62/46
f 61/61/47 56/65/47 60/64/47
f 60/64/48 59/66/48 40/62/48
f 60/64/49 55/67/49 59/66/49
f 59/66/50 58/68/50 40/62/50
f 59/66/51 54/69/51 58/68/51
f 58/68/52 39/60/52 40/62/52
f 58/68/53 53/70/53 39/60/53
f 45/59/54 57/63/54 39/60/54
f 45/59/55 51/58/55 57/63/55
f 51/58/56 61/61/56 57/63/56
f 52/56/57 56/65/57 61/61/57
f 52/56/58 49/55/58 56/65/58
f 49/55/59 60/64/59 56/65/59
f 50/71/60 55/67/60 60/64/60
f 50/71/61 59/66/61 55/67/61
f 48/53/62 54/69/62 59/66/62
f 48/53/63 46/51/63 54/69/63
f 46/51/64 58/68/64 54/69/64
f 47/52/65 53/70/65 58/68/65
f 47/52/66 44/49/66 53/70/66
f 44/49/67 39/60/67 53/70/67
f 51/58/68 52/56/68 61/61/68
f 51/58/69 43/57/69 52/56/69
f 43/57/70 38/54/70 52/56/70
f 49/55/71 50/71/71 60/64/71
f 49/55/72 38/54/72 50/71/72
f 38/54/73 42/72/73 50/71/73
f 50/71/74 48/53/74 59/66/74
f 50/71/75 42/72/75 48/53/75
f 42/72/76 37/50/76 48/53/76
f 46/51/77 47/52/77 58/68/77
f 46/51/78 36/47/78 47/52/78
f 44/49/79 45/59/79 39/60/79
f 44/49/80 41/48/80 45/59/80
f 41/48/81 43/57/81 45/59/81
f 41/46/82 38/45/82 43/73/82
f 38/45/83 37/44/83 42/74/83
f 37/44/84 41/46/84 36/75/84
