# Blender v2.78 (sub 0) OBJ File: 'Low_Poly_Vegetation_Pack.blend'
# www.blender.org
g Mushroom_h_05
v -0.004316 -0.024981 0.014501
v 0.008788 -0.024807 0.012662
v 0.000600 -0.028333 0.001194
v -0.019462 0.180775 -0.055481
v -0.019220 0.176796 -0.071601
v -0.066949 0.204161 0.023389
v 0.013854 0.211856 0.038133
v 0.090934 0.187223 -0.064026
v 0.055190 0.170092 -0.134206
v -0.029788 0.160372 -0.160380
v -0.095027 0.168126 -0.117944
v -0.113334 0.186083 -0.039009
v -0.028392 0.214413 -0.013270
v 0.041528 0.210713 -0.026763
v 0.038430 0.193619 -0.098189
v -0.021818 0.183860 -0.127727
v -0.067689 0.194071 -0.086861
v -0.012187 0.204536 -0.069281
v -0.033216 0.195875 0.010677
v 0.074708 0.202549 0.002489
v 0.050808 0.170699 -0.098737
v -0.047518 0.161159 -0.125849
v -0.085048 0.179150 -0.046176
v -0.002931 0.181638 -0.054175
v -0.002670 0.177685 -0.070100
v -0.013942 0.076507 -0.024681
v -0.012720 0.080637 -0.010327
v 0.001967 0.081189 -0.010953
v 0.000733 0.077062 -0.025258
v -0.043105 -0.023499 0.017471
v -0.040651 -0.022039 0.027107
v -0.034482 -0.020976 0.016286
v -0.071118 0.108081 0.005883
v -0.061051 0.109275 0.002363
v -0.126359 0.096288 -0.013478
v -0.127967 0.102162 0.038924
v -0.009440 0.119497 -0.011724
v -0.110185 0.110535 -0.008513
v -0.092234 0.118807 0.053327
v -0.055438 0.117793 0.072354
v -0.031636 0.128964 0.031289
v -0.025693 0.127470 -0.006032
v -0.048576 0.120612 -0.032597
v -0.091590 0.101266 -0.049186
v -0.069741 0.128980 0.008253
v -0.119739 0.093242 0.005883
v -0.098437 0.106170 0.069780
v -0.056509 0.109501 0.061254
v -0.019042 0.120145 0.043183
v -0.017942 0.112463 -0.007501
v -0.042631 0.108307 -0.045701
v -0.084627 0.096301 -0.038379
v -0.065744 0.109999 0.014838
v -0.031401 -0.019636 0.023494
v 0.040774 0.154486 0.042081
v 0.044573 0.152976 0.052423
v 0.035428 0.146728 -0.032618
v -0.018670 0.172425 -0.018224
v -0.020836 0.177099 0.089934
v 0.027136 0.166596 0.121260
v 0.074573 0.134793 0.101662
v 0.096715 0.113743 0.055282
v 0.083440 0.119216 0.001725
v 0.036352 0.171151 0.004215
v -0.000032 0.186220 0.037595
v 0.031631 0.182185 0.085198
v 0.067504 0.157640 0.081259
v 0.078071 0.145793 0.042976
v 0.051170 0.175433 0.046956
v 0.021494 0.151867 -0.009874
v -0.042961 0.178317 0.034644
v 0.017838 0.166900 0.095270
v 0.068815 0.130172 0.076315
v 0.066836 0.125807 0.018343
v 0.033211 0.160290 0.045770
v 0.037330 0.159037 0.056187
v 0.010142 -0.023907 0.031288
v 0.000075 -0.023756 0.020187
v -0.011312 -0.023788 0.029501
v -0.001264 -0.023948 0.040556
v 0.008593 0.098373 0.037830
v -0.000047 0.102375 0.042480
v 0.013736 0.097788 0.049067
v 0.005484 0.102083 0.053689
vt 0.1754 0.0564
vt 0.1874 0.0575
vt 0.1735 0.0714
vt 0.1547 0.0593
vt 0.1538 0.0714
vt 0.1399 0.0575
vt 0.1735 0.0239
vt 0.1651 0.0331
vt 0.1538 0.0239
vt 0.1637 0.0477
vt 0.1490 0.0418
vt 0.1874 0.0378
vt 0.2250 0.0595
vt 0.2044 0.0598
vt 0.2169 0.0313
vt 0.2161 0.0451
vt 0.2124 0.0458
vt 0.2307 0.0408
vt 0.1451 0.0381
vt 0.2126 0.0940
vt 0.1878 0.0940
vt 0.1877 0.0900
vt 0.2126 0.0900
vt 0.1877 0.0861
vt 0.2126 0.0861
vt 0.1878 0.0979
vt 0.2126 0.0980
vt 0.1878 0.1019
vt 0.2127 0.1020
vt 0.1781 0.0414
vt 0.2168 0.0488
vt 0.2131 0.0495
vt 0.1629 0.1017
vt 0.1629 0.0978
vt 0.1629 0.0939
vt 0.1628 0.0880
vt 0.1629 0.0900
vt 0.2126 0.0921
vt 0.1629 0.0939
vt 0.2126 0.0980
vt 0.2126 0.1020
vt 0.1629 0.0978
vt 0.1490 0.0418
vt 0.1400 0.0575
vt 0.1541 0.0385
vt 0.1540 0.0243
vt 0.1578 0.0623
vt 0.1733 0.0711
vt 0.1538 0.0714
vt 0.1985 0.0537
vt 0.1789 0.0301
vt 0.1939 0.0570
vt 0.2307 0.0408
vt 0.2166 0.0313
vt 0.2161 0.0451
vt 0.2128 0.0476
vt 0.2211 0.0634
vt 0.2168 0.0488
vt 0.2125 0.0861
vt 0.1695 0.0330
vt 0.1874 0.0378
vt 0.1781 0.0414
vt 0.1783 0.0535
vt 0.1637 0.0477
vt 0.1629 0.1017
vt 0.1628 0.0861
vt 0.1754 0.0564
vt 0.1874 0.0575
vt 0.1735 0.0714
vt 0.1547 0.0593
vt 0.1538 0.0714
vt 0.1399 0.0575
vt 0.1735 0.0239
vt 0.1651 0.0331
vt 0.1538 0.0239
vt 0.1637 0.0477
vt 0.1490 0.0418
vt 0.1874 0.0378
vt 0.2250 0.0595
vt 0.2044 0.0598
vt 0.2169 0.0313
vt 0.2161 0.0451
vt 0.2124 0.0458
vt 0.2307 0.0408
vt 0.1451 0.0381
vt 0.2046 0.0940
vt 0.1878 0.0940
vt 0.1877 0.0900
vt 0.2045 0.0900
vt 0.1877 0.0861
vt 0.2045 0.0861
vt 0.2046 0.0980
vt 0.2126 0.0940
vt 0.2126 0.0980
vt 0.2046 0.1019
vt 0.2127 0.1020
vt 0.1781 0.0414
vt 0.2168 0.0488
vt 0.2131 0.0495
vt 0.1878 0.1019
vt 0.1878 0.0979
vt 0.2126 0.0900
vt 0.2126 0.0861
vn -0.4578 0.8380 -0.2968
vn -0.1205 0.9816 0.1478
vn 0.3565 0.8495 -0.3889
vn 0.0747 0.9691 -0.2352
vn -0.1181 0.9715 -0.2055
vn -0.1541 -0.9864 -0.0566
vn 0.3370 -0.9397 0.0577
vn 0.0327 -0.9729 0.2289
vn 0.0572 -0.9707 0.2334
vn 0.0786 -0.9654 0.2486
vn 0.9990 0.0243 -0.0387
vn -0.0136 -0.8538 0.5204
vn 0.0460 -0.4134 -0.9094
vn -0.0381 0.4010 0.9153
vn -0.9983 -0.0402 0.0428
vn 0.1098 0.9935 0.0294
vn 0.1013 0.8269 -0.5532
vn 0.3002 0.9345 -0.1911
vn -0.2919 0.9526 -0.0852
vn -0.2453 0.8271 -0.5056
vn -0.0311 0.9439 -0.3288
vn 0.0197 0.9856 -0.1681
vn -0.1112 -0.9256 0.3617
vn -0.1450 -0.9747 0.1699
vn 0.0861 -0.9182 0.3868
vn 0.0905 -0.9947 0.0484
vn 0.0603 -0.9675 0.2457
vn 0.1669 -0.9511 0.2599
vn 0.0204 -0.9629 0.2690
vn 0.0409 -0.9578 0.2845
vn -0.9867 -0.1308 -0.0964
vn 0.0801 0.2279 0.9704
vn 0.9426 -0.0484 -0.3303
vn -0.0289 -0.2433 -0.9695
vn 0.3260 0.1487 0.9336
vn -0.3106 -0.1488 -0.9388
vn -0.5136 0.7630 0.3924
vn -0.9022 -0.1450 0.4062
vn -0.2509 0.8111 0.5284
vn -0.5284 0.7430 -0.4109
vn 0.4524 -0.7349 0.5053
vn 0.1581 -0.8547 -0.4945
vn 0.2918 -0.9560 0.0296
vn 0.2880 -0.9436 0.1632
vn 0.0857 -0.9949 0.0529
vn 0.2462 -0.9674 -0.0594
vn 0.2798 -0.9549 0.0999
vn -0.5844 -0.8082 0.0727
vn 0.9081 0.2624 0.3264
vn 0.4920 0.8683 0.0628
vn -0.0534 0.7157 -0.6963
vn 0.2977 0.8036 -0.5153
vn -0.6390 0.7620 -0.1050
vn -0.0941 0.9770 0.1915
vn 0.2538 0.8859 0.3882
vn -0.4184 0.9083 -0.0000
vn -0.2767 0.9025 -0.3302
vn -0.0074 0.9918 -0.1277
vn -0.1211 -0.9716 -0.2035
vn 0.2716 -0.9513 0.1458
vn 0.5361 -0.8034 -0.2591
vn -0.1122 -0.9660 0.2329
vn 0.6687 -0.7328 0.1256
vn 0.1807 -0.7963 0.5773
vn 0.1168 -0.9830 0.1415
vn 0.0740 -0.9969 -0.0254
vn -0.0989 -0.1257 -0.9871
vn 0.9009 0.1398 -0.4110
vn 0.8788 0.4450 -0.1723
vn 0.2392 0.8065 -0.5407
vn -0.0538 0.9190 0.3906
vn 0.2165 0.9744 -0.0614
vn 0.6848 0.6624 -0.3038
vn -0.3487 -0.9048 0.2442
vn -0.2649 -0.9607 0.0835
vn -0.5177 -0.8231 0.2336
vn -0.5977 -0.7584 0.2600
vn -0.2529 -0.9473 0.1967
vn -0.8193 -0.0008 0.5733
vn -0.4430 -0.8938 -0.0695
vn 0.5542 -0.1258 0.8228
vn -0.3221 0.2453 -0.9144
vn 0.8157 -0.4359 -0.3803
vn -0.0038 0.9711 -0.2387
vn 0.5853 0.6824 0.4379
vn -0.1318 0.9841 0.1191
vn 0.6779 0.6326 -0.3746
vn 0.8609 0.4883 0.1428
vn 0.6570 0.7500 0.0762
vn 0.2337 0.9561 -0.1768
vn -0.4519 -0.8879 -0.0860
vn -0.4257 -0.9035 0.0492
vn -0.4366 -0.8940 -0.1010
vn -0.4992 -0.8389 0.2169
vn -0.7125 -0.6959 0.0893
vn -0.2650 -0.9605 0.0849
vn -0.6207 -0.7721 -0.1364
vn -0.2465 -0.9677 0.0527
vn 0.8265 0.0405 -0.5614
vn -0.5463 0.1453 -0.8249
vn 0.3361 -0.2355 0.9119
vn -0.8086 0.4385 0.3922
s off
f 17/1/1 11/2/1 12/3/1
f 13/4/2 6/5/2 7/6/2
f 9/7/3 15/8/3 8/9/3
f 15/8/4 18/10/4 14/11/4
f 18/10/5 17/1/5 13/4/5
f 10/12/6 22/13/6 11/2/6
f 21/14/7 9/7/7 8/9/7
f 19/15/8 4/16/8 24/17/8
f 19/15/9 23/18/9 4/16/9
f 20/19/10 19/15/10 24/17/10
f 24/20/11 28/21/11 29/22/11 25/23/11
f 6/5/12 19/15/12 7/6/12
f 25/23/13 29/22/13 26/24/13 5/25/13
f 27/26/14 28/21/14 24/20/14 4/27/14
f 26/28/15 27/26/15 4/27/15 5/29/15
f 7/6/16 20/19/16 14/11/16 13/4/16
f 9/7/17 10/12/17 16/30/17 15/8/17
f 14/11/18 20/19/18 8/9/18 15/8/18
f 12/3/19 6/5/19 13/4/19 17/1/19
f 10/12/20 11/2/20 17/1/20 16/30/20
f 16/30/21 17/1/21 18/10/21 15/8/21
f 13/4/22 14/11/22 18/10/22
f 19/15/23 6/5/23 12/3/23 23/18/23
f 23/18/24 12/3/24 11/2/24 22/13/24
f 7/6/25 19/15/25 20/19/25
f 10/12/26 9/7/26 21/14/26 22/13/26
f 5/31/27 4/16/27 23/18/27 22/13/27
f 20/19/28 21/14/28 8/9/28
f 25/32/29 5/31/29 22/13/29 21/14/29
f 24/17/30 25/32/30 21/14/30 20/19/30
f 26/28/31 3/33/31 1/34/31 27/26/31
f 1/34/32 2/35/32 28/21/32 27/26/32
f 2/35/33 3/36/33 29/22/33 28/21/33
f 3/36/34 26/24/34 29/22/34
f 54/37/35 53/38/35 31/39/35
f 33/40/36 34/41/36 30/42/36
f 39/43/37 36/44/37 47/45/37
f 33/40/38 30/42/38 31/39/38 53/38/38
f 40/46/39 39/43/39 47/45/39
f 38/47/40 44/48/40 35/49/40
f 48/50/41 49/51/41 40/46/41
f 51/52/42 52/53/42 44/48/42
f 46/54/43 33/55/43 53/56/43
f 46/54/44 52/53/44 33/55/44
f 51/52/45 50/57/45 34/58/45
f 49/51/46 48/50/46 53/56/46
f 47/45/47 46/54/47 53/56/47
f 35/49/48 46/54/48 36/44/48
f 34/59/49 53/38/49 54/37/49
f 41/60/50 49/51/50 37/61/50 42/62/50
f 44/48/51 43/63/51 51/52/51
f 37/61/52 51/52/52 43/63/52 42/62/52
f 36/44/53 38/47/53 35/49/53
f 45/64/54 39/43/54 40/46/54 41/60/54
f 49/51/55 41/60/55 40/46/55
f 45/64/56 38/47/56 36/44/56 39/43/56
f 44/48/57 38/47/57 45/64/57 43/63/57
f 42/62/58 43/63/58 45/64/58 41/60/58
f 46/54/59 35/49/59 44/48/59 52/53/59
f 34/58/60 33/55/60 52/53/60 51/52/60
f 37/61/61 50/57/61 51/52/61
f 36/44/62 46/54/62 47/45/62
f 49/51/63 50/57/63 37/61/63
f 47/45/64 48/50/64 40/46/64
f 53/56/65 34/58/65 50/57/65 49/51/65
f 48/50/66 47/45/66 53/56/66
f 30/42/67 34/41/67 32/65/67
f 32/66/68 34/59/68 54/37/68
f 68/67/69 62/68/69 63/69/69
f 64/70/70 57/71/70 58/72/70
f 60/73/71 66/74/71 59/75/71
f 66/74/72 69/76/72 65/77/72
f 69/76/73 68/67/73 64/70/73
f 61/78/74 73/79/74 62/68/74
f 72/80/75 60/73/75 59/75/75
f 70/81/76 55/82/76 75/83/76
f 70/81/77 74/84/77 55/82/77
f 71/85/78 70/81/78 75/83/78
f 82/86/79 79/87/79 80/88/79 84/89/79
f 57/71/80 70/81/80 58/72/80
f 84/89/81 80/88/81 77/90/81 83/91/81
f 81/92/82 82/86/82 75/93/82 55/94/82
f 83/95/83 81/92/83 55/94/83 56/96/83
f 58/72/84 71/85/84 65/77/84 64/70/84
f 60/73/85 61/78/85 67/97/85 66/74/85
f 65/77/86 71/85/86 59/75/86 66/74/86
f 63/69/87 57/71/87 64/70/87 68/67/87
f 61/78/88 62/68/88 68/67/88 67/97/88
f 67/97/89 68/67/89 69/76/89 66/74/89
f 64/70/90 65/77/90 69/76/90
f 70/81/91 57/71/91 63/69/91 74/84/91
f 74/84/92 63/69/92 62/68/92 73/79/92
f 58/72/93 70/81/93 71/85/93
f 61/78/94 60/73/94 72/80/94 73/79/94
f 56/98/95 55/82/95 74/84/95 73/79/95
f 71/85/96 72/80/96 59/75/96
f 76/99/97 56/98/97 73/79/97 72/80/97
f 75/83/98 76/99/98 72/80/98 71/85/98
f 77/100/99 78/101/99 81/92/99 83/95/99
f 78/101/100 79/87/100 82/86/100 81/92/100
f 76/102/101 84/89/101 83/91/101 56/103/101
f 75/93/102 82/86/102 84/89/102 76/102/102
