# Blender v2.78 (sub 0) OBJ File: 'Low_Poly_Vegetation_Pack.blend'
# www.blender.org
g Mushroom_i_09
v -0.000785 0.129684 0.061153
v 0.048328 0.143748 0.019781
v 0.055572 0.143526 -0.045557
v 0.016702 0.129148 -0.096587
v -0.045511 0.109037 -0.103416
v -0.094625 0.094973 -0.062043
v -0.101868 0.095195 0.003295
v -0.062999 0.109573 0.054325
v -0.019170 0.145962 0.020605
v 0.006574 0.153334 -0.001082
v 0.010371 0.153218 -0.035332
v -0.010004 0.145681 -0.062081
v -0.042615 0.135139 -0.065661
v -0.068360 0.127767 -0.043974
v -0.072157 0.127883 -0.009724
v -0.051782 0.135420 0.017025
v -0.038141 0.166359 -0.022953
v -0.001592 -0.012740 0.003760
v 0.003561 -0.012740 -0.005170
v -0.005368 -0.012740 -0.010323
v -0.010522 -0.012740 -0.001394
v -0.029337 0.141192 -0.013789
v -0.025446 0.143513 -0.021135
v -0.032188 0.139492 -0.025375
v -0.036080 0.137171 -0.018029
v -0.004288 0.073941 -0.017444
v -0.012805 0.070574 -0.022715
v -0.018059 0.069535 -0.013877
v -0.009542 0.072902 -0.008606
v 0.007196 0.087842 -0.026489
v -0.021592 0.079586 -0.044305
v -0.039351 0.077039 -0.014431
v -0.010563 0.085294 0.003386
v 0.159180 0.222052 0.091079
v 0.234496 0.213569 0.028244
v 0.243393 0.210537 -0.069758
v 0.180659 0.214731 -0.145518
v 0.083044 0.223695 -0.154658
v 0.007728 0.232178 -0.091822
v -0.001169 0.235211 0.006180
v 0.061564 0.231016 0.081940
v 0.142818 0.256213 0.031034
v 0.182298 0.251766 -0.001904
v 0.186962 0.250176 -0.053275
v 0.154077 0.252375 -0.092988
v 0.102908 0.257074 -0.097779
v 0.063428 0.261521 -0.064841
v 0.058765 0.263110 -0.013469
v 0.091649 0.260912 0.026243
v 0.128024 0.296462 -0.033439
v 0.003743 -0.015768 0.013960
v 0.013960 -0.015768 -0.003743
v -0.003743 -0.015768 -0.013960
v -0.013960 -0.015768 0.003743
v 0.130150 0.252510 -0.018356
v 0.140342 0.251803 -0.036058
v 0.122682 0.253029 -0.046275
v 0.112490 0.253736 -0.028573
v 0.100271 0.105127 -0.028077
v 0.083922 0.111550 -0.038527
v 0.074744 0.116697 -0.021005
v 0.091093 0.110274 -0.010555
v 0.132446 0.144262 -0.039094
v 0.089814 0.155931 -0.065389
v 0.065467 0.166338 -0.021298
v 0.108099 0.154670 0.004997
vt 0.0844 0.1149
vt 0.0748 0.0884
vt 0.0902 0.0717
vt 0.1157 0.0836
vt 0.0844 0.0081
vt 0.0725 0.0336
vt 0.0498 0.0346
vt 0.0402 0.0081
vt 0.0089 0.0394
vt 0.0344 0.0513
vt 0.0354 0.0740
vt 0.0089 0.0836
vt 0.0402 0.1149
vt 0.0521 0.0894
vt 0.0892 0.0490
vt 0.1157 0.0394
vt 0.0623 0.0615
vt 0.4448 0.1899
vt 0.4459 0.2401
vt 0.4382 0.2413
vt 0.4382 0.1903
vt 0.4517 0.1893
vt 0.4529 0.2389
vt 0.4305 0.2401
vt 0.4316 0.1897
vt 0.4235 0.2389
vt 0.4247 0.1893
vt 0.4318 0.1364
vt 0.4254 0.1333
vt 0.4382 0.1395
vt 0.4510 0.1333
vt 0.4446 0.1364
vt 0.4360 0.2386
vt 0.4265 0.2386
vt 0.4265 0.2291
vt 0.4360 0.2291
vt 0.0844 0.1149
vt 0.0748 0.0884
vt 0.0902 0.0717
vt 0.1157 0.0836
vt 0.0844 0.0081
vt 0.0725 0.0336
vt 0.0498 0.0346
vt 0.0402 0.0081
vt 0.0089 0.0394
vt 0.0344 0.0513
vt 0.0354 0.0740
vt 0.0089 0.0836
vt 0.0402 0.1149
vt 0.0521 0.0894
vt 0.0892 0.0490
vt 0.1157 0.0394
vt 0.0623 0.0615
vt 0.4448 0.1899
vt 0.4459 0.2401
vt 0.4382 0.2413
vt 0.4382 0.1903
vt 0.4517 0.1893
vt 0.4529 0.2389
vt 0.4305 0.2401
vt 0.4316 0.1897
vt 0.4235 0.2389
vt 0.4247 0.1893
vt 0.4318 0.1364
vt 0.4254 0.1333
vt 0.4382 0.1395
vt 0.4510 0.1333
vt 0.4446 0.1364
vt 0.4360 0.2386
vt 0.4265 0.2386
vt 0.4265 0.2291
vt 0.4360 0.2291
vn 0.2140 0.9766 0.0204
vn -0.6462 0.7044 0.2938
vn -0.5684 0.6965 -0.4379
vn 0.1193 0.9282 -0.3524
vn 0.0350 0.9328 0.3586
vn -0.3175 0.8214 0.4737
vn -0.7540 0.6512 -0.0858
vn -0.2027 0.8127 -0.5463
vn -0.0240 0.8766 -0.4806
vn 0.1739 0.9607 0.2165
vn -0.4983 0.7596 0.4178
vn -0.6806 0.6806 -0.2712
vn 0.4895 0.1036 -0.8658
vn -0.8198 -0.2502 -0.5152
vn 0.8117 0.2743 0.5156
vn -0.4992 -0.0796 0.8628
vn -0.5224 0.0775 0.8492
vn 0.8492 0.1502 0.5062
vn -0.8488 -0.1528 -0.5061
vn 0.5223 -0.0763 -0.8494
vn -0.2405 0.9688 -0.0603
vn 0.5799 0.8142 0.0275
vn -0.3155 0.8966 0.3109
vn -0.2540 0.8703 -0.4220
vn 0.4702 0.8126 -0.3444
vn 0.4014 0.8388 0.3678
vn 0.0345 0.8727 0.4871
vn -0.4392 0.8958 -0.0676
vn 0.1268 0.8355 -0.5346
vn 0.3169 0.8233 -0.4709
vn 0.5387 0.8122 0.2239
vn -0.1566 0.8876 0.4333
vn -0.3619 0.8970 -0.2537
vn 0.4813 -0.1785 -0.8582
vn -0.8431 0.2042 -0.4975
vn 0.8432 -0.2038 0.4975
vn -0.4811 0.1795 0.8581
vn -0.4074 0.4309 0.8052
vn 0.7588 -0.4383 0.4818
vn -0.7642 0.4271 -0.4832
vn 0.4035 -0.4408 -0.8018
vn 0.2980 0.9527 -0.0603
s off
f 3/1/1 11/2/1 10/3/1 2/4/1
f 8/5/2 16/6/2 15/7/2 7/8/2
f 6/9/3 14/10/3 13/11/3 5/12/3
f 4/13/4 12/14/4 11/2/4 3/1/4
f 2/4/5 10/3/5 9/15/5 1/16/5
f 1/16/6 9/15/6 16/6/6 8/5/6
f 7/8/7 15/7/7 14/10/7 6/9/7
f 5/12/8 13/11/8 12/14/8 4/13/8
f 11/2/9 12/14/9 13/11/9 17/17/9
f 10/3/10 11/2/10 17/17/10 9/15/10
f 9/15/11 17/17/11 15/7/11 16/6/11
f 17/17/12 13/11/12 14/10/12 15/7/12
f 27/18/13 24/19/13 23/20/13 26/21/13
f 28/22/14 25/23/14 24/19/14 27/18/14
f 26/21/15 23/20/15 22/24/15 29/25/15
f 29/25/16 22/24/16 25/26/16 28/27/16
f 18/28/17 29/25/17 28/27/17 21/29/17
f 19/30/18 26/21/18 29/25/18 18/28/18
f 21/31/19 28/22/19 27/18/19 20/32/19
f 20/32/20 27/18/20 26/21/20 19/30/20
f 33/33/21 30/34/21 31/35/21 32/36/21
f 36/37/22 44/38/22 43/39/22 35/40/22
f 41/41/23 49/42/23 48/43/23 40/44/23
f 39/45/24 47/46/24 46/47/24 38/48/24
f 37/49/25 45/50/25 44/38/25 36/37/25
f 35/40/26 43/39/26 42/51/26 34/52/26
f 34/52/27 42/51/27 49/42/27 41/41/27
f 40/44/28 48/43/28 47/46/28 39/45/28
f 38/48/29 46/47/29 45/50/29 37/49/29
f 44/38/30 45/50/30 46/47/30 50/53/30
f 43/39/31 44/38/31 50/53/31 42/51/31
f 42/51/32 50/53/32 48/43/32 49/42/32
f 50/53/33 46/47/33 47/46/33 48/43/33
f 60/54/34 57/55/34 56/56/34 59/57/34
f 61/58/35 58/59/35 57/55/35 60/54/35
f 59/57/36 56/56/36 55/60/36 62/61/36
f 62/61/37 55/60/37 58/62/37 61/63/37
f 51/64/38 62/61/38 61/63/38 54/65/38
f 52/66/39 59/57/39 62/61/39 51/64/39
f 54/67/40 61/58/40 60/54/40 53/68/40
f 53/68/41 60/54/41 59/57/41 52/66/41
f 66/69/42 63/70/42 64/71/42 65/72/42
