# Blender v2.78 (sub 0) OBJ File: 'Low_Poly_Vegetation_Pack.blend'
# www.blender.org
g Mushroom_c_03
v 0.044723 0.139258 -0.068765
v -0.003060 0.143240 -0.048348
v -0.022434 0.145180 -0.000008
v -0.002051 0.143941 0.047939
v 0.046150 0.140250 0.067405
v 0.093933 0.136268 0.046989
v 0.113307 0.134328 -0.001351
v 0.092924 0.135567 -0.049298
v 0.050230 0.205430 -0.046799
v 0.018240 0.208096 -0.033130
v 0.005269 0.209394 -0.000766
v 0.018915 0.208565 0.031334
v 0.051186 0.206094 0.044367
v 0.083176 0.203428 0.030698
v 0.096147 0.202129 -0.001665
v 0.082501 0.202958 -0.033766
v 0.052081 0.222956 -0.001355
v 0.000000 -0.012418 -0.008672
v -0.008672 -0.012418 0.000000
v 0.000000 -0.012418 0.008672
v 0.008672 -0.012418 0.000000
v 0.045536 0.191916 -0.010130
v 0.037782 0.195133 -0.001190
v 0.046739 0.193760 0.007073
v 0.054493 0.190543 -0.001867
v 0.020530 0.048384 0.006978
v 0.029201 0.048384 0.015649
v 0.037873 0.048384 0.006978
v 0.029201 0.048384 -0.001694
vt 0.5865 0.2269
vt 0.5801 0.2093
vt 0.5903 0.1982
vt 0.6073 0.2062
vt 0.5865 0.1560
vt 0.5786 0.1730
vt 0.5635 0.1736
vt 0.5571 0.1560
vt 0.5364 0.1768
vt 0.5533 0.1847
vt 0.5540 0.1998
vt 0.5364 0.2062
vt 0.5571 0.2269
vt 0.5651 0.2100
vt 0.5897 0.1832
vt 0.6073 0.1768
vt 0.5718 0.1915
vt 0.5260 0.1716
vt 0.5260 0.2306
vt 0.5200 0.2306
vt 0.5200 0.1716
vt 0.5319 0.1716
vt 0.5319 0.2306
vt 0.5141 0.2306
vt 0.5141 0.1716
vt 0.5081 0.2306
vt 0.5081 0.1716
vt 0.5141 0.1550
vt 0.5081 0.1550
vt 0.5200 0.1550
vt 0.5319 0.1550
vt 0.5260 0.1550
vn -0.8586 0.3662 -0.3588
vn 0.8986 0.2257 -0.3762
vn 0.3970 0.2759 0.8754
vn -0.8509 0.3715 0.3714
vn -0.3493 0.3213 -0.8802
vn 0.3785 0.2631 -0.8874
vn 0.9063 0.2310 0.3540
vn -0.3309 0.3341 0.8826
vn -0.1724 0.9540 0.2451
vn -0.1776 0.9504 -0.2553
vn 0.3213 0.9105 -0.2603
vn 0.3265 0.9142 0.2402
vn -0.6826 0.1226 0.7205
vn 0.7265 -0.0448 0.6857
vn -0.7265 0.0448 -0.6857
vn 0.6826 -0.1223 -0.7205
vn 0.6846 -0.2502 -0.6846
vn -0.6518 0.3878 -0.6518
vn 0.6518 -0.3878 0.6518
vn -0.6846 0.2502 0.6846
s off
f 3/1/1 11/2/1 10/3/1 2/4/1
f 8/5/2 16/6/2 15/7/2 7/8/2
f 6/9/3 14/10/3 13/11/3 5/12/3
f 4/13/4 12/14/4 11/2/4 3/1/4
f 2/4/5 10/3/5 9/15/5 1/16/5
f 1/16/6 9/15/6 16/6/6 8/5/6
f 7/8/7 15/7/7 14/10/7 6/9/7
f 5/12/8 13/11/8 12/14/8 4/13/8
f 11/2/9 12/14/9 13/11/9 17/17/9
f 10/3/10 11/2/10 17/17/10 9/15/10
f 9/15/11 17/17/11 15/7/11 16/6/11
f 17/17/12 13/11/12 14/10/12 15/7/12
f 27/18/13 24/19/13 23/20/13 26/21/13
f 28/22/14 25/23/14 24/19/14 27/18/14
f 26/21/15 23/20/15 22/24/15 29/25/15
f 29/25/16 22/24/16 25/26/16 28/27/16
f 18/28/17 29/25/17 28/27/17 21/29/17
f 19/30/18 26/21/18 29/25/18 18/28/18
f 21/31/19 28/22/19 27/18/19 20/32/19
f 20/32/20 27/18/20 26/21/20 19/30/20
