# Blender v2.78 (sub 0) OBJ File: 'Low_Poly_Vegetation_Pack.blend'
# www.blender.org
g Mushroom_f_06
v 0.021566 -0.011701 -0.160618
v -0.012541 -0.011446 -0.189013
v -0.050161 -0.010487 -0.165619
v -0.039372 -0.010215 -0.122518
v 0.004920 -0.010395 -0.119289
v 0.013708 0.112008 -0.173827
v -0.011122 0.107066 -0.193621
v -0.037617 0.115747 -0.178120
v -0.030178 0.111985 -0.144912
v 0.001914 0.107510 -0.141425
v -0.067607 0.050161 -0.175556
v -0.052497 0.051774 -0.105924
v 0.040860 0.039979 -0.169423
v -0.010970 0.035069 -0.209450
v 0.015499 0.041284 -0.103440
v -0.099203 0.110234 -0.102169
v -0.123071 0.100024 -0.222786
v -0.024389 0.153957 -0.050880
v -0.137029 0.128815 -0.152251
v -0.072652 0.116817 -0.281379
v -0.010927 0.188689 -0.190332
v 0.027162 0.095932 -0.116999
v -0.007722 0.111216 -0.064157
v 0.078170 0.104461 -0.106568
v 0.057139 0.069626 -0.215706
v -0.061726 0.105272 -0.151356
v -0.014087 0.087986 -0.200108
v -0.049409 0.076418 -0.265067
v 0.098578 0.140306 -0.154079
v 0.068317 0.130639 -0.071053
v -0.099033 0.150353 -0.088322
v 0.092476 0.100553 -0.222355
v 0.042263 0.084805 -0.283367
v 0.054666 0.161597 -0.096384
v -0.114379 0.150467 -0.209000
v -0.014961 0.121764 -0.285701
v 0.087823 0.138126 -0.215653
v -0.006191 0.189308 -0.121097
v 0.053532 0.175600 -0.167196
v -0.072824 0.180477 -0.164356
v -0.053895 0.176482 -0.238523
v 0.027533 0.158193 -0.247383
v -0.082336 -0.007673 0.162894
v -0.056731 -0.007903 0.164606
v -0.047384 -0.007587 0.140736
v -0.067058 -0.007761 0.124345
v -0.088821 -0.007963 0.138031
v -0.075290 0.106993 0.171958
v -0.051816 0.094766 0.173776
v -0.043381 0.099841 0.152168
v -0.061888 0.100025 0.135805
v -0.083110 0.102422 0.148005
v -0.037406 0.039844 0.140299
v -0.066417 0.037352 0.114829
v -0.087036 0.038324 0.172576
v -0.051043 0.035406 0.174175
v -0.096983 0.035167 0.135806
v -0.018648 0.089430 0.170817
v -0.051021 0.096913 0.206381
v -0.013995 0.134107 0.131820
v -0.022834 0.108409 0.197701
v -0.085039 0.121464 0.207273
v -0.064787 0.183378 0.164588
v -0.053721 0.092024 0.129077
v -0.024943 0.098493 0.128318
v -0.063404 0.105293 0.108285
v -0.102330 0.095897 0.144956
v -0.043145 0.085889 0.171243
v -0.074316 0.089163 0.166430
v -0.087625 0.091718 0.192047
v -0.084146 0.144715 0.114953
v -0.046733 0.122561 0.103225
v -0.008592 0.126011 0.168523
v -0.109305 0.125512 0.134669
v -0.118012 0.127839 0.169572
v -0.050717 0.150412 0.115546
v -0.047175 0.135620 0.205913
v -0.099992 0.140084 0.189664
v -0.101666 0.154280 0.134799
v -0.041790 0.174280 0.144503
v -0.074598 0.175287 0.135151
v -0.040238 0.165306 0.179926
v -0.071451 0.168572 0.192539
v -0.093229 0.170386 0.164249
v 0.107427 -0.009935 0.121194
v 0.123477 -0.012108 0.088055
v 0.097126 -0.009183 0.062412
v 0.064789 -0.005201 0.079703
v 0.071154 -0.005665 0.116032
v 0.125143 0.131949 0.110880
v 0.136387 0.126343 0.086981
v 0.117702 0.132187 0.068663
v 0.092526 0.127819 0.081360
v 0.096353 0.125015 0.107943
v 0.110134 0.055447 0.045869
v 0.056721 0.057243 0.071967
v 0.126551 0.051169 0.134499
v 0.148788 0.043856 0.084819
v 0.068373 0.052357 0.127285
v 0.044585 0.122408 0.034398
v 0.137016 0.114247 -0.008911
v 0.017956 0.159286 0.104527
v 0.077206 0.137668 -0.006276
v 0.194378 0.131886 0.019765
v 0.131292 0.200578 0.086931
v 0.081987 0.113092 0.133310
v 0.032298 0.124017 0.115681
v 0.083868 0.120801 0.176402
v 0.174377 0.100661 0.137970
v 0.091564 0.120587 0.054741
v 0.142764 0.107973 0.083534
v 0.189343 0.099651 0.042187
v 0.126519 0.157006 0.182930
v 0.052955 0.140999 0.175356
v 0.033170 0.155745 0.036941
v 0.181576 0.132515 0.164628
v 0.221261 0.135208 0.111941
v 0.070375 0.168682 0.158977
v 0.127137 0.157594 0.000370
v 0.206046 0.150565 0.065082
v 0.171043 0.164016 0.161781
v 0.077296 0.195003 0.104702
v 0.126747 0.189968 0.143630
v 0.098818 0.187122 0.042450
v 0.161132 0.185186 0.042823
v 0.178551 0.182451 0.106519
v -0.169256 -0.009982 0.020139
v -0.211603 -0.009982 0.029773
v -0.215528 -0.009982 0.073025
v -0.175606 -0.009982 0.090122
v -0.147008 -0.009982 0.057438
v -0.184872 0.149231 0.016604
v -0.216311 0.144347 0.023610
v -0.218926 0.148864 0.055538
v -0.188515 0.139924 0.068974
v -0.166684 0.136852 0.044983
v -0.210257 0.064812 0.066384
v -0.178036 0.061976 0.081452
v -0.175188 0.063001 0.025177
v -0.207050 0.060457 0.033173
v -0.156780 0.059624 0.054965
v -0.287877 0.130415 0.096316
v -0.295739 0.127147 -0.023965
v -0.225884 0.179944 0.157483
v -0.320288 0.151247 0.044084
v -0.242008 0.158189 -0.073661
v -0.201739 0.244935 0.028036
v -0.162858 0.128677 0.096891
v -0.204117 0.136337 0.144500
v -0.115616 0.141652 0.113618
v -0.117742 0.122899 -0.003158
v -0.245690 0.134475 0.053353
v -0.191392 0.125493 0.008746
v -0.216327 0.117128 -0.060421
v -0.094185 0.193832 0.071679
v -0.131751 0.164485 0.148224
v -0.293212 0.172701 0.111812
v -0.088692 0.166824 0.002110
v -0.130047 0.171314 -0.063699
v -0.145158 0.201362 0.123716
v -0.294046 0.183052 -0.006714
v -0.189318 0.186649 -0.066097
v -0.099380 0.206474 0.014239
v -0.204363 0.232909 0.094507
v -0.140451 0.234240 0.056564
v -0.262766 0.221048 0.043943
v -0.236017 0.225365 -0.024350
v -0.158632 0.227763 -0.016483
vt 0.3103 0.2148
vt 0.2900 0.2052
vt 0.2931 0.1966
vt 0.3127 0.2012
vt 0.3138 0.1892
vt 0.2946 0.1878
vt 0.2942 0.1788
vt 0.3140 0.1776
vt 0.3127 0.1655
vt 0.2932 0.1697
vt 0.2904 0.1611
vt 0.3102 0.1514
vt 0.3331 0.1776
vt 0.3329 0.1644
vt 0.3314 0.2028
vt 0.3325 0.1903
vt 0.3322 0.1514
vt 0.3306 0.2149
vt 0.3014 0.1855
vt 0.3363 0.1767
vt 0.3177 0.2079
vt 0.0312 0.1081
vt 0.0078 0.0639
vt 0.0307 0.0684
vt 0.0914 0.1081
vt 0.0590 0.0960
vt 0.0419 0.0855
vt 0.1154 0.0638
vt 0.0916 0.0707
vt 0.0821 0.0455
vt 0.0418 0.0510
vt 0.0494 0.0631
vt 0.0587 0.0741
vt 0.0714 0.0844
vt 0.0704 0.0678
vt 0.0809 0.0588
vt 0.0683 0.0549
vt 0.0528 0.0401
vt 0.0638 0.0435
vt 0.0561 0.0523
vt 0.0609 0.0623
vt 0.0686 0.0337
vt 0.0310 0.0438
vt 0.0855 0.0126
vt 0.0290 0.0238
vt 0.2734 0.1933
vt 0.2986 0.1563
vt 0.2861 0.2255
vt 0.3333 0.2255
vt 0.3450 0.1583
vt 0.3541 0.1938
vt 0.3136 0.2148
vt 0.2900 0.2052
vt 0.2931 0.1966
vt 0.3158 0.2015
vt 0.3169 0.1894
vt 0.2946 0.1878
vt 0.2942 0.1788
vt 0.3172 0.1776
vt 0.3161 0.1653
vt 0.2932 0.1697
vt 0.2904 0.1611
vt 0.3139 0.1514
vt 0.3331 0.1776
vt 0.3329 0.1644
vt 0.3314 0.2028
vt 0.3325 0.1903
vt 0.3322 0.1514
vt 0.3306 0.2149
vt 0.3014 0.1855
vt 0.3363 0.1767
vt 0.3177 0.2079
vt 0.0312 0.1081
vt 0.0078 0.0639
vt 0.0307 0.0684
vt 0.0914 0.1081
vt 0.0590 0.0960
vt 0.0419 0.0855
vt 0.1154 0.0638
vt 0.0916 0.0707
vt 0.0821 0.0455
vt 0.0418 0.0510
vt 0.0494 0.0631
vt 0.0587 0.0741
vt 0.0714 0.0844
vt 0.0704 0.0678
vt 0.0809 0.0588
vt 0.0683 0.0549
vt 0.0528 0.0401
vt 0.0638 0.0435
vt 0.0561 0.0523
vt 0.0609 0.0623
vt 0.0686 0.0337
vt 0.0310 0.0438
vt 0.0855 0.0126
vt 0.0290 0.0238
vt 0.2734 0.1933
vt 0.2986 0.1563
vt 0.2861 0.2255
vt 0.3333 0.2255
vt 0.3450 0.1583
vt 0.3541 0.1938
vt 0.3103 0.2148
vt 0.2900 0.2052
vt 0.2931 0.1966
vt 0.3127 0.2012
vt 0.3138 0.1892
vt 0.2946 0.1878
vt 0.2942 0.1788
vt 0.3140 0.1776
vt 0.3127 0.1655
vt 0.2932 0.1697
vt 0.2904 0.1611
vt 0.3102 0.1514
vt 0.3331 0.1776
vt 0.3329 0.1644
vt 0.3314 0.2028
vt 0.3325 0.1903
vt 0.3322 0.1514
vt 0.3306 0.2149
vt 0.3014 0.1855
vt 0.3363 0.1767
vt 0.3177 0.2079
vt 0.0312 0.1081
vt 0.0078 0.0639
vt 0.0307 0.0684
vt 0.0914 0.1081
vt 0.0590 0.0960
vt 0.0419 0.0855
vt 0.1154 0.0638
vt 0.0916 0.0707
vt 0.0821 0.0455
vt 0.0418 0.0510
vt 0.0494 0.0631
vt 0.0587 0.0741
vt 0.0714 0.0844
vt 0.0704 0.0678
vt 0.0809 0.0588
vt 0.0683 0.0549
vt 0.0528 0.0401
vt 0.0638 0.0435
vt 0.0561 0.0523
vt 0.0609 0.0623
vt 0.0686 0.0337
vt 0.0310 0.0438
vt 0.0855 0.0126
vt 0.0290 0.0238
vt 0.2734 0.1933
vt 0.2986 0.1563
vt 0.2861 0.2255
vt 0.3333 0.2255
vt 0.3450 0.1583
vt 0.3541 0.1938
vt 0.3103 0.2148
vt 0.2900 0.2052
vt 0.2931 0.1966
vt 0.3127 0.2012
vt 0.3138 0.1892
vt 0.2946 0.1878
vt 0.2942 0.1788
vt 0.3140 0.1776
vt 0.3127 0.1655
vt 0.2932 0.1697
vt 0.2904 0.1611
vt 0.3102 0.1514
vt 0.3331 0.1776
vt 0.3329 0.1644
vt 0.3314 0.2028
vt 0.3325 0.1903
vt 0.3322 0.1514
vt 0.3306 0.2149
vt 0.3014 0.1855
vt 0.3363 0.1767
vt 0.3177 0.2079
vt 0.0312 0.1081
vt 0.0078 0.0639
vt 0.0307 0.0684
vt 0.0914 0.1081
vt 0.0590 0.0960
vt 0.0419 0.0855
vt 0.1154 0.0638
vt 0.0916 0.0707
vt 0.0821 0.0455
vt 0.0418 0.0510
vt 0.0494 0.0631
vt 0.0587 0.0741
vt 0.0714 0.0844
vt 0.0704 0.0678
vt 0.0809 0.0588
vt 0.0683 0.0549
vt 0.0528 0.0401
vt 0.0638 0.0435
vt 0.0561 0.0523
vt 0.0609 0.0623
vt 0.0686 0.0337
vt 0.0310 0.0438
vt 0.0855 0.0126
vt 0.0290 0.0238
vt 0.2734 0.1933
vt 0.2986 0.1563
vt 0.2861 0.2255
vt 0.3333 0.2255
vt 0.3450 0.1583
vt 0.3541 0.1938
vn -0.8790 0.4321 0.2018
vn 0.5917 0.1746 -0.7870
vn 0.0265 0.5185 0.8547
vn -0.4627 0.1839 -0.8672
vn 0.8688 0.3602 0.3398
vn 0.8911 -0.2818 0.3557
vn -0.5321 -0.3029 -0.7906
vn -0.0749 -0.2752 0.9585
vn 0.5964 -0.3429 -0.7258
vn -0.9435 -0.2472 0.2209
vn -0.1704 -0.9693 0.1772
vn -0.3482 -0.3992 0.8482
vn -0.6217 -0.7605 0.1874
vn -0.4170 -0.2950 0.8597
vn -0.1373 -0.4378 -0.8885
vn 0.1941 0.8551 0.4808
vn -0.6123 0.7843 0.0997
vn -0.5445 0.5955 -0.5907
vn 0.3357 0.4682 -0.8174
vn 0.6354 0.7597 -0.1379
vn 0.2898 0.9115 -0.2918
vn 0.4486 0.8321 -0.3261
vn 0.5286 0.4569 -0.7154
vn 0.1637 0.9117 -0.3769
vn 0.0736 0.6807 -0.7288
vn -0.1109 0.6025 -0.7903
vn -0.1705 0.9806 -0.0963
vn -0.4561 0.8748 -0.1635
vn -0.6202 0.7828 0.0511
vn -0.1315 0.9913 0.0001
vn -0.2928 0.9192 0.2633
vn -0.2372 0.8910 0.3871
vn 0.2068 0.9781 -0.0229
vn 0.3476 0.9209 0.1765
vn 0.5827 0.7990 0.1487
vn 0.9728 0.1517 -0.1753
vn 0.7286 0.2067 -0.6530
vn -0.0605 -0.1559 -0.9859
vn -0.7650 0.2891 -0.5755
vn -0.9300 0.2370 -0.2808
vn 0.3151 0.6804 0.6617
vn 0.7296 0.5961 0.3353
vn 0.5962 -0.7454 -0.2983
vn 0.0435 -0.9727 -0.2278
vn -0.5397 -0.5632 -0.6258
vn -0.8160 -0.1855 0.5475
vn 0.1484 -0.2402 0.9593
vn 0.2467 -0.7461 0.6184
vn 0.9388 -0.0957 0.3310
vn 0.9247 -0.3590 0.1264
vn -0.1848 -0.9453 0.2688
vn -0.1121 -0.9660 0.2330
vn -0.1786 -0.9581 0.2238
vn -0.0168 -0.9960 0.0876
vn 0.6661 -0.7381 0.1072
vn 0.1012 -0.9532 0.2848
vn -0.2050 -0.9595 0.1935
vn -0.0236 -0.9963 0.0825
vn -0.1678 -0.9710 0.1701
vn 0.0894 -0.9395 0.3308
vn 0.6410 0.2055 -0.7395
vn -0.0542 0.0126 0.9985
vn -0.5171 0.2798 -0.8089
vn 0.9281 0.0167 0.3721
vn -0.9530 0.1576 0.2588
vn -0.9517 -0.1593 0.2626
vn 0.9169 -0.1934 0.3490
vn -0.5405 -0.1561 -0.8267
vn -0.0631 -0.2096 0.9757
vn 0.6490 -0.1546 -0.7449
vn -0.0849 -0.9888 -0.1226
vn 0.9424 -0.2703 -0.1972
vn 0.4549 -0.6926 0.5598
vn 0.9418 -0.2713 -0.1985
vn -0.7495 -0.2488 0.6134
vn 0.5309 0.5663 -0.6304
vn 0.7060 0.3988 0.5852
vn -0.0857 0.3198 0.9436
vn -0.7738 0.4995 0.3896
vn -0.4461 0.5861 -0.6763
vn -0.4118 0.9044 -0.1113
vn -0.5917 0.7665 -0.2497
vn -0.8652 0.5007 -0.0260
vn -0.3918 0.8484 0.3560
vn -0.6287 0.5773 0.5210
vn -0.4633 0.3835 0.7989
vn 0.2878 0.8162 0.5010
vn 0.3591 0.5658 0.7422
vn 0.6616 0.4004 0.6340
vn 0.5013 0.8438 0.1918
vn 0.7898 0.6019 0.1179
vn 0.8230 0.5681 0.0042
vn 0.1142 0.9476 -0.2985
vn 0.2102 0.7216 -0.6596
vn -0.0821 0.5671 -0.8196
vn -0.6902 0.1864 -0.6992
vn -0.9355 0.2496 -0.2500
vn -0.7508 0.0215 0.6602
vn 0.0326 0.0089 0.9994
vn 0.3011 -0.0184 0.9534
vn 0.5151 0.4073 -0.7542
vn -0.0516 0.3978 -0.9160
vn -0.9320 -0.2935 -0.2129
vn -0.8079 -0.5532 0.2032
vn -0.2792 -0.4182 0.8644
vn 0.9219 -0.2340 0.3088
vn 0.6787 -0.1377 -0.7214
vn 0.3145 -0.5337 -0.7850
vn -0.2960 0.0058 -0.9552
vn -0.5400 -0.1439 -0.8293
vn -0.2210 -0.9751 -0.0175
vn -0.1107 -0.9930 0.0415
vn 0.0167 -0.9529 0.3027
vn 0.1408 -0.9352 0.3249
vn -0.5816 -0.3858 -0.7162
vn -0.2165 -0.8656 -0.4516
vn -0.1253 -0.9816 -0.1443
vn 0.1355 -0.9647 -0.2258
vn 0.2104 -0.9585 -0.1922
vn 0.1634 -0.7954 -0.5837
vn -0.4288 0.3115 -0.8480
vn 0.9110 0.1286 0.3919
vn -0.8884 0.4100 0.2064
vn 0.7201 0.1287 -0.6818
vn -0.1298 0.2881 0.9488
vn -0.1381 -0.1818 0.9736
vn 0.6320 -0.3168 -0.7072
vn -0.9779 -0.0935 0.1868
vn 0.8333 -0.3529 0.4256
vn -0.4544 -0.1501 -0.8781
vn -0.1763 -0.9776 -0.1147
vn -0.9038 -0.4082 -0.1285
vn -0.3255 -0.7693 -0.5497
vn -0.9325 -0.3045 -0.1940
vn 0.9127 -0.3197 -0.2547
vn -0.4875 0.8084 0.3299
vn -0.2990 0.7328 -0.6112
vn 0.4212 0.5685 -0.7067
vn 0.7429 0.6691 -0.0219
vn 0.1819 0.7529 0.6325
vn 0.2783 0.9398 0.1982
vn 0.3684 0.8657 0.3389
vn 0.6866 0.6565 0.3123
vn 0.3806 0.9225 -0.0645
vn 0.6482 0.7475 -0.1452
vn 0.6753 0.6042 -0.4229
vn 0.0314 0.9501 -0.3103
vn 0.0291 0.8273 -0.5610
vn -0.2051 0.7309 -0.6509
vn -0.1588 0.9712 -0.1779
vn -0.4004 0.8816 -0.2500
vn -0.5088 0.8461 -0.1589
vn -0.0420 0.9827 0.1805
vn -0.2258 0.8875 0.4016
vn -0.1138 0.7615 0.6381
vn 0.3919 0.2119 0.8953
vn 0.7533 0.3045 0.5829
vn 0.9555 0.0868 -0.2818
vn 0.3616 0.2733 -0.8914
vn 0.0426 0.2184 -0.9749
vn -0.5993 0.6520 0.4645
vn -0.2090 0.5920 0.7784
vn 0.6772 -0.5562 0.4817
vn 0.6274 -0.7714 0.1062
vn 0.5029 -0.5451 -0.6707
vn -0.7268 -0.1987 -0.6575
vn -0.8930 -0.2435 0.3784
vn -0.5120 -0.7631 0.3944
vn -0.0851 -0.0788 0.9932
vn 0.1531 -0.3472 0.9252
vn -0.1928 -0.9810 -0.0198
vn -0.2147 -0.9756 -0.0456
vn -0.2160 -0.9747 -0.0572
vn -0.0623 -0.9966 0.0547
vn 0.1673 -0.6547 0.7371
vn -0.1401 -0.9736 0.1803
vn -0.1303 -0.9898 -0.0573
vn -0.0444 -0.9989 0.0131
vn -0.1744 -0.9780 -0.1145
vn -0.2720 -0.9451 0.1809
vn -0.3996 0.0842 0.9128
vn -0.2146 -0.1271 -0.9684
vn 0.7567 0.1899 0.6255
vn -0.9907 -0.1146 -0.0729
vn 0.8508 0.0425 -0.5238
vn 0.8529 0.1031 -0.5117
vn -0.9932 0.0650 -0.0963
vn 0.7619 0.1158 0.6373
vn -0.2326 0.0549 -0.9710
vn -0.4017 0.1027 0.9100
vn -0.1064 -0.9918 0.0702
vn -0.4225 -0.4458 0.7892
vn -0.6076 -0.7919 0.0612
vn -0.4989 -0.3530 0.7915
vn 0.1139 -0.2397 -0.9642
vn 0.0757 0.7502 0.6568
vn -0.7672 0.6325 0.1064
vn -0.5713 0.5182 -0.6365
vn 0.2060 0.6871 -0.6968
vn 0.6328 0.7662 0.1114
vn 0.2346 0.9614 -0.1436
vn 0.4148 0.8915 -0.1823
vn 0.5131 0.6885 -0.5125
vn 0.0070 0.9352 -0.3539
vn 0.0430 0.7561 -0.6531
vn -0.2072 0.5908 -0.7797
vn -0.3837 0.9189 -0.0922
vn -0.6157 0.7640 -0.1929
vn -0.7717 0.6360 -0.0005
vn -0.3245 0.9329 0.1560
vn -0.4745 0.8035 0.3595
vn -0.4186 0.7604 0.4965
vn 0.0869 0.9797 0.1807
vn 0.2433 0.8643 0.4402
vn 0.5233 0.7503 0.4040
vn 0.9630 0.2682 -0.0281
vn 0.8002 0.3620 -0.4782
vn 0.0730 0.1276 -0.9891
vn -0.7281 0.2221 -0.6485
vn -0.9132 0.1452 -0.3808
vn 0.1743 0.5882 0.7897
vn 0.6236 0.5771 0.5273
vn 0.7487 -0.4352 -0.5002
vn 0.4000 -0.6744 -0.6206
vn -0.4122 -0.5028 -0.7598
vn -0.8630 -0.2662 0.4293
vn 0.0519 -0.2611 0.9639
vn 0.2588 -0.7464 0.6131
vn 0.9007 -0.0212 0.4339
vn 0.9521 -0.2520 0.1730
vn -0.0147 -0.9920 0.1253
vn -0.0504 -0.9892 0.1378
vn -0.0630 -0.9889 0.1345
vn 0.1154 -0.9931 0.0194
vn 0.8277 -0.5563 0.0743
vn 0.2117 -0.9656 0.1512
vn -0.0279 -0.9986 0.0451
vn 0.0797 -0.9967 -0.0160
vn -0.1054 -0.9921 0.0683
vn 0.1573 -0.9445 0.2883
s off
f 12/1/1 9/2/1 8/3/1 11/4/1
f 14/5/2 7/6/2 6/7/2 13/8/2
f 15/9/3 10/10/3 9/11/3 12/12/3
f 11/4/4 8/3/4 7/6/4 14/5/4
f 13/8/5 6/7/5 10/10/5 15/9/5
f 1/13/6 13/8/6 15/9/6 5/14/6
f 3/15/7 11/4/7 14/5/7 2/16/7
f 5/14/8 15/9/8 12/12/8 4/17/8
f 2/16/9 14/5/9 13/8/9 1/13/9
f 4/18/10 12/1/10 11/4/10 3/15/10
f 27/19/11 22/20/11 26/21/11
f 16/22/12 23/23/12 18/24/12
f 17/25/13 16/22/13 19/26/13
f 16/22/14 18/24/14 31/27/14
f 28/28/15 20/29/15 33/30/15
f 18/24/16 34/31/16 38/32/16
f 19/26/17 31/27/17 40/33/17
f 20/29/18 35/34/18 41/35/18
f 33/30/19 36/36/19 42/37/19
f 29/38/20 37/39/20 39/40/20
f 39/40/21 42/37/21 21/41/21
f 39/40/22 37/39/22 42/37/22
f 37/39/23 33/30/23 42/37/23
f 42/37/24 41/35/24 21/41/24
f 42/37/25 36/36/25 41/35/25
f 36/36/26 20/29/26 41/35/26
f 41/35/27 40/33/27 21/41/27
f 41/35/28 35/34/28 40/33/28
f 35/34/29 19/26/29 40/33/29
f 40/33/30 38/32/30 21/41/30
f 40/33/31 31/27/31 38/32/31
f 31/27/32 18/24/32 38/32/32
f 38/32/33 39/40/33 21/41/33
f 38/32/34 34/31/34 39/40/34
f 34/31/35 29/38/35 39/40/35
f 29/38/36 32/42/36 37/39/36
f 32/42/37 33/30/37 37/39/37
f 33/30/38 20/29/38 36/36/38
f 17/25/39 35/34/39 20/29/39
f 17/25/40 19/26/40 35/34/40
f 30/43/41 34/31/41 18/24/41
f 30/43/42 29/38/42 34/31/42
f 32/42/43 25/44/43 33/30/43
f 25/44/44 28/28/44 33/30/44
f 20/29/45 28/28/45 17/25/45
f 19/26/46 16/22/46 31/27/46
f 18/24/47 23/23/47 30/43/47
f 23/23/48 24/45/48 30/43/48
f 30/43/49 24/45/49 29/38/49
f 24/45/50 32/42/50 29/38/50
f 27/19/51 28/46/51 25/47/51
f 27/19/52 26/21/52 28/46/52
f 26/21/53 17/48/53 28/46/53
f 26/21/54 16/49/54 17/48/54
f 24/45/55 25/44/55 32/42/55
f 24/50/56 22/20/56 25/47/56
f 22/20/57 27/19/57 25/47/57
f 26/21/58 23/51/58 16/49/58
f 26/21/59 22/20/59 23/51/59
f 22/20/60 24/50/60 23/51/60
f 54/52/61 51/53/61 50/54/61 53/55/61
f 56/56/62 49/57/62 48/58/62 55/59/62
f 57/60/63 52/61/63 51/62/63 54/63/63
f 53/55/64 50/54/64 49/57/64 56/56/64
f 55/59/65 48/58/65 52/61/65 57/60/65
f 43/64/66 55/59/66 57/60/66 47/65/66
f 45/66/67 53/55/67 56/56/67 44/67/67
f 47/65/68 57/60/68 54/63/68 46/68/68
f 44/67/69 56/56/69 55/59/69 43/64/69
f 46/69/70 54/52/70 53/55/70 45/66/70
f 69/70/71 64/71/71 68/72/71
f 58/73/72 65/74/72 60/75/72
f 59/76/73 58/73/73 61/77/73
f 58/73/74 60/75/74 73/78/74
f 70/79/75 62/80/75 75/81/75
f 60/75/76 76/82/76 80/83/76
f 61/77/77 73/78/77 82/84/77
f 62/80/78 77/85/78 83/86/78
f 75/81/79 78/87/79 84/88/79
f 71/89/80 79/90/80 81/91/80
f 81/91/81 84/88/81 63/92/81
f 81/91/82 79/90/82 84/88/82
f 79/90/83 75/81/83 84/88/83
f 84/88/84 83/86/84 63/92/84
f 84/88/85 78/87/85 83/86/85
f 78/87/86 62/80/86 83/86/86
f 83/86/87 82/84/87 63/92/87
f 83/86/88 77/85/88 82/84/88
f 77/85/89 61/77/89 82/84/89
f 82/84/90 80/83/90 63/92/90
f 82/84/91 73/78/91 80/83/91
f 73/78/92 60/75/92 80/83/92
f 80/83/93 81/91/93 63/92/93
f 80/83/94 76/82/94 81/91/94
f 76/82/95 71/89/95 81/91/95
f 71/89/96 74/93/96 79/90/96
f 74/93/97 75/81/97 79/90/97
f 75/81/98 62/80/98 78/87/98
f 59/76/99 77/85/99 62/80/99
f 59/76/100 61/77/100 77/85/100
f 72/94/101 76/82/101 60/75/101
f 72/94/102 71/89/102 76/82/102
f 74/93/103 67/95/103 75/81/103
f 67/95/104 70/79/104 75/81/104
f 62/80/105 70/79/105 59/76/105
f 61/77/106 58/73/106 73/78/106
f 60/75/107 65/74/107 72/94/107
f 65/74/108 66/96/108 72/94/108
f 72/94/109 66/96/109 71/89/109
f 66/96/110 74/93/110 71/89/110
f 69/70/111 70/97/111 67/98/111
f 69/70/112 68/72/112 70/97/112
f 68/72/113 59/99/113 70/97/113
f 68/72/114 58/100/114 59/99/114
f 66/96/115 67/95/115 74/93/115
f 66/101/116 64/71/116 67/98/116
f 64/71/117 69/70/117 67/98/117
f 68/72/118 65/102/118 58/100/118
f 68/72/119 64/71/119 65/102/119
f 64/71/120 66/101/120 65/102/120
f 96/103/121 93/104/121 92/105/121 95/106/121
f 98/107/122 91/108/122 90/109/122 97/110/122
f 99/111/123 94/112/123 93/113/123 96/114/123
f 95/106/124 92/105/124 91/108/124 98/107/124
f 97/110/125 90/109/125 94/112/125 99/111/125
f 85/115/126 97/110/126 99/111/126 89/116/126
f 87/117/127 95/106/127 98/107/127 86/118/127
f 89/116/128 99/111/128 96/114/128 88/119/128
f 86/118/129 98/107/129 97/110/129 85/115/129
f 88/120/130 96/103/130 95/106/130 87/117/130
f 111/121/131 106/122/131 110/123/131
f 100/124/132 107/125/132 102/126/132
f 101/127/133 100/124/133 103/128/133
f 100/124/134 102/126/134 115/129/134
f 112/130/135 104/131/135 117/132/135
f 102/126/136 118/133/136 122/134/136
f 103/128/137 115/129/137 124/135/137
f 104/131/138 119/136/138 125/137/138
f 117/132/139 120/138/139 126/139/139
f 113/140/140 121/141/140 123/142/140
f 123/142/141 126/139/141 105/143/141
f 123/142/142 121/141/142 126/139/142
f 121/141/143 117/132/143 126/139/143
f 126/139/144 125/137/144 105/143/144
f 126/139/145 120/138/145 125/137/145
f 120/138/146 104/131/146 125/137/146
f 125/137/147 124/135/147 105/143/147
f 125/137/148 119/136/148 124/135/148
f 119/136/149 103/128/149 124/135/149
f 124/135/150 122/134/150 105/143/150
f 124/135/151 115/129/151 122/134/151
f 115/129/152 102/126/152 122/134/152
f 122/134/153 123/142/153 105/143/153
f 122/134/154 118/133/154 123/142/154
f 118/133/155 113/140/155 123/142/155
f 113/140/156 116/144/156 121/141/156
f 116/144/157 117/132/157 121/141/157
f 117/132/158 104/131/158 120/138/158
f 101/127/159 119/136/159 104/131/159
f 101/127/160 103/128/160 119/136/160
f 114/145/161 118/133/161 102/126/161
f 114/145/162 113/140/162 118/133/162
f 116/144/163 109/146/163 117/132/163
f 109/146/164 112/130/164 117/132/164
f 104/131/165 112/130/165 101/127/165
f 103/128/166 100/124/166 115/129/166
f 102/126/167 107/125/167 114/145/167
f 107/125/168 108/147/168 114/145/168
f 114/145/169 108/147/169 113/140/169
f 108/147/170 116/144/170 113/140/170
f 111/121/171 112/148/171 109/149/171
f 111/121/172 110/123/172 112/148/172
f 110/123/173 101/150/173 112/148/173
f 110/123/174 100/151/174 101/150/174
f 108/147/175 109/146/175 116/144/175
f 108/152/176 106/122/176 109/149/176
f 106/122/177 111/121/177 109/149/177
f 110/123/178 107/153/178 100/151/178
f 110/123/179 106/122/179 107/153/179
f 106/122/180 108/152/180 107/153/180
f 138/154/181 135/155/181 134/156/181 137/157/181
f 140/158/182 133/159/182 132/160/182 139/161/182
f 141/162/183 136/163/183 135/164/183 138/165/183
f 137/157/184 134/156/184 133/159/184 140/158/184
f 139/161/185 132/160/185 136/163/185 141/162/185
f 127/166/186 139/161/186 141/162/186 131/167/186
f 129/168/187 137/157/187 140/158/187 128/169/187
f 131/167/188 141/162/188 138/165/188 130/170/188
f 128/169/189 140/158/189 139/161/189 127/166/189
f 130/171/190 138/154/190 137/157/190 129/168/190
f 153/172/191 148/173/191 152/174/191
f 142/175/192 149/176/192 144/177/192
f 143/178/193 142/175/193 145/179/193
f 142/175/194 144/177/194 157/180/194
f 154/181/195 146/182/195 159/183/195
f 144/177/196 160/184/196 164/185/196
f 145/179/197 157/180/197 166/186/197
f 146/182/198 161/187/198 167/188/198
f 159/183/199 162/189/199 168/190/199
f 155/191/200 163/192/200 165/193/200
f 165/193/201 168/190/201 147/194/201
f 165/193/202 163/192/202 168/190/202
f 163/192/203 159/183/203 168/190/203
f 168/190/204 167/188/204 147/194/204
f 168/190/205 162/189/205 167/188/205
f 162/189/206 146/182/206 167/188/206
f 167/188/207 166/186/207 147/194/207
f 167/188/208 161/187/208 166/186/208
f 161/187/209 145/179/209 166/186/209
f 166/186/210 164/185/210 147/194/210
f 166/186/211 157/180/211 164/185/211
f 157/180/212 144/177/212 164/185/212
f 164/185/213 165/193/213 147/194/213
f 164/185/214 160/184/214 165/193/214
f 160/184/215 155/191/215 165/193/215
f 155/191/216 158/195/216 163/192/216
f 158/195/217 159/183/217 163/192/217
f 159/183/218 146/182/218 162/189/218
f 143/178/219 161/187/219 146/182/219
f 143/178/220 145/179/220 161/187/220
f 156/196/221 160/184/221 144/177/221
f 156/196/222 155/191/222 160/184/222
f 158/195/223 151/197/223 159/183/223
f 151/197/224 154/181/224 159/183/224
f 146/182/225 154/181/225 143/178/225
f 145/179/226 142/175/226 157/180/226
f 144/177/227 149/176/227 156/196/227
f 149/176/228 150/198/228 156/196/228
f 156/196/229 150/198/229 155/191/229
f 150/198/230 158/195/230 155/191/230
f 153/172/231 154/199/231 151/200/231
f 153/172/232 152/174/232 154/199/232
f 152/174/233 143/201/233 154/199/233
f 152/174/234 142/202/234 143/201/234
f 150/198/235 151/197/235 158/195/235
f 150/203/236 148/173/236 151/200/236
f 148/173/237 153/172/237 151/200/237
f 152/174/238 149/204/238 142/202/238
f 152/174/239 148/173/239 149/204/239
f 148/173/240 150/203/240 149/204/240
