# Blender v2.78 (sub 0) OBJ File: 'Low_Poly_Vegetation_Pack.blend'
# www.blender.org
g Mushroom_b_01
v 0.051584 0.202520 -0.087850
v 0.002214 0.203881 -0.067658
v -0.018419 0.204582 -0.018459
v 0.001769 0.204214 0.030929
v 0.050954 0.202991 0.051574
v 0.100324 0.201631 0.031383
v 0.120957 0.200929 -0.017817
v 0.100769 0.201298 -0.067205
v 0.054635 0.323691 -0.060793
v 0.024706 0.324516 -0.048553
v 0.012198 0.324941 -0.018727
v 0.024437 0.324718 0.011213
v 0.054254 0.323977 0.023728
v 0.084182 0.323152 0.011487
v 0.096691 0.322726 -0.018338
v 0.084452 0.322950 -0.048278
v 0.055104 0.349008 -0.018615
v 0.000000 0.000000 -0.008672
v -0.008672 0.000000 0.000000
v 0.000000 0.000000 0.008672
v 0.008672 0.000000 0.000000
v 0.053948 0.303382 -0.027138
v 0.045240 0.303638 -0.018506
v 0.053870 0.303440 -0.009795
v 0.062577 0.303184 -0.018426
v 0.026161 0.113252 -0.006902
v 0.034817 0.113178 0.001784
v 0.043502 0.113082 -0.006873
v 0.034846 0.113156 -0.015559
vt 0.2860 0.1424
vt 0.3002 0.1792
vt 0.2981 0.1823
vt 0.2620 0.1663
vt 0.2860 0.2241
vt 0.3019 0.1880
vt 0.3056 0.1873
vt 0.3198 0.2241
vt 0.3437 0.2002
vt 0.3077 0.1842
vt 0.3069 0.1806
vt 0.3437 0.1663
vt 0.3198 0.1424
vt 0.3038 0.1785
vt 0.2988 0.1859
vt 0.2620 0.2002
vt 0.3029 0.1832
vt 0.3562 0.1744
vt 0.3562 0.2281
vt 0.3520 0.2281
vt 0.3520 0.1744
vt 0.3603 0.1744
vt 0.3603 0.2281
vt 0.3479 0.2281
vt 0.3479 0.1744
vt 0.3438 0.2281
vt 0.3438 0.1744
vt 0.3479 0.1424
vt 0.3438 0.1424
vt 0.3520 0.1424
vt 0.3603 0.1424
vt 0.3562 0.1424
vn -0.8969 0.2273 -0.3794
vn 0.9110 0.1799 -0.3711
vn 0.3757 0.1981 0.9053
vn -0.9003 0.2298 0.3697
vn -0.3650 0.2116 -0.9066
vn 0.3839 0.1920 -0.9032
vn 0.9076 0.1825 0.3780
vn -0.3731 0.2177 0.9019
vn -0.3409 0.8695 0.3575
vn -0.3377 0.8670 -0.3664
vn 0.3860 0.8480 -0.3631
vn 0.3827 0.8505 0.3608
vn -0.7040 0.1132 0.7012
vn 0.7044 -0.0275 0.7092
vn -0.7044 0.0275 -0.7092
vn 0.7039 -0.1133 -0.7012
vn 0.6843 -0.2524 -0.6842
vn -0.6956 0.1716 -0.6977
vn 0.6956 -0.1717 0.6977
vn -0.6843 0.2522 0.6842
s off
f 3/1/1 11/2/1 10/3/1 2/4/1
f 8/5/2 16/6/2 15/7/2 7/8/2
f 6/9/3 14/10/3 13/11/3 5/12/3
f 4/13/4 12/14/4 11/2/4 3/1/4
f 2/4/5 10/3/5 9/15/5 1/16/5
f 1/16/6 9/15/6 16/6/6 8/5/6
f 7/8/7 15/7/7 14/10/7 6/9/7
f 5/12/8 13/11/8 12/14/8 4/13/8
f 11/2/9 12/14/9 13/11/9 17/17/9
f 10/3/10 11/2/10 17/17/10 9/15/10
f 9/15/11 17/17/11 15/7/11 16/6/11
f 17/17/12 13/11/12 14/10/12 15/7/12
f 27/18/13 24/19/13 23/20/13 26/21/13
f 28/22/14 25/23/14 24/19/14 27/18/14
f 26/21/15 23/20/15 22/24/15 29/25/15
f 29/25/16 22/24/16 25/26/16 28/27/16
f 18/28/17 29/25/17 28/27/17 21/29/17
f 19/30/18 26/21/18 29/25/18 18/28/18
f 21/31/19 28/22/19 27/18/19 20/32/19
f 20/32/20 27/18/20 26/21/20 19/30/20
