# Blender v2.78 (sub 0) OBJ File: 'Low_Poly_Vegetation_Pack.blend'
# www.blender.org
g Mushroom_j_02
v -0.016050 0.068480 -0.065533
v -0.076514 0.069298 -0.045291
v -0.074913 0.071941 -0.010913
v -0.062557 0.075436 0.018383
v -0.033962 0.079149 0.002117
v 0.001485 0.079046 -0.000900
v 0.000040 0.081120 -0.036270
v -0.039612 0.067542 -0.022698
v -0.049512 0.073218 -0.071670
v -0.086983 0.066080 -0.007394
v -0.030103 0.079948 0.015418
v 0.013328 0.081919 -0.040173
v -0.025858 0.062937 -0.046288
v -0.047966 0.065091 -0.048794
v -0.062376 0.063174 -0.033392
v -0.067183 0.061503 -0.012134
v -0.053793 0.066749 0.004033
v -0.034119 0.069565 0.001127
v -0.014810 0.069095 -0.007418
v -0.008873 0.070711 -0.031188
v -0.032852 0.037708 -0.028961
v -0.040295 0.035140 -0.027075
v -0.046798 0.037224 -0.017435
v -0.041735 0.039246 -0.011588
v -0.029123 0.039786 -0.015844
v -0.027120 0.040331 -0.023866
v 0.004626 -0.008440 -0.004043
v 0.000239 -0.007674 -0.004521
v -0.002673 -0.007971 -0.001448
v -0.003664 -0.008403 0.002797
v -0.000131 -0.007406 0.006449
v 0.006912 -0.007674 0.003786
v 0.008128 -0.007249 -0.000963
vt 0.3029 0.0889
vt 0.2805 0.0805
vt 0.2967 0.0766
vt 0.2856 0.0957
vt 0.3110 0.0661
vt 0.3226 0.0798
vt 0.3130 0.1116
vt 0.2951 0.1091
vt 0.3258 0.0973
vt 0.3289 0.0770
vt 0.2938 0.0703
vt 0.2793 0.0988
vt 0.3397 0.0380
vt 0.3419 0.0277
vt 0.3512 0.0288
vt 0.3490 0.0436
vt 0.3230 0.0549
vt 0.3276 0.0651
vt 0.3113 0.0560
vt 0.2928 0.0517
vt 0.3017 0.0544
vt 0.3002 0.0613
vt 0.2874 0.0584
vt 0.3405 0.0170
vt 0.3485 0.0117
vt 0.3382 0.0545
vt 0.3317 0.0467
vt 0.2793 0.0469
vt 0.2869 0.0448
vt 0.3147 0.0334
vt 0.3191 0.0301
vt 0.3091 0.0346
vt 0.3009 0.0355
vt 0.2967 0.0342
vt 0.3238 0.0266
vt 0.3262 0.0204
vt 0.3111 0.0117
vt 0.3123 0.0099
vt 0.3097 0.0132
vt 0.3076 0.0138
vt 0.3056 0.0151
vt 0.2999 0.0168
vt 0.3034 0.0156
vt 0.2975 0.0171
vn -0.3106 0.8862 -0.3438
vn 0.0733 0.9862 -0.1486
vn -0.3023 0.9508 0.0681
vn -0.0265 0.9924 0.1204
vn -0.0329 0.9082 -0.4173
vn 0.1235 0.9883 0.0896
vn -0.3747 0.9082 -0.1862
vn 0.0967 0.9920 -0.0808
vn -0.0423 0.9973 0.0602
vn -0.1394 0.9901 -0.0191
vn -0.4475 0.8930 -0.0478
vn -0.1754 -0.9362 -0.3046
vn -0.1506 0.9350 -0.3211
vn -0.0022 0.9982 -0.0594
vn -0.4194 0.9052 0.0689
vn 0.4840 -0.8719 0.0744
vn 0.1769 -0.8055 0.5656
vn -0.2688 -0.9517 -0.1481
vn -0.0674 -0.9450 -0.3199
vn 0.4400 -0.8974 -0.0337
vn 0.2446 -0.8020 0.5450
vn -0.1293 -0.8945 0.4280
vn 0.6855 -0.5316 -0.4974
vn 0.3381 -0.4225 0.8409
vn -0.5202 -0.5794 0.6274
vn 0.8616 -0.4734 0.1831
vn -0.5602 -0.5755 -0.5958
vn -0.7461 -0.6108 -0.2650
vn 0.1912 -0.4201 0.8871
vn 0.0252 -0.5772 -0.8162
vn -0.6428 -0.7201 -0.2613
vn -0.0290 -0.4903 -0.8711
vn 0.6353 0.1025 -0.7654
vn 0.2722 0.5426 0.7947
vn -0.6526 -0.3130 0.6901
vn 0.7254 0.6480 0.2321
vn -0.4703 -0.7166 -0.5150
s off
f 8/1/1 4/2/1 5/3/1
f 3/4/2 4/2/2 8/1/2
f 8/1/3 6/5/3 7/6/3
f 9/7/4 2/8/4 8/1/4
f 6/5/5 8/1/5 5/3/5
f 1/9/6 9/7/6 8/1/6
f 1/9/7 8/1/7 7/6/7
f 2/8/8 3/4/8 8/1/8
f 7/6/9 6/5/9 12/10/9
f 4/2/10 11/11/10 5/3/10
f 3/4/11 2/8/11 10/12/11
f 14/13/12 15/14/12 2/15/12 9/16/12
f 7/6/13 12/10/13 1/9/13
f 6/5/14 5/3/14 11/11/14
f 3/4/15 10/12/15 4/2/15
f 20/17/16 12/18/16 6/5/16 19/19/16
f 17/20/17 18/21/17 11/22/17 4/23/17
f 16/24/18 10/25/18 2/15/18 15/14/18
f 14/13/19 9/16/19 1/26/19 13/27/19
f 20/17/20 13/27/20 1/26/20 12/18/20
f 19/19/21 6/5/21 11/22/21 18/21/21
f 17/20/22 4/23/22 10/28/22 16/29/22
f 26/30/23 21/31/23 13/27/23 20/17/23
f 25/32/24 19/19/24 18/21/24 24/33/24
f 24/33/25 17/20/25 16/29/25 23/34/25
f 26/30/26 20/17/26 19/19/26 25/32/26
f 15/14/27 14/13/27 22/35/27
f 23/36/28 16/24/28 15/14/28 22/35/28
f 18/21/29 17/20/29 24/33/29
f 22/35/30 14/13/30 13/27/30 21/31/30
f 29/37/31 30/38/31 23/36/31 22/35/31
f 28/39/32 22/35/32 21/31/32 27/40/32
f 27/40/33 21/31/33 26/30/33 33/41/33
f 31/42/34 32/43/34 25/32/34 24/33/34
f 30/44/35 31/42/35 24/33/35 23/34/35
f 33/41/36 26/30/36 25/32/36 32/43/36
f 22/35/37 28/39/37 29/37/37
