# Blender v2.78 (sub 0) OBJ File: 'Low_Poly_Vegetation_Pack.blend'
# www.blender.org
g Mushroom_f_02
v 0.018125 -0.009982 0.032191
v 0.036215 -0.009982 -0.007290
v 0.004257 -0.009982 -0.036697
v -0.033585 -0.009982 -0.015390
v -0.025016 -0.009982 0.027186
v 0.018856 0.158460 0.021372
v 0.032074 0.153694 -0.007144
v 0.008887 0.158101 -0.028107
v -0.019563 0.149378 -0.012513
v -0.013921 0.146381 0.018632
v 0.010015 0.067544 -0.055707
v -0.051902 0.061977 -0.023470
v 0.032395 0.063990 0.048099
v 0.057945 0.058996 -0.011092
v -0.035983 0.057363 0.041252
v -0.076225 0.136832 -0.066515
v 0.031676 0.140541 -0.120184
v -0.110409 0.175589 0.017246
v -0.041405 0.159589 -0.115108
v 0.097119 0.168864 -0.087812
v 0.015823 0.239779 -0.006110
v -0.028316 0.130207 0.048739
v -0.088427 0.136242 0.029521
v -0.025923 0.139075 0.099505
v 0.081536 0.128465 0.051478
v -0.020465 0.141039 -0.043910
v 0.041974 0.133134 -0.011615
v 0.096361 0.130266 -0.061692
v 0.019101 0.187269 0.106458
v -0.064887 0.158405 0.099399
v -0.094116 0.174199 -0.062776
v 0.086314 0.166458 0.083062
v 0.130783 0.175616 0.019970
v -0.048845 0.193345 0.079987
v 0.014389 0.189760 -0.108429
v 0.109496 0.191897 -0.034561
v 0.069552 0.201851 0.080408
v -0.045997 0.225591 0.016247
v 0.013644 0.226208 0.060617
v -0.021573 0.219953 -0.057729
v 0.051543 0.226344 -0.059059
v 0.074151 0.224967 0.015389
vt 0.3103 0.2148
vt 0.2900 0.2052
vt 0.2931 0.1966
vt 0.3127 0.2012
vt 0.3138 0.1892
vt 0.2946 0.1878
vt 0.2942 0.1788
vt 0.3140 0.1776
vt 0.3127 0.1655
vt 0.2932 0.1697
vt 0.2904 0.1611
vt 0.3102 0.1514
vt 0.3331 0.1776
vt 0.3329 0.1644
vt 0.3314 0.2028
vt 0.3325 0.1903
vt 0.3322 0.1514
vt 0.3306 0.2149
vt 0.3014 0.1855
vt 0.3363 0.1767
vt 0.3177 0.2079
vt 0.0312 0.1081
vt 0.0078 0.0639
vt 0.0307 0.0684
vt 0.0914 0.1081
vt 0.0590 0.0960
vt 0.0419 0.0855
vt 0.1154 0.0638
vt 0.0916 0.0707
vt 0.0821 0.0455
vt 0.0418 0.0510
vt 0.0494 0.0631
vt 0.0587 0.0741
vt 0.0714 0.0844
vt 0.0704 0.0678
vt 0.0809 0.0588
vt 0.0683 0.0549
vt 0.0528 0.0401
vt 0.0638 0.0435
vt 0.0561 0.0523
vt 0.0609 0.0623
vt 0.0686 0.0337
vt 0.0310 0.0438
vt 0.0855 0.0126
vt 0.0290 0.0238
vt 0.2734 0.1933
vt 0.2986 0.1563
vt 0.2861 0.2255
vt 0.3333 0.2255
vt 0.3450 0.1583
vt 0.3541 0.1938
vn -0.4835 0.2655 -0.8341
vn 0.8990 0.2320 0.3715
vn -0.9251 0.3006 0.2319
vn 0.6827 0.2182 -0.6973
vn -0.1392 0.2632 0.9547
vn -0.0914 -0.2046 0.9746
vn 0.6471 -0.2344 -0.7255
vn -0.9552 -0.2098 0.2090
vn 0.8794 -0.2555 0.4018
vn -0.4553 -0.1957 -0.8686
vn -0.0628 -0.9906 -0.1211
vn -0.8524 -0.5109 -0.1114
vn -0.2462 -0.7980 -0.5501
vn -0.8947 -0.4109 -0.1750
vn 0.9373 -0.2077 -0.2797
vn -0.5710 0.7425 0.3501
vn -0.3983 0.6973 -0.5959
vn 0.3336 0.6198 -0.7103
vn 0.6581 0.7522 -0.0323
vn 0.1077 0.7640 0.6362
vn 0.1706 0.9645 0.2017
vn 0.2722 0.9004 0.3394
vn 0.6121 0.7305 0.3030
vn 0.2675 0.9615 -0.0635
vn 0.5518 0.8199 -0.1524
vn 0.5887 0.6830 -0.4323
vn -0.0885 0.9496 -0.3006
vn -0.0826 0.8294 -0.5525
vn -0.3059 0.7068 -0.6379
vn -0.2765 0.9470 -0.1635
vn -0.5075 0.8301 -0.2308
vn -0.6087 0.7814 -0.1375
vn -0.1530 0.9694 0.1921
vn -0.3187 0.8515 0.4165
vn -0.1868 0.7377 0.6488
vn 0.3864 0.2495 0.8879
vn 0.7264 0.3866 0.5681
vn 0.9314 0.2012 -0.3035
vn 0.3046 0.3211 -0.8967
vn -0.0077 0.2297 -0.9732
vn -0.6602 0.5729 0.4857
vn -0.2578 0.5570 0.7895
vn 0.7498 -0.4762 0.4594
vn 0.7163 -0.6928 0.0828
vn 0.5468 -0.4766 -0.6884
vn -0.7145 -0.2778 -0.6421
vn -0.8484 -0.3502 0.3969
vn -0.4085 -0.8213 0.3981
vn -0.0505 -0.0963 0.9941
vn 0.2159 -0.3341 0.9175
vn -0.0764 -0.9967 -0.0259
vn -0.0994 -0.9937 -0.0510
vn -0.1011 -0.9929 -0.0626
vn 0.0568 -0.9974 0.0454
vn 0.2616 -0.6363 0.7258
vn -0.0199 -0.9847 0.1730
vn -0.0142 -0.9978 -0.0649
vn 0.0739 -0.9973 0.0033
vn -0.0608 -0.9908 -0.1210
vn -0.1542 -0.9720 0.1771
s off
f 12/1/1 9/2/1 8/3/1 11/4/1
f 14/5/2 7/6/2 6/7/2 13/8/2
f 15/9/3 10/10/3 9/11/3 12/12/3
f 11/4/4 8/3/4 7/6/4 14/5/4
f 13/8/5 6/7/5 10/10/5 15/9/5
f 1/13/6 13/8/6 15/9/6 5/14/6
f 3/15/7 11/4/7 14/5/7 2/16/7
f 5/14/8 15/9/8 12/12/8 4/17/8
f 2/16/9 14/5/9 13/8/9 1/13/9
f 4/18/10 12/1/10 11/4/10 3/15/10
f 27/19/11 22/20/11 26/21/11
f 16/22/12 23/23/12 18/24/12
f 17/25/13 16/22/13 19/26/13
f 16/22/14 18/24/14 31/27/14
f 28/28/15 20/29/15 33/30/15
f 18/24/16 34/31/16 38/32/16
f 19/26/17 31/27/17 40/33/17
f 20/29/18 35/34/18 41/35/18
f 33/30/19 36/36/19 42/37/19
f 29/38/20 37/39/20 39/40/20
f 39/40/21 42/37/21 21/41/21
f 39/40/22 37/39/22 42/37/22
f 37/39/23 33/30/23 42/37/23
f 42/37/24 41/35/24 21/41/24
f 42/37/25 36/36/25 41/35/25
f 36/36/26 20/29/26 41/35/26
f 41/35/27 40/33/27 21/41/27
f 41/35/28 35/34/28 40/33/28
f 35/34/29 19/26/29 40/33/29
f 40/33/30 38/32/30 21/41/30
f 40/33/31 31/27/31 38/32/31
f 31/27/32 18/24/32 38/32/32
f 38/32/33 39/40/33 21/41/33
f 38/32/34 34/31/34 39/40/34
f 34/31/35 29/38/35 39/40/35
f 29/38/36 32/42/36 37/39/36
f 32/42/37 33/30/37 37/39/37
f 33/30/38 20/29/38 36/36/38
f 17/25/39 35/34/39 20/29/39
f 17/25/40 19/26/40 35/34/40
f 30/43/41 34/31/41 18/24/41
f 30/43/42 29/38/42 34/31/42
f 32/42/43 25/44/43 33/30/43
f 25/44/44 28/28/44 33/30/44
f 20/29/45 28/28/45 17/25/45
f 19/26/46 16/22/46 31/27/46
f 18/24/47 23/23/47 30/43/47
f 23/23/48 24/45/48 30/43/48
f 30/43/49 24/45/49 29/38/49
f 24/45/50 32/42/50 29/38/50
f 27/19/51 28/46/51 25/47/51
f 27/19/52 26/21/52 28/46/52
f 26/21/53 17/48/53 28/46/53
f 26/21/54 16/49/54 17/48/54
f 24/45/55 25/44/55 32/42/55
f 24/50/56 22/20/56 25/47/56
f 22/20/57 27/19/57 25/47/57
f 26/21/58 23/51/58 16/49/58
f 26/21/59 22/20/59 23/51/59
f 22/20/60 24/50/60 23/51/60
