# Blender v2.78 (sub 0) OBJ File: 'Low_Poly_Vegetation_Pack.blend'
# www.blender.org
g Mushroom_f_05
v -0.008500 -0.008895 0.015741
v 0.016951 -0.006870 0.017348
v 0.024679 -0.006090 -0.005067
v 0.006407 -0.007710 -0.020459
v -0.013861 -0.010158 -0.007607
v -0.014263 0.097966 0.021607
v 0.005587 0.097320 0.022971
v 0.009645 0.103493 0.006757
v -0.002934 0.097606 -0.005523
v -0.018068 0.092333 0.003632
v 0.032491 0.046246 -0.005020
v 0.007512 0.035443 -0.028816
v -0.009882 0.033053 0.024311
v 0.022661 0.039517 0.025877
v -0.019774 0.027270 -0.009052
v 0.029758 0.104485 0.020751
v 0.005428 0.099030 0.047438
v 0.018393 0.136218 -0.008513
v 0.020761 0.115963 0.040924
v -0.025559 0.104587 0.048107
v -0.031971 0.153048 0.016076
v 0.005190 0.094846 -0.010571
v 0.022555 0.108571 -0.011141
v -0.005671 0.100676 -0.026173
v -0.028950 0.081676 0.001344
v 0.014337 0.094132 0.021070
v -0.007812 0.086221 0.017458
v -0.017645 0.083626 0.036681
v -0.032508 0.120606 -0.021170
v -0.000003 0.117773 -0.029970
v 0.024677 0.132496 0.019029
v -0.043288 0.099443 -0.006375
v -0.049934 0.098189 0.019816
v -0.011745 0.135319 -0.020725
v -0.004544 0.126463 0.047087
v -0.041722 0.112326 0.034893
v -0.047466 0.121385 -0.006278
v -0.013459 0.154364 0.001004
v -0.035980 0.144388 -0.006013
v -0.009495 0.148798 0.027586
v -0.031669 0.140868 0.037051
v -0.046990 0.135021 0.015822
vt 0.3136 0.2148
vt 0.2900 0.2052
vt 0.2931 0.1966
vt 0.3158 0.2015
vt 0.3169 0.1894
vt 0.2946 0.1878
vt 0.2942 0.1788
vt 0.3172 0.1776
vt 0.3161 0.1653
vt 0.2932 0.1697
vt 0.2904 0.1611
vt 0.3139 0.1514
vt 0.3331 0.1776
vt 0.3329 0.1644
vt 0.3314 0.2028
vt 0.3325 0.1903
vt 0.3322 0.1514
vt 0.3306 0.2149
vt 0.3014 0.1855
vt 0.3363 0.1767
vt 0.3177 0.2079
vt 0.0312 0.1081
vt 0.0078 0.0639
vt 0.0307 0.0684
vt 0.0914 0.1081
vt 0.0590 0.0960
vt 0.0419 0.0855
vt 0.1154 0.0638
vt 0.0916 0.0707
vt 0.0821 0.0455
vt 0.0418 0.0510
vt 0.0494 0.0631
vt 0.0587 0.0741
vt 0.0714 0.0844
vt 0.0704 0.0678
vt 0.0809 0.0588
vt 0.0683 0.0549
vt 0.0528 0.0401
vt 0.0638 0.0435
vt 0.0561 0.0523
vt 0.0609 0.0623
vt 0.0686 0.0337
vt 0.0310 0.0438
vt 0.0855 0.0126
vt 0.0290 0.0238
vt 0.2734 0.1933
vt 0.2986 0.1563
vt 0.2861 0.2255
vt 0.3333 0.2255
vt 0.3450 0.1583
vt 0.3541 0.1938
vn 0.5512 0.3729 -0.7464
vn -0.0597 0.0352 0.9976
vn -0.5925 0.1813 -0.7849
vn 0.8957 0.2844 0.3419
vn -0.9632 -0.0402 0.2659
vn -0.9560 -0.1122 0.2711
vn 0.9447 -0.1545 0.2894
vn -0.5401 -0.1333 -0.8309
vn -0.0261 -0.1887 0.9817
vn 0.6858 -0.1264 -0.7168
vn 0.3515 -0.9281 -0.1226
vn 0.9665 0.1643 -0.1972
vn 0.7099 -0.4274 0.5598
vn 0.9664 0.1631 -0.1985
vn -0.5679 -0.5488 0.6134
vn 0.2334 0.7403 -0.6304
vn 0.4638 0.6651 0.5852
vn -0.2157 0.2512 0.9436
vn -0.9138 0.1153 0.3896
vn -0.6559 0.3353 -0.6763
vn -0.7627 0.6371 -0.1113
vn -0.8652 0.4349 -0.2497
vn -0.9967 0.0768 -0.0260
vn -0.7204 0.5952 0.3560
vn -0.8167 0.2482 0.5210
vn -0.5836 0.1452 0.7989
vn -0.0938 0.8604 0.5010
vn 0.0788 0.6655 0.7422
vn 0.4230 0.6474 0.6340
vn 0.0866 0.9776 0.1918
vn 0.4515 0.8845 0.1179
vn 0.4959 0.8683 0.0042
vn -0.3073 0.9036 -0.2985
vn -0.1229 0.7415 -0.6596
vn -0.3195 0.4757 -0.8196
vn -0.7029 -0.1307 -0.6992
vn -0.9514 -0.1800 -0.2500
vn -0.6861 -0.3056 0.6602
vn 0.0255 0.0221 0.9994
vn 0.2794 0.1138 0.9534
vn 0.2880 0.5901 -0.7542
vn -0.2187 0.3363 -0.9160
vn -0.7131 -0.6680 -0.2129
vn -0.4888 -0.8484 0.2032
vn -0.0706 -0.4978 0.8644
vn 0.9323 0.1881 0.3088
vn 0.6714 0.1697 -0.7214
vn 0.5145 -0.3449 -0.7850
vn -0.2693 -0.1229 -0.9552
vn -0.4245 -0.3635 -0.8293
vn 0.2229 -0.9747 -0.0175
vn 0.3301 -0.9430 0.0415
vn 0.4276 -0.8518 0.3027
vn 0.5318 -0.7821 0.3249
vn -0.3573 -0.5995 -0.7162
vn 0.1795 -0.8740 -0.4516
vn 0.3119 -0.9391 -0.1443
vn 0.5398 -0.8110 -0.2258
vn 0.6046 -0.7730 -0.1922
vn 0.4916 -0.6462 -0.5837
s off
f 12/1/1 9/2/1 8/3/1 11/4/1
f 14/5/2 7/6/2 6/7/2 13/8/2
f 15/9/3 10/10/3 9/11/3 12/12/3
f 11/4/4 8/3/4 7/6/4 14/5/4
f 13/8/5 6/7/5 10/10/5 15/9/5
f 1/13/6 13/8/6 15/9/6 5/14/6
f 3/15/7 11/4/7 14/5/7 2/16/7
f 5/14/8 15/9/8 12/12/8 4/17/8
f 2/16/9 14/5/9 13/8/9 1/13/9
f 4/18/10 12/1/10 11/4/10 3/15/10
f 27/19/11 22/20/11 26/21/11
f 16/22/12 23/23/12 18/24/12
f 17/25/13 16/22/13 19/26/13
f 16/22/14 18/24/14 31/27/14
f 28/28/15 20/29/15 33/30/15
f 18/24/16 34/31/16 38/32/16
f 19/26/17 31/27/17 40/33/17
f 20/29/18 35/34/18 41/35/18
f 33/30/19 36/36/19 42/37/19
f 29/38/20 37/39/20 39/40/20
f 39/40/21 42/37/21 21/41/21
f 39/40/22 37/39/22 42/37/22
f 37/39/23 33/30/23 42/37/23
f 42/37/24 41/35/24 21/41/24
f 42/37/25 36/36/25 41/35/25
f 36/36/26 20/29/26 41/35/26
f 41/35/27 40/33/27 21/41/27
f 41/35/28 35/34/28 40/33/28
f 35/34/29 19/26/29 40/33/29
f 40/33/30 38/32/30 21/41/30
f 40/33/31 31/27/31 38/32/31
f 31/27/32 18/24/32 38/32/32
f 38/32/33 39/40/33 21/41/33
f 38/32/34 34/31/34 39/40/34
f 34/31/35 29/38/35 39/40/35
f 29/38/36 32/42/36 37/39/36
f 32/42/37 33/30/37 37/39/37
f 33/30/38 20/29/38 36/36/38
f 17/25/39 35/34/39 20/29/39
f 17/25/40 19/26/40 35/34/40
f 30/43/41 34/31/41 18/24/41
f 30/43/42 29/38/42 34/31/42
f 32/42/43 25/44/43 33/30/43
f 25/44/44 28/28/44 33/30/44
f 20/29/45 28/28/45 17/25/45
f 19/26/46 16/22/46 31/27/46
f 18/24/47 23/23/47 30/43/47
f 23/23/48 24/45/48 30/43/48
f 30/43/49 24/45/49 29/38/49
f 24/45/50 32/42/50 29/38/50
f 27/19/51 28/46/51 25/47/51
f 27/19/52 26/21/52 28/46/52
f 26/21/53 17/48/53 28/46/53
f 26/21/54 16/49/54 17/48/54
f 24/45/55 25/44/55 32/42/55
f 24/50/56 22/20/56 25/47/56
f 22/20/57 27/19/57 25/47/57
f 26/21/58 23/51/58 16/49/58
f 26/21/59 22/20/59 23/51/59
f 22/20/60 24/50/60 23/51/60
