# Blender v2.78 (sub 0) OBJ File: 'Low_Poly_Vegetation_Pack.blend'
# www.blender.org
g Mushroom_k_08
v -0.124443 -0.009982 -0.050846
v -0.108839 -0.009982 -0.010317
v -0.065471 -0.009982 -0.012631
v -0.054272 -0.009982 -0.054592
v -0.090718 -0.009982 -0.078211
v -0.125703 0.157982 -0.034885
v -0.114263 0.150564 -0.004774
v -0.082291 0.158028 -0.006763
v -0.073351 0.160285 -0.038786
v -0.100224 0.154183 -0.056952
v -0.072799 0.065285 -0.016896
v -0.062505 0.063538 -0.050944
v -0.118606 0.064879 -0.045698
v -0.106127 0.061832 -0.015310
v -0.091765 0.060176 -0.068185
v -0.032051 0.130415 0.055632
v -0.149963 0.126678 0.080652
v 0.019599 0.180457 -0.014488
v -0.079098 0.151247 0.095194
v -0.206847 0.150150 0.034598
v -0.111972 0.242158 -0.019830
v -0.049400 0.154673 -0.068179
v 0.003631 0.144511 -0.034169
v -0.039617 0.154724 -0.117330
v -0.154882 0.124345 -0.098489
v -0.080617 0.136742 0.020038
v -0.132545 0.132136 -0.027306
v -0.197425 0.103339 0.007285
v -0.084194 0.195350 -0.132529
v -0.003056 0.172428 -0.106321
v -0.015950 0.172700 0.058691
v -0.153832 0.166824 -0.127995
v -0.213035 0.171314 -0.077634
v -0.025389 0.208504 -0.089540
v -0.133133 0.180394 0.076504
v -0.206913 0.183253 -0.018632
v -0.140297 0.206474 -0.119155
v -0.045811 0.233478 -0.026760
v -0.092522 0.234563 -0.084574
v -0.087483 0.218956 0.038287
v -0.158904 0.214158 0.021602
v -0.162210 0.226321 -0.056112
v 0.062687 -0.007679 0.014981
v 0.032173 -0.007679 0.037152
v 0.043828 -0.007679 0.073025
v 0.081546 -0.007679 0.073025
v 0.093203 -0.007679 0.037152
v 0.062687 0.109731 0.024644
v 0.041363 0.109731 0.040138
v 0.049507 0.109731 0.065206
v 0.075867 0.109731 0.065206
v 0.084014 0.109731 0.040138
v 0.040579 0.040339 0.077494
v 0.084795 0.040339 0.077494
v 0.062687 0.040339 0.009456
v 0.026918 0.040339 0.035444
v 0.098458 0.040339 0.035444
v 0.035294 0.109361 0.084102
v 0.011223 0.119798 0.037520
v 0.070676 0.141673 0.097787
v 0.015262 0.141792 0.069840
v 0.024659 0.141826 0.008575
v 0.061173 0.192472 0.043015
v 0.084617 0.096380 0.062678
v 0.076120 0.109153 0.088494
v 0.106568 0.109361 0.060943
v 0.084621 0.100867 0.014948
v 0.044608 0.092463 0.059771
v 0.057893 0.090963 0.032365
v 0.035268 0.109308 0.008900
v 0.114321 0.141784 0.037653
v 0.106155 0.129404 0.077898
v 0.036855 0.145465 0.091595
v 0.098650 0.119804 0.009117
v 0.070702 0.141829 -0.006387
v 0.097637 0.159345 0.070904
v 0.017703 0.159345 0.044932
v 0.048235 0.159345 0.002908
v 0.097637 0.159345 0.018960
v 0.069901 0.180570 0.069762
v 0.088771 0.180569 0.043790
v 0.039370 0.180570 0.059841
v 0.039370 0.180570 0.027739
v 0.069901 0.180570 0.017818
vt 0.6853 0.3457
vt 0.6650 0.3361
vt 0.6681 0.3274
vt 0.6877 0.3321
vt 0.6888 0.3201
vt 0.6696 0.3187
vt 0.6692 0.3097
vt 0.6890 0.3084
vt 0.6877 0.2964
vt 0.6682 0.3006
vt 0.6654 0.2920
vt 0.6852 0.2822
vt 0.7081 0.3084
vt 0.7079 0.2952
vt 0.7064 0.3336
vt 0.7075 0.3212
vt 0.7072 0.2822
vt 0.7056 0.3457
vt 0.7298 0.4161
vt 0.7385 0.4392
vt 0.7204 0.4287
vt 0.7089 0.4392
vt 0.7242 0.4544
vt 0.6961 0.4684
vt 0.6976 0.4189
vt 0.6872 0.4357
vt 0.6883 0.4498
vt 0.7015 0.4688
vt 0.6739 0.4691
vt 0.6822 0.4491
vt 0.6908 0.3957
vt 0.6790 0.4153
vt 0.6591 0.4106
vt 0.6587 0.4446
vt 0.6780 0.4037
vt 0.6721 0.4286
vt 0.6480 0.4282
vt 0.6694 0.4521
vt 0.6625 0.4377
vt 0.6872 0.4286
vt 0.6773 0.4345
vt 0.6658 0.4252
vt 0.6496 0.4282
vt 0.6500 0.4474
vt 0.6390 0.4482
vt 0.6554 0.4640
vt 0.6889 0.4385
vt 0.6964 0.4166
vt 0.7041 0.4452
vt 0.7097 0.3999
vt 0.7164 0.4093
vt 0.7050 0.4260
vt 0.7185 0.4520
vt 0.7188 0.4290
vt 0.6853 0.3457
vt 0.6650 0.3361
vt 0.6681 0.3274
vt 0.6877 0.3321
vt 0.6888 0.3201
vt 0.6696 0.3187
vt 0.6692 0.3097
vt 0.6890 0.3084
vt 0.6877 0.2964
vt 0.6682 0.3006
vt 0.6654 0.2920
vt 0.6852 0.2822
vt 0.7081 0.3084
vt 0.7079 0.2952
vt 0.7064 0.3336
vt 0.7075 0.3212
vt 0.7072 0.2822
vt 0.7056 0.3457
vt 0.4466 0.4001
vt 0.4664 0.4069
vt 0.4498 0.4130
vt 0.4504 0.4263
vt 0.4687 0.4245
vt 0.4626 0.4505
vt 0.4310 0.4227
vt 0.4364 0.4386
vt 0.4462 0.4455
vt 0.4658 0.4471
vt 0.4511 0.4653
vt 0.4425 0.4491
vt 0.4121 0.4146
vt 0.4186 0.4329
vt 0.4047 0.4434
vt 0.4268 0.4621
vt 0.4105 0.4273
vt 0.4235 0.4447
vt 0.4103 0.4602
vt 0.4375 0.4591
vt 0.4244 0.4558
vt 0.4317 0.4347
vt 0.4303 0.4445
vt 0.4180 0.4469
vt 0.4111 0.4592
vt 0.4239 0.4693
vt 0.4185 0.4769
vt 0.4377 0.4747
vt 0.4432 0.4365
vt 0.4288 0.4223
vt 0.4517 0.4327
vt 0.4251 0.4045
vt 0.4349 0.4052
vt 0.4396 0.4217
vt 0.4640 0.4269
vt 0.4490 0.4143
vn 0.9576 0.0699 0.2793
vn -0.9302 -0.1187 0.3473
vn 0.5082 0.1553 -0.8471
vn 0.0720 -0.1060 0.9918
vn -0.6445 0.0364 -0.7638
vn -0.6275 0.1015 -0.7720
vn 0.0478 0.0642 0.9968
vn 0.5204 0.1141 -0.8463
vn -0.9276 0.0537 0.3697
vn 0.9579 0.1013 0.2686
vn 0.2012 -0.9714 -0.1262
vn 0.8269 -0.5039 0.2495
vn 0.1514 -0.7890 0.5954
vn 0.8557 -0.3532 0.3782
vn -0.9785 -0.2058 0.0151
vn 0.6376 0.7643 -0.0966
vn 0.2067 0.6444 0.7362
vn -0.5716 0.5515 0.6075
vn -0.7201 0.6908 -0.0651
vn 0.0027 0.7744 -0.6327
vn -0.1835 0.9684 -0.1687
vn -0.2568 0.8927 -0.3703
vn -0.5782 0.6989 -0.4210
vn -0.3991 0.9032 0.1583
vn -0.6196 0.7711 0.1470
vn -0.7034 0.6032 0.3760
vn -0.1588 0.8921 0.4230
vn -0.1882 0.7947 0.5771
vn 0.0872 0.6473 0.7573
vn 0.1555 0.9382 0.3091
vn 0.3980 0.8075 0.4353
vn 0.5502 0.7592 0.3477
vn 0.1215 0.9894 -0.0796
vn 0.3338 0.9081 -0.2527
vn 0.2555 0.7697 -0.5850
vn -0.1723 0.2700 -0.9473
vn -0.5879 0.3620 -0.7234
vn -0.9894 0.1230 0.0778
vn -0.5514 0.2346 0.8006
vn -0.2489 0.1518 0.9565
vn 0.7707 0.5895 -0.2417
vn 0.3941 0.5768 -0.7156
vn -0.5991 -0.4467 -0.6645
vn -0.6590 -0.6416 -0.3925
vn -0.6641 -0.4720 0.5798
vn 0.5486 -0.2662 0.7926
vn 0.9313 -0.3024 -0.2033
vn 0.4918 -0.7958 -0.3535
vn 0.3003 -0.0272 -0.9535
vn 0.0580 -0.2933 -0.9542
vn 0.3951 -0.9183 -0.0235
vn 0.2906 -0.9292 -0.2284
vn 0.2585 -0.9563 0.1370
vn -0.0046 -0.9856 -0.1689
vn 0.0162 -0.5707 -0.8210
vn 0.2623 -0.9636 0.0512
vn 0.2709 -0.9624 0.0203
vn -0.0116 -0.9871 -0.1596
vn -0.0487 -0.9753 -0.2155
vn -0.1669 -0.9854 -0.0342
vn 0.0000 0.1744 0.9847
vn -0.5788 0.1744 -0.7966
vn 0.9365 0.1744 0.3043
vn -0.9365 0.1744 0.3042
vn 0.5788 0.1744 -0.7966
vn 0.5852 -0.0927 -0.8055
vn -0.9470 -0.0927 0.3076
vn 0.9470 -0.0927 0.3077
vn -0.5853 -0.0927 -0.8055
vn -0.0000 -0.0927 0.9957
vn 0.0899 -0.9911 0.0978
vn -0.1038 -0.2893 0.9516
vn -0.8563 -0.3709 0.3594
vn -0.1974 -0.1910 0.9615
vn -0.3072 -0.1097 -0.9453
vn 0.3859 0.5443 0.7448
vn -0.6414 0.5394 0.5455
vn -0.7834 0.4879 -0.3850
vn 0.0631 0.5298 -0.8458
vn 0.8054 0.5609 -0.1919
vn 0.3867 0.8784 -0.2809
vn 0.5648 0.7160 -0.4103
vn 0.4068 0.4901 -0.7709
vn -0.1509 0.8726 -0.4645
vn -0.2203 0.7012 -0.6780
vn -0.5485 0.5287 -0.6478
vn -0.4791 0.8777 0.0000
vn -0.6998 0.7144 0.0000
vn -0.7661 0.5584 0.3184
vn -0.1433 0.8860 0.4410
vn -0.2317 0.6617 0.7131
vn -0.0830 0.5815 0.8093
vn 0.3746 0.8863 0.2722
vn 0.5472 0.7365 0.3976
vn 0.8369 0.5291 0.1405
vn 0.8069 0.1620 -0.5680
vn 0.5949 0.2085 -0.7763
vn -0.3073 0.1077 -0.9455
vn -0.9380 0.2059 -0.2787
vn -0.9872 0.1589 0.0152
vn 0.5462 0.3348 0.7678
vn 0.9032 0.3230 0.2826
vn 0.1766 -0.4068 -0.8963
vn 0.0317 -0.4532 -0.8908
vn -0.7841 -0.2615 -0.5629
vn -0.6949 -0.1172 0.7095
vn 0.4329 -0.1799 0.8833
vn 0.5743 -0.5218 0.6308
vn 0.9797 -0.1174 0.1627
vn 0.9048 -0.3691 -0.2126
vn -0.0697 -0.8174 -0.5718
vn -0.4907 -0.8500 -0.1914
vn -0.5552 -0.8146 -0.1678
vn -0.6989 -0.6844 0.2078
vn 0.7434 -0.6245 -0.2394
vn 0.5026 -0.8607 -0.0809
vn 0.2943 -0.9515 -0.0894
vn -0.0637 -0.8309 0.5527
vn 0.0537 -0.8879 0.4570
vn 0.4671 -0.7217 0.5108
s off
f 12/1/1 9/2/1 8/3/1 11/4/1
f 14/5/2 7/6/2 6/7/2 13/8/2
f 15/9/3 10/10/3 9/11/3 12/12/3
f 11/4/4 8/3/4 7/6/4 14/5/4
f 13/8/5 6/7/5 10/10/5 15/9/5
f 1/13/6 13/8/6 15/9/6 5/14/6
f 3/15/7 11/4/7 14/5/7 2/16/7
f 5/14/8 15/9/8 12/12/8 4/17/8
f 2/16/9 14/5/9 13/8/9 1/13/9
f 4/18/10 12/1/10 11/4/10 3/15/10
f 27/19/11 22/20/11 26/21/11
f 16/22/12 23/23/12 18/24/12
f 17/25/13 16/22/13 19/26/13
f 16/22/14 18/24/14 31/27/14
f 28/28/15 20/29/15 33/30/15
f 18/31/16 34/32/16 38/33/16
f 19/26/17 31/27/17 40/34/17
f 20/35/18 35/36/18 41/37/18
f 33/30/19 36/38/19 42/39/19
f 29/40/20 37/41/20 39/42/20
f 39/42/21 42/39/21 21/43/21
f 39/42/22 37/41/22 42/39/22
f 37/41/23 33/30/23 42/39/23
f 42/39/24 41/44/24 21/43/24
f 42/39/25 36/38/25 41/44/25
f 36/38/26 20/29/26 41/44/26
f 41/37/27 40/34/27 21/45/27
f 41/37/28 35/36/28 40/34/28
f 35/36/29 19/26/29 40/34/29
f 40/34/30 38/46/30 21/45/30
f 40/34/31 31/27/31 38/46/31
f 31/27/32 18/24/32 38/46/32
f 38/33/33 39/42/33 21/43/33
f 38/33/34 34/32/34 39/42/34
f 34/32/35 29/40/35 39/42/35
f 29/40/36 32/47/36 37/41/36
f 32/47/37 33/30/37 37/41/37
f 33/30/38 20/29/38 36/38/38
f 17/25/39 35/36/39 20/35/39
f 17/25/40 19/26/40 35/36/40
f 30/48/41 34/32/41 18/31/41
f 30/48/42 29/40/42 34/32/42
f 32/47/43 25/49/43 33/30/43
f 25/49/44 28/28/44 33/30/44
f 20/35/45 28/50/45 17/25/45
f 19/26/46 16/22/46 31/27/46
f 18/31/47 23/51/47 30/48/47
f 23/51/48 24/52/48 30/48/48
f 30/48/49 24/52/49 29/40/49
f 24/52/50 32/47/50 29/40/50
f 27/53/51 28/28/51 25/49/51
f 27/19/52 26/21/52 28/50/52
f 26/21/53 17/25/53 28/50/53
f 26/21/54 16/22/54 17/25/54
f 24/52/55 25/49/55 32/47/55
f 24/52/56 22/54/56 25/49/56
f 22/54/57 27/53/57 25/49/57
f 26/21/58 23/23/58 16/22/58
f 26/21/59 22/20/59 23/23/59
f 22/54/60 24/52/60 23/51/60
f 54/55/61 51/56/61 50/57/61 53/58/61
f 56/59/62 49/60/62 48/61/62 55/62/62
f 57/63/63 52/64/63 51/65/63 54/66/63
f 53/58/64 50/57/64 49/60/64 56/59/64
f 55/62/65 48/61/65 52/64/65 57/63/65
f 43/67/66 55/62/66 57/63/66 47/68/66
f 45/69/67 53/58/67 56/59/67 44/70/67
f 47/68/68 57/63/68 54/66/68 46/71/68
f 44/70/69 56/59/69 55/62/69 43/67/69
f 46/72/70 54/55/70 53/58/70 45/69/70
f 69/73/71 64/74/71 68/75/71
f 58/76/72 65/77/72 60/78/72
f 59/79/73 58/76/73 61/80/73
f 58/76/74 60/78/74 73/81/74
f 70/82/75 62/83/75 75/84/75
f 60/85/76 76/86/76 80/87/76
f 61/80/77 73/81/77 82/88/77
f 62/89/78 77/90/78 83/91/78
f 75/84/79 78/92/79 84/93/79
f 71/94/80 79/95/80 81/96/80
f 81/96/81 84/93/81 63/97/81
f 81/96/82 79/95/82 84/93/82
f 79/95/83 75/84/83 84/93/83
f 84/93/84 83/98/84 63/97/84
f 84/93/85 78/92/85 83/98/85
f 78/92/86 62/83/86 83/98/86
f 83/91/87 82/88/87 63/99/87
f 83/91/88 77/90/88 82/88/88
f 77/90/89 61/80/89 82/88/89
f 82/88/90 80/100/90 63/99/90
f 82/88/91 73/81/91 80/100/91
f 73/81/92 60/78/92 80/100/92
f 80/87/93 81/96/93 63/97/93
f 80/87/94 76/86/94 81/96/94
f 76/86/95 71/94/95 81/96/95
f 71/94/96 74/101/96 79/95/96
f 74/101/97 75/84/97 79/95/97
f 75/84/98 62/83/98 78/92/98
f 59/79/99 77/90/99 62/89/99
f 59/79/100 61/80/100 77/90/100
f 72/102/101 76/86/101 60/85/101
f 72/102/102 71/94/102 76/86/102
f 74/101/103 67/103/103 75/84/103
f 67/103/104 70/82/104 75/84/104
f 62/89/105 70/104/105 59/79/105
f 61/80/106 58/76/106 73/81/106
f 60/85/107 65/105/107 72/102/107
f 65/105/108 66/106/108 72/102/108
f 72/102/109 66/106/109 71/94/109
f 66/106/110 74/101/110 71/94/110
f 69/107/111 70/82/111 67/103/111
f 69/73/112 68/75/112 70/104/112
f 68/75/113 59/79/113 70/104/113
f 68/75/114 58/76/114 59/79/114
f 66/106/115 67/103/115 74/101/115
f 66/106/116 64/108/116 67/103/116
f 64/108/117 69/107/117 67/103/117
f 68/75/118 65/77/118 58/76/118
f 68/75/119 64/74/119 65/77/119
f 64/108/120 66/106/120 65/105/120
