# Blender v2.78 (sub 0) OBJ File: 'Low_Poly_Vegetation_Pack.blend'
# www.blender.org
g Mushroom_b_03
v -0.005677 0.164175 0.062667
v 0.024218 0.165567 0.046420
v 0.033871 0.166234 0.013771
v 0.017628 0.165784 -0.016154
v -0.014995 0.164483 -0.025827
v -0.044890 0.163091 -0.009580
v -0.054543 0.162425 0.023068
v -0.038301 0.162874 0.052994
v -0.010797 0.221713 0.047244
v 0.008244 0.222599 0.036896
v 0.014392 0.223023 0.016102
v 0.004047 0.222737 -0.002958
v -0.016732 0.221908 -0.009119
v -0.035772 0.221022 0.001229
v -0.041920 0.220597 0.022023
v -0.031575 0.220884 0.041083
v -0.014477 0.238681 0.019196
v 0.000871 0.000000 0.007936
v 0.007936 0.000000 -0.000871
v -0.000871 0.000000 -0.007936
v -0.007936 0.000000 0.000871
v -0.011266 0.216896 0.026804
v -0.004161 0.216902 0.018029
v -0.012936 0.216948 0.010924
v -0.020041 0.216942 0.019699
vt 0.2860 0.1424
vt 0.3002 0.1792
vt 0.2981 0.1823
vt 0.2620 0.1663
vt 0.2860 0.2241
vt 0.3019 0.1880
vt 0.3056 0.1873
vt 0.3198 0.2241
vt 0.3437 0.2002
vt 0.3077 0.1842
vt 0.3069 0.1806
vt 0.3437 0.1663
vt 0.3198 0.1424
vt 0.3038 0.1785
vt 0.2988 0.1859
vt 0.2620 0.2002
vt 0.3029 0.1832
vt 0.3562 0.1424
vt 0.3562 0.2281
vt 0.3520 0.2281
vt 0.3520 0.1424
vt 0.3603 0.1424
vt 0.3603 0.2281
vt 0.3479 0.2281
vt 0.3479 0.1424
vt 0.3438 0.2281
vt 0.3438 0.1424
vn 0.9126 0.3017 0.2760
vn -0.8631 0.1957 0.4655
vn -0.4727 0.2330 -0.8499
vn 0.8350 0.3052 -0.4578
vn 0.4503 0.2683 0.8516
vn -0.2852 0.2244 0.9318
vn -0.9408 0.1992 -0.2741
vn 0.2630 0.2769 -0.9242
vn 0.2855 0.8750 -0.3910
vn 0.3613 0.8725 0.3290
vn -0.3580 0.8415 0.4046
vn -0.4338 0.8440 -0.3154
vn 0.6244 0.1022 -0.7744
vn -0.7786 0.0111 -0.6275
vn 0.7786 -0.0111 0.6275
vn -0.6244 -0.1022 0.7744
s off
f 3/1/1 11/2/1 10/3/1 2/4/1
f 8/5/2 16/6/2 15/7/2 7/8/2
f 6/9/3 14/10/3 13/11/3 5/12/3
f 4/13/4 12/14/4 11/2/4 3/1/4
f 2/4/5 10/3/5 9/15/5 1/16/5
f 1/16/6 9/15/6 16/6/6 8/5/6
f 7/8/7 15/7/7 14/10/7 6/9/7
f 5/12/8 13/11/8 12/14/8 4/13/8
f 11/2/9 12/14/9 13/11/9 17/17/9
f 10/3/10 11/2/10 17/17/10 9/15/10
f 9/15/11 17/17/11 15/7/11 16/6/11
f 17/17/12 13/11/12 14/10/12 15/7/12
f 20/18/13 24/19/13 23/20/13 19/21/13
f 21/22/14 25/23/14 24/19/14 20/18/14
f 19/21/15 23/20/15 22/24/15 18/25/15
f 18/25/16 22/24/16 25/26/16 21/27/16
