# Blender v2.78 (sub 0) OBJ File: 'Low_Poly_Vegetation_Pack.blend'
# www.blender.org
g Mushroom_f_07
v 0.101103 -0.009982 -0.012088
v 0.119192 -0.009982 -0.051569
v 0.087234 -0.009982 -0.080976
v 0.049392 -0.009982 -0.059669
v 0.057961 -0.009982 -0.017093
v 0.113401 0.149231 -0.022339
v 0.126948 0.144346 -0.051562
v 0.103185 0.148863 -0.073045
v 0.074030 0.139924 -0.057064
v 0.079812 0.136852 -0.025147
v 0.089303 0.064812 -0.072754
v 0.057754 0.061975 -0.056328
v 0.100707 0.063001 -0.019860
v 0.113726 0.060456 -0.050021
v 0.065865 0.059624 -0.023349
v 0.112716 0.130415 -0.152583
v 0.213005 0.127146 -0.085714
v 0.026464 0.179944 -0.140537
v 0.173892 0.151247 -0.146571
v 0.219807 0.158189 -0.012842
v 0.114576 0.244934 -0.042681
v 0.036267 0.128676 -0.053660
v 0.023543 0.136337 -0.115361
v -0.005730 0.141652 -0.026315
v 0.088289 0.122899 0.042978
v 0.121188 0.134475 -0.092969
v 0.123604 0.125493 -0.022740
v 0.193683 0.117128 -0.000497
v 0.014545 0.193832 0.016195
v -0.023401 0.164484 -0.060162
v 0.103654 0.172700 -0.166239
v 0.066448 0.166824 0.062844
v 0.143843 0.171314 0.070007
v 0.004208 0.201362 -0.055911
v 0.198278 0.183051 -0.094856
v 0.181773 0.186649 0.024400
v 0.063314 0.206474 0.046985
v 0.063390 0.232909 -0.085168
v 0.054670 0.234240 -0.011355
v 0.139040 0.221048 -0.100809
v 0.177009 0.225365 -0.038057
v 0.123725 0.227763 0.018609
v -0.120209 -0.011435 -0.043600
v -0.102265 -0.011186 -0.083081
v -0.134035 -0.010248 -0.112488
v -0.171865 -0.009982 -0.091181
v -0.163460 -0.010158 -0.048605
v -0.109792 0.109455 -0.054419
v -0.097555 0.104626 -0.082935
v -0.119011 0.113109 -0.103898
v -0.148384 0.109433 -0.088304
v -0.143376 0.105060 -0.057159
v -0.129178 0.049018 -0.131498
v -0.190895 0.050594 -0.099261
v -0.106924 0.039068 -0.027692
v -0.082599 0.034269 -0.086883
v -0.175662 0.040342 -0.034539
v -0.206506 0.107722 -0.142307
v -0.099004 0.097744 -0.195975
v -0.235505 0.150448 -0.058545
v -0.169085 0.125879 -0.190899
v -0.030754 0.114154 -0.163603
v -0.100604 0.184389 -0.081902
v -0.159870 0.093745 -0.027052
v -0.218685 0.108681 -0.046270
v -0.156516 0.102080 0.023714
v -0.059099 0.068039 -0.024313
v -0.150465 0.102873 -0.119701
v -0.092208 0.085981 -0.087406
v -0.040119 0.074677 -0.137483
v -0.106466 0.137108 0.030667
v -0.192533 0.127662 0.023608
v -0.219512 0.146926 -0.138567
v -0.043699 0.098261 0.007270
v 0.000820 0.082872 -0.055821
v -0.172188 0.157915 0.004196
v -0.109750 0.147038 -0.184220
v -0.011770 0.118989 -0.110352
v -0.051218 0.134978 0.004617
v -0.164628 0.184994 -0.059544
v -0.105747 0.171598 -0.015174
v -0.141082 0.176364 -0.133520
v -0.066294 0.172460 -0.134851
v -0.036898 0.154588 -0.060402
v -0.015141 -0.008895 0.094204
v 0.010310 -0.006870 0.095812
v 0.018038 -0.006090 0.073397
v -0.000234 -0.007710 0.058005
v -0.020502 -0.010158 0.070857
v -0.020904 0.097966 0.100071
v -0.001054 0.097320 0.101435
v 0.003004 0.103493 0.085220
v -0.009575 0.097606 0.072941
v -0.024710 0.092333 0.082096
v 0.025850 0.046246 0.073444
v 0.000871 0.035443 0.049647
v -0.016523 0.033053 0.102774
v 0.016019 0.039517 0.104340
v -0.026416 0.027270 0.069412
v 0.023117 0.104485 0.099214
v -0.001213 0.099030 0.125902
v 0.011751 0.136218 0.069950
v 0.014120 0.115963 0.119388
v -0.032200 0.104587 0.126571
v -0.038613 0.153048 0.094540
v -0.001452 0.094846 0.067892
v 0.015914 0.108571 0.067323
v -0.012312 0.100676 0.052290
v -0.035591 0.081676 0.079808
v 0.007695 0.094132 0.099534
v -0.014454 0.086221 0.095922
v -0.024287 0.083626 0.115145
v -0.039149 0.120606 0.057294
v -0.006645 0.117773 0.048493
v 0.018035 0.132496 0.097493
v -0.049930 0.099443 0.072088
v -0.056575 0.098189 0.098280
v -0.018386 0.135319 0.057738
v -0.011185 0.126463 0.125550
v -0.048364 0.112326 0.113357
v -0.054107 0.121385 0.072186
v -0.020101 0.154364 0.079468
v -0.042621 0.144388 0.072450
v -0.016136 0.148798 0.106050
v -0.038311 0.140868 0.115515
v -0.053632 0.135021 0.094285
vt 0.3103 0.2148
vt 0.2900 0.2052
vt 0.2931 0.1966
vt 0.3127 0.2012
vt 0.3138 0.1892
vt 0.2946 0.1878
vt 0.2942 0.1788
vt 0.3140 0.1776
vt 0.3127 0.1655
vt 0.2932 0.1697
vt 0.2904 0.1611
vt 0.3102 0.1514
vt 0.3331 0.1776
vt 0.3329 0.1644
vt 0.3314 0.2028
vt 0.3325 0.1903
vt 0.3322 0.1514
vt 0.3306 0.2149
vt 0.3014 0.1855
vt 0.3363 0.1767
vt 0.3177 0.2079
vt 0.0312 0.1081
vt 0.0078 0.0639
vt 0.0307 0.0684
vt 0.0914 0.1081
vt 0.0590 0.0960
vt 0.0419 0.0855
vt 0.1154 0.0638
vt 0.0916 0.0707
vt 0.0821 0.0455
vt 0.0418 0.0510
vt 0.0494 0.0631
vt 0.0587 0.0741
vt 0.0714 0.0844
vt 0.0704 0.0678
vt 0.0809 0.0588
vt 0.0683 0.0549
vt 0.0528 0.0401
vt 0.0638 0.0435
vt 0.0561 0.0523
vt 0.0609 0.0623
vt 0.0686 0.0337
vt 0.0310 0.0438
vt 0.0855 0.0126
vt 0.0290 0.0238
vt 0.2734 0.1933
vt 0.2986 0.1563
vt 0.2861 0.2255
vt 0.3333 0.2255
vt 0.3450 0.1583
vt 0.3541 0.1938
vt 0.3103 0.2148
vt 0.2900 0.2052
vt 0.2931 0.1966
vt 0.3127 0.2012
vt 0.3138 0.1892
vt 0.2946 0.1878
vt 0.2942 0.1788
vt 0.3140 0.1776
vt 0.3127 0.1655
vt 0.2932 0.1697
vt 0.2904 0.1611
vt 0.3102 0.1514
vt 0.3331 0.1776
vt 0.3329 0.1644
vt 0.3314 0.2028
vt 0.3325 0.1903
vt 0.3322 0.1514
vt 0.3306 0.2149
vt 0.3014 0.1855
vt 0.3363 0.1767
vt 0.3177 0.2079
vt 0.0312 0.1081
vt 0.0078 0.0639
vt 0.0307 0.0684
vt 0.0914 0.1081
vt 0.0590 0.0960
vt 0.0419 0.0855
vt 0.1154 0.0638
vt 0.0916 0.0707
vt 0.0821 0.0455
vt 0.0418 0.0510
vt 0.0494 0.0631
vt 0.0587 0.0741
vt 0.0714 0.0844
vt 0.0704 0.0678
vt 0.0809 0.0588
vt 0.0683 0.0549
vt 0.0528 0.0401
vt 0.0638 0.0435
vt 0.0561 0.0523
vt 0.0609 0.0623
vt 0.0686 0.0337
vt 0.0310 0.0438
vt 0.0855 0.0126
vt 0.0290 0.0238
vt 0.2734 0.1933
vt 0.2986 0.1563
vt 0.2861 0.2255
vt 0.3333 0.2255
vt 0.3450 0.1583
vt 0.3541 0.1938
vt 0.3136 0.2148
vt 0.2900 0.2052
vt 0.2931 0.1966
vt 0.3158 0.2015
vt 0.3169 0.1894
vt 0.2946 0.1878
vt 0.2942 0.1788
vt 0.3172 0.1776
vt 0.3161 0.1653
vt 0.2932 0.1697
vt 0.2904 0.1611
vt 0.3139 0.1514
vt 0.3331 0.1776
vt 0.3329 0.1644
vt 0.3314 0.2028
vt 0.3325 0.1903
vt 0.3322 0.1514
vt 0.3306 0.2149
vt 0.3014 0.1855
vt 0.3363 0.1767
vt 0.3177 0.2079
vt 0.0312 0.1081
vt 0.0078 0.0639
vt 0.0307 0.0684
vt 0.0914 0.1081
vt 0.0590 0.0960
vt 0.0419 0.0855
vt 0.1154 0.0638
vt 0.0916 0.0707
vt 0.0821 0.0455
vt 0.0418 0.0510
vt 0.0494 0.0631
vt 0.0587 0.0741
vt 0.0714 0.0844
vt 0.0704 0.0678
vt 0.0809 0.0588
vt 0.0683 0.0549
vt 0.0528 0.0401
vt 0.0638 0.0435
vt 0.0561 0.0523
vt 0.0609 0.0623
vt 0.0686 0.0337
vt 0.0310 0.0438
vt 0.0855 0.0126
vt 0.0290 0.0238
vt 0.2734 0.1933
vt 0.2986 0.1563
vt 0.2861 0.2255
vt 0.3333 0.2255
vt 0.3450 0.1583
vt 0.3541 0.1938
vn -0.4819 0.0842 -0.8722
vn 0.8994 -0.1271 0.4182
vn -0.9567 0.1899 0.2207
vn 0.6601 -0.1146 -0.7424
vn -0.1013 0.0425 0.9940
vn -0.1121 0.1031 0.9883
vn 0.6802 0.0650 -0.7301
vn -0.9691 0.1158 0.2176
vn 0.9124 0.0549 0.4056
vn -0.4784 0.1027 -0.8721
vn 0.0089 -0.9918 -0.1272
vn -0.3698 -0.4458 -0.8151
vn 0.3207 -0.7919 -0.5197
vn -0.3252 -0.3530 -0.8773
vn 0.6964 -0.2397 0.6765
vn -0.5676 0.7502 -0.3391
vn 0.3819 0.6325 -0.6739
vn 0.8527 0.5182 -0.0667
vn 0.4281 0.6871 0.5871
vn -0.4731 0.7662 0.4348
vn -0.0286 0.9614 0.2736
vn -0.1074 0.8915 0.4402
vn 0.0951 0.6885 0.7190
vn 0.2768 0.9352 0.2207
vn 0.4925 0.7561 0.4311
vn 0.7451 0.5908 0.3094
vn 0.3064 0.9189 -0.2486
vn 0.5274 0.7640 -0.3717
vn 0.4695 0.6360 -0.6125
vn 0.0734 0.9329 -0.3525
vn 0.0029 0.8035 -0.5953
vn -0.1398 0.7604 -0.6342
vn -0.1963 0.9797 -0.0409
vn -0.4975 0.8643 -0.0744
vn -0.6389 0.7503 0.1699
vn -0.5630 0.2682 0.7817
vn -0.1067 0.3620 0.9261
vn 0.7410 0.1276 0.6592
vn 0.9575 0.2221 -0.1840
vn 0.8575 0.1452 -0.4936
vn -0.7330 0.5882 -0.3416
vn -0.7978 0.5771 0.1746
vn -0.0579 -0.4352 0.8985
vn 0.2497 -0.6744 0.6948
vn 0.8539 -0.5028 0.1345
vn 0.1837 -0.2662 -0.9463
vn -0.7970 -0.2611 -0.5447
vn -0.6441 -0.7464 -0.1672
vn -0.8920 -0.0212 0.4514
vn -0.7161 -0.2520 0.6509
vn -0.0905 -0.9920 -0.0878
vn -0.0788 -0.9892 -0.1238
vn -0.0685 -0.9889 -0.1318
vn -0.0856 -0.9931 0.0798
vn -0.5621 -0.5563 0.6121
vn -0.2487 -0.9656 0.0762
vn -0.0189 -0.9986 -0.0496
vn -0.0357 -0.9967 0.0730
vn 0.0098 -0.9921 -0.1252
vn -0.3246 -0.9445 -0.0503
vn -0.4270 0.4321 -0.7943
vn 0.9155 0.1746 0.3625
vn -0.8172 0.5185 0.2516
vn 0.7140 0.1839 -0.6756
vn -0.0979 0.3602 0.9277
vn -0.1073 -0.2818 0.9535
vn 0.6217 -0.3029 -0.7223
vn -0.9441 -0.2752 0.1813
vn 0.8577 -0.3429 0.3832
vn -0.4625 -0.2472 -0.8514
vn -0.2160 -0.9693 -0.1174
vn -0.9101 -0.3992 -0.1114
vn -0.3452 -0.7605 -0.5500
vn -0.9394 -0.2950 -0.1748
vn 0.8206 -0.4378 -0.3674
vn -0.4123 0.8551 0.3144
vn -0.2581 0.7843 -0.5641
vn 0.4257 0.5955 -0.6813
vn 0.8771 0.4682 0.1076
vn 0.3010 0.7597 0.5763
vn 0.3581 0.9115 0.2023
vn 0.4331 0.8321 0.3464
vn 0.8298 0.4569 0.3205
vn 0.4068 0.9117 0.0582
vn 0.7223 0.6807 -0.1218
vn 0.7329 0.6025 -0.3160
vn 0.0478 0.9806 -0.1900
vn 0.0371 0.8748 -0.4831
vn -0.2133 0.7828 -0.5846
vn -0.0349 0.9913 -0.1268
vn -0.3313 0.9192 -0.2127
vn -0.4361 0.8910 -0.1264
vn 0.0768 0.9781 0.1934
vn -0.0783 0.9209 0.3819
vn 0.0108 0.7990 0.6013
vn 0.4263 0.1517 0.8918
vn 0.8225 0.2067 0.5299
vn 0.9348 -0.1559 -0.3191
vn 0.3526 0.2891 -0.8900
vn 0.0248 0.2370 -0.9712
vn -0.5548 0.6804 0.4789
vn -0.1304 0.5961 0.7923
vn 0.4454 -0.7454 0.4961
vn 0.2312 -0.9727 -0.0183
vn 0.4608 -0.5632 -0.6860
vn -0.7438 -0.1855 -0.6421
vn -0.8859 -0.2402 0.3968
vn -0.5312 -0.7461 0.4015
vn -0.0709 -0.0957 0.9929
vn 0.1227 -0.3590 0.9252
vn -0.3081 -0.9453 -0.1071
vn -0.2543 -0.9660 -0.0465
vn -0.2630 -0.9581 -0.1130
vn -0.0890 -0.9960 0.0069
vn 0.0728 -0.7381 0.6708
vn -0.2479 -0.9532 0.1729
vn -0.2408 -0.9595 -0.1465
vn -0.0858 -0.9963 -0.0009
vn -0.2084 -0.9710 -0.1168
vn -0.2953 -0.9395 0.1737
vn 0.5512 0.3729 -0.7464
vn -0.0597 0.0352 0.9976
vn -0.5925 0.1813 -0.7849
vn 0.8957 0.2844 0.3419
vn -0.9631 -0.0402 0.2659
vn -0.9560 -0.1122 0.2711
vn 0.9447 -0.1545 0.2894
vn -0.5401 -0.1333 -0.8309
vn -0.0261 -0.1887 0.9817
vn 0.6858 -0.1264 -0.7168
vn 0.3515 -0.9281 -0.1226
vn 0.9665 0.1643 -0.1972
vn 0.7099 -0.4274 0.5598
vn 0.9664 0.1631 -0.1985
vn -0.5679 -0.5488 0.6134
vn 0.2334 0.7403 -0.6304
vn 0.4638 0.6651 0.5852
vn -0.2157 0.2512 0.9436
vn -0.9138 0.1153 0.3896
vn -0.6559 0.3353 -0.6763
vn -0.7627 0.6371 -0.1113
vn -0.8652 0.4349 -0.2497
vn -0.9967 0.0768 -0.0260
vn -0.7204 0.5952 0.3560
vn -0.8167 0.2483 0.5210
vn -0.5836 0.1452 0.7989
vn -0.0938 0.8604 0.5010
vn 0.0788 0.6655 0.7422
vn 0.4230 0.6474 0.6340
vn 0.0866 0.9776 0.1918
vn 0.4514 0.8845 0.1179
vn 0.4959 0.8683 0.0042
vn -0.3073 0.9036 -0.2985
vn -0.1229 0.7415 -0.6596
vn -0.3195 0.4756 -0.8196
vn -0.7029 -0.1307 -0.6992
vn -0.9514 -0.1800 -0.2500
vn -0.6861 -0.3056 0.6602
vn 0.0255 0.0221 0.9994
vn 0.2794 0.1138 0.9534
vn 0.2880 0.5901 -0.7542
vn -0.2187 0.3363 -0.9160
vn -0.7131 -0.6680 -0.2129
vn -0.4888 -0.8484 0.2032
vn -0.0706 -0.4978 0.8644
vn 0.9323 0.1881 0.3088
vn 0.6714 0.1697 -0.7214
vn 0.5145 -0.3449 -0.7850
vn -0.2693 -0.1229 -0.9552
vn -0.4245 -0.3635 -0.8293
vn 0.2229 -0.9747 -0.0175
vn 0.3301 -0.9430 0.0415
vn 0.4276 -0.8518 0.3027
vn 0.5318 -0.7821 0.3249
vn -0.3573 -0.5995 -0.7162
vn 0.1795 -0.8740 -0.4516
vn 0.3119 -0.9391 -0.1443
vn 0.5398 -0.8110 -0.2258
vn 0.6046 -0.7730 -0.1922
vn 0.4916 -0.6462 -0.5837
s off
f 12/1/1 9/2/1 8/3/1 11/4/1
f 14/5/2 7/6/2 6/7/2 13/8/2
f 15/9/3 10/10/3 9/11/3 12/12/3
f 11/4/4 8/3/4 7/6/4 14/5/4
f 13/8/5 6/7/5 10/10/5 15/9/5
f 1/13/6 13/8/6 15/9/6 5/14/6
f 3/15/7 11/4/7 14/5/7 2/16/7
f 5/14/8 15/9/8 12/12/8 4/17/8
f 2/16/9 14/5/9 13/8/9 1/13/9
f 4/18/10 12/1/10 11/4/10 3/15/10
f 27/19/11 22/20/11 26/21/11
f 16/22/12 23/23/12 18/24/12
f 17/25/13 16/22/13 19/26/13
f 16/22/14 18/24/14 31/27/14
f 28/28/15 20/29/15 33/30/15
f 18/24/16 34/31/16 38/32/16
f 19/26/17 31/27/17 40/33/17
f 20/29/18 35/34/18 41/35/18
f 33/30/19 36/36/19 42/37/19
f 29/38/20 37/39/20 39/40/20
f 39/40/21 42/37/21 21/41/21
f 39/40/22 37/39/22 42/37/22
f 37/39/23 33/30/23 42/37/23
f 42/37/24 41/35/24 21/41/24
f 42/37/25 36/36/25 41/35/25
f 36/36/26 20/29/26 41/35/26
f 41/35/27 40/33/27 21/41/27
f 41/35/28 35/34/28 40/33/28
f 35/34/29 19/26/29 40/33/29
f 40/33/30 38/32/30 21/41/30
f 40/33/31 31/27/31 38/32/31
f 31/27/32 18/24/32 38/32/32
f 38/32/33 39/40/33 21/41/33
f 38/32/34 34/31/34 39/40/34
f 34/31/35 29/38/35 39/40/35
f 29/38/36 32/42/36 37/39/36
f 32/42/37 33/30/37 37/39/37
f 33/30/38 20/29/38 36/36/38
f 17/25/39 35/34/39 20/29/39
f 17/25/40 19/26/40 35/34/40
f 30/43/41 34/31/41 18/24/41
f 30/43/42 29/38/42 34/31/42
f 32/42/43 25/44/43 33/30/43
f 25/44/44 28/28/44 33/30/44
f 20/29/45 28/28/45 17/25/45
f 19/26/46 16/22/46 31/27/46
f 18/24/47 23/23/47 30/43/47
f 23/23/48 24/45/48 30/43/48
f 30/43/49 24/45/49 29/38/49
f 24/45/50 32/42/50 29/38/50
f 27/19/51 28/46/51 25/47/51
f 27/19/52 26/21/52 28/46/52
f 26/21/53 17/48/53 28/46/53
f 26/21/54 16/49/54 17/48/54
f 24/45/55 25/44/55 32/42/55
f 24/50/56 22/20/56 25/47/56
f 22/20/57 27/19/57 25/47/57
f 26/21/58 23/51/58 16/49/58
f 26/21/59 22/20/59 23/51/59
f 22/20/60 24/50/60 23/51/60
f 54/52/61 51/53/61 50/54/61 53/55/61
f 56/56/62 49/57/62 48/58/62 55/59/62
f 57/60/63 52/61/63 51/62/63 54/63/63
f 53/55/64 50/54/64 49/57/64 56/56/64
f 55/59/65 48/58/65 52/61/65 57/60/65
f 43/64/66 55/59/66 57/60/66 47/65/66
f 45/66/67 53/55/67 56/56/67 44/67/67
f 47/65/68 57/60/68 54/63/68 46/68/68
f 44/67/69 56/56/69 55/59/69 43/64/69
f 46/69/70 54/52/70 53/55/70 45/66/70
f 69/70/71 64/71/71 68/72/71
f 58/73/72 65/74/72 60/75/72
f 59/76/73 58/73/73 61/77/73
f 58/73/74 60/75/74 73/78/74
f 70/79/75 62/80/75 75/81/75
f 60/75/76 76/82/76 80/83/76
f 61/77/77 73/78/77 82/84/77
f 62/80/78 77/85/78 83/86/78
f 75/81/79 78/87/79 84/88/79
f 71/89/80 79/90/80 81/91/80
f 81/91/81 84/88/81 63/92/81
f 81/91/82 79/90/82 84/88/82
f 79/90/83 75/81/83 84/88/83
f 84/88/84 83/86/84 63/92/84
f 84/88/85 78/87/85 83/86/85
f 78/87/86 62/80/86 83/86/86
f 83/86/87 82/84/87 63/92/87
f 83/86/88 77/85/88 82/84/88
f 77/85/89 61/77/89 82/84/89
f 82/84/90 80/83/90 63/92/90
f 82/84/91 73/78/91 80/83/91
f 73/78/92 60/75/92 80/83/92
f 80/83/93 81/91/93 63/92/93
f 80/83/94 76/82/94 81/91/94
f 76/82/95 71/89/95 81/91/95
f 71/89/96 74/93/96 79/90/96
f 74/93/97 75/81/97 79/90/97
f 75/81/98 62/80/98 78/87/98
f 59/76/99 77/85/99 62/80/99
f 59/76/100 61/77/100 77/85/100
f 72/94/101 76/82/101 60/75/101
f 72/94/102 71/89/102 76/82/102
f 74/93/103 67/95/103 75/81/103
f 67/95/104 70/79/104 75/81/104
f 62/80/105 70/79/105 59/76/105
f 61/77/106 58/73/106 73/78/106
f 60/75/107 65/74/107 72/94/107
f 65/74/108 66/96/108 72/94/108
f 72/94/109 66/96/109 71/89/109
f 66/96/110 74/93/110 71/89/110
f 69/70/111 70/97/111 67/98/111
f 69/70/112 68/72/112 70/97/112
f 68/72/113 59/99/113 70/97/113
f 68/72/114 58/100/114 59/99/114
f 66/96/115 67/95/115 74/93/115
f 66/101/116 64/71/116 67/98/116
f 64/71/117 69/70/117 67/98/117
f 68/72/118 65/102/118 58/100/118
f 68/72/119 64/71/119 65/102/119
f 64/71/120 66/101/120 65/102/120
f 96/103/121 93/104/121 92/105/121 95/106/121
f 98/107/122 91/108/122 90/109/122 97/110/122
f 99/111/123 94/112/123 93/113/123 96/114/123
f 95/106/124 92/105/124 91/108/124 98/107/124
f 97/110/125 90/109/125 94/112/125 99/111/125
f 85/115/126 97/110/126 99/111/126 89/116/126
f 87/117/127 95/106/127 98/107/127 86/118/127
f 89/116/128 99/111/128 96/114/128 88/119/128
f 86/118/129 98/107/129 97/110/129 85/115/129
f 88/120/130 96/103/130 95/106/130 87/117/130
f 111/121/131 106/122/131 110/123/131
f 100/124/132 107/125/132 102/126/132
f 101/127/133 100/124/133 103/128/133
f 100/124/134 102/126/134 115/129/134
f 112/130/135 104/131/135 117/132/135
f 102/126/136 118/133/136 122/134/136
f 103/128/137 115/129/137 124/135/137
f 104/131/138 119/136/138 125/137/138
f 117/132/139 120/138/139 126/139/139
f 113/140/140 121/141/140 123/142/140
f 123/142/141 126/139/141 105/143/141
f 123/142/142 121/141/142 126/139/142
f 121/141/143 117/132/143 126/139/143
f 126/139/144 125/137/144 105/143/144
f 126/139/145 120/138/145 125/137/145
f 120/138/146 104/131/146 125/137/146
f 125/137/147 124/135/147 105/143/147
f 125/137/148 119/136/148 124/135/148
f 119/136/149 103/128/149 124/135/149
f 124/135/150 122/134/150 105/143/150
f 124/135/151 115/129/151 122/134/151
f 115/129/152 102/126/152 122/134/152
f 122/134/153 123/142/153 105/143/153
f 122/134/154 118/133/154 123/142/154
f 118/133/155 113/140/155 123/142/155
f 113/140/156 116/144/156 121/141/156
f 116/144/157 117/132/157 121/141/157
f 117/132/158 104/131/158 120/138/158
f 101/127/159 119/136/159 104/131/159
f 101/127/160 103/128/160 119/136/160
f 114/145/161 118/133/161 102/126/161
f 114/145/162 113/140/162 118/133/162
f 116/144/163 109/146/163 117/132/163
f 109/146/164 112/130/164 117/132/164
f 104/131/165 112/130/165 101/127/165
f 103/128/166 100/124/166 115/129/166
f 102/126/167 107/125/167 114/145/167
f 107/125/168 108/147/168 114/145/168
f 114/145/169 108/147/169 113/140/169
f 108/147/170 116/144/170 113/140/170
f 111/121/171 112/148/171 109/149/171
f 111/121/172 110/123/172 112/148/172
f 110/123/173 101/150/173 112/148/173
f 110/123/174 100/151/174 101/150/174
f 108/147/175 109/146/175 116/144/175
f 108/152/176 106/122/176 109/149/176
f 106/122/177 111/121/177 109/149/177
f 110/123/178 107/153/178 100/151/178
f 110/123/179 106/122/179 107/153/179
f 106/122/180 108/152/180 107/153/180
