# Blender v2.78 (sub 0) OBJ File: 'Low_Poly_Vegetation_Pack.blend'
# www.blender.org
g Mushroom_k_01
v -0.016680 -0.007376 0.023762
v 0.021535 -0.007746 0.017447
v 0.028161 -0.007314 -0.021284
v -0.005859 -0.007017 -0.039412
v -0.033572 -0.006821 -0.013209
v -0.000921 0.240287 0.017491
v 0.022238 0.238969 0.014759
v 0.028007 0.239771 -0.006750
v 0.008087 0.238334 -0.016671
v -0.009885 0.231976 -0.001646
v 0.021159 0.137070 -0.019741
v -0.004573 0.135593 -0.033263
v -0.013941 0.138346 0.010706
v 0.015230 0.136940 0.008837
v -0.025504 0.132942 -0.014573
v 0.137703 0.209544 -0.062218
v 0.128935 0.217325 0.092279
v 0.061999 0.250352 -0.138010
v 0.173316 0.247935 0.004235
v 0.042140 0.250700 0.154022
v 0.006736 0.354882 0.010443
v -0.024326 0.235512 -0.074151
v 0.033384 0.215177 -0.126877
v -0.086478 0.218003 -0.097743
v -0.104828 0.183373 0.036231
v 0.084363 0.226508 -0.010478
v -0.002718 0.224543 0.046281
v 0.013189 0.200274 0.138038
v -0.138317 0.241045 -0.048362
v -0.059883 0.234309 -0.134740
v 0.145815 0.252032 -0.078063
v -0.144690 0.199512 0.035377
v -0.098901 0.231683 0.121216
v -0.044440 0.284693 -0.108631
v 0.124430 0.289563 0.066744
v -0.025873 0.279010 0.135097
v -0.124390 0.270648 0.021426
v 0.027988 0.332284 -0.072087
v -0.060308 0.326591 -0.029164
v 0.092184 0.325311 -0.003336
v 0.037084 0.332131 0.080993
v -0.053910 0.315629 0.064162
vt 0.6894 0.3457
vt 0.6650 0.3361
vt 0.6681 0.3274
vt 0.6915 0.3324
vt 0.6926 0.3203
vt 0.6696 0.3187
vt 0.6692 0.3097
vt 0.6929 0.3084
vt 0.6918 0.2961
vt 0.6682 0.3006
vt 0.6654 0.2920
vt 0.6897 0.2822
vt 0.7081 0.3084
vt 0.7079 0.2952
vt 0.7064 0.3336
vt 0.7075 0.3212
vt 0.7072 0.2822
vt 0.7056 0.3457
vt 0.4693 0.4245
vt 0.4773 0.4456
vt 0.4607 0.4360
vt 0.4502 0.4456
vt 0.4642 0.4595
vt 0.4384 0.4723
vt 0.4398 0.4271
vt 0.4304 0.4424
vt 0.4313 0.4553
vt 0.4434 0.4727
vt 0.4182 0.4729
vt 0.4258 0.4546
vt 0.4336 0.4058
vt 0.4229 0.4237
vt 0.4046 0.4194
vt 0.4042 0.4505
vt 0.4219 0.4132
vt 0.4165 0.4359
vt 0.3944 0.4356
vt 0.4141 0.4574
vt 0.4078 0.4443
vt 0.4303 0.4359
vt 0.4213 0.4413
vt 0.4108 0.4328
vt 0.3959 0.4356
vt 0.3963 0.4531
vt 0.3863 0.4538
vt 0.4012 0.4683
vt 0.4368 0.4466
vt 0.4387 0.4249
vt 0.4458 0.4511
vt 0.4509 0.4096
vt 0.4570 0.4183
vt 0.4466 0.4335
vt 0.4590 0.4573
vt 0.4592 0.4362
vn 0.4508 0.0851 -0.8885
vn 0.0837 -0.0702 0.9940
vn -0.6677 0.1985 -0.7174
vn 0.9705 -0.0865 0.2250
vn -0.9144 0.0916 0.3943
vn -0.9097 0.0552 0.4115
vn 0.9818 0.0497 0.1835
vn -0.6787 0.0349 -0.7335
vn 0.1222 0.0753 0.9896
vn 0.4673 0.0330 -0.8835
vn -0.0328 -0.9959 -0.0848
vn 0.4133 -0.5628 -0.7158
vn 0.6629 -0.7450 0.0751
vn 0.5426 -0.3825 -0.7479
vn -0.1978 -0.1912 0.9614
vn -0.0148 0.6231 -0.7820
vn 0.6864 0.7007 -0.1945
vn 0.4119 0.6224 0.6655
vn -0.5265 0.6526 0.5450
vn -0.7141 0.6843 -0.1478
vn -0.4517 0.8820 0.1346
vn -0.5896 0.7965 0.1340
vn -0.6547 0.6323 0.4141
vn -0.2335 0.8916 0.3879
vn -0.2446 0.8188 0.5194
vn 0.0722 0.6684 0.7403
vn 0.3449 0.9265 0.1504
vn 0.4564 0.8599 0.2287
vn 0.6865 0.7251 0.0540
vn 0.2955 0.9381 -0.1808
vn 0.5040 0.7693 -0.3926
vn 0.4240 0.6680 -0.6115
vn -0.2096 0.9280 -0.3081
vn -0.2916 0.8209 -0.4910
vn -0.6005 0.6516 -0.4635
vn -0.9556 0.2863 0.0693
vn -0.8805 0.3199 0.3498
vn -0.2361 0.0802 0.9684
vn 0.6265 0.2942 0.7217
vn 0.8349 0.2290 0.5005
vn -0.0865 0.4791 -0.8735
vn -0.6203 0.5023 -0.6024
vn -0.3375 -0.8080 0.4829
vn -0.3027 -0.8194 0.4869
vn 0.3834 -0.4718 0.7940
vn 0.9031 -0.2904 -0.3163
vn 0.0158 -0.3134 -0.9495
vn -0.1372 -0.8662 -0.4804
vn -0.7242 -0.2641 -0.6370
vn -0.6514 -0.6589 -0.3764
vn 0.3820 -0.8749 -0.2976
vn -0.1298 -0.9639 -0.2325
vn 0.0944 -0.9871 -0.1291
vn -0.2738 -0.9612 0.0329
vn -0.3552 -0.8921 -0.2792
vn 0.3332 -0.9229 -0.1929
vn 0.3824 -0.9115 -0.1516
vn -0.1530 -0.9749 0.1619
vn -0.1821 -0.9678 0.1740
vn 0.0855 -0.8946 0.4386
s off
f 12/1/1 9/2/1 8/3/1 11/4/1
f 14/5/2 7/6/2 6/7/2 13/8/2
f 15/9/3 10/10/3 9/11/3 12/12/3
f 11/4/4 8/3/4 7/6/4 14/5/4
f 13/8/5 6/7/5 10/10/5 15/9/5
f 1/13/6 13/8/6 15/9/6 5/14/6
f 3/15/7 11/4/7 14/5/7 2/16/7
f 5/14/8 15/9/8 12/12/8 4/17/8
f 2/16/9 14/5/9 13/8/9 1/13/9
f 4/18/10 12/1/10 11/4/10 3/15/10
f 27/19/11 22/20/11 26/21/11
f 16/22/12 23/23/12 18/24/12
f 17/25/13 16/22/13 19/26/13
f 16/22/14 18/24/14 31/27/14
f 28/28/15 20/29/15 33/30/15
f 18/31/16 34/32/16 38/33/16
f 19/26/17 31/27/17 40/34/17
f 20/35/18 35/36/18 41/37/18
f 33/30/19 36/38/19 42/39/19
f 29/40/20 37/41/20 39/42/20
f 39/42/21 42/39/21 21/43/21
f 39/42/22 37/41/22 42/39/22
f 37/41/23 33/30/23 42/39/23
f 42/39/24 41/44/24 21/43/24
f 42/39/25 36/38/25 41/44/25
f 36/38/26 20/29/26 41/44/26
f 41/37/27 40/34/27 21/45/27
f 41/37/28 35/36/28 40/34/28
f 35/36/29 19/26/29 40/34/29
f 40/34/30 38/46/30 21/45/30
f 40/34/31 31/27/31 38/46/31
f 31/27/32 18/24/32 38/46/32
f 38/33/33 39/42/33 21/43/33
f 38/33/34 34/32/34 39/42/34
f 34/32/35 29/40/35 39/42/35
f 29/40/36 32/47/36 37/41/36
f 32/47/37 33/30/37 37/41/37
f 33/30/38 20/29/38 36/38/38
f 17/25/39 35/36/39 20/35/39
f 17/25/40 19/26/40 35/36/40
f 30/48/41 34/32/41 18/31/41
f 30/48/42 29/40/42 34/32/42
f 32/47/43 25/49/43 33/30/43
f 25/49/44 28/28/44 33/30/44
f 20/35/45 28/50/45 17/25/45
f 19/26/46 16/22/46 31/27/46
f 18/31/47 23/51/47 30/48/47
f 23/51/48 24/52/48 30/48/48
f 30/48/49 24/52/49 29/40/49
f 24/52/50 32/47/50 29/40/50
f 27/53/51 28/28/51 25/49/51
f 27/19/52 26/21/52 28/50/52
f 26/21/53 17/25/53 28/50/53
f 26/21/54 16/22/54 17/25/54
f 24/52/55 25/49/55 32/47/55
f 24/52/56 22/54/56 25/49/56
f 22/54/57 27/53/57 25/49/57
f 26/21/58 23/23/58 16/22/58
f 26/21/59 22/20/59 23/23/59
f 22/54/60 24/52/60 23/51/60
