# Blender v2.78 (sub 0) OBJ File: 'Low_Poly_Vegetation_Pack.blend'
# www.blender.org
g Mushroom_f_08
v 0.084351 -0.009626 0.083889
v 0.099457 -0.009417 0.050652
v 0.072712 -0.008627 0.025897
v 0.040865 -0.008403 0.043834
v 0.047941 -0.008551 0.079676
v 0.093120 0.092143 0.074781
v 0.103422 0.088077 0.050775
v 0.085359 0.095219 0.033128
v 0.060632 0.092124 0.046256
v 0.064848 0.088443 0.072475
v 0.076800 0.041265 0.009894
v 0.024845 0.042591 0.037032
v 0.095534 0.032888 0.097281
v 0.116012 0.028849 0.047452
v 0.037669 0.033962 0.091517
v 0.011703 0.090684 0.000795
v 0.102202 0.082284 -0.044385
v -0.012709 0.126652 0.071308
v 0.043206 0.105969 -0.040111
v 0.159657 0.096099 -0.017133
v 0.100855 0.155225 0.051646
v 0.050963 0.078918 0.097820
v 0.001451 0.091491 0.081642
v 0.053786 0.085934 0.140557
v 0.135795 0.057278 0.100126
v 0.058880 0.086602 0.019825
v 0.107923 0.072381 0.047012
v 0.151773 0.062865 0.004855
v 0.095920 0.115422 0.146410
v 0.023466 0.107470 0.140467
v 0.000755 0.123687 0.003943
v 0.148759 0.082719 0.126714
v 0.186237 0.069764 0.073602
v 0.040593 0.132937 0.124126
v 0.093156 0.123781 -0.034489
v 0.175638 0.100169 0.027695
v 0.142430 0.113629 0.124480
v 0.046958 0.155733 0.070467
v 0.096525 0.144457 0.107819
v 0.066779 0.148469 0.008192
v 0.129738 0.145182 0.007072
v 0.154485 0.130137 0.069745
v -0.063082 -0.009982 0.002626
v -0.044992 -0.009982 -0.036855
v -0.076950 -0.009982 -0.066262
v -0.114793 -0.009982 -0.044955
v -0.106223 -0.009982 -0.002379
v -0.054427 0.191194 -0.007198
v -0.039317 0.186941 -0.040366
v -0.066715 0.190367 -0.064144
v -0.098536 0.177996 -0.045753
v -0.091280 0.174755 -0.009925
v -0.074881 0.092561 -0.058040
v -0.106431 0.089725 -0.041614
v -0.063477 0.090751 -0.005146
v -0.050458 0.088206 -0.035307
v -0.098319 0.087374 -0.008635
v -0.055920 0.170925 -0.154024
v 0.058123 0.174382 -0.080345
v -0.156393 0.219956 -0.138673
v 0.011343 0.198933 -0.148060
v 0.064617 0.209265 0.001871
v -0.060691 0.298978 -0.029340
v -0.140061 0.162468 -0.041409
v -0.155958 0.170550 -0.110631
v -0.187785 0.173669 -0.009834
v -0.079573 0.159233 0.066548
v -0.045725 0.175706 -0.086989
v -0.041171 0.165295 -0.008008
v 0.038577 0.161052 0.015854
v -0.168253 0.233543 0.038146
v -0.209930 0.198228 -0.047484
v -0.069531 0.217854 -0.168912
v -0.107115 0.206797 0.089631
v -0.020370 0.217662 0.096498
v -0.181628 0.241735 -0.042834
v 0.037190 0.236155 -0.089946
v 0.020339 0.238097 0.044655
v -0.113902 0.251230 0.072146
v -0.117999 0.281884 -0.076471
v -0.126681 0.282193 0.006809
v -0.032351 0.274404 -0.095392
v 0.011023 0.281689 -0.025291
v -0.048099 0.279939 0.039398
vt 0.3103 0.2148
vt 0.2900 0.2052
vt 0.2931 0.1966
vt 0.3127 0.2012
vt 0.3138 0.1892
vt 0.2946 0.1878
vt 0.2942 0.1788
vt 0.3140 0.1776
vt 0.3127 0.1655
vt 0.2932 0.1697
vt 0.2904 0.1611
vt 0.3102 0.1514
vt 0.3331 0.1776
vt 0.3329 0.1644
vt 0.3314 0.2028
vt 0.3325 0.1903
vt 0.3322 0.1514
vt 0.3306 0.2149
vt 0.3014 0.1855
vt 0.3363 0.1767
vt 0.3177 0.2079
vt 0.0312 0.1081
vt 0.0078 0.0639
vt 0.0307 0.0684
vt 0.0914 0.1081
vt 0.0590 0.0960
vt 0.0419 0.0855
vt 0.1154 0.0638
vt 0.0916 0.0707
vt 0.0821 0.0455
vt 0.0418 0.0510
vt 0.0494 0.0631
vt 0.0587 0.0741
vt 0.0714 0.0844
vt 0.0704 0.0678
vt 0.0809 0.0588
vt 0.0683 0.0549
vt 0.0528 0.0401
vt 0.0638 0.0435
vt 0.0561 0.0523
vt 0.0609 0.0623
vt 0.0686 0.0337
vt 0.0310 0.0438
vt 0.0855 0.0126
vt 0.0290 0.0238
vt 0.2734 0.1933
vt 0.2986 0.1563
vt 0.2861 0.2255
vt 0.3333 0.2255
vt 0.3450 0.1583
vt 0.3541 0.1938
vt 0.3103 0.2148
vt 0.2900 0.2052
vt 0.2931 0.1966
vt 0.3127 0.2012
vt 0.3138 0.1892
vt 0.2946 0.1878
vt 0.2942 0.1788
vt 0.3140 0.1776
vt 0.3127 0.1655
vt 0.2932 0.1697
vt 0.2904 0.1611
vt 0.3102 0.1514
vt 0.3331 0.1776
vt 0.3329 0.1644
vt 0.3314 0.2028
vt 0.3325 0.1903
vt 0.3322 0.1514
vt 0.3306 0.2149
vt 0.3014 0.1855
vt 0.3363 0.1767
vt 0.3177 0.2079
vt 0.0312 0.1081
vt 0.0078 0.0639
vt 0.0307 0.0684
vt 0.0914 0.1081
vt 0.0590 0.0960
vt 0.0419 0.0855
vt 0.1154 0.0638
vt 0.0916 0.0707
vt 0.0821 0.0455
vt 0.0418 0.0510
vt 0.0494 0.0631
vt 0.0587 0.0741
vt 0.0714 0.0844
vt 0.0704 0.0678
vt 0.0809 0.0588
vt 0.0683 0.0549
vt 0.0528 0.0401
vt 0.0638 0.0435
vt 0.0561 0.0523
vt 0.0609 0.0623
vt 0.0686 0.0337
vt 0.0310 0.0438
vt 0.0855 0.0126
vt 0.0290 0.0238
vt 0.2734 0.1933
vt 0.2986 0.1563
vt 0.2861 0.2255
vt 0.3333 0.2255
vt 0.3450 0.1583
vt 0.3541 0.1938
vn -0.4270 0.4321 -0.7943
vn 0.9155 0.1746 0.3625
vn -0.8172 0.5185 0.2516
vn 0.7140 0.1839 -0.6756
vn -0.0979 0.3602 0.9277
vn -0.1073 -0.2818 0.9535
vn 0.6217 -0.3029 -0.7223
vn -0.9441 -0.2752 0.1813
vn 0.8577 -0.3429 0.3832
vn -0.4625 -0.2472 -0.8514
vn -0.2160 -0.9693 -0.1174
vn -0.9101 -0.3992 -0.1114
vn -0.3452 -0.7605 -0.5500
vn -0.9394 -0.2950 -0.1748
vn 0.8206 -0.4378 -0.3674
vn -0.4123 0.8551 0.3144
vn -0.2581 0.7843 -0.5641
vn 0.4257 0.5955 -0.6813
vn 0.8771 0.4682 0.1076
vn 0.3010 0.7597 0.5763
vn 0.3581 0.9115 0.2023
vn 0.4331 0.8321 0.3464
vn 0.8298 0.4569 0.3205
vn 0.4068 0.9117 0.0582
vn 0.7223 0.6807 -0.1218
vn 0.7329 0.6025 -0.3160
vn 0.0478 0.9806 -0.1900
vn 0.0371 0.8748 -0.4831
vn -0.2133 0.7828 -0.5846
vn -0.0349 0.9913 -0.1268
vn -0.3313 0.9192 -0.2127
vn -0.4361 0.8910 -0.1264
vn 0.0768 0.9781 0.1934
vn -0.0783 0.9209 0.3819
vn 0.0108 0.7990 0.6013
vn 0.4263 0.1517 0.8918
vn 0.8225 0.2067 0.5299
vn 0.9348 -0.1559 -0.3191
vn 0.3526 0.2891 -0.8900
vn 0.0248 0.2370 -0.9712
vn -0.5548 0.6804 0.4789
vn -0.1304 0.5961 0.7923
vn 0.4454 -0.7454 0.4961
vn 0.2312 -0.9727 -0.0183
vn 0.4608 -0.5632 -0.6860
vn -0.7438 -0.1855 -0.6421
vn -0.8859 -0.2402 0.3968
vn -0.5312 -0.7461 0.4015
vn -0.0709 -0.0957 0.9929
vn 0.1227 -0.3590 0.9252
vn -0.3081 -0.9453 -0.1071
vn -0.2543 -0.9660 -0.0465
vn -0.2630 -0.9581 -0.1130
vn -0.0890 -0.9960 0.0069
vn 0.0728 -0.7381 0.6708
vn -0.2479 -0.9532 0.1729
vn -0.2408 -0.9595 -0.1465
vn -0.0858 -0.9963 -0.0009
vn -0.2084 -0.9710 -0.1168
vn -0.2953 -0.9395 0.1737
vn -0.4803 -0.0068 -0.8771
vn 0.9081 -0.0774 0.4116
vn -0.9705 0.0894 0.2240
vn 0.6552 -0.1068 -0.7479
vn -0.0934 0.0257 0.9953
vn -0.1112 0.0744 0.9910
vn 0.6802 0.0471 -0.7315
vn -0.9725 0.0835 0.2173
vn 0.9129 0.0396 0.4063
vn -0.4787 0.0747 -0.8748
vn 0.0737 -0.9882 -0.1345
vn -0.3509 -0.4646 -0.8130
vn 0.3656 -0.7652 -0.5300
vn -0.3136 -0.3686 -0.8751
vn 0.7207 -0.1965 0.6648
vn -0.6216 0.7124 -0.3256
vn 0.3286 0.6610 -0.6746
vn 0.8148 0.5748 -0.0750
vn 0.3895 0.7106 0.5859
vn -0.5172 0.7299 0.4470
vn -0.0891 0.9556 0.2810
vn -0.1606 0.8794 0.4482
vn 0.0591 0.6888 0.7226
vn 0.2165 0.9503 0.2236
vn 0.4468 0.7848 0.4296
vn 0.7081 0.6377 0.3031
vn 0.2403 0.9390 -0.2462
vn 0.4693 0.8001 -0.3735
vn 0.4166 0.6700 -0.6144
vn 0.0053 0.9380 -0.3467
vn -0.0599 0.8056 -0.5894
vn -0.1999 0.7533 -0.6266
vn -0.2623 0.9645 -0.0309
vn -0.5555 0.8293 -0.0610
vn -0.6853 0.7045 0.1845
vn -0.5683 0.2247 0.7916
vn -0.1172 0.3481 0.9301
vn 0.7403 0.1731 0.6496
vn 0.9376 0.2873 -0.1959
vn 0.8385 0.2057 -0.5047
vn -0.7758 0.5396 -0.3269
vn -0.8321 0.5210 0.1901
vn -0.0154 -0.4437 0.8960
vn 0.3046 -0.6605 0.6863
vn 0.8876 -0.4450 0.1187
vn 0.1873 -0.2473 -0.9507
vn -0.7855 -0.3107 -0.5352
vn -0.5949 -0.7870 -0.1635
vn -0.8819 -0.0840 0.4639
vn -0.6880 -0.3038 0.6591
vn -0.0249 -0.9953 -0.0938
vn -0.0139 -0.9914 -0.1299
vn -0.0038 -0.9904 -0.1380
vn -0.0174 -0.9971 0.0738
vn -0.5144 -0.5967 0.6159
vn -0.1821 -0.9806 0.0726
vn 0.0476 -0.9973 -0.0566
vn 0.0324 -0.9973 0.0662
vn 0.0747 -0.9884 -0.1325
vn -0.2610 -0.9639 -0.0526
s off
f 12/1/1 9/2/1 8/3/1 11/4/1
f 14/5/2 7/6/2 6/7/2 13/8/2
f 15/9/3 10/10/3 9/11/3 12/12/3
f 11/4/4 8/3/4 7/6/4 14/5/4
f 13/8/5 6/7/5 10/10/5 15/9/5
f 1/13/6 13/8/6 15/9/6 5/14/6
f 3/15/7 11/4/7 14/5/7 2/16/7
f 5/14/8 15/9/8 12/12/8 4/17/8
f 2/16/9 14/5/9 13/8/9 1/13/9
f 4/18/10 12/1/10 11/4/10 3/15/10
f 27/19/11 22/20/11 26/21/11
f 16/22/12 23/23/12 18/24/12
f 17/25/13 16/22/13 19/26/13
f 16/22/14 18/24/14 31/27/14
f 28/28/15 20/29/15 33/30/15
f 18/24/16 34/31/16 38/32/16
f 19/26/17 31/27/17 40/33/17
f 20/29/18 35/34/18 41/35/18
f 33/30/19 36/36/19 42/37/19
f 29/38/20 37/39/20 39/40/20
f 39/40/21 42/37/21 21/41/21
f 39/40/22 37/39/22 42/37/22
f 37/39/23 33/30/23 42/37/23
f 42/37/24 41/35/24 21/41/24
f 42/37/25 36/36/25 41/35/25
f 36/36/26 20/29/26 41/35/26
f 41/35/27 40/33/27 21/41/27
f 41/35/28 35/34/28 40/33/28
f 35/34/29 19/26/29 40/33/29
f 40/33/30 38/32/30 21/41/30
f 40/33/31 31/27/31 38/32/31
f 31/27/32 18/24/32 38/32/32
f 38/32/33 39/40/33 21/41/33
f 38/32/34 34/31/34 39/40/34
f 34/31/35 29/38/35 39/40/35
f 29/38/36 32/42/36 37/39/36
f 32/42/37 33/30/37 37/39/37
f 33/30/38 20/29/38 36/36/38
f 17/25/39 35/34/39 20/29/39
f 17/25/40 19/26/40 35/34/40
f 30/43/41 34/31/41 18/24/41
f 30/43/42 29/38/42 34/31/42
f 32/42/43 25/44/43 33/30/43
f 25/44/44 28/28/44 33/30/44
f 20/29/45 28/28/45 17/25/45
f 19/26/46 16/22/46 31/27/46
f 18/24/47 23/23/47 30/43/47
f 23/23/48 24/45/48 30/43/48
f 30/43/49 24/45/49 29/38/49
f 24/45/50 32/42/50 29/38/50
f 27/19/51 28/46/51 25/47/51
f 27/19/52 26/21/52 28/46/52
f 26/21/53 17/48/53 28/46/53
f 26/21/54 16/49/54 17/48/54
f 24/45/55 25/44/55 32/42/55
f 24/50/56 22/20/56 25/47/56
f 22/20/57 27/19/57 25/47/57
f 26/21/58 23/51/58 16/49/58
f 26/21/59 22/20/59 23/51/59
f 22/20/60 24/50/60 23/51/60
f 54/52/61 51/53/61 50/54/61 53/55/61
f 56/56/62 49/57/62 48/58/62 55/59/62
f 57/60/63 52/61/63 51/62/63 54/63/63
f 53/55/64 50/54/64 49/57/64 56/56/64
f 55/59/65 48/58/65 52/61/65 57/60/65
f 43/64/66 55/59/66 57/60/66 47/65/66
f 45/66/67 53/55/67 56/56/67 44/67/67
f 47/65/68 57/60/68 54/63/68 46/68/68
f 44/67/69 56/56/69 55/59/69 43/64/69
f 46/69/70 54/52/70 53/55/70 45/66/70
f 69/70/71 64/71/71 68/72/71
f 58/73/72 65/74/72 60/75/72
f 59/76/73 58/73/73 61/77/73
f 58/73/74 60/75/74 73/78/74
f 70/79/75 62/80/75 75/81/75
f 60/75/76 76/82/76 80/83/76
f 61/77/77 73/78/77 82/84/77
f 62/80/78 77/85/78 83/86/78
f 75/81/79 78/87/79 84/88/79
f 71/89/80 79/90/80 81/91/80
f 81/91/81 84/88/81 63/92/81
f 81/91/82 79/90/82 84/88/82
f 79/90/83 75/81/83 84/88/83
f 84/88/84 83/86/84 63/92/84
f 84/88/85 78/87/85 83/86/85
f 78/87/86 62/80/86 83/86/86
f 83/86/87 82/84/87 63/92/87
f 83/86/88 77/85/88 82/84/88
f 77/85/89 61/77/89 82/84/89
f 82/84/90 80/83/90 63/92/90
f 82/84/91 73/78/91 80/83/91
f 73/78/92 60/75/92 80/83/92
f 80/83/93 81/91/93 63/92/93
f 80/83/94 76/82/94 81/91/94
f 76/82/95 71/89/95 81/91/95
f 71/89/96 74/93/96 79/90/96
f 74/93/97 75/81/97 79/90/97
f 75/81/98 62/80/98 78/87/98
f 59/76/99 77/85/99 62/80/99
f 59/76/100 61/77/100 77/85/100
f 72/94/101 76/82/101 60/75/101
f 72/94/102 71/89/102 76/82/102
f 74/93/103 67/95/103 75/81/103
f 67/95/104 70/79/104 75/81/104
f 62/80/105 70/79/105 59/76/105
f 61/77/106 58/73/106 73/78/106
f 60/75/107 65/74/107 72/94/107
f 65/74/108 66/96/108 72/94/108
f 72/94/109 66/96/109 71/89/109
f 66/96/110 74/93/110 71/89/110
f 69/70/111 70/97/111 67/98/111
f 69/70/112 68/72/112 70/97/112
f 68/72/113 59/99/113 70/97/113
f 68/72/114 58/100/114 59/99/114
f 66/96/115 67/95/115 74/93/115
f 66/101/116 64/71/116 67/98/116
f 64/71/117 69/70/117 67/98/117
f 68/72/118 65/102/118 58/100/118
f 68/72/119 64/71/119 65/102/119
f 64/71/120 66/101/120 65/102/120
