# Blender v2.78 (sub 0) OBJ File: 'Low_Poly_Vegetation_Pack.blend'
# www.blender.org
g Mushroom_f_03
v 0.018071 -0.011435 0.032191
v 0.036015 -0.011186 -0.007290
v 0.004245 -0.010248 -0.036697
v -0.033585 -0.009982 -0.015390
v -0.025180 -0.010158 0.027186
v 0.028488 0.109455 0.021372
v 0.040725 0.104626 -0.007144
v 0.019269 0.113109 -0.028107
v -0.010104 0.109433 -0.012513
v -0.005096 0.105060 0.018632
v 0.009101 0.049018 -0.055707
v -0.052616 0.050594 -0.023470
v 0.031356 0.039068 0.048099
v 0.055681 0.034269 -0.011092
v -0.037382 0.040342 0.041252
v -0.068227 0.107722 -0.066515
v 0.039276 0.097744 -0.120184
v -0.097226 0.150448 0.017246
v -0.030805 0.125879 -0.115108
v 0.107526 0.114154 -0.087812
v 0.037676 0.184389 -0.006110
v -0.021590 0.093745 0.048739
v -0.080405 0.108681 0.029521
v -0.018236 0.102080 0.099505
v 0.079181 0.068039 0.051478
v -0.012186 0.102873 -0.043910
v 0.046072 0.085981 -0.011615
v 0.098161 0.074677 -0.061692
v 0.031813 0.137108 0.106458
v -0.054253 0.127662 0.099399
v -0.081232 0.146926 -0.062776
v 0.094580 0.098261 0.083062
v 0.139100 0.082872 0.019970
v -0.033909 0.157915 0.079987
v 0.028530 0.147038 -0.108429
v 0.126510 0.118989 -0.034561
v 0.087062 0.134978 0.080408
v -0.026348 0.184994 0.016247
v 0.032533 0.171598 0.060617
v -0.002803 0.176364 -0.057729
v 0.071986 0.172460 -0.059059
v 0.101382 0.154588 0.015389
vt 0.3103 0.2148
vt 0.2900 0.2052
vt 0.2931 0.1966
vt 0.3127 0.2012
vt 0.3138 0.1892
vt 0.2946 0.1878
vt 0.2942 0.1788
vt 0.3140 0.1776
vt 0.3127 0.1655
vt 0.2932 0.1697
vt 0.2904 0.1611
vt 0.3102 0.1514
vt 0.3331 0.1776
vt 0.3329 0.1644
vt 0.3314 0.2028
vt 0.3325 0.1903
vt 0.3322 0.1514
vt 0.3306 0.2149
vt 0.3014 0.1855
vt 0.3363 0.1767
vt 0.3177 0.2079
vt 0.0312 0.1081
vt 0.0078 0.0639
vt 0.0307 0.0684
vt 0.0914 0.1081
vt 0.0590 0.0960
vt 0.0419 0.0855
vt 0.1154 0.0638
vt 0.0916 0.0707
vt 0.0821 0.0455
vt 0.0418 0.0510
vt 0.0494 0.0631
vt 0.0587 0.0741
vt 0.0714 0.0844
vt 0.0704 0.0678
vt 0.0809 0.0588
vt 0.0683 0.0549
vt 0.0528 0.0401
vt 0.0638 0.0435
vt 0.0561 0.0523
vt 0.0609 0.0623
vt 0.0686 0.0337
vt 0.0310 0.0438
vt 0.0855 0.0126
vt 0.0290 0.0238
vt 0.2734 0.1933
vt 0.2986 0.1563
vt 0.2861 0.2255
vt 0.3333 0.2255
vt 0.3450 0.1583
vt 0.3541 0.1938
vn -0.4270 0.4321 -0.7943
vn 0.9155 0.1746 0.3625
vn -0.8172 0.5185 0.2516
vn 0.7140 0.1839 -0.6756
vn -0.0979 0.3602 0.9277
vn -0.1073 -0.2818 0.9535
vn 0.6217 -0.3029 -0.7223
vn -0.9441 -0.2752 0.1813
vn 0.8577 -0.3429 0.3832
vn -0.4625 -0.2472 -0.8514
vn -0.2160 -0.9693 -0.1174
vn -0.9101 -0.3992 -0.1114
vn -0.3452 -0.7605 -0.5500
vn -0.9394 -0.2950 -0.1748
vn 0.8206 -0.4378 -0.3674
vn -0.4123 0.8551 0.3144
vn -0.2581 0.7843 -0.5641
vn 0.4257 0.5955 -0.6813
vn 0.8771 0.4682 0.1076
vn 0.3010 0.7597 0.5763
vn 0.3581 0.9115 0.2023
vn 0.4331 0.8321 0.3464
vn 0.8298 0.4569 0.3205
vn 0.4068 0.9117 0.0582
vn 0.7223 0.6807 -0.1218
vn 0.7329 0.6025 -0.3160
vn 0.0478 0.9806 -0.1900
vn 0.0371 0.8748 -0.4831
vn -0.2133 0.7828 -0.5846
vn -0.0349 0.9913 -0.1268
vn -0.3313 0.9192 -0.2127
vn -0.4361 0.8910 -0.1264
vn 0.0768 0.9781 0.1934
vn -0.0783 0.9209 0.3819
vn 0.0108 0.7990 0.6013
vn 0.4263 0.1517 0.8918
vn 0.8225 0.2067 0.5299
vn 0.9348 -0.1559 -0.3191
vn 0.3526 0.2891 -0.8900
vn 0.0248 0.2370 -0.9712
vn -0.5548 0.6804 0.4789
vn -0.1304 0.5961 0.7923
vn 0.4454 -0.7454 0.4961
vn 0.2312 -0.9727 -0.0183
vn 0.4608 -0.5632 -0.6860
vn -0.7438 -0.1855 -0.6421
vn -0.8859 -0.2402 0.3968
vn -0.5312 -0.7461 0.4015
vn -0.0709 -0.0957 0.9929
vn 0.1227 -0.3590 0.9252
vn -0.3081 -0.9453 -0.1071
vn -0.2543 -0.9660 -0.0465
vn -0.2630 -0.9581 -0.1130
vn -0.0890 -0.9960 0.0069
vn 0.0728 -0.7381 0.6708
vn -0.2479 -0.9532 0.1729
vn -0.2408 -0.9595 -0.1465
vn -0.0858 -0.9963 -0.0009
vn -0.2084 -0.9710 -0.1168
vn -0.2953 -0.9395 0.1737
s off
f 12/1/1 9/2/1 8/3/1 11/4/1
f 14/5/2 7/6/2 6/7/2 13/8/2
f 15/9/3 10/10/3 9/11/3 12/12/3
f 11/4/4 8/3/4 7/6/4 14/5/4
f 13/8/5 6/7/5 10/10/5 15/9/5
f 1/13/6 13/8/6 15/9/6 5/14/6
f 3/15/7 11/4/7 14/5/7 2/16/7
f 5/14/8 15/9/8 12/12/8 4/17/8
f 2/16/9 14/5/9 13/8/9 1/13/9
f 4/18/10 12/1/10 11/4/10 3/15/10
f 27/19/11 22/20/11 26/21/11
f 16/22/12 23/23/12 18/24/12
f 17/25/13 16/22/13 19/26/13
f 16/22/14 18/24/14 31/27/14
f 28/28/15 20/29/15 33/30/15
f 18/24/16 34/31/16 38/32/16
f 19/26/17 31/27/17 40/33/17
f 20/29/18 35/34/18 41/35/18
f 33/30/19 36/36/19 42/37/19
f 29/38/20 37/39/20 39/40/20
f 39/40/21 42/37/21 21/41/21
f 39/40/22 37/39/22 42/37/22
f 37/39/23 33/30/23 42/37/23
f 42/37/24 41/35/24 21/41/24
f 42/37/25 36/36/25 41/35/25
f 36/36/26 20/29/26 41/35/26
f 41/35/27 40/33/27 21/41/27
f 41/35/28 35/34/28 40/33/28
f 35/34/29 19/26/29 40/33/29
f 40/33/30 38/32/30 21/41/30
f 40/33/31 31/27/31 38/32/31
f 31/27/32 18/24/32 38/32/32
f 38/32/33 39/40/33 21/41/33
f 38/32/34 34/31/34 39/40/34
f 34/31/35 29/38/35 39/40/35
f 29/38/36 32/42/36 37/39/36
f 32/42/37 33/30/37 37/39/37
f 33/30/38 20/29/38 36/36/38
f 17/25/39 35/34/39 20/29/39
f 17/25/40 19/26/40 35/34/40
f 30/43/41 34/31/41 18/24/41
f 30/43/42 29/38/42 34/31/42
f 32/42/43 25/44/43 33/30/43
f 25/44/44 28/28/44 33/30/44
f 20/29/45 28/28/45 17/25/45
f 19/26/46 16/22/46 31/27/46
f 18/24/47 23/23/47 30/43/47
f 23/23/48 24/45/48 30/43/48
f 30/43/49 24/45/49 29/38/49
f 24/45/50 32/42/50 29/38/50
f 27/19/51 28/46/51 25/47/51
f 27/19/52 26/21/52 28/46/52
f 26/21/53 17/48/53 28/46/53
f 26/21/54 16/49/54 17/48/54
f 24/45/55 25/44/55 32/42/55
f 24/50/56 22/20/56 25/47/56
f 22/20/57 27/19/57 25/47/57
f 26/21/58 23/51/58 16/49/58
f 26/21/59 22/20/59 23/51/59
f 22/20/60 24/50/60 23/51/60
