# Blender v2.78 (sub 0) OBJ File: 'Low_Poly_Vegetation_Pack.blend'
# www.blender.org
g Mushroom_j_01
v -0.012988 0.112618 -0.072996
v -0.063379 0.125776 -0.052123
v -0.073739 0.120673 -0.001446
v -0.062686 0.123492 0.052870
v -0.012988 0.125776 0.069533
v 0.022554 0.130986 0.036360
v 0.058277 0.125776 -0.001732
v 0.045535 0.133061 -0.063651
v -0.012988 0.110601 -0.001732
v -0.012988 0.112618 -0.100741
v -0.082998 0.125776 -0.071742
v -0.101483 0.120673 -0.001446
v -0.081371 0.113258 0.070644
v -0.012988 0.125776 0.097278
v 0.042173 0.130986 0.055978
v 0.086021 0.125776 -0.001732
v 0.065153 0.133061 -0.083270
v -0.012296 0.101304 -0.056327
v -0.052993 0.108953 -0.039470
v -0.063738 0.105987 0.001393
v -0.052047 0.101677 0.043299
v -0.012296 0.108953 0.058781
v 0.019769 0.111982 0.034773
v 0.045258 0.108953 0.001227
v 0.033127 0.113188 -0.046171
v -0.012035 0.050655 -0.019216
v -0.025769 0.053236 -0.013527
v -0.029396 0.052235 0.000264
v -0.025450 0.050781 0.014406
v -0.012035 0.053236 0.019631
v -0.001214 0.054258 0.011529
v 0.007388 0.053236 0.000208
v 0.003294 0.054665 -0.015788
v 0.004228 -0.016880 -0.011537
v -0.003928 -0.015348 -0.008159
v -0.006081 -0.015942 0.000030
v -0.003738 -0.016806 0.008428
v 0.004228 -0.015348 0.011530
v 0.010654 -0.014741 0.006719
v 0.015762 -0.015348 -0.000003
v 0.013331 -0.014499 -0.009502
vt 0.3029 0.0889
vt 0.2859 0.0824
vt 0.2967 0.0766
vt 0.2856 0.0957
vt 0.3090 0.0717
vt 0.3226 0.0798
vt 0.3101 0.1053
vt 0.2974 0.1032
vt 0.3195 0.0950
vt 0.3114 0.0651
vt 0.3289 0.0770
vt 0.2793 0.0800
vt 0.2938 0.0703
vt 0.2949 0.1097
vt 0.2793 0.0988
vt 0.3261 0.0974
vt 0.3130 0.1116
vt 0.3512 0.0288
vt 0.3490 0.0436
vt 0.3397 0.0380
vt 0.3419 0.0277
vt 0.3276 0.0651
vt 0.3124 0.0651
vt 0.3113 0.0560
vt 0.3230 0.0549
vt 0.3002 0.0613
vt 0.2874 0.0584
vt 0.2928 0.0517
vt 0.3017 0.0544
vt 0.3485 0.0117
vt 0.3405 0.0170
vt 0.3382 0.0545
vt 0.3317 0.0467
vt 0.2793 0.0469
vt 0.2869 0.0448
vt 0.3147 0.0334
vt 0.3191 0.0301
vt 0.3045 0.0356
vt 0.3091 0.0346
vt 0.2967 0.0342
vt 0.3006 0.0355
vt 0.3231 0.0278
vt 0.3252 0.0241
vt 0.3262 0.0204
vt 0.3111 0.0117
vt 0.3123 0.0099
vt 0.3076 0.0138
vt 0.3097 0.0132
vt 0.3056 0.0151
vt 0.3015 0.0164
vt 0.3034 0.0156
vt 0.2975 0.0171
vt 0.2996 0.0169
vn -0.3200 0.9266 -0.1973
vn 0.0249 0.9778 -0.2082
vn -0.2057 0.9661 0.1560
vn 0.1627 0.9778 0.1317
vn -0.1978 0.9291 -0.3126
vn 0.2631 0.9644 0.0273
vn -0.3335 0.9424 0.0267
vn 0.1626 0.9831 -0.0841
vn 0.0382 0.9950 0.0921
vn -0.0854 0.9957 0.0354
vn -0.1848 0.9794 0.0812
vn 0.1829 0.9802 -0.0758
vn -0.2651 0.9580 -0.1098
vn 0.0334 0.9962 -0.0806
vn -0.1758 0.9734 0.1467
vn -0.0317 0.9966 0.0765
vn -0.3476 -0.9241 -0.1585
vn 0.3647 -0.9145 -0.1750
vn 0.3638 -0.8511 0.3785
vn -0.3630 -0.9318 0.0054
vn -0.2722 -0.9335 -0.2335
vn 0.2956 -0.9246 -0.2401
vn 0.3778 -0.8514 0.3639
vn 0.0117 -0.9162 0.4006
vn 0.3175 -0.5594 -0.7657
vn 0.6805 -0.4728 0.5598
vn -0.2084 -0.5629 0.7998
vn -0.8178 -0.5172 -0.2526
vn 0.8022 -0.5406 -0.2536
vn 0.5554 -0.4764 0.6817
vn -0.8278 -0.5326 0.1762
vn -0.4066 -0.5413 -0.7360
vn -0.9218 -0.3160 0.2247
vn -0.4067 -0.1993 -0.8915
vn 0.2315 -0.0547 -0.9713
vn 0.7967 0.0954 0.5968
vn -0.3266 -0.1869 0.9265
vn -0.9132 -0.3114 -0.2628
vn 0.9644 0.1185 -0.2362
vn 0.5959 0.0466 0.8017
s off
f 9/1/1 5/2/1 6/3/1
f 4/4/2 5/2/2 9/1/2
f 9/1/3 7/5/3 8/6/3
f 2/7/4 3/8/4 9/1/4
f 7/5/5 9/1/5 6/3/5
f 1/9/6 2/7/6 9/1/6
f 1/9/7 9/1/7 8/6/7
f 3/8/8 4/4/8 9/1/8
f 8/6/9 7/5/9 16/10/9 17/11/9
f 6/3/10 5/2/10 14/12/10 15/13/10
f 4/4/11 3/8/11 12/14/11 13/15/11
f 2/7/12 1/9/12 10/16/12 11/17/12
f 1/9/13 8/6/13 17/11/13 10/16/13
f 7/5/14 6/3/14 15/13/14 16/10/14
f 5/2/15 4/4/15 13/15/15 14/12/15
f 3/8/16 2/7/16 11/17/16 12/14/16
f 12/18/17 11/19/17 19/20/17 20/21/17
f 17/22/18 16/23/18 24/24/18 25/25/18
f 15/26/19 14/27/19 22/28/19 23/29/19
f 13/30/20 12/18/20 20/21/20 21/31/20
f 11/19/21 10/32/21 18/33/21 19/20/21
f 10/32/22 17/22/22 25/25/22 18/33/22
f 16/23/23 15/26/23 23/29/23 24/24/23
f 14/27/24 13/34/24 21/35/24 22/28/24
f 18/33/25 25/25/25 33/36/25 26/37/25
f 24/24/26 23/29/26 31/38/26 32/39/26
f 22/28/27 21/35/27 29/40/27 30/41/27
f 20/21/28 19/20/28 27/42/28 28/43/28
f 25/25/29 24/24/29 32/39/29 33/36/29
f 23/29/30 22/28/30 30/41/30 31/38/30
f 21/31/31 20/21/31 28/43/31 29/44/31
f 19/20/32 18/33/32 26/37/32 27/42/32
f 29/44/33 28/43/33 36/45/33 37/46/33
f 27/42/34 26/37/34 34/47/34 35/48/34
f 26/37/35 33/36/35 41/49/35 34/47/35
f 32/39/36 31/38/36 39/50/36 40/51/36
f 30/41/37 29/40/37 37/52/37 38/53/37
f 28/43/38 27/42/38 35/48/38 36/45/38
f 33/36/39 32/39/39 40/51/39 41/49/39
f 31/38/40 30/41/40 38/53/40 39/50/40
