# Blender v2.78 (sub 0) OBJ File: 'Low_Poly_Vegetation_Pack.blend'
# www.blender.org
g Mushroom_c_06
v 0.076199 0.116966 -0.065516
v 0.033676 0.127430 -0.047765
v 0.016105 0.133125 -0.004273
v 0.033778 0.130716 0.039483
v 0.076342 0.121614 0.057872
v 0.118865 0.111150 0.040121
v 0.136437 0.105455 -0.003371
v 0.118764 0.107864 -0.047127
v 0.089685 0.176206 -0.047344
v 0.061216 0.183211 -0.035460
v 0.049452 0.187024 -0.006342
v 0.061284 0.185411 0.022953
v 0.089781 0.179317 0.035264
v 0.118250 0.172312 0.023380
v 0.130014 0.168499 -0.005738
v 0.118182 0.170112 -0.035033
v 0.093239 0.192993 -0.006618
v 0.015467 -0.011385 -0.007518
v 0.007609 -0.009991 0.000224
v 0.015306 -0.010883 0.008198
v 0.023165 -0.012278 0.000457
v 0.083345 0.165772 -0.013809
v 0.076733 0.169938 -0.005900
v 0.084508 0.167765 0.001746
v 0.091121 0.163599 -0.006163
v 0.041777 0.040875 0.005278
v 0.049474 0.039983 0.013253
v 0.057333 0.038588 0.005511
v 0.049635 0.039480 -0.002463
v -0.038732 0.232527 0.016226
v 0.002605 0.228333 0.040614
v 0.048934 0.225347 0.028530
v 0.073116 0.225318 -0.012947
v 0.060986 0.228263 -0.059520
v 0.019649 0.232456 -0.083908
v -0.026680 0.235442 -0.071824
v -0.050862 0.235472 -0.030347
v -0.015630 0.311189 -0.001448
v 0.008703 0.308720 0.012908
v 0.035974 0.306963 0.005795
v 0.050209 0.306946 -0.018621
v 0.043069 0.308679 -0.046036
v 0.018736 0.311148 -0.060392
v -0.008536 0.312905 -0.053278
v -0.022771 0.312923 -0.028863
v 0.014395 0.330653 -0.024287
v -0.023118 -0.008956 0.005941
v -0.009467 -0.008956 0.007711
v -0.007697 -0.008956 -0.005941
v -0.021348 -0.008956 -0.007711
v 0.005041 0.300800 -0.015754
v 0.018693 0.300800 -0.013984
v 0.020463 0.300800 -0.027635
v 0.006811 0.300800 -0.029406
v -0.008133 0.080175 -0.007317
v -0.006362 0.080175 -0.020969
v -0.020014 0.080175 -0.022739
v -0.021784 0.080175 -0.009088
vt 0.5865 0.2269
vt 0.5801 0.2093
vt 0.5903 0.1982
vt 0.6073 0.2062
vt 0.5865 0.1560
vt 0.5786 0.1730
vt 0.5635 0.1736
vt 0.5571 0.1560
vt 0.5364 0.1768
vt 0.5533 0.1847
vt 0.5540 0.1998
vt 0.5364 0.2062
vt 0.5571 0.2269
vt 0.5651 0.2100
vt 0.5897 0.1832
vt 0.6073 0.1768
vt 0.5718 0.1915
vt 0.5260 0.1716
vt 0.5260 0.2306
vt 0.5200 0.2306
vt 0.5200 0.1716
vt 0.5319 0.1716
vt 0.5319 0.2306
vt 0.5141 0.2306
vt 0.5141 0.1716
vt 0.5081 0.2306
vt 0.5081 0.1716
vt 0.5141 0.1550
vt 0.5081 0.1550
vt 0.5200 0.1550
vt 0.5319 0.1550
vt 0.5260 0.1550
vt 0.5865 0.2269
vt 0.5801 0.2093
vt 0.5903 0.1982
vt 0.6073 0.2062
vt 0.5865 0.1560
vt 0.5786 0.1730
vt 0.5635 0.1736
vt 0.5571 0.1560
vt 0.5364 0.1768
vt 0.5533 0.1847
vt 0.5540 0.1998
vt 0.5364 0.2062
vt 0.5571 0.2269
vt 0.5651 0.2100
vt 0.5897 0.1832
vt 0.6073 0.1768
vt 0.5718 0.1915
vt 0.5260 0.1767
vt 0.5260 0.2306
vt 0.5200 0.2306
vt 0.5200 0.1767
vt 0.5319 0.1767
vt 0.5319 0.2306
vt 0.5141 0.2306
vt 0.5141 0.1767
vt 0.5081 0.2306
vt 0.5081 0.1767
vt 0.5141 0.1550
vt 0.5081 0.1550
vt 0.5200 0.1550
vt 0.5319 0.1550
vt 0.5260 0.1550
vn -0.7923 0.4755 -0.3824
vn 0.9258 0.0804 -0.3695
vn 0.4240 0.2431 0.8724
vn -0.7914 0.5030 0.3473
vn -0.2897 0.3404 -0.8946
vn 0.4220 0.1767 -0.8892
vn 0.9266 0.1079 0.3602
vn -0.2876 0.4067 0.8671
vn -0.0339 0.9763 0.2137
vn -0.0345 0.9575 -0.2864
vn 0.4533 0.8453 -0.2828
vn 0.4539 0.8642 0.2173
vn -0.6647 0.2435 0.7063
vn 0.7051 -0.1280 0.6975
vn -0.7051 0.1281 -0.6975
vn 0.6648 -0.2433 -0.7063
vn 0.6478 -0.3689 -0.6665
vn -0.5815 0.4575 -0.6727
vn 0.5815 -0.4575 0.6727
vn -0.6478 0.3689 0.6665
vn 0.2589 0.2971 0.9191
vn -0.8220 0.3073 -0.4795
vn 0.5106 0.2516 -0.8222
vn 0.8325 0.2674 0.4852
vn -0.4570 0.3206 0.8297
vn -0.9099 0.3251 0.2575
vn -0.2258 0.2765 -0.9341
vn 0.9412 0.2482 -0.2294
vn 0.5379 0.8369 0.1013
vn -0.0007 0.8614 0.5078
vn -0.4275 0.9035 -0.0286
vn 0.1362 0.8784 -0.4582
vn 0.9850 -0.1159 0.1277
vn 0.1285 -0.0456 -0.9907
vn -0.1285 0.0456 0.9907
vn -0.9850 0.1159 -0.1277
vn -0.9917 -0.0068 -0.1286
vn -0.1268 0.1668 0.9778
vn 0.1268 -0.1668 -0.9778
vn 0.9917 0.0068 0.1286
s off
f 3/1/1 11/2/1 10/3/1 2/4/1
f 8/5/2 16/6/2 15/7/2 7/8/2
f 6/9/3 14/10/3 13/11/3 5/12/3
f 4/13/4 12/14/4 11/2/4 3/1/4
f 2/4/5 10/3/5 9/15/5 1/16/5
f 1/16/6 9/15/6 16/6/6 8/5/6
f 7/8/7 15/7/7 14/10/7 6/9/7
f 5/12/8 13/11/8 12/14/8 4/13/8
f 11/2/9 12/14/9 13/11/9 17/17/9
f 10/3/10 11/2/10 17/17/10 9/15/10
f 9/15/11 17/17/11 15/7/11 16/6/11
f 17/17/12 13/11/12 14/10/12 15/7/12
f 27/18/13 24/19/13 23/20/13 26/21/13
f 28/22/14 25/23/14 24/19/14 27/18/14
f 26/21/15 23/20/15 22/24/15 29/25/15
f 29/25/16 22/24/16 25/26/16 28/27/16
f 18/28/17 29/25/17 28/27/17 21/29/17
f 19/30/18 26/21/18 29/25/18 18/28/18
f 21/31/19 28/22/19 27/18/19 20/32/19
f 20/32/20 27/18/20 26/21/20 19/30/20
f 32/33/21 40/34/21 39/35/21 31/36/21
f 37/37/22 45/38/22 44/39/22 36/40/22
f 35/41/23 43/42/23 42/43/23 34/44/23
f 33/45/24 41/46/24 40/34/24 32/33/24
f 31/36/25 39/35/25 38/47/25 30/48/25
f 30/48/26 38/47/26 45/38/26 37/37/26
f 36/40/27 44/39/27 43/42/27 35/41/27
f 34/44/28 42/43/28 41/46/28 33/45/28
f 40/34/29 41/46/29 42/43/29 46/49/29
f 39/35/30 40/34/30 46/49/30 38/47/30
f 38/47/31 46/49/31 44/39/31 45/38/31
f 46/49/32 42/43/32 43/42/32 44/39/32
f 56/50/33 53/51/33 52/52/33 55/53/33
f 57/54/34 54/55/34 53/51/34 56/50/34
f 55/53/35 52/52/35 51/56/35 58/57/35
f 58/57/36 51/56/36 54/58/36 57/59/36
f 47/60/37 58/57/37 57/59/37 50/61/37
f 48/62/38 55/53/38 58/57/38 47/60/38
f 50/63/39 57/54/39 56/50/39 49/64/39
f 49/64/40 56/50/40 55/53/40 48/62/40
