# Blender v2.78 (sub 0) OBJ File: 'Low_Poly_Vegetation_Pack.blend'
# www.blender.org
g Mushroom_j_03
v -0.051308 0.125338 -0.072390
v -0.101700 0.138497 -0.051518
v -0.112059 0.133394 -0.000840
v -0.101007 0.136213 0.053476
v -0.051308 0.138497 0.070139
v -0.015766 0.143707 0.036965
v 0.019956 0.138497 -0.001126
v 0.007214 0.145782 -0.063046
v -0.051308 0.123322 -0.001126
v -0.051308 0.125338 -0.100135
v -0.121318 0.138497 -0.071136
v -0.139804 0.133394 -0.000840
v -0.119692 0.125979 0.071250
v -0.051308 0.138497 0.097883
v 0.003852 0.143707 0.056584
v 0.047701 0.138497 -0.001126
v 0.026833 0.145782 -0.082664
v -0.050617 0.114025 -0.055721
v -0.091313 0.121674 -0.038864
v -0.102059 0.118708 0.001999
v -0.090368 0.114398 0.043904
v -0.050617 0.121674 0.059386
v -0.018552 0.124703 0.035379
v 0.006937 0.121674 0.001833
v -0.005194 0.125909 -0.045565
v -0.050356 0.063376 -0.018610
v -0.064090 0.065957 -0.012921
v -0.067716 0.064956 0.000869
v -0.063771 0.063502 0.015012
v -0.050356 0.065957 0.020236
v -0.039535 0.066979 0.012134
v -0.030933 0.065957 0.000813
v -0.035026 0.067386 -0.015183
v -0.014430 -0.016882 -0.011539
v -0.022585 -0.015349 -0.008161
v -0.024739 -0.015943 0.000028
v -0.022396 -0.016807 0.008426
v -0.014430 -0.015349 0.011528
v -0.008004 -0.014742 0.006717
v -0.002896 -0.015349 -0.000005
v -0.005327 -0.014500 -0.009504
v 0.075849 0.065963 0.038147
v 0.051392 0.073948 -0.020200
v 0.018201 0.082155 -0.015469
v -0.009014 0.089679 -0.000441
v 0.009826 0.088826 0.026769
v 0.015536 0.085985 0.061768
v 0.050519 0.082244 0.057337
v 0.031778 0.073640 0.018406
v 0.080077 0.071720 0.004549
v 0.012803 0.077734 -0.027459
v -0.002801 0.091578 0.031811
v 0.055525 0.081543 0.070256
v 0.055235 0.064323 0.029801
v 0.056340 0.067423 0.007690
v 0.039762 0.069004 -0.005393
v 0.018221 0.071193 -0.008398
v 0.004281 0.078194 0.006597
v 0.009150 0.079240 0.026056
v 0.018968 0.076139 0.044496
v 0.043055 0.073407 0.048403
v 0.033364 0.042813 0.023120
v 0.030492 0.041070 0.015753
v 0.020872 0.045132 0.010228
v 0.015869 0.047773 0.015877
v 0.021124 0.046801 0.028079
v 0.029253 0.045879 0.029398
v 0.002916 -0.009117 0.004166
v 0.003143 -0.008333 -0.000239
v -0.000172 -0.008032 -0.002871
v -0.004497 -0.007712 -0.003489
v -0.007610 -0.006198 0.000363
v -0.004443 -0.007090 0.007140
v 0.000395 -0.007509 0.007938
vt 0.3029 0.0889
vt 0.2859 0.0824
vt 0.2967 0.0766
vt 0.2856 0.0957
vt 0.3090 0.0717
vt 0.3226 0.0798
vt 0.3101 0.1053
vt 0.2974 0.1032
vt 0.3195 0.0950
vt 0.3114 0.0651
vt 0.3289 0.0770
vt 0.2793 0.0800
vt 0.2938 0.0703
vt 0.2949 0.1097
vt 0.2793 0.0988
vt 0.3261 0.0974
vt 0.3130 0.1116
vt 0.3512 0.0288
vt 0.3490 0.0436
vt 0.3397 0.0380
vt 0.3419 0.0277
vt 0.3276 0.0651
vt 0.3124 0.0651
vt 0.3113 0.0560
vt 0.3230 0.0549
vt 0.3002 0.0613
vt 0.2874 0.0584
vt 0.2928 0.0517
vt 0.3017 0.0544
vt 0.3485 0.0117
vt 0.3405 0.0170
vt 0.3382 0.0545
vt 0.3317 0.0467
vt 0.2793 0.0469
vt 0.2869 0.0448
vt 0.3147 0.0334
vt 0.3191 0.0301
vt 0.3045 0.0356
vt 0.3091 0.0346
vt 0.2967 0.0342
vt 0.3006 0.0355
vt 0.3231 0.0278
vt 0.3252 0.0241
vt 0.3262 0.0204
vt 0.3111 0.0117
vt 0.3123 0.0099
vt 0.3076 0.0138
vt 0.3097 0.0132
vt 0.3056 0.0151
vt 0.3015 0.0164
vt 0.3034 0.0156
vt 0.2975 0.0171
vt 0.2996 0.0169
vt 0.3029 0.0889
vt 0.2805 0.0805
vt 0.2967 0.0766
vt 0.2856 0.0957
vt 0.3110 0.0661
vt 0.3226 0.0798
vt 0.3130 0.1116
vt 0.2951 0.1091
vt 0.3258 0.0973
vt 0.3289 0.0770
vt 0.2938 0.0703
vt 0.2793 0.0988
vt 0.3397 0.0380
vt 0.3419 0.0277
vt 0.3512 0.0288
vt 0.3490 0.0436
vt 0.3230 0.0549
vt 0.3276 0.0651
vt 0.3113 0.0560
vt 0.2928 0.0517
vt 0.3017 0.0544
vt 0.3002 0.0613
vt 0.2874 0.0584
vt 0.3405 0.0170
vt 0.3485 0.0117
vt 0.3382 0.0545
vt 0.3317 0.0467
vt 0.2793 0.0469
vt 0.2869 0.0448
vt 0.3147 0.0334
vt 0.3191 0.0301
vt 0.3091 0.0346
vt 0.3009 0.0355
vt 0.2967 0.0342
vt 0.3238 0.0266
vt 0.3262 0.0204
vt 0.3111 0.0117
vt 0.3123 0.0099
vt 0.3097 0.0132
vt 0.3076 0.0138
vt 0.3056 0.0151
vt 0.2999 0.0168
vt 0.3034 0.0156
vt 0.2975 0.0171
vn -0.3200 0.9266 -0.1973
vn 0.0249 0.9778 -0.2082
vn -0.2057 0.9661 0.1560
vn 0.1627 0.9778 0.1317
vn -0.1978 0.9291 -0.3126
vn 0.2631 0.9644 0.0273
vn -0.3335 0.9424 0.0267
vn 0.1626 0.9831 -0.0841
vn 0.0382 0.9950 0.0921
vn -0.0854 0.9957 0.0354
vn -0.1848 0.9794 0.0812
vn 0.1829 0.9802 -0.0757
vn -0.2651 0.9580 -0.1098
vn 0.0334 0.9962 -0.0806
vn -0.1758 0.9734 0.1467
vn -0.0317 0.9966 0.0765
vn -0.3476 -0.9241 -0.1585
vn 0.3647 -0.9145 -0.1750
vn 0.3638 -0.8511 0.3785
vn -0.3630 -0.9318 0.0054
vn -0.2722 -0.9335 -0.2335
vn 0.2956 -0.9246 -0.2401
vn 0.3778 -0.8514 0.3639
vn 0.0117 -0.9162 0.4006
vn 0.3175 -0.5594 -0.7657
vn 0.6805 -0.4728 0.5598
vn -0.2084 -0.5629 0.7998
vn -0.8178 -0.5172 -0.2526
vn 0.8022 -0.5406 -0.2536
vn 0.5554 -0.4764 0.6817
vn -0.8278 -0.5326 0.1762
vn -0.4066 -0.5413 -0.7360
vn -0.8655 -0.4618 0.1940
vn -0.4109 -0.2609 -0.8736
vn 0.2156 0.0105 -0.9764
vn 0.7795 0.2631 0.5685
vn -0.3145 -0.2374 0.9191
vn -0.8545 -0.4513 -0.2575
vn 0.9241 0.3207 -0.2078
vn 0.5801 0.1710 0.7964
vn 0.4648 0.8346 -0.2956
vn 0.3200 0.9412 0.1083
vn 0.0719 0.9661 -0.2481
vn 0.0491 0.9982 0.0329
vn 0.5624 0.8265 -0.0247
vn 0.0904 0.9796 0.1792
vn 0.3088 0.8865 -0.3446
vn 0.2562 0.9567 0.1378
vn 0.1079 0.9941 0.0121
vn 0.1769 0.9799 -0.0918
vn 0.1645 0.8991 -0.4056
vn 0.1257 -0.9608 -0.2471
vn 0.4633 0.8763 -0.1320
vn 0.2286 0.9726 0.0417
vn 0.0542 0.9287 -0.3669
vn -0.1842 -0.8762 0.4453
vn -0.6793 -0.7099 0.1860
vn -0.0380 -0.9442 -0.3272
vn 0.1476 -0.9789 -0.1415
vn -0.0858 -0.9165 0.3907
vn -0.6531 -0.7142 0.2517
vn -0.5832 -0.8010 -0.1351
vn 0.4513 -0.6491 0.6124
vn -0.8718 -0.2975 0.3893
vn -0.7558 -0.4332 -0.4911
vn -0.1934 -0.4899 0.8501
vn 0.4432 -0.6299 -0.6378
vn 0.0978 -0.5980 -0.7955
vn -0.9282 -0.2782 0.2472
vn 0.7051 -0.7052 -0.0747
vn 0.4176 0.0581 -0.9068
vn 0.8802 -0.4464 -0.1613
vn 0.5550 -0.5515 0.6227
vn -0.8735 0.2576 0.4130
vn -0.5725 0.4495 -0.6857
vn -0.1827 -0.2798 0.9425
vn 0.6147 -0.0865 -0.7840
s off
f 9/1/1 5/2/1 6/3/1
f 4/4/2 5/2/2 9/1/2
f 9/1/3 7/5/3 8/6/3
f 2/7/4 3/8/4 9/1/4
f 7/5/5 9/1/5 6/3/5
f 1/9/6 2/7/6 9/1/6
f 1/9/7 9/1/7 8/6/7
f 3/8/8 4/4/8 9/1/8
f 8/6/9 7/5/9 16/10/9 17/11/9
f 6/3/10 5/2/10 14/12/10 15/13/10
f 4/4/11 3/8/11 12/14/11 13/15/11
f 2/7/12 1/9/12 10/16/12 11/17/12
f 1/9/13 8/6/13 17/11/13 10/16/13
f 7/5/14 6/3/14 15/13/14 16/10/14
f 5/2/15 4/4/15 13/15/15 14/12/15
f 3/8/16 2/7/16 11/17/16 12/14/16
f 12/18/17 11/19/17 19/20/17 20/21/17
f 17/22/18 16/23/18 24/24/18 25/25/18
f 15/26/19 14/27/19 22/28/19 23/29/19
f 13/30/20 12/18/20 20/21/20 21/31/20
f 11/19/21 10/32/21 18/33/21 19/20/21
f 10/32/22 17/22/22 25/25/22 18/33/22
f 16/23/23 15/26/23 23/29/23 24/24/23
f 14/27/24 13/34/24 21/35/24 22/28/24
f 18/33/25 25/25/25 33/36/25 26/37/25
f 24/24/26 23/29/26 31/38/26 32/39/26
f 22/28/27 21/35/27 29/40/27 30/41/27
f 20/21/28 19/20/28 27/42/28 28/43/28
f 25/25/29 24/24/29 32/39/29 33/36/29
f 23/29/30 22/28/30 30/41/30 31/38/30
f 21/31/31 20/21/31 28/43/31 29/44/31
f 19/20/32 18/33/32 26/37/32 27/42/32
f 29/44/33 28/43/33 36/45/33 37/46/33
f 27/42/34 26/37/34 34/47/34 35/48/34
f 26/37/35 33/36/35 41/49/35 34/47/35
f 32/39/36 31/38/36 39/50/36 40/51/36
f 30/41/37 29/40/37 37/52/37 38/53/37
f 28/43/38 27/42/38 35/48/38 36/45/38
f 33/36/39 32/39/39 40/51/39 41/49/39
f 31/38/40 30/41/40 38/53/40 39/50/40
f 49/54/41 45/55/41 46/56/41
f 44/57/42 45/55/42 49/54/42
f 49/54/43 47/58/43 48/59/43
f 50/60/44 43/61/44 49/54/44
f 47/58/45 49/54/45 46/56/45
f 42/62/46 50/60/46 49/54/46
f 42/62/47 49/54/47 48/59/47
f 43/61/48 44/57/48 49/54/48
f 48/59/49 47/58/49 53/63/49
f 45/55/50 52/64/50 46/56/50
f 44/57/51 43/61/51 51/65/51
f 55/66/52 56/67/52 43/68/52 50/69/52
f 48/59/53 53/63/53 42/62/53
f 47/58/54 46/56/54 52/64/54
f 44/57/55 51/65/55 45/55/55
f 61/70/56 53/71/56 47/58/56 60/72/56
f 58/73/57 59/74/57 52/75/57 45/76/57
f 57/77/58 51/78/58 43/68/58 56/67/58
f 55/66/59 50/69/59 42/79/59 54/80/59
f 61/70/60 54/80/60 42/79/60 53/71/60
f 60/72/61 47/58/61 52/75/61 59/74/61
f 58/73/62 45/76/62 51/81/62 57/82/62
f 67/83/63 62/84/63 54/80/63 61/70/63
f 66/85/64 60/72/64 59/74/64 65/86/64
f 65/86/65 58/73/65 57/82/65 64/87/65
f 67/83/66 61/70/66 60/72/66 66/85/66
f 56/67/67 55/66/67 63/88/67
f 64/89/68 57/77/68 56/67/68 63/88/68
f 59/74/69 58/73/69 65/86/69
f 63/88/70 55/66/70 54/80/70 62/84/70
f 70/90/71 71/91/71 64/89/71 63/88/71
f 69/92/72 63/88/72 62/84/72 68/93/72
f 68/93/73 62/84/73 67/83/73 74/94/73
f 72/95/74 73/96/74 66/85/74 65/86/74
f 71/97/75 72/95/75 65/86/75 64/87/75
f 74/94/76 67/83/76 66/85/76 73/96/76
f 63/88/77 69/92/77 70/90/77
