# Blender v2.78 (sub 0) OBJ File: 'Low_Poly_Vegetation_Pack.blend'
# www.blender.org
g Mushroom_d_04
v 0.000000 -0.027665 -0.009590
v -0.009590 -0.027665 0.000000
v 0.000000 -0.027665 0.009590
v 0.009590 -0.027665 0.000000
v -0.000876 0.187335 -0.011284
v 0.008500 0.189258 0.002271
v -0.020581 0.252214 -0.098452
v -0.088232 0.237984 -0.067646
v -0.114719 0.232249 0.003021
v -0.084526 0.238368 0.072152
v -0.015339 0.252756 0.099252
v 0.052312 0.266985 0.068446
v 0.078799 0.272720 -0.002221
v 0.048606 0.266602 -0.071352
v -0.008542 0.205806 -0.065029
v -0.053273 0.196397 -0.044660
v -0.070787 0.192605 0.002065
v -0.050823 0.196651 0.047776
v -0.005076 0.206164 0.065694
v 0.039656 0.215573 0.045325
v 0.057169 0.219365 -0.001400
v 0.037205 0.215319 -0.047111
v -0.003312 0.190262 0.000426
v -0.019916 0.248198 -0.104905
v -0.091976 0.233041 -0.072091
v -0.120189 0.226932 0.003180
v -0.088028 0.233450 0.076816
v -0.014333 0.248775 0.105682
v 0.057727 0.263932 0.072869
v 0.085940 0.270040 -0.002403
v 0.053779 0.263523 -0.076039
v -0.008264 0.203835 -0.070008
v -0.056400 0.193711 -0.048089
v -0.075246 0.189630 0.002192
v -0.053763 0.193983 0.051380
v -0.004535 0.204221 0.070662
v 0.043601 0.214345 0.048743
v 0.062447 0.218426 -0.001538
v 0.040964 0.214072 -0.050726
v -0.014138 0.184536 -0.001713
v -0.004761 0.186458 0.011842
v 0.020429 0.080165 0.001075
v 0.010718 0.080165 -0.010786
v -0.001143 0.080165 -0.001075
v 0.008568 0.080165 0.010786
v 0.113250 -0.021341 -0.100805
v 0.106015 -0.019658 -0.093699
v 0.113039 -0.020796 -0.086278
v 0.120274 -0.022479 -0.093385
v 0.148202 0.142234 -0.108015
v 0.155477 0.141637 -0.096768
v 0.152760 0.173354 -0.183640
v 0.094771 0.184600 -0.160252
v 0.070491 0.192087 -0.102022
v 0.094144 0.191429 -0.043061
v 0.151874 0.183012 -0.017908
v 0.209863 0.171766 -0.041297
v 0.234143 0.164279 -0.099526
v 0.210490 0.164936 -0.158487
v 0.149281 0.155371 -0.155860
v 0.109948 0.162999 -0.139996
v 0.093479 0.168078 -0.100500
v 0.109523 0.167631 -0.060508
v 0.148680 0.161922 -0.043447
v 0.188013 0.154294 -0.059311
v 0.204481 0.149216 -0.098807
v 0.188438 0.149662 -0.138799
v 0.146943 0.145766 -0.098798
v 0.152213 0.169665 -0.188847
v 0.090445 0.181644 -0.163934
v 0.064583 0.189618 -0.101910
v 0.089777 0.188918 -0.039107
v 0.151269 0.179952 -0.012315
v 0.213037 0.167973 -0.037227
v 0.238899 0.159998 -0.099252
v 0.213704 0.160699 -0.162054
v 0.149014 0.153427 -0.160040
v 0.106688 0.161636 -0.142969
v 0.088967 0.167101 -0.100467
v 0.106231 0.166620 -0.057432
v 0.148368 0.160477 -0.039073
v 0.190694 0.152268 -0.056144
v 0.208415 0.146803 -0.098646
v 0.191151 0.147284 -0.141681
v 0.137167 0.144536 -0.100754
v 0.144443 0.143938 -0.089507
v 0.134493 0.059866 -0.101667
v 0.127413 0.060947 -0.111030
v 0.118272 0.063010 -0.103879
v 0.125352 0.061929 -0.094516
v -0.178642 -0.027665 -0.092476
v -0.180523 -0.027665 -0.102169
v -0.190216 -0.027665 -0.100289
v -0.188336 -0.027665 -0.090595
v -0.196074 0.094014 -0.096219
v -0.207769 0.089084 -0.098327
v -0.169587 0.169010 -0.064520
v -0.145681 0.164913 -0.117951
v -0.163877 0.145233 -0.170150
v -0.213517 0.121497 -0.190540
v -0.265521 0.107610 -0.167176
v -0.289426 0.111707 -0.113744
v -0.271230 0.131387 -0.061545
v -0.221591 0.155123 -0.041156
v -0.173895 0.124689 -0.072899
v -0.158088 0.121980 -0.108228
v -0.170120 0.108967 -0.142742
v -0.202942 0.093273 -0.156224
v -0.237327 0.084090 -0.140775
v -0.253134 0.086799 -0.105446
v -0.241102 0.099812 -0.070932
v -0.208281 0.115506 -0.057450
v -0.201493 0.092945 -0.104006
v -0.165372 0.168123 -0.060467
v -0.139908 0.163759 -0.117380
v -0.159290 0.142796 -0.172980
v -0.212164 0.117514 -0.194698
v -0.267557 0.102722 -0.169811
v -0.293020 0.107085 -0.112898
v -0.273638 0.128048 -0.057298
v -0.220765 0.153331 -0.035580
v -0.170948 0.124820 -0.069969
v -0.153939 0.121905 -0.107987
v -0.166886 0.107902 -0.145127
v -0.202205 0.091013 -0.159635
v -0.239207 0.081132 -0.143011
v -0.256217 0.084047 -0.104993
v -0.243270 0.098050 -0.067853
v -0.207950 0.114939 -0.053345
v -0.193049 0.092122 -0.108578
v -0.204743 0.087192 -0.110687
v -0.002010 -0.023300 0.198105
v -0.010307 -0.023715 0.206483
v -0.001973 -0.025461 0.214650
v 0.006325 -0.025046 0.206272
v 0.016229 0.166607 0.221047
v 0.024871 0.164778 0.233648
v 0.015528 0.216494 0.141376
v -0.051488 0.216992 0.170106
v -0.078745 0.211166 0.237484
v -0.050277 0.202431 0.304043
v 0.017241 0.195902 0.330792
v 0.084257 0.195405 0.302062
v 0.111514 0.201230 0.234684
v 0.083046 0.209966 0.168125
v 0.014586 0.190563 0.169397
v -0.030870 0.190901 0.188884
v -0.049358 0.186950 0.234586
v -0.030048 0.181024 0.279731
v 0.015748 0.176596 0.297875
v 0.061204 0.176259 0.278388
v 0.079692 0.180210 0.232686
v 0.060382 0.186135 0.187541
v 0.014553 0.168667 0.232154
v 0.015262 0.213258 0.134782
v -0.056121 0.213788 0.165384
v -0.085154 0.207583 0.237153
v -0.054831 0.198279 0.308048
v 0.017087 0.191325 0.336540
v 0.088469 0.190795 0.305939
v 0.117503 0.197000 0.234169
v 0.087179 0.206304 0.163274
v 0.014436 0.189133 0.164297
v -0.034478 0.189496 0.185267
v -0.054373 0.185244 0.234446
v -0.033594 0.178868 0.283026
v 0.015687 0.174103 0.302550
v 0.064601 0.173740 0.281581
v 0.084496 0.177992 0.232402
v 0.063717 0.184368 0.183821
v 0.003523 0.166351 0.229725
v 0.012166 0.164522 0.242326
v 0.011545 0.070984 0.212563
v 0.003107 0.073026 0.202186
v -0.007412 0.072776 0.210691
v 0.001026 0.070734 0.221067
vt 0.5691 0.3132
vt 0.5690 0.3368
vt 0.5653 0.3368
vt 0.5653 0.3132
vt 0.5728 0.3132
vt 0.5728 0.3367
vt 0.5615 0.3368
vt 0.5616 0.3133
vt 0.5577 0.3368
vt 0.5579 0.3133
vt 0.6442 0.1786
vt 0.6529 0.1824
vt 0.6530 0.1938
vt 0.6442 0.1973
vt 0.6760 0.2105
vt 0.6726 0.2017
vt 0.6806 0.1935
vt 0.6892 0.1973
vt 0.6892 0.1786
vt 0.6804 0.1821
vt 0.6723 0.1741
vt 0.6761 0.1654
vt 0.6574 0.1654
vt 0.6608 0.1742
vt 0.6612 0.2018
vt 0.6574 0.2105
vt 0.6668 0.1879
vt 0.6910 0.1980
vt 0.6768 0.2122
vt 0.6768 0.1637
vt 0.6910 0.1779
vt 0.6424 0.1779
vt 0.6567 0.1637
vt 0.6567 0.2122
vt 0.6424 0.1980
vt 0.7051 0.1637
vt 0.7249 0.1637
vt 0.7214 0.1725
vt 0.7089 0.1724
vt 0.7389 0.1777
vt 0.7302 0.1815
vt 0.7389 0.1975
vt 0.7249 0.2115
vt 0.7211 0.2028
vt 0.7301 0.1940
vt 0.7051 0.2115
vt 0.6910 0.1975
vt 0.6998 0.1937
vt 0.7085 0.2027
vt 0.6910 0.1777
vt 0.6999 0.1812
vt 0.7170 0.1890
vt 0.7164 0.1855
vt 0.7136 0.1897
vt 0.7129 0.1862
vt 0.5617 0.2897
vt 0.5580 0.2897
vt 0.5654 0.2897
vt 0.5728 0.2896
vt 0.5691 0.2897
vt 0.5691 0.3132
vt 0.5690 0.3368
vt 0.5653 0.3368
vt 0.5653 0.3132
vt 0.5728 0.3132
vt 0.5728 0.3367
vt 0.5615 0.3368
vt 0.5616 0.3133
vt 0.5577 0.3368
vt 0.5579 0.3133
vt 0.6442 0.1786
vt 0.6529 0.1824
vt 0.6530 0.1938
vt 0.6442 0.1973
vt 0.6760 0.2105
vt 0.6726 0.2017
vt 0.6806 0.1935
vt 0.6892 0.1973
vt 0.6892 0.1786
vt 0.6804 0.1821
vt 0.6723 0.1741
vt 0.6761 0.1654
vt 0.6574 0.1654
vt 0.6608 0.1742
vt 0.6612 0.2018
vt 0.6574 0.2105
vt 0.6668 0.1879
vt 0.6910 0.1980
vt 0.6768 0.2122
vt 0.6768 0.1637
vt 0.6910 0.1779
vt 0.6424 0.1779
vt 0.6567 0.1637
vt 0.6567 0.2122
vt 0.6424 0.1980
vt 0.7051 0.1637
vt 0.7249 0.1637
vt 0.7214 0.1725
vt 0.7089 0.1724
vt 0.7389 0.1777
vt 0.7302 0.1815
vt 0.7389 0.1975
vt 0.7249 0.2115
vt 0.7211 0.2028
vt 0.7301 0.1940
vt 0.7051 0.2115
vt 0.6910 0.1975
vt 0.6998 0.1937
vt 0.7085 0.2027
vt 0.6910 0.1777
vt 0.6999 0.1812
vt 0.7170 0.1890
vt 0.7164 0.1855
vt 0.7136 0.1897
vt 0.7129 0.1862
vt 0.5617 0.2897
vt 0.5580 0.2897
vt 0.5654 0.2897
vt 0.5728 0.2896
vt 0.5691 0.2897
vt 0.5691 0.2897
vt 0.5690 0.3368
vt 0.5653 0.3368
vt 0.5654 0.2897
vt 0.5728 0.2896
vt 0.5728 0.3367
vt 0.5615 0.3368
vt 0.5617 0.2897
vt 0.6442 0.1786
vt 0.6529 0.1824
vt 0.6530 0.1938
vt 0.6442 0.1973
vt 0.6760 0.2105
vt 0.6726 0.2017
vt 0.6806 0.1935
vt 0.6892 0.1973
vt 0.6892 0.1786
vt 0.6804 0.1821
vt 0.6723 0.1741
vt 0.6761 0.1654
vt 0.6574 0.1654
vt 0.6608 0.1742
vt 0.6612 0.2018
vt 0.6574 0.2105
vt 0.6668 0.1879
vt 0.6910 0.1980
vt 0.6768 0.2122
vt 0.6768 0.1637
vt 0.6910 0.1779
vt 0.6424 0.1779
vt 0.6567 0.1637
vt 0.6567 0.2122
vt 0.6424 0.1980
vt 0.7051 0.1637
vt 0.7249 0.1637
vt 0.7214 0.1725
vt 0.7089 0.1724
vt 0.7389 0.1777
vt 0.7302 0.1815
vt 0.7389 0.1975
vt 0.7249 0.2115
vt 0.7211 0.2028
vt 0.7301 0.1940
vt 0.7051 0.2115
vt 0.6910 0.1975
vt 0.6998 0.1937
vt 0.7085 0.2027
vt 0.6910 0.1777
vt 0.6999 0.1812
vt 0.7170 0.1890
vt 0.7164 0.1855
vt 0.7136 0.1897
vt 0.7129 0.1862
vt 0.5577 0.3368
vt 0.5580 0.2897
vt 0.5691 0.3132
vt 0.5690 0.3368
vt 0.5653 0.3368
vt 0.5653 0.3132
vt 0.5728 0.3132
vt 0.5728 0.3367
vt 0.5615 0.3368
vt 0.5616 0.3133
vt 0.5577 0.3368
vt 0.5579 0.3133
vt 0.6442 0.1786
vt 0.6529 0.1824
vt 0.6530 0.1938
vt 0.6442 0.1973
vt 0.6760 0.2105
vt 0.6726 0.2017
vt 0.6806 0.1935
vt 0.6892 0.1973
vt 0.6892 0.1786
vt 0.6804 0.1821
vt 0.6723 0.1741
vt 0.6761 0.1654
vt 0.6574 0.1654
vt 0.6608 0.1742
vt 0.6612 0.2018
vt 0.6574 0.2105
vt 0.6668 0.1879
vt 0.6910 0.1980
vt 0.6768 0.2122
vt 0.6768 0.1637
vt 0.6910 0.1779
vt 0.6424 0.1779
vt 0.6567 0.1637
vt 0.6567 0.2122
vt 0.6424 0.1980
vt 0.7051 0.1637
vt 0.7249 0.1637
vt 0.7214 0.1725
vt 0.7089 0.1724
vt 0.7389 0.1777
vt 0.7302 0.1815
vt 0.7389 0.1975
vt 0.7249 0.2115
vt 0.7211 0.2028
vt 0.7301 0.1940
vt 0.7051 0.2115
vt 0.6910 0.1975
vt 0.6998 0.1937
vt 0.7085 0.2027
vt 0.6910 0.1777
vt 0.6999 0.1812
vt 0.7170 0.1890
vt 0.7164 0.1855
vt 0.7136 0.1897
vt 0.7129 0.1862
vt 0.5617 0.2897
vt 0.5580 0.2897
vt 0.5654 0.2897
vt 0.5728 0.2896
vt 0.5691 0.2897
vn -0.7920 -0.1002 0.6023
vn 0.6033 0.0624 0.7951
vn -0.6020 -0.0742 -0.7951
vn 0.7933 0.0882 -0.6024
vn 0.6430 0.7054 0.2983
vn -0.8672 0.3569 0.3472
vn -0.4465 0.4561 -0.7698
vn 0.6269 0.7029 -0.3360
vn 0.2200 0.6070 0.7636
vn -0.4051 0.4628 0.7885
vn -0.8848 0.3540 -0.3029
vn 0.1802 0.6007 -0.7789
vn -0.0378 0.9846 -0.1708
vn -0.0294 0.9856 0.1667
vn -0.3598 0.9162 0.1763
vn -0.3692 0.9150 -0.1625
vn 0.3370 0.9135 -0.2280
vn 0.0570 0.8529 0.5190
vn -0.6744 0.7008 0.2325
vn -0.3944 0.7614 -0.5145
vn 0.0293 0.8500 -0.5260
vn 0.3485 0.9147 0.2048
vn -0.3667 0.7642 0.5305
vn -0.6859 0.6996 -0.2003
vn -0.2040 -0.6378 -0.7427
vn 0.4041 -0.4976 -0.7675
vn 0.8715 -0.3918 0.2949
vn -0.1653 -0.6317 0.7574
vn -0.6150 -0.7333 -0.2900
vn 0.8544 -0.3945 -0.3382
vn 0.4444 -0.4911 0.7492
vn -0.5994 -0.7308 0.3265
vn 0.4533 -0.8811 -0.1348
vn 0.3251 -0.9090 0.2608
vn -0.0623 -0.9896 0.1296
vn 0.0660 -0.9617 -0.2661
vn 0.3033 -0.9068 -0.2929
vn 0.4787 -0.8712 0.1087
vn 0.0857 -0.9539 0.2877
vn -0.0898 -0.9894 -0.1139
vn 0.7413 -0.0745 -0.6670
vn -0.6680 0.0515 -0.7424
vn 0.6673 -0.0679 0.7417
vn -0.7421 0.0582 0.6677
vn -0.8041 0.1583 0.5730
vn 0.5450 -0.1828 0.8183
vn -0.5494 0.1648 -0.8191
vn 0.8007 -0.1774 -0.5722
vn 0.7006 0.6837 0.2042
vn -0.4412 0.8777 0.1868
vn -0.1024 0.7733 -0.6258
vn 0.7031 0.6558 -0.2748
vn 0.3643 0.7603 0.5378
vn -0.1086 0.8407 0.5306
vn -0.4387 0.8498 -0.2922
vn 0.3705 0.6929 -0.6185
vn 0.3221 0.9226 -0.2121
vn 0.3200 0.9414 0.1065
vn 0.0052 0.9947 0.1023
vn 0.0065 0.9760 -0.2175
vn 0.6550 0.7114 -0.2548
vn 0.3492 0.8056 0.4785
vn -0.3778 0.9117 0.1617
vn -0.0720 0.8174 -0.5716
vn 0.3548 0.7448 -0.5651
vn 0.6527 0.7365 0.1774
vn -0.0776 0.8782 0.4720
vn -0.3755 0.8865 -0.2705
vn -0.3520 -0.7981 -0.4890
vn 0.0830 -0.8721 -0.4823
vn 0.3866 -0.8805 0.2744
vn -0.3577 -0.7362 0.5746
vn -0.6613 -0.7277 -0.1821
vn 0.3889 -0.9062 -0.1661
vn 0.0773 -0.8101 0.5812
vn -0.6636 -0.7020 0.2584
vn 0.0845 -0.9947 -0.0579
vn -0.0484 -0.9512 0.3046
vn -0.4077 -0.8978 0.1665
vn -0.2748 -0.9413 -0.1961
vn -0.0505 -0.9762 -0.2108
vn 0.1017 -0.9805 0.1685
vn -0.2714 -0.9081 0.3189
vn -0.4235 -0.9039 -0.0604
vn 0.7370 -0.1996 -0.6457
vn -0.6551 0.0115 -0.7555
vn 0.6526 -0.0291 0.7572
vn -0.7408 0.1820 0.6466
vn 0.0264 -0.0684 -0.9973
vn -0.9882 -0.1479 -0.0386
vn 0.9914 0.1247 0.0408
vn -0.9270 0.3142 0.2047
vn 0.1645 0.4220 -0.8916
vn 0.5300 0.8301 0.1735
vn -0.5301 0.5674 0.6301
vn -0.8955 0.1652 -0.4133
vn -0.4465 0.2079 -0.8703
vn 0.5721 0.6815 -0.4564
vn 0.0703 0.7809 0.6206
vn -0.3467 0.9379 0.0155
vn -0.5576 0.8029 -0.2109
vn -0.3215 0.8329 -0.4505
vn -0.1090 0.9685 -0.2239
vn -0.5142 0.7914 0.3306
vn -0.7623 0.5230 -0.3812
vn -0.0532 0.7124 -0.6998
vn 0.1949 0.9808 0.0120
vn -0.1083 0.9417 0.3187
vn -0.7851 0.6180 0.0407
vn -0.4592 0.5621 -0.6879
vn 0.2177 0.8858 -0.4099
vn 0.8875 -0.2049 0.4128
vn 0.4512 -0.2463 0.8578
vn -0.5406 -0.7075 0.4552
vn -0.0517 -0.8037 -0.5928
vn 0.9177 -0.3498 -0.1880
vn -0.1436 -0.4547 0.8790
vn -0.4993 -0.8519 -0.1581
vn 0.5320 -0.5959 -0.6015
vn 0.2203 -0.8453 0.4868
vn 0.0742 -0.9895 0.1239
vn 0.4373 -0.8974 -0.0589
vn 0.5834 -0.7532 0.3039
vn 0.4234 -0.7624 0.4894
vn 0.0515 -0.9403 0.3366
vn 0.2306 -0.9710 -0.0638
vn 0.6026 -0.7931 0.0890
vn -0.0210 0.0448 0.9988
vn -0.8048 -0.0327 0.5927
vn 0.5793 -0.2506 0.7756
vn -0.5817 0.2326 -0.7794
vn 0.8036 0.0134 -0.5951
vn 0.6221 0.7174 0.3137
vn -0.5345 0.7778 0.3307
vn -0.2031 0.8486 -0.4885
vn 0.6178 0.7692 -0.1633
vn 0.2864 0.6984 0.6559
vn -0.1927 0.7234 0.6630
vn -0.5388 0.8296 -0.1463
vn 0.2760 0.8236 -0.4955
vn 0.2102 0.9760 -0.0565
vn 0.2126 0.9417 0.2607
vn -0.1062 0.9581 0.2660
vn -0.1096 0.9926 -0.0524
vn 0.5640 0.8148 -0.1343
vn 0.2649 0.7508 0.6050
vn -0.4759 0.8225 0.3115
vn -0.1768 0.8864 -0.4278
vn 0.2555 0.8638 -0.4342
vn 0.5679 0.7680 0.2961
vn -0.1674 0.7734 0.6114
vn -0.4798 0.8693 -0.1190
vn -0.2688 -0.7421 -0.6141
vn 0.1719 -0.7651 -0.6206
vn 0.4902 -0.8628 0.1237
vn -0.2592 -0.8572 0.4450
vn -0.5775 -0.7595 -0.2993
vn 0.4863 -0.8151 -0.3150
vn 0.1815 -0.8802 0.4385
vn -0.5736 -0.8072 0.1394
vn 0.1963 -0.9550 -0.2224
vn 0.0669 -0.9875 0.1426
vn -0.2990 -0.9541 0.0158
vn -0.1696 -0.9216 -0.3492
vn 0.0569 -0.9273 -0.3699
vn 0.2164 -0.9763 0.0031
vn -0.1592 -0.9735 0.1642
vn -0.3187 -0.9245 -0.2089
vn 0.7413 -0.0036 -0.6712
vn -0.6678 0.0596 -0.7419
vn 0.6674 -0.0775 0.7407
vn -0.7430 -0.0142 0.6691
s off
f 45/1/1 41/2/1 40/3/1 44/4/1
f 42/5/2 6/6/2 41/2/2 45/1/2
f 44/4/3 40/3/3 5/7/3 43/8/3
f 43/8/4 5/7/4 6/9/4 42/10/4
f 9/11/5 17/12/5 16/13/5 8/14/5
f 14/15/6 22/16/6 21/17/6 13/18/6
f 12/19/7 20/20/7 19/21/7 11/22/7
f 10/23/8 18/24/8 17/12/8 9/11/8
f 8/14/9 16/13/9 15/25/9 7/26/9
f 7/26/10 15/25/10 22/16/10 14/15/10
f 13/18/11 21/17/11 20/20/11 12/19/11
f 11/22/12 19/21/12 18/24/12 10/23/12
f 17/12/13 18/24/13 19/21/13 23/27/13
f 16/13/14 17/12/14 23/27/14 15/25/14
f 15/25/15 23/27/15 21/17/15 22/16/15
f 23/27/16 19/21/16 20/20/16 21/17/16
f 14/15/17 13/18/17 30/28/17 31/29/17
f 12/19/18 11/22/18 28/30/18 29/31/18
f 10/23/19 9/11/19 26/32/19 27/33/19
f 8/14/20 7/26/20 24/34/20 25/35/20
f 7/26/21 14/15/21 31/29/21 24/34/21
f 13/18/22 12/19/22 29/31/22 30/28/22
f 11/22/23 10/23/23 27/33/23 28/30/23
f 9/11/24 8/14/24 25/35/24 26/32/24
f 25/36/25 24/37/25 32/38/25 33/39/25
f 24/37/26 31/40/26 39/41/26 32/38/26
f 30/42/27 29/43/27 37/44/27 38/45/27
f 28/46/28 27/47/28 35/48/28 36/49/28
f 26/50/29 25/36/29 33/39/29 34/51/29
f 31/40/30 30/42/30 38/45/30 39/41/30
f 29/43/31 28/46/31 36/49/31 37/44/31
f 27/47/32 26/50/32 34/51/32 35/48/32
f 39/41/33 38/45/33 6/52/33 5/53/33
f 37/44/34 36/49/34 41/54/34 6/52/34
f 35/48/35 34/51/35 40/55/35 41/54/35
f 33/39/36 32/38/36 5/53/36 40/55/36
f 32/38/37 39/41/37 5/53/37
f 38/45/38 37/44/38 6/52/38
f 36/49/39 35/48/39 41/54/39
f 34/51/40 33/39/40 40/55/40
f 1/56/41 43/8/41 42/10/41 4/57/41
f 2/58/42 44/4/42 43/8/42 1/56/42
f 4/59/43 42/5/43 45/1/43 3/60/43
f 3/60/44 45/1/44 44/4/44 2/58/44
f 90/61/45 86/62/45 85/63/45 89/64/45
f 87/65/46 51/66/46 86/62/46 90/61/46
f 89/64/47 85/63/47 50/67/47 88/68/47
f 88/68/48 50/67/48 51/69/48 87/70/48
f 54/71/49 62/72/49 61/73/49 53/74/49
f 59/75/50 67/76/50 66/77/50 58/78/50
f 57/79/51 65/80/51 64/81/51 56/82/51
f 55/83/52 63/84/52 62/72/52 54/71/52
f 53/74/53 61/73/53 60/85/53 52/86/53
f 52/86/54 60/85/54 67/76/54 59/75/54
f 58/78/55 66/77/55 65/80/55 57/79/55
f 56/82/56 64/81/56 63/84/56 55/83/56
f 62/72/57 63/84/57 64/81/57 68/87/57
f 61/73/58 62/72/58 68/87/58 60/85/58
f 60/85/59 68/87/59 66/77/59 67/76/59
f 68/87/60 64/81/60 65/80/60 66/77/60
f 59/75/61 58/78/61 75/88/61 76/89/61
f 57/79/62 56/82/62 73/90/62 74/91/62
f 55/83/63 54/71/63 71/92/63 72/93/63
f 53/74/64 52/86/64 69/94/64 70/95/64
f 52/86/65 59/75/65 76/89/65 69/94/65
f 58/78/66 57/79/66 74/91/66 75/88/66
f 56/82/67 55/83/67 72/93/67 73/90/67
f 54/71/68 53/74/68 70/95/68 71/92/68
f 70/96/69 69/97/69 77/98/69 78/99/69
f 69/97/70 76/100/70 84/101/70 77/98/70
f 75/102/71 74/103/71 82/104/71 83/105/71
f 73/106/72 72/107/72 80/108/72 81/109/72
f 71/110/73 70/96/73 78/99/73 79/111/73
f 76/100/74 75/102/74 83/105/74 84/101/74
f 74/103/75 73/106/75 81/109/75 82/104/75
f 72/107/76 71/110/76 79/111/76 80/108/76
f 84/101/77 83/105/77 51/112/77 50/113/77
f 82/104/78 81/109/78 86/114/78 51/112/78
f 80/108/79 79/111/79 85/115/79 86/114/79
f 78/99/80 77/98/80 50/113/80 85/115/80
f 77/98/81 84/101/81 50/113/81
f 83/105/82 82/104/82 51/112/82
f 81/109/83 80/108/83 86/114/83
f 79/111/84 78/99/84 85/115/84
f 46/116/85 88/68/85 87/70/85 49/117/85
f 47/118/86 89/64/86 88/68/86 46/116/86
f 49/119/87 87/65/87 90/61/87 48/120/87
f 48/120/88 90/61/88 89/64/88 47/118/88
f 93/121/89 131/122/89 130/123/89 92/124/89
f 94/125/90 96/126/90 131/122/90 93/121/90
f 92/124/91 130/123/91 95/127/91 91/128/91
f 99/129/92 107/130/92 106/131/92 98/132/92
f 104/133/93 112/134/93 111/135/93 103/136/93
f 102/137/94 110/138/94 109/139/94 101/140/94
f 100/141/95 108/142/95 107/130/95 99/129/95
f 98/132/96 106/131/96 105/143/96 97/144/96
f 97/144/97 105/143/97 112/134/97 104/133/97
f 103/136/98 111/135/98 110/138/98 102/137/98
f 101/140/99 109/139/99 108/142/99 100/141/99
f 107/130/100 108/142/100 109/139/100 113/145/100
f 106/131/101 107/130/101 113/145/101 105/143/101
f 105/143/102 113/145/102 111/135/102 112/134/102
f 113/145/103 109/139/103 110/138/103 111/135/103
f 104/133/104 103/136/104 120/146/104 121/147/104
f 102/137/105 101/140/105 118/148/105 119/149/105
f 100/141/106 99/129/106 116/150/106 117/151/106
f 98/132/107 97/144/107 114/152/107 115/153/107
f 97/144/108 104/133/108 121/147/108 114/152/108
f 103/136/109 102/137/109 119/149/109 120/146/109
f 101/140/110 100/141/110 117/151/110 118/148/110
f 99/129/111 98/132/111 115/153/111 116/150/111
f 115/154/112 114/155/112 122/156/112 123/157/112
f 114/155/113 121/158/113 129/159/113 122/156/113
f 120/160/114 119/161/114 127/162/114 128/163/114
f 118/164/115 117/165/115 125/166/115 126/167/115
f 116/168/116 115/154/116 123/157/116 124/169/116
f 121/158/117 120/160/117 128/163/117 129/159/117
f 119/161/118 118/164/118 126/167/118 127/162/118
f 117/165/119 116/168/119 124/169/119 125/166/119
f 129/159/120 128/163/120 96/170/120 95/171/120
f 127/162/121 126/167/121 131/172/121 96/170/121
f 125/166/122 124/169/122 130/173/122 131/172/122
f 123/157/123 122/156/123 95/171/123 130/173/123
f 122/156/124 129/159/124 95/171/124
f 128/163/125 127/162/125 96/170/125
f 126/167/126 125/166/126 131/172/126
f 124/169/127 123/157/127 130/173/127
f 91/128/128 95/127/128 96/174/128 94/175/128
f 176/176/129 172/177/129 171/178/129 175/179/129
f 173/180/130 137/181/130 172/177/130 176/176/130
f 175/179/131 171/178/131 136/182/131 174/183/131
f 174/183/132 136/182/132 137/184/132 173/185/132
f 140/186/133 148/187/133 147/188/133 139/189/133
f 145/190/134 153/191/134 152/192/134 144/193/134
f 143/194/135 151/195/135 150/196/135 142/197/135
f 141/198/136 149/199/136 148/187/136 140/186/136
f 139/189/137 147/188/137 146/200/137 138/201/137
f 138/201/138 146/200/138 153/191/138 145/190/138
f 144/193/139 152/192/139 151/195/139 143/194/139
f 142/197/140 150/196/140 149/199/140 141/198/140
f 148/187/141 149/199/141 150/196/141 154/202/141
f 147/188/142 148/187/142 154/202/142 146/200/142
f 146/200/143 154/202/143 152/192/143 153/191/143
f 154/202/144 150/196/144 151/195/144 152/192/144
f 145/190/145 144/193/145 161/203/145 162/204/145
f 143/194/146 142/197/146 159/205/146 160/206/146
f 141/198/147 140/186/147 157/207/147 158/208/147
f 139/189/148 138/201/148 155/209/148 156/210/148
f 138/201/149 145/190/149 162/204/149 155/209/149
f 144/193/150 143/194/150 160/206/150 161/203/150
f 142/197/151 141/198/151 158/208/151 159/205/151
f 140/186/152 139/189/152 156/210/152 157/207/152
f 156/211/153 155/212/153 163/213/153 164/214/153
f 155/212/154 162/215/154 170/216/154 163/213/154
f 161/217/155 160/218/155 168/219/155 169/220/155
f 159/221/156 158/222/156 166/223/156 167/224/156
f 157/225/157 156/211/157 164/214/157 165/226/157
f 162/215/158 161/217/158 169/220/158 170/216/158
f 160/218/159 159/221/159 167/224/159 168/219/159
f 158/222/160 157/225/160 165/226/160 166/223/160
f 170/216/161 169/220/161 137/227/161 136/228/161
f 168/219/162 167/224/162 172/229/162 137/227/162
f 166/223/163 165/226/163 171/230/163 172/229/163
f 164/214/164 163/213/164 136/228/164 171/230/164
f 163/213/165 170/216/165 136/228/165
f 169/220/166 168/219/166 137/227/166
f 167/224/167 166/223/167 172/229/167
f 165/226/168 164/214/168 171/230/168
f 132/231/169 174/183/169 173/185/169 135/232/169
f 133/233/170 175/179/170 174/183/170 132/231/170
f 135/234/171 173/180/171 176/176/171 134/235/171
f 134/235/172 176/176/172 175/179/172 133/233/172
