# Blender v2.78 (sub 0) OBJ File: 'canvas 01.blend'
# www.blender.org
mtllib canvas 01.mtl
o Cube
v 0.945346 -0.956293 -0.075550
v 0.945346 -0.956293 0.042817
v -0.813269 -0.956293 0.042817
v -0.813269 -0.956293 -0.075550
v 0.945346 1.043707 -0.075550
v 0.945345 1.043707 0.042818
v -0.813269 1.043707 0.042817
v -0.813269 1.043707 -0.075550
v -0.813269 -0.956293 0.042817
v -0.813269 1.043707 0.042817
v 0.945346 -0.956293 0.042817
v 0.945345 1.043707 0.042818
vt 0.7558 0.7249
vt 0.7558 0.7024
vt 0.4213 0.7024
vt 0.4213 0.7249
vt 0.7558 0.7249
vt 0.4213 0.7249
vt 0.4213 0.7024
vt 0.7558 0.7024
vt 0.6005 0.5612
vt 0.6005 0.9295
vt 0.5787 0.9295
vt 0.5787 0.5612
vt 0.5787 0.5612
vt 0.5787 0.9295
vt 0.6005 0.9295
vt 0.6005 0.5612
vt 0.7544 0.9248
vt 0.7544 0.5643
vt 0.4227 0.5643
vt 0.4227 0.9255
vt 0.3725 0.5974
vt 0.3820 0.9778
vt 0.0047 0.9914
vt 0.0167 0.5985
vt 0.3725 0.5974
vt 0.3820 0.9778
vt 0.0047 0.9914
vt 0.0167 0.5985
vt 0.3725 0.5974
vt 0.3820 0.9778
vt 0.0047 0.9914
vt 0.0167 0.5985
vt 0.3725 0.5974
vt 0.3820 0.9778
vt 0.0047 0.9914
vt 0.0167 0.5985
vt 0.3725 0.5974
vt 0.3820 0.9778
vn 0.0000 -1.0000 -0.0000
vn 0.0000 1.0000 -0.0000
vn 1.0000 -0.0000 0.0000
vn -1.0000 -0.0000 -0.0000
vn 0.0000 -0.0000 -1.0000
vn 0.0000 0.0000 1.0000
usemtl Material.001
s off
f 1/1/1 2/2/1 3/3/1 4/4/1
f 5/5/2 8/6/2 7/7/2 6/8/2
f 1/9/3 5/10/3 6/11/3 2/12/3
f 3/13/4 7/14/4 8/15/4 4/16/4
f 5/17/5 1/18/5 4/19/5 8/20/5
f 7/21/6 3/22/6 9/23/6 10/24/6
f 2/25/6 6/26/6 12/27/6 11/28/6
f 6/29/6 7/30/6 10/31/6 12/32/6
f 3/33/6 2/34/6 11/35/6 9/36/6
f 11/37/6 12/38/6 10/31/6 9/36/6
