# Blender v2.78 (sub 0) OBJ File: 'Low_Poly_Vegetation_Pack.blend'
# www.blender.org
g Flower_e_TwoS_01
v 0.007607 0.179726 0.007419
v 0.071656 0.232043 0.023757
v 0.066682 0.230350 0.039878
v 0.056225 0.203267 -0.003900
v 0.040165 0.197801 0.048153
v 0.036424 0.233039 0.069159
v 0.020021 0.234559 0.073175
v 0.047449 0.207842 0.043941
v -0.006325 0.206419 0.055993
v -0.020004 0.240252 0.061425
v -0.031433 0.243465 0.049319
v 0.001319 0.203733 0.058069
v -0.035586 0.214106 0.018982
v -0.040837 0.249301 0.008697
v -0.035641 0.252731 -0.007174
v -0.033963 0.211239 0.026694
v -0.017904 0.216706 -0.025359
v -0.004944 0.253473 -0.035959
v 0.011459 0.251953 -0.039975
v -0.023552 0.219439 -0.019301
v 0.029412 0.214532 -0.032267
v 0.051167 0.243788 -0.028582
v 0.062597 0.240575 -0.016476
v 0.021374 0.214135 -0.034789
v 0.058278 0.203762 0.004298
v 0.007585 0.179529 0.007390
v 0.071813 0.231925 0.023793
v 0.066839 0.230232 0.039914
v 0.056352 0.203115 -0.003877
v 0.040293 0.197648 0.048176
v 0.036458 0.232911 0.069309
v 0.020055 0.234430 0.073325
v 0.047480 0.207692 0.044070
v -0.006294 0.206266 0.056118
v -0.020144 0.240160 0.061533
v -0.031574 0.243373 0.049428
v 0.001191 0.203606 0.058156
v -0.035714 0.213980 0.019069
v -0.041017 0.249241 0.008632
v -0.035821 0.252672 -0.007238
v -0.034124 0.211138 0.026633
v -0.018065 0.216605 -0.025421
v -0.004995 0.253411 -0.036143
v 0.011408 0.251891 -0.040158
v -0.023602 0.219340 -0.019468
v 0.029362 0.214433 -0.032434
v 0.051285 0.243698 -0.028717
v 0.062714 0.240485 -0.016611
v 0.021469 0.214010 -0.034912
v 0.058373 0.203637 0.004175
v -0.002589 0.000000 -0.005589
v 0.007550 0.192756 0.005046
v 0.006135 0.000000 0.000552
v 0.013562 0.190723 0.010268
v -0.003546 0.000000 0.005037
v 0.008808 0.190891 0.011707
v -0.000751 0.107146 -0.002446
v 0.007814 0.106351 0.003617
v -0.001847 0.106639 0.008092
v 0.023517 0.189234 0.017442
v 0.022314 0.192129 -0.001524
v 0.003841 0.195128 -0.005916
v -0.006374 0.194087 0.010337
v 0.005787 0.190444 0.024773
vt 0.6451 0.3158
vt 0.7258 0.3158
vt 0.7010 0.3624
vt 0.6698 0.3624
vt 0.6854 0.2580
vt 0.6451 0.3158
vt 0.7258 0.3158
vt 0.7010 0.3624
vt 0.6698 0.3624
vt 0.6854 0.2575
vt 0.6451 0.3158
vt 0.7258 0.3158
vt 0.7010 0.3624
vt 0.6698 0.3624
vt 0.6854 0.2577
vt 0.6451 0.3158
vt 0.7258 0.3154
vt 0.7014 0.3623
vt 0.6701 0.3623
vt 0.6852 0.2577
vt 0.6451 0.3157
vt 0.7258 0.3157
vt 0.7010 0.3624
vt 0.6698 0.3624
vt 0.6451 0.3158
vt 0.7258 0.3158
vt 0.7010 0.3624
vt 0.6698 0.3624
vt 0.6854 0.2578
vt 0.6451 0.3158
vt 0.6698 0.3624
vt 0.7010 0.3624
vt 0.7258 0.3158
vt 0.6854 0.2580
vt 0.6451 0.3158
vt 0.6698 0.3624
vt 0.7010 0.3624
vt 0.7258 0.3158
vt 0.6854 0.2575
vt 0.6451 0.3158
vt 0.6698 0.3624
vt 0.7010 0.3624
vt 0.7258 0.3158
vt 0.6854 0.2577
vt 0.6451 0.3158
vt 0.6701 0.3623
vt 0.7014 0.3623
vt 0.7258 0.3154
vt 0.6852 0.2577
vt 0.6451 0.3157
vt 0.6698 0.3624
vt 0.7010 0.3624
vt 0.7258 0.3157
vt 0.6451 0.3158
vt 0.6698 0.3624
vt 0.7010 0.3624
vt 0.7258 0.3158
vt 0.6854 0.2578
vt 0.8155 0.6872
vt 0.8155 0.7316
vt 0.8104 0.7316
vt 0.8104 0.6872
vt 0.8053 0.7316
vt 0.8053 0.6872
vt 0.8207 0.6872
vt 0.8207 0.7316
vt 0.8207 0.6427
vt 0.8155 0.6427
vt 0.8104 0.6427
vt 0.8053 0.6427
vt 0.3143 0.3613
vt 0.3430 0.2729
vt 0.3607 0.3275
vt 0.2678 0.3275
vt 0.2856 0.2729
vn -0.7846 0.5934 -0.1797
vn -0.4435 0.8953 -0.0428
vn -0.1701 0.6427 -0.7470
vn -0.1361 0.8512 -0.5068
vn 0.7032 0.4604 -0.5418
vn 0.5422 0.7834 -0.3040
vn 0.8992 0.2979 0.3204
vn 0.6587 0.6997 0.2767
vn 0.2531 0.3102 0.9164
vn 0.2354 0.6629 0.7107
vn -0.5872 0.4490 0.6735
vn -0.3378 0.7805 0.5261
vn 0.7845 -0.5936 0.1797
vn 0.4430 -0.8955 0.0426
vn 0.1701 -0.6428 0.7469
vn 0.1360 -0.8517 0.5061
vn -0.7032 -0.4605 0.5417
vn -0.5418 -0.7838 0.3035
vn -0.8992 -0.2980 -0.3204
vn -0.6582 -0.7002 -0.2766
vn -0.2531 -0.3103 -0.9163
vn -0.2353 -0.6635 -0.7102
vn 0.5871 -0.4491 -0.6735
vn 0.3374 -0.7809 -0.5258
vn 0.6139 0.0149 -0.7893
vn 0.3754 -0.0927 0.9222
vn -0.9937 0.1093 0.0244
vn -0.9952 0.0193 -0.0961
vn 0.4197 -0.0327 0.9071
vn 0.5771 0.0142 -0.8166
vn 0.1257 0.9819 0.1419
s off
f 4/1/1 5/2/1 3/3/1 2/4/1
f 1/5/2 5/2/2 4/1/2
f 8/6/3 9/7/3 7/8/3 6/9/3
f 1/10/4 9/7/4 8/6/4
f 12/11/5 13/12/5 11/13/5 10/14/5
f 1/15/6 13/12/6 12/11/6
f 16/16/7 17/17/7 15/18/7 14/19/7
f 1/20/8 17/17/8 16/16/8
f 20/21/9 21/22/9 19/23/9 18/24/9
f 1/10/10 21/22/10 20/21/10
f 24/25/11 25/26/11 23/27/11 22/28/11
f 1/29/12 25/26/12 24/25/12
f 29/30/13 27/31/13 28/32/13 30/33/13
f 26/34/14 29/30/14 30/33/14
f 33/35/15 31/36/15 32/37/15 34/38/15
f 26/39/16 33/35/16 34/38/16
f 37/40/17 35/41/17 36/42/17 38/43/17
f 26/44/18 37/40/18 38/43/18
f 41/45/19 39/46/19 40/47/19 42/48/19
f 26/49/20 41/45/20 42/48/20
f 45/50/21 43/51/21 44/52/21 46/53/21
f 26/39/22 45/50/22 46/53/22
f 49/54/23 47/55/23 48/56/23 50/57/23
f 26/58/24 49/54/24 50/57/24
f 57/59/25 52/60/25 54/61/25 58/62/25
f 58/62/26 54/61/26 56/63/26 59/64/26
f 59/65/27 56/66/27 52/60/27 57/59/27
f 55/67/28 59/65/28 57/59/28 51/68/28
f 53/69/29 58/62/29 59/64/29 55/70/29
f 51/68/30 57/59/30 58/62/30 53/69/30
f 60/71/31 63/72/31 64/73/31
f 61/74/31 62/75/31 63/72/31 60/71/31
