# Blender v2.78 (sub 0) OBJ File: 'Low_Poly_Vegetation_Pack.blend'
# www.blender.org
g Flower_f_TwoS_01
v -0.003638 0.000000 -0.007849
v -0.030975 0.408821 -0.002574
v 0.008614 0.000000 0.000777
v -0.026078 0.407165 0.001679
v -0.004982 0.000000 0.007075
v -0.031824 0.407368 0.003418
v -0.008825 0.225153 0.000711
v 0.000821 0.223844 0.007810
v -0.009491 0.224159 0.012373
v -0.114484 0.503362 0.046670
v -0.098608 0.511759 -0.029904
v -0.088654 0.451944 0.048047
v -0.080219 0.457423 -0.030858
v -0.126256 0.530110 0.006100
v -0.097759 0.450939 0.003598
v -0.028053 0.402445 -0.000004
v -0.112058 0.502600 -0.023364
v -0.037078 0.531229 -0.047206
v -0.090684 0.450724 -0.024498
v -0.012689 0.479692 -0.038899
v -0.086072 0.541919 -0.055794
v -0.056283 0.464279 -0.049651
v -0.027991 0.402470 -0.000058
v -0.045967 0.544810 -0.046835
v -0.043611 0.546122 0.040493
v -0.017004 0.482776 -0.039168
v -0.019062 0.484268 0.037912
v -0.032449 0.580356 -0.006617
v 0.005598 0.492630 -0.003901
v -0.027925 0.402461 0.000008
v -0.023742 0.539724 0.046868
v -0.107321 0.514134 0.034936
v -0.008004 0.482658 0.037458
v -0.090331 0.456840 0.039130
v -0.073489 0.554689 0.058763
v -0.047561 0.471055 0.052293
v -0.027997 0.402451 0.000065
v -0.114677 0.503282 0.046693
v -0.098783 0.511700 -0.030006
v -0.088821 0.451818 0.048073
v -0.080370 0.457314 -0.030957
v -0.126449 0.530037 0.006059
v -0.097926 0.450815 0.003562
v -0.028173 0.402274 -0.000032
v -0.112173 0.502548 -0.023532
v -0.037035 0.531224 -0.047412
v -0.090774 0.450628 -0.024663
v -0.012628 0.479642 -0.039095
v -0.086113 0.541888 -0.055998
v -0.056298 0.464201 -0.049846
v -0.027977 0.402343 -0.000225
v -0.045805 0.544875 -0.046951
v -0.043442 0.546193 0.040595
v -0.016826 0.482778 -0.039280
v -0.018879 0.484278 0.038016
v -0.032254 0.580436 -0.006625
v 0.005808 0.492642 -0.003906
v -0.027727 0.402388 0.000015
v -0.023681 0.539719 0.047070
v -0.107396 0.514108 0.035131
v -0.007928 0.482609 0.037649
v -0.090379 0.456765 0.039321
v -0.073499 0.554672 0.058972
v -0.047545 0.470988 0.052493
v -0.027957 0.402333 0.000234
v -0.030266 0.405917 -0.001854
v -0.032419 0.406953 0.001402
v -0.028432 0.406387 0.001714
v -0.032119 0.459810 -0.014993
v -0.034528 0.460969 -0.011351
v -0.030068 0.460336 -0.011002
v -0.030339 0.408036 -0.003553
v -0.032996 0.406524 0.001169
v -0.027839 0.408755 0.001434
v -0.073881 0.471847 -0.000629
v -0.076853 0.470156 0.004653
v -0.071084 0.472651 0.004950
vt 0.0773 0.6992
vt 0.0772 0.7316
vt 0.0722 0.7316
vt 0.0722 0.6992
vt 0.0670 0.7316
vt 0.0670 0.6992
vt 0.0824 0.6992
vt 0.0824 0.7316
vt 0.0824 0.6427
vt 0.0773 0.6427
vt 0.0722 0.6427
vt 0.0670 0.6427
vt 0.8168 0.3097
vt 0.8190 0.2551
vt 0.8418 0.3085
vt 0.8390 0.3469
vt 0.8149 0.3646
vt 0.7877 0.3063
vt 0.7877 0.3445
vt 0.8182 0.3114
vt 0.8195 0.2577
vt 0.8486 0.3086
vt 0.8461 0.3470
vt 0.8169 0.3655
vt 0.7936 0.3079
vt 0.7890 0.3453
vt 0.8186 0.3134
vt 0.8193 0.2566
vt 0.8440 0.3105
vt 0.8475 0.3493
vt 0.8177 0.3684
vt 0.7968 0.3102
vt 0.7913 0.3498
vt 0.8182 0.3114
vt 0.8190 0.2551
vt 0.8480 0.3076
vt 0.8480 0.3484
vt 0.8175 0.3683
vt 0.7905 0.3072
vt 0.7879 0.3473
vt 0.8168 0.3097
vt 0.8418 0.3085
vt 0.8190 0.2551
vt 0.8149 0.3646
vt 0.8390 0.3469
vt 0.7877 0.3063
vt 0.7877 0.3445
vt 0.8182 0.3114
vt 0.8486 0.3086
vt 0.8195 0.2577
vt 0.8169 0.3655
vt 0.8461 0.3470
vt 0.7936 0.3079
vt 0.7890 0.3453
vt 0.8186 0.3134
vt 0.8440 0.3105
vt 0.8193 0.2566
vt 0.8177 0.3684
vt 0.8475 0.3493
vt 0.7968 0.3102
vt 0.7913 0.3498
vt 0.8182 0.3114
vt 0.8480 0.3076
vt 0.8190 0.2551
vt 0.8175 0.3683
vt 0.8480 0.3484
vt 0.7905 0.3072
vt 0.7879 0.3473
vt 0.3155 0.2739
vt 0.3155 0.3464
vt 0.3098 0.3468
vt 0.3104 0.2732
vt 0.3043 0.3478
vt 0.3054 0.2741
vt 0.3155 0.2732
vt 0.3206 0.2762
vt 0.3155 0.2791
vt 0.3054 0.2741
vt 0.3043 0.3478
vt 0.2990 0.3463
vt 0.3001 0.2738
vt 0.2990 0.3463
vt 0.3001 0.2738
vt 0.3155 0.2739
vt 0.3155 0.3464
vt 0.3098 0.3468
vt 0.3104 0.2732
vt 0.3155 0.2732
vt 0.3206 0.2762
vt 0.3155 0.2791
vn 0.6221 0.0631 -0.7804
vn 0.3663 0.0873 0.9264
vn -0.9872 -0.1231 -0.1018
vn -0.9969 -0.0192 -0.0761
vn 0.4134 -0.0137 0.9104
vn 0.5845 0.0450 -0.8102
vn 0.5348 0.7382 0.4112
vn 0.8291 0.2786 0.4848
vn 0.5613 0.8168 -0.1335
vn 0.9174 0.3826 -0.1094
vn -0.3654 0.4750 0.8005
vn -0.2055 0.0232 0.9784
vn 0.2455 0.6725 0.6982
vn 0.5467 0.2469 0.8001
vn -0.8475 0.2960 -0.4406
vn -0.8059 -0.3377 -0.4864
vn -0.8341 0.3293 0.4426
vn -0.7731 -0.3074 0.5548
vn 0.0395 0.6124 -0.7896
vn 0.3582 0.1240 -0.9254
vn -0.4273 0.4673 -0.7739
vn -0.2858 0.0235 -0.9580
vn -0.5349 -0.7382 -0.4110
vn -0.8292 -0.2788 -0.4845
vn -0.5615 -0.8167 0.1333
vn -0.9174 -0.3827 0.1092
vn 0.3651 -0.4751 -0.8006
vn 0.2052 -0.0234 -0.9784
vn -0.2453 -0.6725 -0.6983
vn -0.5464 -0.2469 -0.8003
vn 0.8478 -0.2959 0.4402
vn 0.8062 0.3377 0.4858
vn 0.8344 -0.3292 -0.4421
vn 0.7735 0.3075 -0.5543
vn -0.0395 -0.6123 0.7896
vn -0.3579 -0.1241 0.9255
vn 0.4271 -0.4673 0.7741
vn 0.2856 -0.0236 0.9580
vn 0.8908 -0.0785 -0.4475
vn -0.0437 0.2279 0.9727
vn 0.1533 0.9665 -0.2061
vn -0.7051 -0.4563 -0.5427
vn -0.8460 -0.1536 -0.5106
vn 0.7315 0.5194 -0.4417
vn -0.0213 -0.0693 0.9974
vn -0.3990 0.9144 0.0681
s off
f 7/1/1 2/2/1 4/3/1 8/4/1
f 8/4/2 4/3/2 6/5/2 9/6/2
f 9/7/3 6/8/3 2/2/3 7/1/3
f 5/9/4 9/7/4 7/1/4 1/10/4
f 3/11/5 8/4/5 9/6/5 5/12/5
f 1/10/6 7/1/6 8/4/6 3/11/6
f 15/13/7 16/14/7 13/15/7
f 15/13/8 13/15/8 11/16/8 14/17/8
f 12/18/9 16/14/9 15/13/9
f 12/18/10 15/13/10 14/17/10 10/19/10
f 22/20/11 23/21/11 20/22/11
f 22/20/12 20/22/12 18/23/12 21/24/12
f 19/25/13 23/21/13 22/20/13
f 19/25/14 22/20/14 21/24/14 17/26/14
f 29/27/15 30/28/15 27/29/15
f 29/27/16 27/29/16 25/30/16 28/31/16
f 26/32/17 30/28/17 29/27/17
f 26/32/18 29/27/18 28/31/18 24/33/18
f 36/34/19 37/35/19 34/36/19
f 36/34/20 34/36/20 32/37/20 35/38/20
f 33/39/21 37/35/21 36/34/21
f 33/39/22 36/34/22 35/38/22 31/40/22
f 43/41/23 41/42/23 44/43/23
f 43/41/24 42/44/24 39/45/24 41/42/24
f 40/46/25 43/41/25 44/43/25
f 40/46/26 38/47/26 42/44/26 43/41/26
f 50/48/27 48/49/27 51/50/27
f 50/48/28 49/51/28 46/52/28 48/49/28
f 47/53/29 50/48/29 51/50/29
f 47/53/30 45/54/30 49/51/30 50/48/30
f 57/55/31 55/56/31 58/57/31
f 57/55/32 56/58/32 53/59/32 55/56/32
f 54/60/33 57/55/33 58/57/33
f 54/60/34 52/61/34 56/58/34 57/55/34
f 64/62/35 62/63/35 65/64/35
f 64/62/36 63/65/36 60/66/36 62/63/36
f 61/67/37 64/62/37 65/64/37
f 61/67/38 59/68/38 63/65/38 64/62/38
f 66/69/39 69/70/39 71/71/39 68/72/39
f 68/72/40 71/71/40 70/73/40 67/74/40
f 70/75/41 71/76/41 69/77/41
f 73/78/42 76/79/42 75/80/42 72/81/42
f 67/74/43 70/73/43 69/82/43 66/83/43
f 72/84/44 75/85/44 77/86/44 74/87/44
f 74/87/45 77/86/45 76/79/45 73/78/45
f 76/88/46 77/89/46 75/90/46
