# Blender v2.78 (sub 0) OBJ File: 'Low_Poly_Vegetation_Pack.blend'
# www.blender.org
g Flower_b_TwoS_09
v 0.008557 0.369509 0.034973
v -0.171901 0.397660 -0.043673
v -0.090949 0.392733 0.034923
v -0.061044 0.411379 -0.027021
v -0.155210 0.326344 0.139185
v -0.047722 0.354461 0.118920
v -0.088087 0.380505 0.066276
v 0.021339 0.272976 0.208354
v 0.052819 0.337911 0.121479
v -0.017451 0.345310 0.130779
v 0.181196 0.290923 0.094663
v 0.110133 0.359634 0.040041
v 0.080228 0.340989 0.101985
v 0.164504 0.362238 -0.088196
v 0.066906 0.397907 -0.043957
v 0.107271 0.371862 0.008687
v -0.012045 0.415607 -0.157364
v -0.033636 0.414456 -0.046515
v 0.036634 0.407057 -0.055815
v 0.083189 0.188324 0.168060
v -0.033806 0.171239 0.164916
v 0.039290 0.166823 0.259967
v 0.009511 0.162475 0.259167
v 0.018109 0.161115 0.304478
v 0.077507 0.195764 0.089088
v -0.026341 0.180599 0.086297
v 0.026093 0.170529 0.164641
v 0.025286 0.162924 0.235979
v 0.027211 0.181070 0.065753
v -0.136647 0.359844 0.022787
v -0.076686 0.360087 -0.114437
v -0.193101 0.440498 -0.061574
v -0.175461 0.440094 -0.099776
v -0.223469 0.490289 -0.087718
v -0.060255 0.300795 0.046880
v -0.007031 0.301011 -0.074923
v -0.113920 0.350850 -0.049011
v -0.171537 0.416456 -0.074071
v -0.017426 0.277574 -0.006976
v 0.008528 0.369324 0.034903
v -0.171871 0.397467 -0.043717
v -0.090955 0.392542 0.034863
v -0.061050 0.411188 -0.027081
v -0.155185 0.326175 0.139082
v -0.047730 0.354279 0.118836
v -0.088094 0.380324 0.066192
v 0.021306 0.272823 0.208228
v 0.052788 0.337737 0.121386
v -0.017481 0.345136 0.130686
v 0.181111 0.290765 0.094574
v 0.110081 0.359457 0.039963
v 0.080176 0.340812 0.101907
v 0.164425 0.362057 -0.088225
v 0.066857 0.397721 -0.044011
v 0.107221 0.371676 0.008633
v -0.012067 0.415408 -0.157370
v -0.033662 0.414263 -0.046560
v 0.036607 0.406864 -0.055860
v 0.083252 0.188135 0.168041
v -0.033811 0.171040 0.164895
v 0.039346 0.166632 0.259962
v 0.009507 0.162275 0.259157
v 0.018137 0.160917 0.304476
v 0.077569 0.195575 0.089067
v -0.026346 0.180400 0.086274
v 0.026122 0.170332 0.164621
v 0.025315 0.162726 0.235964
v 0.027240 0.180874 0.065731
v -0.136778 0.359694 0.022765
v -0.076790 0.359937 -0.114518
v -0.193254 0.440375 -0.061612
v -0.175594 0.439972 -0.099863
v -0.223618 0.490173 -0.087784
v -0.060371 0.300634 0.046861
v -0.007124 0.300850 -0.074996
v -0.114041 0.350700 -0.049064
v -0.171675 0.416324 -0.074132
v -0.017532 0.277411 -0.007023
v 0.005622 0.389044 -0.002762
v -0.031612 0.382631 0.029659
v -0.012431 0.363891 0.071605
v 0.036658 0.358722 0.065109
v 0.047815 0.374267 0.019147
v -0.006979 0.000000 0.005140
v -0.030302 0.286368 -0.011598
v -0.000793 0.000000 -0.008999
v -0.026712 0.287772 -0.020070
v 0.008359 0.000000 0.003427
v -0.019080 0.279676 -0.011611
v 0.002455 0.150452 0.008795
v 0.007262 0.149077 -0.001093
v 0.014074 0.143827 0.008156
v 0.010965 0.164910 0.001604
v 0.022118 0.178841 0.079511
v 0.027737 0.179186 0.079710
v 0.025037 0.179595 0.071375
v 0.012123 0.160302 0.012032
v 0.004572 0.377331 0.036150
v 0.009925 0.374185 0.031163
v 0.013469 0.371319 0.039361
vt 0.5801 0.4130
vt 0.5418 0.4130
vt 0.5609 0.3844
vt 0.5609 0.4815
vt 0.5801 0.4130
vt 0.5418 0.4130
vt 0.5609 0.4815
vt 0.5801 0.4130
vt 0.5418 0.4130
vt 0.5609 0.4815
vt 0.5801 0.4130
vt 0.5418 0.4130
vt 0.5609 0.4815
vt 0.5801 0.4130
vt 0.5418 0.4130
vt 0.5609 0.4815
vt 0.5801 0.4130
vt 0.5418 0.4130
vt 0.5609 0.4815
vt 0.0586 0.6795
vt 0.0809 0.6804
vt 0.0635 0.7150
vt 0.0580 0.7061
vt 0.0595 0.7318
vt 0.0362 0.6794
vt 0.0393 0.6498
vt 0.0594 0.6424
vt 0.0791 0.6507
vt 0.0521 0.7147
vt 0.0586 0.6795
vt 0.0809 0.6804
vt 0.0635 0.7150
vt 0.0580 0.7061
vt 0.0595 0.7318
vt 0.0362 0.6794
vt 0.0393 0.6498
vt 0.0594 0.6424
vt 0.0791 0.6507
vt 0.0521 0.7147
vt 0.5801 0.4130
vt 0.5609 0.3844
vt 0.5418 0.4130
vt 0.5609 0.4815
vt 0.5801 0.4130
vt 0.5418 0.4130
vt 0.5609 0.4815
vt 0.5801 0.4130
vt 0.5418 0.4130
vt 0.5609 0.4815
vt 0.5801 0.4130
vt 0.5418 0.4130
vt 0.5609 0.4815
vt 0.5801 0.4130
vt 0.5418 0.4130
vt 0.5609 0.4815
vt 0.5801 0.4130
vt 0.5418 0.4130
vt 0.5609 0.4815
vt 0.0586 0.6795
vt 0.0580 0.7061
vt 0.0635 0.7150
vt 0.0809 0.6804
vt 0.0595 0.7318
vt 0.0594 0.6424
vt 0.0393 0.6498
vt 0.0362 0.6794
vt 0.0791 0.6507
vt 0.0521 0.7147
vt 0.0586 0.6795
vt 0.0580 0.7061
vt 0.0635 0.7150
vt 0.0809 0.6804
vt 0.0595 0.7318
vt 0.0594 0.6424
vt 0.0393 0.6498
vt 0.0362 0.6794
vt 0.0791 0.6507
vt 0.0521 0.7147
vt 0.6461 0.4254
vt 0.6845 0.3974
vt 0.7230 0.4254
vt 0.7083 0.4706
vt 0.6608 0.4706
vt 0.6848 0.6776
vt 0.6679 0.7038
vt 0.6662 0.7031
vt 0.6825 0.6767
vt 0.6788 0.6793
vt 0.6800 0.6743
vt 0.7075 0.6664
vt 0.7069 0.6680
vt 0.6876 0.6803
vt 0.6857 0.6469
vt 0.6866 0.6724
vt 0.6830 0.6469
vt 0.6802 0.6470
vt 0.6774 0.6475
vt 0.6822 0.6859
vt 0.6841 0.7303
vt 0.6827 0.7295
vt 0.7073 0.6649
vt 0.6933 0.6834
vt 0.7089 0.6675
vt 0.6702 0.7034
vt 0.6657 0.7003
vt 0.6891 0.6850
vt 0.6874 0.7300
vt 0.6855 0.7295
vn 0.2106 0.9034 0.3736
vn -0.1519 0.9643 0.2169
vn 0.2043 0.9306 0.3038
vn -0.1247 0.8480 0.5151
vn 0.1368 0.9510 0.2773
vn 0.1632 0.7610 0.6279
vn 0.0758 0.9441 0.3208
vn 0.4239 0.7902 0.4425
vn 0.0822 0.9169 0.3906
vn 0.3967 0.9065 0.1443
vn 0.1496 0.8965 0.4170
vn 0.1088 0.9936 0.0315
vn 0.0314 0.9954 0.0903
vn 0.0122 0.9995 0.0277
vn -0.3115 0.9446 0.1035
vn 0.0227 0.9934 0.1125
vn -0.3193 0.9442 0.0809
vn -0.2647 0.9643 -0.0023
vn 0.5900 0.6663 0.4560
vn 0.7043 0.5729 0.4193
vn 0.5815 0.8078 0.0963
vn 0.4646 0.8074 0.3637
vn 0.7349 0.6666 0.1249
vn 0.7799 0.5881 0.2142
vn -0.2107 -0.9033 -0.3736
vn 0.1519 -0.9643 -0.2169
vn -0.2043 -0.9306 -0.3037
vn 0.1247 -0.8480 -0.5151
vn -0.1368 -0.9510 -0.2773
vn -0.1632 -0.7609 -0.6280
vn -0.0757 -0.9441 -0.3208
vn -0.4240 -0.7902 -0.4425
vn -0.0821 -0.9169 -0.3906
vn -0.3967 -0.9065 -0.1443
vn -0.1496 -0.8965 -0.4171
vn -0.1088 -0.9936 -0.0315
vn -0.0314 -0.9954 -0.0903
vn -0.0120 -0.9995 -0.0277
vn 0.3115 -0.9446 -0.1035
vn -0.0227 -0.9934 -0.1125
vn 0.3192 -0.9442 -0.0809
vn 0.2646 -0.9644 0.0023
vn -0.5900 -0.6663 -0.4560
vn -0.7043 -0.5729 -0.4192
vn -0.5815 -0.8078 -0.0963
vn -0.4646 -0.8074 -0.3637
vn -0.7349 -0.6666 -0.1249
vn -0.7799 -0.5881 -0.2143
vn 0.1436 0.9264 0.3482
vn -0.8754 -0.2702 -0.4008
vn 0.7813 -0.0772 -0.6193
vn -0.6643 0.7401 -0.1049
vn 0.0790 -0.0325 0.9963
vn 0.8037 -0.0121 -0.5949
vn -0.9057 0.0690 -0.4183
vn -0.6993 0.0942 -0.7086
vn -0.2960 -0.8439 0.4475
vn 0.9441 0.1886 -0.2704
vn 0.2683 0.1937 0.9437
vn 0.6725 0.0763 -0.7362
vn 0.9902 0.1297 -0.0527
vn 0.9720 0.0308 -0.2330
vn -0.3044 -0.1157 0.9455
s off
f 4/1/1 3/2/1 1/3/1
f 2/4/2 3/2/2 4/1/2
f 7/5/3 6/6/3 1/3/3
f 5/7/4 6/6/4 7/5/4
f 10/8/5 9/9/5 1/3/5
f 8/10/6 9/9/6 10/8/6
f 13/11/7 12/12/7 1/3/7
f 11/13/8 12/12/8 13/11/8
f 16/14/9 15/15/9 1/3/9
f 14/16/10 15/15/10 16/14/10
f 19/17/11 18/18/11 1/3/11
f 17/19/12 18/18/12 19/17/12
f 27/20/13 21/21/13 23/22/13 28/23/13
f 28/23/14 23/22/14 24/24/14
f 27/20/15 20/25/15 25/26/15 29/27/15
f 21/21/16 27/20/16 29/27/16 26/28/16
f 20/25/17 27/20/17 28/23/17 22/29/17
f 22/29/18 28/23/18 24/24/18
f 37/30/19 31/31/19 33/32/19 38/33/19
f 38/33/20 33/32/20 34/34/20
f 37/30/21 30/35/21 35/36/21 39/37/21
f 31/31/22 37/30/22 39/37/22 36/38/22
f 30/35/23 37/30/23 38/33/23 32/39/23
f 32/39/24 38/33/24 34/34/24
f 43/40/25 40/41/25 42/42/25
f 41/43/26 43/40/26 42/42/26
f 46/44/27 40/41/27 45/45/27
f 44/46/28 46/44/28 45/45/28
f 49/47/29 40/41/29 48/48/29
f 47/49/30 49/47/30 48/48/30
f 52/50/31 40/41/31 51/51/31
f 50/52/32 52/50/32 51/51/32
f 55/53/33 40/41/33 54/54/33
f 53/55/34 55/53/34 54/54/34
f 58/56/35 40/41/35 57/57/35
f 56/58/36 58/56/36 57/57/36
f 66/59/37 67/60/37 62/61/37 60/62/37
f 67/60/38 63/63/38 62/61/38
f 66/59/39 68/64/39 64/65/39 59/66/39
f 60/62/40 65/67/40 68/64/40 66/59/40
f 59/66/41 61/68/41 67/60/41 66/59/41
f 61/68/42 63/63/42 67/60/42
f 76/69/43 77/70/43 72/71/43 70/72/43
f 77/70/44 73/73/44 72/71/44
f 76/69/45 78/74/45 74/75/45 69/76/45
f 70/72/46 75/77/46 78/74/46 76/69/46
f 69/76/47 71/78/47 77/70/47 76/69/47
f 71/78/48 73/73/48 77/70/48
f 80/79/49 81/80/49 82/81/49 83/82/49
f 79/83/49 80/79/49 83/82/49
f 90/84/50 85/85/50 87/86/50 91/87/50
f 91/87/51 93/88/51 92/89/51
f 90/84/52 94/90/52 96/91/52 97/92/52
f 88/93/53 92/94/53 90/84/53 84/95/53
f 86/96/54 91/87/54 92/89/54 88/97/54
f 84/95/55 90/84/55 91/87/55 86/96/55
f 93/98/56 90/84/56 98/99/56 99/100/56
f 90/84/57 92/94/57 95/101/57 94/90/57
f 92/102/58 97/92/58 96/91/58 95/103/58
f 85/85/59 90/84/59 93/98/59 89/104/59
f 93/88/60 91/87/60 87/86/60 89/105/60
f 97/92/61 92/102/61 93/106/61
f 97/92/62 93/106/62 99/107/62 100/108/62
f 90/84/63 97/92/63 100/108/63 98/99/63
