# Blender v2.78 (sub 0) OBJ File: 'Low_Poly_Vegetation_Pack.blend'
# www.blender.org
g Flower_d_TwoS_02
v -0.012423 0.196329 -0.097651
v 0.072042 0.211582 -0.067121
v -0.024508 0.204780 -0.053876
v 0.050946 0.219028 -0.026470
v 0.044856 0.190274 -0.117534
v -0.003673 0.208389 0.008432
v 0.102807 0.207747 -0.006208
v 0.074984 0.191350 0.078995
v 0.056379 0.223309 -0.012705
v 0.032509 0.204076 0.062896
v 0.125430 0.185416 0.045140
v 0.015935 0.172363 0.107674
v -0.068463 0.156814 0.077103
v 0.021091 0.194600 0.068265
v -0.054795 0.182266 0.041131
v -0.032459 0.139065 0.121960
v -0.099179 0.160432 0.016159
v -0.071428 0.177146 -0.068999
v -0.062406 0.187630 0.028738
v -0.038345 0.206018 -0.046984
v -0.113004 0.143796 -0.040732
v -0.012408 0.196137 -0.097596
v 0.072057 0.211390 -0.067067
v -0.024482 0.204584 -0.053847
v 0.050972 0.218832 -0.026441
v 0.044862 0.190089 -0.117459
v -0.003627 0.208197 0.008399
v 0.102758 0.207561 -0.006263
v 0.074935 0.191164 0.078939
v 0.056362 0.223116 -0.012756
v 0.032491 0.203883 0.062845
v 0.125372 0.185233 0.045086
v 0.015999 0.172202 0.107576
v -0.068399 0.156653 0.077004
v 0.021150 0.194427 0.068183
v -0.054737 0.182093 0.041049
v -0.032390 0.138916 0.121846
v -0.099054 0.160276 0.016166
v -0.071302 0.176990 -0.068991
v -0.062304 0.187459 0.028732
v -0.038243 0.205846 -0.046990
v -0.112874 0.143645 -0.040719
v -0.001492 0.000000 -0.005398
v -0.005097 0.209208 0.003243
v 0.005420 0.000000 0.001407
v 0.000241 0.209342 0.009860
v -0.003929 0.000000 0.003991
v -0.004589 0.208059 0.011306
v -0.000506 0.105782 -0.001125
v 0.006275 0.105059 0.005585
v -0.003054 0.105321 0.008164
v -0.012676 0.211225 -0.019020
v -0.031411 0.203063 0.008624
v -0.010732 0.203827 0.036075
v 0.020784 0.212462 0.025398
v 0.019583 0.217034 -0.008653
vt 0.4372 0.2589
vt 0.4694 0.2991
vt 0.4051 0.2991
vt 0.4731 0.3328
vt 0.4013 0.3328
vt 0.4372 0.3601
vt 0.4694 0.2991
vt 0.4051 0.2991
vt 0.4731 0.3328
vt 0.4013 0.3328
vt 0.4372 0.3601
vt 0.4694 0.2991
vt 0.4051 0.2991
vt 0.4731 0.3328
vt 0.4013 0.3328
vt 0.4372 0.3601
vt 0.4694 0.2991
vt 0.4051 0.2991
vt 0.4731 0.3328
vt 0.4013 0.3328
vt 0.4372 0.3601
vt 0.4372 0.2589
vt 0.4051 0.2991
vt 0.4694 0.2991
vt 0.4013 0.3328
vt 0.4731 0.3328
vt 0.4372 0.3601
vt 0.4051 0.2991
vt 0.4694 0.2991
vt 0.4013 0.3328
vt 0.4731 0.3328
vt 0.4372 0.3601
vt 0.4051 0.2991
vt 0.4694 0.2991
vt 0.4013 0.3328
vt 0.4731 0.3328
vt 0.4372 0.3601
vt 0.4051 0.2991
vt 0.4694 0.2991
vt 0.4013 0.3328
vt 0.4731 0.3328
vt 0.4372 0.3601
vt 0.6968 0.6860
vt 0.6968 0.7335
vt 0.6913 0.7335
vt 0.6913 0.6860
vt 0.6859 0.7335
vt 0.6859 0.6860
vt 0.7023 0.6860
vt 0.7023 0.7335
vt 0.7023 0.6385
vt 0.6968 0.6385
vt 0.6913 0.6385
vt 0.6859 0.6385
vt 0.5165 0.3279
vt 0.5344 0.2727
vt 0.5925 0.2727
vt 0.6104 0.3279
vt 0.5634 0.3620
vn -0.1876 0.9822 0.0058
vn -0.0987 0.9702 -0.2215
vn -0.0320 0.9267 -0.3744
vn -0.1727 0.9662 0.1913
vn 0.2259 0.9332 0.2794
vn 0.2900 0.9177 0.2713
vn -0.2619 0.9111 0.3184
vn -0.3084 0.8368 0.4524
vn -0.3442 0.7452 0.5711
vn -0.2869 0.9478 0.1390
vn -0.6175 0.7861 -0.0273
vn -0.6503 0.7570 -0.0633
vn 0.1876 -0.9822 -0.0058
vn 0.0987 -0.9702 0.2215
vn 0.0320 -0.9267 0.3744
vn 0.1729 -0.9662 -0.1912
vn -0.2260 -0.9332 -0.2794
vn -0.2900 -0.9177 -0.2713
vn 0.2619 -0.9111 -0.3184
vn 0.3084 -0.8368 -0.4524
vn 0.3442 -0.7452 -0.5711
vn 0.2868 -0.9478 -0.1390
vn 0.6175 -0.7861 0.0274
vn 0.6503 -0.7570 0.0633
vn 0.7397 0.0657 -0.6697
vn 0.2750 -0.0244 0.9611
vn -0.9926 -0.0252 -0.1190
vn -0.9661 0.0188 -0.2574
vn 0.2657 -0.0404 0.9632
vn 0.7029 0.0224 -0.7110
vn -0.2181 0.9662 0.1374
s off
f 6/1/1 4/2/1 3/3/1
f 4/2/2 2/4/2 1/5/2 3/3/2
f 5/6/3 1/5/3 2/4/3
f 6/1/4 10/7/4 9/8/4
f 10/7/5 8/9/5 7/10/5 9/8/5
f 11/11/6 7/10/6 8/9/6
f 6/1/7 15/12/7 14/13/7
f 15/12/8 13/14/8 12/15/8 14/13/8
f 16/16/9 12/15/9 13/14/9
f 6/1/10 20/17/10 19/18/10
f 20/17/11 18/19/11 17/20/11 19/18/11
f 21/21/12 17/20/12 18/19/12
f 27/22/13 24/23/13 25/24/13
f 25/24/14 24/23/14 22/25/14 23/26/14
f 26/27/15 23/26/15 22/25/15
f 27/22/16 30/28/16 31/29/16
f 31/29/17 30/28/17 28/30/17 29/31/17
f 32/32/18 29/31/18 28/30/18
f 27/22/19 35/33/19 36/34/19
f 36/34/20 35/33/20 33/35/20 34/36/20
f 37/37/21 34/36/21 33/35/21
f 27/22/22 40/38/22 41/39/22
f 41/39/23 40/38/23 38/40/23 39/41/23
f 42/42/24 39/41/24 38/40/24
f 49/43/25 44/44/25 46/45/25 50/46/25
f 50/46/26 46/45/26 48/47/26 51/48/26
f 51/49/27 48/50/27 44/44/27 49/43/27
f 47/51/28 51/49/28 49/43/28 43/52/28
f 45/53/29 50/46/29 51/48/29 47/54/29
f 43/52/30 49/43/30 50/46/30 45/53/30
f 53/55/31 54/56/31 55/57/31 56/58/31
f 52/59/31 53/55/31 56/58/31
