# Blender v2.78 (sub 0) OBJ File: 'Low_Poly_Vegetation_Pack.blend'
# www.blender.org
g Flower_a_TwoS_01
v -0.074816 0.566345 0.150764
v -0.068641 0.606370 0.058952
v -0.069273 0.686553 0.148703
v 0.024207 0.435654 0.045612
v -0.055142 0.466620 0.114561
v -0.048297 0.510986 0.012791
v 0.087025 0.513763 0.212632
v -0.012149 0.529064 0.212632
v 0.051803 0.614524 0.268234
v 0.080300 0.434483 0.139746
v -0.029631 0.451443 0.139746
v 0.164190 0.570448 0.058952
v 0.158015 0.530423 0.150764
v 0.188959 0.646713 0.148703
v 0.116044 0.485631 0.012791
v 0.109200 0.441265 0.114561
v 0.002349 0.623031 -0.002915
v 0.101522 0.607730 -0.002915
v 0.067882 0.718742 0.029172
v -0.019398 0.517769 -0.012395
v 0.090532 0.500808 -0.012395
v -0.075015 0.566332 0.150745
v -0.068840 0.606357 0.058933
v -0.069472 0.686562 0.148694
v 0.024179 0.435473 0.045531
v -0.055318 0.466539 0.114513
v -0.048473 0.510905 0.012743
v 0.087006 0.513642 0.212791
v -0.012168 0.528943 0.212791
v 0.051788 0.614423 0.268407
v 0.080273 0.434312 0.139847
v -0.029657 0.451272 0.139847
v 0.164376 0.570375 0.058933
v 0.158201 0.530351 0.150745
v 0.189152 0.646661 0.148694
v 0.116188 0.485500 0.012743
v 0.109343 0.441134 0.114513
v 0.002354 0.623065 -0.003112
v 0.101528 0.607764 -0.003112
v 0.067891 0.718800 0.028981
v -0.019404 0.517727 -0.012590
v 0.090526 0.500766 -0.012590
v 0.031855 0.485200 0.007609
v -0.022180 0.478017 0.042380
v -0.006217 0.450444 0.098642
v 0.057683 0.440585 0.098642
v 0.081213 0.462065 0.042380
v 0.000000 0.000000 -0.010000
v 0.028520 0.463568 0.047138
v 0.008660 0.000000 0.005000
v 0.036156 0.456265 0.060862
v -0.008660 0.000000 0.005000
v 0.019038 0.458906 0.060862
v 0.008127 0.250062 0.005049
v 0.016788 0.250062 0.020049
v -0.000533 0.250062 0.020049
vt 0.0337 0.4402
vt 0.0808 0.4402
vt 0.0572 0.4872
vt 0.0371 0.4152
vt 0.0774 0.4152
vt 0.0572 0.3850
vt 0.0337 0.4402
vt 0.0808 0.4402
vt 0.0572 0.4872
vt 0.0371 0.4152
vt 0.0774 0.4152
vt 0.0337 0.4402
vt 0.0808 0.4402
vt 0.0572 0.4872
vt 0.0371 0.4152
vt 0.0774 0.4152
vt 0.0337 0.4402
vt 0.0808 0.4402
vt 0.0572 0.4872
vt 0.0371 0.4152
vt 0.0774 0.4152
vt 0.0337 0.4402
vt 0.0572 0.4872
vt 0.0808 0.4402
vt 0.0774 0.4152
vt 0.0371 0.4152
vt 0.0572 0.3850
vt 0.0337 0.4402
vt 0.0572 0.4872
vt 0.0808 0.4402
vt 0.0774 0.4152
vt 0.0371 0.4152
vt 0.0337 0.4402
vt 0.0572 0.4872
vt 0.0808 0.4402
vt 0.0774 0.4152
vt 0.0371 0.4152
vt 0.0337 0.4402
vt 0.0572 0.4872
vt 0.0808 0.4402
vt 0.0774 0.4152
vt 0.0371 0.4152
vt 0.2694 0.4238
vt 0.3067 0.3967
vt 0.3439 0.4238
vt 0.3297 0.4676
vt 0.2836 0.4676
vt 0.5680 0.6868
vt 0.5680 0.7351
vt 0.5625 0.7351
vt 0.5625 0.6868
vt 0.5569 0.7351
vt 0.5569 0.6868
vt 0.5736 0.6868
vt 0.5736 0.7351
vt 0.5736 0.6386
vt 0.5680 0.6386
vt 0.5625 0.6386
vt 0.5569 0.6386
vn 0.9979 -0.0452 0.0474
vn 0.9807 0.1464 0.1298
vn 0.5913 0.7239 0.3554
vn 0.0775 0.5023 -0.8612
vn 0.1031 0.6684 -0.7366
vn 0.1520 0.9853 -0.0783
vn -0.9651 0.2576 0.0474
vn -0.8910 0.4351 0.1298
vn -0.3456 0.8685 0.3554
vn -0.0447 -0.2899 0.9560
vn -0.0134 -0.0869 0.9961
vn 0.0937 0.6071 0.7891
vn -0.9979 0.0452 -0.0474
vn -0.9807 -0.1464 -0.1298
vn -0.5913 -0.7240 -0.3554
vn -0.0775 -0.5023 0.8612
vn -0.1031 -0.6685 0.7365
vn -0.1520 -0.9853 0.0783
vn 0.9651 -0.2577 -0.0474
vn 0.8909 -0.4352 -0.1298
vn 0.3456 -0.8685 -0.3554
vn 0.0447 0.2899 -0.9560
vn 0.0134 0.0869 -0.9961
vn -0.0937 -0.6072 -0.7890
vn 0.1395 0.9042 0.4036
vn 0.8712 0.0144 -0.4906
vn -0.0147 -0.1916 0.9814
vn -0.8447 0.1789 -0.5045
vn -0.8646 0.0581 -0.4992
vn -0.0000 -0.0601 0.9982
vn 0.8660 0.0019 -0.5000
s off
f 1/1/1 2/2/1 3/3/1
f 2/2/2 1/1/2 5/4/2 6/5/2
f 6/5/3 5/4/3 4/6/3
f 7/7/4 8/8/4 9/9/4
f 8/8/5 7/7/5 10/10/5 11/11/5
f 11/11/6 10/10/6 4/6/6
f 12/12/7 13/13/7 14/14/7
f 13/13/8 12/12/8 15/15/8 16/16/8
f 16/16/9 15/15/9 4/6/9
f 17/17/10 18/18/10 19/19/10
f 18/18/11 17/17/11 20/20/11 21/21/11
f 21/21/12 20/20/12 4/6/12
f 22/22/13 24/23/13 23/24/13
f 23/24/14 27/25/14 26/26/14 22/22/14
f 27/25/15 25/27/15 26/26/15
f 28/28/16 30/29/16 29/30/16
f 29/30/17 32/31/17 31/32/17 28/28/17
f 32/31/18 25/27/18 31/32/18
f 33/33/19 35/34/19 34/35/19
f 34/35/20 37/36/20 36/37/20 33/33/20
f 37/36/21 25/27/21 36/37/21
f 38/38/22 40/39/22 39/40/22
f 39/40/23 42/41/23 41/42/23 38/38/23
f 42/41/24 25/27/24 41/42/24
f 44/43/25 45/44/25 46/45/25 47/46/25
f 43/47/25 44/43/25 47/46/25
f 54/48/26 49/49/26 51/50/26 55/51/26
f 55/51/27 51/50/27 53/52/27 56/53/27
f 56/54/28 53/55/28 49/49/28 54/48/28
f 52/56/29 56/54/29 54/48/29 48/57/29
f 50/58/30 55/51/30 56/53/30 52/59/30
f 48/57/31 54/48/31 55/51/31 50/58/31
