# Blender v2.78 (sub 0) OBJ File: 'Low_Poly_Vegetation_Pack.blend'
# www.blender.org
g Flower_a_TwoS_06
v -0.070022 0.324313 0.163029
v -0.126961 0.391547 0.091858
v -0.132125 0.277781 0.119611
v 0.031198 0.430507 0.071793
v -0.018650 0.370338 0.156486
v -0.082876 0.446177 0.076206
v 0.155560 0.314700 0.096015
v 0.030596 0.290893 0.173500
v 0.103447 0.181391 0.116541
v 0.130950 0.377043 0.093448
v 0.023769 0.356623 0.159906
v 0.115226 0.529845 -0.022124
v 0.175995 0.458089 0.053834
v 0.224807 0.564323 0.023372
v 0.070301 0.499151 -0.006231
v 0.134528 0.423312 0.074049
v -0.110251 0.520199 0.003614
v 0.016727 0.540138 -0.071655
v -0.085086 0.625687 -0.101733
v -0.072246 0.469999 0.039892
v 0.034935 0.490418 -0.026567
v -0.069920 0.324236 0.162875
v -0.126869 0.391461 0.091703
v -0.131993 0.277739 0.119466
v 0.031169 0.430352 0.071669
v -0.018613 0.370211 0.156336
v -0.082845 0.446047 0.076058
v 0.155458 0.314680 0.095844
v 0.030494 0.290873 0.173329
v 0.103340 0.181407 0.116373
v 0.130867 0.376957 0.093287
v 0.023686 0.356538 0.159745
v 0.115286 0.529732 -0.022278
v 0.176052 0.457974 0.053680
v 0.224898 0.564236 0.023217
v 0.070322 0.499015 -0.006376
v 0.134545 0.423175 0.073905
v -0.110310 0.520064 0.003478
v 0.016668 0.540005 -0.071791
v -0.085150 0.625561 -0.101874
v -0.072294 0.469848 0.039770
v 0.034887 0.490268 -0.026689
v 0.004446 0.000000 -0.008958
v 0.037396 0.425685 0.063862
v 0.005535 0.000000 0.008329
v 0.031017 0.415138 0.076030
v -0.009980 0.000000 0.000629
v 0.020513 0.426110 0.067707
v 0.002227 0.250062 -0.018259
v 0.003316 0.250062 -0.000973
v -0.012199 0.250062 -0.008673
v 0.004215 0.470471 0.038387
v -0.021944 0.432873 0.084022
v 0.025861 0.400274 0.112874
v 0.081565 0.417725 0.085072
v 0.068187 0.461109 0.039036
vt 0.0375 0.4433
vt 0.0827 0.4433
vt 0.0601 0.4886
vt 0.0407 0.4192
vt 0.0795 0.4192
vt 0.0601 0.3902
vt 0.0375 0.4433
vt 0.0827 0.4433
vt 0.0601 0.4886
vt 0.0407 0.4192
vt 0.0795 0.4192
vt 0.0375 0.4433
vt 0.0827 0.4433
vt 0.0601 0.4886
vt 0.0407 0.4192
vt 0.0795 0.4192
vt 0.0375 0.4433
vt 0.0827 0.4433
vt 0.0601 0.4886
vt 0.0407 0.4192
vt 0.0795 0.4192
vt 0.0375 0.4433
vt 0.0601 0.4886
vt 0.0827 0.4433
vt 0.0795 0.4192
vt 0.0407 0.4192
vt 0.0601 0.3902
vt 0.0375 0.4433
vt 0.0601 0.4886
vt 0.0827 0.4433
vt 0.0795 0.4192
vt 0.0407 0.4192
vt 0.0375 0.4433
vt 0.0601 0.4886
vt 0.0827 0.4433
vt 0.0795 0.4192
vt 0.0407 0.4192
vt 0.0375 0.4433
vt 0.0601 0.4886
vt 0.0827 0.4433
vt 0.0795 0.4192
vt 0.0407 0.4192
vt 0.5628 0.6860
vt 0.5628 0.7280
vt 0.5580 0.7280
vt 0.5580 0.6860
vt 0.5531 0.7280
vt 0.5531 0.6860
vt 0.5677 0.6860
vt 0.5677 0.7280
vt 0.5677 0.6440
vt 0.5628 0.6440
vt 0.5580 0.6440
vt 0.5531 0.6440
vt 0.2689 0.4207
vt 0.3125 0.3890
vt 0.3562 0.4207
vt 0.3395 0.4720
vt 0.2856 0.4720
vn -0.6597 0.2062 0.7226
vn -0.3626 0.5151 0.7767
vn 0.1300 0.7706 0.6240
vn 0.5363 -0.0803 0.8402
vn 0.4821 0.2252 0.8467
vn 0.2539 0.7305 0.6339
vn -0.4585 0.4332 0.7760
vn -0.1747 0.6422 0.7464
vn 0.0370 0.7410 0.6705
vn 0.3204 0.6300 0.7074
vn 0.2802 0.6960 0.6611
vn 0.1610 0.8402 0.5179
vn 0.6598 -0.2061 -0.7226
vn 0.3626 -0.5151 -0.7767
vn -0.1301 -0.7706 -0.6239
vn -0.5363 0.0803 -0.8402
vn -0.4821 -0.2251 -0.8467
vn -0.2538 -0.7306 -0.6339
vn 0.4584 -0.4332 -0.7760
vn 0.1747 -0.6422 -0.7464
vn -0.0369 -0.7410 -0.6705
vn -0.3204 -0.6300 -0.7074
vn -0.2802 -0.6960 -0.6611
vn -0.1611 -0.8402 -0.5179
vn 0.9702 -0.2231 0.0944
vn -0.5813 -0.2458 0.7756
vn -0.3489 0.4402 -0.8273
vn -0.5531 -0.0359 -0.8323
vn -0.4444 0.0294 0.8954
vn 0.9980 0.0065 -0.0629
vn 0.1013 0.7385 0.6666
s off
f 1/1/1 2/2/1 3/3/1
f 2/2/2 1/1/2 5/4/2 6/5/2
f 6/5/3 5/4/3 4/6/3
f 7/7/4 8/8/4 9/9/4
f 8/8/5 7/7/5 10/10/5 11/11/5
f 11/11/6 10/10/6 4/6/6
f 12/12/7 13/13/7 14/14/7
f 13/13/8 12/12/8 15/15/8 16/16/8
f 16/16/9 15/15/9 4/6/9
f 17/17/10 18/18/10 19/19/10
f 18/18/11 17/17/11 20/20/11 21/21/11
f 21/21/12 20/20/12 4/6/12
f 22/22/13 24/23/13 23/24/13
f 23/24/14 27/25/14 26/26/14 22/22/14
f 27/25/15 25/27/15 26/26/15
f 28/28/16 30/29/16 29/30/16
f 29/30/17 32/31/17 31/32/17 28/28/17
f 32/31/18 25/27/18 31/32/18
f 33/33/19 35/34/19 34/35/19
f 34/35/20 37/36/20 36/37/20 33/33/20
f 37/36/21 25/27/21 36/37/21
f 38/38/22 40/39/22 39/40/22
f 39/40/23 42/41/23 41/42/23 38/38/23
f 42/41/24 25/27/24 41/42/24
f 49/43/25 44/44/25 46/45/25 50/46/25
f 50/46/26 46/45/26 48/47/26 51/48/26
f 51/49/27 48/50/27 44/44/27 49/43/27
f 47/51/28 51/49/28 49/43/28 43/52/28
f 45/53/29 50/46/29 51/48/29 47/54/29
f 43/52/30 49/43/30 50/46/30 45/53/30
f 53/55/31 54/56/31 55/57/31 56/58/31
f 52/59/31 53/55/31 56/58/31
