# Blender v2.78 (sub 0) OBJ File: 'Low_Poly_Vegetation_Pack.blend'
# www.blender.org
g Flower_b_TwoS_01
v -0.005706 0.250101 0.022273
v -0.087346 0.408794 0.034522
v -0.074235 0.318630 0.041695
v -0.051905 0.333604 -0.003467
v -0.078648 0.370446 0.132704
v -0.042370 0.291565 0.104164
v -0.072186 0.309599 0.064817
v 0.016576 0.345939 0.171662
v 0.032203 0.282734 0.107524
v -0.019944 0.285794 0.113339
v 0.103103 0.359780 0.112438
v 0.074910 0.300967 0.048414
v 0.052580 0.285994 0.093576
v 0.094405 0.398128 0.014255
v 0.043046 0.328033 -0.014056
v 0.072862 0.309999 0.025291
v -0.000819 0.422635 -0.024702
v -0.031528 0.336864 -0.017415
v 0.020619 0.333804 -0.023230
v -0.005725 0.249915 0.022202
v -0.087518 0.408761 0.034426
v -0.074392 0.318559 0.041593
v -0.052062 0.333533 -0.003568
v -0.078806 0.370347 0.132778
v -0.042514 0.291435 0.104213
v -0.072330 0.309469 0.064866
v 0.016584 0.345797 0.171803
v 0.032205 0.282566 0.107633
v -0.019941 0.285626 0.113448
v 0.103260 0.359663 0.112476
v 0.075045 0.300821 0.048432
v 0.052715 0.285847 0.093594
v 0.094548 0.398077 0.014124
v 0.043167 0.327945 -0.014188
v 0.072983 0.309911 0.025159
v -0.000842 0.422626 -0.024901
v -0.031552 0.336814 -0.017607
v 0.020594 0.333754 -0.023422
v -0.005584 0.285549 0.004675
v -0.031456 0.279855 0.026459
v -0.018258 0.267411 0.055567
v 0.015770 0.265414 0.051773
v 0.023603 0.276624 0.020320
v 0.000000 0.000000 -0.009000
v -0.006882 0.275952 0.021654
v 0.007794 0.000000 0.004500
v -0.000746 0.272020 0.027220
v -0.007794 0.000000 0.004500
v -0.010622 0.273239 0.027714
v -0.009829 0.140529 -0.001622
v -0.003608 0.140529 0.009153
v -0.016050 0.140529 0.009153
vt 0.4563 0.4202
vt 0.4181 0.4202
vt 0.4372 0.3916
vt 0.4372 0.4885
vt 0.4563 0.4202
vt 0.4181 0.4202
vt 0.4372 0.4885
vt 0.4563 0.4202
vt 0.4181 0.4202
vt 0.4372 0.4885
vt 0.4563 0.4202
vt 0.4181 0.4202
vt 0.4372 0.4885
vt 0.4563 0.4202
vt 0.4181 0.4202
vt 0.4372 0.4885
vt 0.4563 0.4202
vt 0.4181 0.4202
vt 0.4372 0.4885
vt 0.4563 0.4202
vt 0.4372 0.3916
vt 0.4181 0.4202
vt 0.4372 0.4885
vt 0.4563 0.4202
vt 0.4181 0.4202
vt 0.4372 0.4885
vt 0.4563 0.4202
vt 0.4181 0.4202
vt 0.4372 0.4885
vt 0.4563 0.4202
vt 0.4181 0.4202
vt 0.4372 0.4885
vt 0.4563 0.4202
vt 0.4181 0.4202
vt 0.4372 0.4885
vt 0.4563 0.4202
vt 0.4181 0.4202
vt 0.4372 0.4885
vt 0.6465 0.4221
vt 0.6903 0.3903
vt 0.7341 0.4221
vt 0.7173 0.4736
vt 0.6632 0.4736
vt 0.6866 0.6863
vt 0.6866 0.7339
vt 0.6811 0.7339
vt 0.6811 0.6863
vt 0.6756 0.7339
vt 0.6756 0.6863
vt 0.6921 0.6863
vt 0.6921 0.7339
vt 0.6921 0.6388
vt 0.6866 0.6388
vt 0.6811 0.6388
vt 0.6756 0.6388
vn 0.6761 0.5314 0.5105
vn 0.8617 0.1635 0.4803
vn 0.6207 0.7756 -0.1148
vn 0.7865 0.4952 -0.3690
vn 0.0142 0.9317 -0.3630
vn -0.0372 0.7072 -0.7060
vn -0.5369 0.8435 0.0142
vn -0.7857 0.5875 -0.1937
vn -0.4815 0.5993 0.6395
vn -0.7105 0.2558 0.6556
vn 0.1250 0.4432 0.8876
vn 0.1132 0.0438 0.9926
vn -0.6758 -0.5318 -0.5104
vn -0.8617 -0.1636 -0.4803
vn -0.6204 -0.7759 0.1145
vn -0.7865 -0.4953 0.3690
vn -0.0143 -0.9319 0.3625
vn 0.0372 -0.7073 0.7060
vn 0.5365 -0.8438 -0.0145
vn 0.7857 -0.5875 0.1937
vn 0.4811 -0.5997 -0.6394
vn 0.7104 -0.2558 -0.6556
vn -0.1250 -0.4437 -0.8874
vn -0.1133 -0.0438 -0.9926
vn 0.0942 0.9301 0.3549
vn 0.8039 0.0739 -0.5901
vn 0.0144 -0.1378 0.9904
vn -0.8632 0.1040 -0.4940
vn -0.8655 -0.0343 -0.4997
vn -0.0000 -0.0331 0.9995
vn 0.8628 0.0865 -0.4981
s off
f 4/1/1 3/2/1 1/3/1
f 2/4/2 3/2/2 4/1/2
f 7/5/3 6/6/3 1/3/3
f 5/7/4 6/6/4 7/5/4
f 10/8/5 9/9/5 1/3/5
f 8/10/6 9/9/6 10/8/6
f 13/11/7 12/12/7 1/3/7
f 11/13/8 12/12/8 13/11/8
f 16/14/9 15/15/9 1/3/9
f 14/16/10 15/15/10 16/14/10
f 19/17/11 18/18/11 1/3/11
f 17/19/12 18/18/12 19/17/12
f 23/20/13 20/21/13 22/22/13
f 21/23/14 23/20/14 22/22/14
f 26/24/15 20/21/15 25/25/15
f 24/26/16 26/24/16 25/25/16
f 29/27/17 20/21/17 28/28/17
f 27/29/18 29/27/18 28/28/18
f 32/30/19 20/21/19 31/31/19
f 30/32/20 32/30/20 31/31/20
f 35/33/21 20/21/21 34/34/21
f 33/35/22 35/33/22 34/34/22
f 38/36/23 20/21/23 37/37/23
f 36/38/24 38/36/24 37/37/24
f 40/39/25 41/40/25 42/41/25 43/42/25
f 39/43/25 40/39/25 43/42/25
f 50/44/26 45/45/26 47/46/26 51/47/26
f 51/47/27 47/46/27 49/48/27 52/49/27
f 52/50/28 49/51/28 45/45/28 50/44/28
f 48/52/29 52/50/29 50/44/29 44/53/29
f 46/54/30 51/47/30 52/49/30 48/55/30
f 44/53/31 50/44/31 51/47/31 46/54/31
