# Blender v2.78 (sub 0) OBJ File: 'Low_Poly_Vegetation_Pack.blend'
# www.blender.org
g Flower_e_TwoS_05
v 0.018619 0.184619 0.053074
v -0.021966 0.239924 0.012221
v -0.001137 0.250937 0.013243
v -0.025311 0.204444 0.030279
v 0.028618 0.232958 0.032928
v 0.053566 0.254082 0.034256
v 0.071713 0.243973 0.045423
v 0.018688 0.234603 0.033728
v 0.065673 0.208431 0.062639
v 0.094301 0.198536 0.074648
v 0.091619 0.177415 0.084791
v 0.062617 0.214780 0.056526
v 0.055672 0.160095 0.082790
v 0.058394 0.130615 0.096421
v 0.036884 0.120696 0.097495
v 0.061436 0.166580 0.079294
v 0.007506 0.138067 0.076646
v -0.019164 0.119710 0.080622
v -0.037311 0.129818 0.069456
v 0.015410 0.139675 0.082083
v -0.031575 0.165847 0.053172
v -0.058930 0.173700 0.037247
v -0.056248 0.194820 0.027103
v -0.027549 0.157942 0.056301
v -0.020605 0.212627 0.030038
v 0.018675 0.184530 0.052904
v -0.021910 0.239833 0.012052
v -0.001081 0.250845 0.013075
v -0.025256 0.204357 0.030108
v 0.028673 0.232870 0.032756
v 0.053619 0.253990 0.034087
v 0.071766 0.243882 0.045253
v 0.018750 0.234522 0.033555
v 0.065735 0.208351 0.062467
v 0.094353 0.198447 0.074477
v 0.091671 0.177326 0.084620
v 0.062679 0.214691 0.056358
v 0.055735 0.160006 0.082621
v 0.058446 0.130520 0.096252
v 0.036935 0.120601 0.097326
v 0.061491 0.166485 0.079128
v 0.007562 0.137971 0.076479
v -0.019107 0.119624 0.080451
v -0.037254 0.129732 0.069285
v 0.015459 0.139578 0.081916
v -0.031526 0.165750 0.053004
v -0.058872 0.173611 0.037078
v -0.056190 0.194732 0.026934
v -0.027500 0.157853 0.056129
v -0.020555 0.212538 0.029866
v -0.002589 0.000000 -0.005589
v 0.015675 0.188519 0.051727
v 0.006135 0.000000 0.000552
v 0.021672 0.184344 0.056232
v -0.003546 0.000000 0.005037
v 0.016807 0.182859 0.055740
v -0.000751 0.107146 -0.002446
v 0.007814 0.106351 0.003617
v -0.001847 0.106639 0.008092
v 0.009484 0.202713 0.044290
v -0.003168 0.181444 0.051272
v 0.013109 0.166457 0.064375
v 0.035820 0.178465 0.065491
v 0.033579 0.200872 0.053077
vt 0.6654 0.3144
vt 0.7276 0.3144
vt 0.7085 0.3504
vt 0.6845 0.3504
vt 0.6965 0.2698
vt 0.6654 0.3144
vt 0.7276 0.3144
vt 0.7085 0.3504
vt 0.6845 0.3504
vt 0.6965 0.2695
vt 0.6654 0.3144
vt 0.7276 0.3144
vt 0.7085 0.3504
vt 0.6845 0.3504
vt 0.6965 0.2697
vt 0.6654 0.3144
vt 0.7276 0.3141
vt 0.7088 0.3503
vt 0.6846 0.3503
vt 0.6963 0.2697
vt 0.6654 0.3144
vt 0.7276 0.3144
vt 0.7085 0.3504
vt 0.6845 0.3504
vt 0.6654 0.3144
vt 0.7276 0.3144
vt 0.7085 0.3504
vt 0.6845 0.3504
vt 0.6654 0.3144
vt 0.6845 0.3504
vt 0.7085 0.3504
vt 0.7276 0.3144
vt 0.6965 0.2698
vt 0.6654 0.3144
vt 0.6845 0.3504
vt 0.7085 0.3504
vt 0.7276 0.3144
vt 0.6965 0.2695
vt 0.6654 0.3144
vt 0.6845 0.3504
vt 0.7085 0.3504
vt 0.7276 0.3144
vt 0.6965 0.2697
vt 0.6654 0.3144
vt 0.6846 0.3503
vt 0.7088 0.3503
vt 0.7276 0.3141
vt 0.6963 0.2697
vt 0.6654 0.3144
vt 0.6845 0.3504
vt 0.7085 0.3504
vt 0.7276 0.3144
vt 0.6654 0.3144
vt 0.6845 0.3504
vt 0.7085 0.3504
vt 0.7276 0.3144
vt 0.8090 0.6845
vt 0.8090 0.7299
vt 0.8038 0.7299
vt 0.8038 0.6845
vt 0.7985 0.7299
vt 0.7985 0.6845
vt 0.8142 0.6845
vt 0.8142 0.7299
vt 0.8142 0.6392
vt 0.8090 0.6392
vt 0.8038 0.6392
vt 0.7985 0.6392
vt 0.3160 0.3571
vt 0.3412 0.2797
vt 0.3567 0.3275
vt 0.2753 0.3275
vt 0.2909 0.2797
vn -0.2826 0.4561 0.8438
vn -0.2632 0.4170 0.8700
vn -0.2678 0.4565 0.8485
vn -0.3490 0.3387 0.8738
vn -0.2619 0.4446 0.8566
vn -0.3661 0.4402 0.8198
vn -0.2583 0.4724 0.8427
vn -0.2977 0.4869 0.8212
vn -0.2857 0.4321 0.8554
vn -0.2009 0.5413 0.8165
vn -0.2915 0.4440 0.8473
vn -0.1958 0.4446 0.8740
vn 0.2826 -0.4562 -0.8438
vn 0.2632 -0.4170 -0.8700
vn 0.2678 -0.4565 -0.8485
vn 0.3490 -0.3387 -0.8738
vn 0.2619 -0.4446 -0.8566
vn 0.3661 -0.4402 -0.8199
vn 0.2583 -0.4724 -0.8427
vn 0.2977 -0.4869 -0.8212
vn 0.2857 -0.4321 -0.8554
vn 0.2009 -0.5413 -0.8165
vn 0.2915 -0.4440 -0.8473
vn 0.1958 -0.4446 -0.8740
vn 0.6255 0.3488 -0.6979
vn 0.2613 -0.5643 0.7832
vn -0.9825 0.1705 0.0747
vn -0.9952 0.0193 -0.0961
vn 0.4197 -0.0327 0.9071
vn 0.5771 0.0142 -0.8166
vn -0.2768 0.4443 0.8520
s off
f 4/1/1 5/2/1 3/3/1 2/4/1
f 1/5/2 5/2/2 4/1/2
f 8/6/3 9/7/3 7/8/3 6/9/3
f 1/10/4 9/7/4 8/6/4
f 12/11/5 13/12/5 11/13/5 10/14/5
f 1/15/6 13/12/6 12/11/6
f 16/16/7 17/17/7 15/18/7 14/19/7
f 1/20/8 17/17/8 16/16/8
f 20/21/9 21/22/9 19/23/9 18/24/9
f 1/10/10 21/22/10 20/21/10
f 24/25/11 25/26/11 23/27/11 22/28/11
f 1/15/12 25/26/12 24/25/12
f 29/29/13 27/30/13 28/31/13 30/32/13
f 26/33/14 29/29/14 30/32/14
f 33/34/15 31/35/15 32/36/15 34/37/15
f 26/38/16 33/34/16 34/37/16
f 37/39/17 35/40/17 36/41/17 38/42/17
f 26/43/18 37/39/18 38/42/18
f 41/44/19 39/45/19 40/46/19 42/47/19
f 26/48/20 41/44/20 42/47/20
f 45/49/21 43/50/21 44/51/21 46/52/21
f 26/38/22 45/49/22 46/52/22
f 49/53/23 47/54/23 48/55/23 50/56/23
f 26/43/24 49/53/24 50/56/24
f 57/57/25 52/58/25 54/59/25 58/60/25
f 58/60/26 54/59/26 56/61/26 59/62/26
f 59/63/27 56/64/27 52/58/27 57/57/27
f 55/65/28 59/63/28 57/57/28 51/66/28
f 53/67/29 58/60/29 59/62/29 55/68/29
f 51/66/30 57/57/30 58/60/30 53/67/30
f 60/69/31 63/70/31 64/71/31
f 61/72/31 62/73/31 63/70/31 60/69/31
