# Blender v2.78 (sub 0) OBJ File: 'Low_Poly_Vegetation_Pack.blend'
# www.blender.org
g Flower_b_TwoS_03
v -0.007523 0.304261 0.010705
v -0.199536 0.376110 -0.035063
v -0.109588 0.299583 0.004948
v -0.083132 0.334461 -0.051290
v -0.172609 0.287347 0.139493
v -0.061716 0.263866 0.087540
v -0.104986 0.284417 0.034773
v 0.008341 0.277380 0.218434
v 0.038928 0.276490 0.097557
v -0.030798 0.262163 0.101027
v 0.162362 0.356175 0.122819
v 0.091700 0.324832 0.024981
v 0.065244 0.289954 0.081219
v 0.135435 0.444938 -0.051737
v 0.043828 0.360549 -0.057611
v 0.087099 0.339998 -0.004844
v -0.045515 0.454905 -0.130678
v -0.056817 0.347925 -0.067627
v 0.012910 0.362252 -0.071098
v -0.007492 0.304087 0.010611
v -0.199604 0.375966 -0.035184
v -0.109617 0.299422 0.004834
v -0.083162 0.334300 -0.051404
v -0.172663 0.287157 0.139464
v -0.061736 0.263676 0.087483
v -0.105007 0.284227 0.034716
v 0.008381 0.277185 0.218446
v 0.038967 0.276296 0.097525
v -0.030760 0.261970 0.100996
v 0.162484 0.356021 0.122780
v 0.091788 0.324663 0.024918
v 0.065333 0.289785 0.081156
v 0.135543 0.444830 -0.051867
v 0.043908 0.360410 -0.057731
v 0.087178 0.339859 -0.004964
v -0.045502 0.454802 -0.130849
v -0.056796 0.347789 -0.067772
v 0.012930 0.362115 -0.071243
v 0.000000 0.000000 -0.009000
v -0.007463 0.307564 0.008317
v 0.007794 0.000000 0.004500
v -0.001811 0.304544 0.015409
v -0.007794 0.000000 0.004500
v -0.011401 0.303590 0.013494
v -0.000603 0.152014 -0.014043
v 0.005618 0.152014 -0.003268
v -0.006824 0.152014 -0.003268
v -0.013993 0.327228 -0.024581
v -0.049413 0.305991 0.003222
v -0.027911 0.287822 0.044284
v 0.020798 0.297830 0.041860
v 0.029399 0.322185 -0.000702
vt 0.4567 0.4173
vt 0.4189 0.4173
vt 0.4378 0.3890
vt 0.4378 0.4849
vt 0.4567 0.4173
vt 0.4189 0.4173
vt 0.4378 0.4849
vt 0.4567 0.4173
vt 0.4189 0.4173
vt 0.4378 0.4849
vt 0.4567 0.4173
vt 0.4189 0.4173
vt 0.4378 0.4849
vt 0.4567 0.4173
vt 0.4189 0.4173
vt 0.4378 0.4849
vt 0.4567 0.4173
vt 0.4189 0.4173
vt 0.4378 0.4849
vt 0.4567 0.4173
vt 0.4378 0.3890
vt 0.4189 0.4173
vt 0.4378 0.4849
vt 0.4567 0.4173
vt 0.4189 0.4173
vt 0.4378 0.4849
vt 0.4567 0.4173
vt 0.4189 0.4173
vt 0.4378 0.4849
vt 0.4567 0.4173
vt 0.4189 0.4173
vt 0.4378 0.4849
vt 0.4567 0.4173
vt 0.4189 0.4173
vt 0.4378 0.4849
vt 0.4567 0.4173
vt 0.4189 0.4173
vt 0.4378 0.4849
vt 0.6918 0.6895
vt 0.6918 0.7357
vt 0.6864 0.7357
vt 0.6864 0.6895
vt 0.6811 0.7357
vt 0.6811 0.6895
vt 0.6971 0.6895
vt 0.6971 0.7357
vt 0.6971 0.6432
vt 0.6918 0.6432
vt 0.6864 0.6432
vt 0.6811 0.6432
vt 0.6444 0.4247
vt 0.6857 0.3947
vt 0.7270 0.4247
vt 0.7113 0.4733
vt 0.6601 0.4733
vn -0.0678 0.8619 0.5026
vn 0.3415 0.7183 0.6061
vn -0.0808 0.9046 0.4186
vn 0.2709 0.9511 0.1483
vn -0.1679 0.9094 0.3806
vn -0.2037 0.9773 -0.0587
vn -0.2420 0.8715 0.4266
vn -0.6077 0.7706 0.1920
vn -0.2291 0.8287 0.5106
vn -0.5371 0.5378 0.6499
vn -0.1420 0.8239 0.5486
vn -0.0625 0.5116 0.8569
vn 0.0678 -0.8618 -0.5026
vn -0.3415 -0.7183 -0.6061
vn 0.0808 -0.9046 -0.4185
vn -0.2708 -0.9511 -0.1483
vn 0.1679 -0.9094 -0.3805
vn 0.2037 -0.9773 0.0587
vn 0.2421 -0.8714 -0.4266
vn 0.6077 -0.7706 -0.1921
vn 0.2291 -0.8287 -0.5106
vn 0.5371 -0.5378 -0.6499
vn 0.1420 -0.8239 -0.5487
vn 0.0625 -0.5117 -0.8569
vn 0.8363 0.1103 -0.5371
vn -0.0809 -0.1185 0.9897
vn -0.8469 0.0360 -0.5305
vn -0.8659 -0.0200 -0.4999
vn -0.0000 0.0510 0.9987
vn 0.8660 -0.0132 -0.5000
vn -0.1557 0.8706 0.4667
s off
f 4/1/1 3/2/1 1/3/1
f 2/4/2 3/2/2 4/1/2
f 7/5/3 6/6/3 1/3/3
f 5/7/4 6/6/4 7/5/4
f 10/8/5 9/9/5 1/3/5
f 8/10/6 9/9/6 10/8/6
f 13/11/7 12/12/7 1/3/7
f 11/13/8 12/12/8 13/11/8
f 16/14/9 15/15/9 1/3/9
f 14/16/10 15/15/10 16/14/10
f 19/17/11 18/18/11 1/3/11
f 17/19/12 18/18/12 19/17/12
f 23/20/13 20/21/13 22/22/13
f 21/23/14 23/20/14 22/22/14
f 26/24/15 20/21/15 25/25/15
f 24/26/16 26/24/16 25/25/16
f 29/27/17 20/21/17 28/28/17
f 27/29/18 29/27/18 28/28/18
f 32/30/19 20/21/19 31/31/19
f 30/32/20 32/30/20 31/31/20
f 35/33/21 20/21/21 34/34/21
f 33/35/22 35/33/22 34/34/22
f 38/36/23 20/21/23 37/37/23
f 36/38/24 38/36/24 37/37/24
f 45/39/25 40/40/25 42/41/25 46/42/25
f 46/42/26 42/41/26 44/43/26 47/44/26
f 47/45/27 44/46/27 40/40/27 45/39/27
f 43/47/28 47/45/28 45/39/28 39/48/28
f 41/49/29 46/42/29 47/44/29 43/50/29
f 39/48/30 45/39/30 46/42/30 41/49/30
f 49/51/31 50/52/31 51/53/31 52/54/31
f 48/55/31 49/51/31 52/54/31
