# Blender v2.78 (sub 0) OBJ File: 'Low_Poly_Vegetation_Pack.blend'
# www.blender.org
g Flower_f_TwoS_12
v -0.005526 0.000000 0.006659
v 0.005525 0.000000 -0.006660
v -0.196241 0.305730 -0.162820
v -0.118706 0.227055 -0.066182
v -0.059086 0.117104 -0.007288
v -0.018069 0.117104 -0.056726
v -0.086954 0.227055 -0.104452
v -0.005668 -0.000079 0.006542
v 0.005383 -0.000079 -0.006777
v -0.196325 0.305562 -0.162889
v -0.118813 0.226910 -0.066270
v -0.059219 0.117002 -0.007398
v -0.018201 0.117002 -0.056836
v -0.087060 0.226910 -0.104540
v 0.206149 0.215602 -0.026961
v 0.211312 0.251632 0.042761
v 0.151981 0.233698 -0.034125
v 0.155124 0.262843 0.039820
v 0.233486 0.218082 0.014829
v 0.151390 0.236337 0.011178
v 0.094668 0.298122 -0.002561
v 0.203977 0.235932 0.040069
v 0.222816 0.317449 0.043255
v 0.149861 0.250351 0.036491
v 0.168819 0.332359 0.029773
v 0.239292 0.274029 0.064035
v 0.158695 0.291476 0.051675
v 0.094684 0.298198 -0.002526
v 0.237389 0.310498 0.044971
v 0.239796 0.290349 -0.040009
v 0.172403 0.328671 0.031097
v 0.175367 0.306962 -0.042848
v 0.271648 0.317413 0.002049
v 0.179975 0.342423 -0.008969
v 0.094668 0.298244 -0.002607
v 0.231114 0.306957 -0.051197
v 0.215773 0.226818 -0.017656
v 0.172407 0.317479 -0.045240
v 0.156903 0.234995 -0.025159
v 0.252251 0.258047 -0.050075
v 0.165977 0.274318 -0.049158
v 0.094668 0.298158 -0.002642
v 0.206093 0.215401 -0.026932
v 0.211274 0.251484 0.042906
v 0.151877 0.233516 -0.034105
v 0.155033 0.262710 0.039956
v 0.233437 0.217899 0.014920
v 0.151287 0.236171 0.011258
v 0.094513 0.297993 -0.002500
v 0.203937 0.235859 0.040263
v 0.222803 0.317543 0.043443
v 0.149774 0.250296 0.036675
v 0.168758 0.332461 0.029947
v 0.239262 0.274039 0.064243
v 0.158616 0.291503 0.051868
v 0.094553 0.298240 -0.002366
v 0.237432 0.310692 0.045040
v 0.239848 0.290494 -0.040153
v 0.172381 0.328871 0.031159
v 0.175356 0.307113 -0.042995
v 0.271703 0.317612 0.002006
v 0.179961 0.342627 -0.009019
v 0.094572 0.298422 -0.002663
v 0.231105 0.306962 -0.051407
v 0.215759 0.226692 -0.017824
v 0.172352 0.317497 -0.045443
v 0.156837 0.234891 -0.025329
v 0.252239 0.257981 -0.050275
v 0.165913 0.274274 -0.049353
v 0.094549 0.298139 -0.002815
v 0.098354 0.296905 -0.000260
v 0.099698 0.294127 -0.002866
v 0.098653 0.297798 -0.004187
v 0.151852 0.305127 0.012028
v 0.153355 0.302019 0.009113
v 0.152186 0.306125 0.007635
v 0.100439 0.297534 0.001366
v 0.099340 0.293582 -0.002484
v 0.100926 0.298729 -0.004109
v 0.169143 0.262871 0.008749
v 0.167914 0.258451 0.004442
v 0.169688 0.264208 0.002624
v 0.000416 0.000000 0.006730
v 0.101312 0.296766 0.000570
v -0.006659 0.000000 -0.002728
v 0.099137 0.300157 -0.004776
v 0.005069 0.000000 -0.004126
v 0.100069 0.294227 -0.004974
v 0.013117 0.151648 0.002229
v 0.006725 0.151313 -0.006536
v 0.016958 0.150575 -0.007619
v 0.047999 0.259462 0.001399
v 0.044579 0.262460 -0.005656
v 0.048542 0.257305 -0.006297
vt 0.4263 0.7043
vt 0.4376 0.7043
vt 0.4319 0.7369
vt 0.4300 0.6444
vt 0.4339 0.6444
vt 0.4392 0.6732
vt 0.4247 0.6732
vt 0.4263 0.7043
vt 0.4319 0.7369
vt 0.4376 0.7043
vt 0.4300 0.6444
vt 0.4247 0.6732
vt 0.4392 0.6732
vt 0.4339 0.6444
vt 0.8107 0.3106
vt 0.8129 0.2579
vt 0.8349 0.3094
vt 0.8321 0.3464
vt 0.8088 0.3635
vt 0.7826 0.3072
vt 0.7826 0.3441
vt 0.8121 0.3122
vt 0.8133 0.2604
vt 0.8414 0.3095
vt 0.8389 0.3466
vt 0.8108 0.3644
vt 0.7884 0.3088
vt 0.7839 0.3449
vt 0.8124 0.3141
vt 0.8131 0.2593
vt 0.8369 0.3113
vt 0.8403 0.3488
vt 0.8116 0.3672
vt 0.7915 0.3110
vt 0.7861 0.3492
vt 0.8121 0.3122
vt 0.8129 0.2579
vt 0.8408 0.3085
vt 0.8408 0.3479
vt 0.8114 0.3671
vt 0.7854 0.3082
vt 0.7828 0.3468
vt 0.8107 0.3106
vt 0.8349 0.3094
vt 0.8129 0.2579
vt 0.8088 0.3635
vt 0.8321 0.3464
vt 0.7826 0.3072
vt 0.7826 0.3441
vt 0.8121 0.3122
vt 0.8414 0.3095
vt 0.8133 0.2604
vt 0.8108 0.3644
vt 0.8389 0.3466
vt 0.7884 0.3088
vt 0.7839 0.3449
vt 0.8124 0.3141
vt 0.8369 0.3113
vt 0.8131 0.2593
vt 0.8116 0.3672
vt 0.8403 0.3488
vt 0.7915 0.3110
vt 0.7861 0.3492
vt 0.8121 0.3122
vt 0.8408 0.3085
vt 0.8129 0.2579
vt 0.8114 0.3671
vt 0.8408 0.3479
vt 0.7854 0.3082
vt 0.7828 0.3468
vt 0.3155 0.2739
vt 0.3155 0.3464
vt 0.3098 0.3468
vt 0.3104 0.2732
vt 0.3043 0.3478
vt 0.3054 0.2741
vt 0.3155 0.2732
vt 0.3206 0.2762
vt 0.3155 0.2791
vt 0.3054 0.2741
vt 0.3043 0.3478
vt 0.2990 0.3463
vt 0.3001 0.2738
vt 0.2990 0.3463
vt 0.3001 0.2738
vt 0.3155 0.2739
vt 0.3155 0.3464
vt 0.3098 0.3468
vt 0.3104 0.2732
vt 0.3155 0.2732
vt 0.3206 0.2762
vt 0.3155 0.2791
vt 0.4428 0.7104
vt 0.4424 0.7316
vt 0.4374 0.7316
vt 0.4363 0.7102
vt 0.4323 0.7316
vt 0.4323 0.7104
vt 0.4485 0.7105
vt 0.4477 0.7316
vt 0.4477 0.6427
vt 0.4493 0.6894
vt 0.4433 0.6893
vt 0.4425 0.6427
vt 0.4374 0.6427
vt 0.4351 0.6887
vt 0.4323 0.6892
vt 0.4323 0.6427
vn 0.4186 0.8391 0.3473
vn 0.7075 0.3935 0.5870
vn 0.6129 0.6047 0.5085
vn -0.4186 -0.8392 -0.3473
vn -0.7075 -0.3935 -0.5870
vn -0.6129 -0.6047 -0.5085
vn 0.6736 0.4966 -0.5474
vn 0.1826 0.7033 -0.6870
vn 0.7396 0.6724 -0.0295
vn 0.2655 0.9542 -0.1376
vn 0.5290 -0.4988 -0.6866
vn 0.0639 -0.4469 -0.8923
vn 0.6484 0.1372 -0.7488
vn 0.1908 0.3474 -0.9181
vn 0.3905 -0.6620 0.6398
vn -0.2441 -0.6879 0.6836
vn 0.4361 -0.8733 -0.2173
vn -0.2015 -0.9218 -0.3311
vn 0.5902 0.3169 0.7424
vn 0.0644 0.5976 0.7992
vn 0.5038 -0.1522 0.8503
vn 0.0430 -0.0235 0.9988
vn -0.6736 -0.4968 0.5473
vn -0.1828 -0.7035 0.6868
vn -0.7395 -0.6725 0.0297
vn -0.2656 -0.9542 0.1378
vn -0.5290 0.4986 0.6868
vn -0.0640 0.4466 0.8924
vn -0.6484 -0.1370 0.7489
vn -0.1908 -0.3470 0.9183
vn -0.3905 0.6623 -0.6394
vn 0.2441 0.6883 -0.6831
vn -0.4360 0.8734 0.2168
vn 0.2015 0.9221 0.3305
vn -0.5902 -0.3169 -0.7425
vn -0.0645 -0.5973 -0.7994
vn -0.5037 0.1520 -0.8504
vn -0.0431 0.0232 -0.9988
vn -0.1942 0.9597 0.2033
vn 0.2471 -0.2653 -0.9320
vn 0.9370 0.3185 0.1437
vn -0.3750 -0.5913 0.7139
vn -0.0569 -0.6975 0.7143
vn 0.4187 0.8787 0.2291
vn -0.0502 -0.2866 -0.9567
vn 0.9574 -0.2880 0.0223
vn -0.4721 0.6787 0.5626
vn -0.0247 0.0646 -0.9976
vn 0.5585 -0.7906 0.2510
vn 0.9220 -0.0649 0.3817
vn -0.1128 -0.0146 -0.9935
vn -0.8020 0.0853 0.5912
vn 0.9164 -0.2846 0.2814
vn -0.1029 0.0428 -0.9938
vn -0.7988 0.2652 0.5400
s off
f 4/1/1 7/2/1 3/3/1
f 1/4/2 2/5/2 6/6/2 5/7/2
f 5/7/3 6/6/3 7/2/3 4/1/3
f 11/8/4 10/9/4 14/10/4
f 8/11/5 12/12/5 13/13/5 9/14/5
f 12/12/6 11/8/6 14/10/6 13/13/6
f 20/15/7 21/16/7 18/17/7
f 20/15/8 18/17/8 16/18/8 19/19/8
f 17/20/9 21/16/9 20/15/9
f 17/20/10 20/15/10 19/19/10 15/21/10
f 27/22/11 28/23/11 25/24/11
f 27/22/12 25/24/12 23/25/12 26/26/12
f 24/27/13 28/23/13 27/22/13
f 24/27/14 27/22/14 26/26/14 22/28/14
f 34/29/15 35/30/15 32/31/15
f 34/29/16 32/31/16 30/32/16 33/33/16
f 31/34/17 35/30/17 34/29/17
f 31/34/18 34/29/18 33/33/18 29/35/18
f 41/36/19 42/37/19 39/38/19
f 41/36/20 39/38/20 37/39/20 40/40/20
f 38/41/21 42/37/21 41/36/21
f 38/41/22 41/36/22 40/40/22 36/42/22
f 48/43/23 46/44/23 49/45/23
f 48/43/24 47/46/24 44/47/24 46/44/24
f 45/48/25 48/43/25 49/45/25
f 45/48/26 43/49/26 47/46/26 48/43/26
f 55/50/27 53/51/27 56/52/27
f 55/50/28 54/53/28 51/54/28 53/51/28
f 52/55/29 55/50/29 56/52/29
f 52/55/30 50/56/30 54/53/30 55/50/30
f 62/57/31 60/58/31 63/59/31
f 62/57/32 61/60/32 58/61/32 60/58/32
f 59/62/33 62/57/33 63/59/33
f 59/62/34 57/63/34 61/60/34 62/57/34
f 69/64/35 67/65/35 70/66/35
f 69/64/36 68/67/36 65/68/36 67/65/36
f 66/69/37 69/64/37 70/66/37
f 66/69/38 64/70/38 68/67/38 69/64/38
f 71/71/39 74/72/39 76/73/39 73/74/39
f 73/74/40 76/73/40 75/75/40 72/76/40
f 75/77/41 76/78/41 74/79/41
f 78/80/42 81/81/42 80/82/42 77/83/42
f 72/76/43 75/75/43 74/84/43 71/85/43
f 77/86/44 80/87/44 82/88/44 79/89/44
f 79/89/45 82/88/45 81/81/45 78/80/45
f 81/90/46 82/91/46 80/92/46
f 92/93/47 84/94/47 86/95/47 93/96/47
f 93/96/48 86/95/48 88/97/48 94/98/48
f 94/99/49 88/100/49 84/94/49 92/93/49
f 87/101/50 91/102/50 89/103/50 83/104/50
f 85/105/51 90/106/51 91/107/51 87/108/51
f 83/104/52 89/103/52 90/106/52 85/105/52
f 91/102/53 94/99/53 92/93/53 89/103/53
f 90/106/54 93/96/54 94/98/54 91/107/54
f 89/103/55 92/93/55 93/96/55 90/106/55
