# Blender v2.78 (sub 0) OBJ File: 'Low_Poly_Vegetation_Pack.blend'
# www.blender.org
g Flower_a_TwoS_03
v 0.069707 0.471304 0.252413
v -0.078435 0.471304 0.249841
v -0.006236 0.422595 0.358979
v -0.000624 0.445965 0.035743
v 0.053344 0.443182 0.131077
v -0.057870 0.443182 0.129147
v 0.173263 0.595245 0.039363
v 0.171035 0.521200 0.167680
v 0.289804 0.568372 0.111421
v 0.082954 0.512527 0.011385
v 0.081281 0.456939 0.107716
v -0.073205 0.645142 -0.051410
v 0.074938 0.645142 -0.048838
v 0.002536 0.714149 -0.146266
v -0.055370 0.526284 -0.014863
v 0.055845 0.526284 -0.012933
v -0.176761 0.521200 0.161641
v -0.174533 0.595245 0.033325
v -0.293505 0.568372 0.101294
v -0.084979 0.456939 0.104829
v -0.083306 0.512527 0.008499
v 0.069708 0.471104 0.252405
v -0.078435 0.471104 0.249833
v -0.006235 0.422413 0.358897
v -0.000623 0.445792 0.035643
v 0.053344 0.442984 0.131104
v -0.057870 0.442984 0.129173
v 0.173358 0.595092 0.039276
v 0.171130 0.521046 0.167593
v 0.289826 0.568200 0.111322
v 0.083077 0.512389 0.011308
v 0.081404 0.456802 0.107639
v -0.073202 0.645035 -0.051579
v 0.074941 0.645035 -0.049006
v 0.002538 0.713987 -0.146382
v -0.055366 0.526207 -0.015048
v 0.055848 0.526207 -0.013117
v -0.176852 0.521046 0.161551
v -0.174624 0.595092 0.033235
v -0.293523 0.568200 0.101194
v -0.085099 0.456802 0.104748
v -0.083427 0.512389 0.008418
v -0.009999 0.000000 -0.000174
v -0.006893 0.461054 0.051775
v 0.005150 0.000000 -0.008572
v 0.007916 0.465517 0.043981
v 0.004849 0.000000 0.008746
v 0.008276 0.457696 0.059431
v 0.004916 0.250062 0.007699
v 0.020065 0.250062 -0.000700
v 0.019764 0.250062 0.016618
v -0.055863 0.470968 0.049211
v -0.018651 0.444827 0.095171
v 0.043132 0.454812 0.078935
v 0.044104 0.487124 0.022940
v -0.017078 0.497109 0.004570
vt 0.0397 0.4374
vt 0.0884 0.4374
vt 0.0640 0.4862
vt 0.0431 0.4115
vt 0.0849 0.4115
vt 0.0640 0.3802
vt 0.0397 0.4374
vt 0.0884 0.4374
vt 0.0640 0.4862
vt 0.0431 0.4115
vt 0.0849 0.4115
vt 0.0397 0.4374
vt 0.0884 0.4374
vt 0.0640 0.4862
vt 0.0431 0.4115
vt 0.0849 0.4115
vt 0.0397 0.4374
vt 0.0884 0.4374
vt 0.0640 0.4862
vt 0.0431 0.4115
vt 0.0849 0.4115
vt 0.0397 0.4374
vt 0.0640 0.4862
vt 0.0884 0.4374
vt 0.0849 0.4115
vt 0.0431 0.4115
vt 0.0640 0.3802
vt 0.0397 0.4374
vt 0.0640 0.4862
vt 0.0884 0.4374
vt 0.0849 0.4115
vt 0.0431 0.4115
vt 0.0397 0.4374
vt 0.0640 0.4862
vt 0.0884 0.4374
vt 0.0849 0.4115
vt 0.0431 0.4115
vt 0.0397 0.4374
vt 0.0640 0.4862
vt 0.0884 0.4374
vt 0.0849 0.4115
vt 0.0431 0.4115
vt 0.5633 0.6880
vt 0.5633 0.7362
vt 0.5577 0.7362
vt 0.5577 0.6880
vt 0.5522 0.7362
vt 0.5522 0.6880
vt 0.5688 0.6880
vt 0.5688 0.7362
vt 0.5688 0.6398
vt 0.5633 0.6398
vt 0.5577 0.6398
vt 0.5522 0.6398
vt 0.2733 0.4249
vt 0.3112 0.3973
vt 0.3491 0.4249
vt 0.3346 0.4694
vt 0.2878 0.4694
vn -0.0071 0.9114 0.4115
vn 0.0039 0.9741 -0.2263
vn -0.0005 0.9996 0.0295
vn -0.1076 0.8619 0.4955
vn -0.6890 0.6328 0.3532
vn -0.4816 0.7627 0.4317
vn -0.0101 0.8124 0.5830
vn -0.0166 0.2916 0.9564
vn -0.0148 0.5258 0.8505
vn 0.0904 0.8619 0.4989
vn 0.6764 0.6328 0.3769
vn 0.4663 0.7627 0.4482
vn 0.0071 -0.9113 -0.4116
vn -0.0039 -0.9740 0.2263
vn 0.0005 -0.9996 -0.0297
vn 0.1075 -0.8619 -0.4955
vn 0.6891 -0.6328 -0.3532
vn 0.4814 -0.7628 -0.4318
vn 0.0101 -0.8125 -0.5829
vn 0.0166 -0.2915 -0.9564
vn 0.0148 -0.5260 -0.8504
vn -0.0902 -0.8619 -0.4989
vn -0.6764 -0.6328 -0.3769
vn -0.4661 -0.7628 -0.4483
vn -0.4874 0.1516 -0.8599
vn 0.9985 0.0535 0.0110
vn -0.4906 -0.2032 0.8474
vn -0.5150 0.0037 0.8572
vn 0.9980 -0.0601 0.0173
vn -0.4841 0.0564 -0.8732
vn -0.0087 0.8662 0.4997
s off
f 1/1/1 2/2/1 3/3/1
f 2/2/2 1/1/2 5/4/2 6/5/2
f 6/5/3 5/4/3 4/6/3
f 7/7/4 8/8/4 9/9/4
f 8/8/5 7/7/5 10/10/5 11/11/5
f 11/11/6 10/10/6 4/6/6
f 12/12/7 13/13/7 14/14/7
f 13/13/8 12/12/8 15/15/8 16/16/8
f 16/16/9 15/15/9 4/6/9
f 17/17/10 18/18/10 19/19/10
f 18/18/11 17/17/11 20/20/11 21/21/11
f 21/21/12 20/20/12 4/6/12
f 22/22/13 24/23/13 23/24/13
f 23/24/14 27/25/14 26/26/14 22/22/14
f 27/25/15 25/27/15 26/26/15
f 28/28/16 30/29/16 29/30/16
f 29/30/17 32/31/17 31/32/17 28/28/17
f 32/31/18 25/27/18 31/32/18
f 33/33/19 35/34/19 34/35/19
f 34/35/20 37/36/20 36/37/20 33/33/20
f 37/36/21 25/27/21 36/37/21
f 38/38/22 40/39/22 39/40/22
f 39/40/23 42/41/23 41/42/23 38/38/23
f 42/41/24 25/27/24 41/42/24
f 49/43/25 44/44/25 46/45/25 50/46/25
f 50/46/26 46/45/26 48/47/26 51/48/26
f 51/49/27 48/50/27 44/44/27 49/43/27
f 47/51/28 51/49/28 49/43/28 43/52/28
f 45/53/29 50/46/29 51/48/29 47/54/29
f 43/52/30 49/43/30 50/46/30 45/53/30
f 53/55/31 54/56/31 55/57/31 56/58/31
f 52/59/31 53/55/31 56/58/31
