# Blender v2.78 (sub 0) OBJ File: 'Low_Poly_Vegetation_Pack.blend'
# www.blender.org
g Flower_e_TwoS_04
v -0.013210 0.204195 0.009033
v -0.042417 0.164154 0.073113
v -0.060873 0.161463 0.058680
v -0.011161 0.186524 0.059593
v -0.058946 0.179556 0.022224
v -0.086010 0.170156 0.006370
v -0.084199 0.176229 -0.016346
v -0.056482 0.182642 0.031517
v -0.051792 0.198366 -0.027298
v -0.052083 0.196066 -0.061112
v -0.031816 0.204830 -0.069395
v -0.056289 0.193599 -0.020660
v -0.003814 0.216291 -0.042105
v 0.024199 0.219682 -0.060958
v 0.041895 0.224649 -0.045977
v -0.012013 0.212146 -0.043867
v 0.035772 0.219114 -0.006497
v 0.065531 0.220449 0.007415
v 0.063719 0.214376 0.030131
v 0.031047 0.222798 -0.014161
v 0.026357 0.207074 0.044654
v 0.032685 0.191301 0.074118
v 0.012418 0.182537 0.082400
v 0.031936 0.208603 0.037236
v -0.020539 0.185911 0.058681
v -0.013148 0.204010 0.008987
v -0.042333 0.163990 0.073036
v -0.060788 0.161298 0.058603
v -0.011081 0.186355 0.059522
v -0.058866 0.179387 0.022153
v -0.085908 0.169988 0.006333
v -0.084096 0.176061 -0.016383
v -0.056395 0.182467 0.031477
v -0.051705 0.198190 -0.027338
v -0.052005 0.195882 -0.061115
v -0.031737 0.204646 -0.069398
v -0.056215 0.193414 -0.020676
v -0.003740 0.216105 -0.042122
v 0.024244 0.219487 -0.060969
v 0.041939 0.224454 -0.045988
v -0.011966 0.211953 -0.043886
v 0.035819 0.218921 -0.006516
v 0.065549 0.220256 0.007365
v 0.063738 0.214183 0.030081
v 0.031083 0.222607 -0.014209
v 0.026393 0.206883 0.044606
v 0.032727 0.191124 0.074034
v 0.012460 0.182360 0.082317
v 0.031984 0.208423 0.037164
v -0.020491 0.185731 0.058609
v -0.001054 0.000000 0.006069
v -0.014132 0.202292 0.013621
v -0.004729 0.000000 -0.003947
v -0.016768 0.202895 0.006536
v 0.005783 0.000000 -0.002122
v -0.011368 0.204316 0.008572
v -0.000775 0.107146 0.002438
v -0.004365 0.106351 -0.007422
v 0.006126 0.106639 -0.005601
v -0.025147 0.196596 0.025714
v -0.000698 0.204460 0.026976
v 0.006303 0.212436 0.003554
v -0.013821 0.209502 -0.012184
v -0.033258 0.199712 0.001512
vt 0.6545 0.3170
vt 0.7274 0.3170
vt 0.7051 0.3591
vt 0.6769 0.3591
vt 0.6910 0.2648
vt 0.6545 0.3170
vt 0.7274 0.3170
vt 0.7051 0.3591
vt 0.6769 0.3591
vt 0.6910 0.2644
vt 0.6545 0.3170
vt 0.7274 0.3170
vt 0.7051 0.3591
vt 0.6769 0.3591
vt 0.6910 0.2646
vt 0.6545 0.3170
vt 0.7274 0.3167
vt 0.7054 0.3590
vt 0.6771 0.3590
vt 0.6907 0.2646
vt 0.6545 0.3170
vt 0.7274 0.3170
vt 0.7051 0.3591
vt 0.6769 0.3591
vt 0.6545 0.3170
vt 0.7274 0.3170
vt 0.7051 0.3591
vt 0.6769 0.3591
vt 0.6910 0.2647
vt 0.6545 0.3170
vt 0.6769 0.3591
vt 0.7051 0.3591
vt 0.7274 0.3170
vt 0.6910 0.2648
vt 0.6545 0.3170
vt 0.6769 0.3591
vt 0.7051 0.3591
vt 0.7274 0.3170
vt 0.6910 0.2644
vt 0.6545 0.3170
vt 0.6769 0.3591
vt 0.7051 0.3591
vt 0.7274 0.3170
vt 0.6910 0.2646
vt 0.6545 0.3170
vt 0.6771 0.3590
vt 0.7054 0.3590
vt 0.7274 0.3167
vt 0.6907 0.2646
vt 0.6545 0.3170
vt 0.6769 0.3591
vt 0.7051 0.3591
vt 0.7274 0.3170
vt 0.6545 0.3170
vt 0.6769 0.3591
vt 0.7051 0.3591
vt 0.7274 0.3170
vt 0.6910 0.2647
vt 0.8123 0.6904
vt 0.8123 0.7329
vt 0.8074 0.7329
vt 0.8074 0.6904
vt 0.8025 0.7329
vt 0.8025 0.6904
vt 0.8172 0.6904
vt 0.8172 0.7329
vt 0.8172 0.6479
vt 0.8123 0.6479
vt 0.8074 0.6479
vt 0.8025 0.6479
vt 0.4369 0.3551
vt 0.4619 0.2780
vt 0.4774 0.3256
vt 0.3963 0.3256
vt 0.4118 0.2780
vn -0.4210 0.8211 0.3853
vn -0.3765 0.8697 0.3192
vn -0.5114 0.8395 0.1837
vn -0.3425 0.9141 0.2171
vn -0.3916 0.9200 0.0154
vn -0.3370 0.9282 0.1576
vn -0.2234 0.9730 0.0576
vn -0.2481 0.9588 0.1385
vn -0.0910 0.9638 0.2504
vn -0.2733 0.9345 0.2280
vn -0.2109 0.8833 0.4187
vn -0.2745 0.9148 0.2964
vn 0.4210 -0.8211 -0.3853
vn 0.3765 -0.8697 -0.3192
vn 0.5114 -0.8395 -0.1836
vn 0.3425 -0.9141 -0.2171
vn 0.3916 -0.9200 -0.0154
vn 0.3370 -0.9282 -0.1576
vn 0.2234 -0.9730 -0.0576
vn 0.2481 -0.9588 -0.1385
vn 0.0910 -0.9638 -0.2504
vn 0.2733 -0.9345 -0.2280
vn 0.2109 -0.8833 -0.4187
vn 0.2745 -0.9148 -0.2964
vn -0.9245 -0.1690 0.3415
vn 0.2148 0.1723 -0.9613
vn 0.8007 0.0496 0.5970
vn 0.7634 0.0193 0.6456
vn 0.1714 -0.0327 -0.9847
vn -0.9393 0.0142 0.3427
vn -0.3089 0.9247 0.2226
s off
f 4/1/1 5/2/1 3/3/1 2/4/1
f 1/5/2 5/2/2 4/1/2
f 8/6/3 9/7/3 7/8/3 6/9/3
f 1/10/4 9/7/4 8/6/4
f 12/11/5 13/12/5 11/13/5 10/14/5
f 1/15/6 13/12/6 12/11/6
f 16/16/7 17/17/7 15/18/7 14/19/7
f 1/20/8 17/17/8 16/16/8
f 20/21/9 21/22/9 19/23/9 18/24/9
f 1/10/10 21/22/10 20/21/10
f 24/25/11 25/26/11 23/27/11 22/28/11
f 1/29/12 25/26/12 24/25/12
f 29/30/13 27/31/13 28/32/13 30/33/13
f 26/34/14 29/30/14 30/33/14
f 33/35/15 31/36/15 32/37/15 34/38/15
f 26/39/16 33/35/16 34/38/16
f 37/40/17 35/41/17 36/42/17 38/43/17
f 26/44/18 37/40/18 38/43/18
f 41/45/19 39/46/19 40/47/19 42/48/19
f 26/49/20 41/45/20 42/48/20
f 45/50/21 43/51/21 44/52/21 46/53/21
f 26/39/22 45/50/22 46/53/22
f 49/54/23 47/55/23 48/56/23 50/57/23
f 26/58/24 49/54/24 50/57/24
f 57/59/25 52/60/25 54/61/25 58/62/25
f 58/62/26 54/61/26 56/63/26 59/64/26
f 59/65/27 56/66/27 52/60/27 57/59/27
f 55/67/28 59/65/28 57/59/28 51/68/28
f 53/69/29 58/62/29 59/64/29 55/70/29
f 51/68/30 57/59/30 58/62/30 53/69/30
f 60/71/31 63/72/31 64/73/31
f 61/74/31 62/75/31 63/72/31 60/71/31
