# Blender v2.78 (sub 0) OBJ File: 'Low_Poly_Vegetation_Pack.blend'
# www.blender.org
g Flower_e_TwoS_02
v 0.014877 0.176852 0.045507
v 0.082228 0.204325 0.088114
v 0.077154 0.193247 0.099905
v 0.064938 0.199787 0.049235
v 0.048554 0.164017 0.087306
v 0.047138 0.178727 0.125759
v 0.030871 0.178268 0.130518
v 0.056482 0.174110 0.089929
v 0.002731 0.168286 0.100690
v -0.008693 0.192081 0.126470
v -0.019886 0.202700 0.119438
v 0.010181 0.164502 0.100341
v -0.025961 0.198790 0.077637
v -0.028886 0.232974 0.091597
v -0.023476 0.245244 0.081070
v -0.024530 0.191674 0.081840
v -0.008146 0.227445 0.043769
v 0.007204 0.262116 0.057712
v 0.023471 0.262576 0.052953
v -0.013602 0.226112 0.050442
v 0.038924 0.227595 0.035075
v 0.062556 0.247067 0.055202
v 0.073750 0.236448 0.062234
v 0.030877 0.229265 0.033181
v 0.067019 0.194977 0.055885
v 0.014842 0.176717 0.045364
v 0.082377 0.204202 0.088062
v 0.077302 0.193123 0.099853
v 0.065055 0.199647 0.049154
v 0.048671 0.163876 0.087225
v 0.047164 0.178532 0.125795
v 0.030896 0.178073 0.130554
v 0.056503 0.173912 0.089935
v 0.002751 0.168087 0.100692
v -0.008839 0.191949 0.126503
v -0.020033 0.202568 0.119472
v 0.010045 0.164355 0.100336
v -0.026097 0.198643 0.077632
v -0.029070 0.232977 0.091517
v -0.023659 0.245247 0.080990
v -0.024698 0.191641 0.081735
v -0.008314 0.227412 0.043665
v 0.007149 0.262184 0.057532
v 0.023417 0.262644 0.052773
v -0.013659 0.226141 0.050252
v 0.038868 0.227624 0.034885
v 0.062668 0.247074 0.055036
v 0.073861 0.236455 0.062068
v 0.030964 0.229238 0.033003
v 0.067106 0.194951 0.055706
v -0.002589 0.000000 -0.005589
v 0.015675 0.188519 0.051727
v 0.006135 0.000000 0.000552
v 0.021541 0.183376 0.054315
v -0.003546 0.000000 0.005037
v 0.016807 0.182859 0.055740
v -0.000751 0.107146 -0.002446
v 0.007814 0.106351 0.003617
v -0.001847 0.106639 0.008092
v 0.031376 0.177243 0.058609
v 0.030366 0.191347 0.045585
v 0.012130 0.197372 0.044756
v 0.001869 0.186993 0.057267
v 0.013764 0.174552 0.065829
vt 0.6532 0.3164
vt 0.7178 0.3164
vt 0.6980 0.3537
vt 0.6730 0.3537
vt 0.6855 0.2702
vt 0.6532 0.3164
vt 0.7178 0.3164
vt 0.6980 0.3537
vt 0.6730 0.3537
vt 0.6855 0.2698
vt 0.6532 0.3164
vt 0.7178 0.3164
vt 0.6980 0.3537
vt 0.6730 0.3537
vt 0.6855 0.2700
vt 0.6532 0.3164
vt 0.7178 0.3161
vt 0.6983 0.3537
vt 0.6732 0.3537
vt 0.6853 0.2700
vt 0.6532 0.3164
vt 0.7178 0.3164
vt 0.6980 0.3537
vt 0.6730 0.3537
vt 0.6532 0.3164
vt 0.7178 0.3164
vt 0.6980 0.3537
vt 0.6730 0.3537
vt 0.6532 0.3164
vt 0.6730 0.3537
vt 0.6980 0.3537
vt 0.7178 0.3164
vt 0.6855 0.2702
vt 0.6532 0.3164
vt 0.6730 0.3537
vt 0.6980 0.3537
vt 0.7178 0.3164
vt 0.6855 0.2698
vt 0.6532 0.3164
vt 0.6730 0.3537
vt 0.6980 0.3537
vt 0.7178 0.3164
vt 0.6855 0.2700
vt 0.6532 0.3164
vt 0.6732 0.3537
vt 0.6983 0.3537
vt 0.7178 0.3161
vt 0.6853 0.2700
vt 0.6532 0.3164
vt 0.6730 0.3537
vt 0.6980 0.3537
vt 0.7178 0.3164
vt 0.6532 0.3164
vt 0.6730 0.3537
vt 0.6980 0.3537
vt 0.7178 0.3164
vt 0.8206 0.6886
vt 0.8206 0.7332
vt 0.8154 0.7332
vt 0.8154 0.6886
vt 0.8102 0.7332
vt 0.8102 0.6886
vt 0.8257 0.6886
vt 0.8257 0.7332
vt 0.8257 0.6439
vt 0.8206 0.6439
vt 0.8154 0.6439
vt 0.8102 0.6439
vt 0.4350 0.3487
vt 0.4571 0.2807
vt 0.4708 0.3227
vt 0.3993 0.3227
vt 0.4129 0.2807
vn -0.7438 0.6162 0.2589
vn -0.3836 0.7497 0.5393
vn -0.1275 0.9753 -0.1803
vn -0.0798 0.9875 0.1357
vn 0.7320 0.6602 -0.1681
vn 0.5925 0.7735 0.2250
vn 0.9169 -0.0123 0.3990
vn 0.7033 0.3415 0.6235
vn 0.2729 -0.3395 0.9001
vn 0.2785 0.0650 0.9582
vn -0.5564 -0.0368 0.8301
vn -0.2858 0.3012 0.9097
vn 0.7437 -0.6163 -0.2590
vn 0.3831 -0.7497 -0.5396
vn 0.1275 -0.9753 0.1803
vn 0.0797 -0.9874 -0.1366
vn -0.7320 -0.6603 0.1680
vn -0.5922 -0.7736 -0.2256
vn -0.9168 0.0122 -0.3991
vn -0.7028 -0.3419 -0.6238
vn -0.2729 0.3394 -0.9002
vn -0.2785 -0.0658 -0.9582
vn 0.5563 0.0367 -0.8302
vn 0.2853 -0.3017 -0.9097
vn 0.5848 0.3675 -0.7232
vn 0.3222 -0.5586 0.7643
vn -0.9825 0.1705 0.0747
vn -0.9952 0.0193 -0.0961
vn 0.4197 -0.0327 0.9071
vn 0.5771 0.0142 -0.8166
vn 0.1900 0.6734 0.7145
s off
f 4/1/1 5/2/1 3/3/1 2/4/1
f 1/5/2 5/2/2 4/1/2
f 8/6/3 9/7/3 7/8/3 6/9/3
f 1/10/4 9/7/4 8/6/4
f 12/11/5 13/12/5 11/13/5 10/14/5
f 1/15/6 13/12/6 12/11/6
f 16/16/7 17/17/7 15/18/7 14/19/7
f 1/20/8 17/17/8 16/16/8
f 20/21/9 21/22/9 19/23/9 18/24/9
f 1/10/10 21/22/10 20/21/10
f 24/25/11 25/26/11 23/27/11 22/28/11
f 1/15/12 25/26/12 24/25/12
f 29/29/13 27/30/13 28/31/13 30/32/13
f 26/33/14 29/29/14 30/32/14
f 33/34/15 31/35/15 32/36/15 34/37/15
f 26/38/16 33/34/16 34/37/16
f 37/39/17 35/40/17 36/41/17 38/42/17
f 26/43/18 37/39/18 38/42/18
f 41/44/19 39/45/19 40/46/19 42/47/19
f 26/48/20 41/44/20 42/47/20
f 45/49/21 43/50/21 44/51/21 46/52/21
f 26/38/22 45/49/22 46/52/22
f 49/53/23 47/54/23 48/55/23 50/56/23
f 26/43/24 49/53/24 50/56/24
f 57/57/25 52/58/25 54/59/25 58/60/25
f 58/60/26 54/59/26 56/61/26 59/62/26
f 59/63/27 56/64/27 52/58/27 57/57/27
f 55/65/28 59/63/28 57/57/28 51/66/28
f 53/67/29 58/60/29 59/62/29 55/68/29
f 51/66/30 57/57/30 58/60/30 53/67/30
f 60/69/31 63/70/31 64/71/31
f 61/72/31 62/73/31 63/70/31 60/69/31
