# Blender v2.78 (sub 0) OBJ File: 'Low_Poly_Vegetation_Pack.blend'
# www.blender.org
g Flower_a_TwoS_05
v -0.039967 0.408629 0.163730
v -0.156449 0.484091 0.109655
v -0.177266 0.378954 0.212923
v -0.000000 0.500000 0.000001
v -0.001928 0.442472 0.099824
v -0.101833 0.507195 0.053444
v 0.165693 0.404014 -0.009241
v 0.089720 0.376392 0.115865
v 0.199628 0.285267 0.073820
v 0.104085 0.456008 -0.022556
v 0.038923 0.432317 0.084747
v 0.021916 0.548939 -0.184059
v 0.138397 0.473477 -0.129984
v 0.120300 0.487139 -0.277081
v -0.004418 0.542612 -0.106970
v 0.095488 0.477889 -0.060590
v -0.183745 0.553554 -0.011088
v -0.107772 0.581176 -0.136194
v -0.256594 0.580826 -0.137977
v -0.110432 0.529075 0.015411
v -0.045269 0.552766 -0.091892
v -0.040006 0.408479 0.163603
v -0.156487 0.483941 0.109528
v -0.177288 0.378816 0.212779
v -0.000072 0.499831 -0.000080
v -0.001982 0.442312 0.099717
v -0.101888 0.507035 0.053337
v 0.165579 0.403883 -0.009339
v 0.089605 0.376261 0.115767
v 0.199497 0.285157 0.073716
v 0.103989 0.455859 -0.022647
v 0.038827 0.432168 0.084656
v 0.021817 0.548767 -0.184087
v 0.138299 0.473305 -0.130011
v 0.120192 0.486971 -0.277083
v -0.004505 0.542440 -0.107022
v 0.095400 0.477717 -0.060642
v -0.183767 0.553363 -0.011143
v -0.107794 0.580985 -0.136250
v -0.256593 0.580630 -0.138019
v -0.110477 0.528893 0.015343
v -0.045315 0.552584 -0.091960
v 0.000000 0.000000 -0.010000
v 0.002599 0.495106 -0.009687
v 0.008660 0.000000 0.005000
v 0.003213 0.485008 0.004372
v -0.008660 0.000000 0.005000
v -0.010900 0.494517 0.001150
v -0.006123 0.250062 -0.017345
v 0.002538 0.250062 -0.002345
v -0.014783 0.250062 -0.002345
v -0.043011 0.527864 -0.019966
v -0.039972 0.498910 0.037765
v 0.018307 0.471462 0.043307
v 0.051285 0.483452 -0.010998
v 0.013389 0.518310 -0.050104
vt 0.1503 0.4431
vt 0.1931 0.4431
vt 0.1717 0.4859
vt 0.1533 0.4203
vt 0.1900 0.4203
vt 0.1717 0.3929
vt 0.1503 0.4431
vt 0.1931 0.4431
vt 0.1717 0.4859
vt 0.1533 0.4203
vt 0.1900 0.4203
vt 0.1503 0.4431
vt 0.1931 0.4431
vt 0.1717 0.4859
vt 0.1533 0.4203
vt 0.1900 0.4203
vt 0.1503 0.4431
vt 0.1931 0.4431
vt 0.1717 0.4859
vt 0.1533 0.4203
vt 0.1900 0.4203
vt 0.1503 0.4431
vt 0.1717 0.4859
vt 0.1931 0.4431
vt 0.1900 0.4203
vt 0.1533 0.4203
vt 0.1717 0.3929
vt 0.1503 0.4431
vt 0.1717 0.4859
vt 0.1931 0.4431
vt 0.1900 0.4203
vt 0.1533 0.4203
vt 0.1503 0.4431
vt 0.1717 0.4859
vt 0.1931 0.4431
vt 0.1900 0.4203
vt 0.1533 0.4203
vt 0.1503 0.4431
vt 0.1717 0.4859
vt 0.1931 0.4431
vt 0.1900 0.4203
vt 0.1533 0.4203
vt 0.5692 0.6868
vt 0.5692 0.7357
vt 0.5635 0.7357
vt 0.5635 0.6868
vt 0.5579 0.7357
vt 0.5579 0.6868
vt 0.5748 0.6868
vt 0.5748 0.7357
vt 0.5748 0.6378
vt 0.5692 0.6378
vt 0.5635 0.6378
vt 0.5579 0.6378
vt 0.2673 0.4265
vt 0.3108 0.3949
vt 0.3544 0.4265
vt 0.3378 0.4778
vt 0.2839 0.4778
vn 0.1098 0.6854 0.7199
vn 0.2480 0.7873 0.5645
vn 0.3096 0.8213 0.4793
vn 0.6545 0.5500 0.5189
vn 0.5085 0.7225 0.4683
vn 0.4289 0.7916 0.4352
vn 0.5398 0.8417 0.0118
vn 0.4537 0.8621 0.2257
vn 0.4038 0.8555 0.3241
vn -0.0048 0.9771 0.2128
vn 0.1931 0.9269 0.3219
vn 0.2844 0.8852 0.3682
vn -0.1098 -0.6853 -0.7199
vn -0.2480 -0.7873 -0.5645
vn -0.3096 -0.8213 -0.4793
vn -0.6545 -0.5499 -0.5189
vn -0.5085 -0.7225 -0.4683
vn -0.4289 -0.7916 -0.4352
vn -0.5398 -0.8417 -0.0117
vn -0.4537 -0.8621 -0.2257
vn -0.4038 -0.8555 -0.3241
vn 0.0049 -0.9771 -0.2128
vn -0.1931 -0.9269 -0.3219
vn -0.2844 -0.8852 -0.3682
vn 0.9517 -0.0094 -0.3070
vn -0.1080 -0.0201 0.9939
vn -0.7590 0.0344 -0.6502
vn -0.8655 -0.0359 -0.4997
vn -0.0000 0.0294 0.9996
vn 0.8660 0.0065 -0.5000
vn 0.3582 0.8420 0.4034
s off
f 1/1/1 2/2/1 3/3/1
f 2/2/2 1/1/2 5/4/2 6/5/2
f 6/5/3 5/4/3 4/6/3
f 7/7/4 8/8/4 9/9/4
f 8/8/5 7/7/5 10/10/5 11/11/5
f 11/11/6 10/10/6 4/6/6
f 12/12/7 13/13/7 14/14/7
f 13/13/8 12/12/8 15/15/8 16/16/8
f 16/16/9 15/15/9 4/6/9
f 17/17/10 18/18/10 19/19/10
f 18/18/11 17/17/11 20/20/11 21/21/11
f 21/21/12 20/20/12 4/6/12
f 22/22/13 24/23/13 23/24/13
f 23/24/14 27/25/14 26/26/14 22/22/14
f 27/25/15 25/27/15 26/26/15
f 28/28/16 30/29/16 29/30/16
f 29/30/17 32/31/17 31/32/17 28/28/17
f 32/31/18 25/27/18 31/32/18
f 33/33/19 35/34/19 34/35/19
f 34/35/20 37/36/20 36/37/20 33/33/20
f 37/36/21 25/27/21 36/37/21
f 38/38/22 40/39/22 39/40/22
f 39/40/23 42/41/23 41/42/23 38/38/23
f 42/41/24 25/27/24 41/42/24
f 49/43/25 44/44/25 46/45/25 50/46/25
f 50/46/26 46/45/26 48/47/26 51/48/26
f 51/49/27 48/50/27 44/44/27 49/43/27
f 47/51/28 51/49/28 49/43/28 43/52/28
f 45/53/29 50/46/29 51/48/29 47/54/29
f 43/52/30 49/43/30 50/46/30 45/53/30
f 53/55/31 54/56/31 55/57/31 56/58/31
f 52/59/31 53/55/31 56/58/31
