# Blender v2.78 (sub 0) OBJ File: 'Low_Poly_Vegetation_Pack.blend'
# www.blender.org
g Flower_e_TwoS_07
v 0.014876 0.176851 0.045507
v 0.082228 0.204324 0.088114
v 0.077153 0.193245 0.099905
v 0.064937 0.199786 0.049235
v 0.048553 0.164015 0.087306
v 0.047138 0.178726 0.125759
v 0.030870 0.178267 0.130518
v 0.056481 0.174109 0.089929
v 0.002730 0.168285 0.100690
v -0.008693 0.192080 0.126470
v -0.019886 0.202699 0.119438
v 0.010181 0.164501 0.100341
v -0.025961 0.198789 0.077637
v -0.028886 0.232973 0.091597
v -0.023476 0.245243 0.081070
v -0.024531 0.191673 0.081840
v -0.008147 0.227444 0.043769
v 0.007203 0.262115 0.057712
v 0.023471 0.262575 0.052953
v -0.013603 0.226111 0.050442
v 0.038924 0.227594 0.035075
v 0.062556 0.247066 0.055202
v 0.073749 0.236447 0.062234
v 0.030877 0.229264 0.033181
v 0.067019 0.194976 0.055885
v -0.005525 0.001274 -0.000551
v 0.005529 -0.001274 0.000546
v 0.055977 0.145354 -0.188545
v 0.023469 0.127471 -0.098064
v -0.000169 0.076260 -0.040850
v 0.040861 0.066800 -0.036778
v 0.055231 0.120148 -0.094912
v -0.006279 -0.001498 0.000489
v 0.006283 0.001498 -0.000493
v -0.069530 0.236844 -0.166819
v -0.065667 0.168313 -0.081078
v -0.046519 0.082363 -0.026773
v 0.000107 0.093485 -0.030416
v -0.029574 0.176923 -0.083898
v 0.014842 0.176716 0.045364
v 0.082376 0.204201 0.088062
v 0.077302 0.193122 0.099853
v 0.065055 0.199646 0.049154
v 0.048670 0.163875 0.087225
v 0.047163 0.178531 0.125795
v 0.030896 0.178072 0.130554
v 0.056503 0.173910 0.089935
v 0.002751 0.168086 0.100692
v -0.008840 0.191948 0.126504
v -0.020033 0.202567 0.119472
v 0.010045 0.164354 0.100336
v -0.026097 0.198642 0.077632
v -0.029070 0.232976 0.091517
v -0.023659 0.245246 0.080990
v -0.024698 0.191640 0.081735
v -0.008314 0.227411 0.043665
v 0.007149 0.262183 0.057532
v 0.023416 0.262642 0.052773
v -0.013659 0.226140 0.050252
v 0.038867 0.227622 0.034885
v 0.062667 0.247073 0.055036
v 0.073861 0.236454 0.062068
v 0.030963 0.229237 0.033003
v 0.067106 0.194950 0.055707
v -0.005530 0.001180 -0.000727
v 0.005525 -0.001369 0.000370
v 0.055938 0.145164 -0.188596
v 0.023439 0.127301 -0.098165
v -0.000181 0.076138 -0.041008
v 0.040849 0.066678 -0.036936
v 0.055202 0.119977 -0.095012
v -0.006279 -0.001560 0.000299
v 0.006283 0.001436 -0.000683
v -0.069503 0.236690 -0.166943
v -0.065648 0.168184 -0.081229
v -0.046513 0.082278 -0.026954
v 0.000113 0.093400 -0.030597
v -0.029555 0.176794 -0.084049
v -0.002591 -0.000001 -0.005589
v 0.015673 0.188517 0.051727
v 0.006133 -0.000001 0.000553
v 0.021538 0.183375 0.054315
v -0.003548 -0.000001 0.005037
v 0.016805 0.182858 0.055741
v -0.000753 0.107145 -0.002446
v 0.007812 0.106350 0.003617
v -0.001849 0.106638 0.008092
v 0.031373 0.177242 0.058609
v 0.030364 0.191345 0.045585
v 0.012128 0.197371 0.044756
v 0.001867 0.186992 0.057267
v 0.013761 0.174551 0.065829
vt 0.6553 0.3132
vt 0.7267 0.3132
vt 0.7048 0.3545
vt 0.6772 0.3545
vt 0.6910 0.2621
vt 0.6553 0.3132
vt 0.7267 0.3132
vt 0.7048 0.3545
vt 0.6772 0.3545
vt 0.6910 0.2617
vt 0.6553 0.3132
vt 0.7267 0.3132
vt 0.7048 0.3545
vt 0.6772 0.3545
vt 0.6910 0.2619
vt 0.6553 0.3132
vt 0.7267 0.3129
vt 0.7051 0.3544
vt 0.6774 0.3544
vt 0.6907 0.2619
vt 0.6553 0.3132
vt 0.7267 0.3132
vt 0.7048 0.3545
vt 0.6772 0.3545
vt 0.6553 0.3132
vt 0.7267 0.3132
vt 0.7048 0.3545
vt 0.6772 0.3545
vt 0.6910 0.2620
vt 0.0663 0.6983
vt 0.0767 0.6983
vt 0.0715 0.7283
vt 0.0697 0.6431
vt 0.0733 0.6431
vt 0.0782 0.6696
vt 0.0648 0.6696
vt 0.0663 0.6983
vt 0.0767 0.6983
vt 0.0715 0.7283
vt 0.0697 0.6431
vt 0.0733 0.6431
vt 0.0782 0.6696
vt 0.0648 0.6696
vt 0.6553 0.3132
vt 0.6772 0.3545
vt 0.7048 0.3545
vt 0.7267 0.3132
vt 0.6910 0.2621
vt 0.6553 0.3132
vt 0.6772 0.3545
vt 0.7048 0.3545
vt 0.7267 0.3132
vt 0.6910 0.2617
vt 0.6553 0.3132
vt 0.6772 0.3545
vt 0.7048 0.3545
vt 0.7267 0.3132
vt 0.6910 0.2619
vt 0.6553 0.3132
vt 0.6774 0.3544
vt 0.7051 0.3544
vt 0.7267 0.3129
vt 0.6907 0.2619
vt 0.6553 0.3132
vt 0.6772 0.3545
vt 0.7048 0.3545
vt 0.7267 0.3132
vt 0.6553 0.3132
vt 0.6772 0.3545
vt 0.7048 0.3545
vt 0.7267 0.3132
vt 0.6910 0.2620
vt 0.0663 0.6983
vt 0.0715 0.7283
vt 0.0767 0.6983
vt 0.0697 0.6431
vt 0.0648 0.6696
vt 0.0782 0.6696
vt 0.0733 0.6431
vt 0.0663 0.6983
vt 0.0715 0.7283
vt 0.0767 0.6983
vt 0.0697 0.6431
vt 0.0648 0.6696
vt 0.0782 0.6696
vt 0.0733 0.6431
vt 0.0591 0.6841
vt 0.0591 0.7268
vt 0.0542 0.7268
vt 0.0542 0.6841
vt 0.0492 0.7268
vt 0.0492 0.6841
vt 0.0640 0.6841
vt 0.0640 0.7268
vt 0.0640 0.6415
vt 0.0591 0.6415
vt 0.0542 0.6415
vt 0.0492 0.6415
vt 0.4350 0.3530
vt 0.4611 0.2728
vt 0.4772 0.3224
vt 0.3928 0.3224
vt 0.4090 0.2728
vn -0.7438 0.6162 0.2589
vn -0.3836 0.7497 0.5393
vn -0.1275 0.9753 -0.1803
vn -0.0798 0.9875 0.1357
vn 0.7320 0.6602 -0.1681
vn 0.5925 0.7735 0.2250
vn 0.9169 -0.0123 0.3990
vn 0.7033 0.3415 0.6235
vn 0.2729 -0.3395 0.9001
vn 0.2785 0.0650 0.9582
vn -0.5564 -0.0368 0.8301
vn -0.2858 0.3012 0.9097
vn 0.1929 0.9471 0.2565
vn 0.0214 0.4721 0.8813
vn 0.0982 0.7210 0.6859
vn -0.1353 0.7710 0.6223
vn 0.0005 0.3094 0.9509
vn -0.0586 0.5239 0.8498
vn 0.7437 -0.6163 -0.2590
vn 0.3831 -0.7497 -0.5396
vn 0.1275 -0.9753 0.1803
vn 0.0797 -0.9874 -0.1366
vn -0.7320 -0.6603 0.1680
vn -0.5922 -0.7736 -0.2256
vn -0.9168 0.0122 -0.3991
vn -0.7028 -0.3419 -0.6238
vn -0.2729 0.3394 -0.9002
vn -0.2785 -0.0658 -0.9582
vn 0.5563 0.0367 -0.8302
vn 0.2853 -0.3017 -0.9097
vn -0.1929 -0.9471 -0.2564
vn -0.0214 -0.4721 -0.8813
vn -0.0982 -0.7210 -0.6859
vn 0.1353 -0.7710 -0.6223
vn -0.0005 -0.3094 -0.9509
vn 0.0586 -0.5238 -0.8498
vn 0.5848 0.3675 -0.7232
vn 0.3222 -0.5586 0.7643
vn -0.9825 0.1705 0.0747
vn -0.9952 0.0193 -0.0961
vn 0.4197 -0.0327 0.9071
vn 0.5771 0.0142 -0.8166
vn 0.1900 0.6734 0.7145
s off
f 4/1/1 5/2/1 3/3/1 2/4/1
f 1/5/2 5/2/2 4/1/2
f 8/6/3 9/7/3 7/8/3 6/9/3
f 1/10/4 9/7/4 8/6/4
f 12/11/5 13/12/5 11/13/5 10/14/5
f 1/15/6 13/12/6 12/11/6
f 16/16/7 17/17/7 15/18/7 14/19/7
f 1/20/8 17/17/8 16/16/8
f 20/21/9 21/22/9 19/23/9 18/24/9
f 1/10/10 21/22/10 20/21/10
f 24/25/11 25/26/11 23/27/11 22/28/11
f 1/29/12 25/26/12 24/25/12
f 29/30/13 32/31/13 28/32/13
f 26/33/14 27/34/14 31/35/14 30/36/14
f 30/36/15 31/35/15 32/31/15 29/30/15
f 36/37/16 39/38/16 35/39/16
f 33/40/17 34/41/17 38/42/17 37/43/17
f 37/43/18 38/42/18 39/38/18 36/37/18
f 43/44/19 41/45/19 42/46/19 44/47/19
f 40/48/20 43/44/20 44/47/20
f 47/49/21 45/50/21 46/51/21 48/52/21
f 40/53/22 47/49/22 48/52/22
f 51/54/23 49/55/23 50/56/23 52/57/23
f 40/58/24 51/54/24 52/57/24
f 55/59/25 53/60/25 54/61/25 56/62/25
f 40/63/26 55/59/26 56/62/26
f 59/64/27 57/65/27 58/66/27 60/67/27
f 40/53/28 59/64/28 60/67/28
f 63/68/29 61/69/29 62/70/29 64/71/29
f 40/72/30 63/68/30 64/71/30
f 68/73/31 67/74/31 71/75/31
f 65/76/32 69/77/32 70/78/32 66/79/32
f 69/77/33 68/73/33 71/75/33 70/78/33
f 75/80/34 74/81/34 78/82/34
f 72/83/35 76/84/35 77/85/35 73/86/35
f 76/84/36 75/80/36 78/82/36 77/85/36
f 85/87/37 80/88/37 82/89/37 86/90/37
f 86/90/38 82/89/38 84/91/38 87/92/38
f 87/93/39 84/94/39 80/88/39 85/87/39
f 83/95/40 87/93/40 85/87/40 79/96/40
f 81/97/41 86/90/41 87/92/41 83/98/41
f 79/96/42 85/87/42 86/90/42 81/97/42
f 88/99/43 91/100/43 92/101/43
f 89/102/43 90/103/43 91/100/43 88/99/43
