# Blender v2.78 (sub 0) OBJ File: 'Low_Poly_Vegetation_Pack.blend'
# www.blender.org
g Flower_c_TwoS_13
v 0.065460 0.369093 -0.017618
v 0.083352 0.333679 0.086915
v 0.032913 0.299174 -0.045924
v 0.053996 0.257198 0.076275
v 0.089165 0.359150 0.034747
v 0.041625 0.285204 0.017855
v -0.016250 0.233740 0.011748
v 0.035240 0.297077 0.150276
v -0.072385 0.267933 0.158822
v 0.052246 0.255404 0.081419
v -0.075504 0.227945 0.093969
v -0.016614 0.279833 0.170723
v -0.012444 0.244802 0.088889
v -0.142069 0.267646 0.105738
v -0.159881 0.302752 0.001087
v -0.078274 0.217658 0.088262
v -0.098962 0.258118 -0.034515
v -0.167632 0.284720 0.056095
v -0.091427 0.248668 0.030990
v -0.109062 0.342919 -0.062190
v -0.006593 0.372494 -0.069710
v -0.097583 0.261337 -0.039116
v 0.027883 0.297556 -0.048321
v -0.061693 0.366457 -0.084209
v -0.037073 0.287978 -0.040461
v -0.000031 -0.001747 -0.002086
v -0.095035 0.101091 -0.144473
v 0.018177 0.120951 -0.160136
v -0.048670 0.131261 -0.205599
v -0.092490 0.045126 -0.051541
v 0.054917 0.071004 -0.071945
v -0.019254 0.066903 -0.054177
v -0.037312 0.114357 -0.149235
v 0.002051 0.012256 0.000749
v 0.119408 0.110524 -0.008595
v 0.084439 0.113001 0.088764
v 0.139527 0.123057 0.053303
v 0.065633 0.061453 -0.045972
v 0.019180 0.060714 0.080521
v 0.038053 0.058026 0.016935
v 0.100637 0.118143 0.039638
v -0.001148 0.023958 0.001719
v -0.096869 0.078241 0.106978
v -0.145557 0.070110 0.016033
v -0.157332 0.082252 0.080120
v -0.022096 0.054387 0.086875
v -0.085500 0.043797 -0.031560
v -0.052356 0.054971 0.026360
v -0.120748 0.078448 0.060874
v 0.065633 0.369017 -0.017682
v 0.083528 0.333598 0.086866
v 0.033073 0.299069 -0.045983
v 0.054154 0.257095 0.076208
v 0.089339 0.359071 0.034690
v 0.041781 0.285095 0.017791
v -0.016208 0.233557 0.011678
v 0.035301 0.296911 0.150369
v -0.072348 0.267759 0.158911
v 0.052298 0.255223 0.081487
v -0.075460 0.227761 0.094036
v -0.016565 0.279662 0.170815
v -0.012396 0.244618 0.088949
v -0.142180 0.267483 0.105704
v -0.159993 0.302590 0.001049
v -0.078363 0.217487 0.088208
v -0.099047 0.257940 -0.034547
v -0.167743 0.284558 0.056060
v -0.091511 0.248493 0.030945
v -0.109066 0.342841 -0.062375
v -0.006574 0.372422 -0.069896
v -0.097564 0.261238 -0.039289
v 0.027896 0.297456 -0.048493
v -0.061685 0.366382 -0.084394
v -0.037056 0.287875 -0.040631
v -0.000032 -0.001868 -0.002245
v -0.094996 0.100915 -0.144560
v 0.018176 0.120769 -0.160218
v -0.048646 0.131072 -0.205660
v -0.092454 0.044974 -0.051666
v 0.054902 0.070843 -0.072063
v -0.019246 0.066752 -0.054308
v -0.037292 0.114175 -0.149314
v 0.002193 0.012126 0.000801
v 0.119499 0.110353 -0.008544
v 0.084541 0.112831 0.088788
v 0.139547 0.122859 0.053316
v 0.065758 0.061307 -0.045918
v 0.019311 0.060568 0.080561
v 0.038186 0.057884 0.016984
v 0.100710 0.117960 0.039668
v -0.001226 0.023783 0.001777
v -0.096913 0.078047 0.106999
v -0.145584 0.069918 0.016084
v -0.157341 0.082053 0.080142
v -0.022161 0.054200 0.086907
v -0.085549 0.043614 -0.031497
v -0.052418 0.054788 0.026410
v -0.120775 0.078252 0.060906
v 0.006903 0.000000 -0.001159
v -0.010870 0.248290 0.011056
v -0.002448 0.000000 0.006558
v -0.019460 0.242900 0.017919
v -0.004455 0.000000 -0.005399
v -0.020672 0.244680 0.010699
v 0.001463 0.132227 -0.000484
v -0.007753 0.131324 0.007083
v -0.009757 0.131651 -0.004850
v 0.004188 0.260007 0.002603
v -0.029920 0.255740 -0.009501
v -0.049503 0.240456 0.017163
v -0.027498 0.235277 0.045747
v 0.005685 0.247360 0.036749
vt 0.8117 0.4283
vt 0.8483 0.4282
vt 0.8434 0.4672
vt 0.8114 0.4793
vt 0.7751 0.4278
vt 0.8127 0.3888
vt 0.7796 0.4669
vt 0.8117 0.4283
vt 0.8483 0.4282
vt 0.8434 0.4672
vt 0.8114 0.4793
vt 0.7751 0.4278
vt 0.7796 0.4669
vt 0.8117 0.4283
vt 0.8483 0.4282
vt 0.8434 0.4672
vt 0.8114 0.4793
vt 0.7751 0.4278
vt 0.7796 0.4669
vt 0.8117 0.4283
vt 0.8483 0.4282
vt 0.8434 0.4672
vt 0.8114 0.4793
vt 0.7751 0.4278
vt 0.7796 0.4669
vt 0.1906 0.7136
vt 0.2171 0.7131
vt 0.1906 0.7339
vt 0.1640 0.7131
vt 0.1906 0.6396
vt 0.2252 0.6724
vt 0.1906 0.6728
vt 0.1560 0.6724
vt 0.0606 0.7155
vt 0.0871 0.7149
vt 0.0606 0.7357
vt 0.0340 0.7149
vt 0.0606 0.6415
vt 0.0952 0.6743
vt 0.0606 0.6746
vt 0.0260 0.6743
vt 0.0606 0.7155
vt 0.0871 0.7149
vt 0.0606 0.7357
vt 0.0340 0.7149
vt 0.0606 0.6415
vt 0.0952 0.6743
vt 0.0606 0.6746
vt 0.0260 0.6743
vt 0.8117 0.4283
vt 0.8114 0.4793
vt 0.8434 0.4672
vt 0.8483 0.4282
vt 0.7751 0.4278
vt 0.8127 0.3888
vt 0.7796 0.4669
vt 0.8117 0.4283
vt 0.8114 0.4793
vt 0.8434 0.4672
vt 0.8483 0.4282
vt 0.7751 0.4278
vt 0.7796 0.4669
vt 0.8117 0.4283
vt 0.8114 0.4793
vt 0.8434 0.4672
vt 0.8483 0.4282
vt 0.7751 0.4278
vt 0.7796 0.4669
vt 0.8117 0.4283
vt 0.8114 0.4793
vt 0.8434 0.4672
vt 0.8483 0.4282
vt 0.7751 0.4278
vt 0.7796 0.4669
vt 0.1906 0.7136
vt 0.1906 0.7339
vt 0.2171 0.7131
vt 0.1640 0.7131
vt 0.1906 0.6396
vt 0.1906 0.6728
vt 0.2252 0.6724
vt 0.1560 0.6724
vt 0.0606 0.7155
vt 0.0606 0.7357
vt 0.0871 0.7149
vt 0.0340 0.7149
vt 0.0606 0.6415
vt 0.0606 0.6746
vt 0.0952 0.6743
vt 0.0260 0.6743
vt 0.0606 0.7155
vt 0.0606 0.7357
vt 0.0871 0.7149
vt 0.0340 0.7149
vt 0.0606 0.6415
vt 0.0606 0.6746
vt 0.0952 0.6743
vt 0.0260 0.6743
vt 0.6879 0.6849
vt 0.6879 0.7284
vt 0.6828 0.7284
vt 0.6828 0.6849
vt 0.6778 0.7284
vt 0.6778 0.6849
vt 0.6929 0.6849
vt 0.6929 0.7284
vt 0.6929 0.6415
vt 0.6879 0.6415
vt 0.6828 0.6415
vt 0.6778 0.6415
vt 0.2678 0.3215
vt 0.2845 0.2677
vt 0.3382 0.2677
vt 0.3549 0.3215
vt 0.3113 0.3547
vn -0.8803 0.4046 0.2479
vn -0.6585 0.7113 0.2458
vn -0.8669 0.3818 0.3206
vn -0.6217 0.6468 0.4417
vn -0.1858 0.8743 -0.4485
vn -0.1751 0.9758 -0.1313
vn -0.3096 0.8291 -0.4655
vn -0.2656 0.9561 -0.1240
vn 0.5580 0.8088 0.1854
vn 0.2771 0.8701 0.4075
vn 0.5526 0.8165 0.1671
vn 0.2215 0.9684 0.1142
vn -0.0978 0.3568 0.9291
vn -0.2555 0.6178 0.7437
vn 0.0187 0.3888 0.9211
vn -0.0143 0.6906 0.7231
vn -0.0549 0.9533 0.2970
vn -0.1876 0.9298 0.3166
vn 0.1493 0.6239 0.7671
vn 0.0291 0.8862 0.4623
vn -0.1996 0.8491 0.4890
vn -0.1413 0.5730 0.8073
vn -0.1444 0.9879 0.0558
vn -0.0612 0.9820 -0.1789
vn -0.7195 0.6513 -0.2411
vn -0.6251 0.7600 -0.1780
vn -0.5805 0.7678 -0.2711
vn -0.7064 0.6526 -0.2741
vn 0.0047 0.9827 -0.1853
vn 0.0832 0.9958 -0.0386
vn 0.3473 0.8637 -0.3653
vn 0.1842 0.9414 -0.2826
vn 0.2668 0.9552 -0.1284
vn 0.4318 0.8778 -0.2074
vn 0.8802 -0.4046 -0.2479
vn 0.6583 -0.7115 -0.2458
vn 0.8668 -0.3819 -0.3206
vn 0.6216 -0.6469 -0.4417
vn 0.1858 -0.8743 0.4484
vn 0.1751 -0.9758 0.1310
vn 0.3096 -0.8291 0.4655
vn 0.2655 -0.9561 0.1238
vn -0.5580 -0.8089 -0.1854
vn -0.2769 -0.8702 -0.4076
vn -0.5526 -0.8165 -0.1671
vn -0.2213 -0.9685 -0.1142
vn 0.0978 -0.3568 -0.9290
vn 0.2555 -0.6180 -0.7435
vn -0.0186 -0.3888 -0.9211
vn 0.0144 -0.6907 -0.7230
vn 0.0550 -0.9533 -0.2970
vn 0.1876 -0.9298 -0.3166
vn -0.1493 -0.6239 -0.7672
vn -0.0292 -0.8862 -0.4623
vn 0.1996 -0.8491 -0.4890
vn 0.1413 -0.5730 -0.8073
vn 0.1442 -0.9880 -0.0557
vn 0.0611 -0.9820 0.1787
vn 0.7195 -0.6513 0.2411
vn 0.6252 -0.7599 0.1779
vn 0.5805 -0.7678 0.2711
vn 0.7064 -0.6526 0.2741
vn -0.0047 -0.9827 0.1853
vn -0.0832 -0.9958 0.0386
vn -0.3473 -0.8637 0.3653
vn -0.1842 -0.9414 0.2827
vn -0.2668 -0.9552 0.1284
vn -0.4318 -0.8778 0.2074
vn 0.6316 -0.0095 0.7753
vn -0.9815 -0.1167 0.1520
vn 0.1917 0.1344 -0.9722
vn 0.3557 0.0188 -0.9344
vn -0.9855 -0.0404 0.1649
vn 0.6347 0.0224 0.7724
vn -0.2366 0.9077 0.3466
s off
f 6/1/1 4/2/1 2/3/1 5/4/1
f 3/5/2 7/6/2 6/1/2
f 3/5/3 6/1/3 5/4/3 1/7/3
f 6/1/4 7/6/4 4/2/4
f 13/8/5 11/9/5 9/10/5 12/11/5
f 10/12/6 7/6/6 13/8/6
f 10/12/7 13/8/7 12/11/7 8/13/7
f 13/8/8 7/6/8 11/9/8
f 19/14/9 17/15/9 15/16/9 18/17/9
f 16/18/10 7/6/10 19/14/10
f 16/18/11 19/14/11 18/17/11 14/19/11
f 19/14/12 7/6/12 17/15/12
f 25/20/13 23/21/13 21/22/13 24/23/13
f 22/24/14 7/6/14 25/20/14
f 22/24/15 25/20/15 24/23/15 20/25/15
f 25/20/16 7/6/16 23/21/16
f 33/26/17 28/27/17 29/28/17
f 27/29/18 33/26/18 29/28/18
f 26/30/19 31/31/19 32/32/19
f 32/32/20 31/31/20 28/27/20 33/26/20
f 30/33/21 32/32/21 33/26/21 27/29/21
f 30/33/22 26/30/22 32/32/22
f 41/34/23 36/35/23 37/36/23
f 35/37/24 41/34/24 37/36/24
f 34/38/25 39/39/25 40/40/25
f 40/40/26 39/39/26 36/35/26 41/34/26
f 38/41/27 40/40/27 41/34/27 35/37/27
f 38/41/28 34/38/28 40/40/28
f 49/42/29 44/43/29 45/44/29
f 43/45/30 49/42/30 45/44/30
f 42/46/31 47/47/31 48/48/31
f 48/48/32 47/47/32 44/43/32 49/42/32
f 46/49/33 48/48/33 49/42/33 43/45/33
f 46/49/34 42/46/34 48/48/34
f 55/50/35 54/51/35 51/52/35 53/53/35
f 52/54/36 55/50/36 56/55/36
f 52/54/37 50/56/37 54/51/37 55/50/37
f 55/50/38 53/53/38 56/55/38
f 62/57/39 61/58/39 58/59/39 60/60/39
f 59/61/40 62/57/40 56/55/40
f 59/61/41 57/62/41 61/58/41 62/57/41
f 62/57/42 60/60/42 56/55/42
f 68/63/43 67/64/43 64/65/43 66/66/43
f 65/67/44 68/63/44 56/55/44
f 65/67/45 63/68/45 67/64/45 68/63/45
f 68/63/46 66/66/46 56/55/46
f 74/69/47 73/70/47 70/71/47 72/72/47
f 71/73/48 74/69/48 56/55/48
f 71/73/49 69/74/49 73/70/49 74/69/49
f 74/69/50 72/72/50 56/55/50
f 82/75/51 78/76/51 77/77/51
f 76/78/52 78/76/52 82/75/52
f 75/79/53 81/80/53 80/81/53
f 81/80/54 82/75/54 77/77/54 80/81/54
f 79/82/55 76/78/55 82/75/55 81/80/55
f 79/82/56 81/80/56 75/79/56
f 90/83/57 86/84/57 85/85/57
f 84/86/58 86/84/58 90/83/58
f 83/87/59 89/88/59 88/89/59
f 89/88/60 90/83/60 85/85/60 88/89/60
f 87/90/61 84/86/61 90/83/61 89/88/61
f 87/90/62 89/88/62 83/87/62
f 98/91/63 94/92/63 93/93/63
f 92/94/64 94/92/64 98/91/64
f 91/95/65 97/96/65 96/97/65
f 97/96/66 98/91/66 93/93/66 96/97/66
f 95/98/67 92/94/67 98/91/67 97/96/67
f 95/98/68 97/96/68 91/95/68
f 105/99/69 100/100/69 102/101/69 106/102/69
f 106/102/70 102/101/70 104/103/70 107/104/70
f 107/105/71 104/106/71 100/100/71 105/99/71
f 103/107/72 107/105/72 105/99/72 99/108/72
f 101/109/73 106/102/73 107/104/73 103/110/73
f 99/108/74 105/99/74 106/102/74 101/109/74
f 109/111/75 110/112/75 111/113/75 112/114/75
f 108/115/75 109/111/75 112/114/75
