# Blender v2.78 (sub 0) OBJ File: 'Low_Poly_Vegetation_Pack.blend'
# www.blender.org
g Flower_c_TwoS_07
v -0.118407 0.315598 -0.048128
v -0.027066 0.381055 -0.029718
v -0.093292 0.256689 -0.015990
v 0.012075 0.331600 0.004624
v -0.081728 0.364279 -0.051032
v -0.044331 0.297721 0.000072
v -0.001919 0.235445 0.018999
v 0.067998 0.374466 0.035868
v 0.108210 0.297604 0.109639
v 0.016786 0.333083 0.007515
v 0.058373 0.249179 0.099504
v 0.104284 0.349805 0.078282
v 0.035920 0.292725 0.056075
v 0.072968 0.195254 0.150439
v -0.018374 0.129797 0.132029
v 0.063273 0.239350 0.094462
v -0.041290 0.163665 0.072604
v 0.033694 0.149065 0.157354
v 0.005273 0.207001 0.092374
v -0.113438 0.136386 0.066443
v -0.153650 0.213248 -0.007327
v -0.046757 0.162909 0.070882
v -0.092991 0.251277 -0.013923
v -0.152318 0.163539 0.028041
v -0.074400 0.211441 0.035477
v -0.118315 0.315534 -0.048293
v -0.026992 0.380979 -0.029887
v -0.093208 0.256645 -0.016166
v 0.012135 0.331540 0.004444
v -0.081645 0.364209 -0.051200
v -0.044262 0.297674 -0.000109
v -0.001822 0.235348 0.018853
v 0.068122 0.374384 0.035734
v 0.108323 0.297522 0.109495
v 0.016928 0.333015 0.007391
v 0.058506 0.249116 0.099369
v 0.104402 0.349724 0.078142
v 0.036063 0.292664 0.055949
v 0.073059 0.195133 0.150308
v -0.018253 0.129696 0.131905
v 0.063366 0.239211 0.094353
v -0.041158 0.163553 0.072503
v 0.033800 0.148954 0.157227
v 0.005387 0.206872 0.092274
v -0.113373 0.136286 0.066282
v -0.153576 0.213129 -0.007470
v -0.046716 0.162801 0.070719
v -0.092937 0.251144 -0.014062
v -0.152248 0.163429 0.027889
v -0.074358 0.211317 0.035325
v 0.004055 0.000000 -0.005706
v -0.002365 0.244159 0.021746
v 0.002914 0.000000 0.006365
v -0.002533 0.234076 0.030486
v -0.006969 0.000000 -0.000658
v -0.009540 0.234865 0.028433
v 0.000691 0.132227 -0.001378
v -0.000461 0.131324 0.010491
v -0.010324 0.131651 0.003483
v -0.030143 0.253524 0.010780
v -0.030855 0.222372 0.029677
v -0.000706 0.220895 0.050096
v 0.018639 0.251135 0.043819
v 0.000446 0.271301 0.019520
vt 0.8169 0.4298
vt 0.8556 0.4296
vt 0.8506 0.4708
vt 0.8170 0.4837
vt 0.7783 0.4296
vt 0.8177 0.3882
vt 0.7833 0.4708
vt 0.8169 0.4298
vt 0.8556 0.4296
vt 0.8506 0.4708
vt 0.8170 0.4837
vt 0.7783 0.4296
vt 0.7833 0.4708
vt 0.8169 0.4298
vt 0.8556 0.4296
vt 0.8506 0.4708
vt 0.8170 0.4837
vt 0.7783 0.4296
vt 0.7833 0.4708
vt 0.8169 0.4298
vt 0.8556 0.4296
vt 0.8506 0.4708
vt 0.8170 0.4837
vt 0.7783 0.4296
vt 0.7833 0.4708
vt 0.8169 0.4298
vt 0.8170 0.4837
vt 0.8506 0.4708
vt 0.8556 0.4296
vt 0.7783 0.4296
vt 0.8177 0.3882
vt 0.7833 0.4708
vt 0.8169 0.4298
vt 0.8170 0.4837
vt 0.8506 0.4708
vt 0.8556 0.4296
vt 0.7783 0.4296
vt 0.7833 0.4708
vt 0.8169 0.4298
vt 0.8170 0.4837
vt 0.8506 0.4708
vt 0.8556 0.4296
vt 0.7783 0.4296
vt 0.7833 0.4708
vt 0.8169 0.4298
vt 0.8170 0.4837
vt 0.8506 0.4708
vt 0.8556 0.4296
vt 0.7783 0.4296
vt 0.7833 0.4708
vt 0.6889 0.6869
vt 0.6889 0.7304
vt 0.6839 0.7304
vt 0.6839 0.6869
vt 0.6789 0.7304
vt 0.6789 0.6869
vt 0.6940 0.6869
vt 0.6940 0.7304
vt 0.6940 0.6433
vt 0.6889 0.6433
vt 0.6839 0.6433
vt 0.6789 0.6433
vt 0.2720 0.3250
vt 0.2884 0.2719
vt 0.3416 0.2719
vt 0.3580 0.3250
vt 0.3150 0.3579
vn -0.3706 0.3798 0.8476
vn -0.3474 0.0480 0.9365
vn -0.4615 0.3192 0.8277
vn -0.1809 0.1711 0.9685
vn -0.5612 0.4079 0.7202
vn -0.8317 0.2193 0.5100
vn -0.6199 0.4088 0.6698
vn -0.8031 0.1587 0.5744
vn -0.6025 0.5029 0.6197
vn -0.4644 0.8095 0.3593
vn -0.4556 0.6045 0.6535
vn -0.7149 0.6255 0.3125
vn -0.3721 0.5931 0.7140
vn -0.0097 0.5857 0.8105
vn -0.3232 0.4997 0.8037
vn -0.1028 0.7550 0.6476
vn 0.3706 -0.3798 -0.8476
vn 0.3476 -0.0482 -0.9364
vn 0.4616 -0.3192 -0.8277
vn 0.1811 -0.1713 -0.9684
vn 0.5611 -0.4079 -0.7202
vn 0.8316 -0.2195 -0.5101
vn 0.6198 -0.4089 -0.6698
vn 0.8030 -0.1590 -0.5744
vn 0.6026 -0.5028 -0.6197
vn 0.4643 -0.8094 -0.3595
vn 0.4556 -0.6045 -0.6535
vn 0.7149 -0.6254 -0.3128
vn 0.3721 -0.5931 -0.7140
vn 0.0100 -0.5856 -0.8105
vn 0.3232 -0.4996 -0.8037
vn 0.1031 -0.7550 -0.6476
vn 0.9976 0.0099 0.0692
vn -0.4743 -0.1905 0.8595
vn -0.5922 0.1698 -0.7877
vn -0.4104 0.0188 -0.9117
vn -0.5792 -0.0404 0.8142
vn 0.9951 0.0224 0.0961
vn -0.4815 0.4626 0.7444
s off
f 6/1/1 4/2/1 2/3/1 5/4/1
f 3/5/2 7/6/2 6/1/2
f 3/5/3 6/1/3 5/4/3 1/7/3
f 6/1/4 7/6/4 4/2/4
f 13/8/5 11/9/5 9/10/5 12/11/5
f 10/12/6 7/6/6 13/8/6
f 10/12/7 13/8/7 12/11/7 8/13/7
f 13/8/8 7/6/8 11/9/8
f 19/14/9 17/15/9 15/16/9 18/17/9
f 16/18/10 7/6/10 19/14/10
f 16/18/11 19/14/11 18/17/11 14/19/11
f 19/14/12 7/6/12 17/15/12
f 25/20/13 23/21/13 21/22/13 24/23/13
f 22/24/14 7/6/14 25/20/14
f 22/24/15 25/20/15 24/23/15 20/25/15
f 25/20/16 7/6/16 23/21/16
f 31/26/17 30/27/17 27/28/17 29/29/17
f 28/30/18 31/26/18 32/31/18
f 28/30/19 26/32/19 30/27/19 31/26/19
f 31/26/20 29/29/20 32/31/20
f 38/33/21 37/34/21 34/35/21 36/36/21
f 35/37/22 38/33/22 32/31/22
f 35/37/23 33/38/23 37/34/23 38/33/23
f 38/33/24 36/36/24 32/31/24
f 44/39/25 43/40/25 40/41/25 42/42/25
f 41/43/26 44/39/26 32/31/26
f 41/43/27 39/44/27 43/40/27 44/39/27
f 44/39/28 42/42/28 32/31/28
f 50/45/29 49/46/29 46/47/29 48/48/29
f 47/49/30 50/45/30 32/31/30
f 47/49/31 45/50/31 49/46/31 50/45/31
f 50/45/32 48/48/32 32/31/32
f 57/51/33 52/52/33 54/53/33 58/54/33
f 58/54/34 54/53/34 56/55/34 59/56/34
f 59/57/35 56/58/35 52/52/35 57/51/35
f 55/59/36 59/57/36 57/51/36 51/60/36
f 53/61/37 58/54/37 59/56/37 55/62/37
f 51/60/38 57/51/38 58/54/38 53/61/38
f 61/63/39 62/64/39 63/65/39 64/66/39
f 60/67/39 61/63/39 64/66/39
