# Blender v2.78 (sub 0) OBJ File: 'Low_Poly_Vegetation_Pack.blend'
# www.blender.org
g Flower_c_TwoS_12
v 0.000980 0.019234 -0.003441
v -0.109470 0.117917 -0.071246
v -0.008198 0.144504 -0.107161
v -0.076644 0.158591 -0.119154
v -0.091271 0.053817 -0.015825
v 0.040611 0.088441 -0.062597
v -0.024781 0.075598 -0.034354
v -0.058718 0.134782 -0.086234
v 0.000788 -0.002901 -0.001581
v 0.063784 0.067641 -0.115532
v 0.132880 0.047998 -0.045062
v 0.127447 0.069422 -0.105610
v -0.001327 0.039466 -0.081261
v 0.088654 0.013886 0.010510
v 0.042703 0.032090 -0.032925
v 0.098099 0.061817 -0.078954
v -0.036337 0.231120 0.050234
v 0.033917 0.281393 0.005481
v -0.099424 0.293025 0.038763
v -0.017198 0.351865 -0.013617
v -0.076685 0.254123 0.051935
v 0.019609 0.323030 -0.009406
v -0.001659 0.255447 0.026243
v -0.072436 0.338513 0.008449
v -0.027423 0.290586 0.025272
v 0.027196 0.212161 0.022916
v 0.035772 0.281094 0.005114
v 0.098848 0.209342 0.023528
v 0.094885 0.333809 -0.035760
v 0.168708 0.249830 -0.014208
v 0.055408 0.317263 -0.016479
v 0.141862 0.218916 0.008760
v 0.066861 0.244409 0.012706
v 0.147529 0.303078 -0.035006
v 0.099750 0.270098 0.000148
v 0.098748 0.207644 0.024407
v 0.028494 0.157371 0.069160
v 0.162673 0.147250 0.038893
v 0.080448 0.088410 0.091273
v 0.139935 0.186152 0.025721
v 0.043641 0.117245 0.087062
v 0.063171 0.181698 0.045169
v 0.135686 0.101762 0.069207
v 0.092903 0.153707 0.060399
v 0.026638 0.157670 0.069527
v -0.036437 0.229422 0.051113
v -0.031635 0.106466 0.113416
v -0.105458 0.190445 0.091864
v 0.007841 0.123012 0.094135
v -0.078612 0.221359 0.068896
v -0.005349 0.192736 0.058706
v -0.084279 0.137197 0.112662
v -0.034270 0.174194 0.085522
v 0.000949 0.019128 -0.003608
v -0.109465 0.117778 -0.071389
v -0.008225 0.144357 -0.107294
v -0.076644 0.158430 -0.119271
v -0.091277 0.053696 -0.015984
v 0.040573 0.088312 -0.062745
v -0.024805 0.075476 -0.034511
v -0.058726 0.134633 -0.086366
v 0.000847 -0.003063 -0.001683
v 0.063818 0.067453 -0.115593
v 0.132891 0.047817 -0.045147
v 0.127448 0.069230 -0.105665
v -0.001274 0.039289 -0.081337
v 0.088683 0.013715 0.010409
v 0.042748 0.031919 -0.033016
v 0.098115 0.061630 -0.079022
v -0.036406 0.231060 0.050056
v 0.033847 0.281332 0.005304
v -0.099460 0.292937 0.038587
v -0.017247 0.351767 -0.013784
v -0.076732 0.254045 0.051757
v 0.019551 0.322944 -0.009577
v -0.001733 0.255392 0.026065
v -0.072478 0.338420 0.008278
v -0.027476 0.290504 0.025097
v 0.027148 0.212074 0.022742
v 0.035750 0.281025 0.004928
v 0.098824 0.209275 0.023341
v 0.094836 0.333711 -0.035927
v 0.168648 0.249745 -0.014379
v 0.055369 0.317174 -0.016654
v 0.141814 0.218838 0.008582
v 0.066843 0.244345 0.012518
v 0.147474 0.302986 -0.035175
v 0.099708 0.270015 -0.000029
v 0.098721 0.207533 0.024243
v 0.028469 0.157261 0.068995
v 0.162613 0.147165 0.038723
v 0.080400 0.088334 0.091094
v 0.139885 0.186056 0.025552
v 0.043602 0.117157 0.086887
v 0.063150 0.181583 0.045007
v 0.135632 0.101681 0.069032
v 0.092860 0.153614 0.060227
v 0.026566 0.157567 0.069371
v -0.036508 0.229318 0.050958
v -0.031683 0.106391 0.113237
v -0.105494 0.190356 0.091689
v 0.007784 0.122927 0.093963
v -0.078661 0.221263 0.068727
v -0.005425 0.192630 0.058554
v -0.084321 0.137115 0.112484
v -0.034324 0.174103 0.085352
v -0.003421 0.000000 -0.006107
v 0.026160 0.212143 0.021670
v 0.006999 0.000000 0.000091
v 0.031036 0.207442 0.025748
v -0.003579 0.000000 0.006016
v 0.026761 0.202874 0.029517
v -0.000949 0.132227 -0.001214
v 0.009284 0.131324 0.004908
v -0.001272 0.131651 0.010821
vt 0.1876 0.7081
vt 0.2119 0.7076
vt 0.1876 0.7266
vt 0.1632 0.7076
vt 0.1876 0.6402
vt 0.2193 0.6703
vt 0.1876 0.6706
vt 0.1558 0.6703
vt 0.0640 0.7081
vt 0.0884 0.7076
vt 0.0640 0.7266
vt 0.0397 0.7076
vt 0.0640 0.6402
vt 0.0958 0.6703
vt 0.0640 0.6706
vt 0.0323 0.6703
vt 0.1845 0.3192
vt 0.2265 0.3190
vt 0.2205 0.3479
vt 0.1847 0.3618
vt 0.1844 0.2919
vt 0.2150 0.2920
vt 0.1538 0.2923
vt 0.1426 0.3194
vt 0.1488 0.3483
vt 0.1843 0.2591
vt 0.1845 0.3192
vt 0.2265 0.3190
vt 0.2205 0.3479
vt 0.1847 0.3618
vt 0.1844 0.2919
vt 0.2150 0.2920
vt 0.1538 0.2923
vt 0.1426 0.3194
vt 0.1488 0.3483
vt 0.1845 0.3192
vt 0.2265 0.3190
vt 0.2205 0.3479
vt 0.1847 0.3618
vt 0.1844 0.2919
vt 0.2150 0.2920
vt 0.1538 0.2923
vt 0.1426 0.3194
vt 0.1488 0.3483
vt 0.1845 0.3192
vt 0.2265 0.3190
vt 0.2205 0.3479
vt 0.1847 0.3618
vt 0.1844 0.2919
vt 0.2150 0.2920
vt 0.1538 0.2923
vt 0.1426 0.3194
vt 0.1488 0.3483
vt 0.1876 0.7081
vt 0.1876 0.7266
vt 0.2119 0.7076
vt 0.1632 0.7076
vt 0.1876 0.6402
vt 0.1876 0.6706
vt 0.2193 0.6703
vt 0.1558 0.6703
vt 0.0640 0.7081
vt 0.0640 0.7266
vt 0.0884 0.7076
vt 0.0397 0.7076
vt 0.0640 0.6402
vt 0.0640 0.6706
vt 0.0958 0.6703
vt 0.0323 0.6703
vt 0.1845 0.3192
vt 0.1847 0.3618
vt 0.2205 0.3479
vt 0.2265 0.3190
vt 0.1844 0.2919
vt 0.2150 0.2920
vt 0.1538 0.2923
vt 0.1426 0.3194
vt 0.1488 0.3483
vt 0.1843 0.2591
vt 0.1845 0.3192
vt 0.1847 0.3618
vt 0.2205 0.3479
vt 0.2265 0.3190
vt 0.1844 0.2919
vt 0.2150 0.2920
vt 0.1538 0.2923
vt 0.1426 0.3194
vt 0.1488 0.3483
vt 0.1845 0.3192
vt 0.1847 0.3618
vt 0.2205 0.3479
vt 0.2265 0.3190
vt 0.1844 0.2919
vt 0.2150 0.2920
vt 0.1538 0.2923
vt 0.1426 0.3194
vt 0.1488 0.3483
vt 0.1845 0.3192
vt 0.1847 0.3618
vt 0.2205 0.3479
vt 0.2265 0.3190
vt 0.1844 0.2919
vt 0.2150 0.2920
vt 0.1538 0.2923
vt 0.1426 0.3194
vt 0.1488 0.3483
vt 0.6875 0.6883
vt 0.6875 0.7320
vt 0.6824 0.7320
vt 0.6824 0.6883
vt 0.6774 0.7320
vt 0.6774 0.6883
vt 0.6925 0.6883
vt 0.6925 0.7320
vt 0.6925 0.6446
vt 0.6875 0.6446
vt 0.6824 0.6446
vt 0.6774 0.6446
vn 0.0723 0.8264 0.5584
vn -0.0804 0.7864 0.6125
vn 0.2384 0.5485 0.8014
vn 0.1599 0.6985 0.6975
vn -0.0007 0.6564 0.7545
vn 0.0740 0.5054 0.8597
vn 0.0543 0.9429 0.3288
vn -0.0603 0.9754 0.2119
vn -0.2292 0.7873 0.5724
vn -0.0933 0.8817 0.4625
vn -0.2138 0.9159 0.3396
vn -0.3525 0.8223 0.4466
vn 0.2447 0.4901 0.8366
vn 0.3348 0.3550 0.8728
vn 0.3005 0.3305 0.8947
vn 0.1796 0.4435 0.8781
vn 0.4411 0.2273 0.8682
vn 0.3882 0.1894 0.9019
vn 0.3023 0.4237 0.8539
vn 0.1680 0.3519 0.9208
vn 0.1373 0.3869 0.9119
vn 0.2438 0.4902 0.8368
vn 0.0511 0.2437 0.9685
vn 0.0036 0.2978 0.9546
vn 0.2372 0.3779 0.8949
vn 0.1444 0.5081 0.8491
vn 0.1787 0.5327 0.8273
vn 0.3023 0.4245 0.8534
vn 0.0217 0.6063 0.7949
vn 0.0747 0.6442 0.7612
vn 0.1796 0.4443 0.8777
vn 0.3112 0.5113 0.8011
vn 0.3420 0.4763 0.8101
vn 0.2381 0.3778 0.8948
vn 0.4117 0.5899 0.6946
vn 0.4593 0.5358 0.7085
vn -0.0722 -0.8265 -0.5583
vn 0.0804 -0.7864 -0.6125
vn -0.2384 -0.5485 -0.8014
vn -0.1599 -0.6985 -0.6975
vn 0.0007 -0.6563 -0.7545
vn -0.0740 -0.5053 -0.8597
vn -0.0543 -0.9429 -0.3287
vn 0.0603 -0.9754 -0.2119
vn 0.2292 -0.7873 -0.5724
vn 0.0933 -0.8817 -0.4625
vn 0.2138 -0.9159 -0.3396
vn 0.3526 -0.8223 -0.4466
vn -0.2447 -0.4901 -0.8366
vn -0.3348 -0.3550 -0.8728
vn -0.3005 -0.3305 -0.8947
vn -0.1796 -0.4435 -0.8781
vn -0.4411 -0.2275 -0.8682
vn -0.3881 -0.1896 -0.9019
vn -0.3023 -0.4237 -0.8539
vn -0.1680 -0.3519 -0.9208
vn -0.1373 -0.3869 -0.9119
vn -0.2438 -0.4902 -0.8368
vn -0.0512 -0.2438 -0.9685
vn -0.0037 -0.2979 -0.9546
vn -0.2372 -0.3779 -0.8949
vn -0.1444 -0.5081 -0.8491
vn -0.1787 -0.5327 -0.8272
vn -0.3024 -0.4245 -0.8534
vn -0.0218 -0.6062 -0.7950
vn -0.0748 -0.6442 -0.7612
vn -0.1796 -0.4443 -0.8777
vn -0.3112 -0.5113 -0.8011
vn -0.3420 -0.4763 -0.8101
vn -0.2381 -0.3778 -0.8948
vn -0.4116 -0.5899 -0.6947
vn -0.4592 -0.5358 -0.7086
vn 0.5716 0.0505 -0.8190
vn 0.5790 -0.3881 0.7170
vn -0.9406 0.2989 0.1611
vn -0.9996 0.0188 -0.0195
vn 0.4878 -0.0404 0.8720
vn 0.5129 0.0224 -0.8582
s off
f 8/1/1 3/2/1 4/3/1
f 2/4/2 8/1/2 4/3/2
f 1/5/3 6/6/3 7/7/3
f 7/7/4 6/6/4 3/2/4 8/1/4
f 5/8/5 7/7/5 8/1/5 2/4/5
f 5/8/6 1/5/6 7/7/6
f 16/9/7 11/10/7 12/11/7
f 10/12/8 16/9/8 12/11/8
f 9/13/9 14/14/9 15/15/9
f 15/15/10 14/14/10 11/10/10 16/9/10
f 13/16/11 15/15/11 16/9/11 10/12/11
f 13/16/12 9/13/12 15/15/12
f 25/17/13 22/18/13 20/19/13 24/20/13
f 23/21/14 18/22/14 22/18/14 25/17/14
f 17/23/15 23/21/15 25/17/15 21/24/15
f 21/24/16 25/17/16 24/20/16 19/25/16
f 23/21/17 17/23/17 26/26/17
f 23/21/18 26/26/18 18/22/18
f 35/27/19 32/28/19 30/29/19 34/30/19
f 33/31/20 28/32/20 32/28/20 35/27/20
f 27/33/21 33/31/21 35/27/21 31/34/21
f 31/34/22 35/27/22 34/30/22 29/35/22
f 33/31/23 27/33/23 26/26/23
f 33/31/24 26/26/24 28/32/24
f 44/36/25 41/37/25 39/38/25 43/39/25
f 42/40/26 37/41/26 41/37/26 44/36/26
f 36/42/27 42/40/27 44/36/27 40/43/27
f 40/43/28 44/36/28 43/39/28 38/44/28
f 42/40/29 36/42/29 26/26/29
f 42/40/30 26/26/30 37/41/30
f 53/45/31 50/46/31 48/47/31 52/48/31
f 51/49/32 46/50/32 50/46/32 53/45/32
f 45/51/33 51/49/33 53/45/33 49/52/33
f 49/52/34 53/45/34 52/48/34 47/53/34
f 51/49/35 45/51/35 26/26/35
f 51/49/36 26/26/36 46/50/36
f 61/54/37 57/55/37 56/56/37
f 55/57/38 57/55/38 61/54/38
f 54/58/39 60/59/39 59/60/39
f 60/59/40 61/54/40 56/56/40 59/60/40
f 58/61/41 55/57/41 61/54/41 60/59/41
f 58/61/42 60/59/42 54/58/42
f 69/62/43 65/63/43 64/64/43
f 63/65/44 65/63/44 69/62/44
f 62/66/45 68/67/45 67/68/45
f 68/67/46 69/62/46 64/64/46 67/68/46
f 66/69/47 63/65/47 69/62/47 68/67/47
f 66/69/48 68/67/48 62/66/48
f 78/70/49 77/71/49 73/72/49 75/73/49
f 76/74/50 78/70/50 75/73/50 71/75/50
f 70/76/51 74/77/51 78/70/51 76/74/51
f 74/77/52 72/78/52 77/71/52 78/70/52
f 76/74/53 79/79/53 70/76/53
f 76/74/54 71/75/54 79/79/54
f 88/80/55 87/81/55 83/82/55 85/83/55
f 86/84/56 88/80/56 85/83/56 81/85/56
f 80/86/57 84/87/57 88/80/57 86/84/57
f 84/87/58 82/88/58 87/81/58 88/80/58
f 86/84/59 79/79/59 80/86/59
f 86/84/60 81/85/60 79/79/60
f 97/89/61 96/90/61 92/91/61 94/92/61
f 95/93/62 97/89/62 94/92/62 90/94/62
f 89/95/63 93/96/63 97/89/63 95/93/63
f 93/96/64 91/97/64 96/90/64 97/89/64
f 95/93/65 79/79/65 89/95/65
f 95/93/66 90/94/66 79/79/66
f 106/98/67 105/99/67 101/100/67 103/101/67
f 104/102/68 106/98/68 103/101/68 99/103/68
f 98/104/69 102/105/69 106/98/69 104/102/69
f 102/105/70 100/106/70 105/99/70 106/98/70
f 104/102/71 79/79/71 98/104/71
f 104/102/72 99/103/72 79/79/72
f 113/107/73 108/108/73 110/109/73 114/110/73
f 114/110/74 110/109/74 112/111/74 115/112/74
f 115/113/75 112/114/75 108/108/75 113/107/75
f 111/115/76 115/113/76 113/107/76 107/116/76
f 109/117/77 114/110/77 115/112/77 111/118/77
f 107/116/78 113/107/78 114/110/78 109/117/78
