# Blender v2.78 (sub 0) OBJ File: 'Low_Poly_Vegetation_Pack.blend'
# www.blender.org
g Flower_a_TwoS_02
v -0.230936 0.525395 0.074082
v -0.230936 0.525395 -0.074083
v -0.296685 0.619154 -0.000000
v -0.031445 0.440249 0.000000
v -0.122772 0.464236 0.055616
v -0.122772 0.464236 -0.055616
v 0.010138 0.583622 0.173924
v -0.133885 0.548836 0.173924
v -0.086895 0.669825 0.215822
v 0.012107 0.496814 0.083143
v -0.096015 0.470699 0.083143
v 0.107190 0.607063 -0.074082
v 0.107190 0.607063 0.074082
v 0.122895 0.720496 0.000000
v 0.038866 0.503277 -0.055616
v 0.038866 0.503277 0.055616
v -0.133885 0.548836 -0.173924
v 0.010138 0.583622 -0.173924
v -0.086895 0.669825 -0.215822
v -0.096015 0.470699 -0.083143
v 0.012107 0.496814 -0.083143
v -0.231065 0.525242 0.074082
v -0.231065 0.525242 -0.074083
v -0.296849 0.619039 -0.000000
v -0.031398 0.440055 0.000000
v -0.122853 0.464053 0.055616
v -0.122853 0.464053 -0.055616
v 0.010166 0.583507 0.174085
v -0.133857 0.548721 0.174085
v -0.086878 0.669754 0.216009
v 0.012145 0.496659 0.083264
v -0.095977 0.470545 0.083264
v 0.107374 0.606986 -0.074082
v 0.107374 0.606986 0.074082
v 0.123094 0.720468 0.000000
v 0.039021 0.503151 -0.055616
v 0.039021 0.503151 0.055616
v -0.133857 0.548721 -0.174085
v 0.010166 0.583507 -0.174085
v -0.086878 0.669754 -0.216009
v -0.095977 0.470545 -0.083264
v 0.012145 0.496659 -0.083264
v 0.000000 0.000000 -0.010000
v -0.032408 0.463676 0.005429
v 0.008660 0.000000 0.005000
v -0.022909 0.459048 0.019153
v -0.008660 0.000000 0.005000
v -0.040017 0.456344 0.019153
v 0.008127 0.250062 0.005049
v 0.016788 0.250062 0.020049
v -0.000533 0.250062 0.020049
v -0.038346 0.468822 -0.055000
v -0.089192 0.456541 -0.016996
v -0.069770 0.461232 0.044496
v -0.006921 0.476412 0.044496
v 0.012500 0.481103 -0.016996
vt 0.1642 0.4437
vt 0.2082 0.4437
vt 0.1862 0.4878
vt 0.1673 0.4202
vt 0.2051 0.4202
vt 0.1862 0.3920
vt 0.1642 0.4437
vt 0.2082 0.4437
vt 0.1862 0.4878
vt 0.1673 0.4202
vt 0.2051 0.4202
vt 0.1642 0.4437
vt 0.2082 0.4437
vt 0.1862 0.4878
vt 0.1673 0.4202
vt 0.2051 0.4202
vt 0.1642 0.4437
vt 0.2082 0.4437
vt 0.1862 0.4878
vt 0.1673 0.4202
vt 0.2051 0.4202
vt 0.1642 0.4437
vt 0.1862 0.4878
vt 0.2082 0.4437
vt 0.2051 0.4202
vt 0.1673 0.4202
vt 0.1862 0.3920
vt 0.1642 0.4437
vt 0.1862 0.4878
vt 0.2082 0.4437
vt 0.2051 0.4202
vt 0.1673 0.4202
vt 0.1642 0.4437
vt 0.1862 0.4878
vt 0.2082 0.4437
vt 0.2051 0.4202
vt 0.1673 0.4202
vt 0.1642 0.4437
vt 0.1862 0.4878
vt 0.2082 0.4437
vt 0.2051 0.4202
vt 0.1673 0.4202
vt 0.5694 0.6860
vt 0.5694 0.7362
vt 0.5636 0.7362
vt 0.5636 0.6860
vt 0.5578 0.7362
vt 0.5578 0.6860
vt 0.5752 0.6860
vt 0.5752 0.7362
vt 0.5752 0.6358
vt 0.5694 0.6358
vt 0.5636 0.6358
vt 0.5578 0.6358
vt 0.2696 0.4222
vt 0.3127 0.3909
vt 0.3557 0.4222
vt 0.3393 0.4729
vt 0.2860 0.4729
vn 0.8188 0.5741 0.0000
vn 0.4922 0.8705 0.0000
vn 0.2540 0.9672 -0.0000
vn -0.0859 0.3556 -0.9307
vn -0.1715 0.7102 -0.6828
vn -0.2067 0.8559 -0.4740
vn -0.9906 0.1371 0.0000
vn -0.8353 0.5499 0.0000
vn -0.6675 0.7446 0.0000
vn -0.0859 0.3556 0.9307
vn -0.1715 0.7102 0.6828
vn -0.2067 0.8559 0.4740
vn -0.8187 -0.5742 -0.0000
vn -0.4922 -0.8705 -0.0000
vn -0.2538 -0.9673 0.0000
vn 0.0859 -0.3557 0.9306
vn 0.1715 -0.7102 0.6828
vn 0.2068 -0.8560 0.4738
vn 0.9905 -0.1372 0.0000
vn 0.8353 -0.5498 0.0000
vn 0.6673 -0.7448 0.0000
vn 0.0859 -0.3557 -0.9306
vn 0.1715 -0.7102 -0.6828
vn 0.2068 -0.8560 -0.4738
vn 0.8458 0.1600 -0.5090
vn -0.0003 0.0043 1.0000
vn -0.8406 -0.1608 -0.5172
vn -0.8646 0.0581 -0.4992
vn -0.0000 -0.0601 0.9982
vn 0.8660 0.0019 -0.5000
vn -0.2348 0.9720 0.0000
s off
f 1/1/1 2/2/1 3/3/1
f 2/2/2 1/1/2 5/4/2 6/5/2
f 6/5/3 5/4/3 4/6/3
f 7/7/4 8/8/4 9/9/4
f 8/8/5 7/7/5 10/10/5 11/11/5
f 11/11/6 10/10/6 4/6/6
f 12/12/7 13/13/7 14/14/7
f 13/13/8 12/12/8 15/15/8 16/16/8
f 16/16/9 15/15/9 4/6/9
f 17/17/10 18/18/10 19/19/10
f 18/18/11 17/17/11 20/20/11 21/21/11
f 21/21/12 20/20/12 4/6/12
f 22/22/13 24/23/13 23/24/13
f 23/24/14 27/25/14 26/26/14 22/22/14
f 27/25/15 25/27/15 26/26/15
f 28/28/16 30/29/16 29/30/16
f 29/30/17 32/31/17 31/32/17 28/28/17
f 32/31/18 25/27/18 31/32/18
f 33/33/19 35/34/19 34/35/19
f 34/35/20 37/36/20 36/37/20 33/33/20
f 37/36/21 25/27/21 36/37/21
f 38/38/22 40/39/22 39/40/22
f 39/40/23 42/41/23 41/42/23 38/38/23
f 42/41/24 25/27/24 41/42/24
f 49/43/25 44/44/25 46/45/25 50/46/25
f 50/46/26 46/45/26 48/47/26 51/48/26
f 51/49/27 48/50/27 44/44/27 49/43/27
f 47/51/28 51/49/28 49/43/28 43/52/28
f 45/53/29 50/46/29 51/48/29 47/54/29
f 43/52/30 49/43/30 50/46/30 45/53/30
f 53/55/31 54/56/31 55/57/31 56/58/31
f 52/59/31 53/55/31 56/58/31
