# Blender v2.78 (sub 0) OBJ File: 'Low_Poly_Vegetation_Pack.blend'
# www.blender.org
g Flower_b_TwoS_07
v -0.015798 0.277031 0.006717
v -0.184891 0.351071 -0.076297
v -0.113494 0.318199 -0.000723
v -0.079779 0.325241 -0.063116
v -0.179291 0.318501 0.118592
v -0.075325 0.299337 0.091885
v -0.112536 0.312634 0.032576
v -0.006125 0.287196 0.208630
v 0.025189 0.287735 0.104186
v -0.045737 0.293989 0.107269
v 0.161442 0.288460 0.103780
v 0.087534 0.294994 0.023878
v 0.053819 0.287951 0.086270
v 0.155842 0.321030 -0.091108
v 0.049366 0.313855 -0.068731
v 0.086577 0.300559 -0.009422
v -0.017325 0.352335 -0.181146
v -0.051149 0.325457 -0.081031
v 0.019777 0.319204 -0.084114
v -0.094902 0.257031 0.028022
v -0.064307 0.257205 -0.074475
v -0.142253 0.314642 -0.026887
v -0.133064 0.314353 -0.055503
v -0.166054 0.350207 -0.042785
v -0.038649 0.214854 0.038470
v -0.011491 0.215008 -0.052509
v -0.085024 0.250607 -0.024856
v -0.128050 0.297468 -0.037619
v -0.012961 0.198267 -0.003433
v 0.063504 0.138528 -0.032245
v 0.045503 0.145758 0.048245
v 0.112880 0.174703 0.007292
v 0.108298 0.176544 0.027779
v 0.134918 0.194659 0.025256
v 0.016914 0.108200 -0.035155
v 0.000936 0.114618 0.036290
v 0.057506 0.136300 0.009196
v 0.098771 0.164125 0.015925
v 0.000305 0.097729 -0.000132
v -0.015817 0.276835 0.006685
v -0.184933 0.350880 -0.076341
v -0.113550 0.318014 -0.000775
v -0.079835 0.325056 -0.063167
v -0.179332 0.318306 0.118573
v -0.075380 0.299145 0.091876
v -0.112591 0.312441 0.032567
v -0.006143 0.286997 0.208624
v 0.025172 0.287536 0.104197
v -0.045754 0.293790 0.107280
v 0.161446 0.288261 0.103760
v 0.087553 0.294795 0.023866
v 0.053839 0.287753 0.086258
v 0.155846 0.320835 -0.091154
v 0.049384 0.313664 -0.068786
v 0.086595 0.300368 -0.009476
v -0.017344 0.352145 -0.181204
v -0.051169 0.325273 -0.081105
v 0.019757 0.319019 -0.084188
v -0.095034 0.256881 0.028016
v -0.064420 0.257055 -0.074543
v -0.142410 0.314519 -0.026905
v -0.133207 0.314231 -0.055573
v -0.166209 0.350090 -0.042833
v -0.038767 0.214692 0.038465
v -0.011592 0.214847 -0.052570
v -0.085151 0.250457 -0.024894
v -0.128194 0.297337 -0.037663
v -0.013071 0.198104 -0.003466
v 0.063616 0.138362 -0.032241
v 0.045600 0.145598 0.048316
v 0.113002 0.174546 0.007304
v 0.108405 0.176390 0.027851
v 0.135038 0.194504 0.025297
v 0.017024 0.108034 -0.035150
v 0.001031 0.114457 0.036361
v 0.057612 0.136135 0.009235
v 0.098882 0.163963 0.015965
v 0.000409 0.097563 -0.000093
v -0.015790 0.296652 -0.032959
v -0.055046 0.295365 -0.002365
v -0.038394 0.286213 0.043651
v 0.011153 0.281845 0.041498
v 0.025123 0.288296 -0.005850
v -0.004123 0.000000 0.003893
v -0.022491 0.204549 -0.005592
v -0.001310 0.000000 -0.005517
v -0.020681 0.205551 -0.011910
v 0.005432 0.000000 0.001624
v -0.014536 0.199769 -0.006575
v -0.005635 0.106038 0.001272
v -0.003285 0.106484 -0.006589
v 0.002348 0.102733 -0.000623
v -0.005887 0.150065 -0.003526
v -0.017961 0.284664 0.011541
v -0.011751 0.284198 0.008278
v -0.017028 0.285749 0.004010
vt 0.5777 0.4186
vt 0.5425 0.4186
vt 0.5601 0.3923
vt 0.5601 0.4816
vt 0.5777 0.4186
vt 0.5425 0.4186
vt 0.5601 0.4816
vt 0.5777 0.4186
vt 0.5425 0.4186
vt 0.5601 0.4816
vt 0.5777 0.4186
vt 0.5425 0.4186
vt 0.5601 0.4816
vt 0.5777 0.4186
vt 0.5425 0.4186
vt 0.5601 0.4816
vt 0.5777 0.4186
vt 0.5425 0.4186
vt 0.5601 0.4816
vt 0.1828 0.8109
vt 0.2046 0.8125
vt 0.1865 0.8456
vt 0.1814 0.8368
vt 0.1820 0.8618
vt 0.1611 0.8101
vt 0.1650 0.7814
vt 0.1848 0.7748
vt 0.2038 0.7836
vt 0.1754 0.8450
vt 0.0629 0.8017
vt 0.0846 0.8033
vt 0.0665 0.8364
vt 0.0614 0.8275
vt 0.0621 0.8526
vt 0.0411 0.8009
vt 0.0451 0.7722
vt 0.0649 0.7656
vt 0.0839 0.7743
vt 0.0554 0.8357
vt 0.5777 0.4186
vt 0.5601 0.3923
vt 0.5425 0.4186
vt 0.5601 0.4816
vt 0.5777 0.4186
vt 0.5425 0.4186
vt 0.5601 0.4816
vt 0.5777 0.4186
vt 0.5425 0.4186
vt 0.5601 0.4816
vt 0.5777 0.4186
vt 0.5425 0.4186
vt 0.5601 0.4816
vt 0.5777 0.4186
vt 0.5425 0.4186
vt 0.5601 0.4816
vt 0.5777 0.4186
vt 0.5425 0.4186
vt 0.5601 0.4816
vt 0.1828 0.8109
vt 0.1814 0.8368
vt 0.1865 0.8456
vt 0.2046 0.8125
vt 0.1820 0.8618
vt 0.1848 0.7748
vt 0.1650 0.7814
vt 0.1611 0.8101
vt 0.2038 0.7836
vt 0.1754 0.8450
vt 0.0629 0.8017
vt 0.0614 0.8275
vt 0.0665 0.8364
vt 0.0846 0.8033
vt 0.0621 0.8526
vt 0.0649 0.7656
vt 0.0451 0.7722
vt 0.0411 0.8009
vt 0.0839 0.7743
vt 0.0554 0.8357
vt 0.6466 0.4180
vt 0.6869 0.3888
vt 0.7271 0.4180
vt 0.7117 0.4654
vt 0.6620 0.4654
vt 0.6774 0.6667
vt 0.6693 0.6978
vt 0.6673 0.6977
vt 0.6749 0.6664
vt 0.6693 0.6796
vt 0.6727 0.6645
vt 0.6759 0.6817
vt 0.6812 0.7255
vt 0.6787 0.7259
vt 0.6855 0.6354
vt 0.6800 0.6656
vt 0.6826 0.6349
vt 0.6799 0.6345
vt 0.6770 0.6340
vt 0.6719 0.6966
vt 0.6656 0.6950
vt 0.6833 0.7251
vt 0.6831 0.6811
vt 0.6855 0.7255
vn 0.3526 0.8894 0.2909
vn 0.2068 0.9535 0.2194
vn 0.3441 0.9389 -0.0054
vn 0.2031 0.9749 0.0911
vn 0.0808 0.9865 -0.1423
vn 0.0892 0.9955 0.0319
vn -0.1740 0.9846 0.0171
vn -0.0211 0.9947 0.1009
vn -0.1655 0.9351 0.3135
vn -0.0174 0.9732 0.2291
vn 0.0978 0.8875 0.4504
vn 0.0965 0.9526 0.2884
vn 0.6411 0.6663 0.3809
vn 0.7500 0.5729 0.3306
vn 0.5889 0.8078 0.0249
vn 0.5054 0.8074 0.3045
vn 0.7446 0.6666 0.0346
vn 0.8001 0.5881 0.1178
vn -0.4931 0.7903 -0.3636
vn -0.5491 0.7578 -0.3526
vn -0.5509 0.8342 -0.0243
vn -0.4774 0.8047 -0.3529
vn -0.5702 0.8213 -0.0189
vn -0.6302 0.7718 -0.0842
vn -0.3525 -0.8894 -0.2909
vn -0.2068 -0.9535 -0.2194
vn -0.3440 -0.9389 0.0054
vn -0.2031 -0.9749 -0.0911
vn -0.0808 -0.9865 0.1422
vn -0.0892 -0.9955 -0.0319
vn 0.1739 -0.9846 -0.0172
vn 0.0211 -0.9947 -0.1009
vn 0.1654 -0.9351 -0.3134
vn 0.0174 -0.9732 -0.2291
vn -0.0978 -0.8875 -0.4503
vn -0.0965 -0.9526 -0.2884
vn -0.6411 -0.6663 -0.3808
vn -0.7501 -0.5729 -0.3305
vn -0.5889 -0.8078 -0.0249
vn -0.5054 -0.8074 -0.3045
vn -0.7446 -0.6666 -0.0347
vn -0.8001 -0.5881 -0.1179
vn 0.4931 -0.7903 0.3635
vn 0.5492 -0.7578 0.3523
vn 0.5509 -0.8342 0.0244
vn 0.4774 -0.8047 0.3528
vn 0.5702 -0.8213 0.0190
vn 0.6302 -0.7718 0.0844
vn 0.0936 0.9824 0.1615
vn -0.9386 -0.1808 -0.2938
vn 0.7520 0.0908 -0.6529
vn -0.9634 -0.0571 -0.2620
vn 0.2359 0.0278 0.9714
vn 0.7281 0.0067 -0.6855
vn -0.9577 -0.0207 -0.2869
vn 0.2123 0.1015 0.9719
vn 0.7167 0.0865 -0.6920
vn 0.3355 -0.0255 0.9417
vn 0.7070 0.0926 -0.7011
s off
f 4/1/1 3/2/1 1/3/1
f 2/4/2 3/2/2 4/1/2
f 7/5/3 6/6/3 1/3/3
f 5/7/4 6/6/4 7/5/4
f 10/8/5 9/9/5 1/3/5
f 8/10/6 9/9/6 10/8/6
f 13/11/7 12/12/7 1/3/7
f 11/13/8 12/12/8 13/11/8
f 16/14/9 15/15/9 1/3/9
f 14/16/10 15/15/10 16/14/10
f 19/17/11 18/18/11 1/3/11
f 17/19/12 18/18/12 19/17/12
f 27/20/13 21/21/13 23/22/13 28/23/13
f 28/23/14 23/22/14 24/24/14
f 27/20/15 20/25/15 25/26/15 29/27/15
f 21/21/16 27/20/16 29/27/16 26/28/16
f 20/25/17 27/20/17 28/23/17 22/29/17
f 22/29/18 28/23/18 24/24/18
f 37/30/19 31/31/19 33/32/19 38/33/19
f 38/33/20 33/32/20 34/34/20
f 37/30/21 30/35/21 35/36/21 39/37/21
f 31/31/22 37/30/22 39/37/22 36/38/22
f 30/35/23 37/30/23 38/33/23 32/39/23
f 32/39/24 38/33/24 34/34/24
f 43/40/25 40/41/25 42/42/25
f 41/43/26 43/40/26 42/42/26
f 46/44/27 40/41/27 45/45/27
f 44/46/28 46/44/28 45/45/28
f 49/47/29 40/41/29 48/48/29
f 47/49/30 49/47/30 48/48/30
f 52/50/31 40/41/31 51/51/31
f 50/52/32 52/50/32 51/51/32
f 55/53/33 40/41/33 54/54/33
f 53/55/34 55/53/34 54/54/34
f 58/56/35 40/41/35 57/57/35
f 56/58/36 58/56/36 57/57/36
f 66/59/37 67/60/37 62/61/37 60/62/37
f 67/60/38 63/63/38 62/61/38
f 66/59/39 68/64/39 64/65/39 59/66/39
f 60/62/40 65/67/40 68/64/40 66/59/40
f 59/66/41 61/68/41 67/60/41 66/59/41
f 61/68/42 63/63/42 67/60/42
f 76/69/43 77/70/43 72/71/43 70/72/43
f 77/70/44 73/73/44 72/71/44
f 76/69/45 78/74/45 74/75/45 69/76/45
f 70/72/46 75/77/46 78/74/46 76/69/46
f 69/76/47 71/78/47 77/70/47 76/69/47
f 71/78/48 73/73/48 77/70/48
f 80/79/49 81/80/49 82/81/49 83/82/49
f 79/83/49 80/79/49 83/82/49
f 90/84/50 85/85/50 87/86/50 91/87/50
f 91/87/51 93/88/51 92/89/51
f 93/90/52 90/84/52 94/91/52 96/92/52
f 88/93/53 92/94/53 90/84/53 84/95/53
f 86/96/54 91/87/54 92/89/54 88/97/54
f 84/95/55 90/84/55 91/87/55 86/96/55
f 90/84/56 93/90/56 89/98/56 85/85/56
f 93/88/57 91/87/57 87/86/57 89/99/57
f 90/84/58 92/94/58 95/100/58 94/91/58
f 92/94/59 93/101/59 96/102/59 95/100/59
