# Blender v2.78 (sub 0) OBJ File: 'Low_Poly_Vegetation_Pack.blend'
# www.blender.org
g Flower_b_TwoS_02
v -0.027302 0.270753 0.012602
v -0.205025 0.280825 -0.083724
v -0.132337 0.276425 -0.002567
v -0.098535 0.292274 -0.063273
v -0.202808 0.258635 0.112684
v -0.096771 0.274626 0.092936
v -0.131957 0.272634 0.030992
v -0.035989 0.290392 0.213860
v 0.000720 0.297892 0.111460
v -0.068268 0.280052 0.110223
v 0.128613 0.344340 0.118627
v 0.062645 0.322958 0.034481
v 0.028844 0.307110 0.095188
v 0.126397 0.366530 -0.077782
v 0.027081 0.324758 -0.061023
v 0.062266 0.326750 0.000921
v -0.040423 0.334773 -0.178957
v -0.070411 0.301492 -0.079546
v -0.001424 0.319332 -0.078309
v -0.027252 0.270560 0.012580
v -0.204997 0.280630 -0.083760
v -0.132324 0.276231 -0.002610
v -0.098522 0.292079 -0.063317
v -0.202780 0.258437 0.112675
v -0.096758 0.274426 0.092935
v -0.131944 0.272435 0.030991
v -0.035939 0.290199 0.213863
v 0.000769 0.297699 0.111481
v -0.068218 0.279859 0.110244
v 0.128685 0.344154 0.118618
v 0.062731 0.322778 0.034481
v 0.028929 0.306929 0.095188
v 0.126468 0.366347 -0.077817
v 0.027166 0.324582 -0.061065
v 0.062351 0.326574 0.000879
v -0.040373 0.334585 -0.179005
v -0.070363 0.301309 -0.079610
v -0.001375 0.319149 -0.078373
v 0.000000 0.000000 -0.009000
v -0.029468 0.281051 0.008044
v 0.007794 0.000000 0.004500
v -0.023003 0.282209 0.015084
v -0.007794 0.000000 0.004500
v -0.032827 0.278622 0.014887
v -0.000603 0.152014 -0.001622
v 0.005618 0.152014 0.009153
v -0.006824 0.152014 0.009153
v -0.031000 0.287883 -0.028039
v -0.069661 0.274515 0.000338
v -0.054238 0.273051 0.047651
v -0.006045 0.285514 0.048515
v 0.008316 0.294680 0.001736
vt 0.5850 0.4159
vt 0.5467 0.4159
vt 0.5658 0.3873
vt 0.5658 0.4843
vt 0.5850 0.4159
vt 0.5467 0.4159
vt 0.5658 0.4843
vt 0.5850 0.4159
vt 0.5467 0.4159
vt 0.5658 0.4843
vt 0.5850 0.4159
vt 0.5467 0.4159
vt 0.5658 0.4843
vt 0.5850 0.4159
vt 0.5467 0.4159
vt 0.5658 0.4843
vt 0.5850 0.4159
vt 0.5467 0.4159
vt 0.5658 0.4843
vt 0.5850 0.4159
vt 0.5658 0.3873
vt 0.5467 0.4159
vt 0.5658 0.4843
vt 0.5850 0.4159
vt 0.5467 0.4159
vt 0.5658 0.4843
vt 0.5850 0.4159
vt 0.5467 0.4159
vt 0.5658 0.4843
vt 0.5850 0.4159
vt 0.5467 0.4159
vt 0.5658 0.4843
vt 0.5850 0.4159
vt 0.5467 0.4159
vt 0.5658 0.4843
vt 0.5850 0.4159
vt 0.5467 0.4159
vt 0.5658 0.4843
vt 0.6953 0.6886
vt 0.6953 0.7334
vt 0.6901 0.7334
vt 0.6901 0.6886
vt 0.6849 0.7334
vt 0.6849 0.6886
vt 0.7004 0.6886
vt 0.7004 0.7334
vt 0.7004 0.6438
vt 0.6953 0.6438
vt 0.6901 0.6438
vt 0.6849 0.6438
vt 0.6465 0.4207
vt 0.6903 0.3889
vt 0.7342 0.4207
vt 0.7174 0.4722
vt 0.6632 0.4722
vn 0.0146 0.9655 0.2602
vn -0.1388 0.9744 0.1771
vn 0.0112 0.9992 -0.0385
vn -0.1402 0.9890 0.0479
vn -0.2425 0.9509 -0.1923
vn -0.2500 0.9681 -0.0187
vn -0.4927 0.8689 -0.0475
vn -0.3583 0.9326 0.0439
vn -0.4894 0.8351 0.2511
vn -0.3569 0.9180 0.1732
vn -0.2357 0.8834 0.4050
vn -0.2471 0.9389 0.2398
vn -0.0145 -0.9655 -0.2601
vn 0.1388 -0.9744 -0.1771
vn -0.0111 -0.9992 0.0384
vn 0.1402 -0.9890 -0.0479
vn 0.2425 -0.9509 0.1922
vn 0.2500 -0.9681 0.0187
vn 0.4927 -0.8689 0.0475
vn 0.3583 -0.9326 -0.0440
vn 0.4893 -0.8352 -0.2511
vn 0.3569 -0.9180 -0.1732
vn 0.2357 -0.8835 -0.4049
vn 0.2471 -0.9389 -0.2398
vn 0.7899 0.2098 -0.5762
vn -0.0015 -0.0457 0.9990
vn -0.8588 -0.1549 -0.4884
vn -0.8658 0.0208 -0.4999
vn -0.0000 -0.0306 0.9995
vn 0.8657 0.0277 -0.4998
vn -0.2507 0.9616 0.1115
s off
f 4/1/1 3/2/1 1/3/1
f 2/4/2 3/2/2 4/1/2
f 7/5/3 6/6/3 1/3/3
f 5/7/4 6/6/4 7/5/4
f 10/8/5 9/9/5 1/3/5
f 8/10/6 9/9/6 10/8/6
f 13/11/7 12/12/7 1/3/7
f 11/13/8 12/12/8 13/11/8
f 16/14/9 15/15/9 1/3/9
f 14/16/10 15/15/10 16/14/10
f 19/17/11 18/18/11 1/3/11
f 17/19/12 18/18/12 19/17/12
f 23/20/13 20/21/13 22/22/13
f 21/23/14 23/20/14 22/22/14
f 26/24/15 20/21/15 25/25/15
f 24/26/16 26/24/16 25/25/16
f 29/27/17 20/21/17 28/28/17
f 27/29/18 29/27/18 28/28/18
f 32/30/19 20/21/19 31/31/19
f 30/32/20 32/30/20 31/31/20
f 35/33/21 20/21/21 34/34/21
f 33/35/22 35/33/22 34/34/22
f 38/36/23 20/21/23 37/37/23
f 36/38/24 38/36/24 37/37/24
f 45/39/25 40/40/25 42/41/25 46/42/25
f 46/42/26 42/41/26 44/43/26 47/44/26
f 47/45/27 44/46/27 40/40/27 45/39/27
f 43/47/28 47/45/28 45/39/28 39/48/28
f 41/49/29 46/42/29 47/44/29 43/50/29
f 39/48/30 45/39/30 46/42/30 41/49/30
f 49/51/31 50/52/31 51/53/31 52/54/31
f 48/55/31 49/51/31 52/54/31
