# Blender v2.78 (sub 0) OBJ File: 'Low_Poly_Vegetation_Pack.blend'
# www.blender.org
g Flower_f_TwoS_04
v -0.001130 0.000000 -0.006648
v -0.051322 0.387795 0.003282
v 0.006912 0.000000 0.002003
v -0.046752 0.387599 0.008169
v -0.004601 0.000000 0.004642
v -0.052305 0.385452 0.008963
v -0.007124 0.203019 -0.001478
v 0.000105 0.202087 0.006562
v -0.009978 0.202311 0.008732
v -0.051077 0.387730 0.004190
v -0.049396 0.386453 0.009384
v -0.045872 0.385840 0.005067
v -0.056631 0.473252 0.017240
v -0.054473 0.472919 0.023119
v -0.050471 0.472736 0.018294
v -0.053774 0.384161 0.007799
v -0.050922 0.387590 0.009794
v -0.050139 0.386132 0.005196
v -0.097858 0.433849 -0.002099
v -0.094667 0.437686 0.000132
v -0.093792 0.436054 -0.005011
v -0.136630 0.465833 -0.086071
v -0.054661 0.498044 -0.090033
v -0.105096 0.409510 -0.060272
v -0.033939 0.441004 -0.061174
v -0.104932 0.494217 -0.122251
v -0.068717 0.413503 -0.083639
v -0.049826 0.381005 0.005943
v -0.000259 0.510596 0.062468
v -0.072729 0.487265 0.097296
v 0.005163 0.456831 0.033596
v -0.063406 0.430825 0.075918
v -0.035032 0.523089 0.100773
v -0.023356 0.440179 0.068853
v -0.049865 0.380992 0.005774
v -0.012337 0.506804 -0.076467
v 0.012492 0.518248 0.013728
v -0.025511 0.445867 -0.061855
v 0.012132 0.454763 0.021832
v 0.019633 0.540535 -0.043575
v 0.006291 0.449064 -0.027661
v -0.049922 0.380960 0.005863
v -0.170627 0.434267 0.019917
v -0.155983 0.435161 -0.062513
v -0.128570 0.397495 0.025237
v -0.107051 0.405440 -0.056026
v -0.196068 0.437133 -0.031244
v -0.130045 0.387846 -0.018405
v -0.049762 0.381066 0.005860
v -0.114313 0.466246 0.111413
v -0.175306 0.444627 0.057871
v -0.074273 0.424379 0.093201
v -0.137062 0.398643 0.038529
v -0.169011 0.470364 0.100589
v -0.113135 0.403573 0.070193
v -0.049775 0.381020 0.005785
v -0.136712 0.465719 -0.086227
v -0.054540 0.498011 -0.090202
v -0.105153 0.409347 -0.060393
v -0.033797 0.440923 -0.061307
v -0.104910 0.494131 -0.122442
v -0.068670 0.413365 -0.083791
v -0.049748 0.380827 0.005862
v -0.000101 0.510556 0.062601
v -0.072681 0.487198 0.097490
v 0.005324 0.456747 0.033701
v -0.063350 0.430710 0.076085
v -0.034924 0.523033 0.100945
v -0.023240 0.440074 0.068995
v -0.049753 0.380841 0.005869
v -0.012175 0.506751 -0.076591
v 0.012702 0.518229 0.013727
v -0.025365 0.445770 -0.061970
v 0.012329 0.454690 0.021830
v 0.019830 0.540497 -0.043640
v 0.006470 0.448973 -0.027723
v -0.049776 0.380815 0.005813
v -0.170760 0.434111 0.019966
v -0.156070 0.435007 -0.062628
v -0.128660 0.397310 0.025286
v -0.107095 0.405262 -0.056130
v -0.196189 0.436964 -0.031278
v -0.130118 0.387651 -0.018436
v -0.049773 0.380857 0.005839
v -0.114354 0.466132 0.111585
v -0.175421 0.444485 0.057976
v -0.074281 0.424229 0.093349
v -0.137138 0.398465 0.038613
v -0.169092 0.470232 0.100731
v -0.113175 0.403403 0.070310
v -0.049764 0.380825 0.005863
vt 0.0781 0.6893
vt 0.0772 0.7316
vt 0.0722 0.7316
vt 0.0699 0.6887
vt 0.0670 0.7316
vt 0.0670 0.6892
vt 0.0840 0.6894
vt 0.0824 0.7316
vt 0.0824 0.6427
vt 0.0773 0.6427
vt 0.0722 0.6427
vt 0.0670 0.6427
vt 0.3054 0.2741
vt 0.3043 0.3478
vt 0.2990 0.3463
vt 0.3001 0.2738
vt 0.3155 0.2739
vt 0.3155 0.3464
vt 0.3098 0.3468
vt 0.3104 0.2732
vt 0.3155 0.2732
vt 0.3206 0.2762
vt 0.3155 0.2791
vt 0.3155 0.2739
vt 0.3155 0.3464
vt 0.3098 0.3468
vt 0.3104 0.2732
vt 0.3043 0.3478
vt 0.3054 0.2741
vt 0.3155 0.2732
vt 0.3206 0.2762
vt 0.3155 0.2791
vt 0.2990 0.3463
vt 0.3001 0.2738
vt 0.8186 0.3134
vt 0.8193 0.2566
vt 0.8440 0.3105
vt 0.8475 0.3493
vt 0.8177 0.3684
vt 0.7968 0.3102
vt 0.7913 0.3498
vt 0.8168 0.3097
vt 0.8190 0.2551
vt 0.8418 0.3085
vt 0.8390 0.3469
vt 0.8149 0.3646
vt 0.7877 0.3063
vt 0.7877 0.3445
vt 0.8182 0.3114
vt 0.8190 0.2551
vt 0.8480 0.3076
vt 0.8480 0.3484
vt 0.8175 0.3683
vt 0.7905 0.3072
vt 0.7879 0.3473
vt 0.8182 0.3114
vt 0.8195 0.2577
vt 0.8486 0.3086
vt 0.8461 0.3470
vt 0.8169 0.3655
vt 0.7936 0.3079
vt 0.7890 0.3453
vt 0.8168 0.3097
vt 0.8190 0.2551
vt 0.8418 0.3085
vt 0.8390 0.3469
vt 0.8149 0.3646
vt 0.7877 0.3063
vt 0.7877 0.3445
vt 0.8186 0.3134
vt 0.8440 0.3105
vt 0.8193 0.2566
vt 0.8177 0.3684
vt 0.8475 0.3493
vt 0.7968 0.3102
vt 0.7913 0.3498
vt 0.8168 0.3097
vt 0.8418 0.3085
vt 0.8190 0.2551
vt 0.8149 0.3646
vt 0.8390 0.3469
vt 0.7877 0.3063
vt 0.7877 0.3445
vt 0.8182 0.3114
vt 0.8480 0.3076
vt 0.8190 0.2551
vt 0.8175 0.3683
vt 0.8480 0.3484
vt 0.7905 0.3072
vt 0.7879 0.3473
vt 0.8182 0.3114
vt 0.8486 0.3086
vt 0.8195 0.2577
vt 0.8169 0.3655
vt 0.8461 0.3470
vt 0.7936 0.3079
vt 0.7890 0.3453
vt 0.8168 0.3097
vt 0.8418 0.3085
vt 0.8190 0.2551
vt 0.8149 0.3646
vt 0.8390 0.3469
vt 0.7877 0.3063
vt 0.7877 0.3445
vn 0.7332 0.1915 -0.6525
vn 0.1815 0.0390 0.9826
vn -0.9386 -0.2171 -0.2683
vn -0.9590 -0.0204 -0.2828
vn 0.2172 -0.0143 0.9760
vn 0.7383 0.0395 -0.6733
vn -0.9441 -0.1069 0.3118
vn 0.1980 0.1591 -0.9672
vn 0.7684 -0.0563 0.6375
vn 0.0787 0.9965 0.0276
vn -0.3368 -0.4622 -0.8203
vn 0.7583 0.6475 -0.0763
vn -0.6219 0.7097 -0.3310
vn -0.4066 -0.1824 0.8952
vn -0.7112 0.5993 0.3674
vn -0.5743 0.1563 0.8036
vn 0.1022 0.9418 0.3201
vn 0.3917 0.5428 0.7429
vn -0.2809 0.7560 -0.5913
vn -0.2272 0.3178 -0.9205
vn -0.7222 0.6293 -0.2870
vn -0.7497 0.1884 -0.6344
vn -0.7671 0.6413 0.0167
vn -0.9961 0.0883 0.0016
vn -0.5617 0.6890 0.4580
vn -0.7669 0.2517 0.5904
vn -0.0439 0.9150 0.4010
vn 0.4117 0.7319 0.5430
vn 0.1474 0.9647 -0.2183
vn 0.6295 0.7416 -0.2318
vn 0.1081 0.9667 -0.2322
vn 0.5442 0.6743 -0.4991
vn -0.1784 0.8607 -0.4769
vn 0.1989 0.5411 -0.8171
vn 0.7109 -0.5996 -0.3676
vn 0.5738 -0.1567 -0.8038
vn -0.1017 -0.9418 -0.3203
vn -0.3911 -0.5428 -0.7432
vn 0.2810 -0.7559 0.5913
vn 0.2275 -0.3179 0.9204
vn 0.7222 -0.6293 0.2872
vn 0.7496 -0.1885 0.6345
vn 0.7671 -0.6413 -0.0167
vn 0.9961 -0.0885 -0.0019
vn 0.5619 -0.6890 -0.4579
vn 0.7670 -0.2517 -0.5902
vn 0.0437 -0.9151 -0.4008
vn -0.4119 -0.7321 -0.5426
vn -0.1475 -0.9647 0.2181
vn -0.6294 -0.7418 0.2314
vn -0.1081 -0.9666 0.2323
vn -0.5440 -0.6744 0.4993
vn 0.1783 -0.8606 0.4770
vn -0.1990 -0.5413 0.8170
s off
f 7/1/1 2/2/1 4/3/1 8/4/1
f 8/4/2 4/3/2 6/5/2 9/6/2
f 9/7/3 6/8/3 2/2/3 7/1/3
f 5/9/4 9/7/4 7/1/4 1/10/4
f 3/11/5 8/4/5 9/6/5 5/12/5
f 1/10/6 7/1/6 8/4/6 3/11/6
f 11/13/7 14/14/7 13/15/7 10/16/7
f 10/17/8 13/18/8 15/19/8 12/20/8
f 12/20/9 15/19/9 14/14/9 11/13/9
f 14/21/10 15/22/10 13/23/10
f 16/24/11 19/25/11 21/26/11 18/27/11
f 18/27/12 21/26/12 20/28/12 17/29/12
f 20/30/13 21/31/13 19/32/13
f 17/29/14 20/28/14 19/33/14 16/34/14
f 27/35/15 28/36/15 25/37/15
f 27/35/16 25/37/16 23/38/16 26/39/16
f 24/40/17 28/36/17 27/35/17
f 24/40/18 27/35/18 26/39/18 22/41/18
f 34/42/19 35/43/19 32/44/19
f 34/42/20 32/44/20 30/45/20 33/46/20
f 31/47/21 35/43/21 34/42/21
f 31/47/22 34/42/22 33/46/22 29/48/22
f 41/49/23 42/50/23 39/51/23
f 41/49/24 39/51/24 37/52/24 40/53/24
f 38/54/25 42/50/25 41/49/25
f 38/54/26 41/49/26 40/53/26 36/55/26
f 48/56/27 49/57/27 46/58/27
f 48/56/28 46/58/28 44/59/28 47/60/28
f 45/61/29 49/57/29 48/56/29
f 45/61/30 48/56/30 47/60/30 43/62/30
f 55/63/31 56/64/31 53/65/31
f 55/63/32 53/65/32 51/66/32 54/67/32
f 52/68/33 56/64/33 55/63/33
f 52/68/34 55/63/34 54/67/34 50/69/34
f 62/70/35 60/71/35 63/72/35
f 62/70/36 61/73/36 58/74/36 60/71/36
f 59/75/37 62/70/37 63/72/37
f 59/75/38 57/76/38 61/73/38 62/70/38
f 69/77/39 67/78/39 70/79/39
f 69/77/40 68/80/40 65/81/40 67/78/40
f 66/82/41 69/77/41 70/79/41
f 66/82/42 64/83/42 68/80/42 69/77/42
f 76/84/43 74/85/43 77/86/43
f 76/84/44 75/87/44 72/88/44 74/85/44
f 73/89/45 76/84/45 77/86/45
f 73/89/46 71/90/46 75/87/46 76/84/46
f 83/91/47 81/92/47 84/93/47
f 83/91/48 82/94/48 79/95/48 81/92/48
f 80/96/49 83/91/49 84/93/49
f 80/96/50 78/97/50 82/94/50 83/91/50
f 90/98/51 88/99/51 91/100/51
f 90/98/52 89/101/52 86/102/52 88/99/52
f 87/103/53 90/98/53 91/100/53
f 87/103/54 85/104/54 89/101/54 90/98/54
