# Blender v2.78 (sub 0) OBJ File: 'Low_Poly_Vegetation_Pack.blend'
# www.blender.org
g Flower_c_TwoS_02
v -0.076414 0.295335 -0.028350
v 0.014940 0.328781 -0.029657
v -0.089506 0.303365 -0.120939
v 0.017415 0.342511 -0.122469
v -0.094844 0.291428 -0.074343
v 0.030370 0.337270 -0.076134
v -0.031681 0.314690 -0.027654
v -0.039385 0.331282 -0.141559
v -0.036395 0.325939 -0.069295
v -0.018018 0.278817 0.009335
v 0.016429 0.328700 -0.028456
v 0.032076 0.289385 0.059154
v 0.107365 0.337577 -0.049919
v 0.125678 0.291564 0.052620
v 0.059101 0.335694 -0.052961
v 0.080547 0.281808 0.067120
v 0.023309 0.311674 0.016699
v 0.137144 0.321601 0.000822
v 0.065666 0.320341 0.013023
v 0.031023 0.288373 0.060391
v -0.060331 0.254927 0.061698
v 0.062035 0.230398 0.127368
v -0.044886 0.191252 0.128897
v 0.060219 0.262272 0.090995
v -0.064995 0.216429 0.092786
v -0.015599 0.274282 0.062394
v 0.012243 0.201561 0.147516
v -0.006546 0.250940 0.097834
v -0.061820 0.255008 0.060497
v -0.077467 0.294323 -0.027113
v -0.134836 0.196186 0.056347
v -0.153150 0.242199 -0.046192
v -0.093725 0.218005 0.069613
v -0.115172 0.271891 -0.050469
v -0.070588 0.277297 0.018042
v -0.164286 0.211243 0.005134
v -0.108607 0.256538 0.015516
v -0.076329 0.295170 -0.028423
v 0.014980 0.328599 -0.029729
v -0.089410 0.303192 -0.120963
v 0.017452 0.342316 -0.122491
v -0.094749 0.291254 -0.074373
v 0.030409 0.337076 -0.076164
v -0.031622 0.314525 -0.027750
v -0.039317 0.331096 -0.141582
v -0.036327 0.325753 -0.069327
v -0.017957 0.278648 0.009248
v 0.016480 0.328517 -0.028520
v 0.032119 0.289222 0.059046
v 0.107366 0.337384 -0.049971
v 0.125669 0.291396 0.052512
v 0.059109 0.335502 -0.053016
v 0.080545 0.281640 0.067012
v 0.023379 0.311508 0.016612
v 0.137140 0.321418 0.000741
v 0.065670 0.320159 0.012941
v 0.031058 0.288203 0.060292
v -0.060251 0.254773 0.061598
v 0.062052 0.230255 0.127229
v -0.044811 0.191131 0.128757
v 0.060239 0.262125 0.090861
v -0.064919 0.216302 0.092651
v -0.015536 0.274108 0.062316
v 0.012290 0.201428 0.147375
v -0.006497 0.250801 0.097699
v -0.061750 0.254855 0.060389
v -0.077389 0.294150 -0.027177
v -0.134724 0.196062 0.056237
v -0.153027 0.242051 -0.046246
v -0.093618 0.217876 0.069504
v -0.115055 0.271739 -0.050525
v -0.070537 0.277125 0.017955
v -0.164167 0.211105 0.005051
v -0.108494 0.256395 0.015432
v 0.006961 0.000000 0.000734
v -0.014600 0.279237 0.009297
v -0.004116 0.000000 0.005662
v -0.022046 0.276040 0.012593
v -0.002845 0.000000 -0.006396
v -0.021279 0.280502 0.005313
v 0.001539 0.132227 -0.000074
v -0.009368 0.131324 0.004745
v -0.008100 0.131651 -0.007288
vt 0.1856 0.3190
vt 0.2247 0.3211
vt 0.2189 0.3487
vt 0.1855 0.3608
vt 0.1856 0.2944
vt 0.2136 0.2944
vt 0.1576 0.2943
vt 0.1465 0.3210
vt 0.1522 0.3485
vt 0.1857 0.2638
vt 0.1856 0.3190
vt 0.2247 0.3211
vt 0.2189 0.3487
vt 0.1855 0.3608
vt 0.1856 0.2944
vt 0.2136 0.2944
vt 0.1576 0.2943
vt 0.1465 0.3210
vt 0.1522 0.3485
vt 0.1856 0.3190
vt 0.2247 0.3211
vt 0.2189 0.3487
vt 0.1855 0.3608
vt 0.1856 0.2944
vt 0.2136 0.2944
vt 0.1576 0.2943
vt 0.1465 0.3210
vt 0.1522 0.3485
vt 0.1856 0.3190
vt 0.2247 0.3211
vt 0.2189 0.3487
vt 0.1855 0.3608
vt 0.1856 0.2944
vt 0.2136 0.2944
vt 0.1576 0.2943
vt 0.1465 0.3210
vt 0.1522 0.3485
vt 0.1856 0.3190
vt 0.1855 0.3608
vt 0.2189 0.3487
vt 0.2247 0.3211
vt 0.1856 0.2944
vt 0.2136 0.2944
vt 0.1576 0.2943
vt 0.1465 0.3210
vt 0.1522 0.3485
vt 0.1857 0.2638
vt 0.1856 0.3190
vt 0.1855 0.3608
vt 0.2189 0.3487
vt 0.2247 0.3211
vt 0.1856 0.2944
vt 0.2136 0.2944
vt 0.1576 0.2943
vt 0.1465 0.3210
vt 0.1522 0.3485
vt 0.1856 0.3190
vt 0.1855 0.3608
vt 0.2189 0.3487
vt 0.2247 0.3211
vt 0.1856 0.2944
vt 0.2136 0.2944
vt 0.1576 0.2943
vt 0.1465 0.3210
vt 0.1522 0.3485
vt 0.1856 0.3190
vt 0.1855 0.3608
vt 0.2189 0.3487
vt 0.2247 0.3211
vt 0.1856 0.2944
vt 0.2136 0.2944
vt 0.1576 0.2943
vt 0.1465 0.3210
vt 0.1522 0.3485
vt 0.6936 0.6837
vt 0.6936 0.7328
vt 0.6879 0.7328
vt 0.6879 0.6837
vt 0.6822 0.7328
vt 0.6822 0.6837
vt 0.6992 0.6837
vt 0.6992 0.7328
vt 0.6992 0.6347
vt 0.6936 0.6347
vt 0.6879 0.6347
vt 0.6822 0.6347
vn -0.1892 0.9755 0.1125
vn -0.2006 0.9609 0.1908
vn -0.4624 0.8650 0.1946
vn -0.4824 0.8681 0.1167
vn -0.2852 0.6333 0.7195
vn -0.1730 0.6743 0.7179
vn 0.0448 0.8392 0.5420
vn -0.0356 0.8416 0.5389
vn -0.0804 0.9543 0.2878
vn -0.0054 0.9654 0.2608
vn -0.6194 0.6988 0.3578
vn -0.6001 0.6505 0.4655
vn -0.3784 0.6068 0.6989
vn -0.3824 0.6641 0.6425
vn -0.1206 0.7599 0.6387
vn -0.0853 0.7142 0.6947
vn -0.2843 0.9541 0.0945
vn -0.3965 0.9130 0.0961
vn -0.6125 0.7431 0.2695
vn -0.5474 0.7833 0.2944
vn -0.5026 0.6706 0.5456
vn -0.5623 0.6169 0.5506
vn 0.0499 0.8885 0.4562
vn 0.0306 0.9368 0.3485
vn 0.1892 -0.9755 -0.1125
vn 0.2005 -0.9610 -0.1907
vn 0.4625 -0.8650 -0.1945
vn 0.4825 -0.8681 -0.1167
vn 0.2850 -0.6334 -0.7195
vn 0.1732 -0.6743 -0.7178
vn -0.0448 -0.8392 -0.5420
vn 0.0354 -0.8416 -0.5389
vn 0.0803 -0.9544 -0.2877
vn 0.0054 -0.9654 -0.2608
vn 0.6193 -0.6988 -0.3580
vn 0.6001 -0.6506 -0.4653
vn 0.3785 -0.6068 -0.6989
vn 0.3825 -0.6639 -0.6426
vn 0.1205 -0.7599 -0.6388
vn 0.0852 -0.7142 -0.6947
vn 0.2845 -0.9540 -0.0946
vn 0.3964 -0.9130 -0.0962
vn 0.6125 -0.7431 -0.2694
vn 0.5475 -0.7833 -0.2943
vn 0.5027 -0.6705 -0.5456
vn 0.5623 -0.6169 -0.5507
vn -0.0498 -0.8886 -0.4560
vn -0.0306 -0.9367 -0.3487
vn 0.4069 -0.0137 0.9134
vn -0.9892 -0.0785 -0.1237
vn 0.5653 0.1167 -0.8166
vn 0.5931 0.0188 -0.8049
vn -0.9936 -0.0404 -0.1053
vn 0.4044 0.0224 0.9143
s off
f 9/1/1 6/2/1 4/3/1 8/4/1
f 7/5/2 2/6/2 6/2/2 9/1/2
f 1/7/3 7/5/3 9/1/3 5/8/3
f 5/8/4 9/1/4 8/4/4 3/9/4
f 7/5/5 1/7/5 10/10/5
f 7/5/6 10/10/6 2/6/6
f 19/11/7 16/12/7 14/13/7 18/14/7
f 17/15/8 12/16/8 16/12/8 19/11/8
f 11/17/9 17/15/9 19/11/9 15/18/9
f 15/18/10 19/11/10 18/14/10 13/19/10
f 17/15/11 11/17/11 10/10/11
f 17/15/12 10/10/12 12/16/12
f 28/20/13 25/21/13 23/22/13 27/23/13
f 26/24/14 21/25/14 25/21/14 28/20/14
f 20/26/15 26/24/15 28/20/15 24/27/15
f 24/27/16 28/20/16 27/23/16 22/28/16
f 26/24/17 20/26/17 10/10/17
f 26/24/18 10/10/18 21/25/18
f 37/29/19 34/30/19 32/31/19 36/32/19
f 35/33/20 30/34/20 34/30/20 37/29/20
f 29/35/21 35/33/21 37/29/21 33/36/21
f 33/36/22 37/29/22 36/32/22 31/37/22
f 35/33/23 29/35/23 10/10/23
f 35/33/24 10/10/24 30/34/24
f 46/38/25 45/39/25 41/40/25 43/41/25
f 44/42/26 46/38/26 43/41/26 39/43/26
f 38/44/27 42/45/27 46/38/27 44/42/27
f 42/45/28 40/46/28 45/39/28 46/38/28
f 44/42/29 47/47/29 38/44/29
f 44/42/30 39/43/30 47/47/30
f 56/48/31 55/49/31 51/50/31 53/51/31
f 54/52/32 56/48/32 53/51/32 49/53/32
f 48/54/33 52/55/33 56/48/33 54/52/33
f 52/55/34 50/56/34 55/49/34 56/48/34
f 54/52/35 47/47/35 48/54/35
f 54/52/36 49/53/36 47/47/36
f 65/57/37 64/58/37 60/59/37 62/60/37
f 63/61/38 65/57/38 62/60/38 58/62/38
f 57/63/39 61/64/39 65/57/39 63/61/39
f 61/64/40 59/65/40 64/58/40 65/57/40
f 63/61/41 47/47/41 57/63/41
f 63/61/42 58/62/42 47/47/42
f 74/66/43 73/67/43 69/68/43 71/69/43
f 72/70/44 74/66/44 71/69/44 67/71/44
f 66/72/45 70/73/45 74/66/45 72/70/45
f 70/73/46 68/74/46 73/67/46 74/66/46
f 72/70/47 47/47/47 66/72/47
f 72/70/48 67/71/48 47/47/48
f 81/75/49 76/76/49 78/77/49 82/78/49
f 82/78/50 78/77/50 80/79/50 83/80/50
f 83/81/51 80/82/51 76/76/51 81/75/51
f 79/83/52 83/81/52 81/75/52 75/84/52
f 77/85/53 82/78/53 83/80/53 79/86/53
f 75/84/54 81/75/54 82/78/54 77/85/54
