# Blender v2.78 (sub 0) OBJ File: 'Low_Poly_Vegetation_Pack.blend'
# www.blender.org
g Flower_b_TwoS_04
v -0.061431 0.331564 -0.000007
v -0.215813 0.258324 -0.101718
v -0.159024 0.306311 -0.016705
v -0.127123 0.324067 -0.077911
v -0.210445 0.239677 0.094306
v -0.122838 0.309185 0.078538
v -0.158103 0.303114 0.016905
v -0.046990 0.287392 0.193340
v -0.027648 0.341195 0.095945
v -0.094812 0.317367 0.095518
v 0.111096 0.353752 0.096351
v 0.031358 0.370330 0.018109
v -0.000543 0.352573 0.079315
v 0.105728 0.372399 -0.099673
v -0.004827 0.367455 -0.077135
v 0.030437 0.373527 -0.015502
v -0.057727 0.324685 -0.198707
v -0.100018 0.335445 -0.094541
v -0.032854 0.359274 -0.094114
v -0.061365 0.331376 -0.000026
v -0.215696 0.258162 -0.101704
v -0.158936 0.306131 -0.016712
v -0.127036 0.323887 -0.077918
v -0.210330 0.239522 0.094255
v -0.122752 0.309008 0.078506
v -0.158016 0.302936 0.016873
v -0.046929 0.287220 0.193258
v -0.027582 0.341012 0.095900
v -0.094747 0.317183 0.095473
v 0.111106 0.353559 0.096300
v 0.031403 0.370138 0.018077
v -0.000498 0.352381 0.079282
v 0.105740 0.372200 -0.099660
v -0.004781 0.367261 -0.077142
v 0.030483 0.373332 -0.015509
v -0.057662 0.324501 -0.198662
v -0.099952 0.335257 -0.094535
v -0.032787 0.359085 -0.094108
v 0.000000 0.000000 -0.009000
v -0.064614 0.332248 -0.004319
v 0.007794 0.000000 0.004500
v -0.059073 0.332420 0.003466
v -0.007794 0.000000 0.004500
v -0.068650 0.330798 0.001983
v -0.015765 0.152014 -0.012295
v -0.009544 0.152014 -0.001521
v -0.021986 0.152014 -0.001521
v -0.064095 0.339827 -0.041705
v -0.101256 0.323590 -0.012826
v -0.085467 0.324252 0.034385
v -0.038548 0.340898 0.034683
v -0.025339 0.350524 -0.012343
vt 0.5860 0.4156
vt 0.5472 0.4156
vt 0.5666 0.3866
vt 0.5666 0.4850
vt 0.5860 0.4156
vt 0.5472 0.4156
vt 0.5666 0.4850
vt 0.5860 0.4156
vt 0.5472 0.4156
vt 0.5666 0.4850
vt 0.5860 0.4156
vt 0.5472 0.4156
vt 0.5666 0.4850
vt 0.5860 0.4156
vt 0.5472 0.4156
vt 0.5666 0.4850
vt 0.5860 0.4156
vt 0.5472 0.4156
vt 0.5666 0.4850
vt 0.5860 0.4156
vt 0.5666 0.3866
vt 0.5472 0.4156
vt 0.5666 0.4850
vt 0.5860 0.4156
vt 0.5472 0.4156
vt 0.5666 0.4850
vt 0.5860 0.4156
vt 0.5472 0.4156
vt 0.5666 0.4850
vt 0.5860 0.4156
vt 0.5472 0.4156
vt 0.5666 0.4850
vt 0.5860 0.4156
vt 0.5472 0.4156
vt 0.5666 0.4850
vt 0.5860 0.4156
vt 0.5472 0.4156
vt 0.5666 0.4850
vt 0.6925 0.6860
vt 0.6925 0.7343
vt 0.6869 0.7343
vt 0.6869 0.6860
vt 0.6814 0.7343
vt 0.6814 0.6860
vt 0.6981 0.6860
vt 0.6981 0.7343
vt 0.6981 0.6378
vt 0.6925 0.6378
vt 0.6869 0.6378
vt 0.6814 0.6378
vt 0.6458 0.4275
vt 0.6903 0.3951
vt 0.7348 0.4275
vt 0.7178 0.4798
vt 0.6628 0.4798
vn -0.2699 0.9532 0.1359
vn -0.5822 0.8102 -0.0684
vn -0.2720 0.9604 0.0610
vn -0.5734 0.7798 0.2513
vn -0.3344 0.9421 0.0232
vn -0.3069 0.8576 0.4128
vn -0.3948 0.9168 0.0602
vn -0.0491 0.9658 0.2546
vn -0.3927 0.9097 0.1351
vn -0.0578 0.9962 -0.0651
vn -0.3303 0.9279 0.1729
vn -0.3244 0.9184 -0.2266
vn 0.2699 -0.9533 -0.1359
vn 0.5822 -0.8101 0.0684
vn 0.2719 -0.9604 -0.0610
vn 0.5735 -0.7797 -0.2513
vn 0.3344 -0.9421 -0.0231
vn 0.3069 -0.8576 -0.4128
vn 0.3948 -0.9168 -0.0602
vn 0.0490 -0.9658 -0.2546
vn 0.3928 -0.9097 -0.1351
vn 0.0578 -0.9962 0.0651
vn 0.3303 -0.9279 -0.1730
vn 0.3244 -0.9184 0.2266
vn 0.8185 0.2420 -0.5210
vn -0.0642 -0.0408 0.9971
vn -0.8313 -0.2047 -0.5167
vn -0.8617 -0.1001 -0.4975
vn -0.0000 0.0396 0.9992
vn 0.8633 0.0787 -0.4984
vn -0.3333 0.9377 0.0983
s off
f 4/1/1 3/2/1 1/3/1
f 2/4/2 3/2/2 4/1/2
f 7/5/3 6/6/3 1/3/3
f 5/7/4 6/6/4 7/5/4
f 10/8/5 9/9/5 1/3/5
f 8/10/6 9/9/6 10/8/6
f 13/11/7 12/12/7 1/3/7
f 11/13/8 12/12/8 13/11/8
f 16/14/9 15/15/9 1/3/9
f 14/16/10 15/15/10 16/14/10
f 19/17/11 18/18/11 1/3/11
f 17/19/12 18/18/12 19/17/12
f 23/20/13 20/21/13 22/22/13
f 21/23/14 23/20/14 22/22/14
f 26/24/15 20/21/15 25/25/15
f 24/26/16 26/24/16 25/25/16
f 29/27/17 20/21/17 28/28/17
f 27/29/18 29/27/18 28/28/18
f 32/30/19 20/21/19 31/31/19
f 30/32/20 32/30/20 31/31/20
f 35/33/21 20/21/21 34/34/21
f 33/35/22 35/33/22 34/34/22
f 38/36/23 20/21/23 37/37/23
f 36/38/24 38/36/24 37/37/24
f 45/39/25 40/40/25 42/41/25 46/42/25
f 46/42/26 42/41/26 44/43/26 47/44/26
f 47/45/27 44/46/27 40/40/27 45/39/27
f 43/47/28 47/45/28 45/39/28 39/48/28
f 41/49/29 46/42/29 47/44/29 43/50/29
f 39/48/30 45/39/30 46/42/30 41/49/30
f 49/51/31 50/52/31 51/53/31 52/54/31
f 48/55/31 49/51/31 52/54/31
