# Blender v2.78 (sub 0) OBJ File: 'Low_Poly_Vegetation_Pack.blend'
# www.blender.org
g Flower_e_TwoS_09
v -0.013210 0.204195 0.009033
v -0.042417 0.164154 0.073113
v -0.060873 0.161463 0.058680
v -0.011161 0.186524 0.059593
v -0.058946 0.179556 0.022224
v -0.086010 0.170156 0.006370
v -0.084199 0.176229 -0.016346
v -0.056482 0.182642 0.031517
v -0.051792 0.198366 -0.027298
v -0.052083 0.196066 -0.061112
v -0.031816 0.204830 -0.069395
v -0.056289 0.193599 -0.020660
v -0.003814 0.216291 -0.042105
v 0.024199 0.219682 -0.060958
v 0.041895 0.224649 -0.045977
v -0.012013 0.212146 -0.043867
v 0.035772 0.219114 -0.006497
v 0.065531 0.220449 0.007415
v 0.063719 0.214376 0.030131
v 0.031047 0.222798 -0.014161
v 0.026357 0.207074 0.044654
v 0.032685 0.191301 0.074118
v 0.012418 0.182537 0.082400
v 0.031936 0.208603 0.037236
v -0.020539 0.185911 0.058681
v -0.004797 -0.000416 -0.003831
v 0.004793 0.000417 0.003837
v 0.136973 0.160487 -0.188745
v 0.063530 0.128593 -0.121804
v 0.013846 0.068965 -0.061467
v 0.049442 0.072057 -0.033006
v 0.091085 0.130987 -0.099771
v -0.000644 -0.000449 0.005414
v 0.000640 0.000449 -0.005409
v -0.141015 0.123806 -0.029995
v -0.083214 0.099283 0.005664
v -0.034811 0.056463 0.021071
v -0.030048 0.059794 -0.019100
v -0.078943 0.100721 -0.025432
v -0.006153 0.000178 0.000085
v 0.006148 -0.000178 -0.000078
v 0.003517 0.209342 -0.190542
v -0.014486 0.157681 -0.101665
v -0.020993 0.082292 -0.038906
v 0.024663 0.080974 -0.039510
v 0.020857 0.156660 -0.102133
v 0.000315 0.000660 -0.004987
v -0.000319 -0.000660 0.004993
v 0.181153 0.109591 0.058539
v 0.104214 0.104717 0.012982
v 0.043781 0.069490 -0.007690
v 0.038091 0.061362 0.028410
v 0.097838 0.096499 0.040034
v -0.013148 0.204010 0.008987
v -0.042333 0.163990 0.073036
v -0.060788 0.161298 0.058603
v -0.011081 0.186355 0.059522
v -0.058866 0.179387 0.022153
v -0.085908 0.169988 0.006333
v -0.084096 0.176061 -0.016383
v -0.056395 0.182467 0.031477
v -0.051705 0.198190 -0.027338
v -0.052005 0.195882 -0.061115
v -0.031737 0.204646 -0.069398
v -0.056215 0.193414 -0.020676
v -0.003740 0.216105 -0.042122
v 0.024244 0.219487 -0.060969
v 0.041939 0.224454 -0.045988
v -0.011966 0.211953 -0.043886
v 0.035819 0.218921 -0.006516
v 0.065549 0.220256 0.007365
v 0.063738 0.214183 0.030081
v 0.031083 0.222607 -0.014209
v 0.026393 0.206883 0.044606
v 0.032727 0.191124 0.074034
v 0.012460 0.182360 0.082317
v 0.031984 0.208423 0.037164
v -0.020491 0.185731 0.058609
v -0.004693 -0.000541 -0.003948
v 0.004897 0.000292 0.003720
v 0.137020 0.160296 -0.188783
v 0.063598 0.128417 -0.121870
v 0.013940 0.068822 -0.061570
v 0.049536 0.071914 -0.033109
v 0.091153 0.130811 -0.099837
v -0.000817 -0.000545 0.005386
v 0.000466 0.000353 -0.005437
v -0.141083 0.123619 -0.030013
v -0.083319 0.099114 0.005641
v -0.034963 0.056336 0.021043
v -0.030198 0.059664 -0.019128
v -0.079041 0.100549 -0.025455
v -0.006157 0.000091 -0.000096
v 0.006143 -0.000264 -0.000259
v 0.003511 0.209169 -0.190644
v -0.014493 0.157530 -0.101796
v -0.020999 0.082184 -0.039073
v 0.024658 0.080866 -0.039678
v 0.020851 0.156510 -0.102264
v 0.000484 0.000554 -0.004986
v -0.000150 -0.000766 0.004994
v 0.181193 0.109402 0.058491
v 0.104290 0.104535 0.012947
v 0.043919 0.069346 -0.007703
v 0.038233 0.061221 0.028399
v 0.097914 0.096318 0.039998
v -0.001054 0.000000 0.006069
v -0.014132 0.202292 0.013621
v -0.004729 0.000000 -0.003947
v -0.016768 0.202895 0.006536
v 0.005783 0.000000 -0.002122
v -0.011368 0.204316 0.008572
v -0.000775 0.107146 0.002438
v -0.004365 0.106351 -0.007422
v 0.006126 0.106639 -0.005601
v -0.025147 0.196596 0.025714
v -0.000698 0.204460 0.026976
v 0.006303 0.212436 0.003554
v -0.013821 0.209502 -0.012184
v -0.033258 0.199712 0.001512
vt 0.6533 0.3148
vt 0.7213 0.3148
vt 0.7005 0.3541
vt 0.6742 0.3541
vt 0.6873 0.2661
vt 0.6533 0.3148
vt 0.7213 0.3148
vt 0.7005 0.3541
vt 0.6742 0.3541
vt 0.6873 0.2658
vt 0.6533 0.3148
vt 0.7213 0.3148
vt 0.7005 0.3541
vt 0.6742 0.3541
vt 0.6873 0.2659
vt 0.6533 0.3148
vt 0.7213 0.3145
vt 0.7008 0.3540
vt 0.6744 0.3540
vt 0.6871 0.2659
vt 0.6533 0.3148
vt 0.7213 0.3148
vt 0.7005 0.3541
vt 0.6742 0.3541
vt 0.6533 0.3148
vt 0.7213 0.3148
vt 0.7005 0.3541
vt 0.6742 0.3541
vt 0.6873 0.2660
vt 0.2023 0.6971
vt 0.2126 0.6971
vt 0.2074 0.7271
vt 0.2056 0.6420
vt 0.2092 0.6420
vt 0.2141 0.6684
vt 0.2008 0.6684
vt 0.2023 0.6971
vt 0.2126 0.6971
vt 0.2074 0.7271
vt 0.2056 0.6420
vt 0.2092 0.6420
vt 0.2141 0.6684
vt 0.2008 0.6684
vt 0.2023 0.6971
vt 0.2126 0.6971
vt 0.2074 0.7271
vt 0.2056 0.6420
vt 0.2092 0.6420
vt 0.2141 0.6684
vt 0.2008 0.6684
vt 0.2023 0.6971
vt 0.2126 0.6971
vt 0.2074 0.7271
vt 0.2056 0.6420
vt 0.2092 0.6420
vt 0.2141 0.6684
vt 0.2008 0.6684
vt 0.6533 0.3148
vt 0.6742 0.3541
vt 0.7005 0.3541
vt 0.7213 0.3148
vt 0.6873 0.2661
vt 0.6533 0.3148
vt 0.6742 0.3541
vt 0.7005 0.3541
vt 0.7213 0.3148
vt 0.6873 0.2658
vt 0.6533 0.3148
vt 0.6742 0.3541
vt 0.7005 0.3541
vt 0.7213 0.3148
vt 0.6873 0.2659
vt 0.6533 0.3148
vt 0.6744 0.3540
vt 0.7008 0.3540
vt 0.7213 0.3145
vt 0.6871 0.2659
vt 0.6533 0.3148
vt 0.6742 0.3541
vt 0.7005 0.3541
vt 0.7213 0.3148
vt 0.6533 0.3148
vt 0.6742 0.3541
vt 0.7005 0.3541
vt 0.7213 0.3148
vt 0.6873 0.2660
vt 0.2023 0.6971
vt 0.2074 0.7271
vt 0.2126 0.6971
vt 0.2056 0.6420
vt 0.2008 0.6684
vt 0.2141 0.6684
vt 0.2092 0.6420
vt 0.2023 0.6971
vt 0.2074 0.7271
vt 0.2126 0.6971
vt 0.2056 0.6420
vt 0.2008 0.6684
vt 0.2141 0.6684
vt 0.2092 0.6420
vt 0.2023 0.6971
vt 0.2074 0.7271
vt 0.2126 0.6971
vt 0.2056 0.6420
vt 0.2008 0.6684
vt 0.2141 0.6684
vt 0.2092 0.6420
vt 0.2023 0.6971
vt 0.2074 0.7271
vt 0.2126 0.6971
vt 0.2056 0.6420
vt 0.2008 0.6684
vt 0.2141 0.6684
vt 0.2092 0.6420
vt 0.1947 0.6845
vt 0.1947 0.7271
vt 0.1898 0.7271
vt 0.1898 0.6845
vt 0.1848 0.7271
vt 0.1848 0.6845
vt 0.1996 0.6845
vt 0.1996 0.7271
vt 0.1996 0.6420
vt 0.1947 0.6420
vt 0.1898 0.6420
vt 0.1848 0.6420
vt 0.4369 0.3564
vt 0.4639 0.2731
vt 0.4807 0.3245
vt 0.3931 0.3245
vt 0.4098 0.2731
vn -0.4210 0.8211 0.3853
vn -0.3765 0.8697 0.3192
vn -0.5114 0.8395 0.1837
vn -0.3425 0.9141 0.2171
vn -0.3916 0.9200 0.0154
vn -0.3370 0.9282 0.1576
vn -0.2234 0.9730 0.0576
vn -0.2481 0.9588 0.1385
vn -0.0910 0.9638 0.2504
vn -0.2733 0.9345 0.2280
vn -0.2109 0.8833 0.4187
vn -0.2745 0.9148 0.2964
vn -0.2372 0.9520 0.1933
vn -0.5203 0.6241 0.5829
vn -0.4200 0.7942 0.4390
vn 0.3413 0.9356 0.0902
vn 0.8654 0.4804 0.1424
vn 0.6297 0.7657 0.1311
vn 0.0316 0.8613 0.5071
vn 0.0244 0.4324 0.9014
vn 0.0286 0.6381 0.7694
vn -0.2026 0.9492 0.2406
vn -0.8472 0.5313 -0.0073
vn -0.5251 0.8428 0.1178
vn 0.4210 -0.8211 -0.3853
vn 0.3765 -0.8697 -0.3192
vn 0.5114 -0.8395 -0.1836
vn 0.3425 -0.9141 -0.2171
vn 0.3916 -0.9200 -0.0154
vn 0.3370 -0.9282 -0.1576
vn 0.2234 -0.9730 -0.0576
vn 0.2481 -0.9588 -0.1385
vn 0.0910 -0.9638 -0.2504
vn 0.2733 -0.9345 -0.2280
vn 0.2109 -0.8833 -0.4187
vn 0.2745 -0.9148 -0.2964
vn 0.2372 -0.9520 -0.1933
vn 0.5203 -0.6241 -0.5830
vn 0.4200 -0.7942 -0.4390
vn -0.3413 -0.9356 -0.0901
vn -0.8654 -0.4803 -0.1425
vn -0.6297 -0.7657 -0.1311
vn -0.0316 -0.8614 -0.5070
vn -0.0244 -0.4324 -0.9014
vn -0.0286 -0.6381 -0.7694
vn 0.2026 -0.9493 -0.2406
vn 0.8472 -0.5312 0.0073
vn 0.5251 -0.8428 -0.1178
vn -0.9245 -0.1690 0.3415
vn 0.2148 0.1723 -0.9613
vn 0.8007 0.0496 0.5970
vn 0.7634 0.0193 0.6456
vn 0.1714 -0.0327 -0.9847
vn -0.9393 0.0142 0.3427
vn -0.3089 0.9247 0.2226
s off
f 4/1/1 5/2/1 3/3/1 2/4/1
f 1/5/2 5/2/2 4/1/2
f 8/6/3 9/7/3 7/8/3 6/9/3
f 1/10/4 9/7/4 8/6/4
f 12/11/5 13/12/5 11/13/5 10/14/5
f 1/15/6 13/12/6 12/11/6
f 16/16/7 17/17/7 15/18/7 14/19/7
f 1/20/8 17/17/8 16/16/8
f 20/21/9 21/22/9 19/23/9 18/24/9
f 1/10/10 21/22/10 20/21/10
f 24/25/11 25/26/11 23/27/11 22/28/11
f 1/29/12 25/26/12 24/25/12
f 29/30/13 32/31/13 28/32/13
f 26/33/14 27/34/14 31/35/14 30/36/14
f 30/36/15 31/35/15 32/31/15 29/30/15
f 36/37/16 39/38/16 35/39/16
f 33/40/17 34/41/17 38/42/17 37/43/17
f 37/43/18 38/42/18 39/38/18 36/37/18
f 43/44/19 46/45/19 42/46/19
f 40/47/20 41/48/20 45/49/20 44/50/20
f 44/50/21 45/49/21 46/45/21 43/44/21
f 50/51/22 53/52/22 49/53/22
f 47/54/23 48/55/23 52/56/23 51/57/23
f 51/57/24 52/56/24 53/52/24 50/51/24
f 57/58/25 55/59/25 56/60/25 58/61/25
f 54/62/26 57/58/26 58/61/26
f 61/63/27 59/64/27 60/65/27 62/66/27
f 54/67/28 61/63/28 62/66/28
f 65/68/29 63/69/29 64/70/29 66/71/29
f 54/72/30 65/68/30 66/71/30
f 69/73/31 67/74/31 68/75/31 70/76/31
f 54/77/32 69/73/32 70/76/32
f 73/78/33 71/79/33 72/80/33 74/81/33
f 54/67/34 73/78/34 74/81/34
f 77/82/35 75/83/35 76/84/35 78/85/35
f 54/86/36 77/82/36 78/85/36
f 82/87/37 81/88/37 85/89/37
f 79/90/38 83/91/38 84/92/38 80/93/38
f 83/91/39 82/87/39 85/89/39 84/92/39
f 89/94/40 88/95/40 92/96/40
f 86/97/41 90/98/41 91/99/41 87/100/41
f 90/98/42 89/94/42 92/96/42 91/99/42
f 96/101/43 95/102/43 99/103/43
f 93/104/44 97/105/44 98/106/44 94/107/44
f 97/105/45 96/101/45 99/103/45 98/106/45
f 103/108/46 102/109/46 106/110/46
f 100/111/47 104/112/47 105/113/47 101/114/47
f 104/112/48 103/108/48 106/110/48 105/113/48
f 113/115/49 108/116/49 110/117/49 114/118/49
f 114/118/50 110/117/50 112/119/50 115/120/50
f 115/121/51 112/122/51 108/116/51 113/115/51
f 111/123/52 115/121/52 113/115/52 107/124/52
f 109/125/53 114/118/53 115/120/53 111/126/53
f 107/124/54 113/115/54 114/118/54 109/125/54
f 116/127/55 119/128/55 120/129/55
f 117/130/55 118/131/55 119/128/55 116/127/55
