# Blender v2.78 (sub 0) OBJ File: 'Low_Poly_Vegetation_Pack.blend'
# www.blender.org
g Flower_f_TwoS_02
v 0.072857 0.381651 0.177349
v -0.001775 0.404086 0.166731
v 0.069293 0.343712 0.134212
v -0.008211 0.360964 0.129442
v 0.035177 0.406587 0.198758
v 0.024748 0.344514 0.142860
v 0.017921 0.326136 0.060160
v 0.003284 0.389902 0.175717
v -0.014887 0.446865 0.117107
v -0.002964 0.350174 0.136576
v -0.011626 0.407485 0.075174
v -0.023741 0.439506 0.166665
v -0.025373 0.378331 0.110026
v 0.017872 0.326189 0.060113
v -0.013279 0.456034 0.130410
v 0.073681 0.448078 0.127586
v -0.011683 0.408754 0.080330
v 0.064982 0.400503 0.081802
v 0.031050 0.489181 0.130585
v 0.025144 0.422172 0.062571
v 0.017939 0.326197 0.060047
v 0.079915 0.448829 0.106682
v 0.062625 0.395585 0.174864
v 0.064694 0.403179 0.070946
v 0.060930 0.348625 0.137706
v 0.091859 0.442774 0.158267
v 0.076912 0.376092 0.103141
v 0.017992 0.326155 0.060110
v 0.072865 0.381503 0.177498
v -0.001888 0.403979 0.166873
v 0.069300 0.343531 0.134319
v -0.008326 0.360819 0.129543
v 0.035122 0.406453 0.198910
v 0.024694 0.344343 0.142969
v 0.017870 0.325938 0.060208
v 0.003107 0.389831 0.175806
v -0.015091 0.446900 0.117068
v -0.003141 0.350071 0.136626
v -0.011824 0.407483 0.075102
v -0.023948 0.439486 0.166694
v -0.025576 0.378276 0.110014
v 0.017692 0.326096 0.060054
v -0.013383 0.456168 0.130284
v 0.073796 0.448194 0.127453
v -0.011788 0.408835 0.080167
v 0.065092 0.400568 0.081634
v 0.031056 0.489327 0.130434
v 0.025147 0.422262 0.062381
v 0.017944 0.326203 0.059837
v 0.080117 0.448823 0.106622
v 0.062813 0.395511 0.174922
v 0.064880 0.403140 0.070855
v 0.061109 0.348516 0.137720
v 0.092065 0.442731 0.158266
v 0.077103 0.376014 0.103099
v 0.018149 0.326042 0.060026
v 0.016403 0.328726 0.063530
v 0.019686 0.328506 0.065872
v 0.020055 0.329430 0.061958
v 0.009302 0.379202 0.085491
v 0.012974 0.378956 0.088111
v 0.013388 0.379990 0.083732
v 0.014948 0.330846 0.064409
v 0.019388 0.327924 0.066251
v 0.020060 0.331864 0.062293
v 0.023619 0.373131 0.128543
v 0.028585 0.369862 0.130603
v 0.029337 0.374270 0.126175
v -0.006421 0.000000 0.002060
v 0.015991 0.331220 0.065280
v 0.001005 0.000000 -0.007126
v 0.020182 0.331025 0.060064
v 0.005247 0.000000 0.003897
v 0.021754 0.328878 0.065449
v -0.000455 0.185339 0.007262
v 0.006481 0.184408 -0.001033
v 0.010056 0.184631 0.008642
vt 0.8168 0.3097
vt 0.8190 0.2551
vt 0.8418 0.3085
vt 0.8390 0.3469
vt 0.8149 0.3646
vt 0.7877 0.3063
vt 0.7877 0.3445
vt 0.8182 0.3114
vt 0.8195 0.2577
vt 0.8486 0.3086
vt 0.8461 0.3470
vt 0.8169 0.3655
vt 0.7936 0.3079
vt 0.7890 0.3453
vt 0.8186 0.3134
vt 0.8193 0.2566
vt 0.8440 0.3105
vt 0.8475 0.3493
vt 0.8177 0.3684
vt 0.7968 0.3102
vt 0.7913 0.3498
vt 0.8182 0.3114
vt 0.8190 0.2551
vt 0.8480 0.3076
vt 0.8480 0.3484
vt 0.8175 0.3683
vt 0.7905 0.3072
vt 0.7879 0.3473
vt 0.8168 0.3097
vt 0.8418 0.3085
vt 0.8190 0.2551
vt 0.8149 0.3646
vt 0.8390 0.3469
vt 0.7877 0.3063
vt 0.7877 0.3445
vt 0.8182 0.3114
vt 0.8486 0.3086
vt 0.8195 0.2577
vt 0.8169 0.3655
vt 0.8461 0.3470
vt 0.7936 0.3079
vt 0.7890 0.3453
vt 0.8186 0.3134
vt 0.8440 0.3105
vt 0.8193 0.2566
vt 0.8177 0.3684
vt 0.8475 0.3493
vt 0.7968 0.3102
vt 0.7913 0.3498
vt 0.8182 0.3114
vt 0.8480 0.3076
vt 0.8190 0.2551
vt 0.8175 0.3683
vt 0.8480 0.3484
vt 0.7905 0.3072
vt 0.7879 0.3473
vt 0.3155 0.2739
vt 0.3155 0.3464
vt 0.3098 0.3468
vt 0.3104 0.2732
vt 0.3043 0.3478
vt 0.3054 0.2741
vt 0.3155 0.2732
vt 0.3206 0.2762
vt 0.3155 0.2791
vt 0.3054 0.2741
vt 0.3043 0.3478
vt 0.2990 0.3463
vt 0.3001 0.2738
vt 0.2990 0.3463
vt 0.3001 0.2738
vt 0.3155 0.2739
vt 0.3155 0.3464
vt 0.3098 0.3468
vt 0.3104 0.2732
vt 0.3155 0.2732
vt 0.3206 0.2762
vt 0.3155 0.2791
vt 0.0781 0.6893
vt 0.0772 0.7316
vt 0.0722 0.7316
vt 0.0699 0.6887
vt 0.0670 0.7316
vt 0.0670 0.6892
vt 0.0840 0.6894
vt 0.0824 0.7316
vt 0.0824 0.6427
vt 0.0773 0.6427
vt 0.0722 0.6427
vt 0.0670 0.6427
vn 0.5072 0.8315 -0.2266
vn 0.5382 0.5089 -0.6718
vn -0.0241 0.9763 -0.2150
vn -0.0377 0.7058 -0.7074
vn 0.8368 0.2100 0.5057
vn 0.9680 -0.1674 0.1868
vn 0.7760 0.6305 0.0137
vn 0.8391 0.3386 -0.4257
vn -0.4309 0.0086 0.9024
vn -0.5457 -0.5545 0.6283
vn 0.4505 -0.0573 0.8909
vn 0.4929 -0.6341 0.5957
vn -0.7148 0.6696 0.2016
vn -0.8943 0.3537 -0.2743
vn -0.7299 0.3609 0.5806
vn -0.9578 0.0256 0.2864
vn -0.5071 -0.8315 0.2267
vn -0.5380 -0.5091 0.6719
vn 0.0240 -0.9763 0.2151
vn 0.0374 -0.7058 0.7074
vn -0.8369 -0.2101 -0.5054
vn -0.9681 0.1671 -0.1865
vn -0.7762 -0.6304 -0.0138
vn -0.8394 -0.3384 0.4254
vn 0.4305 -0.0084 -0.9026
vn 0.5452 0.5547 -0.6286
vn -0.4500 0.0573 -0.8912
vn -0.4923 0.6343 -0.5961
vn 0.7148 -0.6696 -0.2016
vn 0.8944 -0.3536 0.2739
vn 0.7300 -0.3609 -0.5804
vn 0.9578 -0.0258 -0.2862
vn -0.4257 0.3100 -0.8501
vn 0.9902 0.0820 0.1129
vn -0.0923 0.9710 0.2204
vn -0.6118 -0.6199 0.4914
vn -0.5504 -0.3970 0.7345
vn -0.3582 0.8010 -0.4797
vn 0.9823 -0.1864 -0.0189
vn 0.1573 0.6864 0.7100
vn -0.7164 0.3252 -0.6172
vn 0.9470 0.0461 -0.3178
vn -0.1537 -0.3507 0.9238
vn -0.1443 -0.0224 0.9893
vn 0.9354 -0.0157 -0.3531
vn -0.7708 0.0433 -0.6356
s off
f 6/1/1 7/2/1 4/3/1
f 6/1/2 4/3/2 2/4/2 5/5/2
f 3/6/3 7/2/3 6/1/3
f 3/6/4 6/1/4 5/5/4 1/7/4
f 13/8/5 14/9/5 11/10/5
f 13/8/6 11/10/6 9/11/6 12/12/6
f 10/13/7 14/9/7 13/8/7
f 10/13/8 13/8/8 12/12/8 8/14/8
f 20/15/9 21/16/9 18/17/9
f 20/15/10 18/17/10 16/18/10 19/19/10
f 17/20/11 21/16/11 20/15/11
f 17/20/12 20/15/12 19/19/12 15/21/12
f 27/22/13 28/23/13 25/24/13
f 27/22/14 25/24/14 23/25/14 26/26/14
f 24/27/15 28/23/15 27/22/15
f 24/27/16 27/22/16 26/26/16 22/28/16
f 34/29/17 32/30/17 35/31/17
f 34/29/18 33/32/18 30/33/18 32/30/18
f 31/34/19 34/29/19 35/31/19
f 31/34/20 29/35/20 33/32/20 34/29/20
f 41/36/21 39/37/21 42/38/21
f 41/36/22 40/39/22 37/40/22 39/37/22
f 38/41/23 41/36/23 42/38/23
f 38/41/24 36/42/24 40/39/24 41/36/24
f 48/43/25 46/44/25 49/45/25
f 48/43/26 47/46/26 44/47/26 46/44/26
f 45/48/27 48/43/27 49/45/27
f 45/48/28 43/49/28 47/46/28 48/43/28
f 55/50/29 53/51/29 56/52/29
f 55/50/30 54/53/30 51/54/30 53/51/30
f 52/55/31 55/50/31 56/52/31
f 52/55/32 50/56/32 54/53/32 55/50/32
f 57/57/33 60/58/33 62/59/33 59/60/33
f 59/60/34 62/59/34 61/61/34 58/62/34
f 61/63/35 62/64/35 60/65/35
f 64/66/36 67/67/36 66/68/36 63/69/36
f 58/62/37 61/61/37 60/70/37 57/71/37
f 63/72/38 66/73/38 68/74/38 65/75/38
f 65/75/39 68/74/39 67/67/39 64/66/39
f 67/76/40 68/77/40 66/78/40
f 75/79/41 70/80/41 72/81/41 76/82/41
f 76/82/42 72/81/42 74/83/42 77/84/42
f 77/85/43 74/86/43 70/80/43 75/79/43
f 73/87/44 77/85/44 75/79/44 69/88/44
f 71/89/45 76/82/45 77/84/45 73/90/45
f 69/88/46 75/79/46 76/82/46 71/89/46
