# Blender v2.78 (sub 0) OBJ File: 'Low_Poly_Vegetation_Pack.blend'
# www.blender.org
g Flower_c_TwoS_11
v -0.062525 0.299417 0.017141
v 0.027218 0.308429 0.053624
v -0.069833 0.386064 -0.008393
v 0.035202 0.396612 0.034306
v -0.080385 0.341398 0.002619
v 0.042620 0.353751 0.052624
v -0.014495 0.300557 0.028443
v -0.015853 0.411334 0.004418
v -0.018998 0.347698 0.027877
v -0.005784 0.241810 0.021529
v 0.028366 0.307322 0.054684
v 0.021135 0.218775 0.094344
v 0.104565 0.329751 0.098316
v 0.096102 0.226115 0.144735
v 0.064775 0.332395 0.073069
v 0.054865 0.211028 0.127429
v 0.027909 0.259683 0.067575
v 0.120274 0.280118 0.130038
v 0.059704 0.271836 0.100504
v 0.019786 0.217417 0.094388
v -0.069957 0.208405 0.057906
v 0.014582 0.144101 0.147406
v -0.090453 0.133553 0.104707
v 0.028827 0.184832 0.128283
v -0.094178 0.172480 0.078278
v -0.021927 0.209545 0.069208
v -0.039711 0.119164 0.135281
v -0.032792 0.178780 0.103535
v -0.071105 0.209511 0.056846
v -0.063874 0.298059 0.017185
v -0.159816 0.200414 0.040697
v -0.151353 0.304050 -0.005722
v -0.116333 0.193835 0.057833
v -0.106423 0.315203 0.003472
v -0.064331 0.250419 0.030077
v -0.175837 0.250380 0.009661
v -0.111494 0.254643 0.030908
v -0.000827 -0.003535 0.002932
v 0.059600 0.091541 0.150778
v -0.045005 0.109787 0.143487
v 0.008019 0.123352 0.193567
v 0.071610 0.034111 0.069560
v -0.064613 0.057872 0.060066
v 0.004990 0.052724 0.060265
v 0.008361 0.105762 0.144633
v -0.001739 -0.004334 -0.003300
v -0.180018 0.112228 -0.084287
v -0.080610 0.134597 -0.165800
v -0.170027 0.151228 -0.165841
v -0.122390 0.041820 -0.001762
v 0.007064 0.070950 -0.107914
v -0.055166 0.064638 -0.049528
v -0.129159 0.129662 -0.121920
v 0.001060 0.001389 0.000145
v 0.101260 0.109252 -0.093074
v 0.143366 0.097070 0.014771
v 0.164239 0.117151 -0.053941
v 0.022549 0.061179 -0.085222
v 0.079173 0.045069 0.054481
v 0.046513 0.062305 -0.012960
v 0.121040 0.109067 -0.038143
v -0.001251 -0.003642 0.000795
v -0.122695 0.052056 0.108021
v -0.165986 0.043374 0.000306
v -0.187224 0.055246 0.070791
v -0.035881 0.028038 0.094080
v -0.092257 0.016732 -0.046193
v -0.062500 0.029069 0.022774
v -0.143889 0.052547 0.053592
v -0.062466 0.299414 0.016950
v 0.027309 0.308430 0.053446
v -0.069758 0.385999 -0.008567
v 0.035280 0.396548 0.034134
v -0.080314 0.341356 0.002436
v 0.042704 0.353710 0.052447
v -0.014420 0.300567 0.028258
v -0.015776 0.411269 0.004245
v -0.018921 0.347658 0.027696
v -0.005708 0.241729 0.021362
v 0.028510 0.307272 0.054554
v 0.021277 0.218692 0.094229
v 0.104657 0.329674 0.098156
v 0.096194 0.226034 0.144576
v 0.064888 0.332327 0.072918
v 0.054976 0.210946 0.127285
v 0.028060 0.259619 0.067460
v 0.120366 0.280039 0.129879
v 0.059817 0.271761 0.100358
v 0.019865 0.217272 0.094276
v -0.069910 0.208257 0.057780
v 0.014658 0.144005 0.147248
v -0.090380 0.133457 0.104547
v 0.028904 0.184717 0.128139
v -0.094114 0.172363 0.078129
v -0.021866 0.209391 0.069096
v -0.039636 0.119068 0.135122
v -0.032721 0.178662 0.103390
v -0.071111 0.209414 0.056671
v -0.063877 0.297994 0.016996
v -0.159757 0.200330 0.040525
v -0.151293 0.303970 -0.005895
v -0.116297 0.193746 0.057657
v -0.106386 0.315126 0.003291
v -0.064346 0.250339 0.029894
v -0.175778 0.250298 0.009488
v -0.111460 0.254560 0.030729
v -0.000861 -0.003674 0.003072
v 0.059541 0.091374 0.150870
v -0.045019 0.109612 0.143583
v 0.007982 0.123167 0.193633
v 0.071552 0.033960 0.069678
v -0.064625 0.057713 0.060186
v 0.004955 0.052570 0.060389
v 0.008324 0.105585 0.144720
v -0.001810 -0.004472 -0.003425
v -0.180039 0.112061 -0.084394
v -0.080665 0.134422 -0.165880
v -0.170045 0.151043 -0.165915
v -0.122429 0.041669 -0.001887
v 0.006991 0.070791 -0.108010
v -0.055225 0.064485 -0.049642
v -0.129192 0.129485 -0.122008
v 0.001202 0.001268 0.000073
v 0.101341 0.109072 -0.093102
v 0.143431 0.096894 0.014700
v 0.164264 0.116956 -0.053972
v 0.022669 0.061024 -0.085260
v 0.079275 0.044919 0.054396
v 0.046631 0.062156 -0.013024
v 0.121099 0.108881 -0.038187
v -0.001329 -0.003820 0.000841
v -0.122735 0.051860 0.108034
v -0.166013 0.043181 0.000351
v -0.187229 0.055047 0.070809
v -0.035944 0.027850 0.094101
v -0.092307 0.016546 -0.046138
v -0.062562 0.028883 0.022814
v -0.143913 0.052350 0.053618
v 0.005320 0.000000 -0.004549
v -0.003773 0.240668 0.023394
v 0.001280 0.000000 0.006882
v -0.006819 0.236164 0.028974
v -0.006600 0.000000 -0.002333
v -0.011351 0.237160 0.025518
v 0.001005 0.132227 -0.001168
v -0.002998 0.131324 0.010064
v -0.010861 0.131651 0.000868
vt 0.0603 0.3249
vt 0.1002 0.3252
vt 0.0942 0.3526
vt 0.0603 0.3655
vt 0.0602 0.2963
vt 0.0897 0.2987
vt 0.0307 0.2988
vt 0.0204 0.3253
vt 0.0264 0.3527
vt 0.0602 0.2605
vt 0.0603 0.3249
vt 0.1002 0.3252
vt 0.0942 0.3526
vt 0.0603 0.3655
vt 0.0602 0.2963
vt 0.0897 0.2987
vt 0.0307 0.2988
vt 0.0204 0.3253
vt 0.0264 0.3527
vt 0.0603 0.3249
vt 0.1002 0.3252
vt 0.0942 0.3526
vt 0.0603 0.3655
vt 0.0602 0.2963
vt 0.0897 0.2987
vt 0.0307 0.2988
vt 0.0204 0.3253
vt 0.0264 0.3527
vt 0.0603 0.3249
vt 0.1002 0.3252
vt 0.0942 0.3526
vt 0.0603 0.3655
vt 0.0602 0.2963
vt 0.0897 0.2987
vt 0.0307 0.2988
vt 0.0204 0.3253
vt 0.0264 0.3527
vt 0.1859 0.7165
vt 0.2133 0.7159
vt 0.1859 0.7374
vt 0.1584 0.7159
vt 0.1859 0.6399
vt 0.2217 0.6738
vt 0.1859 0.6742
vt 0.1501 0.6738
vt 0.1859 0.7165
vt 0.2133 0.7159
vt 0.1859 0.7374
vt 0.1584 0.7159
vt 0.1859 0.6399
vt 0.2217 0.6738
vt 0.1859 0.6742
vt 0.1501 0.6738
vt 0.0532 0.7165
vt 0.0807 0.7159
vt 0.0532 0.7374
vt 0.0257 0.7159
vt 0.0532 0.6399
vt 0.0890 0.6738
vt 0.0532 0.6742
vt 0.0174 0.6738
vt 0.0532 0.7165
vt 0.0807 0.7159
vt 0.0532 0.7374
vt 0.0257 0.7159
vt 0.0532 0.6399
vt 0.0890 0.6738
vt 0.0532 0.6742
vt 0.0174 0.6738
vt 0.0603 0.3249
vt 0.0603 0.3655
vt 0.0942 0.3526
vt 0.1002 0.3252
vt 0.0602 0.2963
vt 0.0897 0.2987
vt 0.0307 0.2988
vt 0.0204 0.3253
vt 0.0264 0.3527
vt 0.0602 0.2605
vt 0.0603 0.3249
vt 0.0603 0.3655
vt 0.0942 0.3526
vt 0.1002 0.3252
vt 0.0602 0.2963
vt 0.0897 0.2987
vt 0.0307 0.2988
vt 0.0204 0.3253
vt 0.0264 0.3527
vt 0.0603 0.3249
vt 0.0603 0.3655
vt 0.0942 0.3526
vt 0.1002 0.3252
vt 0.0602 0.2963
vt 0.0897 0.2987
vt 0.0307 0.2988
vt 0.0204 0.3253
vt 0.0264 0.3527
vt 0.0603 0.3249
vt 0.0603 0.3655
vt 0.0942 0.3526
vt 0.1002 0.3252
vt 0.0602 0.2963
vt 0.0897 0.2987
vt 0.0307 0.2988
vt 0.0204 0.3253
vt 0.0264 0.3527
vt 0.1859 0.7165
vt 0.1859 0.7374
vt 0.2133 0.7159
vt 0.1584 0.7159
vt 0.1859 0.6399
vt 0.1859 0.6742
vt 0.2217 0.6738
vt 0.1501 0.6738
vt 0.1859 0.7165
vt 0.1859 0.7374
vt 0.2133 0.7159
vt 0.1584 0.7159
vt 0.1859 0.6399
vt 0.1859 0.6742
vt 0.2217 0.6738
vt 0.1501 0.6738
vt 0.0532 0.7165
vt 0.0532 0.7374
vt 0.0807 0.7159
vt 0.0257 0.7159
vt 0.0532 0.6399
vt 0.0532 0.6742
vt 0.0890 0.6738
vt 0.0174 0.6738
vt 0.0532 0.7165
vt 0.0532 0.7374
vt 0.0807 0.7159
vt 0.0257 0.7159
vt 0.0532 0.6399
vt 0.0532 0.6742
vt 0.0890 0.6738
vt 0.0174 0.6738
vt 0.6913 0.6799
vt 0.6913 0.7249
vt 0.6861 0.7249
vt 0.6861 0.6799
vt 0.6809 0.7249
vt 0.6809 0.6799
vt 0.6965 0.6799
vt 0.6965 0.7249
vt 0.6965 0.6350
vt 0.6913 0.6350
vt 0.6861 0.6350
vt 0.6809 0.6350
vn -0.3929 0.3221 0.8613
vn -0.4414 0.0672 0.8948
vn -0.3208 0.0793 0.9438
vn -0.3752 0.3239 0.8685
vn -0.2233 -0.1465 0.9637
vn -0.4849 -0.1728 0.8573
vn -0.4572 0.4030 0.7928
vn -0.6615 0.4078 0.6294
vn -0.6712 0.2887 0.6827
vn -0.4587 0.3855 0.8006
vn -0.8250 0.1550 0.5435
vn -0.8039 0.4131 0.4279
vn -0.3623 0.4825 0.7975
vn -0.2708 0.6916 0.6696
vn -0.3914 0.6795 0.6205
vn -0.3799 0.4807 0.7903
vn -0.4042 0.8152 0.4148
vn -0.1426 0.8415 0.5211
vn -0.2979 0.4017 0.8660
vn -0.0506 0.3511 0.9350
vn -0.0409 0.4701 0.8817
vn -0.2965 0.4191 0.8582
vn 0.1974 0.5137 0.8350
vn 0.1764 0.2555 0.9506
vn 0.0780 0.9384 -0.3368
vn 0.2888 0.9016 -0.3221
vn 0.0545 0.7099 -0.7022
vn 0.0686 0.8416 -0.5358
vn 0.2917 0.8026 -0.5202
vn 0.2830 0.6701 -0.6862
vn 0.1744 0.9383 0.2985
vn 0.0110 0.9016 0.4325
vn 0.4422 0.7099 0.5481
vn 0.3178 0.8416 0.4368
vn 0.1449 0.8026 0.5786
vn 0.2652 0.6701 0.6933
vn -0.0870 0.9630 0.2550
vn -0.1618 0.9849 0.0616
vn -0.6566 0.5908 0.4689
vn -0.4077 0.8270 0.3871
vn -0.4935 0.8543 0.1634
vn -0.7526 0.6132 0.2400
vn -0.0051 0.9858 -0.1676
vn 0.0569 0.9983 -0.0132
vn 0.3581 0.8800 -0.3119
vn 0.1849 0.9515 -0.2458
vn 0.2502 0.9646 -0.0835
vn 0.4249 0.8934 -0.1457
vn 0.3929 -0.3221 -0.8613
vn 0.4414 -0.0672 -0.8948
vn 0.3208 -0.0793 -0.9438
vn 0.3752 -0.3239 -0.8685
vn 0.2233 0.1460 -0.9637
vn 0.4850 0.1723 -0.8574
vn 0.4572 -0.4030 -0.7928
vn 0.6615 -0.4078 -0.6294
vn 0.6713 -0.2887 -0.6827
vn 0.4586 -0.3855 -0.8006
vn 0.8247 -0.1551 -0.5439
vn 0.8036 -0.4133 -0.4283
vn 0.3623 -0.4825 -0.7975
vn 0.2708 -0.6917 -0.6696
vn 0.3914 -0.6795 -0.6205
vn 0.3799 -0.4807 -0.7903
vn 0.4044 -0.8149 -0.4152
vn 0.1427 -0.8412 -0.5216
vn 0.2979 -0.4017 -0.8660
vn 0.0506 -0.3511 -0.9350
vn 0.0409 -0.4701 -0.8817
vn 0.2965 -0.4191 -0.8582
vn -0.1969 -0.5138 -0.8350
vn -0.1758 -0.2556 -0.9507
vn -0.0780 -0.9384 0.3367
vn -0.2888 -0.9016 0.3221
vn -0.0545 -0.7099 0.7022
vn -0.0686 -0.8416 0.5358
vn -0.2918 -0.8026 0.5202
vn -0.2830 -0.6701 0.6862
vn -0.1744 -0.9384 -0.2985
vn -0.0110 -0.9016 -0.4325
vn -0.4422 -0.7099 -0.5481
vn -0.3178 -0.8416 -0.4368
vn -0.1448 -0.8026 -0.5786
vn -0.2652 -0.6701 -0.6933
vn 0.0869 -0.9630 -0.2550
vn 0.1617 -0.9849 -0.0616
vn 0.6566 -0.5908 -0.4689
vn 0.4077 -0.8270 -0.3872
vn 0.4935 -0.8543 -0.1633
vn 0.7526 -0.6132 -0.2400
vn 0.0051 -0.9858 0.1676
vn -0.0569 -0.9983 0.0132
vn -0.3581 -0.8800 0.3119
vn -0.1849 -0.9515 0.2459
vn -0.2502 -0.9646 0.0834
vn -0.4249 -0.8934 0.1457
vn 0.9259 -0.0392 0.3756
vn -0.7137 -0.1560 0.6829
vn -0.2468 0.2115 -0.9457
vn -0.1764 0.0188 -0.9841
vn -0.7598 -0.0404 0.6489
vn 0.9419 0.0224 0.3352
s off
f 9/1/1 6/2/1 4/3/1 8/4/1
f 7/5/2 2/6/2 6/2/2 9/1/2
f 1/7/3 7/5/3 9/1/3 5/8/3
f 5/8/4 9/1/4 8/4/4 3/9/4
f 7/5/5 1/7/5 10/10/5
f 7/5/6 10/10/6 2/6/6
f 19/11/7 16/12/7 14/13/7 18/14/7
f 17/15/8 12/16/8 16/12/8 19/11/8
f 11/17/9 17/15/9 19/11/9 15/18/9
f 15/18/10 19/11/10 18/14/10 13/19/10
f 17/15/11 11/17/11 10/10/11
f 17/15/12 10/10/12 12/16/12
f 28/20/13 25/21/13 23/22/13 27/23/13
f 26/24/14 21/25/14 25/21/14 28/20/14
f 20/26/15 26/24/15 28/20/15 24/27/15
f 24/27/16 28/20/16 27/23/16 22/28/16
f 26/24/17 20/26/17 10/10/17
f 26/24/18 10/10/18 21/25/18
f 37/29/19 34/30/19 32/31/19 36/32/19
f 35/33/20 30/34/20 34/30/20 37/29/20
f 29/35/21 35/33/21 37/29/21 33/36/21
f 33/36/22 37/29/22 36/32/22 31/37/22
f 35/33/23 29/35/23 10/10/23
f 35/33/24 10/10/24 30/34/24
f 45/38/25 40/39/25 41/40/25
f 39/41/26 45/38/26 41/40/26
f 38/42/27 43/43/27 44/44/27
f 44/44/28 43/43/28 40/39/28 45/38/28
f 42/45/29 44/44/29 45/38/29 39/41/29
f 42/45/30 38/42/30 44/44/30
f 53/46/31 48/47/31 49/48/31
f 47/49/32 53/46/32 49/48/32
f 46/50/33 51/51/33 52/52/33
f 52/52/34 51/51/34 48/47/34 53/46/34
f 50/53/35 52/52/35 53/46/35 47/49/35
f 50/53/36 46/50/36 52/52/36
f 61/54/37 56/55/37 57/56/37
f 55/57/38 61/54/38 57/56/38
f 54/58/39 59/59/39 60/60/39
f 60/60/40 59/59/40 56/55/40 61/54/40
f 58/61/41 60/60/41 61/54/41 55/57/41
f 58/61/42 54/58/42 60/60/42
f 69/62/43 64/63/43 65/64/43
f 63/65/44 69/62/44 65/64/44
f 62/66/45 67/67/45 68/68/45
f 68/68/46 67/67/46 64/63/46 69/62/46
f 66/69/47 68/68/47 69/62/47 63/65/47
f 66/69/48 62/66/48 68/68/48
f 78/70/49 77/71/49 73/72/49 75/73/49
f 76/74/50 78/70/50 75/73/50 71/75/50
f 70/76/51 74/77/51 78/70/51 76/74/51
f 74/77/52 72/78/52 77/71/52 78/70/52
f 76/74/53 79/79/53 70/76/53
f 76/74/54 71/75/54 79/79/54
f 88/80/55 87/81/55 83/82/55 85/83/55
f 86/84/56 88/80/56 85/83/56 81/85/56
f 80/86/57 84/87/57 88/80/57 86/84/57
f 84/87/58 82/88/58 87/81/58 88/80/58
f 86/84/59 79/79/59 80/86/59
f 86/84/60 81/85/60 79/79/60
f 97/89/61 96/90/61 92/91/61 94/92/61
f 95/93/62 97/89/62 94/92/62 90/94/62
f 89/95/63 93/96/63 97/89/63 95/93/63
f 93/96/64 91/97/64 96/90/64 97/89/64
f 95/93/65 79/79/65 89/95/65
f 95/93/66 90/94/66 79/79/66
f 106/98/67 105/99/67 101/100/67 103/101/67
f 104/102/68 106/98/68 103/101/68 99/103/68
f 98/104/69 102/105/69 106/98/69 104/102/69
f 102/105/70 100/106/70 105/99/70 106/98/70
f 104/102/71 79/79/71 98/104/71
f 104/102/72 99/103/72 79/79/72
f 114/107/73 110/108/73 109/109/73
f 108/110/74 110/108/74 114/107/74
f 107/111/75 113/112/75 112/113/75
f 113/112/76 114/107/76 109/109/76 112/113/76
f 111/114/77 108/110/77 114/107/77 113/112/77
f 111/114/78 113/112/78 107/111/78
f 122/115/79 118/116/79 117/117/79
f 116/118/80 118/116/80 122/115/80
f 115/119/81 121/120/81 120/121/81
f 121/120/82 122/115/82 117/117/82 120/121/82
f 119/122/83 116/118/83 122/115/83 121/120/83
f 119/122/84 121/120/84 115/119/84
f 130/123/85 126/124/85 125/125/85
f 124/126/86 126/124/86 130/123/86
f 123/127/87 129/128/87 128/129/87
f 129/128/88 130/123/88 125/125/88 128/129/88
f 127/130/89 124/126/89 130/123/89 129/128/89
f 127/130/90 129/128/90 123/127/90
f 138/131/91 134/132/91 133/133/91
f 132/134/92 134/132/92 138/131/92
f 131/135/93 137/136/93 136/137/93
f 137/136/94 138/131/94 133/133/94 136/137/94
f 135/138/95 132/134/95 138/131/95 137/136/95
f 135/138/96 137/136/96 131/135/96
f 145/139/97 140/140/97 142/141/97 146/142/97
f 146/142/98 142/141/98 144/143/98 147/144/98
f 147/145/99 144/146/99 140/140/99 145/139/99
f 143/147/100 147/145/100 145/139/100 139/148/100
f 141/149/101 146/142/101 147/144/101 143/150/101
f 139/148/102 145/139/102 146/142/102 141/149/102
